%TF.GenerationSoftware,KiCad,Pcbnew,7.0.11+1*%
%TF.CreationDate,2024-05-07T21:52:51+02:00*%
%TF.ProjectId,QL_MiniTrump3,514c5f4d-696e-4695-9472-756d70332e6b,01*%
%TF.SameCoordinates,Original*%
%TF.FileFunction,Soldermask,Top*%
%TF.FilePolarity,Negative*%
%FSLAX46Y46*%
G04 Gerber Fmt 4.6, Leading zero omitted, Abs format (unit mm)*
G04 Created by KiCad (PCBNEW 7.0.11+1) date 2024-05-07 21:52:51*
%MOMM*%
%LPD*%
G01*
G04 APERTURE LIST*
G04 Aperture macros list*
%AMRoundRect*
0 Rectangle with rounded corners*
0 $1 Rounding radius*
0 $2 $3 $4 $5 $6 $7 $8 $9 X,Y pos of 4 corners*
0 Add a 4 corners polygon primitive as box body*
4,1,4,$2,$3,$4,$5,$6,$7,$8,$9,$2,$3,0*
0 Add four circle primitives for the rounded corners*
1,1,$1+$1,$2,$3*
1,1,$1+$1,$4,$5*
1,1,$1+$1,$6,$7*
1,1,$1+$1,$8,$9*
0 Add four rect primitives between the rounded corners*
20,1,$1+$1,$2,$3,$4,$5,0*
20,1,$1+$1,$4,$5,$6,$7,0*
20,1,$1+$1,$6,$7,$8,$9,0*
20,1,$1+$1,$8,$9,$2,$3,0*%
G04 Aperture macros list end*
%ADD10C,0.127000*%
%ADD11O,3.500000X3.500000*%
%ADD12R,1.905000X2.000000*%
%ADD13O,1.905000X2.000000*%
%ADD14R,1.600000X1.600000*%
%ADD15O,1.600000X1.600000*%
%ADD16C,2.850000*%
%ADD17RoundRect,0.249999X-0.525001X0.525001X-0.525001X-0.525001X0.525001X-0.525001X0.525001X0.525001X0*%
%ADD18C,1.550000*%
%ADD19R,1.700000X1.700000*%
%ADD20O,1.700000X1.700000*%
%ADD21RoundRect,0.249999X0.525001X-0.525001X0.525001X0.525001X-0.525001X0.525001X-0.525001X-0.525001X0*%
%ADD22RoundRect,0.250000X-0.550000X1.500000X-0.550000X-1.500000X0.550000X-1.500000X0.550000X1.500000X0*%
%ADD23C,1.600000*%
%TA.AperFunction,Profile*%
%ADD24C,0.050000*%
%TD*%
G04 APERTURE END LIST*
D10*
X179959000Y-46456600D02*
X189890400Y-46456600D01*
X189890400Y-62077600D01*
X179959000Y-62077600D01*
X179959000Y-46456600D01*
G36*
X179959000Y-46456600D02*
G01*
X189890400Y-46456600D01*
X189890400Y-62077600D01*
X179959000Y-62077600D01*
X179959000Y-46456600D01*
G37*
D11*
%TO.C,U18*%
X184912000Y-49253000D03*
D12*
X182372000Y-65913000D03*
D13*
X184912000Y-65913000D03*
X187452000Y-65913000D03*
%TD*%
D14*
%TO.C,U14*%
X153162000Y-139573000D03*
D15*
X155702000Y-139573000D03*
X158242000Y-139573000D03*
X160782000Y-139573000D03*
X163322000Y-139573000D03*
X165862000Y-139573000D03*
X168402000Y-139573000D03*
X170942000Y-139573000D03*
X173482000Y-139573000D03*
X176022000Y-139573000D03*
X178562000Y-139573000D03*
X181102000Y-139573000D03*
X183642000Y-139573000D03*
X186182000Y-139573000D03*
X186182000Y-124333000D03*
X183642000Y-124333000D03*
X181102000Y-124333000D03*
X178562000Y-124333000D03*
X176022000Y-124333000D03*
X173482000Y-124333000D03*
X170942000Y-124333000D03*
X168402000Y-124333000D03*
X165862000Y-124333000D03*
X163322000Y-124333000D03*
X160782000Y-124333000D03*
X158242000Y-124333000D03*
X155702000Y-124333000D03*
X153162000Y-124333000D03*
%TD*%
D16*
%TO.C,J1*%
X130937000Y-138303000D03*
X130937000Y-49403000D03*
D17*
X133477000Y-54483000D03*
D18*
X133477000Y-57023000D03*
X133477000Y-59563000D03*
X133477000Y-62103000D03*
X133477000Y-64643000D03*
X133477000Y-67183000D03*
X133477000Y-69723000D03*
X133477000Y-72263000D03*
X133477000Y-74803000D03*
X133477000Y-77343000D03*
X133477000Y-79883000D03*
X133477000Y-82423000D03*
X133477000Y-84963000D03*
X133477000Y-87503000D03*
X133477000Y-90043000D03*
X133477000Y-92583000D03*
X133477000Y-95123000D03*
X133477000Y-97663000D03*
X133477000Y-100203000D03*
X133477000Y-102743000D03*
X133477000Y-105283000D03*
X133477000Y-107823000D03*
X133477000Y-110363000D03*
X133477000Y-112903000D03*
X133477000Y-115443000D03*
X133477000Y-117983000D03*
X133477000Y-120523000D03*
X133477000Y-123063000D03*
X133477000Y-125603000D03*
X133477000Y-128143000D03*
X133477000Y-130683000D03*
X133477000Y-133223000D03*
X136017000Y-54483000D03*
X136017000Y-57023000D03*
X136017000Y-59563000D03*
X136017000Y-62103000D03*
X136017000Y-64643000D03*
X136017000Y-67183000D03*
X136017000Y-69723000D03*
X136017000Y-72263000D03*
X136017000Y-74803000D03*
X136017000Y-77343000D03*
X136017000Y-79883000D03*
X136017000Y-82423000D03*
X136017000Y-84963000D03*
X136017000Y-87503000D03*
X136017000Y-90043000D03*
X136017000Y-92583000D03*
X136017000Y-95123000D03*
X136017000Y-97663000D03*
X136017000Y-100203000D03*
X136017000Y-102743000D03*
X136017000Y-105283000D03*
X136017000Y-107823000D03*
X136017000Y-110363000D03*
X136017000Y-112903000D03*
X136017000Y-115443000D03*
X136017000Y-117983000D03*
X136017000Y-120523000D03*
X136017000Y-123063000D03*
X136017000Y-125603000D03*
X136017000Y-128143000D03*
X136017000Y-130683000D03*
X136017000Y-133223000D03*
%TD*%
D19*
%TO.C,J2*%
X145796000Y-114300000D03*
D20*
X143256000Y-114300000D03*
X145796000Y-111760000D03*
X143256000Y-111760000D03*
X145796000Y-109220000D03*
X143256000Y-109220000D03*
X145796000Y-106680000D03*
X143256000Y-106680000D03*
X145796000Y-104140000D03*
X143256000Y-104140000D03*
X145796000Y-101600000D03*
X143256000Y-101600000D03*
X145796000Y-99060000D03*
X143256000Y-99060000D03*
X145796000Y-96520000D03*
X143256000Y-96520000D03*
X145796000Y-93980000D03*
X143256000Y-93980000D03*
X145796000Y-91440000D03*
X143256000Y-91440000D03*
X145796000Y-88900000D03*
X143256000Y-88900000D03*
X145796000Y-86360000D03*
X143256000Y-86360000D03*
X145796000Y-83820000D03*
X143256000Y-83820000D03*
X145796000Y-81280000D03*
X143256000Y-81280000D03*
X145796000Y-78740000D03*
X143256000Y-78740000D03*
X145796000Y-76200000D03*
X143256000Y-76200000D03*
X145796000Y-73660000D03*
X143256000Y-73660000D03*
%TD*%
D16*
%TO.C,J3*%
X198882000Y-49393000D03*
X198882000Y-138293000D03*
D21*
X196342000Y-54483000D03*
D18*
X196342000Y-57023000D03*
X196342000Y-59563000D03*
X196342000Y-62103000D03*
X196342000Y-64643000D03*
X196342000Y-67183000D03*
X196342000Y-69723000D03*
X196342000Y-72263000D03*
X196342000Y-74803000D03*
X196342000Y-77343000D03*
X196342000Y-79883000D03*
X196342000Y-82423000D03*
X196342000Y-84963000D03*
X196342000Y-87503000D03*
X196342000Y-90043000D03*
X196342000Y-92583000D03*
X196342000Y-95123000D03*
X196342000Y-97663000D03*
X196342000Y-100203000D03*
X196342000Y-102743000D03*
X196342000Y-105283000D03*
X196342000Y-107823000D03*
X196342000Y-110363000D03*
X196342000Y-112903000D03*
X196342000Y-115443000D03*
X196342000Y-117983000D03*
X196342000Y-120523000D03*
X196342000Y-123063000D03*
X196342000Y-125603000D03*
X196342000Y-128143000D03*
X196342000Y-130683000D03*
X196342000Y-133223000D03*
X193802000Y-54483000D03*
X193802000Y-57023000D03*
X193802000Y-59563000D03*
X193802000Y-62103000D03*
X193802000Y-64643000D03*
X193802000Y-67183000D03*
X193802000Y-69723000D03*
X193802000Y-72263000D03*
X193802000Y-74803000D03*
X193802000Y-77343000D03*
X193802000Y-79883000D03*
X193802000Y-82423000D03*
X193802000Y-84963000D03*
X193802000Y-87503000D03*
X193802000Y-90043000D03*
X193802000Y-92583000D03*
X193802000Y-95123000D03*
X193802000Y-97663000D03*
X193802000Y-100203000D03*
X193802000Y-102743000D03*
X193802000Y-105283000D03*
X193802000Y-107823000D03*
X193802000Y-110363000D03*
X193802000Y-112903000D03*
X193802000Y-115443000D03*
X193802000Y-117983000D03*
X193802000Y-120523000D03*
X193802000Y-123063000D03*
X193802000Y-125603000D03*
X193802000Y-128143000D03*
X193802000Y-130683000D03*
X193802000Y-133223000D03*
%TD*%
D14*
%TO.C,U13*%
X153162000Y-87889000D03*
D15*
X155702000Y-87889000D03*
X158242000Y-87889000D03*
X160782000Y-87889000D03*
X163322000Y-87889000D03*
X165862000Y-87889000D03*
X168402000Y-87889000D03*
X170942000Y-87889000D03*
X173482000Y-87889000D03*
X176022000Y-87889000D03*
X178562000Y-87889000D03*
X181102000Y-87889000D03*
X183642000Y-87889000D03*
X186182000Y-87889000D03*
X186182000Y-72649000D03*
X183642000Y-72649000D03*
X181102000Y-72649000D03*
X178562000Y-72649000D03*
X176022000Y-72649000D03*
X173482000Y-72649000D03*
X170942000Y-72649000D03*
X168402000Y-72649000D03*
X165862000Y-72649000D03*
X163322000Y-72649000D03*
X160782000Y-72649000D03*
X158242000Y-72649000D03*
X155702000Y-72649000D03*
X153162000Y-72649000D03*
%TD*%
D22*
%TO.C,C16*%
X174117000Y-61583000D03*
X174117000Y-67183000D03*
%TD*%
D14*
%TO.C,U1*%
X186182000Y-119253000D03*
D15*
X186182000Y-116713000D03*
X186182000Y-114173000D03*
X186182000Y-111633000D03*
X186182000Y-109093000D03*
X186182000Y-106553000D03*
X186182000Y-104013000D03*
X186182000Y-101473000D03*
X186182000Y-98933000D03*
X186182000Y-96393000D03*
X178562000Y-96393000D03*
X178562000Y-98933000D03*
X178562000Y-101473000D03*
X178562000Y-104013000D03*
X178562000Y-106553000D03*
X178562000Y-109093000D03*
X178562000Y-111633000D03*
X178562000Y-114173000D03*
X178562000Y-116713000D03*
X178562000Y-119253000D03*
%TD*%
D14*
%TO.C,U17*%
X173482000Y-116713000D03*
D15*
X173482000Y-114173000D03*
X173482000Y-111633000D03*
X173482000Y-109093000D03*
X173482000Y-106553000D03*
X173482000Y-104013000D03*
X173482000Y-101473000D03*
X173482000Y-98933000D03*
X165862000Y-98933000D03*
X165862000Y-101473000D03*
X165862000Y-104013000D03*
X165862000Y-106553000D03*
X165862000Y-109093000D03*
X165862000Y-111633000D03*
X165862000Y-114173000D03*
X165862000Y-116713000D03*
%TD*%
D14*
%TO.C,U15*%
X159512000Y-114173000D03*
D15*
X159512000Y-111633000D03*
X159512000Y-109093000D03*
X159512000Y-106553000D03*
X159512000Y-104013000D03*
X159512000Y-101473000D03*
X159512000Y-98933000D03*
X151892000Y-98933000D03*
X151892000Y-101473000D03*
X151892000Y-104013000D03*
X151892000Y-106553000D03*
X151892000Y-109093000D03*
X151892000Y-111633000D03*
X151892000Y-114173000D03*
%TD*%
D14*
%TO.C,X1*%
X158242000Y-59944000D03*
D23*
X158242000Y-67564000D03*
X165862000Y-67564000D03*
X165862000Y-59944000D03*
%TD*%
D14*
%TO.C,RN1*%
X150622000Y-64643000D03*
D15*
X148082000Y-64643000D03*
X145542000Y-64643000D03*
X143002000Y-64643000D03*
X140462000Y-64643000D03*
%TD*%
D22*
%TO.C,C14*%
X174117000Y-46603000D03*
X174117000Y-52203000D03*
%TD*%
D24*
X201422000Y-44323000D02*
X128397000Y-44323000D01*
X201422000Y-143383000D02*
X201422000Y-44323000D01*
X128397000Y-44323000D02*
X128397000Y-143383000D01*
X128397000Y-143383000D02*
X201422000Y-143383000D01*
M02*
