M48
; DRILL file {KiCad 7.0.11+1} date mar 07 may 2024 21:52:43
; FORMAT={-:-/ absolute / inch / decimal}
; #@! TF.CreationDate,2024-05-07T21:52:43+02:00
; #@! TF.GenerationSoftware,Kicad,Pcbnew,7.0.11+1
; #@! TF.FileFunction,Plated,1,2,PTH
FMAT,2
INCH
; #@! TA.AperFunction,Plated,PTH,ViaDrill
T1C0.0157
; #@! TA.AperFunction,Plated,PTH,ComponentDrill
T2C0.0315
; #@! TA.AperFunction,Plated,PTH,ComponentDrill
T3C0.0394
; #@! TA.AperFunction,Plated,PTH,ComponentDrill
T4C0.0433
%
G90
G05
T1
X5.12Y-5.245
X5.4087Y-4.7915
X5.5015Y-4.795
X5.5147Y-4.595
X5.52Y-4.955
X5.52Y-5.005
X5.535Y-5.125
X5.6054Y-5.125
X5.6975Y-4.795
X5.755Y-5.045
X5.805Y-3.945
X5.805Y-4.1497
X5.83Y-5.3048
X5.84Y-3.8336
X5.8407Y-3.5108
X5.86Y-5.345
X5.877Y-2.9753
X5.878Y-3.585
X5.8887Y-4.5474
X5.9527Y-3.7802
X6.03Y-3.6589
X6.155Y-4.705
X6.175Y-4.635
X6.1753Y-3.8372
X6.1846Y-4.545
X6.185Y-4.825
X6.2166Y-3.5474
X6.225Y-3.6949
X6.23Y-3.055
X6.2427Y-3.5804
X6.28Y-3.773
X6.2853Y-4.578
X6.2907Y-3.6267
X6.3344Y-3.27
X6.364Y-2.139
X6.364Y-2.2996
X6.4013Y-3.6444
X6.4457Y-4.9784
X6.4715Y-3.8138
X6.476Y-4.625
X6.48Y-5.36
X6.53Y-4.72
X6.54Y-3.7848
X6.6379Y-4.2244
X6.65Y-3.791
X6.73Y-4.8378
X6.73Y-4.9574
X6.76Y-4.045
X6.78Y-5.255
X6.7936Y-5.3028
X6.798Y-4.8013
X6.83Y-5.015
X6.91Y-5.035
X6.9795Y-3.7156
X6.9993Y-4.5401
X7.0029Y-4.7852
X7.06Y-4.8146
X7.08Y-4.045
X7.1227Y-3.9803
X7.17Y-4.405
X7.19Y-3.01
X7.1982Y-5.0562
X7.2649Y-4.0358
X7.28Y-3.505
X7.38Y-4.745
X7.41Y-4.245
X7.43Y-4.745
X7.445Y-4.8524
X7.4474Y-5.0276
X7.485Y-4.345
X7.49Y-4.4485
X7.51Y-4.855
X7.53Y-3.7767
X7.58Y-4.695
X7.7913Y-2.3419
X7.8044Y-3.3824
X7.865Y-4.3
T2
X5.53Y-2.545
X5.63Y-2.545
X5.73Y-2.545
X5.83Y-2.545
X5.93Y-2.545
X5.98Y-3.895
X5.98Y-3.995
X5.98Y-4.095
X5.98Y-4.195
X5.98Y-4.295
X5.98Y-4.395
X5.98Y-4.495
X6.03Y-2.8602
X6.03Y-3.4602
X6.03Y-4.895
X6.03Y-5.495
X6.13Y-2.8602
X6.13Y-3.4602
X6.13Y-4.895
X6.13Y-5.495
X6.23Y-2.36
X6.23Y-2.66
X6.23Y-2.8602
X6.23Y-3.4602
X6.23Y-4.895
X6.23Y-5.495
X6.28Y-3.895
X6.28Y-3.995
X6.28Y-4.095
X6.28Y-4.195
X6.28Y-4.295
X6.28Y-4.395
X6.28Y-4.495
X6.33Y-2.8602
X6.33Y-3.4602
X6.33Y-4.895
X6.33Y-5.495
X6.43Y-2.8602
X6.43Y-3.4602
X6.43Y-4.895
X6.43Y-5.495
X6.53Y-2.36
X6.53Y-2.66
X6.53Y-2.8602
X6.53Y-3.4602
X6.53Y-3.895
X6.53Y-3.995
X6.53Y-4.095
X6.53Y-4.195
X6.53Y-4.295
X6.53Y-4.395
X6.53Y-4.495
X6.53Y-4.595
X6.53Y-4.895
X6.53Y-5.495
X6.63Y-2.8602
X6.63Y-3.4602
X6.63Y-4.895
X6.63Y-5.495
X6.73Y-2.8602
X6.73Y-3.4602
X6.73Y-4.895
X6.73Y-5.495
X6.83Y-2.8602
X6.83Y-3.4602
X6.83Y-3.895
X6.83Y-3.995
X6.83Y-4.095
X6.83Y-4.195
X6.83Y-4.295
X6.83Y-4.395
X6.83Y-4.495
X6.83Y-4.595
X6.83Y-4.895
X6.83Y-5.495
X6.93Y-2.8602
X6.93Y-3.4602
X6.93Y-4.895
X6.93Y-5.495
X7.03Y-2.8602
X7.03Y-3.4602
X7.03Y-3.795
X7.03Y-3.895
X7.03Y-3.995
X7.03Y-4.095
X7.03Y-4.195
X7.03Y-4.295
X7.03Y-4.395
X7.03Y-4.495
X7.03Y-4.595
X7.03Y-4.695
X7.03Y-4.895
X7.03Y-5.495
X7.13Y-2.8602
X7.13Y-3.4602
X7.13Y-4.895
X7.13Y-5.495
X7.23Y-2.8602
X7.23Y-3.4602
X7.23Y-4.895
X7.23Y-5.495
X7.33Y-2.8602
X7.33Y-3.4602
X7.33Y-3.795
X7.33Y-3.895
X7.33Y-3.995
X7.33Y-4.095
X7.33Y-4.195
X7.33Y-4.295
X7.33Y-4.395
X7.33Y-4.495
X7.33Y-4.595
X7.33Y-4.695
X7.33Y-4.895
X7.33Y-5.495
T3
X5.255Y-2.145
X5.255Y-2.245
X5.255Y-2.345
X5.255Y-2.445
X5.255Y-2.545
X5.255Y-2.645
X5.255Y-2.745
X5.255Y-2.845
X5.255Y-2.945
X5.255Y-3.045
X5.255Y-3.145
X5.255Y-3.245
X5.255Y-3.345
X5.255Y-3.445
X5.255Y-3.545
X5.255Y-3.645
X5.255Y-3.745
X5.255Y-3.845
X5.255Y-3.945
X5.255Y-4.045
X5.255Y-4.145
X5.255Y-4.245
X5.255Y-4.345
X5.255Y-4.445
X5.255Y-4.545
X5.255Y-4.645
X5.255Y-4.745
X5.255Y-4.845
X5.255Y-4.945
X5.255Y-5.045
X5.255Y-5.145
X5.255Y-5.245
X5.355Y-2.145
X5.355Y-2.245
X5.355Y-2.345
X5.355Y-2.445
X5.355Y-2.545
X5.355Y-2.645
X5.355Y-2.745
X5.355Y-2.845
X5.355Y-2.945
X5.355Y-3.045
X5.355Y-3.145
X5.355Y-3.245
X5.355Y-3.345
X5.355Y-3.445
X5.355Y-3.545
X5.355Y-3.645
X5.355Y-3.745
X5.355Y-3.845
X5.355Y-3.945
X5.355Y-4.045
X5.355Y-4.145
X5.355Y-4.245
X5.355Y-4.345
X5.355Y-4.445
X5.355Y-4.545
X5.355Y-4.645
X5.355Y-4.745
X5.355Y-4.845
X5.355Y-4.945
X5.355Y-5.045
X5.355Y-5.145
X5.355Y-5.245
X5.64Y-2.9
X5.64Y-3.0
X5.64Y-3.1
X5.64Y-3.2
X5.64Y-3.3
X5.64Y-3.4
X5.64Y-3.5
X5.64Y-3.6
X5.64Y-3.7
X5.64Y-3.8
X5.64Y-3.9
X5.64Y-4.0
X5.64Y-4.1
X5.64Y-4.2
X5.64Y-4.3
X5.64Y-4.4
X5.64Y-4.5
X5.74Y-2.9
X5.74Y-3.0
X5.74Y-3.1
X5.74Y-3.2
X5.74Y-3.3
X5.74Y-3.4
X5.74Y-3.5
X5.74Y-3.6
X5.74Y-3.7
X5.74Y-3.8
X5.74Y-3.9
X5.74Y-4.0
X5.74Y-4.1
X5.74Y-4.2
X5.74Y-4.3
X5.74Y-4.4
X5.74Y-4.5
X7.63Y-2.145
X7.63Y-2.245
X7.63Y-2.345
X7.63Y-2.445
X7.63Y-2.545
X7.63Y-2.645
X7.63Y-2.745
X7.63Y-2.845
X7.63Y-2.945
X7.63Y-3.045
X7.63Y-3.145
X7.63Y-3.245
X7.63Y-3.345
X7.63Y-3.445
X7.63Y-3.545
X7.63Y-3.645
X7.63Y-3.745
X7.63Y-3.845
X7.63Y-3.945
X7.63Y-4.045
X7.63Y-4.145
X7.63Y-4.245
X7.63Y-4.345
X7.63Y-4.445
X7.63Y-4.545
X7.63Y-4.645
X7.63Y-4.745
X7.63Y-4.845
X7.63Y-4.945
X7.63Y-5.045
X7.63Y-5.145
X7.63Y-5.245
X7.73Y-2.145
X7.73Y-2.245
X7.73Y-2.345
X7.73Y-2.445
X7.73Y-2.545
X7.73Y-2.645
X7.73Y-2.745
X7.73Y-2.845
X7.73Y-2.945
X7.73Y-3.045
X7.73Y-3.145
X7.73Y-3.245
X7.73Y-3.345
X7.73Y-3.445
X7.73Y-3.545
X7.73Y-3.645
X7.73Y-3.745
X7.73Y-3.845
X7.73Y-3.945
X7.73Y-4.045
X7.73Y-4.145
X7.73Y-4.245
X7.73Y-4.345
X7.73Y-4.445
X7.73Y-4.545
X7.73Y-4.645
X7.73Y-4.745
X7.73Y-4.845
X7.73Y-4.945
X7.73Y-5.045
X7.73Y-5.145
X7.73Y-5.245
T4
X7.18Y-2.595
X7.28Y-2.595
X7.38Y-2.595
M30
