%TF.GenerationSoftware,KiCad,Pcbnew,7.0.11+1*%
%TF.CreationDate,2024-05-07T21:52:51+02:00*%
%TF.ProjectId,QL_MiniTrump3,514c5f4d-696e-4695-9472-756d70332e6b,01*%
%TF.SameCoordinates,Original*%
%TF.FileFunction,Copper,L1,Top*%
%TF.FilePolarity,Positive*%
%FSLAX46Y46*%
G04 Gerber Fmt 4.6, Leading zero omitted, Abs format (unit mm)*
G04 Created by KiCad (PCBNEW 7.0.11+1) date 2024-05-07 21:52:51*
%MOMM*%
%LPD*%
G01*
G04 APERTURE LIST*
G04 Aperture macros list*
%AMRoundRect*
0 Rectangle with rounded corners*
0 $1 Rounding radius*
0 $2 $3 $4 $5 $6 $7 $8 $9 X,Y pos of 4 corners*
0 Add a 4 corners polygon primitive as box body*
4,1,4,$2,$3,$4,$5,$6,$7,$8,$9,$2,$3,0*
0 Add four circle primitives for the rounded corners*
1,1,$1+$1,$2,$3*
1,1,$1+$1,$4,$5*
1,1,$1+$1,$6,$7*
1,1,$1+$1,$8,$9*
0 Add four rect primitives between the rounded corners*
20,1,$1+$1,$2,$3,$4,$5,0*
20,1,$1+$1,$4,$5,$6,$7,0*
20,1,$1+$1,$6,$7,$8,$9,0*
20,1,$1+$1,$8,$9,$2,$3,0*%
G04 Aperture macros list end*
%TA.AperFunction,ComponentPad*%
%ADD10R,1.905000X2.000000*%
%TD*%
%TA.AperFunction,ComponentPad*%
%ADD11O,1.905000X2.000000*%
%TD*%
%TA.AperFunction,ComponentPad*%
%ADD12R,1.600000X1.600000*%
%TD*%
%TA.AperFunction,ComponentPad*%
%ADD13O,1.600000X1.600000*%
%TD*%
%TA.AperFunction,ComponentPad*%
%ADD14RoundRect,0.249999X-0.525001X0.525001X-0.525001X-0.525001X0.525001X-0.525001X0.525001X0.525001X0*%
%TD*%
%TA.AperFunction,ComponentPad*%
%ADD15C,1.550000*%
%TD*%
%TA.AperFunction,ComponentPad*%
%ADD16R,1.700000X1.700000*%
%TD*%
%TA.AperFunction,ComponentPad*%
%ADD17O,1.700000X1.700000*%
%TD*%
%TA.AperFunction,ComponentPad*%
%ADD18RoundRect,0.249999X0.525001X-0.525001X0.525001X0.525001X-0.525001X0.525001X-0.525001X-0.525001X0*%
%TD*%
%TA.AperFunction,SMDPad,CuDef*%
%ADD19RoundRect,0.250000X-0.550000X1.500000X-0.550000X-1.500000X0.550000X-1.500000X0.550000X1.500000X0*%
%TD*%
%TA.AperFunction,ComponentPad*%
%ADD20C,1.600000*%
%TD*%
%TA.AperFunction,ViaPad*%
%ADD21C,0.800000*%
%TD*%
%TA.AperFunction,Conductor*%
%ADD22C,0.750000*%
%TD*%
%TA.AperFunction,Conductor*%
%ADD23C,0.350000*%
%TD*%
%TA.AperFunction,Profile*%
%ADD24C,0.050000*%
%TD*%
G04 APERTURE END LIST*
D10*
%TO.P,U18,1,VI*%
%TO.N,+9V*%
X182372000Y-65913000D03*
D11*
%TO.P,U18,2,GND*%
%TO.N,GND*%
X184912000Y-65913000D03*
%TO.P,U18,3,VO*%
%TO.N,+5V*%
X187452000Y-65913000D03*
%TD*%
D12*
%TO.P,U14,1,VPP*%
%TO.N,+5V*%
X153162000Y-139573000D03*
D13*
%TO.P,U14,2,A12*%
%TO.N,/A12*%
X155702000Y-139573000D03*
%TO.P,U14,3,A7*%
%TO.N,/A7*%
X158242000Y-139573000D03*
%TO.P,U14,4,A6*%
%TO.N,/A6*%
X160782000Y-139573000D03*
%TO.P,U14,5,A5*%
%TO.N,/A5*%
X163322000Y-139573000D03*
%TO.P,U14,6,A4*%
%TO.N,/A4*%
X165862000Y-139573000D03*
%TO.P,U14,7,A3*%
%TO.N,/A3*%
X168402000Y-139573000D03*
%TO.P,U14,8,A2*%
%TO.N,/A2*%
X170942000Y-139573000D03*
%TO.P,U14,9,A1*%
%TO.N,/A1*%
X173482000Y-139573000D03*
%TO.P,U14,10,A0*%
%TO.N,/A0*%
X176022000Y-139573000D03*
%TO.P,U14,11,D0*%
%TO.N,/D0*%
X178562000Y-139573000D03*
%TO.P,U14,12,D1*%
%TO.N,/D1*%
X181102000Y-139573000D03*
%TO.P,U14,13,D2*%
%TO.N,/D2*%
X183642000Y-139573000D03*
%TO.P,U14,14,GND*%
%TO.N,GND*%
X186182000Y-139573000D03*
%TO.P,U14,15,D3*%
%TO.N,/D3*%
X186182000Y-124333000D03*
%TO.P,U14,16,D4*%
%TO.N,/D4*%
X183642000Y-124333000D03*
%TO.P,U14,17,D5*%
%TO.N,/D5*%
X181102000Y-124333000D03*
%TO.P,U14,18,D6*%
%TO.N,/D6*%
X178562000Y-124333000D03*
%TO.P,U14,19,D7*%
%TO.N,/D7*%
X176022000Y-124333000D03*
%TO.P,U14,20,~{CE}*%
%TO.N,/ROM_CE*%
X173482000Y-124333000D03*
%TO.P,U14,21,A10*%
%TO.N,/A10*%
X170942000Y-124333000D03*
%TO.P,U14,22,~{OE}*%
%TO.N,/ROM_OE*%
X168402000Y-124333000D03*
%TO.P,U14,23,A11*%
%TO.N,/A11*%
X165862000Y-124333000D03*
%TO.P,U14,24,A9*%
%TO.N,/A9*%
X163322000Y-124333000D03*
%TO.P,U14,25,A8*%
%TO.N,/A8*%
X160782000Y-124333000D03*
%TO.P,U14,26,A13*%
%TO.N,/A13*%
X158242000Y-124333000D03*
%TO.P,U14,27,A14*%
%TO.N,/A14*%
X155702000Y-124333000D03*
%TO.P,U14,28,VCC*%
%TO.N,+5V*%
X153162000Y-124333000D03*
%TD*%
D14*
%TO.P,J1,a1,Vin*%
%TO.N,+9V*%
X133477000Y-54483000D03*
D15*
%TO.P,J1,a2,-12V*%
%TO.N,unconnected-(J1--12V-Pada2)*%
X133477000Y-57023000D03*
%TO.P,J1,a3,+12V*%
%TO.N,unconnected-(J1-+12V-Pada3)*%
X133477000Y-59563000D03*
%TO.P,J1,a4,SP0*%
%TO.N,/SP0*%
X133477000Y-62103000D03*
%TO.P,J1,a5,SP1*%
%TO.N,/SP1*%
X133477000Y-64643000D03*
%TO.P,J1,a6,~{DSMC}*%
%TO.N,/DSMC*%
X133477000Y-67183000D03*
%TO.P,J1,a7,SP2*%
%TO.N,/SP2*%
X133477000Y-69723000D03*
%TO.P,J1,a8,~{DBG}*%
%TO.N,unconnected-(J1-~{DBG}-Pada8)*%
X133477000Y-72263000D03*
%TO.P,J1,a9,A3*%
%TO.N,/A3*%
X133477000Y-74803000D03*
%TO.P,J1,a10,A4*%
%TO.N,/A4*%
X133477000Y-77343000D03*
%TO.P,J1,a11,A5*%
%TO.N,/A5*%
X133477000Y-79883000D03*
%TO.P,J1,a12,A6*%
%TO.N,/A6*%
X133477000Y-82423000D03*
%TO.P,J1,a13,A7*%
%TO.N,/A7*%
X133477000Y-84963000D03*
%TO.P,J1,a14,A8*%
%TO.N,/A8*%
X133477000Y-87503000D03*
%TO.P,J1,a15,A9*%
%TO.N,/A9*%
X133477000Y-90043000D03*
%TO.P,J1,a16,A10*%
%TO.N,/A10*%
X133477000Y-92583000D03*
%TO.P,J1,a17,A11*%
%TO.N,/A11*%
X133477000Y-95123000D03*
%TO.P,J1,a18,A12*%
%TO.N,/A12*%
X133477000Y-97663000D03*
%TO.P,J1,a19,A13*%
%TO.N,/A13*%
X133477000Y-100203000D03*
%TO.P,J1,a20,A14*%
%TO.N,/A14*%
X133477000Y-102743000D03*
%TO.P,J1,a21,RED*%
%TO.N,unconnected-(J1-RED-Pada21)*%
X133477000Y-105283000D03*
%TO.P,J1,a22,CLKCPU*%
%TO.N,unconnected-(J1-CLKCPU-Pada22)*%
X133477000Y-107823000D03*
%TO.P,J1,a23,A16*%
%TO.N,/A16*%
X133477000Y-110363000D03*
%TO.P,J1,a24,A17*%
%TO.N,/A17*%
X133477000Y-112903000D03*
%TO.P,J1,a25,A18*%
%TO.N,/A18*%
X133477000Y-115443000D03*
%TO.P,J1,a26,A19*%
%TO.N,/A19*%
X133477000Y-117983000D03*
%TO.P,J1,a27,D7*%
%TO.N,/D7*%
X133477000Y-120523000D03*
%TO.P,J1,a28,D6*%
%TO.N,/D6*%
X133477000Y-123063000D03*
%TO.P,J1,a29,D5*%
%TO.N,/D5*%
X133477000Y-125603000D03*
%TO.P,J1,a30,D4*%
%TO.N,/D4*%
X133477000Y-128143000D03*
%TO.P,J1,a31,D3*%
%TO.N,/D3*%
X133477000Y-130683000D03*
%TO.P,J1,a32,GND*%
%TO.N,GND*%
X133477000Y-133223000D03*
%TO.P,J1,b1,Vin*%
%TO.N,+9V*%
X136017000Y-54483000D03*
%TO.P,J1,b2,Vin*%
X136017000Y-57023000D03*
%TO.P,J1,b3,~{EXTINT}*%
%TO.N,/EXTINTL*%
X136017000Y-59563000D03*
%TO.P,J1,b4,~{IPL1}*%
%TO.N,unconnected-(J1-~{IPL1}-Padb4)*%
X136017000Y-62103000D03*
%TO.P,J1,b5,~{BERR}*%
%TO.N,unconnected-(J1-~{BERR}-Padb5)*%
X136017000Y-64643000D03*
%TO.P,J1,b6,~{IPLO}*%
%TO.N,unconnected-(J1-~{IPLO}-Padb6)*%
X136017000Y-67183000D03*
%TO.P,J1,b7,SP3*%
%TO.N,/SP3*%
X136017000Y-69723000D03*
%TO.P,J1,b8,A2*%
%TO.N,/A2*%
X136017000Y-72263000D03*
%TO.P,J1,b9,G9*%
%TO.N,/A1*%
X136017000Y-74803000D03*
%TO.P,J1,b10,ROMOEH*%
%TO.N,unconnected-(J1-ROMOEH-Padb10)*%
X136017000Y-77343000D03*
%TO.P,J1,b11,A0*%
%TO.N,/A0*%
X136017000Y-79883000D03*
%TO.P,J1,b12,FC0*%
%TO.N,unconnected-(J1-FC0-Padb12)*%
X136017000Y-82423000D03*
%TO.P,J1,b13,FC1*%
%TO.N,unconnected-(J1-FC1-Padb13)*%
X136017000Y-84963000D03*
%TO.P,J1,b14,FC2*%
%TO.N,unconnected-(J1-FC2-Padb14)*%
X136017000Y-87503000D03*
%TO.P,J1,b15,BLUE*%
%TO.N,unconnected-(J1-BLUE-Padb15)*%
X136017000Y-90043000D03*
%TO.P,J1,b16,GREEN*%
%TO.N,unconnected-(J1-GREEN-Padb16)*%
X136017000Y-92583000D03*
%TO.P,J1,b17,~{VPA}*%
%TO.N,/VPA*%
X136017000Y-95123000D03*
%TO.P,J1,b18,VSYNCH*%
%TO.N,unconnected-(J1-VSYNCH-Padb18)*%
X136017000Y-97663000D03*
%TO.P,J1,b19,E*%
%TO.N,/E*%
X136017000Y-100203000D03*
%TO.P,J1,b20,~{CSYNC}*%
%TO.N,unconnected-(J1-~{CSYNC}-Padb20)*%
X136017000Y-102743000D03*
%TO.P,J1,b21,~{RESETCPU}*%
%TO.N,/RESET*%
X136017000Y-105283000D03*
%TO.P,J1,b22,A15*%
%TO.N,/A15*%
X136017000Y-107823000D03*
%TO.P,J1,b23,~{BR}*%
%TO.N,unconnected-(J1-~{BR}-Padb23)*%
X136017000Y-110363000D03*
%TO.P,J1,b24,~{BG}*%
%TO.N,unconnected-(J1-~{BG}-Padb24)*%
X136017000Y-112903000D03*
%TO.P,J1,b25,~{DTACK}*%
%TO.N,/DTACKL*%
X136017000Y-115443000D03*
%TO.P,J1,b26,~{DRW}*%
%TO.N,/RW*%
X136017000Y-117983000D03*
%TO.P,J1,b27,~{DS}*%
%TO.N,/DS*%
X136017000Y-120523000D03*
%TO.P,J1,b28,~{AS}*%
%TO.N,unconnected-(J1-~{AS}-Padb28)*%
X136017000Y-123063000D03*
%TO.P,J1,b29,D0*%
%TO.N,/D0*%
X136017000Y-125603000D03*
%TO.P,J1,b30,D1*%
%TO.N,/D1*%
X136017000Y-128143000D03*
%TO.P,J1,b31,D2*%
%TO.N,/D2*%
X136017000Y-130683000D03*
%TO.P,J1,b32,GND*%
%TO.N,GND*%
X136017000Y-133223000D03*
%TD*%
D16*
%TO.P,J2,1,Pin_1*%
%TO.N,GND*%
X145796000Y-114300000D03*
D17*
%TO.P,J2,2,Pin_2*%
%TO.N,unconnected-(J2-Pin_2-Pad2)*%
X143256000Y-114300000D03*
%TO.P,J2,3,Pin_3*%
%TO.N,GND*%
X145796000Y-111760000D03*
%TO.P,J2,4,Pin_4*%
%TO.N,unconnected-(J2-Pin_4-Pad4)*%
X143256000Y-111760000D03*
%TO.P,J2,5,Pin_5*%
%TO.N,GND*%
X145796000Y-109220000D03*
%TO.P,J2,6,Pin_6*%
%TO.N,unconnected-(J2-Pin_6-Pad6)*%
X143256000Y-109220000D03*
%TO.P,J2,7,Pin_7*%
%TO.N,GND*%
X145796000Y-106680000D03*
%TO.P,J2,8,Pin_8*%
%TO.N,/FDC_IP*%
X143256000Y-106680000D03*
%TO.P,J2,9,Pin_9*%
%TO.N,GND*%
X145796000Y-104140000D03*
%TO.P,J2,10,Pin_10*%
%TO.N,/MOTOR_ON*%
X143256000Y-104140000D03*
%TO.P,J2,11,Pin_11*%
%TO.N,GND*%
X145796000Y-101600000D03*
%TO.P,J2,12,Pin_12*%
%TO.N,/DS1*%
X143256000Y-101600000D03*
%TO.P,J2,13,Pin_13*%
%TO.N,GND*%
X145796000Y-99060000D03*
%TO.P,J2,14,Pin_14*%
%TO.N,/DS0*%
X143256000Y-99060000D03*
%TO.P,J2,15,Pin_15*%
%TO.N,GND*%
X145796000Y-96520000D03*
%TO.P,J2,16,Pin_16*%
%TO.N,/MOTOR_ON*%
X143256000Y-96520000D03*
%TO.P,J2,17,Pin_17*%
%TO.N,GND*%
X145796000Y-93980000D03*
%TO.P,J2,18,Pin_18*%
%TO.N,/DIR*%
X143256000Y-93980000D03*
%TO.P,J2,19,Pin_19*%
%TO.N,GND*%
X145796000Y-91440000D03*
%TO.P,J2,20,Pin_20*%
%TO.N,/STEP*%
X143256000Y-91440000D03*
%TO.P,J2,21,Pin_21*%
%TO.N,GND*%
X145796000Y-88900000D03*
%TO.P,J2,22,Pin_22*%
%TO.N,/DATA_WR*%
X143256000Y-88900000D03*
%TO.P,J2,23,Pin_23*%
%TO.N,GND*%
X145796000Y-86360000D03*
%TO.P,J2,24,Pin_24*%
%TO.N,/GATE_WR*%
X143256000Y-86360000D03*
%TO.P,J2,25,Pin_25*%
%TO.N,GND*%
X145796000Y-83820000D03*
%TO.P,J2,26,Pin_26*%
%TO.N,/FDC_T0*%
X143256000Y-83820000D03*
%TO.P,J2,27,Pin_27*%
%TO.N,GND*%
X145796000Y-81280000D03*
%TO.P,J2,28,Pin_28*%
%TO.N,/FDC_WPRT*%
X143256000Y-81280000D03*
%TO.P,J2,29,Pin_29*%
%TO.N,GND*%
X145796000Y-78740000D03*
%TO.P,J2,30,Pin_30*%
%TO.N,/FDC_RD*%
X143256000Y-78740000D03*
%TO.P,J2,31,Pin_31*%
%TO.N,GND*%
X145796000Y-76200000D03*
%TO.P,J2,32,Pin_32*%
%TO.N,/HEAD*%
X143256000Y-76200000D03*
%TO.P,J2,33,Pin_33*%
%TO.N,GND*%
X145796000Y-73660000D03*
%TO.P,J2,34,Pin_34*%
%TO.N,unconnected-(J2-Pin_34-Pad34)*%
X143256000Y-73660000D03*
%TD*%
D18*
%TO.P,J3,a1,Vin*%
%TO.N,+9V*%
X196342000Y-54483000D03*
D15*
%TO.P,J3,a2,-12V*%
%TO.N,unconnected-(J3--12V-Pada2)*%
X196342000Y-57023000D03*
%TO.P,J3,a3,+12V*%
%TO.N,unconnected-(J3-+12V-Pada3)*%
X196342000Y-59563000D03*
%TO.P,J3,a4,SP0*%
%TO.N,/SP0*%
X196342000Y-62103000D03*
%TO.P,J3,a5,SP1*%
%TO.N,/SP1*%
X196342000Y-64643000D03*
%TO.P,J3,a6,~{DSMC}*%
%TO.N,/DSMC*%
X196342000Y-67183000D03*
%TO.P,J3,a7,SP2*%
%TO.N,/SP2*%
X196342000Y-69723000D03*
%TO.P,J3,a8,~{DBG}*%
%TO.N,unconnected-(J3-~{DBG}-Pada8)*%
X196342000Y-72263000D03*
%TO.P,J3,a9,A3*%
%TO.N,/A3*%
X196342000Y-74803000D03*
%TO.P,J3,a10,A4*%
%TO.N,/A4*%
X196342000Y-77343000D03*
%TO.P,J3,a11,A5*%
%TO.N,/A5*%
X196342000Y-79883000D03*
%TO.P,J3,a12,A6*%
%TO.N,/A6*%
X196342000Y-82423000D03*
%TO.P,J3,a13,A7*%
%TO.N,/A7*%
X196342000Y-84963000D03*
%TO.P,J3,a14,A8*%
%TO.N,/A8*%
X196342000Y-87503000D03*
%TO.P,J3,a15,A9*%
%TO.N,/A9*%
X196342000Y-90043000D03*
%TO.P,J3,a16,A10*%
%TO.N,/A10*%
X196342000Y-92583000D03*
%TO.P,J3,a17,A11*%
%TO.N,/A11*%
X196342000Y-95123000D03*
%TO.P,J3,a18,A12*%
%TO.N,/A12*%
X196342000Y-97663000D03*
%TO.P,J3,a19,A13*%
%TO.N,/A13*%
X196342000Y-100203000D03*
%TO.P,J3,a20,A14*%
%TO.N,/A14*%
X196342000Y-102743000D03*
%TO.P,J3,a21,RED*%
%TO.N,unconnected-(J3-RED-Pada21)*%
X196342000Y-105283000D03*
%TO.P,J3,a22,CLKCPU*%
%TO.N,unconnected-(J3-CLKCPU-Pada22)*%
X196342000Y-107823000D03*
%TO.P,J3,a23,A16*%
%TO.N,/A16*%
X196342000Y-110363000D03*
%TO.P,J3,a24,A17*%
%TO.N,/A17*%
X196342000Y-112903000D03*
%TO.P,J3,a25,A18*%
%TO.N,/A18*%
X196342000Y-115443000D03*
%TO.P,J3,a26,A19*%
%TO.N,/A19*%
X196342000Y-117983000D03*
%TO.P,J3,a27,D7*%
%TO.N,/D7*%
X196342000Y-120523000D03*
%TO.P,J3,a28,D6*%
%TO.N,/D6*%
X196342000Y-123063000D03*
%TO.P,J3,a29,D5*%
%TO.N,/D5*%
X196342000Y-125603000D03*
%TO.P,J3,a30,D4*%
%TO.N,/D4*%
X196342000Y-128143000D03*
%TO.P,J3,a31,D3*%
%TO.N,/D3*%
X196342000Y-130683000D03*
%TO.P,J3,a32,GND*%
%TO.N,GND*%
X196342000Y-133223000D03*
%TO.P,J3,b1,Vin*%
%TO.N,+9V*%
X193802000Y-54483000D03*
%TO.P,J3,b2,Vin*%
X193802000Y-57023000D03*
%TO.P,J3,b3,~{EXTINT}*%
%TO.N,/EXTINTL*%
X193802000Y-59563000D03*
%TO.P,J3,b4,~{IPL1}*%
%TO.N,unconnected-(J3-~{IPL1}-Padb4)*%
X193802000Y-62103000D03*
%TO.P,J3,b5,~{BERR}*%
%TO.N,unconnected-(J3-~{BERR}-Padb5)*%
X193802000Y-64643000D03*
%TO.P,J3,b6,~{IPLO}*%
%TO.N,unconnected-(J3-~{IPLO}-Padb6)*%
X193802000Y-67183000D03*
%TO.P,J3,b7,SP3*%
%TO.N,/SP3*%
X193802000Y-69723000D03*
%TO.P,J3,b8,A2*%
%TO.N,/A2*%
X193802000Y-72263000D03*
%TO.P,J3,b9,G9*%
%TO.N,/A1*%
X193802000Y-74803000D03*
%TO.P,J3,b10,ROMOEH*%
%TO.N,unconnected-(J3-ROMOEH-Padb10)*%
X193802000Y-77343000D03*
%TO.P,J3,b11,A0*%
%TO.N,/A0*%
X193802000Y-79883000D03*
%TO.P,J3,b12,FC0*%
%TO.N,unconnected-(J3-FC0-Padb12)*%
X193802000Y-82423000D03*
%TO.P,J3,b13,FC1*%
%TO.N,unconnected-(J3-FC1-Padb13)*%
X193802000Y-84963000D03*
%TO.P,J3,b14,FC2*%
%TO.N,unconnected-(J3-FC2-Padb14)*%
X193802000Y-87503000D03*
%TO.P,J3,b15,BLUE*%
%TO.N,unconnected-(J3-BLUE-Padb15)*%
X193802000Y-90043000D03*
%TO.P,J3,b16,GREEN*%
%TO.N,unconnected-(J3-GREEN-Padb16)*%
X193802000Y-92583000D03*
%TO.P,J3,b17,~{VPA}*%
%TO.N,/VPA*%
X193802000Y-95123000D03*
%TO.P,J3,b18,VSYNCH*%
%TO.N,unconnected-(J3-VSYNCH-Padb18)*%
X193802000Y-97663000D03*
%TO.P,J3,b19,E*%
%TO.N,/E*%
X193802000Y-100203000D03*
%TO.P,J3,b20,~{CSYNC}*%
%TO.N,unconnected-(J3-~{CSYNC}-Padb20)*%
X193802000Y-102743000D03*
%TO.P,J3,b21,~{RESETCPU}*%
%TO.N,/RESET*%
X193802000Y-105283000D03*
%TO.P,J3,b22,A15*%
%TO.N,/A15*%
X193802000Y-107823000D03*
%TO.P,J3,b23,~{BR}*%
%TO.N,unconnected-(J3-~{BR}-Padb23)*%
X193802000Y-110363000D03*
%TO.P,J3,b24,~{BG}*%
%TO.N,unconnected-(J3-~{BG}-Padb24)*%
X193802000Y-112903000D03*
%TO.P,J3,b25,~{DTACK}*%
%TO.N,/DTACKL*%
X193802000Y-115443000D03*
%TO.P,J3,b26,~{DRW}*%
%TO.N,/RW*%
X193802000Y-117983000D03*
%TO.P,J3,b27,~{DS}*%
%TO.N,/DS*%
X193802000Y-120523000D03*
%TO.P,J3,b28,~{AS}*%
%TO.N,unconnected-(J3-~{AS}-Padb28)*%
X193802000Y-123063000D03*
%TO.P,J3,b29,D0*%
%TO.N,/D0*%
X193802000Y-125603000D03*
%TO.P,J3,b30,D1*%
%TO.N,/D1*%
X193802000Y-128143000D03*
%TO.P,J3,b31,D2*%
%TO.N,/D2*%
X193802000Y-130683000D03*
%TO.P,J3,b32,GND*%
%TO.N,GND*%
X193802000Y-133223000D03*
%TD*%
D12*
%TO.P,U13,1,~{CS}*%
%TO.N,/FDCON_CS*%
X153162000Y-87889000D03*
D13*
%TO.P,U13,2,R/~{W}*%
%TO.N,/RW*%
X155702000Y-87889000D03*
%TO.P,U13,3,A0*%
%TO.N,/A0*%
X158242000Y-87889000D03*
%TO.P,U13,4,A1*%
%TO.N,/A1*%
X160782000Y-87889000D03*
%TO.P,U13,5,DI0*%
%TO.N,/D0*%
X163322000Y-87889000D03*
%TO.P,U13,6,DI1*%
%TO.N,/D1*%
X165862000Y-87889000D03*
%TO.P,U13,7,DI2*%
%TO.N,/D2*%
X168402000Y-87889000D03*
%TO.P,U13,8,DI3*%
%TO.N,/D3*%
X170942000Y-87889000D03*
%TO.P,U13,9,DI4*%
%TO.N,/D4*%
X173482000Y-87889000D03*
%TO.P,U13,10,DI5*%
%TO.N,/D5*%
X176022000Y-87889000D03*
%TO.P,U13,11,DI6*%
%TO.N,/D6*%
X178562000Y-87889000D03*
%TO.P,U13,12,DI7*%
%TO.N,/D7*%
X181102000Y-87889000D03*
%TO.P,U13,13,~{MR}*%
%TO.N,/RESET*%
X183642000Y-87889000D03*
%TO.P,U13,14,GND*%
%TO.N,GND*%
X186182000Y-87889000D03*
%TO.P,U13,15,VCC*%
%TO.N,+5V*%
X186182000Y-72649000D03*
%TO.P,U13,16,STEP*%
%TO.N,/FDC_STEP*%
X183642000Y-72649000D03*
%TO.P,U13,17,DIRC*%
%TO.N,/FDC_DIR*%
X181102000Y-72649000D03*
%TO.P,U13,18,CLK*%
%TO.N,Net-(U13-CLK)*%
X178562000Y-72649000D03*
%TO.P,U13,19,~{RD}*%
%TO.N,/FDC_RD*%
X176022000Y-72649000D03*
%TO.P,U13,20,MOTOR*%
%TO.N,unconnected-(U13-MOTOR-Pad20)*%
X173482000Y-72649000D03*
%TO.P,U13,21,WG*%
%TO.N,/FDC_WG*%
X170942000Y-72649000D03*
%TO.P,U13,22,WD*%
%TO.N,/FDC_WD*%
X168402000Y-72649000D03*
%TO.P,U13,23,~{TR00}*%
%TO.N,/FDC_T0*%
X165862000Y-72649000D03*
%TO.P,U13,24,~{IP}*%
%TO.N,/FDC_IP*%
X163322000Y-72649000D03*
%TO.P,U13,25,~{WPRT}*%
%TO.N,/FDC_WPRT*%
X160782000Y-72649000D03*
%TO.P,U13,26,~{DDEN}*%
%TO.N,GND*%
X158242000Y-72649000D03*
%TO.P,U13,27,DRQ*%
%TO.N,unconnected-(U13-DRQ-Pad27)*%
X155702000Y-72649000D03*
%TO.P,U13,28,INTRQ*%
%TO.N,unconnected-(U13-INTRQ-Pad28)*%
X153162000Y-72649000D03*
%TD*%
D19*
%TO.P,C16,1*%
%TO.N,+5V*%
X174117000Y-61583000D03*
%TO.P,C16,2*%
%TO.N,GND*%
X174117000Y-67183000D03*
%TD*%
D12*
%TO.P,U1,1,I1/CLK*%
%TO.N,/DS*%
X186182000Y-119253000D03*
D13*
%TO.P,U1,2,I2*%
%TO.N,/A19*%
X186182000Y-116713000D03*
%TO.P,U1,3,I3*%
%TO.N,/A18*%
X186182000Y-114173000D03*
%TO.P,U1,4,I4*%
%TO.N,/A17*%
X186182000Y-111633000D03*
%TO.P,U1,5,I5*%
%TO.N,/A16*%
X186182000Y-109093000D03*
%TO.P,U1,6,I6*%
%TO.N,/A15*%
X186182000Y-106553000D03*
%TO.P,U1,7,I7*%
%TO.N,/RESET*%
X186182000Y-104013000D03*
%TO.P,U1,8,I8*%
%TO.N,/A14*%
X186182000Y-101473000D03*
%TO.P,U1,9,I9*%
%TO.N,/A13*%
X186182000Y-98933000D03*
%TO.P,U1,10,GND*%
%TO.N,GND*%
X186182000Y-96393000D03*
%TO.P,U1,11,I10/~{OE}*%
%TO.N,/MUX*%
X178562000Y-96393000D03*
%TO.P,U1,12,IO8*%
%TO.N,Net-(D1-A)*%
X178562000Y-98933000D03*
%TO.P,U1,13,IO7*%
%TO.N,unconnected-(U1-IO7-Pad13)*%
X178562000Y-101473000D03*
%TO.P,U1,14,IO6*%
%TO.N,/CLKCT*%
X178562000Y-104013000D03*
%TO.P,U1,15,IO5*%
%TO.N,/MA8*%
X178562000Y-106553000D03*
%TO.P,U1,16,IO4*%
%TO.N,unconnected-(U1-IO4-Pad16)*%
X178562000Y-109093000D03*
%TO.P,U1,17,I03*%
%TO.N,/FDCON_CS*%
X178562000Y-111633000D03*
%TO.P,U1,18,IO2*%
%TO.N,/CS175*%
X178562000Y-114173000D03*
%TO.P,U1,19,IO1*%
%TO.N,/ROM_CE*%
X178562000Y-116713000D03*
%TO.P,U1,20,VCC*%
%TO.N,+5V*%
X178562000Y-119253000D03*
%TD*%
D12*
%TO.P,U17,1,~{Mr}*%
%TO.N,/RESET*%
X173482000Y-116713000D03*
D13*
%TO.P,U17,2,Q0*%
%TO.N,unconnected-(U17-Q0-Pad2)*%
X173482000Y-114173000D03*
%TO.P,U17,3,~{Q0}*%
%TO.N,/HEAD*%
X173482000Y-111633000D03*
%TO.P,U17,4,D0*%
%TO.N,/D3*%
X173482000Y-109093000D03*
%TO.P,U17,5,D1*%
%TO.N,/D0*%
X173482000Y-106553000D03*
%TO.P,U17,6,~{Q1}*%
%TO.N,/DS1*%
X173482000Y-104013000D03*
%TO.P,U17,7,Q1*%
%TO.N,unconnected-(U17-Q1-Pad7)*%
X173482000Y-101473000D03*
%TO.P,U17,8,GND*%
%TO.N,GND*%
X173482000Y-98933000D03*
%TO.P,U17,9,Cp*%
%TO.N,/CS175*%
X165862000Y-98933000D03*
%TO.P,U17,10,Q2*%
%TO.N,unconnected-(U17-Q2-Pad10)*%
X165862000Y-101473000D03*
%TO.P,U17,11,~{Q2}*%
%TO.N,/MOTOR_ON*%
X165862000Y-104013000D03*
%TO.P,U17,12,D2*%
%TO.N,/D2*%
X165862000Y-106553000D03*
%TO.P,U17,13,D3*%
%TO.N,/D1*%
X165862000Y-109093000D03*
%TO.P,U17,14,~{Q3}*%
%TO.N,/DS0*%
X165862000Y-111633000D03*
%TO.P,U17,15,Q3*%
%TO.N,unconnected-(U17-Q3-Pad15)*%
X165862000Y-114173000D03*
%TO.P,U17,16,VCC*%
%TO.N,+5V*%
X165862000Y-116713000D03*
%TD*%
D12*
%TO.P,U15,1*%
%TO.N,/RW*%
X159512000Y-114173000D03*
D13*
%TO.P,U15,2*%
%TO.N,/ROM_OE*%
X159512000Y-111633000D03*
%TO.P,U15,3*%
%TO.N,/FDC_WG*%
X159512000Y-109093000D03*
%TO.P,U15,4*%
%TO.N,/GATE_WR*%
X159512000Y-106553000D03*
%TO.P,U15,5*%
%TO.N,/FDC_DIR*%
X159512000Y-104013000D03*
%TO.P,U15,6*%
%TO.N,/DIR*%
X159512000Y-101473000D03*
%TO.P,U15,7,GND*%
%TO.N,GND*%
X159512000Y-98933000D03*
%TO.P,U15,8*%
%TO.N,/STEP*%
X151892000Y-98933000D03*
%TO.P,U15,9*%
%TO.N,/FDC_STEP*%
X151892000Y-101473000D03*
%TO.P,U15,10*%
%TO.N,unconnected-(U15-Pad10)*%
X151892000Y-104013000D03*
%TO.P,U15,11*%
%TO.N,+5V*%
X151892000Y-106553000D03*
%TO.P,U15,12*%
%TO.N,/DATA_WR*%
X151892000Y-109093000D03*
%TO.P,U15,13*%
%TO.N,/FDC_WD*%
X151892000Y-111633000D03*
%TO.P,U15,14,VCC*%
%TO.N,+5V*%
X151892000Y-114173000D03*
%TD*%
D12*
%TO.P,X1,1,EN*%
%TO.N,+5V*%
X158242000Y-59944000D03*
D20*
%TO.P,X1,4,GND*%
%TO.N,GND*%
X158242000Y-67564000D03*
%TO.P,X1,5,OUT*%
%TO.N,Net-(U13-CLK)*%
X165862000Y-67564000D03*
%TO.P,X1,8,Vcc*%
%TO.N,+5V*%
X165862000Y-59944000D03*
%TD*%
D12*
%TO.P,RN1,1,common*%
%TO.N,+5V*%
X150622000Y-64643000D03*
D13*
%TO.P,RN1,2,R1*%
%TO.N,/FDC_RD*%
X148082000Y-64643000D03*
%TO.P,RN1,3,R2*%
%TO.N,/FDC_WPRT*%
X145542000Y-64643000D03*
%TO.P,RN1,4,R3*%
%TO.N,/FDC_T0*%
X143002000Y-64643000D03*
%TO.P,RN1,5,R4*%
%TO.N,/FDC_IP*%
X140462000Y-64643000D03*
%TD*%
D19*
%TO.P,C14,1*%
%TO.N,+9V*%
X174117000Y-46603000D03*
%TO.P,C14,2*%
%TO.N,GND*%
X174117000Y-52203000D03*
%TD*%
D21*
%TO.N,GND*%
X158242000Y-77597000D03*
X161644600Y-54329600D03*
X148844000Y-135763000D03*
X130048000Y-133223000D03*
X148353500Y-89174900D03*
X159512000Y-95834600D03*
X161644600Y-58410200D03*
X149571900Y-115504000D03*
%TO.N,/SP2*%
X197899900Y-59483100D03*
%TO.N,/A5*%
X157902400Y-90104300D03*
%TO.N,/A6*%
X148082000Y-134742600D03*
%TO.N,/A7*%
X158564400Y-90943300D03*
%TO.N,/A8*%
X159784000Y-92118800D03*
X140074500Y-116713000D03*
%TO.N,/A9*%
X198231900Y-85912200D03*
%TO.N,/A10*%
X177873300Y-121544500D03*
X156337000Y-119507000D03*
X157099000Y-122555000D03*
%TO.N,/A11*%
X162592900Y-92568900D03*
%TO.N,/A12*%
X146177000Y-128143000D03*
X188722000Y-120523000D03*
%TO.N,/A13*%
X182118000Y-111887000D03*
X159645600Y-116280900D03*
%TO.N,/A14*%
X157089900Y-115443000D03*
%TO.N,/A18*%
X192532000Y-119253000D03*
X140208000Y-125857000D03*
%TO.N,/D7*%
X173482000Y-127381000D03*
X190754000Y-123317000D03*
X179324000Y-122291250D03*
%TO.N,/D6*%
X139737000Y-121793000D03*
%TO.N,/D4*%
X187452000Y-120523000D03*
X182833300Y-128427100D03*
X184912000Y-89027000D03*
X188214000Y-107823000D03*
X184529700Y-102509400D03*
%TO.N,/D3*%
X140208000Y-127127000D03*
%TO.N,/A2*%
X182626000Y-76454000D03*
X160893800Y-83058000D03*
%TO.N,/A0*%
X164592000Y-136144000D03*
%TO.N,/E*%
X191262000Y-95928400D03*
X156845000Y-117729000D03*
X158114000Y-93849600D03*
%TO.N,/RESET*%
X177781200Y-115317400D03*
X172668400Y-121953600D03*
X163720500Y-126452200D03*
%TO.N,/A15*%
X140589000Y-130175000D03*
X199771000Y-109220000D03*
X142377400Y-130175000D03*
%TO.N,/RW*%
X144716500Y-121793000D03*
X190246000Y-112991300D03*
%TO.N,/DS*%
X175514000Y-127889000D03*
X189103000Y-123250600D03*
%TO.N,/D0*%
X189164900Y-127700100D03*
X190119000Y-110363000D03*
%TO.N,/D1*%
X170942000Y-122879800D03*
X172558100Y-134690800D03*
X170942000Y-125917800D03*
%TO.N,/D2*%
X172212000Y-133477000D03*
X168603600Y-107299100D03*
%TO.N,/MOTOR_ON*%
X166116000Y-96132700D03*
%TO.N,/STEP*%
X151197800Y-96016400D03*
%TO.N,/GATE_WR*%
X156851600Y-97464300D03*
X148336000Y-97372200D03*
%TO.N,/HEAD*%
X168910000Y-96291400D03*
X149276000Y-75572200D03*
X149301200Y-91059000D03*
%TO.N,/FDCON_CS*%
X153162000Y-92935900D03*
X177280400Y-94375100D03*
%TO.N,/DS0*%
X147447000Y-100203000D03*
X147447000Y-105401400D03*
X164377300Y-96871600D03*
%TO.N,/DTACKL*%
X137381500Y-121705300D03*
%TO.N,/CS175*%
X180916300Y-101099500D03*
%TO.N,+5V*%
X165862000Y-119888000D03*
%TO.N,/FDC_STEP*%
X179832000Y-102743000D03*
%TO.N,/ROM_OE*%
X164489400Y-117475000D03*
%TO.N,/FDC_DIR*%
X171704000Y-102743000D03*
%TD*%
D22*
%TO.N,GND*%
X175895000Y-66294000D02*
X177292000Y-67691000D01*
X145796000Y-78740000D02*
X145796000Y-76200000D01*
X184912000Y-66548000D02*
X184912000Y-68298000D01*
X186182000Y-96393000D02*
X186182000Y-87889000D01*
X159512000Y-98933000D02*
X159512000Y-95834600D01*
X145796000Y-86360000D02*
X147196000Y-86360000D01*
X177292000Y-67691000D02*
X174625000Y-67691000D01*
X145796000Y-81280000D02*
X145796000Y-78740000D01*
X145796000Y-91440000D02*
X145796000Y-88900000D01*
X161644600Y-64542400D02*
X161644600Y-58410200D01*
X145796000Y-111760000D02*
X145796000Y-109220000D01*
X158623000Y-67564000D02*
X161644600Y-64542400D01*
X158242000Y-67945000D02*
X158242000Y-72649000D01*
X145796000Y-106680000D02*
X145796000Y-104140000D01*
X184912000Y-68298000D02*
X184122000Y-69088000D01*
X136388000Y-133223000D02*
X133848000Y-133223000D01*
X145796000Y-104140000D02*
X145796000Y-101600000D01*
X145796000Y-86360000D02*
X145796000Y-83820000D01*
X174625000Y-67691000D02*
X174117000Y-67183000D01*
X184912000Y-60664600D02*
X184912000Y-65618000D01*
X178689000Y-69088000D02*
X175895000Y-66294000D01*
X161644600Y-54329600D02*
X161644600Y-58410200D01*
X147196000Y-86360000D02*
X148353500Y-87517500D01*
X184912000Y-65618000D02*
X184912000Y-66929000D01*
X145796000Y-76200000D02*
X145796000Y-73660000D01*
X145796000Y-96520000D02*
X145796000Y-93980000D01*
X145796000Y-83820000D02*
X145796000Y-81280000D01*
X148844000Y-135763000D02*
X149571900Y-134834100D01*
X145796000Y-109220000D02*
X145796000Y-106680000D01*
X145796000Y-114300000D02*
X145796000Y-111760000D01*
X174117000Y-57150000D02*
X175895000Y-58928000D01*
X175895000Y-58928000D02*
X175895000Y-66294000D01*
X158242000Y-77597000D02*
X158242000Y-72649000D01*
X148353500Y-87517500D02*
X148353500Y-89174900D01*
X133848000Y-133223000D02*
X130048000Y-133223000D01*
X184122000Y-69088000D02*
X178689000Y-69088000D01*
X158623000Y-67564000D02*
X158242000Y-67945000D01*
X145796000Y-93980000D02*
X145796000Y-91440000D01*
X145796000Y-101600000D02*
X145796000Y-99060000D01*
X149571900Y-134834100D02*
X149571900Y-115504000D01*
X174117000Y-52203000D02*
X174117000Y-57150000D01*
%TO.N,+9V*%
X193802000Y-54483000D02*
X193802000Y-46990000D01*
X196342000Y-54483000D02*
X193802000Y-54483000D01*
X136017000Y-57023000D02*
X136017000Y-54483000D01*
X191643000Y-44831000D02*
X178054000Y-44831000D01*
X193802000Y-57023000D02*
X193802000Y-54483000D01*
X176911000Y-45974000D02*
X176911000Y-63373000D01*
X182372000Y-65913000D02*
X179451000Y-65913000D01*
X136017000Y-48641000D02*
X138055000Y-46603000D01*
X193802000Y-46990000D02*
X191643000Y-44831000D01*
X176466500Y-46418500D02*
X177228500Y-45656500D01*
X176911000Y-63373000D02*
X179451000Y-65913000D01*
X136017000Y-54483000D02*
X133477000Y-54483000D01*
X174117000Y-46603000D02*
X138055000Y-46603000D01*
X176282000Y-46603000D02*
X176466500Y-46418500D01*
X174117000Y-46603000D02*
X176282000Y-46603000D01*
X177228500Y-45656500D02*
X176911000Y-45974000D01*
X136017000Y-48641000D02*
X136017000Y-54483000D01*
X177228500Y-45656500D02*
X178054000Y-44831000D01*
D23*
%TO.N,/SP2*%
X197899900Y-68165100D02*
X197899900Y-59483100D01*
X196342000Y-69723000D02*
X197899900Y-68165100D01*
%TO.N,/A3*%
X172847000Y-140849900D02*
X172853900Y-140843000D01*
X196651800Y-91313000D02*
X196034800Y-91313000D01*
X198473800Y-93135000D02*
X196651800Y-91313000D01*
X172853900Y-140843000D02*
X190427894Y-140843000D01*
X195072000Y-90350200D02*
X195072000Y-76073000D01*
X198473800Y-132797094D02*
X198473800Y-93135000D01*
X195072000Y-76073000D02*
X196342000Y-74803000D01*
X196034800Y-91313000D02*
X195072000Y-90350200D01*
X169678900Y-140849900D02*
X172847000Y-140849900D01*
X168402000Y-139573000D02*
X169678900Y-140849900D01*
X190427894Y-140843000D02*
X198473800Y-132797094D01*
%TO.N,/A4*%
X131572000Y-110998000D02*
X132207000Y-111633000D01*
X163584100Y-141850900D02*
X165862000Y-139573000D01*
X140462000Y-125085696D02*
X141638100Y-126261795D01*
X138166900Y-118862900D02*
X140462000Y-121158000D01*
X141638100Y-126261795D02*
X141638100Y-131964600D01*
X198973800Y-79974800D02*
X198973800Y-133004200D01*
X138166900Y-113147900D02*
X138166900Y-118862900D01*
X196342000Y-77343000D02*
X198973800Y-79974800D01*
X167638900Y-141349900D02*
X165862000Y-139573000D01*
X190628100Y-141349900D02*
X198973800Y-133004200D01*
X151524400Y-141850900D02*
X163584100Y-141850900D01*
X133477000Y-77343000D02*
X131572000Y-79248000D01*
X141638100Y-131964600D02*
X151524400Y-141850900D01*
X136652000Y-111633000D02*
X138166900Y-113147900D01*
X132207000Y-111633000D02*
X136652000Y-111633000D01*
X131572000Y-79248000D02*
X131572000Y-110998000D01*
X140462000Y-121158000D02*
X140462000Y-125085696D01*
X167638900Y-141349900D02*
X190628100Y-141349900D01*
%TO.N,/A5*%
X158797500Y-90104300D02*
X157902400Y-90104300D01*
X162052000Y-116472200D02*
X162144600Y-116379600D01*
X160510900Y-91817700D02*
X158797500Y-90104300D01*
X162052000Y-138303000D02*
X162052000Y-116472200D01*
X160510900Y-92224900D02*
X160510900Y-91817700D01*
X162144600Y-93858600D02*
X160510900Y-92224900D01*
X162144600Y-116379600D02*
X162144600Y-93858600D01*
X163322000Y-139573000D02*
X162052000Y-138303000D01*
%TO.N,/A6*%
X143637000Y-118618000D02*
X143637000Y-124577696D01*
X139446000Y-103759000D02*
X141858000Y-106171000D01*
X134747000Y-88138000D02*
X135382000Y-88773000D01*
X133477000Y-82423000D02*
X134747000Y-83693000D01*
X135382000Y-88773000D02*
X137414000Y-88773000D01*
X148082000Y-129022695D02*
X148082000Y-134742600D01*
X141858000Y-106171000D02*
X141858000Y-116839000D01*
X139446000Y-90805000D02*
X139446000Y-103759000D01*
X134747000Y-83693000D02*
X134747000Y-88138000D01*
X141858000Y-116839000D02*
X143637000Y-118618000D01*
X143637000Y-124577696D02*
X148082000Y-129022695D01*
X137414000Y-88773000D02*
X139446000Y-90805000D01*
%TO.N,/A7*%
X158242000Y-126873000D02*
X159512000Y-125603000D01*
X161140800Y-115950500D02*
X161140800Y-94984100D01*
X158242000Y-139573000D02*
X158242000Y-126873000D01*
X161140800Y-94984100D02*
X158564400Y-92407700D01*
X159512000Y-125603000D02*
X159512000Y-117579300D01*
X159512000Y-117579300D02*
X161140800Y-115950500D01*
X158564400Y-92407700D02*
X158564400Y-90943300D01*
%TO.N,/A8*%
X133477000Y-87503000D02*
X132072000Y-88908000D01*
X132072000Y-88908000D02*
X132072000Y-102893634D01*
X132072000Y-102893634D02*
X133191365Y-104013000D01*
X133191365Y-104013000D02*
X137414000Y-104013000D01*
X160782000Y-117032400D02*
X161642700Y-116171700D01*
X140074500Y-106673500D02*
X140074500Y-116713000D01*
X161642700Y-94066500D02*
X159784000Y-92207800D01*
X160782000Y-124333000D02*
X160782000Y-117032400D01*
X137414000Y-104013000D02*
X140074500Y-106673500D01*
X161642700Y-116171700D02*
X161642700Y-94066500D01*
X159784000Y-92207800D02*
X159784000Y-92118800D01*
%TO.N,/A9*%
X198231900Y-85912200D02*
X198231900Y-88153100D01*
X198231900Y-88153100D02*
X196342000Y-90043000D01*
%TO.N,/A10*%
X157099000Y-120269000D02*
X156337000Y-119507000D01*
X183642000Y-115775800D02*
X177873300Y-121544500D01*
X191262000Y-93853000D02*
X188087000Y-97028000D01*
X196342000Y-92583000D02*
X195072000Y-93853000D01*
X195072000Y-93853000D02*
X191262000Y-93853000D01*
X188087000Y-97028000D02*
X188087000Y-106259500D01*
X183642000Y-108839000D02*
X183642000Y-115775800D01*
X188087000Y-106259500D02*
X186523500Y-107823000D01*
X157099000Y-122555000D02*
X157099000Y-120269000D01*
X184658000Y-107823000D02*
X183642000Y-108839000D01*
X186523500Y-107823000D02*
X184658000Y-107823000D01*
%TO.N,/A11*%
X165608000Y-123184000D02*
X163148400Y-120724400D01*
X165608000Y-124460000D02*
X165608000Y-123184000D01*
X163148400Y-93124400D02*
X162592900Y-92568900D01*
X163148400Y-120724400D02*
X163148400Y-93124400D01*
%TO.N,/A12*%
X135731365Y-101473000D02*
X137922000Y-101473000D01*
X143002000Y-119253000D02*
X143002000Y-124968000D01*
X195072000Y-100545400D02*
X195072000Y-98933000D01*
X138946000Y-104013000D02*
X140999400Y-106066400D01*
X154448100Y-140826900D02*
X155702000Y-139573000D01*
X189357000Y-105627400D02*
X193511400Y-101473000D01*
X146177000Y-135078500D02*
X151925400Y-140826900D01*
X193511400Y-101473000D02*
X194144400Y-101473000D01*
X140999400Y-117250400D02*
X143002000Y-119253000D01*
X189357000Y-119888000D02*
X189357000Y-105627400D01*
X137922000Y-101473000D02*
X138946000Y-102497000D01*
X151925400Y-140826900D02*
X154448100Y-140826900D01*
X134747000Y-98933000D02*
X134747000Y-100488635D01*
X188722000Y-120523000D02*
X189357000Y-119888000D01*
X194144400Y-101473000D02*
X195072000Y-100545400D01*
X195072000Y-98933000D02*
X196342000Y-97663000D01*
X138946000Y-102497000D02*
X138946000Y-104013000D01*
X146177000Y-128143000D02*
X146177000Y-135078500D01*
X140999400Y-106066400D02*
X140999400Y-117250400D01*
X143002000Y-124968000D02*
X146177000Y-128143000D01*
X134747000Y-100488635D02*
X135731365Y-101473000D01*
X133477000Y-97663000D02*
X134747000Y-98933000D01*
%TO.N,/A13*%
X182118000Y-111887000D02*
X182118000Y-107823000D01*
X187587000Y-100338000D02*
X186182000Y-98933000D01*
X187587000Y-104275000D02*
X187587000Y-100338000D01*
X184658000Y-105283000D02*
X186579000Y-105283000D01*
X158242000Y-117684500D02*
X159645600Y-116280900D01*
X186579000Y-105283000D02*
X187587000Y-104275000D01*
X158242000Y-124333000D02*
X158242000Y-117684500D01*
X182118000Y-107823000D02*
X184658000Y-105283000D01*
%TO.N,/A14*%
X155448000Y-117084900D02*
X157089900Y-115443000D01*
X155448000Y-120523000D02*
X155448000Y-117084900D01*
X155702000Y-120777000D02*
X155448000Y-120523000D01*
X155702000Y-124333000D02*
X155702000Y-120777000D01*
%TO.N,/A18*%
X133191365Y-126873000D02*
X132207000Y-125888635D01*
X132207000Y-125888635D02*
X132207000Y-116713000D01*
X139192000Y-125857000D02*
X140208000Y-125857000D01*
X133191365Y-126873000D02*
X138176000Y-126873000D01*
X138176000Y-126873000D02*
X139192000Y-125857000D01*
X195072000Y-116713000D02*
X196342000Y-115443000D01*
X132207000Y-116713000D02*
X133477000Y-115443000D01*
X195072000Y-118618000D02*
X194437000Y-119253000D01*
X194437000Y-119253000D02*
X192532000Y-119253000D01*
X195072000Y-118618000D02*
X195072000Y-116713000D01*
%TO.N,/D7*%
X173482000Y-127381000D02*
X176784000Y-130683000D01*
X177555750Y-122291250D02*
X179324000Y-122291250D01*
X184150000Y-130683000D02*
X190754000Y-124079000D01*
X176553500Y-121289000D02*
X177555750Y-122291250D01*
X176553500Y-93497400D02*
X176553500Y-121289000D01*
X181102000Y-87889000D02*
X181102000Y-88948900D01*
X181102000Y-88948900D02*
X176553500Y-93497400D01*
X190754000Y-124079000D02*
X190754000Y-123317000D01*
X176784000Y-130683000D02*
X184150000Y-130683000D01*
%TO.N,/D6*%
X178562000Y-87889000D02*
X178562000Y-90072600D01*
X139827000Y-121793000D02*
X139737000Y-121793000D01*
X133477000Y-123063000D02*
X134577000Y-124163000D01*
X178562000Y-90072600D02*
X176051600Y-92583000D01*
X134577000Y-124163000D02*
X137457000Y-124163000D01*
X180975000Y-121793000D02*
X178308000Y-124460000D01*
X196342000Y-123063000D02*
X195072000Y-121793000D01*
X195072000Y-121793000D02*
X180975000Y-121793000D01*
X176051600Y-121628600D02*
X176051600Y-92583000D01*
X137457000Y-124163000D02*
X139827000Y-121793000D01*
X178883000Y-124460000D02*
X176051600Y-121628600D01*
%TO.N,/D5*%
X180848000Y-124460000D02*
X182782400Y-122525600D01*
X182782400Y-122525600D02*
X191232600Y-122525600D01*
X177292000Y-124012009D02*
X177292000Y-124653991D01*
X175551600Y-122271609D02*
X177292000Y-124012009D01*
X177292000Y-124653991D02*
X178241009Y-125603000D01*
X195072000Y-124333000D02*
X196342000Y-125603000D01*
X175551600Y-92075000D02*
X175551600Y-122271609D01*
X178241009Y-125603000D02*
X179832000Y-125603000D01*
X176022000Y-91604600D02*
X175551600Y-92075000D01*
X193040000Y-124333000D02*
X195072000Y-124333000D01*
X176022000Y-87889000D02*
X176022000Y-91604600D01*
X191232600Y-122525600D02*
X193040000Y-124333000D01*
X179832000Y-125603000D02*
X181102000Y-124333000D01*
%TO.N,/D4*%
X183466300Y-94028700D02*
X184912000Y-92583000D01*
X184912000Y-92583000D02*
X184912000Y-89027000D01*
X187452000Y-120523000D02*
X188214000Y-119761000D01*
X183466300Y-101446000D02*
X183466300Y-94028700D01*
X184529700Y-102509400D02*
X183466300Y-101446000D01*
X183642000Y-124333000D02*
X183642000Y-127618400D01*
X188214000Y-119761000D02*
X188214000Y-107823000D01*
X183642000Y-127618400D02*
X182833300Y-128427100D01*
%TO.N,/D3*%
X170942000Y-90043000D02*
X169672000Y-91313000D01*
X169672000Y-105283000D02*
X169672000Y-91313000D01*
X170942000Y-87889000D02*
X170942000Y-90043000D01*
X186182000Y-126619000D02*
X186182000Y-124333000D01*
X183487553Y-129313447D02*
X179411456Y-129313447D01*
X134747000Y-129413000D02*
X137922000Y-129413000D01*
X183487553Y-129313447D02*
X186182000Y-126619000D01*
X179411456Y-129313447D02*
X174752000Y-124653991D01*
X173482000Y-109093000D02*
X169672000Y-105283000D01*
X133477000Y-130683000D02*
X134747000Y-129413000D01*
X174752000Y-110363000D02*
X173482000Y-109093000D01*
X174752000Y-124653991D02*
X174752000Y-110363000D01*
X137922000Y-129413000D02*
X140208000Y-127127000D01*
%TO.N,/A2*%
X167132000Y-132464200D02*
X167132000Y-123710100D01*
X163650300Y-92598400D02*
X159657000Y-88605100D01*
X170942000Y-136274200D02*
X167132000Y-132464200D01*
X163650300Y-120228400D02*
X163650300Y-92598400D01*
X159657000Y-88605100D02*
X159657000Y-87104000D01*
X189611000Y-76454000D02*
X193802000Y-72263000D01*
X167132000Y-123710100D02*
X163650300Y-120228400D01*
X182626000Y-76454000D02*
X189611000Y-76454000D01*
X160893800Y-85867200D02*
X160893800Y-83058000D01*
X170942000Y-139573000D02*
X170942000Y-136274200D01*
X159657000Y-87104000D02*
X160893800Y-85867200D01*
%TO.N,/A1*%
X173482000Y-137752700D02*
X173482000Y-139573000D01*
X169672000Y-133942700D02*
X173482000Y-137752700D01*
X166243200Y-110363000D02*
X169672000Y-113791800D01*
X169672000Y-113791800D02*
X169672000Y-133942700D01*
X165104200Y-97172700D02*
X164707900Y-97569000D01*
X165104200Y-92211200D02*
X165104200Y-97172700D01*
X160782000Y-87889000D02*
X165104200Y-92211200D01*
X164707900Y-97569000D02*
X164707900Y-109571900D01*
X165499000Y-110363000D02*
X166243200Y-110363000D01*
X164707900Y-109571900D02*
X165499000Y-110363000D01*
%TO.N,/A0*%
X158242000Y-88839100D02*
X161288000Y-91885100D01*
X161288000Y-92292200D02*
X162646500Y-93650700D01*
X158242000Y-87889000D02*
X158242000Y-88839100D01*
X164592000Y-123666500D02*
X164592000Y-136144000D01*
X162646500Y-93650700D02*
X162646500Y-121721000D01*
X161288000Y-91885100D02*
X161288000Y-92292200D01*
X162646500Y-121721000D02*
X164592000Y-123666500D01*
%TO.N,/E*%
X193802000Y-100203000D02*
X191262000Y-97663000D01*
X158632200Y-93849600D02*
X158114000Y-93849600D01*
X156845000Y-117729000D02*
X159223300Y-115350700D01*
X159223300Y-115350700D02*
X160436500Y-115350700D01*
X160436500Y-115350700D02*
X160638900Y-115148300D01*
X191262000Y-97663000D02*
X191262000Y-95928400D01*
X160638900Y-95856300D02*
X158632200Y-93849600D01*
X160638900Y-115148300D02*
X160638900Y-95856300D01*
%TO.N,/RESET*%
X163720500Y-136525000D02*
X164592000Y-137396500D01*
X183642000Y-87889000D02*
X183642000Y-92075000D01*
X164592000Y-137396500D02*
X164592000Y-139893991D01*
X164592000Y-139893991D02*
X163136991Y-141349000D01*
X143116700Y-126021942D02*
X142062758Y-124968000D01*
X179071300Y-115317400D02*
X177781200Y-115317400D01*
X151732300Y-141349000D02*
X143116700Y-132733400D01*
X183642000Y-104013000D02*
X182372000Y-102743000D01*
X181039850Y-113348850D02*
X179071300Y-115317400D01*
X183642000Y-104013000D02*
X181039850Y-106615150D01*
X139347500Y-108242500D02*
X136388000Y-105283000D01*
X186182000Y-104013000D02*
X183642000Y-104013000D01*
X142062758Y-124968000D02*
X142062758Y-120063258D01*
X181039850Y-106615150D02*
X181039850Y-113348850D01*
X139347500Y-117348000D02*
X139347500Y-108242500D01*
X173482000Y-121140000D02*
X173482000Y-116713000D01*
X182372000Y-102743000D02*
X182372000Y-93345000D01*
X143116700Y-132733400D02*
X143116700Y-126021942D01*
X183642000Y-92075000D02*
X182372000Y-93345000D01*
X163720500Y-126452200D02*
X163720500Y-136525000D01*
X172668400Y-121953600D02*
X173482000Y-121140000D01*
X163136991Y-141349000D02*
X151732300Y-141349000D01*
X142062758Y-120063258D02*
X139347500Y-117348000D01*
%TO.N,/A15*%
X140589000Y-131622606D02*
X140589000Y-130175000D01*
X142377400Y-130175000D02*
X142377400Y-125989748D01*
X199771000Y-109220000D02*
X199771000Y-132914106D01*
X141097000Y-124709348D02*
X141097000Y-120523000D01*
X137668000Y-107823000D02*
X136398000Y-107823000D01*
X151317293Y-142350900D02*
X140589000Y-131622606D01*
X142377400Y-125989748D02*
X141097000Y-124709348D01*
X199771000Y-132914106D02*
X190334206Y-142350900D01*
X190334206Y-142350900D02*
X151317293Y-142350900D01*
X141097000Y-120523000D02*
X138668900Y-118094900D01*
X138668900Y-118094900D02*
X138668900Y-108823900D01*
X138668900Y-108823900D02*
X137668000Y-107823000D01*
%TO.N,/RW*%
X155194000Y-89874600D02*
X155194000Y-112141000D01*
X144716500Y-121793000D02*
X144716500Y-119281700D01*
X151095200Y-112903000D02*
X155956000Y-112903000D01*
X144716500Y-119281700D02*
X151095200Y-112903000D01*
X193802000Y-117983000D02*
X190246000Y-114427000D01*
X155702000Y-89366600D02*
X155194000Y-89874600D01*
X159512000Y-114173000D02*
X157226000Y-114173000D01*
X156083000Y-113030000D02*
X155194000Y-112141000D01*
X156083000Y-113030000D02*
X155956000Y-112903000D01*
X155702000Y-87889000D02*
X155702000Y-89366600D01*
X157226000Y-114173000D02*
X156083000Y-113030000D01*
X190246000Y-114427000D02*
X190246000Y-112991300D01*
%TO.N,/DS*%
X183896000Y-129921000D02*
X189103000Y-124714000D01*
X189103000Y-124714000D02*
X189103000Y-123250600D01*
X175514000Y-127889000D02*
X177546000Y-129921000D01*
X177546000Y-129921000D02*
X183896000Y-129921000D01*
%TO.N,/D0*%
X178562000Y-138303000D02*
X178562000Y-139573000D01*
X170942000Y-91168000D02*
X170942000Y-104013000D01*
X172067000Y-90043000D02*
X170942000Y-91168000D01*
X172067000Y-87104000D02*
X172067000Y-90043000D01*
X191389000Y-111633000D02*
X190119000Y-110363000D01*
X193802000Y-125603000D02*
X195072000Y-126873000D01*
X197973800Y-112522000D02*
X197084800Y-111633000D01*
X164978000Y-86233000D02*
X171196000Y-86233000D01*
X197973800Y-125622200D02*
X197973800Y-112522000D01*
X171196000Y-86233000D02*
X172067000Y-87104000D01*
X195072000Y-126873000D02*
X196723000Y-126873000D01*
X189164900Y-127700100D02*
X178562000Y-138303000D01*
X196723000Y-126873000D02*
X197973800Y-125622200D01*
X197084800Y-111633000D02*
X191389000Y-111633000D01*
X170942000Y-104013000D02*
X173482000Y-106553000D01*
X163322000Y-87889000D02*
X164978000Y-86233000D01*
%TO.N,/D1*%
X168185000Y-91479200D02*
X169672000Y-89992200D01*
X171637700Y-134690800D02*
X172558100Y-134690800D01*
X170942000Y-112407700D02*
X167627300Y-109093000D01*
X169672000Y-89992200D02*
X169672000Y-86995000D01*
X180848000Y-139700000D02*
X192405000Y-128143000D01*
X167018000Y-86733000D02*
X165862000Y-87889000D01*
X168185000Y-105892600D02*
X168185000Y-91479200D01*
X181102000Y-139573000D02*
X192532000Y-128143000D01*
X170942000Y-133995100D02*
X171637700Y-134690800D01*
X167627300Y-106450300D02*
X168185000Y-105892600D01*
X165862000Y-109093000D02*
X167627300Y-109093000D01*
X192532000Y-128143000D02*
X193802000Y-128143000D01*
X169410000Y-86733000D02*
X167018000Y-86733000D01*
X170942000Y-122879800D02*
X170942000Y-112407700D01*
X169672000Y-86995000D02*
X169410000Y-86733000D01*
X170942000Y-125917800D02*
X170942000Y-133995100D01*
X192405000Y-128143000D02*
X193802000Y-128143000D01*
X167627300Y-109093000D02*
X167627300Y-106450300D01*
%TO.N,/D2*%
X167508400Y-104906600D02*
X167508400Y-91059000D01*
X168402000Y-90165400D02*
X167508400Y-91059000D01*
X171938700Y-110634200D02*
X171938700Y-123063000D01*
X168603600Y-107299100D02*
X171938700Y-110634200D01*
X168402000Y-87889000D02*
X168402000Y-90165400D01*
X171938700Y-123063000D02*
X172212000Y-123336300D01*
X165862000Y-106553000D02*
X167508400Y-104906600D01*
X172212000Y-123336300D02*
X172212000Y-133477000D01*
%TO.N,/FDC_IP*%
X139827000Y-70993000D02*
X139827000Y-83871100D01*
X140462000Y-64643000D02*
X140462000Y-70358000D01*
X141553900Y-104977900D02*
X143256000Y-106680000D01*
X139827000Y-83871100D02*
X141553900Y-85598000D01*
X140462000Y-70358000D02*
X139827000Y-70993000D01*
X141553900Y-85598000D02*
X141553900Y-104977900D01*
%TO.N,/MOTOR_ON*%
X144437000Y-97701000D02*
X144437000Y-102959000D01*
X167001800Y-97018500D02*
X166116000Y-96132700D01*
X143256000Y-96520000D02*
X144437000Y-97701000D01*
X144437000Y-102959000D02*
X143256000Y-104140000D01*
X167001800Y-102873200D02*
X167001800Y-97018500D01*
X165862000Y-104013000D02*
X167001800Y-102873200D01*
%TO.N,/STEP*%
X151197800Y-97088800D02*
X151197800Y-96016400D01*
X151892000Y-98933000D02*
X151892000Y-97783000D01*
X151892000Y-97783000D02*
X151197800Y-97088800D01*
%TO.N,/DATA_WR*%
X145322500Y-97757600D02*
X144526000Y-96961100D01*
X144526000Y-96961100D02*
X144526000Y-90170000D01*
X146185500Y-97757600D02*
X145322500Y-97757600D01*
X148356450Y-105557450D02*
X148356450Y-99928550D01*
X144526000Y-90170000D02*
X143256000Y-88900000D01*
X148356450Y-99928550D02*
X146185500Y-97757600D01*
X151892000Y-109093000D02*
X148356450Y-105557450D01*
%TO.N,/GATE_WR*%
X147399800Y-96436000D02*
X148336000Y-97372200D01*
X159512000Y-106553000D02*
X156851600Y-103892600D01*
X146212000Y-87630000D02*
X147399800Y-88817800D01*
X156851600Y-103892600D02*
X156851600Y-97464300D01*
X147399800Y-88817800D02*
X147399800Y-96436000D01*
X144526000Y-87630000D02*
X146212000Y-87630000D01*
X143256000Y-86360000D02*
X144526000Y-87630000D01*
%TO.N,/FDC_T0*%
X140462000Y-81026000D02*
X143256000Y-83820000D01*
X140462000Y-71628000D02*
X140462000Y-81026000D01*
X143002000Y-64643000D02*
X143002000Y-69088000D01*
X143002000Y-69088000D02*
X140462000Y-71628000D01*
%TO.N,/HEAD*%
X149301200Y-91059000D02*
X149276000Y-90644100D01*
X168910000Y-96291400D02*
X168910000Y-106577600D01*
X149276000Y-90644100D02*
X149276000Y-75572200D01*
X168910000Y-106577600D02*
X173482000Y-111149600D01*
%TO.N,/FDCON_CS*%
X178562000Y-111633000D02*
X177280400Y-110351400D01*
X153162000Y-92724900D02*
X153162000Y-87889000D01*
X153162000Y-92935900D02*
X153162000Y-92724900D01*
X177280400Y-110351400D02*
X177280400Y-94375100D01*
%TO.N,/DS0*%
X164152200Y-97096700D02*
X164377300Y-96871600D01*
X147447000Y-100203000D02*
X147447000Y-105401400D01*
X165862000Y-111633000D02*
X164152200Y-109923200D01*
X164152200Y-109923200D02*
X164152200Y-97096700D01*
%TO.N,/DTACKL*%
X137540600Y-116966600D02*
X137540600Y-121546200D01*
X136017000Y-115443000D02*
X137540600Y-116966600D01*
X137540600Y-121546200D02*
X137381500Y-121705300D01*
%TO.N,/CS175*%
X178562000Y-114173000D02*
X180213000Y-112522000D01*
X180916300Y-103759000D02*
X180916300Y-101099500D01*
X180213000Y-104462300D02*
X180916300Y-103759000D01*
X180213000Y-112522000D02*
X180213000Y-104462300D01*
D22*
%TO.N,+5V*%
X187452000Y-65913000D02*
X187452000Y-71379000D01*
X150622000Y-93503800D02*
X150272800Y-93853000D01*
X151892000Y-115523000D02*
X153162000Y-116793000D01*
X165862000Y-59944000D02*
X167501000Y-61583000D01*
X165862000Y-119888000D02*
X165862000Y-117132500D01*
X187452000Y-71379000D02*
X186182000Y-72649000D01*
X150272800Y-104933800D02*
X151892000Y-106553000D01*
X150272800Y-93853000D02*
X150272800Y-104933800D01*
X167501000Y-61583000D02*
X174117000Y-61583000D01*
X155321000Y-59944000D02*
X158242000Y-59944000D01*
X150622000Y-64643000D02*
X155321000Y-59944000D01*
X153162000Y-139573000D02*
X153162000Y-124333000D01*
X151892000Y-114173000D02*
X151892000Y-115523000D01*
X153162000Y-124333000D02*
X153162000Y-116793000D01*
X150622000Y-64643000D02*
X150622000Y-93503800D01*
D23*
%TO.N,/FDC_WPRT*%
X145542000Y-67659600D02*
X141573600Y-71628000D01*
X143256000Y-81280000D02*
X141573600Y-79597600D01*
X141573600Y-79597600D02*
X141573600Y-71628000D01*
X145542000Y-64643000D02*
X145542000Y-67659600D01*
%TO.N,/FDC_STEP*%
X183642000Y-72649000D02*
X181864000Y-74427000D01*
X179832000Y-95177894D02*
X179832000Y-102743000D01*
X182372000Y-92637894D02*
X179832000Y-95177894D01*
X181864000Y-74427000D02*
X181864000Y-86233000D01*
X182372000Y-86741000D02*
X182372000Y-92637894D01*
X181864000Y-86233000D02*
X182372000Y-86741000D01*
%TO.N,/FDC_RD*%
X148082000Y-66254600D02*
X148082000Y-64643000D01*
X142073600Y-72263000D02*
X148082000Y-66254600D01*
X143256000Y-78740000D02*
X142073600Y-77557600D01*
X142073600Y-77557600D02*
X142073600Y-72263000D01*
%TO.N,/ROM_OE*%
X166497000Y-121158000D02*
X168402000Y-123063000D01*
X165862000Y-121158000D02*
X166497000Y-121158000D01*
X164489400Y-117475000D02*
X164489400Y-119785400D01*
X168402000Y-123063000D02*
X168402000Y-124333000D01*
X164489400Y-119785400D02*
X165862000Y-121158000D01*
%TO.N,/FDC_WG*%
X156972000Y-85349000D02*
X156972000Y-89281000D01*
X170942000Y-72649000D02*
X162118000Y-81473000D01*
X156972000Y-89281000D02*
X155811300Y-90441700D01*
X155811300Y-90441700D02*
X155811300Y-105392300D01*
X162118000Y-81473000D02*
X160848000Y-81473000D01*
X155811300Y-105392300D02*
X159512000Y-109093000D01*
X160848000Y-81473000D02*
X156972000Y-85349000D01*
%TO.N,/FDC_WD*%
X154432000Y-109093000D02*
X151892000Y-111633000D01*
X154432000Y-86619000D02*
X154432000Y-109093000D01*
X168402000Y-72649000D02*
X154432000Y-86619000D01*
%TO.N,/FDC_DIR*%
X174897000Y-78854000D02*
X181102000Y-72649000D01*
X174897000Y-89890794D02*
X174897000Y-78854000D01*
X171626200Y-102665200D02*
X171626200Y-93161593D01*
X171704000Y-102743000D02*
X171626200Y-102665200D01*
X171626200Y-93161593D02*
X174897000Y-89890794D01*
%TD*%
%TA.AperFunction,Conductor*%
%TO.N,GND*%
G36*
X190443039Y-45612685D02*
G01*
X190488794Y-45665489D01*
X190500000Y-45717000D01*
X190500000Y-62614000D01*
X190480315Y-62681039D01*
X190427511Y-62726794D01*
X190376000Y-62738000D01*
X179448000Y-62738000D01*
X179380961Y-62718315D01*
X179335206Y-62665511D01*
X179324000Y-62614000D01*
X179324000Y-49253001D01*
X182906390Y-49253001D01*
X182926804Y-49538433D01*
X182987628Y-49818037D01*
X183087635Y-50086166D01*
X183224770Y-50337309D01*
X183224775Y-50337317D01*
X183396254Y-50566387D01*
X183396270Y-50566405D01*
X183598594Y-50768729D01*
X183598612Y-50768745D01*
X183827682Y-50940224D01*
X183827690Y-50940229D01*
X184078833Y-51077364D01*
X184078832Y-51077364D01*
X184078836Y-51077365D01*
X184078839Y-51077367D01*
X184346954Y-51177369D01*
X184346960Y-51177370D01*
X184346962Y-51177371D01*
X184626566Y-51238195D01*
X184626568Y-51238195D01*
X184626572Y-51238196D01*
X184840552Y-51253500D01*
X184983448Y-51253500D01*
X185197428Y-51238196D01*
X185477046Y-51177369D01*
X185745161Y-51077367D01*
X185996315Y-50940226D01*
X186225395Y-50768739D01*
X186427739Y-50566395D01*
X186599226Y-50337315D01*
X186736367Y-50086161D01*
X186836369Y-49818046D01*
X186897196Y-49538428D01*
X186917610Y-49253000D01*
X186897196Y-48967572D01*
X186836369Y-48687954D01*
X186736367Y-48419839D01*
X186599226Y-48168685D01*
X186599224Y-48168682D01*
X186427745Y-47939612D01*
X186427729Y-47939594D01*
X186225405Y-47737270D01*
X186225387Y-47737254D01*
X185996317Y-47565775D01*
X185996309Y-47565770D01*
X185745166Y-47428635D01*
X185745167Y-47428635D01*
X185637915Y-47388632D01*
X185477046Y-47328631D01*
X185477043Y-47328630D01*
X185477037Y-47328628D01*
X185197433Y-47267804D01*
X184983450Y-47252500D01*
X184983448Y-47252500D01*
X184840552Y-47252500D01*
X184840549Y-47252500D01*
X184626566Y-47267804D01*
X184346962Y-47328628D01*
X184078833Y-47428635D01*
X183827690Y-47565770D01*
X183827682Y-47565775D01*
X183598612Y-47737254D01*
X183598594Y-47737270D01*
X183396270Y-47939594D01*
X183396254Y-47939612D01*
X183224775Y-48168682D01*
X183224770Y-48168690D01*
X183087635Y-48419833D01*
X182987628Y-48687962D01*
X182926804Y-48967566D01*
X182906390Y-49252998D01*
X182906390Y-49253001D01*
X179324000Y-49253001D01*
X179324000Y-45717000D01*
X179343685Y-45649961D01*
X179396489Y-45604206D01*
X179448000Y-45593000D01*
X190376000Y-45593000D01*
X190443039Y-45612685D01*
G37*
%TD.AperFunction*%
%TD*%
D24*
X201422000Y-44323000D02*
X128397000Y-44323000D01*
X201422000Y-143383000D02*
X201422000Y-44323000D01*
X128397000Y-44323000D02*
X128397000Y-143383000D01*
X128397000Y-143383000D02*
X201422000Y-143383000D01*
M02*
