%TF.GenerationSoftware,KiCad,Pcbnew,8.0.6+1*%
%TF.CreationDate,2024-11-22T10:30:08+01:00*%
%TF.ProjectId,ql_trump_v2_disk_interface,716c5f74-7275-46d7-905f-76325f646973,01*%
%TF.SameCoordinates,Original*%
%TF.FileFunction,Copper,L1,Top*%
%TF.FilePolarity,Positive*%
%FSLAX46Y46*%
G04 Gerber Fmt 4.6, Leading zero omitted, Abs format (unit mm)*
G04 Created by KiCad (PCBNEW 8.0.6+1) date 2024-11-22 10:30:08*
%MOMM*%
%LPD*%
G01*
G04 APERTURE LIST*
G04 Aperture macros list*
%AMRoundRect*
0 Rectangle with rounded corners*
0 $1 Rounding radius*
0 $2 $3 $4 $5 $6 $7 $8 $9 X,Y pos of 4 corners*
0 Add a 4 corners polygon primitive as box body*
4,1,4,$2,$3,$4,$5,$6,$7,$8,$9,$2,$3,0*
0 Add four circle primitives for the rounded corners*
1,1,$1+$1,$2,$3*
1,1,$1+$1,$4,$5*
1,1,$1+$1,$6,$7*
1,1,$1+$1,$8,$9*
0 Add four rect primitives between the rounded corners*
20,1,$1+$1,$2,$3,$4,$5,0*
20,1,$1+$1,$4,$5,$6,$7,0*
20,1,$1+$1,$6,$7,$8,$9,0*
20,1,$1+$1,$8,$9,$2,$3,0*%
G04 Aperture macros list end*
%ADD10C,0.300000*%
%TA.AperFunction,NonConductor*%
%ADD11C,0.300000*%
%TD*%
%ADD12C,0.600000*%
%TA.AperFunction,NonConductor*%
%ADD13C,0.600000*%
%TD*%
%ADD14C,0.250000*%
%TA.AperFunction,NonConductor*%
%ADD15C,0.250000*%
%TD*%
%TA.AperFunction,ComponentPad*%
%ADD16RoundRect,0.249999X-0.525001X0.525001X-0.525001X-0.525001X0.525001X-0.525001X0.525001X0.525001X0*%
%TD*%
%TA.AperFunction,ComponentPad*%
%ADD17C,1.550000*%
%TD*%
%TA.AperFunction,ComponentPad*%
%ADD18R,1.905000X2.000000*%
%TD*%
%TA.AperFunction,ComponentPad*%
%ADD19O,1.905000X2.000000*%
%TD*%
%TA.AperFunction,ComponentPad*%
%ADD20R,1.600000X1.600000*%
%TD*%
%TA.AperFunction,ComponentPad*%
%ADD21O,1.600000X1.600000*%
%TD*%
%TA.AperFunction,ComponentPad*%
%ADD22C,1.600000*%
%TD*%
%TA.AperFunction,ComponentPad*%
%ADD23R,2.400000X2.400000*%
%TD*%
%TA.AperFunction,ComponentPad*%
%ADD24O,2.400000X2.400000*%
%TD*%
%TA.AperFunction,ComponentPad*%
%ADD25C,1.500000*%
%TD*%
%TA.AperFunction,ComponentPad*%
%ADD26R,1.700000X1.700000*%
%TD*%
%TA.AperFunction,ComponentPad*%
%ADD27O,1.700000X1.700000*%
%TD*%
%TA.AperFunction,ViaPad*%
%ADD28C,0.800000*%
%TD*%
%TA.AperFunction,ViaPad*%
%ADD29C,1.600000*%
%TD*%
%TA.AperFunction,Conductor*%
%ADD30C,0.750000*%
%TD*%
%TA.AperFunction,Conductor*%
%ADD31C,0.500000*%
%TD*%
%TA.AperFunction,Conductor*%
%ADD32C,0.350000*%
%TD*%
%ADD33C,0.350000*%
G04 APERTURE END LIST*
D10*
D11*
X78808571Y-114089328D02*
X78808571Y-112589328D01*
X78808571Y-112589328D02*
X79308571Y-113660757D01*
X79308571Y-113660757D02*
X79808571Y-112589328D01*
X79808571Y-112589328D02*
X79808571Y-114089328D01*
X80522857Y-114089328D02*
X80522857Y-113089328D01*
X80522857Y-112589328D02*
X80451429Y-112660757D01*
X80451429Y-112660757D02*
X80522857Y-112732185D01*
X80522857Y-112732185D02*
X80594286Y-112660757D01*
X80594286Y-112660757D02*
X80522857Y-112589328D01*
X80522857Y-112589328D02*
X80522857Y-112732185D01*
X81237143Y-114089328D02*
X81237143Y-113089328D01*
X81237143Y-113375042D02*
X81308572Y-113232185D01*
X81308572Y-113232185D02*
X81380001Y-113160757D01*
X81380001Y-113160757D02*
X81522858Y-113089328D01*
X81522858Y-113089328D02*
X81665715Y-113089328D01*
X82808572Y-114089328D02*
X82808572Y-113303614D01*
X82808572Y-113303614D02*
X82737143Y-113160757D01*
X82737143Y-113160757D02*
X82594286Y-113089328D01*
X82594286Y-113089328D02*
X82308572Y-113089328D01*
X82308572Y-113089328D02*
X82165714Y-113160757D01*
X82808572Y-114017900D02*
X82665714Y-114089328D01*
X82665714Y-114089328D02*
X82308572Y-114089328D01*
X82308572Y-114089328D02*
X82165714Y-114017900D01*
X82165714Y-114017900D02*
X82094286Y-113875042D01*
X82094286Y-113875042D02*
X82094286Y-113732185D01*
X82094286Y-113732185D02*
X82165714Y-113589328D01*
X82165714Y-113589328D02*
X82308572Y-113517900D01*
X82308572Y-113517900D02*
X82665714Y-113517900D01*
X82665714Y-113517900D02*
X82808572Y-113446471D01*
X84165715Y-114017900D02*
X84022857Y-114089328D01*
X84022857Y-114089328D02*
X83737143Y-114089328D01*
X83737143Y-114089328D02*
X83594286Y-114017900D01*
X83594286Y-114017900D02*
X83522857Y-113946471D01*
X83522857Y-113946471D02*
X83451429Y-113803614D01*
X83451429Y-113803614D02*
X83451429Y-113375042D01*
X83451429Y-113375042D02*
X83522857Y-113232185D01*
X83522857Y-113232185D02*
X83594286Y-113160757D01*
X83594286Y-113160757D02*
X83737143Y-113089328D01*
X83737143Y-113089328D02*
X84022857Y-113089328D01*
X84022857Y-113089328D02*
X84165715Y-113160757D01*
X85022857Y-114089328D02*
X84880000Y-114017900D01*
X84880000Y-114017900D02*
X84808571Y-113875042D01*
X84808571Y-113875042D02*
X84808571Y-112589328D01*
X86165714Y-114017900D02*
X86022857Y-114089328D01*
X86022857Y-114089328D02*
X85737143Y-114089328D01*
X85737143Y-114089328D02*
X85594285Y-114017900D01*
X85594285Y-114017900D02*
X85522857Y-113875042D01*
X85522857Y-113875042D02*
X85522857Y-113303614D01*
X85522857Y-113303614D02*
X85594285Y-113160757D01*
X85594285Y-113160757D02*
X85737143Y-113089328D01*
X85737143Y-113089328D02*
X86022857Y-113089328D01*
X86022857Y-113089328D02*
X86165714Y-113160757D01*
X86165714Y-113160757D02*
X86237143Y-113303614D01*
X86237143Y-113303614D02*
X86237143Y-113446471D01*
X86237143Y-113446471D02*
X85522857Y-113589328D01*
X87951428Y-114017900D02*
X88165714Y-114089328D01*
X88165714Y-114089328D02*
X88522856Y-114089328D01*
X88522856Y-114089328D02*
X88665714Y-114017900D01*
X88665714Y-114017900D02*
X88737142Y-113946471D01*
X88737142Y-113946471D02*
X88808571Y-113803614D01*
X88808571Y-113803614D02*
X88808571Y-113660757D01*
X88808571Y-113660757D02*
X88737142Y-113517900D01*
X88737142Y-113517900D02*
X88665714Y-113446471D01*
X88665714Y-113446471D02*
X88522856Y-113375042D01*
X88522856Y-113375042D02*
X88237142Y-113303614D01*
X88237142Y-113303614D02*
X88094285Y-113232185D01*
X88094285Y-113232185D02*
X88022856Y-113160757D01*
X88022856Y-113160757D02*
X87951428Y-113017900D01*
X87951428Y-113017900D02*
X87951428Y-112875042D01*
X87951428Y-112875042D02*
X88022856Y-112732185D01*
X88022856Y-112732185D02*
X88094285Y-112660757D01*
X88094285Y-112660757D02*
X88237142Y-112589328D01*
X88237142Y-112589328D02*
X88594285Y-112589328D01*
X88594285Y-112589328D02*
X88808571Y-112660757D01*
X89308570Y-113089328D02*
X89665713Y-114089328D01*
X90022856Y-113089328D02*
X89665713Y-114089328D01*
X89665713Y-114089328D02*
X89522856Y-114446471D01*
X89522856Y-114446471D02*
X89451427Y-114517900D01*
X89451427Y-114517900D02*
X89308570Y-114589328D01*
X90522856Y-114017900D02*
X90665713Y-114089328D01*
X90665713Y-114089328D02*
X90951427Y-114089328D01*
X90951427Y-114089328D02*
X91094284Y-114017900D01*
X91094284Y-114017900D02*
X91165713Y-113875042D01*
X91165713Y-113875042D02*
X91165713Y-113803614D01*
X91165713Y-113803614D02*
X91094284Y-113660757D01*
X91094284Y-113660757D02*
X90951427Y-113589328D01*
X90951427Y-113589328D02*
X90737142Y-113589328D01*
X90737142Y-113589328D02*
X90594284Y-113517900D01*
X90594284Y-113517900D02*
X90522856Y-113375042D01*
X90522856Y-113375042D02*
X90522856Y-113303614D01*
X90522856Y-113303614D02*
X90594284Y-113160757D01*
X90594284Y-113160757D02*
X90737142Y-113089328D01*
X90737142Y-113089328D02*
X90951427Y-113089328D01*
X90951427Y-113089328D02*
X91094284Y-113160757D01*
X91594285Y-113089328D02*
X92165713Y-113089328D01*
X91808570Y-112589328D02*
X91808570Y-113875042D01*
X91808570Y-113875042D02*
X91879999Y-114017900D01*
X91879999Y-114017900D02*
X92022856Y-114089328D01*
X92022856Y-114089328D02*
X92165713Y-114089328D01*
X93237142Y-114017900D02*
X93094285Y-114089328D01*
X93094285Y-114089328D02*
X92808571Y-114089328D01*
X92808571Y-114089328D02*
X92665713Y-114017900D01*
X92665713Y-114017900D02*
X92594285Y-113875042D01*
X92594285Y-113875042D02*
X92594285Y-113303614D01*
X92594285Y-113303614D02*
X92665713Y-113160757D01*
X92665713Y-113160757D02*
X92808571Y-113089328D01*
X92808571Y-113089328D02*
X93094285Y-113089328D01*
X93094285Y-113089328D02*
X93237142Y-113160757D01*
X93237142Y-113160757D02*
X93308571Y-113303614D01*
X93308571Y-113303614D02*
X93308571Y-113446471D01*
X93308571Y-113446471D02*
X92594285Y-113589328D01*
X93951427Y-114089328D02*
X93951427Y-113089328D01*
X93951427Y-113232185D02*
X94022856Y-113160757D01*
X94022856Y-113160757D02*
X94165713Y-113089328D01*
X94165713Y-113089328D02*
X94379999Y-113089328D01*
X94379999Y-113089328D02*
X94522856Y-113160757D01*
X94522856Y-113160757D02*
X94594285Y-113303614D01*
X94594285Y-113303614D02*
X94594285Y-114089328D01*
X94594285Y-113303614D02*
X94665713Y-113160757D01*
X94665713Y-113160757D02*
X94808570Y-113089328D01*
X94808570Y-113089328D02*
X95022856Y-113089328D01*
X95022856Y-113089328D02*
X95165713Y-113160757D01*
X95165713Y-113160757D02*
X95237142Y-113303614D01*
X95237142Y-113303614D02*
X95237142Y-114089328D01*
X95879999Y-114017900D02*
X96022856Y-114089328D01*
X96022856Y-114089328D02*
X96308570Y-114089328D01*
X96308570Y-114089328D02*
X96451427Y-114017900D01*
X96451427Y-114017900D02*
X96522856Y-113875042D01*
X96522856Y-113875042D02*
X96522856Y-113803614D01*
X96522856Y-113803614D02*
X96451427Y-113660757D01*
X96451427Y-113660757D02*
X96308570Y-113589328D01*
X96308570Y-113589328D02*
X96094285Y-113589328D01*
X96094285Y-113589328D02*
X95951427Y-113517900D01*
X95951427Y-113517900D02*
X95879999Y-113375042D01*
X95879999Y-113375042D02*
X95879999Y-113303614D01*
X95879999Y-113303614D02*
X95951427Y-113160757D01*
X95951427Y-113160757D02*
X96094285Y-113089328D01*
X96094285Y-113089328D02*
X96308570Y-113089328D01*
X96308570Y-113089328D02*
X96451427Y-113160757D01*
D12*
D13*
X131984857Y-109513371D02*
X132127714Y-109370514D01*
X132127714Y-109370514D02*
X132413429Y-109227657D01*
X132413429Y-109227657D02*
X133127714Y-109227657D01*
X133127714Y-109227657D02*
X133413429Y-109370514D01*
X133413429Y-109370514D02*
X133556286Y-109513371D01*
X133556286Y-109513371D02*
X133699143Y-109799085D01*
X133699143Y-109799085D02*
X133699143Y-110084800D01*
X133699143Y-110084800D02*
X133556286Y-110513371D01*
X133556286Y-110513371D02*
X131842000Y-112227657D01*
X131842000Y-112227657D02*
X133699143Y-112227657D01*
D12*
D13*
X124334190Y-95727565D02*
X126619904Y-95727565D01*
X125477047Y-99227565D02*
X125477047Y-95727565D01*
X130238952Y-99227565D02*
X128905618Y-97560899D01*
X127953237Y-99227565D02*
X127953237Y-95727565D01*
X127953237Y-95727565D02*
X129477047Y-95727565D01*
X129477047Y-95727565D02*
X129857999Y-95894232D01*
X129857999Y-95894232D02*
X130048476Y-96060899D01*
X130048476Y-96060899D02*
X130238952Y-96394232D01*
X130238952Y-96394232D02*
X130238952Y-96894232D01*
X130238952Y-96894232D02*
X130048476Y-97227565D01*
X130048476Y-97227565D02*
X129857999Y-97394232D01*
X129857999Y-97394232D02*
X129477047Y-97560899D01*
X129477047Y-97560899D02*
X127953237Y-97560899D01*
X131953237Y-95727565D02*
X131953237Y-98560899D01*
X131953237Y-98560899D02*
X132143714Y-98894232D01*
X132143714Y-98894232D02*
X132334190Y-99060899D01*
X132334190Y-99060899D02*
X132715142Y-99227565D01*
X132715142Y-99227565D02*
X133477047Y-99227565D01*
X133477047Y-99227565D02*
X133857999Y-99060899D01*
X133857999Y-99060899D02*
X134048476Y-98894232D01*
X134048476Y-98894232D02*
X134238952Y-98560899D01*
X134238952Y-98560899D02*
X134238952Y-95727565D01*
X136143713Y-99227565D02*
X136143713Y-95727565D01*
X136143713Y-95727565D02*
X137477047Y-98227565D01*
X137477047Y-98227565D02*
X138810380Y-95727565D01*
X138810380Y-95727565D02*
X138810380Y-99227565D01*
X140715142Y-99227565D02*
X140715142Y-95727565D01*
X140715142Y-95727565D02*
X142238952Y-95727565D01*
X142238952Y-95727565D02*
X142619904Y-95894232D01*
X142619904Y-95894232D02*
X142810381Y-96060899D01*
X142810381Y-96060899D02*
X143000857Y-96394232D01*
X143000857Y-96394232D02*
X143000857Y-96894232D01*
X143000857Y-96894232D02*
X142810381Y-97227565D01*
X142810381Y-97227565D02*
X142619904Y-97394232D01*
X142619904Y-97394232D02*
X142238952Y-97560899D01*
X142238952Y-97560899D02*
X140715142Y-97560899D01*
X129381810Y-104529036D02*
X129191334Y-104695703D01*
X129191334Y-104695703D02*
X128619905Y-104862369D01*
X128619905Y-104862369D02*
X128238953Y-104862369D01*
X128238953Y-104862369D02*
X127667524Y-104695703D01*
X127667524Y-104695703D02*
X127286572Y-104362369D01*
X127286572Y-104362369D02*
X127096095Y-104029036D01*
X127096095Y-104029036D02*
X126905619Y-103362369D01*
X126905619Y-103362369D02*
X126905619Y-102862369D01*
X126905619Y-102862369D02*
X127096095Y-102195703D01*
X127096095Y-102195703D02*
X127286572Y-101862369D01*
X127286572Y-101862369D02*
X127667524Y-101529036D01*
X127667524Y-101529036D02*
X128238953Y-101362369D01*
X128238953Y-101362369D02*
X128619905Y-101362369D01*
X128619905Y-101362369D02*
X129191334Y-101529036D01*
X129191334Y-101529036D02*
X129381810Y-101695703D01*
X130905619Y-103862369D02*
X132810381Y-103862369D01*
X130524667Y-104862369D02*
X131858000Y-101362369D01*
X131858000Y-101362369D02*
X133191334Y-104862369D01*
X136810381Y-104862369D02*
X135477047Y-103195703D01*
X134524666Y-104862369D02*
X134524666Y-101362369D01*
X134524666Y-101362369D02*
X136048476Y-101362369D01*
X136048476Y-101362369D02*
X136429428Y-101529036D01*
X136429428Y-101529036D02*
X136619905Y-101695703D01*
X136619905Y-101695703D02*
X136810381Y-102029036D01*
X136810381Y-102029036D02*
X136810381Y-102529036D01*
X136810381Y-102529036D02*
X136619905Y-102862369D01*
X136619905Y-102862369D02*
X136429428Y-103029036D01*
X136429428Y-103029036D02*
X136048476Y-103195703D01*
X136048476Y-103195703D02*
X134524666Y-103195703D01*
X138524666Y-104862369D02*
X138524666Y-101362369D01*
X138524666Y-101362369D02*
X139477047Y-101362369D01*
X139477047Y-101362369D02*
X140048476Y-101529036D01*
X140048476Y-101529036D02*
X140429428Y-101862369D01*
X140429428Y-101862369D02*
X140619905Y-102195703D01*
X140619905Y-102195703D02*
X140810381Y-102862369D01*
X140810381Y-102862369D02*
X140810381Y-103362369D01*
X140810381Y-103362369D02*
X140619905Y-104029036D01*
X140619905Y-104029036D02*
X140429428Y-104362369D01*
X140429428Y-104362369D02*
X140048476Y-104695703D01*
X140048476Y-104695703D02*
X139477047Y-104862369D01*
X139477047Y-104862369D02*
X138524666Y-104862369D01*
D14*
D15*
X161572428Y-51131273D02*
X160977190Y-51131273D01*
X160977190Y-51131273D02*
X160917666Y-51726511D01*
X160917666Y-51726511D02*
X160977190Y-51666988D01*
X160977190Y-51666988D02*
X161096237Y-51607464D01*
X161096237Y-51607464D02*
X161393856Y-51607464D01*
X161393856Y-51607464D02*
X161512904Y-51666988D01*
X161512904Y-51666988D02*
X161572428Y-51726511D01*
X161572428Y-51726511D02*
X161631951Y-51845559D01*
X161631951Y-51845559D02*
X161631951Y-52143178D01*
X161631951Y-52143178D02*
X161572428Y-52262226D01*
X161572428Y-52262226D02*
X161512904Y-52321750D01*
X161512904Y-52321750D02*
X161393856Y-52381273D01*
X161393856Y-52381273D02*
X161096237Y-52381273D01*
X161096237Y-52381273D02*
X160977190Y-52321750D01*
X160977190Y-52321750D02*
X160917666Y-52262226D01*
X161989094Y-51131273D02*
X162405761Y-52381273D01*
X162405761Y-52381273D02*
X162822427Y-51131273D01*
X171096238Y-51131273D02*
X171215285Y-51131273D01*
X171215285Y-51131273D02*
X171334333Y-51190797D01*
X171334333Y-51190797D02*
X171393857Y-51250321D01*
X171393857Y-51250321D02*
X171453381Y-51369369D01*
X171453381Y-51369369D02*
X171512904Y-51607464D01*
X171512904Y-51607464D02*
X171512904Y-51905083D01*
X171512904Y-51905083D02*
X171453381Y-52143178D01*
X171453381Y-52143178D02*
X171393857Y-52262226D01*
X171393857Y-52262226D02*
X171334333Y-52321750D01*
X171334333Y-52321750D02*
X171215285Y-52381273D01*
X171215285Y-52381273D02*
X171096238Y-52381273D01*
X171096238Y-52381273D02*
X170977190Y-52321750D01*
X170977190Y-52321750D02*
X170917666Y-52262226D01*
X170917666Y-52262226D02*
X170858143Y-52143178D01*
X170858143Y-52143178D02*
X170798619Y-51905083D01*
X170798619Y-51905083D02*
X170798619Y-51607464D01*
X170798619Y-51607464D02*
X170858143Y-51369369D01*
X170858143Y-51369369D02*
X170917666Y-51250321D01*
X170917666Y-51250321D02*
X170977190Y-51190797D01*
X170977190Y-51190797D02*
X171096238Y-51131273D01*
X171870047Y-51131273D02*
X172286714Y-52381273D01*
X172286714Y-52381273D02*
X172703380Y-51131273D01*
D16*
%TO.P,J1,a1,Vin*%
%TO.N,+9V*%
X196342000Y-54483000D03*
D17*
%TO.P,J1,a2,-12V*%
%TO.N,unconnected-(J1--12V-Pada2)*%
X196342000Y-57023000D03*
%TO.P,J1,a3,+12V*%
%TO.N,unconnected-(J1-+12V-Pada3)*%
X196342000Y-59563000D03*
%TO.P,J1,a4,SP0*%
%TO.N,/SP0*%
X196342000Y-62103000D03*
%TO.P,J1,a5,SP1*%
%TO.N,/SP1*%
X196342000Y-64643000D03*
%TO.P,J1,a6,~{DSMC}*%
%TO.N,/DSMC*%
X196342000Y-67183000D03*
%TO.P,J1,a7,SP2*%
%TO.N,/SP2*%
X196342000Y-69723000D03*
%TO.P,J1,a8,~{DBG}*%
%TO.N,unconnected-(J1-~{DBG}-Pada8)*%
X196342000Y-72263000D03*
%TO.P,J1,a9,A3*%
%TO.N,/A3*%
X196342000Y-74803000D03*
%TO.P,J1,a10,A4*%
%TO.N,/A4*%
X196342000Y-77343000D03*
%TO.P,J1,a11,A5*%
%TO.N,/A5*%
X196342000Y-79883000D03*
%TO.P,J1,a12,A6*%
%TO.N,/A6*%
X196342000Y-82423000D03*
%TO.P,J1,a13,A7*%
%TO.N,/A7*%
X196342000Y-84963000D03*
%TO.P,J1,a14,A8*%
%TO.N,/A8*%
X196342000Y-87503000D03*
%TO.P,J1,a15,A9*%
%TO.N,/A9*%
X196342000Y-90043000D03*
%TO.P,J1,a16,A10*%
%TO.N,/A10*%
X196342000Y-92583000D03*
%TO.P,J1,a17,A11*%
%TO.N,/A11*%
X196342000Y-95123000D03*
%TO.P,J1,a18,A12*%
%TO.N,/A12*%
X196342000Y-97663000D03*
%TO.P,J1,a19,A13*%
%TO.N,/A13*%
X196342000Y-100203000D03*
%TO.P,J1,a20,A14*%
%TO.N,/A14*%
X196342000Y-102743000D03*
%TO.P,J1,a21,RED*%
%TO.N,unconnected-(J1-RED-Pada21)*%
X196342000Y-105283000D03*
%TO.P,J1,a22,CLKCPU*%
%TO.N,unconnected-(J1-CLKCPU-Pada22)*%
X196342000Y-107823000D03*
%TO.P,J1,a23,A16*%
%TO.N,/A16*%
X196342000Y-110363000D03*
%TO.P,J1,a24,A17*%
%TO.N,/A17*%
X196342000Y-112903000D03*
%TO.P,J1,a25,A18*%
%TO.N,/A18*%
X196342000Y-115443000D03*
%TO.P,J1,a26,A19*%
%TO.N,/A19*%
X196342000Y-117983000D03*
%TO.P,J1,a27,D7*%
%TO.N,/D7*%
X196342000Y-120523000D03*
%TO.P,J1,a28,D6*%
%TO.N,/D6*%
X196342000Y-123063000D03*
%TO.P,J1,a29,D5*%
%TO.N,/D5*%
X196342000Y-125603000D03*
%TO.P,J1,a30,D4*%
%TO.N,/D4*%
X196342000Y-128143000D03*
%TO.P,J1,a31,D3*%
%TO.N,/D3*%
X196342000Y-130683000D03*
%TO.P,J1,a32,GND*%
%TO.N,GND*%
X196342000Y-133223000D03*
%TO.P,J1,b1,Vin*%
%TO.N,+9V*%
X193802000Y-54483000D03*
%TO.P,J1,b2,Vin*%
X193802000Y-57023000D03*
%TO.P,J1,b3,~{EXTINT}*%
%TO.N,/EXTINTL*%
X193802000Y-59563000D03*
%TO.P,J1,b4,~{IPL1}*%
%TO.N,unconnected-(J1-~{IPL1}-Padb4)*%
X193802000Y-62103000D03*
%TO.P,J1,b5,~{BERR}*%
%TO.N,unconnected-(J1-~{BERR}-Padb5)*%
X193802000Y-64643000D03*
%TO.P,J1,b6,~{IPLO}*%
%TO.N,unconnected-(J1-~{IPLO}-Padb6)*%
X193802000Y-67183000D03*
%TO.P,J1,b7,SP3*%
%TO.N,/SP3*%
X193802000Y-69723000D03*
%TO.P,J1,b8,A2*%
%TO.N,/A2*%
X193802000Y-72263000D03*
%TO.P,J1,b9,G9*%
%TO.N,/A1*%
X193802000Y-74803000D03*
%TO.P,J1,b10,ROMOEH*%
%TO.N,unconnected-(J1-ROMOEH-Padb10)*%
X193802000Y-77343000D03*
%TO.P,J1,b11,A0*%
%TO.N,/A0*%
X193802000Y-79883000D03*
%TO.P,J1,b12,FC0*%
%TO.N,unconnected-(J1-FC0-Padb12)*%
X193802000Y-82423000D03*
%TO.P,J1,b13,FC1*%
%TO.N,unconnected-(J1-FC1-Padb13)*%
X193802000Y-84963000D03*
%TO.P,J1,b14,FC2*%
%TO.N,unconnected-(J1-FC2-Padb14)*%
X193802000Y-87503000D03*
%TO.P,J1,b15,BLUE*%
%TO.N,unconnected-(J1-BLUE-Padb15)*%
X193802000Y-90043000D03*
%TO.P,J1,b16,GREEN*%
%TO.N,unconnected-(J1-GREEN-Padb16)*%
X193802000Y-92583000D03*
%TO.P,J1,b17,~{VPA}*%
%TO.N,/VPA*%
X193802000Y-95123000D03*
%TO.P,J1,b18,VSYNCH*%
%TO.N,unconnected-(J1-VSYNCH-Padb18)*%
X193802000Y-97663000D03*
%TO.P,J1,b19,E*%
%TO.N,/E*%
X193802000Y-100203000D03*
%TO.P,J1,b20,~{CSYNC}*%
%TO.N,unconnected-(J1-~{CSYNC}-Padb20)*%
X193802000Y-102743000D03*
%TO.P,J1,b21,~{RESETCPU}*%
%TO.N,/RESET*%
X193802000Y-105283000D03*
%TO.P,J1,b22,A15*%
%TO.N,/A15*%
X193802000Y-107823000D03*
%TO.P,J1,b23,~{BR}*%
%TO.N,unconnected-(J1-~{BR}-Padb23)*%
X193802000Y-110363000D03*
%TO.P,J1,b24,~{BG}*%
%TO.N,unconnected-(J1-~{BG}-Padb24)*%
X193802000Y-112903000D03*
%TO.P,J1,b25,~{DTACK}*%
%TO.N,/DTACKL*%
X193802000Y-115443000D03*
%TO.P,J1,b26,~{DRW}*%
%TO.N,/RW*%
X193802000Y-117983000D03*
%TO.P,J1,b27,~{DS}*%
%TO.N,/DS*%
X193802000Y-120523000D03*
%TO.P,J1,b28,~{AS}*%
%TO.N,unconnected-(J1-~{AS}-Padb28)*%
X193802000Y-123063000D03*
%TO.P,J1,b29,D0*%
%TO.N,/D0*%
X193802000Y-125603000D03*
%TO.P,J1,b30,D1*%
%TO.N,/D1*%
X193802000Y-128143000D03*
%TO.P,J1,b31,D2*%
%TO.N,/D2*%
X193802000Y-130683000D03*
%TO.P,J1,b32,GND*%
%TO.N,GND*%
X193802000Y-133223000D03*
%TD*%
D18*
%TO.P,U18,1,VI*%
%TO.N,+9V*%
X45466000Y-64793000D03*
D19*
%TO.P,U18,2,GND*%
%TO.N,GND*%
X48006000Y-64793000D03*
%TO.P,U18,3,VO*%
%TO.N,+5V*%
X50546000Y-64793000D03*
%TD*%
D20*
%TO.P,U6,1,S*%
%TO.N,/MUX*%
X168402000Y-87503000D03*
D21*
%TO.P,U6,2,I0a*%
%TO.N,/A7*%
X168402000Y-84963000D03*
%TO.P,U6,3,I1a*%
%TO.N,/A5*%
X168402000Y-82423000D03*
%TO.P,U6,4,Za*%
%TO.N,/MA2*%
X168402000Y-79883000D03*
%TO.P,U6,5,I0b*%
%TO.N,/A6*%
X168402000Y-77343000D03*
%TO.P,U6,6,I1b*%
%TO.N,/A4*%
X168402000Y-74803000D03*
%TO.P,U6,7,Zb*%
%TO.N,/MA3*%
X168402000Y-72263000D03*
%TO.P,U6,8,GND*%
%TO.N,GND*%
X168402000Y-69723000D03*
%TO.P,U6,9,Zc*%
%TO.N,/MA4*%
X160782000Y-69723000D03*
%TO.P,U6,10,I1c*%
%TO.N,/A2*%
X160782000Y-72263000D03*
%TO.P,U6,11,I0c*%
%TO.N,/A3*%
X160782000Y-74803000D03*
%TO.P,U6,12,Zd*%
%TO.N,/MA5*%
X160782000Y-77343000D03*
%TO.P,U6,13,I1d*%
%TO.N,/A1*%
X160782000Y-79883000D03*
%TO.P,U6,14,I0d*%
%TO.N,/A0*%
X160782000Y-82423000D03*
%TO.P,U6,15,E*%
%TO.N,GND*%
X160782000Y-84963000D03*
%TO.P,U6,16,VCC*%
%TO.N,+5V*%
X160782000Y-87503000D03*
%TD*%
D22*
%TO.P,C3,1*%
%TO.N,Net-(D5-A)*%
X173910000Y-115951000D03*
%TO.P,C3,2*%
%TO.N,GND*%
X168910000Y-115951000D03*
%TD*%
%TO.P,C15,1*%
%TO.N,+9V*%
X40894000Y-59793000D03*
%TO.P,C15,2*%
%TO.N,GND*%
X40894000Y-64793000D03*
%TD*%
D23*
%TO.P,C25,1*%
%TO.N,+5V*%
X148982500Y-54483000D03*
D24*
%TO.P,C25,2*%
%TO.N,GND*%
X148982500Y-72483000D03*
%TD*%
D20*
%TO.P,U10,1,D0*%
%TO.N,/D4*%
X104257000Y-77338000D03*
D21*
%TO.P,U10,2,D1*%
%TO.N,/D5*%
X104257000Y-74798000D03*
%TO.P,U10,3,~{WR}*%
%TO.N,/RW*%
X104257000Y-72258000D03*
%TO.P,U10,4,~{RAS}*%
%TO.N,/RAS1*%
X104257000Y-69718000D03*
%TO.P,U10,5,N.C.*%
%TO.N,unconnected-(U10-N.C.-Pad5)*%
X104257000Y-67178000D03*
%TO.P,U10,6,A0*%
%TO.N,/MA0*%
X104257000Y-64638000D03*
%TO.P,U10,7,A1*%
%TO.N,/MA1*%
X104257000Y-62098000D03*
%TO.P,U10,8,A2*%
%TO.N,/MA2*%
X104257000Y-59558000D03*
%TO.P,U10,9,A3*%
%TO.N,/MA3*%
X104257000Y-57018000D03*
%TO.P,U10,10,VCC*%
%TO.N,+5V*%
X104257000Y-54478000D03*
%TO.P,U10,11,A4*%
%TO.N,/MA4*%
X96637000Y-54478000D03*
%TO.P,U10,12,A5*%
%TO.N,/MA5*%
X96637000Y-57018000D03*
%TO.P,U10,13,A6*%
%TO.N,/MA6*%
X96637000Y-59558000D03*
%TO.P,U10,14,A7*%
%TO.N,/MA7*%
X96637000Y-62098000D03*
%TO.P,U10,15,A8*%
%TO.N,/MA8*%
X96637000Y-64638000D03*
%TO.P,U10,16,~{OE}*%
%TO.N,GND*%
X96637000Y-67178000D03*
%TO.P,U10,17,~{CAS}*%
%TO.N,/CAS*%
X96637000Y-69718000D03*
%TO.P,U10,18,D2*%
%TO.N,/D6*%
X96637000Y-72258000D03*
%TO.P,U10,19,D3*%
%TO.N,/D7*%
X96637000Y-74798000D03*
%TO.P,U10,20,GND*%
%TO.N,GND*%
X96637000Y-77338000D03*
%TD*%
D22*
%TO.P,R4,1*%
%TO.N,/GAL2_P11*%
X142494000Y-121031000D03*
D21*
%TO.P,R4,2*%
%TO.N,GND*%
X152654000Y-121031000D03*
%TD*%
D20*
%TO.P,U2,1,I1/CLK*%
%TO.N,Net-(U1-IO7)*%
X182118000Y-105283000D03*
D21*
%TO.P,U2,2,I2*%
%TO.N,/A19*%
X182118000Y-102743000D03*
%TO.P,U2,3,I3*%
%TO.N,/A18*%
X182118000Y-100203000D03*
%TO.P,U2,4,I4*%
%TO.N,/A17*%
X182118000Y-97663000D03*
%TO.P,U2,5,I5*%
%TO.N,/DS*%
X182118000Y-95123000D03*
%TO.P,U2,6,I6*%
%TO.N,Net-(U2-I6)*%
X182118000Y-92583000D03*
%TO.P,U2,7,I7*%
%TO.N,Net-(U2-I7)*%
X182118000Y-90043000D03*
%TO.P,U2,8,I8*%
%TO.N,Net-(U2-I8)*%
X182118000Y-87503000D03*
%TO.P,U2,9,I9*%
%TO.N,/GAL2_P9*%
X182118000Y-84963000D03*
%TO.P,U2,10,GND*%
%TO.N,GND*%
X182118000Y-82423000D03*
%TO.P,U2,11,I10/~{OE}*%
%TO.N,/GAL2_P11*%
X174498000Y-82423000D03*
%TO.P,U2,12,IO8*%
%TO.N,/CAS*%
X174498000Y-84963000D03*
%TO.P,U2,13,IO7*%
%TO.N,/MUX*%
X174498000Y-87503000D03*
%TO.P,U2,14,IO6*%
%TO.N,Net-(D3-K)*%
X174498000Y-90043000D03*
%TO.P,U2,15,IO5*%
%TO.N,/GAL2_P15*%
X174498000Y-92583000D03*
%TO.P,U2,16,IO4*%
%TO.N,Net-(D2-K)*%
X174498000Y-95123000D03*
%TO.P,U2,17,I03*%
%TO.N,/RAS2*%
X174498000Y-97663000D03*
%TO.P,U2,18,IO2*%
%TO.N,/RAS1*%
X174498000Y-100203000D03*
%TO.P,U2,19,IO1*%
%TO.N,/RAS0*%
X174498000Y-102743000D03*
%TO.P,U2,20,VCC*%
%TO.N,+5V*%
X174498000Y-105283000D03*
%TD*%
D20*
%TO.P,U7,1,D0*%
%TO.N,/D0*%
X143510000Y-77343000D03*
D21*
%TO.P,U7,2,D1*%
%TO.N,/D1*%
X143510000Y-74803000D03*
%TO.P,U7,3,~{WR}*%
%TO.N,/RW*%
X143510000Y-72263000D03*
%TO.P,U7,4,~{RAS}*%
%TO.N,/RAS2*%
X143510000Y-69723000D03*
%TO.P,U7,5,N.C.*%
%TO.N,unconnected-(U7-N.C.-Pad5)*%
X143510000Y-67183000D03*
%TO.P,U7,6,A0*%
%TO.N,/MA0*%
X143510000Y-64643000D03*
%TO.P,U7,7,A1*%
%TO.N,/MA1*%
X143510000Y-62103000D03*
%TO.P,U7,8,A2*%
%TO.N,/MA2*%
X143510000Y-59563000D03*
%TO.P,U7,9,A3*%
%TO.N,/MA3*%
X143510000Y-57023000D03*
%TO.P,U7,10,VCC*%
%TO.N,+5V*%
X143510000Y-54483000D03*
%TO.P,U7,11,A4*%
%TO.N,/MA4*%
X135890000Y-54483000D03*
%TO.P,U7,12,A5*%
%TO.N,/MA5*%
X135890000Y-57023000D03*
%TO.P,U7,13,A6*%
%TO.N,/MA6*%
X135890000Y-59563000D03*
%TO.P,U7,14,A7*%
%TO.N,/MA7*%
X135890000Y-62103000D03*
%TO.P,U7,15,A8*%
%TO.N,/MA8*%
X135890000Y-64643000D03*
%TO.P,U7,16,~{OE}*%
%TO.N,GND*%
X135890000Y-67183000D03*
%TO.P,U7,17,~{CAS}*%
%TO.N,/CAS*%
X135890000Y-69723000D03*
%TO.P,U7,18,D2*%
%TO.N,/D2*%
X135890000Y-72263000D03*
%TO.P,U7,19,D3*%
%TO.N,/D3*%
X135890000Y-74803000D03*
%TO.P,U7,20,GND*%
%TO.N,GND*%
X135890000Y-77343000D03*
%TD*%
D20*
%TO.P,U14,1,VPP*%
%TO.N,+5V*%
X137287000Y-120523000D03*
D21*
%TO.P,U14,2,A12*%
%TO.N,/A12*%
X134747000Y-120523000D03*
%TO.P,U14,3,A7*%
%TO.N,/A7*%
X132207000Y-120523000D03*
%TO.P,U14,4,A6*%
%TO.N,/A6*%
X129667000Y-120523000D03*
%TO.P,U14,5,A5*%
%TO.N,/A5*%
X127127000Y-120523000D03*
%TO.P,U14,6,A4*%
%TO.N,/A4*%
X124587000Y-120523000D03*
%TO.P,U14,7,A3*%
%TO.N,/A3*%
X122047000Y-120523000D03*
%TO.P,U14,8,A2*%
%TO.N,/A2*%
X119507000Y-120523000D03*
%TO.P,U14,9,A1*%
%TO.N,/A1*%
X116967000Y-120523000D03*
%TO.P,U14,10,A0*%
%TO.N,/A0*%
X114427000Y-120523000D03*
%TO.P,U14,11,D0*%
%TO.N,/D0*%
X111887000Y-120523000D03*
%TO.P,U14,12,D1*%
%TO.N,/D1*%
X109347000Y-120523000D03*
%TO.P,U14,13,D2*%
%TO.N,/D2*%
X106807000Y-120523000D03*
%TO.P,U14,14,GND*%
%TO.N,GND*%
X104267000Y-120523000D03*
%TO.P,U14,15,D3*%
%TO.N,/D3*%
X104267000Y-135763000D03*
%TO.P,U14,16,D4*%
%TO.N,/D4*%
X106807000Y-135763000D03*
%TO.P,U14,17,D5*%
%TO.N,/D5*%
X109347000Y-135763000D03*
%TO.P,U14,18,D6*%
%TO.N,/D6*%
X111887000Y-135763000D03*
%TO.P,U14,19,D7*%
%TO.N,/D7*%
X114427000Y-135763000D03*
%TO.P,U14,20,~{CE}*%
%TO.N,/ROM_CE*%
X116967000Y-135763000D03*
%TO.P,U14,21,A10*%
%TO.N,/A10*%
X119507000Y-135763000D03*
%TO.P,U14,22,~{OE}*%
%TO.N,/ROM_OE*%
X122047000Y-135763000D03*
%TO.P,U14,23,A11*%
%TO.N,/A11*%
X124587000Y-135763000D03*
%TO.P,U14,24,A9*%
%TO.N,/A9*%
X127127000Y-135763000D03*
%TO.P,U14,25,A8*%
%TO.N,/A8*%
X129667000Y-135763000D03*
%TO.P,U14,26,A13*%
%TO.N,/A13*%
X132207000Y-135763000D03*
%TO.P,U14,27,A14*%
%TO.N,/A14*%
X134747000Y-135763000D03*
%TO.P,U14,28,VCC*%
%TO.N,+5V*%
X137287000Y-135763000D03*
%TD*%
D20*
%TO.P,D8,1,K*%
%TO.N,/ROM_CE*%
X165354000Y-136271000D03*
D21*
%TO.P,D8,2,A*%
%TO.N,/DTACKL*%
X175514000Y-136271000D03*
%TD*%
D25*
%TO.P,Y1,1,1*%
%TO.N,/CLK*%
X142494000Y-131191000D03*
%TO.P,Y1,2,2*%
%TO.N,Net-(R6-Pad1)*%
X147394000Y-131191000D03*
%TD*%
D20*
%TO.P,D10,1,K*%
%TO.N,/CLKCT*%
X152654000Y-133731000D03*
D21*
%TO.P,D10,2,A*%
%TO.N,Net-(D10-A)*%
X162814000Y-133731000D03*
%TD*%
D26*
%TO.P,J2,1,Pin_1*%
%TO.N,GND*%
X52070000Y-114427000D03*
D27*
%TO.P,J2,2,Pin_2*%
%TO.N,unconnected-(J2-Pin_2-Pad2)*%
X49530000Y-114427000D03*
%TO.P,J2,3,Pin_3*%
%TO.N,GND*%
X52070000Y-111887000D03*
%TO.P,J2,4,Pin_4*%
%TO.N,unconnected-(J2-Pin_4-Pad4)*%
X49530000Y-111887000D03*
%TO.P,J2,5,Pin_5*%
%TO.N,GND*%
X52070000Y-109347000D03*
%TO.P,J2,6,Pin_6*%
%TO.N,/DS3*%
X49530000Y-109347000D03*
%TO.P,J2,7,Pin_7*%
%TO.N,GND*%
X52070000Y-106807000D03*
%TO.P,J2,8,Pin_8*%
%TO.N,/FDC_IP*%
X49530000Y-106807000D03*
%TO.P,J2,9,Pin_9*%
%TO.N,GND*%
X52070000Y-104267000D03*
%TO.P,J2,10,Pin_10*%
%TO.N,/DS0*%
X49530000Y-104267000D03*
%TO.P,J2,11,Pin_11*%
%TO.N,GND*%
X52070000Y-101727000D03*
%TO.P,J2,12,Pin_12*%
%TO.N,/DS1*%
X49530000Y-101727000D03*
%TO.P,J2,13,Pin_13*%
%TO.N,GND*%
X52070000Y-99187000D03*
%TO.P,J2,14,Pin_14*%
%TO.N,/DS2*%
X49530000Y-99187000D03*
%TO.P,J2,15,Pin_15*%
%TO.N,GND*%
X52070000Y-96647000D03*
%TO.P,J2,16,Pin_16*%
%TO.N,/MOTOR_ON*%
X49530000Y-96647000D03*
%TO.P,J2,17,Pin_17*%
%TO.N,GND*%
X52070000Y-94107000D03*
%TO.P,J2,18,Pin_18*%
%TO.N,/DIR*%
X49530000Y-94107000D03*
%TO.P,J2,19,Pin_19*%
%TO.N,GND*%
X52070000Y-91567000D03*
%TO.P,J2,20,Pin_20*%
%TO.N,/STEP*%
X49530000Y-91567000D03*
%TO.P,J2,21,Pin_21*%
%TO.N,GND*%
X52070000Y-89027000D03*
%TO.P,J2,22,Pin_22*%
%TO.N,/DATA_WR*%
X49530000Y-89027000D03*
%TO.P,J2,23,Pin_23*%
%TO.N,GND*%
X52070000Y-86487000D03*
%TO.P,J2,24,Pin_24*%
%TO.N,/GATE_WR*%
X49530000Y-86487000D03*
%TO.P,J2,25,Pin_25*%
%TO.N,GND*%
X52070000Y-83947000D03*
%TO.P,J2,26,Pin_26*%
%TO.N,/FDC_T0*%
X49530000Y-83947000D03*
%TO.P,J2,27,Pin_27*%
%TO.N,GND*%
X52070000Y-81407000D03*
%TO.P,J2,28,Pin_28*%
%TO.N,/FDC_WPRT*%
X49530000Y-81407000D03*
%TO.P,J2,29,Pin_29*%
%TO.N,GND*%
X52070000Y-78867000D03*
%TO.P,J2,30,Pin_30*%
%TO.N,/FDC_RD*%
X49530000Y-78867000D03*
%TO.P,J2,31,Pin_31*%
%TO.N,GND*%
X52070000Y-76327000D03*
%TO.P,J2,32,Pin_32*%
%TO.N,/HEAD*%
X49530000Y-76327000D03*
%TO.P,J2,33,Pin_33*%
%TO.N,GND*%
X52070000Y-73787000D03*
%TO.P,J2,34,Pin_34*%
%TO.N,unconnected-(J2-Pin_34-Pad34)*%
X49530000Y-73787000D03*
%TD*%
D22*
%TO.P,J3,1,Pin_1*%
%TO.N,GND*%
X168402000Y-53467000D03*
%TD*%
%TO.P,R3,1*%
%TO.N,+5V*%
X162814000Y-136271000D03*
D21*
%TO.P,R3,2*%
%TO.N,Net-(D10-A)*%
X152654000Y-136271000D03*
%TD*%
D22*
%TO.P,C13,1*%
%TO.N,+5V*%
X55118000Y-59643000D03*
%TO.P,C13,2*%
%TO.N,GND*%
X55118000Y-64643000D03*
%TD*%
%TO.P,C20,1*%
%TO.N,+5V*%
X101647000Y-82931000D03*
%TO.P,C20,2*%
%TO.N,GND*%
X96647000Y-82931000D03*
%TD*%
D20*
%TO.P,U13,1,~{CS}*%
%TO.N,/FDCON_CS*%
X89027000Y-120523000D03*
D21*
%TO.P,U13,2,R/~{W}*%
%TO.N,/RW*%
X86487000Y-120523000D03*
%TO.P,U13,3,A0*%
%TO.N,/A0*%
X83947000Y-120523000D03*
%TO.P,U13,4,A1*%
%TO.N,/A1*%
X81407000Y-120523000D03*
%TO.P,U13,5,DI0*%
%TO.N,/D0*%
X78867000Y-120523000D03*
%TO.P,U13,6,DI1*%
%TO.N,/D1*%
X76327000Y-120523000D03*
%TO.P,U13,7,DI2*%
%TO.N,/D2*%
X73787000Y-120523000D03*
%TO.P,U13,8,DI3*%
%TO.N,/D3*%
X71247000Y-120523000D03*
%TO.P,U13,9,DI4*%
%TO.N,/D4*%
X68707000Y-120523000D03*
%TO.P,U13,10,DI5*%
%TO.N,/D5*%
X66167000Y-120523000D03*
%TO.P,U13,11,DI6*%
%TO.N,/D6*%
X63627000Y-120523000D03*
%TO.P,U13,12,DI7*%
%TO.N,/D7*%
X61087000Y-120523000D03*
%TO.P,U13,13,~{MR}*%
%TO.N,/RESET*%
X58547000Y-120523000D03*
%TO.P,U13,14,GND*%
%TO.N,GND*%
X56007000Y-120523000D03*
%TO.P,U13,15,VCC*%
%TO.N,+5V*%
X56007000Y-135763000D03*
%TO.P,U13,16,STEP*%
%TO.N,/FDC_STEP*%
X58547000Y-135763000D03*
%TO.P,U13,17,DIRC*%
%TO.N,/FDC_DIR*%
X61087000Y-135763000D03*
%TO.P,U13,18,CLK*%
%TO.N,/CLK*%
X63627000Y-135763000D03*
%TO.P,U13,19,~{RD}*%
%TO.N,/FDC_RD*%
X66167000Y-135763000D03*
%TO.P,U13,20,MOTOR*%
%TO.N,unconnected-(U13-MOTOR-Pad20)*%
X68707000Y-135763000D03*
%TO.P,U13,21,WG*%
%TO.N,/FDC_WG*%
X71247000Y-135763000D03*
%TO.P,U13,22,WD*%
%TO.N,/FDC_WD*%
X73787000Y-135763000D03*
%TO.P,U13,23,~{TR00}*%
%TO.N,/FDC_T0*%
X76327000Y-135763000D03*
%TO.P,U13,24,~{IP}*%
%TO.N,/FDC_IP*%
X78867000Y-135763000D03*
%TO.P,U13,25,~{WPRT}*%
%TO.N,/FDC_WPRT*%
X81407000Y-135763000D03*
%TO.P,U13,26,~{DDEN}*%
%TO.N,GND*%
X83947000Y-135763000D03*
%TO.P,U13,27,DRQ*%
%TO.N,unconnected-(U13-DRQ-Pad27)*%
X86487000Y-135763000D03*
%TO.P,U13,28,INTRQ*%
%TO.N,unconnected-(U13-INTRQ-Pad28)*%
X89027000Y-135763000D03*
%TD*%
D22*
%TO.P,C17,1*%
%TO.N,+5V*%
X140890000Y-82931000D03*
%TO.P,C17,2*%
%TO.N,GND*%
X135890000Y-82931000D03*
%TD*%
%TO.P,C12,1*%
%TO.N,+5V*%
X99227000Y-113411000D03*
%TO.P,C12,2*%
%TO.N,GND*%
X104227000Y-113411000D03*
%TD*%
%TO.P,J5,1,Pin_1*%
%TO.N,+5V*%
X161798000Y-53467000D03*
%TD*%
D20*
%TO.P,D2,1,K*%
%TO.N,Net-(D2-K)*%
X178054000Y-69723000D03*
D21*
%TO.P,D2,2,A*%
%TO.N,/DTACKL*%
X188214000Y-69723000D03*
%TD*%
D22*
%TO.P,R6,1*%
%TO.N,Net-(R6-Pad1)*%
X142494000Y-126111000D03*
D21*
%TO.P,R6,2*%
%TO.N,Net-(R5-Pad1)*%
X152654000Y-126111000D03*
%TD*%
D23*
%TO.P,C16,1*%
%TO.N,+5V*%
X64885500Y-51723000D03*
D24*
%TO.P,C16,2*%
%TO.N,GND*%
X64885500Y-69723000D03*
%TD*%
D22*
%TO.P,J4,1,Pin_1*%
%TO.N,GND*%
X171958000Y-53467000D03*
%TD*%
D20*
%TO.P,U1,1,I1/CLK*%
%TO.N,/DS*%
X185674000Y-133731000D03*
D21*
%TO.P,U1,2,I2*%
%TO.N,/A19*%
X185674000Y-131191000D03*
%TO.P,U1,3,I3*%
%TO.N,/A18*%
X185674000Y-128651000D03*
%TO.P,U1,4,I4*%
%TO.N,/A17*%
X185674000Y-126111000D03*
%TO.P,U1,5,I5*%
%TO.N,/A16*%
X185674000Y-123571000D03*
%TO.P,U1,6,I6*%
%TO.N,/A15*%
X185674000Y-121031000D03*
%TO.P,U1,7,I7*%
%TO.N,/RESET*%
X185674000Y-118491000D03*
%TO.P,U1,8,I8*%
%TO.N,/A14*%
X185674000Y-115951000D03*
%TO.P,U1,9,I9*%
%TO.N,/A13*%
X185674000Y-113411000D03*
%TO.P,U1,10,GND*%
%TO.N,GND*%
X185674000Y-110871000D03*
%TO.P,U1,11,I10/~{OE}*%
%TO.N,/MUX*%
X178054000Y-110871000D03*
%TO.P,U1,12,IO8*%
%TO.N,Net-(D1-A)*%
X178054000Y-113411000D03*
%TO.P,U1,13,IO7*%
%TO.N,Net-(U1-IO7)*%
X178054000Y-115951000D03*
%TO.P,U1,14,IO6*%
%TO.N,/CLKCT*%
X178054000Y-118491000D03*
%TO.P,U1,15,IO5*%
%TO.N,/MA8*%
X178054000Y-121031000D03*
%TO.P,U1,16,IO4*%
%TO.N,unconnected-(U1-IO4-Pad16)*%
X178054000Y-123571000D03*
%TO.P,U1,17,I03*%
%TO.N,/FDCON_CS*%
X178054000Y-126111000D03*
%TO.P,U1,18,IO2*%
%TO.N,/CS175*%
X178054000Y-128651000D03*
%TO.P,U1,19,IO1*%
%TO.N,/ROM_CE*%
X178054000Y-131191000D03*
%TO.P,U1,20,VCC*%
%TO.N,+5V*%
X178054000Y-133731000D03*
%TD*%
D20*
%TO.P,U8,1,D0*%
%TO.N,/D4*%
X132842000Y-77338000D03*
D21*
%TO.P,U8,2,D1*%
%TO.N,/D5*%
X132842000Y-74798000D03*
%TO.P,U8,3,~{WR}*%
%TO.N,/RW*%
X132842000Y-72258000D03*
%TO.P,U8,4,~{RAS}*%
%TO.N,/RAS2*%
X132842000Y-69718000D03*
%TO.P,U8,5,N.C.*%
%TO.N,unconnected-(U8-N.C.-Pad5)*%
X132842000Y-67178000D03*
%TO.P,U8,6,A0*%
%TO.N,/MA0*%
X132842000Y-64638000D03*
%TO.P,U8,7,A1*%
%TO.N,/MA1*%
X132842000Y-62098000D03*
%TO.P,U8,8,A2*%
%TO.N,/MA2*%
X132842000Y-59558000D03*
%TO.P,U8,9,A3*%
%TO.N,/MA3*%
X132842000Y-57018000D03*
%TO.P,U8,10,VCC*%
%TO.N,+5V*%
X132842000Y-54478000D03*
%TO.P,U8,11,A4*%
%TO.N,/MA4*%
X125222000Y-54478000D03*
%TO.P,U8,12,A5*%
%TO.N,/MA5*%
X125222000Y-57018000D03*
%TO.P,U8,13,A6*%
%TO.N,/MA6*%
X125222000Y-59558000D03*
%TO.P,U8,14,A7*%
%TO.N,/MA7*%
X125222000Y-62098000D03*
%TO.P,U8,15,A8*%
%TO.N,/MA8*%
X125222000Y-64638000D03*
%TO.P,U8,16,~{OE}*%
%TO.N,GND*%
X125222000Y-67178000D03*
%TO.P,U8,17,~{CAS}*%
%TO.N,/CAS*%
X125222000Y-69718000D03*
%TO.P,U8,18,D2*%
%TO.N,/D6*%
X125222000Y-72258000D03*
%TO.P,U8,19,D3*%
%TO.N,/D7*%
X125222000Y-74798000D03*
%TO.P,U8,20,GND*%
%TO.N,GND*%
X125222000Y-77338000D03*
%TD*%
D20*
%TO.P,D1,1,K*%
%TO.N,/DSMC*%
X161798000Y-62103000D03*
D21*
%TO.P,D1,2,A*%
%TO.N,Net-(D1-A)*%
X171958000Y-62103000D03*
%TD*%
D22*
%TO.P,C21,1*%
%TO.N,GND*%
X80010000Y-82931000D03*
%TO.P,C21,2*%
%TO.N,+5V*%
X85010000Y-82931000D03*
%TD*%
D20*
%TO.P,D7,1,K*%
%TO.N,/CS175*%
X165354000Y-133731000D03*
D21*
%TO.P,D7,2,A*%
%TO.N,/DTACKL*%
X175514000Y-133731000D03*
%TD*%
D23*
%TO.P,C23,1*%
%TO.N,+5V*%
X92086500Y-54483000D03*
D24*
%TO.P,C23,2*%
%TO.N,GND*%
X92086500Y-72483000D03*
%TD*%
D20*
%TO.P,U16,1,~{Mr}*%
%TO.N,/RESET*%
X76962000Y-110363000D03*
D21*
%TO.P,U16,2,Q0*%
%TO.N,unconnected-(U16-Q0-Pad2)*%
X76962000Y-107823000D03*
%TO.P,U16,3,~{Q0}*%
%TO.N,/DS3*%
X76962000Y-105283000D03*
%TO.P,U16,4,D0*%
%TO.N,/D4*%
X76962000Y-102743000D03*
%TO.P,U16,5,D1*%
%TO.N,/D5*%
X76962000Y-100203000D03*
%TO.P,U16,6,~{Q1}*%
%TO.N,/DS2*%
X76962000Y-97663000D03*
%TO.P,U16,7,Q1*%
%TO.N,unconnected-(U16-Q1-Pad7)*%
X76962000Y-95123000D03*
%TO.P,U16,8,GND*%
%TO.N,GND*%
X76962000Y-92583000D03*
%TO.P,U16,9,Cp*%
%TO.N,/CS175*%
X69342000Y-92583000D03*
%TO.P,U16,10,Q2*%
%TO.N,unconnected-(U16-Q2-Pad10)*%
X69342000Y-95123000D03*
%TO.P,U16,11,~{Q2}*%
%TO.N,unconnected-(U16-~{Q2}-Pad11)*%
X69342000Y-97663000D03*
%TO.P,U16,12,D2*%
%TO.N,/D7*%
X69342000Y-100203000D03*
%TO.P,U16,13,D3*%
%TO.N,/D6*%
X69342000Y-102743000D03*
%TO.P,U16,14,~{Q3}*%
%TO.N,unconnected-(U16-~{Q3}-Pad14)*%
X69342000Y-105283000D03*
%TO.P,U16,15,Q3*%
%TO.N,unconnected-(U16-Q3-Pad15)*%
X69342000Y-107823000D03*
%TO.P,U16,16,VCC*%
%TO.N,+5V*%
X69342000Y-110363000D03*
%TD*%
D20*
%TO.P,D5,1,K*%
%TO.N,/GAL2_P15*%
X165354000Y-121031000D03*
D21*
%TO.P,D5,2,A*%
%TO.N,Net-(D5-A)*%
X175514000Y-121031000D03*
%TD*%
D20*
%TO.P,U5,1,S*%
%TO.N,/MUX*%
X168402000Y-107823000D03*
D21*
%TO.P,U5,2,I0a*%
%TO.N,/A15*%
X168402000Y-105283000D03*
%TO.P,U5,3,I1a*%
%TO.N,/A13*%
X168402000Y-102743000D03*
%TO.P,U5,4,Za*%
%TO.N,/MA0*%
X168402000Y-100203000D03*
%TO.P,U5,5,I0b*%
%TO.N,/A11*%
X168402000Y-97663000D03*
%TO.P,U5,6,I1b*%
%TO.N,/A9*%
X168402000Y-95123000D03*
%TO.P,U5,7,Zb*%
%TO.N,/MA1*%
X168402000Y-92583000D03*
%TO.P,U5,8,GND*%
%TO.N,GND*%
X168402000Y-90043000D03*
%TO.P,U5,9,Zc*%
%TO.N,/MA6*%
X160782000Y-90043000D03*
%TO.P,U5,10,I1c*%
%TO.N,/A8*%
X160782000Y-92583000D03*
%TO.P,U5,11,I0c*%
%TO.N,/A10*%
X160782000Y-95123000D03*
%TO.P,U5,12,Zd*%
%TO.N,/MA7*%
X160782000Y-97663000D03*
%TO.P,U5,13,I1d*%
%TO.N,/A12*%
X160782000Y-100203000D03*
%TO.P,U5,14,I0d*%
%TO.N,/A14*%
X160782000Y-102743000D03*
%TO.P,U5,15,E*%
%TO.N,GND*%
X160782000Y-105283000D03*
%TO.P,U5,16,VCC*%
%TO.N,+5V*%
X160782000Y-107823000D03*
%TD*%
D20*
%TO.P,U17,1,~{Mr}*%
%TO.N,/RESET*%
X51562000Y-139573000D03*
D21*
%TO.P,U17,2,Q0*%
%TO.N,unconnected-(U17-Q0-Pad2)*%
X51562000Y-137033000D03*
%TO.P,U17,3,~{Q0}*%
%TO.N,/HEAD*%
X51562000Y-134493000D03*
%TO.P,U17,4,D0*%
%TO.N,/D3*%
X51562000Y-131953000D03*
%TO.P,U17,5,D1*%
%TO.N,/D0*%
X51562000Y-129413000D03*
%TO.P,U17,6,~{Q1}*%
%TO.N,/DS1*%
X51562000Y-126873000D03*
%TO.P,U17,7,Q1*%
%TO.N,unconnected-(U17-Q1-Pad7)*%
X51562000Y-124333000D03*
%TO.P,U17,8,GND*%
%TO.N,GND*%
X51562000Y-121793000D03*
%TO.P,U17,9,Cp*%
%TO.N,/CS175*%
X43942000Y-121793000D03*
%TO.P,U17,10,Q2*%
%TO.N,unconnected-(U17-Q2-Pad10)*%
X43942000Y-124333000D03*
%TO.P,U17,11,~{Q2}*%
%TO.N,/MOTOR_ON*%
X43942000Y-126873000D03*
%TO.P,U17,12,D2*%
%TO.N,/D2*%
X43942000Y-129413000D03*
%TO.P,U17,13,D3*%
%TO.N,/D1*%
X43942000Y-131953000D03*
%TO.P,U17,14,~{Q3}*%
%TO.N,/DS0*%
X43942000Y-134493000D03*
%TO.P,U17,15,Q3*%
%TO.N,unconnected-(U17-Q3-Pad15)*%
X43942000Y-137033000D03*
%TO.P,U17,16,VCC*%
%TO.N,+5V*%
X43942000Y-139573000D03*
%TD*%
D22*
%TO.P,R1,1*%
%TO.N,+5V*%
X165354000Y-118491000D03*
D21*
%TO.P,R1,2*%
%TO.N,Net-(D5-A)*%
X175514000Y-118491000D03*
%TD*%
D22*
%TO.P,C2,1*%
%TO.N,GND*%
X168990000Y-110871000D03*
%TO.P,C2,2*%
%TO.N,/GAL2_P11*%
X173990000Y-110871000D03*
%TD*%
%TO.P,R7,1*%
%TO.N,+5V*%
X59817000Y-100711000D03*
D21*
%TO.P,R7,2*%
%TO.N,/FDC_IP*%
X59817000Y-110871000D03*
%TD*%
D20*
%TO.P,D4,1,K*%
%TO.N,/GAL2_P11*%
X165354000Y-113411000D03*
D21*
%TO.P,D4,2,A*%
%TO.N,/GAL2_P9*%
X175514000Y-113411000D03*
%TD*%
D23*
%TO.P,C24,1*%
%TO.N,+5V*%
X120257500Y-54627000D03*
D24*
%TO.P,C24,2*%
%TO.N,GND*%
X120257500Y-72627000D03*
%TD*%
D22*
%TO.P,C18,1*%
%TO.N,+5V*%
X130222000Y-82931000D03*
%TO.P,C18,2*%
%TO.N,GND*%
X125222000Y-82931000D03*
%TD*%
D20*
%TO.P,D3,1,K*%
%TO.N,Net-(D3-K)*%
X178054000Y-72263000D03*
D21*
%TO.P,D3,2,A*%
%TO.N,/DTACKL*%
X188214000Y-72263000D03*
%TD*%
D22*
%TO.P,C19,1*%
%TO.N,GND*%
X107442000Y-82931000D03*
%TO.P,C19,2*%
%TO.N,+5V*%
X112442000Y-82931000D03*
%TD*%
D20*
%TO.P,U15,1*%
%TO.N,+5V*%
X100457000Y-135763000D03*
D21*
%TO.P,U15,2*%
%TO.N,unconnected-(U15-Pad2)*%
X100457000Y-133223000D03*
%TO.P,U15,3*%
%TO.N,/FDC_WG*%
X100457000Y-130683000D03*
%TO.P,U15,4*%
%TO.N,/GATE_WR*%
X100457000Y-128143000D03*
%TO.P,U15,5*%
%TO.N,/FDC_DIR*%
X100457000Y-125603000D03*
%TO.P,U15,6*%
%TO.N,/DIR*%
X100457000Y-123063000D03*
%TO.P,U15,7,GND*%
%TO.N,GND*%
X100457000Y-120523000D03*
%TO.P,U15,8*%
%TO.N,/STEP*%
X92837000Y-120523000D03*
%TO.P,U15,9*%
%TO.N,/FDC_STEP*%
X92837000Y-123063000D03*
%TO.P,U15,10*%
%TO.N,unconnected-(U15-Pad10)*%
X92837000Y-125603000D03*
%TO.P,U15,11*%
%TO.N,+5V*%
X92837000Y-128143000D03*
%TO.P,U15,12*%
%TO.N,/DATA_WR*%
X92837000Y-130683000D03*
%TO.P,U15,13*%
%TO.N,/FDC_WD*%
X92837000Y-133223000D03*
%TO.P,U15,14,VCC*%
%TO.N,+5V*%
X92837000Y-135763000D03*
%TD*%
D20*
%TO.P,U12,1,D0*%
%TO.N,/D4*%
X76962000Y-77343000D03*
D21*
%TO.P,U12,2,D1*%
%TO.N,/D5*%
X76962000Y-74803000D03*
%TO.P,U12,3,~{WR}*%
%TO.N,/RW*%
X76962000Y-72263000D03*
%TO.P,U12,4,~{RAS}*%
%TO.N,/RAS0*%
X76962000Y-69723000D03*
%TO.P,U12,5,N.C.*%
%TO.N,unconnected-(U12-N.C.-Pad5)*%
X76962000Y-67183000D03*
%TO.P,U12,6,A0*%
%TO.N,/MA0*%
X76962000Y-64643000D03*
%TO.P,U12,7,A1*%
%TO.N,/MA1*%
X76962000Y-62103000D03*
%TO.P,U12,8,A2*%
%TO.N,/MA2*%
X76962000Y-59563000D03*
%TO.P,U12,9,A3*%
%TO.N,/MA3*%
X76962000Y-57023000D03*
%TO.P,U12,10,VCC*%
%TO.N,+5V*%
X76962000Y-54483000D03*
%TO.P,U12,11,A4*%
%TO.N,/MA4*%
X69342000Y-54483000D03*
%TO.P,U12,12,A5*%
%TO.N,/MA5*%
X69342000Y-57023000D03*
%TO.P,U12,13,A6*%
%TO.N,/MA6*%
X69342000Y-59563000D03*
%TO.P,U12,14,A7*%
%TO.N,/MA7*%
X69342000Y-62103000D03*
%TO.P,U12,15,A8*%
%TO.N,/MA8*%
X69342000Y-64643000D03*
%TO.P,U12,16,~{OE}*%
%TO.N,GND*%
X69342000Y-67183000D03*
%TO.P,U12,17,~{CAS}*%
%TO.N,/CAS*%
X69342000Y-69723000D03*
%TO.P,U12,18,D2*%
%TO.N,/D6*%
X69342000Y-72263000D03*
%TO.P,U12,19,D3*%
%TO.N,/D7*%
X69342000Y-74803000D03*
%TO.P,U12,20,GND*%
%TO.N,GND*%
X69342000Y-77343000D03*
%TD*%
D22*
%TO.P,R5,1*%
%TO.N,Net-(R5-Pad1)*%
X142494000Y-123571000D03*
D21*
%TO.P,R5,2*%
%TO.N,/CLK*%
X152654000Y-123571000D03*
%TD*%
D22*
%TO.P,C22,1*%
%TO.N,+5V*%
X74342000Y-82931000D03*
%TO.P,C22,2*%
%TO.N,GND*%
X69342000Y-82931000D03*
%TD*%
%TO.P,R2,1*%
%TO.N,Net-(D9-K)*%
X165354000Y-126111000D03*
D21*
%TO.P,R2,2*%
%TO.N,GND*%
X175514000Y-126111000D03*
%TD*%
D20*
%TO.P,D6,1,K*%
%TO.N,/FDCON_CS*%
X165354000Y-131191000D03*
D21*
%TO.P,D6,2,A*%
%TO.N,/DTACKL*%
X175514000Y-131191000D03*
%TD*%
D22*
%TO.P,R9,1*%
%TO.N,+5V*%
X59817000Y-77851000D03*
D21*
%TO.P,R9,2*%
%TO.N,/FDC_WPRT*%
X59817000Y-88011000D03*
%TD*%
D20*
%TO.P,U4,1,Q11*%
%TO.N,unconnected-(U4-Q11-Pad1)*%
X185674000Y-67183000D03*
D21*
%TO.P,U4,2,Q5*%
%TO.N,unconnected-(U4-Q5-Pad2)*%
X185674000Y-64643000D03*
%TO.P,U4,3,Q4*%
%TO.N,unconnected-(U4-Q4-Pad3)*%
X185674000Y-62103000D03*
%TO.P,U4,4,Q6*%
%TO.N,unconnected-(U4-Q6-Pad4)*%
X185674000Y-59563000D03*
%TO.P,U4,5,Q3*%
%TO.N,unconnected-(U4-Q3-Pad5)*%
X185674000Y-57023000D03*
%TO.P,U4,6,Q2*%
%TO.N,Net-(U2-I6)*%
X185674000Y-54483000D03*
%TO.P,U4,7,Q1*%
%TO.N,Net-(U2-I7)*%
X185674000Y-51943000D03*
%TO.P,U4,8,VSS*%
%TO.N,GND*%
X185674000Y-49403000D03*
%TO.P,U4,9,Q0*%
%TO.N,Net-(U2-I8)*%
X178054000Y-49403000D03*
%TO.P,U4,10,CLK*%
%TO.N,/CLKCT*%
X178054000Y-51943000D03*
%TO.P,U4,11,Reset*%
%TO.N,GND*%
X178054000Y-54483000D03*
%TO.P,U4,12,Q8*%
%TO.N,unconnected-(U4-Q8-Pad12)*%
X178054000Y-57023000D03*
%TO.P,U4,13,Q7*%
%TO.N,unconnected-(U4-Q7-Pad13)*%
X178054000Y-59563000D03*
%TO.P,U4,14,Q9*%
%TO.N,unconnected-(U4-Q9-Pad14)*%
X178054000Y-62103000D03*
%TO.P,U4,15,Q10*%
%TO.N,unconnected-(U4-Q10-Pad15)*%
X178054000Y-64643000D03*
%TO.P,U4,16,VDD*%
%TO.N,+5V*%
X178054000Y-67183000D03*
%TD*%
D20*
%TO.P,U3,1*%
%TO.N,Net-(D10-A)*%
X162814000Y-126111000D03*
D21*
%TO.P,U3,2*%
%TO.N,/MUX*%
X162814000Y-123571000D03*
%TO.P,U3,3*%
%TO.N,Net-(D9-K)*%
X162814000Y-121031000D03*
%TO.P,U3,4*%
%TO.N,/GAL2_P15*%
X162814000Y-118491000D03*
%TO.P,U3,5*%
%TO.N,Net-(D5-A)*%
X162814000Y-115951000D03*
%TO.P,U3,6*%
%TO.N,/GAL2_P9*%
X162814000Y-113411000D03*
%TO.P,U3,7,GND*%
%TO.N,GND*%
X162814000Y-110871000D03*
%TO.P,U3,8*%
%TO.N,/ROM_OE*%
X155194000Y-110871000D03*
%TO.P,U3,9*%
%TO.N,/RW*%
X155194000Y-113411000D03*
%TO.P,U3,10*%
%TO.N,/CLK*%
X155194000Y-115951000D03*
%TO.P,U3,11*%
%TO.N,Net-(R5-Pad1)*%
X155194000Y-118491000D03*
%TO.P,U3,12*%
X155194000Y-121031000D03*
%TO.P,U3,13*%
%TO.N,Net-(R6-Pad1)*%
X155194000Y-123571000D03*
%TO.P,U3,14,VCC*%
%TO.N,+5V*%
X155194000Y-126111000D03*
%TD*%
D22*
%TO.P,C5,1*%
%TO.N,Net-(D10-A)*%
X155194000Y-131191000D03*
%TO.P,C5,2*%
%TO.N,GND*%
X160194000Y-131191000D03*
%TD*%
%TO.P,C4,1*%
%TO.N,GND*%
X169418000Y-123571000D03*
%TO.P,C4,2*%
%TO.N,Net-(D9-K)*%
X174418000Y-123571000D03*
%TD*%
%TO.P,C1,1*%
%TO.N,+5V*%
X187706000Y-95203000D03*
%TO.P,C1,2*%
%TO.N,GND*%
X187706000Y-100203000D03*
%TD*%
D20*
%TO.P,U9,1,D0*%
%TO.N,/D0*%
X115062000Y-77343000D03*
D21*
%TO.P,U9,2,D1*%
%TO.N,/D1*%
X115062000Y-74803000D03*
%TO.P,U9,3,~{WR}*%
%TO.N,/RW*%
X115062000Y-72263000D03*
%TO.P,U9,4,~{RAS}*%
%TO.N,/RAS1*%
X115062000Y-69723000D03*
%TO.P,U9,5,N.C.*%
%TO.N,unconnected-(U9-N.C.-Pad5)*%
X115062000Y-67183000D03*
%TO.P,U9,6,A0*%
%TO.N,/MA0*%
X115062000Y-64643000D03*
%TO.P,U9,7,A1*%
%TO.N,/MA1*%
X115062000Y-62103000D03*
%TO.P,U9,8,A2*%
%TO.N,/MA2*%
X115062000Y-59563000D03*
%TO.P,U9,9,A3*%
%TO.N,/MA3*%
X115062000Y-57023000D03*
%TO.P,U9,10,VCC*%
%TO.N,+5V*%
X115062000Y-54483000D03*
%TO.P,U9,11,A4*%
%TO.N,/MA4*%
X107442000Y-54483000D03*
%TO.P,U9,12,A5*%
%TO.N,/MA5*%
X107442000Y-57023000D03*
%TO.P,U9,13,A6*%
%TO.N,/MA6*%
X107442000Y-59563000D03*
%TO.P,U9,14,A7*%
%TO.N,/MA7*%
X107442000Y-62103000D03*
%TO.P,U9,15,A8*%
%TO.N,/MA8*%
X107442000Y-64643000D03*
%TO.P,U9,16,~{OE}*%
%TO.N,GND*%
X107442000Y-67183000D03*
%TO.P,U9,17,~{CAS}*%
%TO.N,/CAS*%
X107442000Y-69723000D03*
%TO.P,U9,18,D2*%
%TO.N,/D2*%
X107442000Y-72263000D03*
%TO.P,U9,19,D3*%
%TO.N,/D3*%
X107442000Y-74803000D03*
%TO.P,U9,20,GND*%
%TO.N,GND*%
X107442000Y-77343000D03*
%TD*%
D22*
%TO.P,R8,1*%
%TO.N,+5V*%
X56642000Y-100711000D03*
D21*
%TO.P,R8,2*%
%TO.N,/FDC_RD*%
X56642000Y-110871000D03*
%TD*%
D23*
%TO.P,C14,1*%
%TO.N,+9V*%
X59297500Y-51723000D03*
D24*
%TO.P,C14,2*%
%TO.N,GND*%
X59297500Y-69723000D03*
%TD*%
D20*
%TO.P,D9,1,K*%
%TO.N,Net-(D9-K)*%
X152614000Y-128651000D03*
D21*
%TO.P,D9,2,A*%
%TO.N,/MUX*%
X162774000Y-128651000D03*
%TD*%
D22*
%TO.P,C10,1*%
%TO.N,GND*%
X142534000Y-136271000D03*
%TO.P,C10,2*%
%TO.N,+5V*%
X147534000Y-136271000D03*
%TD*%
D20*
%TO.P,U11,1,D0*%
%TO.N,/D0*%
X87757000Y-77343000D03*
D21*
%TO.P,U11,2,D1*%
%TO.N,/D1*%
X87757000Y-74803000D03*
%TO.P,U11,3,~{WR}*%
%TO.N,/RW*%
X87757000Y-72263000D03*
%TO.P,U11,4,~{RAS}*%
%TO.N,/RAS0*%
X87757000Y-69723000D03*
%TO.P,U11,5,N.C.*%
%TO.N,unconnected-(U11-N.C.-Pad5)*%
X87757000Y-67183000D03*
%TO.P,U11,6,A0*%
%TO.N,/MA0*%
X87757000Y-64643000D03*
%TO.P,U11,7,A1*%
%TO.N,/MA1*%
X87757000Y-62103000D03*
%TO.P,U11,8,A2*%
%TO.N,/MA2*%
X87757000Y-59563000D03*
%TO.P,U11,9,A3*%
%TO.N,/MA3*%
X87757000Y-57023000D03*
%TO.P,U11,10,VCC*%
%TO.N,+5V*%
X87757000Y-54483000D03*
%TO.P,U11,11,A4*%
%TO.N,/MA4*%
X80137000Y-54483000D03*
%TO.P,U11,12,A5*%
%TO.N,/MA5*%
X80137000Y-57023000D03*
%TO.P,U11,13,A6*%
%TO.N,/MA6*%
X80137000Y-59563000D03*
%TO.P,U11,14,A7*%
%TO.N,/MA7*%
X80137000Y-62103000D03*
%TO.P,U11,15,A8*%
%TO.N,/MA8*%
X80137000Y-64643000D03*
%TO.P,U11,16,~{OE}*%
%TO.N,GND*%
X80137000Y-67183000D03*
%TO.P,U11,17,~{CAS}*%
%TO.N,/CAS*%
X80137000Y-69723000D03*
%TO.P,U11,18,D2*%
%TO.N,/D2*%
X80137000Y-72263000D03*
%TO.P,U11,19,D3*%
%TO.N,/D3*%
X80137000Y-74803000D03*
%TO.P,U11,20,GND*%
%TO.N,GND*%
X80137000Y-77343000D03*
%TD*%
D22*
%TO.P,R10,1*%
%TO.N,+5V*%
X56642000Y-77851000D03*
D21*
%TO.P,R10,2*%
%TO.N,/FDC_T0*%
X56642000Y-88011000D03*
%TD*%
D28*
%TO.N,GND*%
X140970000Y-94107000D03*
X150865200Y-130766200D03*
X155448000Y-53467000D03*
X164155500Y-105872000D03*
X155448000Y-60579000D03*
%TO.N,/A3*%
X144272000Y-101473000D03*
X143256000Y-93599000D03*
X165354000Y-76835000D03*
%TO.N,/A4*%
X157856400Y-69832000D03*
X149352000Y-98933000D03*
X157856400Y-74402000D03*
X147320000Y-75819000D03*
%TO.N,/A5*%
X122047000Y-117348000D03*
X186690000Y-79375000D03*
X188976000Y-79375000D03*
%TO.N,/A6*%
X149915400Y-84933800D03*
X154517700Y-73771400D03*
X188976000Y-81153000D03*
X154517700Y-68646100D03*
X186690000Y-81153000D03*
X150622000Y-102743000D03*
X174752000Y-77343000D03*
%TO.N,/A7*%
X163081200Y-96286200D03*
X177546000Y-81661000D03*
X170627600Y-83064800D03*
X180509700Y-67111300D03*
%TO.N,/A8*%
X123952000Y-116713000D03*
X172944600Y-90031700D03*
X180428100Y-88296000D03*
X170942000Y-90043000D03*
X129794000Y-126873000D03*
%TO.N,/A9*%
X181879000Y-132713200D03*
X155702000Y-93853000D03*
X127254000Y-126873000D03*
X120777000Y-119253000D03*
X161464400Y-122729300D03*
%TO.N,/A10*%
X119634000Y-126873000D03*
X179912800Y-93559100D03*
%TO.N,/A11*%
X189498100Y-92386800D03*
X136652000Y-117348000D03*
X124587000Y-128143000D03*
%TO.N,/A12*%
X180107000Y-98025100D03*
X183707500Y-96663100D03*
X189473500Y-99670100D03*
%TO.N,/A13*%
X175809700Y-103872200D03*
X173093200Y-103228100D03*
X180106200Y-99789600D03*
%TO.N,/A14*%
X181875100Y-115697000D03*
%TO.N,Net-(D1-A)*%
X173482000Y-76327000D03*
%TO.N,/D7*%
X116365000Y-93218000D03*
X98298000Y-93218000D03*
X80772000Y-93218000D03*
X112014000Y-137795000D03*
%TO.N,/D6*%
X99822000Y-95123000D03*
X82042000Y-95123000D03*
X116332000Y-95123000D03*
%TO.N,/D5*%
X83566000Y-97028000D03*
X102997000Y-97028000D03*
X116332000Y-97028000D03*
%TO.N,/D4*%
X116332000Y-98933000D03*
X102997000Y-98933000D03*
X85217000Y-98933000D03*
%TO.N,/D3*%
X105537000Y-101473000D03*
X116332000Y-101473000D03*
X86487000Y-101473000D03*
X58547000Y-124333000D03*
%TO.N,/A2*%
X144526000Y-93599000D03*
X161798000Y-78613000D03*
X122174000Y-125349000D03*
X172212000Y-58240600D03*
X162196800Y-66469800D03*
X145542000Y-105283000D03*
%TO.N,/A1*%
X174244000Y-55753000D03*
X113157000Y-117348000D03*
X95377000Y-117983000D03*
X189484000Y-63373000D03*
X156839500Y-64202200D03*
%TO.N,/A0*%
X188976000Y-77597000D03*
X166116000Y-81153000D03*
X95377000Y-119253000D03*
X186690000Y-77597000D03*
%TO.N,/RESET*%
X157988000Y-83693000D03*
X123317000Y-110363000D03*
X187452000Y-63373000D03*
X174244000Y-59817000D03*
X162560000Y-60325000D03*
%TO.N,/RW*%
X145288000Y-79121000D03*
X87757000Y-117983000D03*
X148844000Y-116459000D03*
%TO.N,/D0*%
X112014000Y-107823000D03*
X58674000Y-123063000D03*
X90297000Y-107823000D03*
%TO.N,/D1*%
X109347000Y-105918000D03*
X116332000Y-105918000D03*
X60452000Y-117348000D03*
X91567000Y-105918000D03*
%TO.N,/D2*%
X88392000Y-103378000D03*
X106807000Y-103378000D03*
X116332000Y-103378000D03*
X58547000Y-117348000D03*
%TO.N,/FDC_IP*%
X78867000Y-129413000D03*
D29*
%TO.N,/DS2*%
X64770000Y-86487000D03*
D28*
%TO.N,/DIR*%
X66802000Y-110871000D03*
X44873900Y-118052500D03*
%TO.N,/STEP*%
X73787000Y-117983000D03*
X60452000Y-106553000D03*
%TO.N,/DATA_WR*%
X60452000Y-104648000D03*
%TO.N,/GATE_WR*%
X60452000Y-103378000D03*
%TO.N,/FDC_T0*%
X76327000Y-129413000D03*
%TO.N,/CLK*%
X63627000Y-131953000D03*
%TO.N,/DTACKL*%
X190246000Y-110363000D03*
%TO.N,/GAL2_P9*%
X177878200Y-92558700D03*
X175514000Y-110617000D03*
%TO.N,/CS175*%
X71247000Y-112178500D03*
X104267000Y-123063000D03*
X100457000Y-116078000D03*
%TO.N,/ROM_CE*%
X120777000Y-133383700D03*
%TO.N,+5V*%
X160571300Y-116547700D03*
X56007000Y-140335000D03*
%TO.N,/CLKCT*%
X179324000Y-78613000D03*
D29*
%TO.N,/DS3*%
X64770000Y-89027000D03*
D28*
%TO.N,/FDC_WPRT*%
X81407000Y-129413000D03*
%TO.N,/FDC_STEP*%
X73787000Y-129413000D03*
%TO.N,/FDC_RD*%
X66167000Y-129413000D03*
%TO.N,/CAS*%
X141859000Y-68453000D03*
%TO.N,/RAS2*%
X151892000Y-91313000D03*
X166562500Y-92971500D03*
%TO.N,/RAS1*%
X161496400Y-111905700D03*
X172974000Y-108585000D03*
X164478900Y-111542100D03*
X129295200Y-75066200D03*
X147086400Y-115570300D03*
%TO.N,/RAS0*%
X94996000Y-52959000D03*
%TO.N,/MA0*%
X165298800Y-92966800D03*
X152649701Y-90047299D03*
%TO.N,/MA1*%
X153924000Y-89027000D03*
%TO.N,/ROM_OE*%
X122047000Y-126873000D03*
%TO.N,/FDC_DIR*%
X101727000Y-141478000D03*
%TD*%
D30*
%TO.N,GND*%
X52070000Y-99187000D02*
X52070000Y-101727000D01*
D31*
X107442000Y-82931000D02*
X105156000Y-85217000D01*
D30*
X52070000Y-78867000D02*
X52070000Y-81407000D01*
X55118000Y-68199000D02*
X54356000Y-68961000D01*
X52070000Y-96647000D02*
X52070000Y-99187000D01*
X76962000Y-87503000D02*
X76962000Y-88519000D01*
X94742000Y-87249000D02*
X80264000Y-87249000D01*
X123190000Y-87249000D02*
X107442000Y-87249000D01*
X52070000Y-111887000D02*
X52070000Y-114427000D01*
X135890000Y-90551000D02*
X139446000Y-94107000D01*
X80264000Y-87249000D02*
X77216000Y-87249000D01*
X150865200Y-122819800D02*
X150865200Y-130766200D01*
X107442000Y-87249000D02*
X105156000Y-87249000D01*
X52070000Y-73787000D02*
X52070000Y-76327000D01*
X94742000Y-84963000D02*
X94742000Y-87249000D01*
X168910000Y-119253000D02*
X169418000Y-119761000D01*
X52070000Y-101727000D02*
X52070000Y-104267000D01*
X39624000Y-66063000D02*
X40894000Y-64793000D01*
X55118000Y-64643000D02*
X55118000Y-68199000D01*
X105156000Y-85217000D02*
X105156000Y-87249000D01*
X139446000Y-94107000D02*
X140970000Y-94107000D01*
X168402000Y-90043000D02*
X166911000Y-90043000D01*
X164155500Y-92798500D02*
X164155500Y-105872000D01*
X168402000Y-69723000D02*
X168402000Y-53467000D01*
X196850000Y-136017000D02*
X196342000Y-136017000D01*
X52070000Y-91567000D02*
X52070000Y-94107000D01*
X196342000Y-136017000D02*
X196342000Y-133223000D01*
X52070000Y-89027000D02*
X52070000Y-91567000D01*
X195834000Y-51689000D02*
X200152000Y-51689000D01*
X76962000Y-88519000D02*
X76962000Y-92583000D01*
X168990000Y-115951000D02*
X168990000Y-110871000D01*
X185674000Y-49403000D02*
X195834000Y-49403000D01*
X155448000Y-84963000D02*
X155448000Y-60579000D01*
X134112000Y-84709000D02*
X134112000Y-87249000D01*
X52070000Y-76327000D02*
X52070000Y-78867000D01*
X175514000Y-126111000D02*
X171958000Y-126111000D01*
X155448000Y-46863000D02*
X156464000Y-45847000D01*
X182118000Y-82423000D02*
X184871900Y-85176900D01*
X124968000Y-87249000D02*
X123190000Y-87249000D01*
D31*
X135890000Y-82931000D02*
X134112000Y-84709000D01*
D30*
X48006000Y-68453000D02*
X48006000Y-64793000D01*
X195834000Y-49403000D02*
X195834000Y-51689000D01*
X96774000Y-87249000D02*
X94742000Y-87249000D01*
X52070000Y-94107000D02*
X52070000Y-96647000D01*
X54356000Y-68961000D02*
X52070000Y-68961000D01*
D31*
X80010000Y-82931000D02*
X76962000Y-85979000D01*
D30*
X180594000Y-54483000D02*
X185674000Y-49403000D01*
X76962000Y-85979000D02*
X76962000Y-88519000D01*
X52070000Y-104267000D02*
X52070000Y-106807000D01*
D31*
X96774000Y-82931000D02*
X94742000Y-84963000D01*
D30*
X168402000Y-53467000D02*
X168402000Y-45847000D01*
X155448000Y-53467000D02*
X155448000Y-46863000D01*
X168402000Y-45847000D02*
X187960000Y-45847000D01*
X48514000Y-68961000D02*
X52070000Y-68961000D01*
X200152000Y-51689000D02*
X200152000Y-136017000D01*
X160782000Y-84963000D02*
X155448000Y-84963000D01*
X187960000Y-45847000D02*
X187960000Y-49403000D01*
X171958000Y-126111000D02*
X169418000Y-123571000D01*
X156464000Y-45847000D02*
X168402000Y-45847000D01*
X48514000Y-68961000D02*
X48006000Y-68453000D01*
X77216000Y-87249000D02*
X76962000Y-87503000D01*
X83947000Y-135763000D02*
X83947000Y-142748000D01*
X39624000Y-66167000D02*
X39624000Y-66063000D01*
X135890000Y-87249000D02*
X134112000Y-87249000D01*
X52070000Y-106807000D02*
X52070000Y-109347000D01*
X134112000Y-87249000D02*
X124968000Y-87249000D01*
X166911000Y-90043000D02*
X164155500Y-92798500D01*
X200152000Y-136017000D02*
X196850000Y-136017000D01*
X83947000Y-142748000D02*
X39497000Y-142748000D01*
X105156000Y-87249000D02*
X96774000Y-87249000D01*
X169418000Y-119761000D02*
X169418000Y-123571000D01*
X152654000Y-121031000D02*
X150865200Y-122819800D01*
X187960000Y-49403000D02*
X185674000Y-49403000D01*
X52070000Y-109347000D02*
X52070000Y-111887000D01*
X135890000Y-87249000D02*
X135890000Y-90551000D01*
X168910000Y-115951000D02*
X168910000Y-119253000D01*
X52070000Y-81407000D02*
X52070000Y-83947000D01*
X184871900Y-85176900D02*
X184871900Y-97368900D01*
X52070000Y-83947000D02*
X52070000Y-86487000D01*
X168402000Y-53467000D02*
X171958000Y-53467000D01*
X193802000Y-133223000D02*
X193802000Y-135763000D01*
X52070000Y-86487000D02*
X52070000Y-89027000D01*
D31*
X125222000Y-82931000D02*
X123190000Y-84963000D01*
D30*
X123190000Y-84963000D02*
X123190000Y-87249000D01*
X178054000Y-54483000D02*
X180594000Y-54483000D01*
X184871900Y-97368900D02*
X187706000Y-100203000D01*
X39497000Y-142748000D02*
X39624000Y-66167000D01*
X52070000Y-68961000D02*
X52070000Y-73787000D01*
D32*
%TO.N,/GAL2_P11*%
X177146900Y-85071900D02*
X177146900Y-107714100D01*
X174498000Y-82423000D02*
X177146900Y-85071900D01*
X177146900Y-107714100D02*
X173990000Y-110871000D01*
%TO.N,Net-(D5-A)*%
X175514000Y-118491000D02*
X175514000Y-121031000D01*
X175514000Y-117555000D02*
X173910000Y-115951000D01*
X175514000Y-118491000D02*
X175514000Y-117555000D01*
%TO.N,Net-(D9-K)*%
X165354000Y-124505400D02*
X165354000Y-126111000D01*
X162814000Y-121965400D02*
X165354000Y-124505400D01*
X162814000Y-121031000D02*
X162814000Y-121965400D01*
%TO.N,/A3*%
X186944000Y-58293000D02*
X188593900Y-59942900D01*
X175042300Y-56769000D02*
X176566300Y-58293000D01*
X169530300Y-58942700D02*
X171704000Y-56769000D01*
X195072000Y-69383600D02*
X195072000Y-73533000D01*
X144272000Y-94615000D02*
X143256000Y-93599000D01*
X188593900Y-59942900D02*
X188593900Y-63892700D01*
X195072000Y-73533000D02*
X196342000Y-74803000D01*
X171704000Y-56769000D02*
X175042300Y-56769000D01*
X168910000Y-70993000D02*
X169530300Y-70372700D01*
X192984400Y-68283200D02*
X193971600Y-68283200D01*
X144272000Y-101473000D02*
X144272000Y-94615000D01*
X176566300Y-58293000D02*
X186944000Y-58293000D01*
X169530300Y-70372700D02*
X169530300Y-58942700D01*
X167386000Y-70993000D02*
X168910000Y-70993000D01*
X193971600Y-68283200D02*
X195072000Y-69383600D01*
X165354000Y-73025000D02*
X167386000Y-70993000D01*
X165354000Y-76835000D02*
X165354000Y-73025000D01*
X188593900Y-63892700D02*
X192984400Y-68283200D01*
%TO.N,/A4*%
X148590000Y-96139000D02*
X149352000Y-97102811D01*
X170096800Y-61678200D02*
X170096800Y-73108200D01*
X149352000Y-97102811D02*
X149352000Y-98933000D01*
X147320000Y-76835000D02*
X148590000Y-78105000D01*
X190424100Y-76073000D02*
X182080050Y-67728950D01*
X157856400Y-69832000D02*
X157856400Y-74402000D01*
X196342000Y-77343000D02*
X195072000Y-76073000D01*
X195072000Y-76073000D02*
X190424100Y-76073000D01*
X181102000Y-65913000D02*
X176276000Y-65913000D01*
X176276000Y-65913000D02*
X173482000Y-63119000D01*
X147320000Y-75819000D02*
X147320000Y-76835000D01*
X148590000Y-78105000D02*
X148590000Y-96139000D01*
X182080050Y-67728950D02*
X182080050Y-66891050D01*
X170942000Y-60833000D02*
X170096800Y-61678200D01*
X182080050Y-66891050D02*
X181102000Y-65913000D01*
X173482000Y-61595000D02*
X172720000Y-60833000D01*
X173482000Y-63119000D02*
X173482000Y-61595000D01*
X172720000Y-60833000D02*
X170942000Y-60833000D01*
X170096800Y-73108200D02*
X168402000Y-74803000D01*
%TO.N,/A5*%
X181102000Y-75311000D02*
X171958000Y-75311000D01*
X169418000Y-82423000D02*
X168402000Y-82423000D01*
X171958000Y-75311000D02*
X171450000Y-75819000D01*
X125603000Y-118618000D02*
X127127000Y-120523000D01*
X186690000Y-79375000D02*
X185166000Y-79375000D01*
X123317000Y-118618000D02*
X125603000Y-118618000D01*
X195242489Y-80982511D02*
X190583511Y-80982511D01*
X196342000Y-79883000D02*
X195242489Y-80982511D01*
X171450000Y-75819000D02*
X171450000Y-80391000D01*
X171450000Y-80391000D02*
X169418000Y-82423000D01*
X190583511Y-80982511D02*
X188976000Y-79375000D01*
X122047000Y-117348000D02*
X123317000Y-118618000D01*
X185166000Y-79375000D02*
X181102000Y-75311000D01*
%TO.N,/A6*%
X186690000Y-81153000D02*
X184658000Y-81153000D01*
X149352000Y-85497200D02*
X149915400Y-84933800D01*
X184658000Y-81153000D02*
X180848000Y-77343000D01*
X191345511Y-83522511D02*
X195242489Y-83522511D01*
X150622000Y-102743000D02*
X150622000Y-96393000D01*
X154517700Y-68646100D02*
X154517700Y-73771400D01*
X150622000Y-96393000D02*
X149352000Y-95123000D01*
X149352000Y-95123000D02*
X149352000Y-85497200D01*
X195242489Y-83522511D02*
X196342000Y-82423000D01*
X188976000Y-81153000D02*
X191345511Y-83522511D01*
X180848000Y-77343000D02*
X174752000Y-77343000D01*
%TO.N,/A7*%
X166116000Y-84963000D02*
X168402000Y-84963000D01*
X176784000Y-80899000D02*
X172793400Y-80899000D01*
X165310450Y-85768550D02*
X166116000Y-84963000D01*
X196868300Y-78782800D02*
X197496300Y-79410800D01*
X172793400Y-80899000D02*
X170627600Y-83064800D01*
X165310450Y-88475450D02*
X163081200Y-90704700D01*
X177546000Y-81661000D02*
X176784000Y-80899000D01*
X180509700Y-67111300D02*
X192181200Y-78782800D01*
X197496300Y-79410800D02*
X197496300Y-83808700D01*
X163081200Y-90704700D02*
X163081200Y-96286200D01*
X165310450Y-88475450D02*
X165310450Y-85768550D01*
X197496300Y-83808700D02*
X196342000Y-84963000D01*
X192181200Y-78782800D02*
X196868300Y-78782800D01*
%TO.N,/A8*%
X185819700Y-84504100D02*
X185819700Y-95658400D01*
X197970400Y-89131400D02*
X196342000Y-87503000D01*
X181645900Y-81245700D02*
X182561300Y-81245700D01*
X125857000Y-116713000D02*
X128397000Y-119253000D01*
X128397000Y-121539000D02*
X129794000Y-122809000D01*
X197970400Y-95076100D02*
X197970400Y-89131400D01*
X190998500Y-96342200D02*
X196704300Y-96342200D01*
X180428100Y-88296000D02*
X180428100Y-82463500D01*
X185819700Y-95658400D02*
X187003600Y-96842300D01*
X182561300Y-81245700D02*
X185819700Y-84504100D01*
X123952000Y-116713000D02*
X125857000Y-116713000D01*
X187003600Y-96842300D02*
X190498400Y-96842300D01*
X172944600Y-90031700D02*
X170942000Y-90043000D01*
X128397000Y-119253000D02*
X128397000Y-121539000D01*
X196704300Y-96342200D02*
X197970400Y-95076100D01*
X129794000Y-122809000D02*
X129794000Y-126873000D01*
X180428100Y-82463500D02*
X181645900Y-81245700D01*
X190498400Y-96842300D02*
X190998500Y-96342200D01*
%TO.N,/A9*%
X158804300Y-116785700D02*
X161464400Y-119445800D01*
X184671200Y-129921000D02*
X186001200Y-129921000D01*
X195201400Y-87076600D02*
X195201400Y-88902400D01*
X186001200Y-129921000D02*
X188192200Y-127730000D01*
X196819600Y-86402800D02*
X195875200Y-86402800D01*
X158804300Y-110290300D02*
X156972000Y-108458000D01*
X126238000Y-126873000D02*
X127254000Y-126873000D01*
X155702000Y-93853000D02*
X155702000Y-95631000D01*
X120777000Y-119253000D02*
X120777000Y-121793000D01*
X198473600Y-88056800D02*
X196819600Y-86402800D01*
X188192200Y-124502700D02*
X193441900Y-119253000D01*
X161464400Y-119445800D02*
X161464400Y-122729300D01*
X195875200Y-86402800D02*
X195201400Y-87076600D01*
X188192200Y-127730000D02*
X188192200Y-124502700D01*
X194902200Y-112733400D02*
X195832800Y-111802800D01*
X194902200Y-118522900D02*
X194902200Y-112733400D01*
X193441900Y-119253000D02*
X194172100Y-119253000D01*
X195201400Y-88902400D02*
X196342000Y-90043000D01*
X156972000Y-96901000D02*
X156972000Y-108458000D01*
X196537000Y-111802800D02*
X198473600Y-109866200D01*
X158804300Y-116785700D02*
X158804300Y-110290300D01*
X195832800Y-111802800D02*
X196537000Y-111802800D01*
X194172100Y-119253000D02*
X194902200Y-118522900D01*
X181879000Y-132713200D02*
X184671200Y-129921000D01*
X155702000Y-95631000D02*
X156972000Y-96901000D01*
X198473600Y-109866200D02*
X198473600Y-88056800D01*
X120777000Y-121793000D02*
X126238000Y-126873000D01*
%TO.N,/A10*%
X179866500Y-82287100D02*
X181408200Y-80745400D01*
X179912800Y-93559100D02*
X179678800Y-93325100D01*
X186428500Y-84405500D02*
X186428500Y-95559900D01*
X181408200Y-80745400D02*
X182768400Y-80745400D01*
X187210800Y-96342200D02*
X190041000Y-96342200D01*
X190041000Y-96342200D02*
X192700000Y-93683200D01*
X192700000Y-93683200D02*
X195241800Y-93683200D01*
X179678800Y-87537900D02*
X179866500Y-87350200D01*
X195241800Y-93683200D02*
X196342000Y-92583000D01*
X182768400Y-80745400D02*
X186428500Y-84405500D01*
X186428500Y-95559900D02*
X187210800Y-96342200D01*
X179866500Y-87350200D02*
X179866500Y-82287100D01*
X179678800Y-93325100D02*
X179678800Y-87537900D01*
%TO.N,/A11*%
X124587000Y-128143000D02*
X130302000Y-128143000D01*
X196819900Y-91482800D02*
X190402100Y-91482800D01*
X135382000Y-117348000D02*
X136652000Y-117348000D01*
X197470300Y-93994700D02*
X197470300Y-92133200D01*
X130302000Y-128143000D02*
X133477000Y-124968000D01*
X197470300Y-92133200D02*
X196819900Y-91482800D01*
X196342000Y-95123000D02*
X197470300Y-93994700D01*
X133477000Y-119253000D02*
X135382000Y-117348000D01*
X133477000Y-124968000D02*
X133477000Y-119253000D01*
X190402100Y-91482800D02*
X189498100Y-92386800D01*
%TO.N,/A12*%
X183707500Y-97701100D02*
X183707500Y-96663100D01*
X194902200Y-99102800D02*
X196342000Y-97663000D01*
X189473500Y-99670100D02*
X190040800Y-99102800D01*
X190040800Y-99102800D02*
X194902200Y-99102800D01*
X182620400Y-98788200D02*
X183707500Y-97701100D01*
X180870100Y-98788200D02*
X182620400Y-98788200D01*
X180107000Y-98025100D02*
X180870100Y-98788200D01*
%TO.N,/A13*%
X195072000Y-101473000D02*
X181789600Y-101473000D01*
X181789600Y-101473000D02*
X180106200Y-99789600D01*
X188468000Y-110617000D02*
X188468000Y-106454000D01*
X188545500Y-106376500D02*
X193449000Y-101473000D01*
X196342000Y-100203000D02*
X195072000Y-101473000D01*
X188468000Y-106454000D02*
X188545500Y-106376500D01*
X173737300Y-103872200D02*
X175809700Y-103872200D01*
X173093200Y-103228100D02*
X173737300Y-103872200D01*
X185674000Y-113411000D02*
X188468000Y-110617000D01*
%TO.N,/A14*%
X189395400Y-112229600D02*
X185674000Y-115951000D01*
X195072000Y-104013000D02*
X196342000Y-102743000D01*
X181875100Y-115697000D02*
X184042700Y-115806900D01*
X189395400Y-112229600D02*
X189395400Y-108125200D01*
X189395400Y-108125200D02*
X193507600Y-104013000D01*
X193507600Y-104013000D02*
X195072000Y-104013000D01*
X184042700Y-115806900D02*
X185674000Y-115806900D01*
%TO.N,Net-(D10-A)*%
X155194000Y-133731000D02*
X152654000Y-136271000D01*
X161290000Y-127635000D02*
X161290000Y-130175000D01*
X162814000Y-126111000D02*
X161290000Y-127635000D01*
X162814000Y-131699000D02*
X162814000Y-133731000D01*
X161290000Y-130175000D02*
X162814000Y-131699000D01*
X155194000Y-131191000D02*
X155194000Y-133731000D01*
%TO.N,Net-(D1-A)*%
X173482000Y-76327000D02*
X173482000Y-78359000D01*
X178617000Y-81462000D02*
X178617000Y-106896800D01*
X179324000Y-112141000D02*
X178054000Y-113411000D01*
X179324000Y-107603800D02*
X179324000Y-112141000D01*
X174625000Y-79502000D02*
X176657000Y-79502000D01*
X173482000Y-78359000D02*
X174625000Y-79502000D01*
X178617000Y-106896800D02*
X179324000Y-107603800D01*
X176657000Y-79502000D02*
X178617000Y-81462000D01*
%TO.N,/D7*%
X114554000Y-135763000D02*
X114554000Y-137795000D01*
X77724000Y-96393000D02*
X73152000Y-96393000D01*
X80772000Y-93218000D02*
X98298000Y-93218000D01*
X112268000Y-137795000D02*
X114554000Y-137795000D01*
X189230000Y-132969000D02*
X184150000Y-138049000D01*
X196342000Y-120523000D02*
X195072000Y-121793000D01*
X195072000Y-121793000D02*
X192532000Y-121793000D01*
X184150000Y-138049000D02*
X114808000Y-138049000D01*
X189230000Y-125095000D02*
X189230000Y-132969000D01*
X192532000Y-121793000D02*
X189230000Y-125095000D01*
X80772000Y-93218000D02*
X77724000Y-96393000D01*
X114808000Y-138049000D02*
X114554000Y-137795000D01*
X112014000Y-137795000D02*
X112268000Y-137795000D01*
X98298000Y-93218000D02*
X116365000Y-93218000D01*
X73152000Y-96393000D02*
X69342000Y-100203000D01*
%TO.N,/D6*%
X73152000Y-98933000D02*
X69342000Y-102743000D01*
X116332000Y-95123000D02*
X99822000Y-95123000D01*
X189992000Y-126873000D02*
X189992000Y-133223000D01*
X110744000Y-138303000D02*
X110744000Y-137033000D01*
X99822000Y-95123000D02*
X82042000Y-95123000D01*
X189992000Y-133223000D02*
X184404000Y-138811000D01*
X192532000Y-124333000D02*
X189992000Y-126873000D01*
X195072000Y-124333000D02*
X192532000Y-124333000D01*
X184404000Y-138811000D02*
X111252000Y-138811000D01*
X196342000Y-123063000D02*
X195072000Y-124333000D01*
X111252000Y-138811000D02*
X110744000Y-138303000D01*
X78486000Y-98933000D02*
X73152000Y-98933000D01*
X82042000Y-95123000D02*
X78486000Y-98933000D01*
X110744000Y-137033000D02*
X112014000Y-135763000D01*
%TO.N,/D5*%
X109474000Y-139573000D02*
X109474000Y-135763000D01*
X190754000Y-128651000D02*
X190754000Y-133477000D01*
X190754000Y-133477000D02*
X184658000Y-139573000D01*
X192532000Y-126873000D02*
X190754000Y-128651000D01*
X116332000Y-97028000D02*
X102997000Y-97028000D01*
X80264000Y-100203000D02*
X76962000Y-100203000D01*
X184658000Y-139573000D02*
X109474000Y-139573000D01*
X83566000Y-97028000D02*
X80264000Y-100203000D01*
X195072000Y-126873000D02*
X192532000Y-126873000D01*
X102997000Y-97028000D02*
X83566000Y-97028000D01*
X196342000Y-125603000D02*
X195072000Y-126873000D01*
%TO.N,/D4*%
X196342000Y-128143000D02*
X195072000Y-129413000D01*
X195072000Y-129413000D02*
X192278000Y-129413000D01*
X102997000Y-98933000D02*
X85217000Y-98933000D01*
X192278000Y-129413000D02*
X191516000Y-130175000D01*
X191516000Y-133731000D02*
X184912000Y-140335000D01*
X81534000Y-102743000D02*
X76962000Y-102743000D01*
X116332000Y-98933000D02*
X102997000Y-98933000D01*
X106934000Y-140335000D02*
X106934000Y-135763000D01*
X191516000Y-130175000D02*
X191516000Y-133731000D01*
X184912000Y-140335000D02*
X106934000Y-140335000D01*
X85217000Y-98933000D02*
X81534000Y-102743000D01*
%TO.N,/D3*%
X105156000Y-141097000D02*
X104394000Y-140335000D01*
X71247000Y-120523000D02*
X69977000Y-121793000D01*
X69977000Y-121793000D02*
X58547000Y-121793000D01*
X104394000Y-140335000D02*
X104394000Y-135763000D01*
X192278000Y-133985000D02*
X185166000Y-141097000D01*
X196342000Y-130683000D02*
X195072000Y-131953000D01*
X116332000Y-101473000D02*
X105537000Y-101473000D01*
X192786000Y-131953000D02*
X192278000Y-132461000D01*
X57912000Y-123698000D02*
X58547000Y-124333000D01*
X58547000Y-121793000D02*
X57912000Y-122428000D01*
X185166000Y-141097000D02*
X105156000Y-141097000D01*
X195072000Y-131953000D02*
X192786000Y-131953000D01*
X192278000Y-132461000D02*
X192278000Y-133985000D01*
X57912000Y-122428000D02*
X57912000Y-123698000D01*
X105537000Y-101473000D02*
X86487000Y-101473000D01*
%TO.N,/A2*%
X145542000Y-105283000D02*
X145542000Y-94615000D01*
X176530000Y-63373000D02*
X172212000Y-59055000D01*
X181610000Y-63373000D02*
X176530000Y-63373000D01*
X162288400Y-78122600D02*
X161798000Y-78613000D01*
X162196800Y-70848200D02*
X160782000Y-72263000D01*
X172212000Y-59055000D02*
X172212000Y-58240600D01*
X184150000Y-65913000D02*
X181610000Y-63373000D01*
X162288400Y-73769400D02*
X162288400Y-78122600D01*
X119507000Y-123063000D02*
X119507000Y-120523000D01*
X122174000Y-125349000D02*
X119507000Y-123063000D01*
X193802000Y-72263000D02*
X187452000Y-65913000D01*
X145542000Y-94615000D02*
X144526000Y-93599000D01*
X160782000Y-72263000D02*
X162288400Y-73769400D01*
X187452000Y-65913000D02*
X184150000Y-65913000D01*
X162196800Y-66469800D02*
X162196800Y-70848200D01*
%TO.N,/A1*%
X109982000Y-117348000D02*
X113157000Y-117348000D01*
X113919000Y-117348000D02*
X116967000Y-120523000D01*
X109347000Y-117983000D02*
X109982000Y-117348000D01*
X113157000Y-117348000D02*
X113919000Y-117348000D01*
X95377000Y-117983000D02*
X109347000Y-117983000D01*
X160782000Y-79883000D02*
X156839500Y-75940500D01*
X189484000Y-57785000D02*
X189484000Y-63373000D01*
X187452000Y-55753000D02*
X189484000Y-57785000D01*
X174244000Y-55753000D02*
X187452000Y-55753000D01*
X156839500Y-75940500D02*
X156839500Y-64202200D01*
%TO.N,/A0*%
X95377000Y-119253000D02*
X113284000Y-119253000D01*
X166116000Y-81153000D02*
X169164000Y-81153000D01*
X191262000Y-79883000D02*
X188976000Y-77597000D01*
X170180000Y-80137000D02*
X170180000Y-75819000D01*
X169164000Y-81153000D02*
X170180000Y-80137000D01*
X170180000Y-75819000D02*
X171450000Y-74549000D01*
X182118000Y-74549000D02*
X185166000Y-77597000D01*
X193802000Y-79883000D02*
X191262000Y-79883000D01*
X171450000Y-74549000D02*
X182118000Y-74549000D01*
X185166000Y-77597000D02*
X186690000Y-77597000D01*
X113284000Y-119253000D02*
X114427000Y-120523000D01*
%TO.N,/RESET*%
X176276000Y-60833000D02*
X181102000Y-60833000D01*
X159258000Y-81153000D02*
X161798000Y-81153000D01*
X157988000Y-83693000D02*
X157988000Y-82423000D01*
X163010860Y-79940140D02*
X163010860Y-60775860D01*
X161798000Y-81153000D02*
X163010860Y-79940140D01*
X183642000Y-63373000D02*
X181102000Y-60833000D01*
X157988000Y-82423000D02*
X159258000Y-81153000D01*
X76962000Y-110363000D02*
X123317000Y-110363000D01*
X174244000Y-59817000D02*
X175260000Y-59817000D01*
X175260000Y-59817000D02*
X176276000Y-60833000D01*
X187452000Y-63373000D02*
X183642000Y-63373000D01*
X163010860Y-60775860D02*
X162560000Y-60325000D01*
%TO.N,/A15*%
X176638511Y-119107511D02*
X176638511Y-117583511D01*
X183254000Y-119761000D02*
X177292000Y-119761000D01*
X184524000Y-121031000D02*
X183254000Y-119761000D01*
X167467300Y-108948100D02*
X167276900Y-108757700D01*
X175337700Y-115619300D02*
X168666500Y-108948100D01*
X176638511Y-117583511D02*
X175337700Y-116282700D01*
X185674000Y-121031000D02*
X184524000Y-121031000D01*
X175337700Y-116282700D02*
X175337700Y-115619300D01*
X177292000Y-119761000D02*
X176638511Y-119107511D01*
X167276900Y-108757700D02*
X167276900Y-106408100D01*
X168666500Y-108948100D02*
X167467300Y-108948100D01*
X167276900Y-106408100D02*
X168402000Y-105283000D01*
%TO.N,/RW*%
X112522000Y-72263000D02*
X114798000Y-72263000D01*
X137559000Y-73387500D02*
X138684000Y-72263000D01*
X94152800Y-74803000D02*
X95399900Y-73555900D01*
X133972000Y-73387500D02*
X137559000Y-73387500D01*
X164084000Y-127381000D02*
X164084000Y-125249100D01*
X90297000Y-74803000D02*
X94152800Y-74803000D01*
X155194000Y-113411000D02*
X157607000Y-115824000D01*
X163675900Y-124841000D02*
X164084000Y-125249100D01*
X106299000Y-115951000D02*
X104902000Y-117348000D01*
X89027000Y-116713000D02*
X87757000Y-117983000D01*
X165687250Y-128063750D02*
X175065700Y-137442200D01*
X138684000Y-72263000D02*
X143510000Y-72263000D01*
X185451600Y-127236200D02*
X186153700Y-127236200D01*
X176882800Y-137442200D02*
X180410400Y-133914600D01*
X78232000Y-73533000D02*
X86487000Y-73533000D01*
X86487000Y-73533000D02*
X87757000Y-72263000D01*
X76962000Y-72263000D02*
X78232000Y-73533000D01*
X163675900Y-124841000D02*
X161544000Y-124841000D01*
X132842000Y-72258000D02*
X130053000Y-72258000D01*
X97282000Y-117348000D02*
X96647000Y-116713000D01*
X100307000Y-73555900D02*
X101605000Y-72258000D01*
X95399900Y-73555900D02*
X100307000Y-73555900D01*
X157607000Y-120904000D02*
X161544000Y-124841000D01*
X157607000Y-115824000D02*
X157607000Y-120904000D01*
X187508300Y-125881600D02*
X187508300Y-124276700D01*
X104257000Y-72258000D02*
X105532000Y-73533000D01*
X122936000Y-73533000D02*
X121920000Y-74549000D01*
X127508000Y-115951000D02*
X106299000Y-115951000D01*
X186153700Y-127236200D02*
X187508300Y-125881600D01*
X187508300Y-124276700D02*
X193802000Y-117983000D01*
X128778000Y-73533000D02*
X122936000Y-73533000D01*
X121920000Y-74549000D02*
X117084000Y-74549000D01*
X132842000Y-72258000D02*
X133972000Y-73387500D01*
X128016000Y-116459000D02*
X127508000Y-115951000D01*
X87757000Y-72263000D02*
X90297000Y-74803000D01*
X148844000Y-116459000D02*
X148844000Y-113665000D01*
X148844000Y-116459000D02*
X128016000Y-116459000D01*
X105532000Y-73533000D02*
X111252000Y-73533000D01*
X147828000Y-112649000D02*
X147828000Y-79121000D01*
X130053000Y-72258000D02*
X128778000Y-73533000D01*
X180410400Y-132277400D02*
X185451600Y-127236200D01*
X147828000Y-79121000D02*
X145288000Y-79121000D01*
X148844000Y-113665000D02*
X147828000Y-112649000D01*
X164766750Y-128063750D02*
X164084000Y-127381000D01*
X165687250Y-128063750D02*
X164766750Y-128063750D01*
X180410400Y-133914600D02*
X180410400Y-132277400D01*
X175065700Y-137442200D02*
X176882800Y-137442200D01*
X117084000Y-74549000D02*
X114798000Y-72263000D01*
X104902000Y-117348000D02*
X97282000Y-117348000D01*
X111252000Y-73533000D02*
X112522000Y-72263000D01*
X101605000Y-72258000D02*
X104257000Y-72258000D01*
X96647000Y-116713000D02*
X89027000Y-116713000D01*
%TO.N,/D0*%
X112014000Y-107823000D02*
X90297000Y-107823000D01*
X58674000Y-123063000D02*
X78232000Y-123063000D01*
X78232000Y-123063000D02*
X78867000Y-122428000D01*
X78867000Y-122428000D02*
X78867000Y-120523000D01*
%TO.N,/D1*%
X73914000Y-119253000D02*
X72009000Y-117348000D01*
X116332000Y-105918000D02*
X109347000Y-105918000D01*
X72009000Y-117348000D02*
X60452000Y-117348000D01*
X109347000Y-105918000D02*
X91567000Y-105918000D01*
X76454000Y-120523000D02*
X75184000Y-119253000D01*
X75184000Y-119253000D02*
X73914000Y-119253000D01*
%TO.N,/D2*%
X58547000Y-117348000D02*
X59944000Y-118745000D01*
X116332000Y-103378000D02*
X106807000Y-103378000D01*
X59944000Y-118745000D02*
X72136000Y-118745000D01*
X106807000Y-103378000D02*
X88392000Y-103378000D01*
X72136000Y-118745000D02*
X73914000Y-120523000D01*
%TO.N,/FDC_IP*%
X59690000Y-110871000D02*
X59690000Y-113665000D01*
X78232000Y-126873000D02*
X56642000Y-126873000D01*
X78867000Y-127508000D02*
X78232000Y-126873000D01*
X54610000Y-124841000D02*
X54610000Y-114935000D01*
X78867000Y-129413000D02*
X78867000Y-127508000D01*
X59182000Y-114173000D02*
X55372000Y-114173000D01*
X59690000Y-113665000D02*
X59182000Y-114173000D01*
X56642000Y-126873000D02*
X54610000Y-124841000D01*
X55372000Y-114173000D02*
X54610000Y-114935000D01*
%TO.N,/DS1*%
X47752000Y-103505000D02*
X49530000Y-101727000D01*
X51562000Y-126873000D02*
X47752000Y-123063000D01*
X48006000Y-123327000D02*
X51806000Y-127127000D01*
X47752000Y-123063000D02*
X47752000Y-103505000D01*
%TO.N,/MOTOR_ON*%
X43942000Y-126873000D02*
X45847000Y-124968000D01*
X48133000Y-96647000D02*
X49530000Y-96647000D01*
X45847000Y-124968000D02*
X45847000Y-98933000D01*
X45847000Y-98933000D02*
X48133000Y-96647000D01*
%TO.N,/DIR*%
X68834000Y-112903000D02*
X75692000Y-112903000D01*
X79502000Y-116713000D02*
X85217000Y-116713000D01*
X99424000Y-123068000D02*
X100574000Y-123068000D01*
X98233400Y-124258600D02*
X99424000Y-123068000D01*
X66802000Y-110871000D02*
X68834000Y-112903000D01*
X90822500Y-124258600D02*
X98233400Y-124258600D01*
X87757000Y-119253000D02*
X87757000Y-121793000D01*
X87757000Y-121793000D02*
X90822500Y-124258600D01*
X44873900Y-96985100D02*
X44873900Y-118052500D01*
X47752000Y-94107000D02*
X44873900Y-96985100D01*
X75692000Y-112903000D02*
X79502000Y-116713000D01*
X49530000Y-94107000D02*
X47752000Y-94107000D01*
X85217000Y-116713000D02*
X87757000Y-119253000D01*
%TO.N,/STEP*%
X60452000Y-106553000D02*
X62746511Y-108847511D01*
X62759700Y-113940700D02*
X64897000Y-116078000D01*
X71882000Y-116078000D02*
X73787000Y-117983000D01*
X64897000Y-116078000D02*
X71882000Y-116078000D01*
X62746511Y-108847511D02*
X62746511Y-110608489D01*
X62746511Y-110608489D02*
X62759700Y-113940700D01*
%TO.N,/DATA_WR*%
X80137000Y-122428000D02*
X88905000Y-130688000D01*
X60452000Y-104648000D02*
X64262000Y-108458000D01*
X64262000Y-113919000D02*
X65786000Y-115443000D01*
X65786000Y-115443000D02*
X75588782Y-115443000D01*
X80137000Y-119888000D02*
X80137000Y-122428000D01*
X75588782Y-115443000D02*
X76910391Y-116764609D01*
X64262000Y-108458000D02*
X64262000Y-113919000D01*
X88905000Y-130688000D02*
X92954000Y-130688000D01*
X76910391Y-116764609D02*
X80137000Y-119888000D01*
%TO.N,/GATE_WR*%
X60452000Y-103378000D02*
X65208800Y-108134800D01*
X66548000Y-114173000D02*
X75692000Y-114173000D01*
X98274000Y-126998000D02*
X99424000Y-128148000D01*
X79502000Y-117983000D02*
X84582000Y-117983000D01*
X85217000Y-122555000D02*
X89787000Y-126998000D01*
X99424000Y-128148000D02*
X100574000Y-128148000D01*
X85217000Y-118618000D02*
X85217000Y-122555000D01*
X65208800Y-108134800D02*
X65208800Y-112833800D01*
X89787000Y-126998000D02*
X98274000Y-126998000D01*
X65208800Y-112833800D02*
X66548000Y-114173000D01*
X75692000Y-114173000D02*
X79502000Y-117983000D01*
X84582000Y-117983000D02*
X85217000Y-118618000D01*
%TO.N,/FDC_T0*%
X54356000Y-112903000D02*
X57912000Y-112903000D01*
X55118000Y-106934000D02*
X55118000Y-89535000D01*
X57912000Y-112903000D02*
X57912000Y-109728000D01*
X54102000Y-126873000D02*
X54102000Y-113157000D01*
X55118000Y-89535000D02*
X56642000Y-88011000D01*
X76327000Y-129413000D02*
X75057000Y-128143000D01*
X55372000Y-128143000D02*
X54102000Y-126873000D01*
X75057000Y-128143000D02*
X55372000Y-128143000D01*
X54102000Y-113157000D02*
X54356000Y-112903000D01*
X57912000Y-109728000D02*
X55118000Y-106934000D01*
%TO.N,/HEAD*%
X43307000Y-133223000D02*
X42672000Y-132588000D01*
X42672000Y-132588000D02*
X42672000Y-120015000D01*
X50536000Y-133477000D02*
X51806000Y-134747000D01*
X43434000Y-82423000D02*
X43434000Y-119253000D01*
X50292000Y-133223000D02*
X43307000Y-133223000D01*
X51562000Y-134493000D02*
X50292000Y-133223000D01*
X49530000Y-76327000D02*
X43434000Y-82423000D01*
X42672000Y-120015000D02*
X43434000Y-119253000D01*
%TO.N,/FDCON_CS*%
X90304000Y-120523000D02*
X89154000Y-120523000D01*
X164084000Y-134493000D02*
X163576000Y-135001000D01*
X156331000Y-130042000D02*
X156331000Y-117985700D01*
X161290000Y-135001000D02*
X156331000Y-130042000D01*
X132842000Y-128905000D02*
X112601600Y-128905000D01*
X136017000Y-126238000D02*
X132842000Y-128905000D01*
X165354000Y-131191000D02*
X164084000Y-132461000D01*
X91661200Y-121880200D02*
X90304000Y-120523000D01*
X136017000Y-119253000D02*
X136017000Y-126238000D01*
X163576000Y-135001000D02*
X161290000Y-135001000D01*
X164084000Y-132461000D02*
X164084000Y-134493000D01*
X105576800Y-121880200D02*
X91661200Y-121880200D01*
X112601600Y-128905000D02*
X105576800Y-121880200D01*
X155679800Y-117334500D02*
X138062500Y-117334500D01*
X156331000Y-117985700D02*
X155679800Y-117334500D01*
X138062500Y-117334500D02*
X136017000Y-119253000D01*
%TO.N,/CLK*%
X98552000Y-129413000D02*
X101092000Y-129413000D01*
X103632000Y-129413000D02*
X105537000Y-131318000D01*
X101092000Y-129413000D02*
X101727000Y-128778000D01*
X103632000Y-126238000D02*
X103632000Y-129413000D01*
X134929400Y-137408700D02*
X137668000Y-137408700D01*
X99822000Y-124333000D02*
X101727000Y-124333000D01*
X99822000Y-126873000D02*
X99187000Y-126238000D01*
X130302000Y-131318000D02*
X133477000Y-134493000D01*
X137668000Y-137408700D02*
X134801709Y-137408700D01*
X133477000Y-136083991D02*
X133477000Y-134493000D01*
X137668000Y-137408700D02*
X139070300Y-137408700D01*
X139070300Y-137408700D02*
X142494000Y-133985000D01*
X134801709Y-137408700D02*
X133477000Y-136083991D01*
X101727000Y-128778000D02*
X101727000Y-127508000D01*
X101092000Y-126873000D02*
X99822000Y-126873000D01*
X99187000Y-124968000D02*
X99822000Y-124333000D01*
X63627000Y-131953000D02*
X96012000Y-131953000D01*
X101727000Y-127508000D02*
X101092000Y-126873000D01*
X133477000Y-134493000D02*
X133477000Y-135956300D01*
X105537000Y-131318000D02*
X130302000Y-131318000D01*
X99187000Y-126238000D02*
X99187000Y-124968000D01*
X96012000Y-131953000D02*
X98552000Y-129413000D01*
X101727000Y-124333000D02*
X103632000Y-126238000D01*
X142494000Y-133985000D02*
X142494000Y-131191000D01*
%TO.N,/DTACKL*%
X190246000Y-110363000D02*
X190246000Y-111887000D01*
X180169700Y-129921000D02*
X185249700Y-124841000D01*
X175514000Y-131191000D02*
X175514000Y-133731000D01*
X186016800Y-124841000D02*
X190246000Y-120611800D01*
X176530000Y-129921000D02*
X180169700Y-129921000D01*
X185249700Y-124841000D02*
X186016800Y-124841000D01*
X188214000Y-72263000D02*
X188214000Y-69723000D01*
X190246000Y-120611800D02*
X190246000Y-111887000D01*
X190246000Y-111887000D02*
X193802000Y-115443000D01*
X175514000Y-130937000D02*
X176530000Y-129921000D01*
X175514000Y-133731000D02*
X175514000Y-136271000D01*
%TO.N,/GAL2_P9*%
X177764900Y-92672000D02*
X177764900Y-108366100D01*
X177764900Y-108366100D02*
X175514000Y-110617000D01*
X177878200Y-92558700D02*
X177764900Y-92672000D01*
%TO.N,/GAL2_P15*%
X166775400Y-108963500D02*
X167432700Y-109620800D01*
X174498000Y-92583000D02*
X173083200Y-93997800D01*
X167432700Y-118952300D02*
X165354000Y-121031000D01*
X168910000Y-101473000D02*
X167386000Y-101473000D01*
X166775400Y-102083600D02*
X166775400Y-108963500D01*
X167386000Y-101473000D02*
X166775400Y-102083600D01*
X173083200Y-93997800D02*
X173083200Y-97299800D01*
X173083200Y-97299800D02*
X168910000Y-101473000D01*
X167432700Y-109620800D02*
X167432700Y-118952300D01*
%TO.N,/CS175*%
X166624000Y-133731000D02*
X165354000Y-133731000D01*
X136144000Y-134493000D02*
X136144000Y-136271000D01*
X138300500Y-136908500D02*
X140008200Y-135200800D01*
X86487000Y-116078000D02*
X85852000Y-115443000D01*
X85852000Y-115443000D02*
X79490250Y-115443000D01*
X146470900Y-137453900D02*
X166457100Y-137453900D01*
X167132000Y-134239000D02*
X166624000Y-133731000D01*
X110852900Y-129812100D02*
X131572000Y-130048000D01*
X131572000Y-130048000D02*
X136144000Y-134493000D01*
X141224000Y-129667000D02*
X143764000Y-129667000D01*
X71247000Y-112268000D02*
X71247000Y-112178500D01*
X167132000Y-136779000D02*
X167132000Y-134239000D01*
X145034100Y-136017100D02*
X146470900Y-137453900D01*
X104267000Y-123063000D02*
X110852900Y-129812100D01*
X76315249Y-112268000D02*
X71247000Y-112268000D01*
X79490250Y-115443000D02*
X76315249Y-112268000D01*
X166457100Y-137453900D02*
X167132000Y-136779000D01*
X136898420Y-136909180D02*
X136899100Y-136908500D01*
X136144000Y-136271000D02*
X136782180Y-136909180D01*
X100457000Y-116078000D02*
X86487000Y-116078000D01*
X140008200Y-130882800D02*
X141224000Y-129667000D01*
X140008200Y-135200800D02*
X140008200Y-130882800D01*
X136782180Y-136909180D02*
X136898420Y-136909180D01*
X145034100Y-130937100D02*
X145034100Y-136017100D01*
X136899100Y-136908500D02*
X138300500Y-136908500D01*
X143764000Y-129667000D02*
X145034100Y-130937100D01*
%TO.N,/ROM_CE*%
X120777000Y-133383700D02*
X119473300Y-133383700D01*
X119473300Y-133383700D02*
X117094000Y-135763000D01*
D30*
%TO.N,+5V*%
X155194000Y-128611000D02*
X147534000Y-136271000D01*
X45282000Y-139573000D02*
X46861100Y-141152100D01*
X187706000Y-76835000D02*
X187706000Y-95203000D01*
X137287000Y-135763000D02*
X137414000Y-120523000D01*
X166699900Y-112383500D02*
X163849600Y-109533200D01*
X160792000Y-109533200D02*
X160571300Y-109753900D01*
X160782000Y-107823000D02*
X160782000Y-109173000D01*
X162140400Y-109533200D02*
X160792000Y-109533200D01*
X56007000Y-140335000D02*
X55316900Y-141152100D01*
X62230000Y-100711000D02*
X59690000Y-100711000D01*
X166699900Y-117145100D02*
X166699900Y-112383500D01*
X162140400Y-88861400D02*
X160782000Y-87503000D01*
X55316900Y-141152100D02*
X46861100Y-141152100D01*
X155194000Y-126111000D02*
X155194000Y-128611000D01*
X178054000Y-67183000D02*
X187706000Y-76835000D01*
X43942000Y-139573000D02*
X45282000Y-139573000D01*
X160792000Y-109533200D02*
X160792000Y-109183000D01*
X163710380Y-55379380D02*
X163710380Y-84574620D01*
X163849600Y-109533200D02*
X162140400Y-109533200D01*
X160792000Y-109183000D02*
X160782000Y-109173000D01*
X160571300Y-109753900D02*
X160571300Y-116547700D01*
X163710380Y-84574620D02*
X160782000Y-87503000D01*
X59690000Y-77851000D02*
X59690000Y-84455000D01*
X59690000Y-100711000D02*
X69342000Y-110363000D01*
X62230000Y-86995000D02*
X62230000Y-100711000D01*
X161798000Y-53467000D02*
X163710380Y-55379380D01*
X165354000Y-118491000D02*
X166699900Y-117145100D01*
X59690000Y-84455000D02*
X62230000Y-86995000D01*
X162140400Y-109533200D02*
X162140400Y-88861400D01*
D32*
%TO.N,/MUX*%
X171323000Y-100584000D02*
X172974000Y-98933000D01*
X169164000Y-107823000D02*
X173482000Y-112141000D01*
X173482000Y-112141000D02*
X176784000Y-112141000D01*
X168402000Y-107823000D02*
X169330700Y-107823000D01*
X172974000Y-98933000D02*
X175514000Y-98933000D01*
X169164000Y-107823000D02*
X168402000Y-107823000D01*
X168402000Y-87503000D02*
X174498000Y-87503000D01*
X169164000Y-107823000D02*
X171323000Y-105664000D01*
X171323000Y-105664000D02*
X171323000Y-100584000D01*
X175514000Y-98933000D02*
X176146700Y-98300300D01*
X178054000Y-110871000D02*
X176784000Y-112141000D01*
X176146700Y-98300300D02*
X176146700Y-89151700D01*
X176146700Y-89151700D02*
X174498000Y-87503000D01*
%TO.N,/CLKCT*%
X179366300Y-86892900D02*
X179159200Y-87100000D01*
X180086000Y-112395000D02*
X179324000Y-113157000D01*
X179159200Y-87100000D02*
X179159200Y-101403200D01*
X179324000Y-113919000D02*
X178562000Y-114681000D01*
X176530000Y-116205000D02*
X178054000Y-117729000D01*
X179324000Y-78613000D02*
X179366300Y-86892900D01*
X179159200Y-101403200D02*
X180086000Y-102330000D01*
X178054000Y-117729000D02*
X178054000Y-118491000D01*
X177292000Y-114681000D02*
X176530000Y-115443000D01*
X179324000Y-113157000D02*
X179324000Y-113919000D01*
X178562000Y-114681000D02*
X177292000Y-114681000D01*
X176530000Y-115443000D02*
X176530000Y-116205000D01*
X180086000Y-102330000D02*
X180086000Y-112395000D01*
%TO.N,/FDC_WPRT*%
X57277000Y-124333000D02*
X57277000Y-115443000D01*
X57277000Y-115443000D02*
X59817000Y-115443000D01*
X81407000Y-129413000D02*
X81407000Y-126238000D01*
X57912000Y-106553000D02*
X57912000Y-89789000D01*
X59817000Y-115443000D02*
X61087000Y-114173000D01*
X61087000Y-109728000D02*
X57912000Y-106553000D01*
X61087000Y-114173000D02*
X61087000Y-109728000D01*
X57912000Y-89789000D02*
X59690000Y-88011000D01*
X80772000Y-125603000D02*
X58547000Y-125603000D01*
X58547000Y-125603000D02*
X57277000Y-124333000D01*
X81407000Y-126238000D02*
X80772000Y-125603000D01*
%TO.N,/FDC_STEP*%
X72834500Y-130365500D02*
X61404500Y-130365500D01*
X61404500Y-130365500D02*
X58547000Y-133223000D01*
X58547000Y-133223000D02*
X58547000Y-135763000D01*
X73787000Y-129413000D02*
X72834500Y-130365500D01*
%TO.N,/FDC_RD*%
X66167000Y-129413000D02*
X54102000Y-129413000D01*
X53467000Y-128778000D02*
X53467000Y-110871000D01*
X53467000Y-110871000D02*
X56642000Y-110871000D01*
X54102000Y-129413000D02*
X53467000Y-128778000D01*
%TO.N,Net-(R5-Pad1)*%
X155194000Y-121031000D02*
X153797000Y-122428000D01*
X155194000Y-118491000D02*
X155194000Y-121031000D01*
X153797000Y-122428000D02*
X153797000Y-124968000D01*
X153797000Y-124968000D02*
X152654000Y-126111000D01*
%TO.N,Net-(R6-Pad1)*%
X142494000Y-126111000D02*
X147394000Y-131011000D01*
%TO.N,/MA8*%
X170406200Y-128143000D02*
X176022000Y-128143000D01*
X77470000Y-63373000D02*
X70612000Y-63373000D01*
X105042500Y-63373000D02*
X102997000Y-63373000D01*
X140716000Y-64643000D02*
X141986000Y-63373000D01*
X143874400Y-63373000D02*
X151731800Y-71230400D01*
X151731800Y-77817800D02*
X152527000Y-78613000D01*
X107442000Y-64643000D02*
X113157000Y-64643000D01*
X107442000Y-64643000D02*
X106172000Y-64643000D01*
X118001000Y-63518500D02*
X119121000Y-64638000D01*
X78740000Y-64643000D02*
X77470000Y-63373000D01*
X133490000Y-63513500D02*
X130162000Y-63513500D01*
X101732000Y-64638000D02*
X102997000Y-63373000D01*
X158242000Y-96393000D02*
X158242000Y-108458000D01*
X135890000Y-64643000D02*
X140716000Y-64643000D01*
X176022000Y-128143000D02*
X176784000Y-127381000D01*
X80010000Y-64643000D02*
X84111000Y-64643000D01*
X159475550Y-109691550D02*
X158242000Y-108458000D01*
X164084000Y-121820800D02*
X170406200Y-128143000D01*
X176784000Y-127381000D02*
X176784000Y-122301000D01*
X84111000Y-64643000D02*
X85235500Y-63518500D01*
X129037000Y-64638000D02*
X125222000Y-64638000D01*
X106172000Y-64643000D02*
X105042500Y-63373000D01*
X152527000Y-78613000D02*
X152527000Y-88900000D01*
X89299500Y-63518500D02*
X90419000Y-64638000D01*
X90419000Y-64638000D02*
X96637000Y-64638000D01*
X113157000Y-64643000D02*
X114281500Y-63518500D01*
X159475550Y-116749450D02*
X159475550Y-109691550D01*
X70612000Y-63373000D02*
X69342000Y-64643000D01*
X159475550Y-116749450D02*
X162487100Y-119761000D01*
X151731800Y-71230400D02*
X151731800Y-77817800D01*
X80010000Y-64643000D02*
X78740000Y-64643000D01*
X164084000Y-120707500D02*
X164084000Y-121820800D01*
X135890000Y-64643000D02*
X134620000Y-64643000D01*
X163137500Y-119761000D02*
X164084000Y-120707500D01*
X130162000Y-63513500D02*
X129037000Y-64638000D01*
X134620000Y-64643000D02*
X133490000Y-63513500D01*
X96637000Y-64638000D02*
X101732000Y-64638000D01*
X141986000Y-63373000D02*
X143874400Y-63373000D01*
X157607000Y-95758000D02*
X158242000Y-96393000D01*
X85235500Y-63518500D02*
X89299500Y-63518500D01*
X157607000Y-93980000D02*
X157607000Y-95758000D01*
X176784000Y-122301000D02*
X178054000Y-121031000D01*
X152527000Y-88900000D02*
X157607000Y-93980000D01*
X114281500Y-63518500D02*
X118001000Y-63518500D01*
X119121000Y-64638000D02*
X125222000Y-64638000D01*
X162487100Y-119761000D02*
X163137500Y-119761000D01*
%TO.N,Net-(U1-IO7)*%
X179832000Y-113665000D02*
X180721000Y-112776000D01*
X182118000Y-107315000D02*
X182118000Y-105283000D01*
X179832000Y-115189000D02*
X179832000Y-113665000D01*
X178054000Y-115951000D02*
X179070000Y-115951000D01*
X179070000Y-115951000D02*
X179832000Y-115189000D01*
X180721000Y-112776000D02*
X180721000Y-108712000D01*
X180721000Y-108712000D02*
X182118000Y-107315000D01*
%TO.N,/CAS*%
X135890000Y-69723000D02*
X139065000Y-69723000D01*
X125222000Y-69718000D02*
X126487000Y-68453000D01*
X140335000Y-68453000D02*
X141859000Y-68453000D01*
X80137000Y-69723000D02*
X83947000Y-69723000D01*
X108448000Y-68453000D02*
X123957000Y-68453000D01*
X89027000Y-68453000D02*
X90292000Y-69718000D01*
X105908000Y-68453000D02*
X107178000Y-69723000D01*
X78885500Y-68598500D02*
X80010000Y-69723000D01*
X107178000Y-69723000D02*
X108448000Y-68453000D01*
X96637000Y-69718000D02*
X101859000Y-69718000D01*
X134620000Y-68453000D02*
X135890000Y-69723000D01*
X85217000Y-68453000D02*
X89027000Y-68453000D01*
X139065000Y-69723000D02*
X140335000Y-68453000D01*
X101859000Y-69718000D02*
X103124000Y-68453000D01*
X126487000Y-68453000D02*
X134620000Y-68453000D01*
X123957000Y-68453000D02*
X125222000Y-69718000D01*
X83947000Y-69723000D02*
X85217000Y-68453000D01*
X90292000Y-69718000D02*
X96637000Y-69718000D01*
X69342000Y-69723000D02*
X73660000Y-69723000D01*
X74784500Y-68598500D02*
X78885500Y-68598500D01*
X103124000Y-68453000D02*
X105908000Y-68453000D01*
X73660000Y-69723000D02*
X74784500Y-68598500D01*
%TO.N,/RAS2*%
X143510000Y-69723000D02*
X140462000Y-69723000D01*
X171781500Y-93708200D02*
X167299200Y-93708200D01*
X143510000Y-69723000D02*
X150678900Y-76891900D01*
X167299200Y-93708200D02*
X166562500Y-92971500D01*
X175646600Y-96514400D02*
X175646600Y-92107800D01*
X174966200Y-91427400D02*
X174062300Y-91427400D01*
X150678900Y-76891900D02*
X150678900Y-90099900D01*
X174062300Y-91427400D02*
X171781500Y-93708200D01*
X132842000Y-69718000D02*
X134117000Y-70993000D01*
X175646600Y-92107800D02*
X174966200Y-91427400D01*
X150678900Y-90099900D02*
X151892000Y-91313000D01*
X174498000Y-97663000D02*
X175646600Y-96514400D01*
X140462000Y-69723000D02*
X139192000Y-70993000D01*
X134117000Y-70993000D02*
X139192000Y-70993000D01*
%TO.N,/RAS1*%
X113528000Y-70993000D02*
X105532000Y-70993000D01*
X129295200Y-75066200D02*
X130302000Y-76073000D01*
X147086400Y-82443400D02*
X147086400Y-115570300D01*
X140335000Y-78740000D02*
X143383000Y-78740000D01*
X172212000Y-105537000D02*
X172212000Y-101379392D01*
X172974000Y-108585000D02*
X172974000Y-106299000D01*
X114798000Y-69723000D02*
X113528000Y-70993000D01*
X172546196Y-101045196D02*
X173348000Y-100203000D01*
X164478900Y-111542100D02*
X163880000Y-112141000D01*
X163880000Y-112141000D02*
X161731700Y-112141000D01*
X172212000Y-101379392D02*
X172546196Y-101045196D01*
X105532000Y-70993000D02*
X104257000Y-69718000D01*
X143383000Y-78740000D02*
X147086400Y-82443400D01*
X130302000Y-76073000D02*
X137668000Y-76073000D01*
X161731700Y-112141000D02*
X161496400Y-111905700D01*
X172974000Y-106299000D02*
X172212000Y-105537000D01*
X173348000Y-100203000D02*
X174498000Y-100203000D01*
X137668000Y-76073000D02*
X140335000Y-78740000D01*
%TO.N,/RAS0*%
X166878000Y-83693000D02*
X169672000Y-83693000D01*
X156464000Y-54483000D02*
X160684100Y-50262900D01*
X176646800Y-100594200D02*
X174498000Y-102743000D01*
X76962000Y-69723000D02*
X78232000Y-70993000D01*
X172212000Y-86233000D02*
X174843600Y-86233000D01*
X176646800Y-88036200D02*
X176646800Y-100594200D01*
X152908000Y-52197000D02*
X155194000Y-54483000D01*
X87757000Y-69723000D02*
X86487000Y-70993000D01*
X95758000Y-52197000D02*
X152908000Y-52197000D01*
X86487000Y-70993000D02*
X78232000Y-70993000D01*
X94996000Y-52959000D02*
X95758000Y-52197000D01*
X174843600Y-86233000D02*
X176646800Y-88036200D01*
X155194000Y-54483000D02*
X156464000Y-54483000D01*
X164409900Y-81224900D02*
X166878000Y-83693000D01*
X162970100Y-50262900D02*
X164409900Y-51702700D01*
X160684100Y-50262900D02*
X162970100Y-50262900D01*
X164409900Y-51702700D02*
X164409900Y-81224900D01*
X169672000Y-83693000D02*
X172212000Y-86233000D01*
%TO.N,/MA0*%
X130307000Y-64638000D02*
X129032000Y-65913000D01*
X90273500Y-65762500D02*
X103132000Y-65762500D01*
X165298800Y-97099800D02*
X165298800Y-92966800D01*
X132842000Y-64638000D02*
X130307000Y-64638000D01*
X151224100Y-72357100D02*
X151224100Y-88613100D01*
X104257000Y-64638000D02*
X105387000Y-65767500D01*
X151224100Y-88613100D02*
X152654000Y-90043000D01*
X168402000Y-100203000D02*
X165298800Y-97099800D01*
X113673000Y-65767500D02*
X114798000Y-64643000D01*
X105387000Y-65767500D02*
X113673000Y-65767500D01*
X87630000Y-64643000D02*
X89154000Y-64643000D01*
X152654000Y-90043000D02*
X152649701Y-90047299D01*
X116840000Y-64643000D02*
X114798000Y-64643000D01*
X140462000Y-65913000D02*
X134117000Y-65913000D01*
X118110000Y-65913000D02*
X116840000Y-64643000D01*
X103132000Y-65762500D02*
X104257000Y-64638000D01*
X78232000Y-65913000D02*
X84074000Y-65913000D01*
X85344000Y-64643000D02*
X87630000Y-64643000D01*
X89154000Y-64643000D02*
X90273500Y-65762500D01*
X129032000Y-65913000D02*
X118110000Y-65913000D01*
X143510000Y-64643000D02*
X151224100Y-72357100D01*
X143510000Y-64643000D02*
X141732000Y-64643000D01*
X141732000Y-64643000D02*
X140462000Y-65913000D01*
X134117000Y-65913000D02*
X132842000Y-64638000D01*
X84074000Y-65913000D02*
X85344000Y-64643000D01*
X76962000Y-64643000D02*
X78232000Y-65913000D01*
%TO.N,/MA1*%
X101092000Y-63373000D02*
X90932000Y-63373000D01*
X89662000Y-62103000D02*
X87757000Y-62103000D01*
X129032000Y-63373000D02*
X130307000Y-62098000D01*
X90932000Y-63373000D02*
X89662000Y-62103000D01*
X112776000Y-63373000D02*
X114046000Y-62103000D01*
X153416000Y-78105000D02*
X153416000Y-88519000D01*
X143510000Y-62103000D02*
X152390200Y-70983200D01*
X141732000Y-62103000D02*
X140462000Y-63373000D01*
X117856000Y-62103000D02*
X119126000Y-63373000D01*
X130307000Y-62098000D02*
X132842000Y-62098000D01*
X102367000Y-62098000D02*
X101092000Y-63373000D01*
X114046000Y-62103000D02*
X115062000Y-62103000D01*
X119126000Y-63373000D02*
X129032000Y-63373000D01*
X78232000Y-62103000D02*
X76962000Y-62103000D01*
X79502000Y-63373000D02*
X78232000Y-62103000D01*
X104257000Y-62098000D02*
X105339000Y-62098000D01*
X152409800Y-77098800D02*
X153416000Y-78105000D01*
X84074000Y-63373000D02*
X79502000Y-63373000D01*
X85344000Y-62103000D02*
X84074000Y-63373000D01*
X133853000Y-62098000D02*
X132842000Y-62098000D01*
X106614000Y-63373000D02*
X112776000Y-63373000D01*
X153416000Y-88519000D02*
X153924000Y-89027000D01*
X105339000Y-62098000D02*
X106614000Y-63373000D01*
X104257000Y-62098000D02*
X102367000Y-62098000D01*
X114798000Y-62103000D02*
X117856000Y-62103000D01*
X135128000Y-63373000D02*
X133853000Y-62098000D01*
X140462000Y-63373000D02*
X135128000Y-63373000D01*
X89408000Y-62103000D02*
X85344000Y-62103000D01*
X152390200Y-77098800D02*
X152390200Y-70983200D01*
X152390200Y-77098800D02*
X152409800Y-77098800D01*
X143234000Y-62103000D02*
X141732000Y-62103000D01*
%TO.N,/MA6*%
X134874000Y-59563000D02*
X133604000Y-58293000D01*
X112014000Y-59563000D02*
X113284000Y-58293000D01*
X100447000Y-58293000D02*
X99182000Y-59558000D01*
X117856000Y-58293000D02*
X119121000Y-59558000D01*
X80010000Y-59563000D02*
X83820000Y-59563000D01*
X80010000Y-59563000D02*
X78740000Y-58293000D01*
X119121000Y-59558000D02*
X125222000Y-59558000D01*
X105537000Y-58293000D02*
X100447000Y-58293000D01*
X138291000Y-58293000D02*
X153162000Y-58293000D01*
X107442000Y-59563000D02*
X106807000Y-59563000D01*
X99182000Y-59558000D02*
X96637000Y-59558000D01*
X85090000Y-58293000D02*
X90180000Y-58293000D01*
X91445000Y-59558000D02*
X96637000Y-59558000D01*
X130302000Y-58293000D02*
X129037000Y-59558000D01*
X135890000Y-59563000D02*
X137021000Y-59563000D01*
X154432000Y-87249000D02*
X157226000Y-90043000D01*
X157226000Y-90043000D02*
X160782000Y-90043000D01*
X135890000Y-59563000D02*
X134874000Y-59563000D01*
X154432000Y-76327000D02*
X154432000Y-87249000D01*
X106807000Y-59563000D02*
X105537000Y-58293000D01*
X129037000Y-59558000D02*
X125222000Y-59558000D01*
X153670000Y-75565000D02*
X154432000Y-76327000D01*
X90180000Y-58293000D02*
X91445000Y-59558000D01*
X113284000Y-58293000D02*
X117856000Y-58293000D01*
X107178000Y-59563000D02*
X112014000Y-59563000D01*
X133604000Y-58293000D02*
X130302000Y-58293000D01*
X137021000Y-59563000D02*
X138291000Y-58293000D01*
X72390000Y-59563000D02*
X69342000Y-59563000D01*
X73660000Y-58293000D02*
X72390000Y-59563000D01*
X83820000Y-59563000D02*
X85090000Y-58293000D01*
X78740000Y-58293000D02*
X73660000Y-58293000D01*
X153162000Y-58293000D02*
X153670000Y-58801000D01*
X153670000Y-58801000D02*
X153670000Y-75565000D01*
%TO.N,/MA7*%
X80010000Y-62103000D02*
X84074000Y-62103000D01*
X90673000Y-62098000D02*
X89408000Y-60833000D01*
X104902000Y-60833000D02*
X101727000Y-60833000D01*
X100462000Y-62098000D02*
X96637000Y-62098000D01*
X159004000Y-92837000D02*
X153924000Y-87757000D01*
X153115300Y-70016400D02*
X153115300Y-76280300D01*
X130048000Y-60833000D02*
X128783000Y-62098000D01*
X80010000Y-62103000D02*
X79248000Y-62103000D01*
X133858000Y-60833000D02*
X130048000Y-60833000D01*
X70612000Y-60833000D02*
X69342000Y-62103000D01*
X113792000Y-60833000D02*
X112522000Y-62103000D01*
X85344000Y-60833000D02*
X89408000Y-60833000D01*
X159004000Y-95885000D02*
X160782000Y-97663000D01*
X138938000Y-62103000D02*
X140208000Y-60833000D01*
X101727000Y-60833000D02*
X100462000Y-62098000D01*
X79248000Y-62103000D02*
X77978000Y-60833000D01*
X77978000Y-60833000D02*
X70612000Y-60833000D01*
X135890000Y-62103000D02*
X135128000Y-62103000D01*
X140208000Y-60833000D02*
X143931900Y-60833000D01*
X135128000Y-62103000D02*
X133858000Y-60833000D01*
X96637000Y-62098000D02*
X90673000Y-62098000D01*
X153115300Y-76280300D02*
X153924000Y-77089000D01*
X125222000Y-62098000D02*
X119131000Y-62098000D01*
X153924000Y-77089000D02*
X153924000Y-87757000D01*
X119131000Y-62098000D02*
X117866000Y-60833000D01*
X128783000Y-62098000D02*
X125222000Y-62098000D01*
X117866000Y-60833000D02*
X113792000Y-60833000D01*
X135890000Y-62103000D02*
X138938000Y-62103000D01*
X159004000Y-95885000D02*
X159004000Y-92837000D01*
X143931900Y-60833000D02*
X153115300Y-70016400D01*
X112522000Y-62103000D02*
X106172000Y-62103000D01*
X106172000Y-62103000D02*
X104902000Y-60833000D01*
X84074000Y-62103000D02*
X85344000Y-60833000D01*
%TO.N,/MA2*%
X113538000Y-59563000D02*
X118110000Y-59563000D01*
X106807000Y-60833000D02*
X112268000Y-60833000D01*
X91186000Y-60833000D02*
X89916000Y-59563000D01*
X119380000Y-60833000D02*
X129032000Y-60833000D01*
X101097000Y-59558000D02*
X99822000Y-60833000D01*
X118110000Y-59563000D02*
X119380000Y-60833000D01*
X130307000Y-59558000D02*
X132842000Y-59558000D01*
X104257000Y-59558000D02*
X105532000Y-59558000D01*
X112268000Y-60833000D02*
X113538000Y-59563000D01*
X137922000Y-60833000D02*
X139192000Y-59563000D01*
X79502000Y-60833000D02*
X78232000Y-59563000D01*
X104257000Y-59558000D02*
X101097000Y-59558000D01*
X83820000Y-60833000D02*
X79502000Y-60833000D01*
X129032000Y-60833000D02*
X130307000Y-59558000D01*
X99822000Y-60833000D02*
X91186000Y-60833000D01*
X85090000Y-59563000D02*
X83820000Y-60833000D01*
X135128000Y-60833000D02*
X137922000Y-60833000D01*
X132842000Y-59558000D02*
X133853000Y-59558000D01*
X133853000Y-59558000D02*
X135128000Y-60833000D01*
X78232000Y-59563000D02*
X76962000Y-59563000D01*
X89916000Y-59563000D02*
X85090000Y-59563000D01*
X139192000Y-59563000D02*
X143510000Y-59563000D01*
X105532000Y-59558000D02*
X106807000Y-60833000D01*
%TO.N,/MA3*%
X133863000Y-57018000D02*
X132842000Y-57018000D01*
X78232000Y-57023000D02*
X76962000Y-57023000D01*
X137922000Y-57023000D02*
X136652000Y-58293000D01*
X111252000Y-58293000D02*
X112522000Y-57023000D01*
X117856000Y-57023000D02*
X119126000Y-58293000D01*
X104257000Y-57018000D02*
X105532000Y-57018000D01*
X91694000Y-58293000D02*
X90424000Y-57023000D01*
X130297000Y-57018000D02*
X132842000Y-57018000D01*
X83820000Y-58293000D02*
X79502000Y-58293000D01*
X85090000Y-57023000D02*
X83820000Y-58293000D01*
X105532000Y-57018000D02*
X106807000Y-58293000D01*
X104257000Y-57018000D02*
X99827000Y-57018000D01*
X129022000Y-58293000D02*
X130297000Y-57018000D01*
X112522000Y-57023000D02*
X117856000Y-57023000D01*
X106807000Y-58293000D02*
X111252000Y-58293000D01*
X119126000Y-58293000D02*
X129022000Y-58293000D01*
X98552000Y-58293000D02*
X91694000Y-58293000D01*
X135138000Y-58293000D02*
X133863000Y-57018000D01*
X79502000Y-58293000D02*
X78232000Y-57023000D01*
X143510000Y-57023000D02*
X137922000Y-57023000D01*
X99827000Y-57018000D02*
X98552000Y-58293000D01*
X90424000Y-57023000D02*
X85090000Y-57023000D01*
X136652000Y-58293000D02*
X135138000Y-58293000D01*
%TO.N,/MA4*%
X80010000Y-54483000D02*
X83566000Y-54483000D01*
X159766000Y-55753000D02*
X159766000Y-68707000D01*
X96637000Y-54478000D02*
X98049000Y-54478000D01*
X150876500Y-52959500D02*
X153416000Y-55499000D01*
X159512000Y-55499000D02*
X159766000Y-55753000D01*
X90424500Y-52958500D02*
X93726500Y-52958500D01*
X143002000Y-52958500D02*
X141224000Y-54483000D01*
X134366000Y-52959000D02*
X135890000Y-54483000D01*
X69342000Y-54483000D02*
X73152000Y-54483000D01*
X74676000Y-52959000D02*
X78486000Y-52959000D01*
X95246000Y-54478000D02*
X93726500Y-52958500D01*
X85090000Y-52959000D02*
X90424000Y-52959000D01*
X98049000Y-54478000D02*
X99314000Y-53213000D01*
X125222000Y-54478000D02*
X126741000Y-52959000D01*
X159766000Y-68707000D02*
X160782000Y-69723000D01*
X153416000Y-55499000D02*
X159512000Y-55499000D01*
X143003000Y-52958500D02*
X150876500Y-52958500D01*
X73152000Y-54483000D02*
X74676000Y-52959000D01*
X78486000Y-52959000D02*
X80010000Y-54483000D01*
X141224000Y-54483000D02*
X135890000Y-54483000D01*
X106172000Y-53213000D02*
X99314000Y-53213000D01*
X95246000Y-54478000D02*
X96637000Y-54478000D01*
X123703000Y-52959000D02*
X125222000Y-54478000D01*
X83566000Y-54483000D02*
X85090000Y-52959000D01*
X107442000Y-54483000D02*
X106172000Y-53213000D01*
X107178000Y-54483000D02*
X108458000Y-54483000D01*
X109982000Y-52959000D02*
X123703000Y-52959000D01*
X126741000Y-52959000D02*
X134366000Y-52959000D01*
X90424000Y-52959000D02*
X90424500Y-52958500D01*
X108458000Y-54483000D02*
X109982000Y-52959000D01*
%TO.N,/MA5*%
X74930000Y-55753000D02*
X73660000Y-57023000D01*
X125222000Y-57018000D02*
X129037000Y-57018000D01*
X78740000Y-55753000D02*
X74930000Y-55753000D01*
X145687000Y-55898500D02*
X137015000Y-55898500D01*
X137015000Y-55898500D02*
X135890000Y-57023000D01*
X109982000Y-57023000D02*
X107178000Y-57023000D01*
X134620000Y-55753000D02*
X135890000Y-57023000D01*
X111107000Y-55898500D02*
X109982000Y-57023000D01*
X125222000Y-57018000D02*
X118867000Y-57018000D01*
X98049000Y-57018000D02*
X99314000Y-55753000D01*
X99314000Y-55753000D02*
X106172000Y-55753000D01*
X159004000Y-56515000D02*
X158750000Y-56261000D01*
X90307500Y-55753000D02*
X91572500Y-57018000D01*
X159004000Y-75565000D02*
X159004000Y-56515000D01*
X80010000Y-57023000D02*
X83820000Y-57023000D01*
X117747000Y-55898500D02*
X111107000Y-55898500D01*
X146050000Y-56261000D02*
X145687000Y-55898500D01*
X160782000Y-77343000D02*
X159004000Y-75565000D01*
X96637000Y-57018000D02*
X98049000Y-57018000D01*
X91572500Y-57018000D02*
X96637000Y-57018000D01*
X158750000Y-56261000D02*
X146050000Y-56261000D01*
X130302000Y-55753000D02*
X134620000Y-55753000D01*
X85090000Y-55753000D02*
X90307500Y-55753000D01*
X83820000Y-57023000D02*
X85090000Y-55753000D01*
X107442000Y-57023000D02*
X106172000Y-55753000D01*
X129037000Y-57018000D02*
X130302000Y-55753000D01*
X118867000Y-57018000D02*
X117747000Y-55898500D01*
X80010000Y-57023000D02*
X78740000Y-55753000D01*
X73660000Y-57023000D02*
X69342000Y-57023000D01*
%TO.N,/FDC_WG*%
X95619000Y-134493000D02*
X99424000Y-130688000D01*
X72517000Y-134493000D02*
X95619000Y-134493000D01*
X99424000Y-130688000D02*
X100574000Y-130688000D01*
X71247000Y-135763000D02*
X72517000Y-134493000D01*
%TO.N,/FDC_DIR*%
X101727000Y-141478000D02*
X101699100Y-138457900D01*
X102997000Y-137160000D02*
X102997000Y-126873000D01*
X101699100Y-138457900D02*
X102997000Y-137160000D01*
X102997000Y-126873000D02*
X101732000Y-125608000D01*
X101732000Y-125608000D02*
X100574000Y-125608000D01*
%TD*%
%TA.AperFunction,Conductor*%
%TO.N,GND*%
G36*
X67757686Y-54001745D02*
G01*
X67804190Y-54055391D01*
X67815587Y-54107745D01*
X67817999Y-79120999D01*
X67818000Y-79121000D01*
X141674465Y-79121000D01*
X141742586Y-79141002D01*
X141769682Y-79164479D01*
X145003295Y-82895572D01*
X145032794Y-82960150D01*
X145034078Y-82977881D01*
X145049144Y-91924113D01*
X145029257Y-91992267D01*
X144975679Y-92038850D01*
X144924953Y-92050312D01*
X139715342Y-92125105D01*
X139715342Y-92125106D01*
X139700813Y-94362818D01*
X139680369Y-94430808D01*
X139626413Y-94476951D01*
X139574816Y-94488000D01*
X123444000Y-94488000D01*
X123444000Y-105918000D01*
X144908000Y-105918000D01*
X144976121Y-105938002D01*
X145022614Y-105991658D01*
X145034000Y-106044000D01*
X145034000Y-114809000D01*
X145013998Y-114877121D01*
X144960342Y-114923614D01*
X144908000Y-114935000D01*
X106806000Y-114935000D01*
X106737879Y-114914998D01*
X106691386Y-114861342D01*
X106680000Y-114809000D01*
X106680000Y-113030000D01*
X130937000Y-113030000D01*
X134620000Y-113030000D01*
X134620000Y-108331000D01*
X130937000Y-108331000D01*
X130937000Y-113030000D01*
X106680000Y-113030000D01*
X106680000Y-111757214D01*
X106700002Y-111689093D01*
X106753658Y-111642600D01*
X106804199Y-111631227D01*
X124460000Y-111379260D01*
X124460100Y-108839260D01*
X124460098Y-108839259D01*
X124460099Y-108839259D01*
X117982000Y-108839004D01*
X117913880Y-108818999D01*
X117867389Y-108765342D01*
X117856005Y-108713001D01*
X117856778Y-91569967D01*
X117856776Y-91569967D01*
X117856777Y-91569966D01*
X79625739Y-91685642D01*
X79557558Y-91665847D01*
X79510903Y-91612332D01*
X79499359Y-91560005D01*
X79496858Y-90679526D01*
X66674398Y-90720068D01*
X66606215Y-90700282D01*
X66559552Y-90646773D01*
X66548000Y-90594069D01*
X66548000Y-86233000D01*
X66547999Y-86232998D01*
X64262000Y-83946999D01*
X62108608Y-83947667D01*
X62040481Y-83927686D01*
X61993972Y-83874045D01*
X61982569Y-83821729D01*
X61982150Y-82931000D01*
X68029004Y-82931000D01*
X68048951Y-83159002D01*
X68108186Y-83380068D01*
X68108188Y-83380073D01*
X68204913Y-83587501D01*
X68254899Y-83658888D01*
X68942000Y-82971788D01*
X68942000Y-82983661D01*
X68969259Y-83085394D01*
X69021920Y-83176606D01*
X69096394Y-83251080D01*
X69187606Y-83303741D01*
X69289339Y-83331000D01*
X69301210Y-83331000D01*
X68614110Y-84018098D01*
X68614110Y-84018100D01*
X68685498Y-84068086D01*
X68892926Y-84164811D01*
X68892931Y-84164813D01*
X69113999Y-84224048D01*
X69113995Y-84224048D01*
X69342000Y-84243995D01*
X69570002Y-84224048D01*
X69791068Y-84164813D01*
X69791073Y-84164811D01*
X69998497Y-84068088D01*
X70069888Y-84018099D01*
X70069888Y-84018097D01*
X69382791Y-83331000D01*
X69394661Y-83331000D01*
X69496394Y-83303741D01*
X69587606Y-83251080D01*
X69662080Y-83176606D01*
X69714741Y-83085394D01*
X69742000Y-82983661D01*
X69742000Y-82971791D01*
X70429097Y-83658888D01*
X70429099Y-83658888D01*
X70479088Y-83587497D01*
X70575811Y-83380073D01*
X70575813Y-83380068D01*
X70635048Y-83159002D01*
X70654995Y-82931000D01*
X70654995Y-82930996D01*
X73386901Y-82930996D01*
X73386901Y-82931003D01*
X73405251Y-83117323D01*
X73405253Y-83117334D01*
X73459601Y-83296496D01*
X73459603Y-83296500D01*
X73478044Y-83331000D01*
X73547864Y-83461625D01*
X73666643Y-83606357D01*
X73811375Y-83725136D01*
X73859517Y-83750868D01*
X73976499Y-83813396D01*
X73976503Y-83813398D01*
X74155665Y-83867746D01*
X74155666Y-83867746D01*
X74155669Y-83867747D01*
X74155672Y-83867747D01*
X74155676Y-83867748D01*
X74341997Y-83886099D01*
X74342000Y-83886099D01*
X74342003Y-83886099D01*
X74528323Y-83867748D01*
X74528325Y-83867747D01*
X74528331Y-83867747D01*
X74556449Y-83859217D01*
X74707496Y-83813398D01*
X74707498Y-83813396D01*
X74707501Y-83813396D01*
X74872625Y-83725136D01*
X75017357Y-83606357D01*
X75136136Y-83461625D01*
X75224396Y-83296501D01*
X75226305Y-83290210D01*
X75278746Y-83117334D01*
X75278748Y-83117323D01*
X75297099Y-82931003D01*
X75297099Y-82931000D01*
X78697004Y-82931000D01*
X78716951Y-83159002D01*
X78776186Y-83380068D01*
X78776188Y-83380073D01*
X78872913Y-83587501D01*
X78922899Y-83658888D01*
X79610000Y-82971788D01*
X79610000Y-82983661D01*
X79637259Y-83085394D01*
X79689920Y-83176606D01*
X79764394Y-83251080D01*
X79855606Y-83303741D01*
X79957339Y-83331000D01*
X79969210Y-83331000D01*
X79282110Y-84018098D01*
X79282110Y-84018100D01*
X79353498Y-84068086D01*
X79560926Y-84164811D01*
X79560931Y-84164813D01*
X79781999Y-84224048D01*
X79781995Y-84224048D01*
X80010000Y-84243995D01*
X80238002Y-84224048D01*
X80459068Y-84164813D01*
X80459073Y-84164811D01*
X80666497Y-84068088D01*
X80737888Y-84018099D01*
X80737888Y-84018097D01*
X80050791Y-83331000D01*
X80062661Y-83331000D01*
X80164394Y-83303741D01*
X80255606Y-83251080D01*
X80330080Y-83176606D01*
X80382741Y-83085394D01*
X80410000Y-82983661D01*
X80410000Y-82971791D01*
X81097097Y-83658888D01*
X81097099Y-83658888D01*
X81147088Y-83587497D01*
X81243811Y-83380073D01*
X81243813Y-83380068D01*
X81303048Y-83159002D01*
X81322995Y-82931000D01*
X81322995Y-82930996D01*
X84054901Y-82930996D01*
X84054901Y-82931003D01*
X84073251Y-83117323D01*
X84073253Y-83117334D01*
X84127601Y-83296496D01*
X84127603Y-83296500D01*
X84146044Y-83331000D01*
X84215864Y-83461625D01*
X84334643Y-83606357D01*
X84479375Y-83725136D01*
X84527517Y-83750868D01*
X84644499Y-83813396D01*
X84644503Y-83813398D01*
X84823665Y-83867746D01*
X84823666Y-83867746D01*
X84823669Y-83867747D01*
X84823672Y-83867747D01*
X84823676Y-83867748D01*
X85009997Y-83886099D01*
X85010000Y-83886099D01*
X85010003Y-83886099D01*
X85196323Y-83867748D01*
X85196325Y-83867747D01*
X85196331Y-83867747D01*
X85224449Y-83859217D01*
X85375496Y-83813398D01*
X85375498Y-83813396D01*
X85375501Y-83813396D01*
X85540625Y-83725136D01*
X85685357Y-83606357D01*
X85804136Y-83461625D01*
X85892396Y-83296501D01*
X85894305Y-83290210D01*
X85946746Y-83117334D01*
X85946748Y-83117323D01*
X85965099Y-82931003D01*
X85965099Y-82931000D01*
X95334004Y-82931000D01*
X95353951Y-83159002D01*
X95413186Y-83380068D01*
X95413188Y-83380073D01*
X95509913Y-83587501D01*
X95559899Y-83658888D01*
X96247000Y-82971788D01*
X96247000Y-82983661D01*
X96274259Y-83085394D01*
X96326920Y-83176606D01*
X96401394Y-83251080D01*
X96492606Y-83303741D01*
X96594339Y-83331000D01*
X96606210Y-83331000D01*
X95919110Y-84018098D01*
X95919110Y-84018100D01*
X95990498Y-84068086D01*
X96197926Y-84164811D01*
X96197931Y-84164813D01*
X96418999Y-84224048D01*
X96418995Y-84224048D01*
X96647000Y-84243995D01*
X96875002Y-84224048D01*
X97096068Y-84164813D01*
X97096073Y-84164811D01*
X97303497Y-84068088D01*
X97374888Y-84018099D01*
X97374888Y-84018097D01*
X96687791Y-83331000D01*
X96699661Y-83331000D01*
X96801394Y-83303741D01*
X96892606Y-83251080D01*
X96967080Y-83176606D01*
X97019741Y-83085394D01*
X97047000Y-82983661D01*
X97047000Y-82971791D01*
X97734097Y-83658888D01*
X97734099Y-83658888D01*
X97784088Y-83587497D01*
X97880811Y-83380073D01*
X97880813Y-83380068D01*
X97940048Y-83159002D01*
X97959995Y-82931000D01*
X97959995Y-82930996D01*
X100691901Y-82930996D01*
X100691901Y-82931003D01*
X100710251Y-83117323D01*
X100710253Y-83117334D01*
X100764601Y-83296496D01*
X100764603Y-83296500D01*
X100783044Y-83331000D01*
X100852864Y-83461625D01*
X100971643Y-83606357D01*
X101116375Y-83725136D01*
X101164517Y-83750868D01*
X101281499Y-83813396D01*
X101281503Y-83813398D01*
X101460665Y-83867746D01*
X101460666Y-83867746D01*
X101460669Y-83867747D01*
X101460672Y-83867747D01*
X101460676Y-83867748D01*
X101646997Y-83886099D01*
X101647000Y-83886099D01*
X101647003Y-83886099D01*
X101833323Y-83867748D01*
X101833325Y-83867747D01*
X101833331Y-83867747D01*
X101861449Y-83859217D01*
X102012496Y-83813398D01*
X102012498Y-83813396D01*
X102012501Y-83813396D01*
X102177625Y-83725136D01*
X102322357Y-83606357D01*
X102441136Y-83461625D01*
X102529396Y-83296501D01*
X102531305Y-83290210D01*
X102583746Y-83117334D01*
X102583748Y-83117323D01*
X102602099Y-82931003D01*
X102602099Y-82931000D01*
X106129004Y-82931000D01*
X106148951Y-83159002D01*
X106208186Y-83380068D01*
X106208188Y-83380073D01*
X106304913Y-83587501D01*
X106354899Y-83658888D01*
X107042000Y-82971788D01*
X107042000Y-82983661D01*
X107069259Y-83085394D01*
X107121920Y-83176606D01*
X107196394Y-83251080D01*
X107287606Y-83303741D01*
X107389339Y-83331000D01*
X107401210Y-83331000D01*
X106714110Y-84018098D01*
X106714110Y-84018100D01*
X106785498Y-84068086D01*
X106992926Y-84164811D01*
X106992931Y-84164813D01*
X107213999Y-84224048D01*
X107213995Y-84224048D01*
X107442000Y-84243995D01*
X107670002Y-84224048D01*
X107891068Y-84164813D01*
X107891073Y-84164811D01*
X108098497Y-84068088D01*
X108169888Y-84018099D01*
X108169888Y-84018097D01*
X107482791Y-83331000D01*
X107494661Y-83331000D01*
X107596394Y-83303741D01*
X107687606Y-83251080D01*
X107762080Y-83176606D01*
X107814741Y-83085394D01*
X107842000Y-82983661D01*
X107842000Y-82971791D01*
X108529097Y-83658888D01*
X108529099Y-83658888D01*
X108579088Y-83587497D01*
X108675811Y-83380073D01*
X108675813Y-83380068D01*
X108735048Y-83159002D01*
X108754995Y-82931000D01*
X108754995Y-82930996D01*
X111486901Y-82930996D01*
X111486901Y-82931003D01*
X111505251Y-83117323D01*
X111505253Y-83117334D01*
X111559601Y-83296496D01*
X111559603Y-83296500D01*
X111578044Y-83331000D01*
X111647864Y-83461625D01*
X111766643Y-83606357D01*
X111911375Y-83725136D01*
X111959517Y-83750868D01*
X112076499Y-83813396D01*
X112076503Y-83813398D01*
X112255665Y-83867746D01*
X112255666Y-83867746D01*
X112255669Y-83867747D01*
X112255672Y-83867747D01*
X112255676Y-83867748D01*
X112441997Y-83886099D01*
X112442000Y-83886099D01*
X112442003Y-83886099D01*
X112628323Y-83867748D01*
X112628325Y-83867747D01*
X112628331Y-83867747D01*
X112656449Y-83859217D01*
X112807496Y-83813398D01*
X112807498Y-83813396D01*
X112807501Y-83813396D01*
X112972625Y-83725136D01*
X113117357Y-83606357D01*
X113236136Y-83461625D01*
X113324396Y-83296501D01*
X113326305Y-83290210D01*
X113378746Y-83117334D01*
X113378748Y-83117323D01*
X113397099Y-82931003D01*
X113397099Y-82931000D01*
X123909004Y-82931000D01*
X123928951Y-83159002D01*
X123988186Y-83380068D01*
X123988188Y-83380073D01*
X124084913Y-83587501D01*
X124134899Y-83658888D01*
X124822000Y-82971788D01*
X124822000Y-82983661D01*
X124849259Y-83085394D01*
X124901920Y-83176606D01*
X124976394Y-83251080D01*
X125067606Y-83303741D01*
X125169339Y-83331000D01*
X125181210Y-83331000D01*
X124494110Y-84018098D01*
X124494110Y-84018100D01*
X124565498Y-84068086D01*
X124772926Y-84164811D01*
X124772931Y-84164813D01*
X124993999Y-84224048D01*
X124993995Y-84224048D01*
X125222000Y-84243995D01*
X125450002Y-84224048D01*
X125671068Y-84164813D01*
X125671073Y-84164811D01*
X125878497Y-84068088D01*
X125949888Y-84018099D01*
X125949888Y-84018097D01*
X125262791Y-83331000D01*
X125274661Y-83331000D01*
X125376394Y-83303741D01*
X125467606Y-83251080D01*
X125542080Y-83176606D01*
X125594741Y-83085394D01*
X125622000Y-82983661D01*
X125622000Y-82971791D01*
X126309097Y-83658888D01*
X126309099Y-83658888D01*
X126359088Y-83587497D01*
X126455811Y-83380073D01*
X126455813Y-83380068D01*
X126515048Y-83159002D01*
X126534995Y-82931000D01*
X126534995Y-82930996D01*
X129266901Y-82930996D01*
X129266901Y-82931003D01*
X129285251Y-83117323D01*
X129285253Y-83117334D01*
X129339601Y-83296496D01*
X129339603Y-83296500D01*
X129358044Y-83331000D01*
X129427864Y-83461625D01*
X129546643Y-83606357D01*
X129691375Y-83725136D01*
X129739517Y-83750868D01*
X129856499Y-83813396D01*
X129856503Y-83813398D01*
X130035665Y-83867746D01*
X130035666Y-83867746D01*
X130035669Y-83867747D01*
X130035672Y-83867747D01*
X130035676Y-83867748D01*
X130221997Y-83886099D01*
X130222000Y-83886099D01*
X130222003Y-83886099D01*
X130408323Y-83867748D01*
X130408325Y-83867747D01*
X130408331Y-83867747D01*
X130436449Y-83859217D01*
X130587496Y-83813398D01*
X130587498Y-83813396D01*
X130587501Y-83813396D01*
X130752625Y-83725136D01*
X130897357Y-83606357D01*
X131016136Y-83461625D01*
X131104396Y-83296501D01*
X131106305Y-83290210D01*
X131158746Y-83117334D01*
X131158748Y-83117323D01*
X131177099Y-82931003D01*
X131177099Y-82931000D01*
X134577004Y-82931000D01*
X134596951Y-83159002D01*
X134656186Y-83380068D01*
X134656188Y-83380073D01*
X134752913Y-83587501D01*
X134802899Y-83658888D01*
X135490000Y-82971788D01*
X135490000Y-82983661D01*
X135517259Y-83085394D01*
X135569920Y-83176606D01*
X135644394Y-83251080D01*
X135735606Y-83303741D01*
X135837339Y-83331000D01*
X135849210Y-83331000D01*
X135162110Y-84018098D01*
X135162110Y-84018100D01*
X135233498Y-84068086D01*
X135440926Y-84164811D01*
X135440931Y-84164813D01*
X135661999Y-84224048D01*
X135661995Y-84224048D01*
X135890000Y-84243995D01*
X136118002Y-84224048D01*
X136339068Y-84164813D01*
X136339073Y-84164811D01*
X136546497Y-84068088D01*
X136617888Y-84018099D01*
X136617888Y-84018097D01*
X135930791Y-83331000D01*
X135942661Y-83331000D01*
X136044394Y-83303741D01*
X136135606Y-83251080D01*
X136210080Y-83176606D01*
X136262741Y-83085394D01*
X136290000Y-82983661D01*
X136290000Y-82971791D01*
X136977097Y-83658888D01*
X136977099Y-83658888D01*
X137027088Y-83587497D01*
X137123811Y-83380073D01*
X137123813Y-83380068D01*
X137183048Y-83159002D01*
X137202995Y-82931000D01*
X137202995Y-82930996D01*
X139934901Y-82930996D01*
X139934901Y-82931003D01*
X139953251Y-83117323D01*
X139953253Y-83117334D01*
X140007601Y-83296496D01*
X140007603Y-83296500D01*
X140026044Y-83331000D01*
X140095864Y-83461625D01*
X140214643Y-83606357D01*
X140359375Y-83725136D01*
X140407517Y-83750868D01*
X140524499Y-83813396D01*
X140524503Y-83813398D01*
X140703665Y-83867746D01*
X140703666Y-83867746D01*
X140703669Y-83867747D01*
X140703672Y-83867747D01*
X140703676Y-83867748D01*
X140889997Y-83886099D01*
X140890000Y-83886099D01*
X140890003Y-83886099D01*
X141076323Y-83867748D01*
X141076325Y-83867747D01*
X141076331Y-83867747D01*
X141104449Y-83859217D01*
X141255496Y-83813398D01*
X141255498Y-83813396D01*
X141255501Y-83813396D01*
X141420625Y-83725136D01*
X141565357Y-83606357D01*
X141684136Y-83461625D01*
X141772396Y-83296501D01*
X141774305Y-83290210D01*
X141826746Y-83117334D01*
X141826748Y-83117323D01*
X141845099Y-82931003D01*
X141845099Y-82930996D01*
X141826748Y-82744676D01*
X141826746Y-82744665D01*
X141772398Y-82565503D01*
X141772396Y-82565499D01*
X141727728Y-82481931D01*
X141684136Y-82400375D01*
X141565357Y-82255643D01*
X141420625Y-82136864D01*
X141385114Y-82117883D01*
X141255500Y-82048603D01*
X141255496Y-82048601D01*
X141076334Y-81994253D01*
X141076323Y-81994251D01*
X140890003Y-81975901D01*
X140889997Y-81975901D01*
X140703676Y-81994251D01*
X140703665Y-81994253D01*
X140524503Y-82048601D01*
X140524499Y-82048603D01*
X140359374Y-82136864D01*
X140214643Y-82255643D01*
X140095864Y-82400374D01*
X140007603Y-82565499D01*
X140007601Y-82565503D01*
X139953253Y-82744665D01*
X139953251Y-82744676D01*
X139934901Y-82930996D01*
X137202995Y-82930996D01*
X137183048Y-82702997D01*
X137123813Y-82481931D01*
X137123811Y-82481926D01*
X137027086Y-82274498D01*
X136977100Y-82203110D01*
X136977098Y-82203110D01*
X136290000Y-82890208D01*
X136290000Y-82878339D01*
X136262741Y-82776606D01*
X136210080Y-82685394D01*
X136135606Y-82610920D01*
X136044394Y-82558259D01*
X135942661Y-82531000D01*
X135930790Y-82531000D01*
X136617888Y-81843899D01*
X136617888Y-81843898D01*
X136546501Y-81793913D01*
X136339073Y-81697188D01*
X136339068Y-81697186D01*
X136118000Y-81637951D01*
X136118004Y-81637951D01*
X135890000Y-81618004D01*
X135661997Y-81637951D01*
X135440931Y-81697186D01*
X135440926Y-81697188D01*
X135233500Y-81793913D01*
X135162109Y-81843900D01*
X135849209Y-82531000D01*
X135837339Y-82531000D01*
X135735606Y-82558259D01*
X135644394Y-82610920D01*
X135569920Y-82685394D01*
X135517259Y-82776606D01*
X135490000Y-82878339D01*
X135490000Y-82890209D01*
X134802900Y-82203109D01*
X134752913Y-82274500D01*
X134656188Y-82481926D01*
X134656186Y-82481931D01*
X134596951Y-82702997D01*
X134577004Y-82931000D01*
X131177099Y-82931000D01*
X131177099Y-82930996D01*
X131158748Y-82744676D01*
X131158746Y-82744665D01*
X131104398Y-82565503D01*
X131104396Y-82565499D01*
X131059728Y-82481931D01*
X131016136Y-82400375D01*
X130897357Y-82255643D01*
X130752625Y-82136864D01*
X130717114Y-82117883D01*
X130587500Y-82048603D01*
X130587496Y-82048601D01*
X130408334Y-81994253D01*
X130408323Y-81994251D01*
X130222003Y-81975901D01*
X130221997Y-81975901D01*
X130035676Y-81994251D01*
X130035665Y-81994253D01*
X129856503Y-82048601D01*
X129856499Y-82048603D01*
X129691374Y-82136864D01*
X129546643Y-82255643D01*
X129427864Y-82400374D01*
X129339603Y-82565499D01*
X129339601Y-82565503D01*
X129285253Y-82744665D01*
X129285251Y-82744676D01*
X129266901Y-82930996D01*
X126534995Y-82930996D01*
X126515048Y-82702997D01*
X126455813Y-82481931D01*
X126455811Y-82481926D01*
X126359086Y-82274498D01*
X126309100Y-82203110D01*
X126309098Y-82203110D01*
X125622000Y-82890208D01*
X125622000Y-82878339D01*
X125594741Y-82776606D01*
X125542080Y-82685394D01*
X125467606Y-82610920D01*
X125376394Y-82558259D01*
X125274661Y-82531000D01*
X125262790Y-82531000D01*
X125949888Y-81843899D01*
X125949888Y-81843898D01*
X125878501Y-81793913D01*
X125671073Y-81697188D01*
X125671068Y-81697186D01*
X125450000Y-81637951D01*
X125450004Y-81637951D01*
X125222000Y-81618004D01*
X124993997Y-81637951D01*
X124772931Y-81697186D01*
X124772926Y-81697188D01*
X124565500Y-81793913D01*
X124494109Y-81843900D01*
X125181209Y-82531000D01*
X125169339Y-82531000D01*
X125067606Y-82558259D01*
X124976394Y-82610920D01*
X124901920Y-82685394D01*
X124849259Y-82776606D01*
X124822000Y-82878339D01*
X124822000Y-82890209D01*
X124134900Y-82203109D01*
X124084913Y-82274500D01*
X123988188Y-82481926D01*
X123988186Y-82481931D01*
X123928951Y-82702997D01*
X123909004Y-82931000D01*
X113397099Y-82931000D01*
X113397099Y-82930996D01*
X113378748Y-82744676D01*
X113378746Y-82744665D01*
X113324398Y-82565503D01*
X113324396Y-82565499D01*
X113279728Y-82481931D01*
X113236136Y-82400375D01*
X113117357Y-82255643D01*
X112972625Y-82136864D01*
X112937114Y-82117883D01*
X112807500Y-82048603D01*
X112807496Y-82048601D01*
X112628334Y-81994253D01*
X112628323Y-81994251D01*
X112442003Y-81975901D01*
X112441997Y-81975901D01*
X112255676Y-81994251D01*
X112255665Y-81994253D01*
X112076503Y-82048601D01*
X112076499Y-82048603D01*
X111911374Y-82136864D01*
X111766643Y-82255643D01*
X111647864Y-82400374D01*
X111559603Y-82565499D01*
X111559601Y-82565503D01*
X111505253Y-82744665D01*
X111505251Y-82744676D01*
X111486901Y-82930996D01*
X108754995Y-82930996D01*
X108735048Y-82702997D01*
X108675813Y-82481931D01*
X108675811Y-82481926D01*
X108579086Y-82274498D01*
X108529100Y-82203110D01*
X108529098Y-82203110D01*
X107842000Y-82890208D01*
X107842000Y-82878339D01*
X107814741Y-82776606D01*
X107762080Y-82685394D01*
X107687606Y-82610920D01*
X107596394Y-82558259D01*
X107494661Y-82531000D01*
X107482790Y-82531000D01*
X108169888Y-81843899D01*
X108169888Y-81843898D01*
X108098501Y-81793913D01*
X107891073Y-81697188D01*
X107891068Y-81697186D01*
X107670000Y-81637951D01*
X107670004Y-81637951D01*
X107442000Y-81618004D01*
X107213997Y-81637951D01*
X106992931Y-81697186D01*
X106992926Y-81697188D01*
X106785500Y-81793913D01*
X106714109Y-81843900D01*
X107401209Y-82531000D01*
X107389339Y-82531000D01*
X107287606Y-82558259D01*
X107196394Y-82610920D01*
X107121920Y-82685394D01*
X107069259Y-82776606D01*
X107042000Y-82878339D01*
X107042000Y-82890209D01*
X106354900Y-82203109D01*
X106304913Y-82274500D01*
X106208188Y-82481926D01*
X106208186Y-82481931D01*
X106148951Y-82702997D01*
X106129004Y-82931000D01*
X102602099Y-82931000D01*
X102602099Y-82930996D01*
X102583748Y-82744676D01*
X102583746Y-82744665D01*
X102529398Y-82565503D01*
X102529396Y-82565499D01*
X102484728Y-82481931D01*
X102441136Y-82400375D01*
X102322357Y-82255643D01*
X102177625Y-82136864D01*
X102142114Y-82117883D01*
X102012500Y-82048603D01*
X102012496Y-82048601D01*
X101833334Y-81994253D01*
X101833323Y-81994251D01*
X101647003Y-81975901D01*
X101646997Y-81975901D01*
X101460676Y-81994251D01*
X101460665Y-81994253D01*
X101281503Y-82048601D01*
X101281499Y-82048603D01*
X101116374Y-82136864D01*
X100971643Y-82255643D01*
X100852864Y-82400374D01*
X100764603Y-82565499D01*
X100764601Y-82565503D01*
X100710253Y-82744665D01*
X100710251Y-82744676D01*
X100691901Y-82930996D01*
X97959995Y-82930996D01*
X97940048Y-82702997D01*
X97880813Y-82481931D01*
X97880811Y-82481926D01*
X97784086Y-82274498D01*
X97734100Y-82203110D01*
X97734098Y-82203110D01*
X97047000Y-82890208D01*
X97047000Y-82878339D01*
X97019741Y-82776606D01*
X96967080Y-82685394D01*
X96892606Y-82610920D01*
X96801394Y-82558259D01*
X96699661Y-82531000D01*
X96687790Y-82531000D01*
X97374888Y-81843899D01*
X97374888Y-81843898D01*
X97303501Y-81793913D01*
X97096073Y-81697188D01*
X97096068Y-81697186D01*
X96875000Y-81637951D01*
X96875004Y-81637951D01*
X96647000Y-81618004D01*
X96418997Y-81637951D01*
X96197931Y-81697186D01*
X96197926Y-81697188D01*
X95990500Y-81793913D01*
X95919109Y-81843900D01*
X96606209Y-82531000D01*
X96594339Y-82531000D01*
X96492606Y-82558259D01*
X96401394Y-82610920D01*
X96326920Y-82685394D01*
X96274259Y-82776606D01*
X96247000Y-82878339D01*
X96247000Y-82890209D01*
X95559900Y-82203109D01*
X95509913Y-82274500D01*
X95413188Y-82481926D01*
X95413186Y-82481931D01*
X95353951Y-82702997D01*
X95334004Y-82931000D01*
X85965099Y-82931000D01*
X85965099Y-82930996D01*
X85946748Y-82744676D01*
X85946746Y-82744665D01*
X85892398Y-82565503D01*
X85892396Y-82565499D01*
X85847728Y-82481931D01*
X85804136Y-82400375D01*
X85685357Y-82255643D01*
X85540625Y-82136864D01*
X85505114Y-82117883D01*
X85375500Y-82048603D01*
X85375496Y-82048601D01*
X85196334Y-81994253D01*
X85196323Y-81994251D01*
X85010003Y-81975901D01*
X85009997Y-81975901D01*
X84823676Y-81994251D01*
X84823665Y-81994253D01*
X84644503Y-82048601D01*
X84644499Y-82048603D01*
X84479374Y-82136864D01*
X84334643Y-82255643D01*
X84215864Y-82400374D01*
X84127603Y-82565499D01*
X84127601Y-82565503D01*
X84073253Y-82744665D01*
X84073251Y-82744676D01*
X84054901Y-82930996D01*
X81322995Y-82930996D01*
X81303048Y-82702997D01*
X81243813Y-82481931D01*
X81243811Y-82481926D01*
X81147086Y-82274498D01*
X81097100Y-82203110D01*
X81097098Y-82203110D01*
X80410000Y-82890208D01*
X80410000Y-82878339D01*
X80382741Y-82776606D01*
X80330080Y-82685394D01*
X80255606Y-82610920D01*
X80164394Y-82558259D01*
X80062661Y-82531000D01*
X80050790Y-82531000D01*
X80737888Y-81843899D01*
X80737888Y-81843898D01*
X80666501Y-81793913D01*
X80459073Y-81697188D01*
X80459068Y-81697186D01*
X80238000Y-81637951D01*
X80238004Y-81637951D01*
X80010000Y-81618004D01*
X79781997Y-81637951D01*
X79560931Y-81697186D01*
X79560926Y-81697188D01*
X79353500Y-81793913D01*
X79282109Y-81843900D01*
X79969209Y-82531000D01*
X79957339Y-82531000D01*
X79855606Y-82558259D01*
X79764394Y-82610920D01*
X79689920Y-82685394D01*
X79637259Y-82776606D01*
X79610000Y-82878339D01*
X79610000Y-82890209D01*
X78922900Y-82203109D01*
X78872913Y-82274500D01*
X78776188Y-82481926D01*
X78776186Y-82481931D01*
X78716951Y-82702997D01*
X78697004Y-82931000D01*
X75297099Y-82931000D01*
X75297099Y-82930996D01*
X75278748Y-82744676D01*
X75278746Y-82744665D01*
X75224398Y-82565503D01*
X75224396Y-82565499D01*
X75179728Y-82481931D01*
X75136136Y-82400375D01*
X75017357Y-82255643D01*
X74872625Y-82136864D01*
X74837114Y-82117883D01*
X74707500Y-82048603D01*
X74707496Y-82048601D01*
X74528334Y-81994253D01*
X74528323Y-81994251D01*
X74342003Y-81975901D01*
X74341997Y-81975901D01*
X74155676Y-81994251D01*
X74155665Y-81994253D01*
X73976503Y-82048601D01*
X73976499Y-82048603D01*
X73811374Y-82136864D01*
X73666643Y-82255643D01*
X73547864Y-82400374D01*
X73459603Y-82565499D01*
X73459601Y-82565503D01*
X73405253Y-82744665D01*
X73405251Y-82744676D01*
X73386901Y-82930996D01*
X70654995Y-82930996D01*
X70635048Y-82702997D01*
X70575813Y-82481931D01*
X70575811Y-82481926D01*
X70479086Y-82274498D01*
X70429100Y-82203110D01*
X70429098Y-82203110D01*
X69742000Y-82890208D01*
X69742000Y-82878339D01*
X69714741Y-82776606D01*
X69662080Y-82685394D01*
X69587606Y-82610920D01*
X69496394Y-82558259D01*
X69394661Y-82531000D01*
X69382790Y-82531000D01*
X70069888Y-81843899D01*
X70069888Y-81843898D01*
X69998501Y-81793913D01*
X69791073Y-81697188D01*
X69791068Y-81697186D01*
X69570000Y-81637951D01*
X69570004Y-81637951D01*
X69342000Y-81618004D01*
X69113997Y-81637951D01*
X68892931Y-81697186D01*
X68892926Y-81697188D01*
X68685500Y-81793913D01*
X68614109Y-81843900D01*
X69301209Y-82531000D01*
X69289339Y-82531000D01*
X69187606Y-82558259D01*
X69096394Y-82610920D01*
X69021920Y-82685394D01*
X68969259Y-82776606D01*
X68942000Y-82878339D01*
X68942000Y-82890209D01*
X68254900Y-82203109D01*
X68204913Y-82274500D01*
X68108188Y-82481926D01*
X68108186Y-82481931D01*
X68048951Y-82702997D01*
X68029004Y-82931000D01*
X61982150Y-82931000D01*
X61978924Y-76073716D01*
X61978923Y-76073715D01*
X53719335Y-76073341D01*
X53651215Y-76053336D01*
X53604725Y-75999678D01*
X53593341Y-75947329D01*
X53593739Y-72263000D01*
X42545324Y-72263058D01*
X42477203Y-72243056D01*
X42430710Y-72189401D01*
X42419323Y-72137056D01*
X42419426Y-69469000D01*
X57603745Y-69469000D01*
X58751327Y-69469000D01*
X58738389Y-69491409D01*
X58697500Y-69644009D01*
X58697500Y-69801991D01*
X58738389Y-69954591D01*
X58751327Y-69977000D01*
X57603745Y-69977000D01*
X57603841Y-69978280D01*
X57660805Y-70227854D01*
X57660806Y-70227856D01*
X57754326Y-70466144D01*
X57754328Y-70466148D01*
X57882324Y-70687844D01*
X58041937Y-70887992D01*
X58229595Y-71062112D01*
X58229594Y-71062112D01*
X58441110Y-71206321D01*
X58441111Y-71206322D01*
X58671739Y-71317386D01*
X58916362Y-71392844D01*
X58916368Y-71392845D01*
X59043500Y-71412007D01*
X59043500Y-70269173D01*
X59065909Y-70282111D01*
X59218509Y-70323000D01*
X59376491Y-70323000D01*
X59529091Y-70282111D01*
X59551500Y-70269173D01*
X59551500Y-71412007D01*
X59678631Y-71392845D01*
X59678641Y-71392843D01*
X59923246Y-71317392D01*
X59923253Y-71317389D01*
X60153889Y-71206322D01*
X60153890Y-71206321D01*
X60365404Y-71062112D01*
X60553062Y-70887992D01*
X60712675Y-70687844D01*
X60840671Y-70466148D01*
X60840673Y-70466144D01*
X60934193Y-70227856D01*
X60934194Y-70227854D01*
X60991158Y-69978280D01*
X60991255Y-69977000D01*
X59843673Y-69977000D01*
X59856611Y-69954591D01*
X59897500Y-69801991D01*
X59897500Y-69644009D01*
X59856611Y-69491409D01*
X59843673Y-69469000D01*
X60991254Y-69469000D01*
X63191745Y-69469000D01*
X64339327Y-69469000D01*
X64326389Y-69491409D01*
X64285500Y-69644009D01*
X64285500Y-69801991D01*
X64326389Y-69954591D01*
X64339327Y-69977000D01*
X63191745Y-69977000D01*
X63191841Y-69978280D01*
X63248805Y-70227854D01*
X63248806Y-70227856D01*
X63342326Y-70466144D01*
X63342328Y-70466148D01*
X63470324Y-70687844D01*
X63629937Y-70887992D01*
X63817595Y-71062112D01*
X63817594Y-71062112D01*
X64029110Y-71206321D01*
X64029111Y-71206322D01*
X64259739Y-71317386D01*
X64504362Y-71392844D01*
X64504368Y-71392845D01*
X64631500Y-71412007D01*
X64631500Y-70269173D01*
X64653909Y-70282111D01*
X64806509Y-70323000D01*
X64964491Y-70323000D01*
X65117091Y-70282111D01*
X65139500Y-70269173D01*
X65139500Y-71412007D01*
X65266631Y-71392845D01*
X65266641Y-71392843D01*
X65511246Y-71317392D01*
X65511253Y-71317389D01*
X65741889Y-71206322D01*
X65741890Y-71206321D01*
X65953404Y-71062112D01*
X66141062Y-70887992D01*
X66300675Y-70687844D01*
X66428671Y-70466148D01*
X66428673Y-70466144D01*
X66522193Y-70227856D01*
X66522194Y-70227854D01*
X66579158Y-69978280D01*
X66579255Y-69977000D01*
X65431673Y-69977000D01*
X65444611Y-69954591D01*
X65485500Y-69801991D01*
X65485500Y-69644009D01*
X65444611Y-69491409D01*
X65431673Y-69469000D01*
X66579254Y-69469000D01*
X66579158Y-69467719D01*
X66522194Y-69218145D01*
X66522193Y-69218143D01*
X66428673Y-68979855D01*
X66428671Y-68979851D01*
X66300675Y-68758155D01*
X66141062Y-68558007D01*
X65953404Y-68383887D01*
X65953405Y-68383887D01*
X65741890Y-68239678D01*
X65741889Y-68239677D01*
X65511253Y-68128610D01*
X65511246Y-68128607D01*
X65266635Y-68053154D01*
X65139500Y-68033991D01*
X65139500Y-69176826D01*
X65117091Y-69163889D01*
X64964491Y-69123000D01*
X64806509Y-69123000D01*
X64653909Y-69163889D01*
X64631500Y-69176826D01*
X64631500Y-68033991D01*
X64504366Y-68053154D01*
X64259739Y-68128613D01*
X64029111Y-68239677D01*
X64029110Y-68239678D01*
X63817595Y-68383887D01*
X63629937Y-68558007D01*
X63470324Y-68758155D01*
X63342328Y-68979851D01*
X63342326Y-68979855D01*
X63248806Y-69218143D01*
X63248805Y-69218145D01*
X63191841Y-69467719D01*
X63191745Y-69469000D01*
X60991254Y-69469000D01*
X60991158Y-69467719D01*
X60934194Y-69218145D01*
X60934193Y-69218143D01*
X60840673Y-68979855D01*
X60840671Y-68979851D01*
X60712675Y-68758155D01*
X60553062Y-68558007D01*
X60365404Y-68383887D01*
X60365405Y-68383887D01*
X60153890Y-68239678D01*
X60153889Y-68239677D01*
X59923253Y-68128610D01*
X59923246Y-68128607D01*
X59678635Y-68053154D01*
X59551500Y-68033991D01*
X59551500Y-69176826D01*
X59529091Y-69163889D01*
X59376491Y-69123000D01*
X59218509Y-69123000D01*
X59065909Y-69163889D01*
X59043500Y-69176826D01*
X59043500Y-68033991D01*
X58916366Y-68053154D01*
X58671739Y-68128613D01*
X58441111Y-68239677D01*
X58441110Y-68239678D01*
X58229595Y-68383887D01*
X58041937Y-68558007D01*
X57882324Y-68758155D01*
X57754328Y-68979851D01*
X57754326Y-68979855D01*
X57660806Y-69218143D01*
X57660805Y-69218145D01*
X57603841Y-69467719D01*
X57603745Y-69469000D01*
X42419426Y-69469000D01*
X42419519Y-67054128D01*
X42439524Y-66986009D01*
X42493181Y-66939518D01*
X42545523Y-66928134D01*
X56640996Y-66929000D01*
X56639575Y-53984053D01*
X67689561Y-53981757D01*
X67757686Y-54001745D01*
G37*
%TD.AperFunction*%
%TD*%
%TA.AperFunction,Conductor*%
%TO.N,GND*%
G36*
X201338621Y-44368502D02*
G01*
X201385114Y-44422158D01*
X201396500Y-44474500D01*
X201396500Y-143231463D01*
X201376498Y-143299584D01*
X201322842Y-143346077D01*
X201270470Y-143357463D01*
X39013470Y-143319435D01*
X38945354Y-143299417D01*
X38898874Y-143245750D01*
X38887500Y-143193435D01*
X38887500Y-58039000D01*
X39370000Y-58039000D01*
X39370000Y-66929000D01*
X42292000Y-66929000D01*
X42360121Y-66949002D01*
X42406614Y-67002658D01*
X42418000Y-67055000D01*
X42418000Y-112334441D01*
X42397998Y-112402562D01*
X42370712Y-112432830D01*
X39878000Y-114426999D01*
X39878000Y-142367000D01*
X187706000Y-142113000D01*
X191625821Y-138193179D01*
X197206500Y-138193179D01*
X197206500Y-138412820D01*
X197235166Y-138630568D01*
X197292014Y-138842726D01*
X197374710Y-139042375D01*
X197376065Y-139045645D01*
X197377136Y-139047500D01*
X197485881Y-139235851D01*
X197619585Y-139410098D01*
X197619604Y-139410119D01*
X197774880Y-139565395D01*
X197774890Y-139565404D01*
X197774896Y-139565410D01*
X197949145Y-139699116D01*
X198139355Y-139808935D01*
X198342273Y-139892986D01*
X198554425Y-139949832D01*
X198554429Y-139949832D01*
X198554431Y-139949833D01*
X198610552Y-139957221D01*
X198772182Y-139978500D01*
X198772189Y-139978500D01*
X198991811Y-139978500D01*
X198991818Y-139978500D01*
X199188614Y-139952591D01*
X199209568Y-139949833D01*
X199209568Y-139949832D01*
X199209575Y-139949832D01*
X199421727Y-139892986D01*
X199624645Y-139808935D01*
X199814855Y-139699116D01*
X199989104Y-139565410D01*
X200144410Y-139410104D01*
X200278116Y-139235855D01*
X200387935Y-139045645D01*
X200471986Y-138842727D01*
X200528832Y-138630575D01*
X200557500Y-138412818D01*
X200557500Y-138193182D01*
X200528832Y-137975425D01*
X200471986Y-137763273D01*
X200387935Y-137560355D01*
X200278116Y-137370145D01*
X200144410Y-137195896D01*
X200144404Y-137195890D01*
X200144395Y-137195880D01*
X199989119Y-137040604D01*
X199989098Y-137040585D01*
X199814851Y-136906881D01*
X199624650Y-136797068D01*
X199624641Y-136797063D01*
X199477575Y-136736147D01*
X199421727Y-136713014D01*
X199209575Y-136656168D01*
X199209568Y-136656166D01*
X198991820Y-136627500D01*
X198991818Y-136627500D01*
X198772182Y-136627500D01*
X198772179Y-136627500D01*
X198554431Y-136656166D01*
X198342273Y-136713014D01*
X198139358Y-136797063D01*
X198139349Y-136797068D01*
X197949148Y-136906881D01*
X197774901Y-137040585D01*
X197774880Y-137040604D01*
X197619604Y-137195880D01*
X197619585Y-137195901D01*
X197485881Y-137370148D01*
X197376068Y-137560349D01*
X197376063Y-137560358D01*
X197292014Y-137763273D01*
X197235166Y-137975431D01*
X197206500Y-138193179D01*
X191625821Y-138193179D01*
X193294000Y-136525000D01*
X193294000Y-135381000D01*
X193314002Y-135312879D01*
X193367658Y-135266386D01*
X193420000Y-135255000D01*
X199390000Y-135255000D01*
X199390000Y-52451000D01*
X187324000Y-52451000D01*
X187255879Y-52430998D01*
X187209386Y-52377342D01*
X187198000Y-52325000D01*
X187198000Y-49293179D01*
X197206500Y-49293179D01*
X197206500Y-49512820D01*
X197235166Y-49730568D01*
X197235168Y-49730575D01*
X197290586Y-49937399D01*
X197292014Y-49942726D01*
X197376063Y-50145641D01*
X197376068Y-50145650D01*
X197485881Y-50335851D01*
X197619585Y-50510098D01*
X197619604Y-50510119D01*
X197774880Y-50665395D01*
X197774890Y-50665404D01*
X197774896Y-50665410D01*
X197949145Y-50799116D01*
X198139355Y-50908935D01*
X198342273Y-50992986D01*
X198554425Y-51049832D01*
X198554429Y-51049832D01*
X198554431Y-51049833D01*
X198610552Y-51057221D01*
X198772182Y-51078500D01*
X198772189Y-51078500D01*
X198991811Y-51078500D01*
X198991818Y-51078500D01*
X199188614Y-51052591D01*
X199209568Y-51049833D01*
X199209568Y-51049832D01*
X199209575Y-51049832D01*
X199421727Y-50992986D01*
X199624645Y-50908935D01*
X199814855Y-50799116D01*
X199989104Y-50665410D01*
X200144410Y-50510104D01*
X200278116Y-50335855D01*
X200387935Y-50145645D01*
X200471986Y-49942727D01*
X200528832Y-49730575D01*
X200557500Y-49512818D01*
X200557500Y-49293182D01*
X200528832Y-49075425D01*
X200471986Y-48863273D01*
X200387935Y-48660355D01*
X200278116Y-48470145D01*
X200149099Y-48302007D01*
X200144414Y-48295901D01*
X200144412Y-48295899D01*
X200144410Y-48295896D01*
X200144404Y-48295890D01*
X200144395Y-48295880D01*
X199989119Y-48140604D01*
X199989098Y-48140585D01*
X199814851Y-48006881D01*
X199624650Y-47897068D01*
X199624641Y-47897063D01*
X199532702Y-47858981D01*
X199421727Y-47813014D01*
X199209575Y-47756168D01*
X199209568Y-47756166D01*
X198991820Y-47727500D01*
X198991818Y-47727500D01*
X198772182Y-47727500D01*
X198772179Y-47727500D01*
X198554431Y-47756166D01*
X198342273Y-47813014D01*
X198139358Y-47897063D01*
X198139349Y-47897068D01*
X197949148Y-48006881D01*
X197774901Y-48140585D01*
X197774880Y-48140604D01*
X197619604Y-48295880D01*
X197619585Y-48295901D01*
X197485881Y-48470148D01*
X197376068Y-48660349D01*
X197376063Y-48660358D01*
X197292014Y-48863273D01*
X197235166Y-49075431D01*
X197206500Y-49293179D01*
X187198000Y-49293179D01*
X187198000Y-47371000D01*
X176530000Y-47371000D01*
X176530000Y-49785000D01*
X176509998Y-49853121D01*
X176456342Y-49899614D01*
X176404000Y-49911000D01*
X56642000Y-49911000D01*
X56642000Y-58039000D01*
X39370000Y-58039000D01*
X38887500Y-58039000D01*
X38887500Y-48001878D01*
X46005500Y-48001878D01*
X46005500Y-48264121D01*
X46039728Y-48524108D01*
X46039729Y-48524114D01*
X46039730Y-48524116D01*
X46107602Y-48777419D01*
X46207957Y-49019697D01*
X46207958Y-49019698D01*
X46207963Y-49019709D01*
X46339073Y-49246799D01*
X46339077Y-49246805D01*
X46498710Y-49454842D01*
X46498729Y-49454863D01*
X46684136Y-49640270D01*
X46684157Y-49640289D01*
X46892194Y-49799922D01*
X46892200Y-49799926D01*
X47119290Y-49931036D01*
X47119294Y-49931037D01*
X47119303Y-49931043D01*
X47361581Y-50031398D01*
X47614884Y-50099270D01*
X47614890Y-50099270D01*
X47614891Y-50099271D01*
X47639900Y-50102563D01*
X47874880Y-50133500D01*
X47874887Y-50133500D01*
X48137113Y-50133500D01*
X48137120Y-50133500D01*
X48397116Y-50099270D01*
X48650419Y-50031398D01*
X48892697Y-49931043D01*
X49119803Y-49799924D01*
X49327851Y-49640282D01*
X49513282Y-49454851D01*
X49672924Y-49246803D01*
X49804043Y-49019697D01*
X49904398Y-48777419D01*
X49972270Y-48524116D01*
X50006500Y-48264120D01*
X50006500Y-48001880D01*
X49972270Y-47741884D01*
X49906922Y-47498000D01*
X110586569Y-47498000D01*
X110606269Y-47773444D01*
X110664965Y-48043265D01*
X110664965Y-48043266D01*
X110761469Y-48302006D01*
X110761470Y-48302007D01*
X110893812Y-48544373D01*
X111059299Y-48765438D01*
X111059300Y-48765439D01*
X111059308Y-48765448D01*
X111254551Y-48960691D01*
X111254560Y-48960699D01*
X111254562Y-48960701D01*
X111475627Y-49126188D01*
X111717993Y-49258530D01*
X111976726Y-49355032D01*
X111976729Y-49355032D01*
X111976733Y-49355034D01*
X112132888Y-49389003D01*
X112246559Y-49413731D01*
X112522000Y-49433431D01*
X112797441Y-49413731D01*
X113067265Y-49355034D01*
X113067266Y-49355034D01*
X113067267Y-49355033D01*
X113067274Y-49355032D01*
X113326007Y-49258530D01*
X113568373Y-49126188D01*
X113789438Y-48960701D01*
X113984701Y-48765438D01*
X114150188Y-48544373D01*
X114282530Y-48302007D01*
X114379032Y-48043274D01*
X114437731Y-47773441D01*
X114457431Y-47498000D01*
X114437731Y-47222559D01*
X114379032Y-46952726D01*
X114282530Y-46693993D01*
X114150188Y-46451627D01*
X113984701Y-46230562D01*
X113984699Y-46230560D01*
X113984691Y-46230551D01*
X113789448Y-46035308D01*
X113789439Y-46035300D01*
X113789438Y-46035299D01*
X113568373Y-45869812D01*
X113419181Y-45788347D01*
X113326006Y-45737469D01*
X113067266Y-45640965D01*
X112797443Y-45582269D01*
X112797445Y-45582269D01*
X112522000Y-45562569D01*
X112246555Y-45582269D01*
X111976734Y-45640965D01*
X111976733Y-45640965D01*
X111717993Y-45737469D01*
X111475627Y-45869812D01*
X111254560Y-46035300D01*
X111254551Y-46035308D01*
X111059308Y-46230551D01*
X111059300Y-46230560D01*
X110893812Y-46451627D01*
X110761469Y-46693993D01*
X110664965Y-46952733D01*
X110664965Y-46952734D01*
X110606269Y-47222555D01*
X110586569Y-47498000D01*
X49906922Y-47498000D01*
X49904398Y-47488581D01*
X49804043Y-47246303D01*
X49804037Y-47246294D01*
X49804036Y-47246290D01*
X49672926Y-47019200D01*
X49672922Y-47019194D01*
X49513289Y-46811157D01*
X49513270Y-46811136D01*
X49327863Y-46625729D01*
X49327842Y-46625710D01*
X49119805Y-46466077D01*
X49119799Y-46466073D01*
X48892709Y-46334963D01*
X48892701Y-46334959D01*
X48892697Y-46334957D01*
X48650419Y-46234602D01*
X48397116Y-46166730D01*
X48397114Y-46166729D01*
X48397108Y-46166728D01*
X48137121Y-46132500D01*
X48137120Y-46132500D01*
X47874880Y-46132500D01*
X47874878Y-46132500D01*
X47614891Y-46166728D01*
X47361581Y-46234602D01*
X47119301Y-46334958D01*
X47119290Y-46334963D01*
X46892200Y-46466073D01*
X46892194Y-46466077D01*
X46684157Y-46625710D01*
X46684136Y-46625729D01*
X46498729Y-46811136D01*
X46498710Y-46811157D01*
X46339077Y-47019194D01*
X46339073Y-47019200D01*
X46207963Y-47246290D01*
X46207958Y-47246301D01*
X46107602Y-47488581D01*
X46039728Y-47741891D01*
X46005500Y-48001878D01*
X38887500Y-48001878D01*
X38887500Y-44474500D01*
X38907502Y-44406379D01*
X38961158Y-44359886D01*
X39013500Y-44348500D01*
X201270500Y-44348500D01*
X201338621Y-44368502D01*
G37*
%TD.AperFunction*%
%TD*%
D33*
X140970000Y-94107000D03*
X150865200Y-130766200D03*
X155448000Y-53467000D03*
X164155500Y-105872000D03*
X155448000Y-60579000D03*
X144272000Y-101473000D03*
X143256000Y-93599000D03*
X165354000Y-76835000D03*
X157856400Y-69832000D03*
X149352000Y-98933000D03*
X157856400Y-74402000D03*
X147320000Y-75819000D03*
X122047000Y-117348000D03*
X186690000Y-79375000D03*
X188976000Y-79375000D03*
X149915400Y-84933800D03*
X154517700Y-73771400D03*
X188976000Y-81153000D03*
X154517700Y-68646100D03*
X186690000Y-81153000D03*
X150622000Y-102743000D03*
X174752000Y-77343000D03*
X163081200Y-96286200D03*
X177546000Y-81661000D03*
X170627600Y-83064800D03*
X180509700Y-67111300D03*
X123952000Y-116713000D03*
X172944600Y-90031700D03*
X180428100Y-88296000D03*
X170942000Y-90043000D03*
X129794000Y-126873000D03*
X181879000Y-132713200D03*
X155702000Y-93853000D03*
X127254000Y-126873000D03*
X120777000Y-119253000D03*
X161464400Y-122729300D03*
X119634000Y-126873000D03*
X179912800Y-93559100D03*
X189498100Y-92386800D03*
X136652000Y-117348000D03*
X124587000Y-128143000D03*
X180107000Y-98025100D03*
X183707500Y-96663100D03*
X189473500Y-99670100D03*
X175809700Y-103872200D03*
X173093200Y-103228100D03*
X180106200Y-99789600D03*
X181875100Y-115697000D03*
X173482000Y-76327000D03*
X116365000Y-93218000D03*
X98298000Y-93218000D03*
X80772000Y-93218000D03*
X112014000Y-137795000D03*
X99822000Y-95123000D03*
X82042000Y-95123000D03*
X116332000Y-95123000D03*
X83566000Y-97028000D03*
X102997000Y-97028000D03*
X116332000Y-97028000D03*
X116332000Y-98933000D03*
X102997000Y-98933000D03*
X85217000Y-98933000D03*
X105537000Y-101473000D03*
X116332000Y-101473000D03*
X86487000Y-101473000D03*
X58547000Y-124333000D03*
X144526000Y-93599000D03*
X161798000Y-78613000D03*
X122174000Y-125349000D03*
X172212000Y-58240600D03*
X162196800Y-66469800D03*
X145542000Y-105283000D03*
X174244000Y-55753000D03*
X113157000Y-117348000D03*
X95377000Y-117983000D03*
X189484000Y-63373000D03*
X156839500Y-64202200D03*
X188976000Y-77597000D03*
X166116000Y-81153000D03*
X95377000Y-119253000D03*
X186690000Y-77597000D03*
X157988000Y-83693000D03*
X123317000Y-110363000D03*
X187452000Y-63373000D03*
X174244000Y-59817000D03*
X162560000Y-60325000D03*
X145288000Y-79121000D03*
X87757000Y-117983000D03*
X148844000Y-116459000D03*
X112014000Y-107823000D03*
X58674000Y-123063000D03*
X90297000Y-107823000D03*
X109347000Y-105918000D03*
X116332000Y-105918000D03*
X60452000Y-117348000D03*
X91567000Y-105918000D03*
X88392000Y-103378000D03*
X106807000Y-103378000D03*
X116332000Y-103378000D03*
X58547000Y-117348000D03*
X78867000Y-129413000D03*
X64770000Y-86487000D03*
X66802000Y-110871000D03*
X44873900Y-118052500D03*
X73787000Y-117983000D03*
X60452000Y-106553000D03*
X60452000Y-104648000D03*
X60452000Y-103378000D03*
X76327000Y-129413000D03*
X63627000Y-131953000D03*
X190246000Y-110363000D03*
X177878200Y-92558700D03*
X175514000Y-110617000D03*
X71247000Y-112178500D03*
X104267000Y-123063000D03*
X100457000Y-116078000D03*
X120777000Y-133383700D03*
X160571300Y-116547700D03*
X56007000Y-140335000D03*
X179324000Y-78613000D03*
X64770000Y-89027000D03*
X81407000Y-129413000D03*
X73787000Y-129413000D03*
X66167000Y-129413000D03*
X141859000Y-68453000D03*
X151892000Y-91313000D03*
X166562500Y-92971500D03*
X161496400Y-111905700D03*
X172974000Y-108585000D03*
X164478900Y-111542100D03*
X129295200Y-75066200D03*
X147086400Y-115570300D03*
X94996000Y-52959000D03*
X165298800Y-92966800D03*
X152649701Y-90047299D03*
X153924000Y-89027000D03*
X122047000Y-126873000D03*
X101727000Y-141478000D03*
X198882000Y-49403000D03*
X198882000Y-138303000D03*
X196342000Y-54483000D03*
X196342000Y-57023000D03*
X196342000Y-59563000D03*
X196342000Y-62103000D03*
X196342000Y-64643000D03*
X196342000Y-67183000D03*
X196342000Y-69723000D03*
X196342000Y-72263000D03*
X196342000Y-74803000D03*
X196342000Y-77343000D03*
X196342000Y-79883000D03*
X196342000Y-82423000D03*
X196342000Y-84963000D03*
X196342000Y-87503000D03*
X196342000Y-90043000D03*
X196342000Y-92583000D03*
X196342000Y-95123000D03*
X196342000Y-97663000D03*
X196342000Y-100203000D03*
X196342000Y-102743000D03*
X196342000Y-105283000D03*
X196342000Y-107823000D03*
X196342000Y-110363000D03*
X196342000Y-112903000D03*
X196342000Y-115443000D03*
X196342000Y-117983000D03*
X196342000Y-120523000D03*
X196342000Y-123063000D03*
X196342000Y-125603000D03*
X196342000Y-128143000D03*
X196342000Y-130683000D03*
X196342000Y-133223000D03*
X193802000Y-54483000D03*
X193802000Y-57023000D03*
X193802000Y-59563000D03*
X193802000Y-62103000D03*
X193802000Y-64643000D03*
X193802000Y-67183000D03*
X193802000Y-69723000D03*
X193802000Y-72263000D03*
X193802000Y-74803000D03*
X193802000Y-77343000D03*
X193802000Y-79883000D03*
X193802000Y-82423000D03*
X193802000Y-84963000D03*
X193802000Y-87503000D03*
X193802000Y-90043000D03*
X193802000Y-92583000D03*
X193802000Y-95123000D03*
X193802000Y-97663000D03*
X193802000Y-100203000D03*
X193802000Y-102743000D03*
X193802000Y-105283000D03*
X193802000Y-107823000D03*
X193802000Y-110363000D03*
X193802000Y-112903000D03*
X193802000Y-115443000D03*
X193802000Y-117983000D03*
X193802000Y-120523000D03*
X193802000Y-123063000D03*
X193802000Y-125603000D03*
X193802000Y-128143000D03*
X193802000Y-130683000D03*
X193802000Y-133223000D03*
X48006000Y-48133000D03*
X45466000Y-64793000D03*
X48006000Y-64793000D03*
X50546000Y-64793000D03*
X168402000Y-87503000D03*
X168402000Y-84963000D03*
X168402000Y-82423000D03*
X168402000Y-79883000D03*
X168402000Y-77343000D03*
X168402000Y-74803000D03*
X168402000Y-72263000D03*
X168402000Y-69723000D03*
X160782000Y-69723000D03*
X160782000Y-72263000D03*
X160782000Y-74803000D03*
X160782000Y-77343000D03*
X160782000Y-79883000D03*
X160782000Y-82423000D03*
X160782000Y-84963000D03*
X160782000Y-87503000D03*
X173910000Y-115951000D03*
X168910000Y-115951000D03*
X40894000Y-59793000D03*
X40894000Y-64793000D03*
X148982500Y-54483000D03*
X148982500Y-72483000D03*
X104257000Y-77338000D03*
X104257000Y-74798000D03*
X104257000Y-72258000D03*
X104257000Y-69718000D03*
X104257000Y-67178000D03*
X104257000Y-64638000D03*
X104257000Y-62098000D03*
X104257000Y-59558000D03*
X104257000Y-57018000D03*
X104257000Y-54478000D03*
X96637000Y-54478000D03*
X96637000Y-57018000D03*
X96637000Y-59558000D03*
X96637000Y-62098000D03*
X96637000Y-64638000D03*
X96637000Y-67178000D03*
X96637000Y-69718000D03*
X96637000Y-72258000D03*
X96637000Y-74798000D03*
X96637000Y-77338000D03*
X142494000Y-121031000D03*
X152654000Y-121031000D03*
X182118000Y-105283000D03*
X182118000Y-102743000D03*
X182118000Y-100203000D03*
X182118000Y-97663000D03*
X182118000Y-95123000D03*
X182118000Y-92583000D03*
X182118000Y-90043000D03*
X182118000Y-87503000D03*
X182118000Y-84963000D03*
X182118000Y-82423000D03*
X174498000Y-82423000D03*
X174498000Y-84963000D03*
X174498000Y-87503000D03*
X174498000Y-90043000D03*
X174498000Y-92583000D03*
X174498000Y-95123000D03*
X174498000Y-97663000D03*
X174498000Y-100203000D03*
X174498000Y-102743000D03*
X174498000Y-105283000D03*
X143510000Y-77343000D03*
X143510000Y-74803000D03*
X143510000Y-72263000D03*
X143510000Y-69723000D03*
X143510000Y-67183000D03*
X143510000Y-64643000D03*
X143510000Y-62103000D03*
X143510000Y-59563000D03*
X143510000Y-57023000D03*
X143510000Y-54483000D03*
X135890000Y-54483000D03*
X135890000Y-57023000D03*
X135890000Y-59563000D03*
X135890000Y-62103000D03*
X135890000Y-64643000D03*
X135890000Y-67183000D03*
X135890000Y-69723000D03*
X135890000Y-72263000D03*
X135890000Y-74803000D03*
X135890000Y-77343000D03*
X137287000Y-120523000D03*
X134747000Y-120523000D03*
X132207000Y-120523000D03*
X129667000Y-120523000D03*
X127127000Y-120523000D03*
X124587000Y-120523000D03*
X122047000Y-120523000D03*
X119507000Y-120523000D03*
X116967000Y-120523000D03*
X114427000Y-120523000D03*
X111887000Y-120523000D03*
X109347000Y-120523000D03*
X106807000Y-120523000D03*
X104267000Y-120523000D03*
X104267000Y-135763000D03*
X106807000Y-135763000D03*
X109347000Y-135763000D03*
X111887000Y-135763000D03*
X114427000Y-135763000D03*
X116967000Y-135763000D03*
X119507000Y-135763000D03*
X122047000Y-135763000D03*
X124587000Y-135763000D03*
X127127000Y-135763000D03*
X129667000Y-135763000D03*
X132207000Y-135763000D03*
X134747000Y-135763000D03*
X137287000Y-135763000D03*
X165354000Y-136271000D03*
X175514000Y-136271000D03*
X142494000Y-131191000D03*
X147394000Y-131191000D03*
X152654000Y-133731000D03*
X162814000Y-133731000D03*
X52070000Y-114427000D03*
X49530000Y-114427000D03*
X52070000Y-111887000D03*
X49530000Y-111887000D03*
X52070000Y-109347000D03*
X49530000Y-109347000D03*
X52070000Y-106807000D03*
X49530000Y-106807000D03*
X52070000Y-104267000D03*
X49530000Y-104267000D03*
X52070000Y-101727000D03*
X49530000Y-101727000D03*
X52070000Y-99187000D03*
X49530000Y-99187000D03*
X52070000Y-96647000D03*
X49530000Y-96647000D03*
X52070000Y-94107000D03*
X49530000Y-94107000D03*
X52070000Y-91567000D03*
X49530000Y-91567000D03*
X52070000Y-89027000D03*
X49530000Y-89027000D03*
X52070000Y-86487000D03*
X49530000Y-86487000D03*
X52070000Y-83947000D03*
X49530000Y-83947000D03*
X52070000Y-81407000D03*
X49530000Y-81407000D03*
X52070000Y-78867000D03*
X49530000Y-78867000D03*
X52070000Y-76327000D03*
X49530000Y-76327000D03*
X52070000Y-73787000D03*
X49530000Y-73787000D03*
X168402000Y-53467000D03*
X162814000Y-136271000D03*
X152654000Y-136271000D03*
X55118000Y-59643000D03*
X55118000Y-64643000D03*
X101647000Y-82931000D03*
X96647000Y-82931000D03*
X89027000Y-120523000D03*
X86487000Y-120523000D03*
X83947000Y-120523000D03*
X81407000Y-120523000D03*
X78867000Y-120523000D03*
X76327000Y-120523000D03*
X73787000Y-120523000D03*
X71247000Y-120523000D03*
X68707000Y-120523000D03*
X66167000Y-120523000D03*
X63627000Y-120523000D03*
X61087000Y-120523000D03*
X58547000Y-120523000D03*
X56007000Y-120523000D03*
X56007000Y-135763000D03*
X58547000Y-135763000D03*
X61087000Y-135763000D03*
X63627000Y-135763000D03*
X66167000Y-135763000D03*
X68707000Y-135763000D03*
X71247000Y-135763000D03*
X73787000Y-135763000D03*
X76327000Y-135763000D03*
X78867000Y-135763000D03*
X81407000Y-135763000D03*
X83947000Y-135763000D03*
X86487000Y-135763000D03*
X89027000Y-135763000D03*
X140890000Y-82931000D03*
X135890000Y-82931000D03*
X99227000Y-113411000D03*
X104227000Y-113411000D03*
X161798000Y-53467000D03*
X178054000Y-69723000D03*
X188214000Y-69723000D03*
X142494000Y-126111000D03*
X152654000Y-126111000D03*
X64885500Y-51723000D03*
X64885500Y-69723000D03*
X171958000Y-53467000D03*
X185674000Y-133731000D03*
X185674000Y-131191000D03*
X185674000Y-128651000D03*
X185674000Y-126111000D03*
X185674000Y-123571000D03*
X185674000Y-121031000D03*
X185674000Y-118491000D03*
X185674000Y-115951000D03*
X185674000Y-113411000D03*
X185674000Y-110871000D03*
X178054000Y-110871000D03*
X178054000Y-113411000D03*
X178054000Y-115951000D03*
X178054000Y-118491000D03*
X178054000Y-121031000D03*
X178054000Y-123571000D03*
X178054000Y-126111000D03*
X178054000Y-128651000D03*
X178054000Y-131191000D03*
X178054000Y-133731000D03*
X132842000Y-77338000D03*
X132842000Y-74798000D03*
X132842000Y-72258000D03*
X132842000Y-69718000D03*
X132842000Y-67178000D03*
X132842000Y-64638000D03*
X132842000Y-62098000D03*
X132842000Y-59558000D03*
X132842000Y-57018000D03*
X132842000Y-54478000D03*
X125222000Y-54478000D03*
X125222000Y-57018000D03*
X125222000Y-59558000D03*
X125222000Y-62098000D03*
X125222000Y-64638000D03*
X125222000Y-67178000D03*
X125222000Y-69718000D03*
X125222000Y-72258000D03*
X125222000Y-74798000D03*
X125222000Y-77338000D03*
X161798000Y-62103000D03*
X171958000Y-62103000D03*
X80010000Y-82931000D03*
X85010000Y-82931000D03*
X165354000Y-133731000D03*
X175514000Y-133731000D03*
X92086500Y-54483000D03*
X92086500Y-72483000D03*
X76962000Y-110363000D03*
X76962000Y-107823000D03*
X76962000Y-105283000D03*
X76962000Y-102743000D03*
X76962000Y-100203000D03*
X76962000Y-97663000D03*
X76962000Y-95123000D03*
X76962000Y-92583000D03*
X69342000Y-92583000D03*
X69342000Y-95123000D03*
X69342000Y-97663000D03*
X69342000Y-100203000D03*
X69342000Y-102743000D03*
X69342000Y-105283000D03*
X69342000Y-107823000D03*
X69342000Y-110363000D03*
X165354000Y-121031000D03*
X175514000Y-121031000D03*
X168402000Y-107823000D03*
X168402000Y-105283000D03*
X168402000Y-102743000D03*
X168402000Y-100203000D03*
X168402000Y-97663000D03*
X168402000Y-95123000D03*
X168402000Y-92583000D03*
X168402000Y-90043000D03*
X160782000Y-90043000D03*
X160782000Y-92583000D03*
X160782000Y-95123000D03*
X160782000Y-97663000D03*
X160782000Y-100203000D03*
X160782000Y-102743000D03*
X160782000Y-105283000D03*
X160782000Y-107823000D03*
X51562000Y-139573000D03*
X51562000Y-137033000D03*
X51562000Y-134493000D03*
X51562000Y-131953000D03*
X51562000Y-129413000D03*
X51562000Y-126873000D03*
X51562000Y-124333000D03*
X51562000Y-121793000D03*
X43942000Y-121793000D03*
X43942000Y-124333000D03*
X43942000Y-126873000D03*
X43942000Y-129413000D03*
X43942000Y-131953000D03*
X43942000Y-134493000D03*
X43942000Y-137033000D03*
X43942000Y-139573000D03*
X165354000Y-118491000D03*
X175514000Y-118491000D03*
X168990000Y-110871000D03*
X173990000Y-110871000D03*
X59817000Y-100711000D03*
X59817000Y-110871000D03*
X165354000Y-113411000D03*
X175514000Y-113411000D03*
X120257500Y-54627000D03*
X120257500Y-72627000D03*
X130222000Y-82931000D03*
X125222000Y-82931000D03*
X178054000Y-72263000D03*
X188214000Y-72263000D03*
X107442000Y-82931000D03*
X112442000Y-82931000D03*
X100457000Y-135763000D03*
X100457000Y-133223000D03*
X100457000Y-130683000D03*
X100457000Y-128143000D03*
X100457000Y-125603000D03*
X100457000Y-123063000D03*
X100457000Y-120523000D03*
X92837000Y-120523000D03*
X92837000Y-123063000D03*
X92837000Y-125603000D03*
X92837000Y-128143000D03*
X92837000Y-130683000D03*
X92837000Y-133223000D03*
X92837000Y-135763000D03*
X76962000Y-77343000D03*
X76962000Y-74803000D03*
X76962000Y-72263000D03*
X76962000Y-69723000D03*
X76962000Y-67183000D03*
X76962000Y-64643000D03*
X76962000Y-62103000D03*
X76962000Y-59563000D03*
X76962000Y-57023000D03*
X76962000Y-54483000D03*
X69342000Y-54483000D03*
X69342000Y-57023000D03*
X69342000Y-59563000D03*
X69342000Y-62103000D03*
X69342000Y-64643000D03*
X69342000Y-67183000D03*
X69342000Y-69723000D03*
X69342000Y-72263000D03*
X69342000Y-74803000D03*
X69342000Y-77343000D03*
X142494000Y-123571000D03*
X152654000Y-123571000D03*
X74342000Y-82931000D03*
X69342000Y-82931000D03*
X165354000Y-126111000D03*
X175514000Y-126111000D03*
X165354000Y-131191000D03*
X175514000Y-131191000D03*
X59817000Y-77851000D03*
X59817000Y-88011000D03*
X185674000Y-67183000D03*
X185674000Y-64643000D03*
X185674000Y-62103000D03*
X185674000Y-59563000D03*
X185674000Y-57023000D03*
X185674000Y-54483000D03*
X185674000Y-51943000D03*
X185674000Y-49403000D03*
X178054000Y-49403000D03*
X178054000Y-51943000D03*
X178054000Y-54483000D03*
X178054000Y-57023000D03*
X178054000Y-59563000D03*
X178054000Y-62103000D03*
X178054000Y-64643000D03*
X178054000Y-67183000D03*
X162814000Y-126111000D03*
X162814000Y-123571000D03*
X162814000Y-121031000D03*
X162814000Y-118491000D03*
X162814000Y-115951000D03*
X162814000Y-113411000D03*
X162814000Y-110871000D03*
X155194000Y-110871000D03*
X155194000Y-113411000D03*
X155194000Y-115951000D03*
X155194000Y-118491000D03*
X155194000Y-121031000D03*
X155194000Y-123571000D03*
X155194000Y-126111000D03*
X155194000Y-131191000D03*
X160194000Y-131191000D03*
X169418000Y-123571000D03*
X174418000Y-123571000D03*
X187706000Y-95203000D03*
X187706000Y-100203000D03*
X115062000Y-77343000D03*
X115062000Y-74803000D03*
X115062000Y-72263000D03*
X115062000Y-69723000D03*
X115062000Y-67183000D03*
X115062000Y-64643000D03*
X115062000Y-62103000D03*
X115062000Y-59563000D03*
X115062000Y-57023000D03*
X115062000Y-54483000D03*
X107442000Y-54483000D03*
X107442000Y-57023000D03*
X107442000Y-59563000D03*
X107442000Y-62103000D03*
X107442000Y-64643000D03*
X107442000Y-67183000D03*
X107442000Y-69723000D03*
X107442000Y-72263000D03*
X107442000Y-74803000D03*
X107442000Y-77343000D03*
X56642000Y-100711000D03*
X56642000Y-110871000D03*
X59297500Y-51723000D03*
X59297500Y-69723000D03*
X152614000Y-128651000D03*
X162774000Y-128651000D03*
X142534000Y-136271000D03*
X147534000Y-136271000D03*
X87757000Y-77343000D03*
X87757000Y-74803000D03*
X87757000Y-72263000D03*
X87757000Y-69723000D03*
X87757000Y-67183000D03*
X87757000Y-64643000D03*
X87757000Y-62103000D03*
X87757000Y-59563000D03*
X87757000Y-57023000D03*
X87757000Y-54483000D03*
X80137000Y-54483000D03*
X80137000Y-57023000D03*
X80137000Y-59563000D03*
X80137000Y-62103000D03*
X80137000Y-64643000D03*
X80137000Y-67183000D03*
X80137000Y-69723000D03*
X80137000Y-72263000D03*
X80137000Y-74803000D03*
X80137000Y-77343000D03*
X56642000Y-77851000D03*
X56642000Y-88011000D03*
M02*
