%TF.GenerationSoftware,KiCad,Pcbnew,8.0.6+1*%
%TF.CreationDate,2024-11-11T13:47:47+01:00*%
%TF.ProjectId,ql_trump_v2_disk_interface,716c5f74-7275-46d7-905f-76325f646973,01*%
%TF.SameCoordinates,Original*%
%TF.FileFunction,Legend,Top*%
%TF.FilePolarity,Positive*%
%FSLAX46Y46*%
G04 Gerber Fmt 4.6, Leading zero omitted, Abs format (unit mm)*
G04 Created by KiCad (PCBNEW 8.0.6+1) date 2024-11-11 13:47:47*
%MOMM*%
%LPD*%
G01*
G04 APERTURE LIST*
%ADD10C,0.150000*%
%ADD11C,0.120000*%
%ADD12C,0.350000*%
G04 APERTURE END LIST*
D10*
X198971819Y-95932048D02*
X199686104Y-95932048D01*
X199686104Y-95932048D02*
X199828961Y-95979667D01*
X199828961Y-95979667D02*
X199924200Y-96074905D01*
X199924200Y-96074905D02*
X199971819Y-96217762D01*
X199971819Y-96217762D02*
X199971819Y-96313000D01*
X199971819Y-94979667D02*
X199971819Y-95455857D01*
X199971819Y-95455857D02*
X198971819Y-95455857D01*
X199876580Y-94074905D02*
X199924200Y-94122524D01*
X199924200Y-94122524D02*
X199971819Y-94265381D01*
X199971819Y-94265381D02*
X199971819Y-94360619D01*
X199971819Y-94360619D02*
X199924200Y-94503476D01*
X199924200Y-94503476D02*
X199828961Y-94598714D01*
X199828961Y-94598714D02*
X199733723Y-94646333D01*
X199733723Y-94646333D02*
X199543247Y-94693952D01*
X199543247Y-94693952D02*
X199400390Y-94693952D01*
X199400390Y-94693952D02*
X199209914Y-94646333D01*
X199209914Y-94646333D02*
X199114676Y-94598714D01*
X199114676Y-94598714D02*
X199019438Y-94503476D01*
X199019438Y-94503476D02*
X198971819Y-94360619D01*
X198971819Y-94360619D02*
X198971819Y-94265381D01*
X198971819Y-94265381D02*
X199019438Y-94122524D01*
X199019438Y-94122524D02*
X199067057Y-94074905D01*
X198971819Y-93360619D02*
X199686104Y-93360619D01*
X199686104Y-93360619D02*
X199828961Y-93408238D01*
X199828961Y-93408238D02*
X199924200Y-93503476D01*
X199924200Y-93503476D02*
X199971819Y-93646333D01*
X199971819Y-93646333D02*
X199971819Y-93741571D01*
X199971819Y-92408238D02*
X199971819Y-92884428D01*
X199971819Y-92884428D02*
X198971819Y-92884428D01*
X199876580Y-91503476D02*
X199924200Y-91551095D01*
X199924200Y-91551095D02*
X199971819Y-91693952D01*
X199971819Y-91693952D02*
X199971819Y-91789190D01*
X199971819Y-91789190D02*
X199924200Y-91932047D01*
X199924200Y-91932047D02*
X199828961Y-92027285D01*
X199828961Y-92027285D02*
X199733723Y-92074904D01*
X199733723Y-92074904D02*
X199543247Y-92122523D01*
X199543247Y-92122523D02*
X199400390Y-92122523D01*
X199400390Y-92122523D02*
X199209914Y-92074904D01*
X199209914Y-92074904D02*
X199114676Y-92027285D01*
X199114676Y-92027285D02*
X199019438Y-91932047D01*
X199019438Y-91932047D02*
X198971819Y-91789190D01*
X198971819Y-91789190D02*
X198971819Y-91693952D01*
X198971819Y-91693952D02*
X199019438Y-91551095D01*
X199019438Y-91551095D02*
X199067057Y-91503476D01*
X198971819Y-90789190D02*
X199686104Y-90789190D01*
X199686104Y-90789190D02*
X199828961Y-90836809D01*
X199828961Y-90836809D02*
X199924200Y-90932047D01*
X199924200Y-90932047D02*
X199971819Y-91074904D01*
X199971819Y-91074904D02*
X199971819Y-91170142D01*
X199971819Y-89836809D02*
X199971819Y-90312999D01*
X199971819Y-90312999D02*
X198971819Y-90312999D01*
X199876580Y-88932047D02*
X199924200Y-88979666D01*
X199924200Y-88979666D02*
X199971819Y-89122523D01*
X199971819Y-89122523D02*
X199971819Y-89217761D01*
X199971819Y-89217761D02*
X199924200Y-89360618D01*
X199924200Y-89360618D02*
X199828961Y-89455856D01*
X199828961Y-89455856D02*
X199733723Y-89503475D01*
X199733723Y-89503475D02*
X199543247Y-89551094D01*
X199543247Y-89551094D02*
X199400390Y-89551094D01*
X199400390Y-89551094D02*
X199209914Y-89503475D01*
X199209914Y-89503475D02*
X199114676Y-89455856D01*
X199114676Y-89455856D02*
X199019438Y-89360618D01*
X199019438Y-89360618D02*
X198971819Y-89217761D01*
X198971819Y-89217761D02*
X198971819Y-89122523D01*
X198971819Y-89122523D02*
X199019438Y-88979666D01*
X199019438Y-88979666D02*
X199067057Y-88932047D01*
X198971819Y-88217761D02*
X199686104Y-88217761D01*
X199686104Y-88217761D02*
X199828961Y-88265380D01*
X199828961Y-88265380D02*
X199924200Y-88360618D01*
X199924200Y-88360618D02*
X199971819Y-88503475D01*
X199971819Y-88503475D02*
X199971819Y-88598713D01*
X199971819Y-87265380D02*
X199971819Y-87741570D01*
X199971819Y-87741570D02*
X198971819Y-87741570D01*
X199876580Y-86360618D02*
X199924200Y-86408237D01*
X199924200Y-86408237D02*
X199971819Y-86551094D01*
X199971819Y-86551094D02*
X199971819Y-86646332D01*
X199971819Y-86646332D02*
X199924200Y-86789189D01*
X199924200Y-86789189D02*
X199828961Y-86884427D01*
X199828961Y-86884427D02*
X199733723Y-86932046D01*
X199733723Y-86932046D02*
X199543247Y-86979665D01*
X199543247Y-86979665D02*
X199400390Y-86979665D01*
X199400390Y-86979665D02*
X199209914Y-86932046D01*
X199209914Y-86932046D02*
X199114676Y-86884427D01*
X199114676Y-86884427D02*
X199019438Y-86789189D01*
X199019438Y-86789189D02*
X198971819Y-86646332D01*
X198971819Y-86646332D02*
X198971819Y-86551094D01*
X198971819Y-86551094D02*
X199019438Y-86408237D01*
X199019438Y-86408237D02*
X199067057Y-86360618D01*
X47021905Y-58763819D02*
X47021905Y-59573342D01*
X47021905Y-59573342D02*
X47069524Y-59668580D01*
X47069524Y-59668580D02*
X47117143Y-59716200D01*
X47117143Y-59716200D02*
X47212381Y-59763819D01*
X47212381Y-59763819D02*
X47402857Y-59763819D01*
X47402857Y-59763819D02*
X47498095Y-59716200D01*
X47498095Y-59716200D02*
X47545714Y-59668580D01*
X47545714Y-59668580D02*
X47593333Y-59573342D01*
X47593333Y-59573342D02*
X47593333Y-58763819D01*
X48593333Y-59763819D02*
X48021905Y-59763819D01*
X48307619Y-59763819D02*
X48307619Y-58763819D01*
X48307619Y-58763819D02*
X48212381Y-58906676D01*
X48212381Y-58906676D02*
X48117143Y-59001914D01*
X48117143Y-59001914D02*
X48021905Y-59049533D01*
X49164762Y-59192390D02*
X49069524Y-59144771D01*
X49069524Y-59144771D02*
X49021905Y-59097152D01*
X49021905Y-59097152D02*
X48974286Y-59001914D01*
X48974286Y-59001914D02*
X48974286Y-58954295D01*
X48974286Y-58954295D02*
X49021905Y-58859057D01*
X49021905Y-58859057D02*
X49069524Y-58811438D01*
X49069524Y-58811438D02*
X49164762Y-58763819D01*
X49164762Y-58763819D02*
X49355238Y-58763819D01*
X49355238Y-58763819D02*
X49450476Y-58811438D01*
X49450476Y-58811438D02*
X49498095Y-58859057D01*
X49498095Y-58859057D02*
X49545714Y-58954295D01*
X49545714Y-58954295D02*
X49545714Y-59001914D01*
X49545714Y-59001914D02*
X49498095Y-59097152D01*
X49498095Y-59097152D02*
X49450476Y-59144771D01*
X49450476Y-59144771D02*
X49355238Y-59192390D01*
X49355238Y-59192390D02*
X49164762Y-59192390D01*
X49164762Y-59192390D02*
X49069524Y-59240009D01*
X49069524Y-59240009D02*
X49021905Y-59287628D01*
X49021905Y-59287628D02*
X48974286Y-59382866D01*
X48974286Y-59382866D02*
X48974286Y-59573342D01*
X48974286Y-59573342D02*
X49021905Y-59668580D01*
X49021905Y-59668580D02*
X49069524Y-59716200D01*
X49069524Y-59716200D02*
X49164762Y-59763819D01*
X49164762Y-59763819D02*
X49355238Y-59763819D01*
X49355238Y-59763819D02*
X49450476Y-59716200D01*
X49450476Y-59716200D02*
X49498095Y-59668580D01*
X49498095Y-59668580D02*
X49545714Y-59573342D01*
X49545714Y-59573342D02*
X49545714Y-59382866D01*
X49545714Y-59382866D02*
X49498095Y-59287628D01*
X49498095Y-59287628D02*
X49450476Y-59240009D01*
X49450476Y-59240009D02*
X49355238Y-59192390D01*
X163830095Y-84417819D02*
X163830095Y-85227342D01*
X163830095Y-85227342D02*
X163877714Y-85322580D01*
X163877714Y-85322580D02*
X163925333Y-85370200D01*
X163925333Y-85370200D02*
X164020571Y-85417819D01*
X164020571Y-85417819D02*
X164211047Y-85417819D01*
X164211047Y-85417819D02*
X164306285Y-85370200D01*
X164306285Y-85370200D02*
X164353904Y-85322580D01*
X164353904Y-85322580D02*
X164401523Y-85227342D01*
X164401523Y-85227342D02*
X164401523Y-84417819D01*
X165306285Y-84417819D02*
X165115809Y-84417819D01*
X165115809Y-84417819D02*
X165020571Y-84465438D01*
X165020571Y-84465438D02*
X164972952Y-84513057D01*
X164972952Y-84513057D02*
X164877714Y-84655914D01*
X164877714Y-84655914D02*
X164830095Y-84846390D01*
X164830095Y-84846390D02*
X164830095Y-85227342D01*
X164830095Y-85227342D02*
X164877714Y-85322580D01*
X164877714Y-85322580D02*
X164925333Y-85370200D01*
X164925333Y-85370200D02*
X165020571Y-85417819D01*
X165020571Y-85417819D02*
X165211047Y-85417819D01*
X165211047Y-85417819D02*
X165306285Y-85370200D01*
X165306285Y-85370200D02*
X165353904Y-85322580D01*
X165353904Y-85322580D02*
X165401523Y-85227342D01*
X165401523Y-85227342D02*
X165401523Y-84989247D01*
X165401523Y-84989247D02*
X165353904Y-84894009D01*
X165353904Y-84894009D02*
X165306285Y-84846390D01*
X165306285Y-84846390D02*
X165211047Y-84798771D01*
X165211047Y-84798771D02*
X165020571Y-84798771D01*
X165020571Y-84798771D02*
X164925333Y-84846390D01*
X164925333Y-84846390D02*
X164877714Y-84894009D01*
X164877714Y-84894009D02*
X164830095Y-84989247D01*
X171410333Y-116310580D02*
X171362714Y-116358200D01*
X171362714Y-116358200D02*
X171219857Y-116405819D01*
X171219857Y-116405819D02*
X171124619Y-116405819D01*
X171124619Y-116405819D02*
X170981762Y-116358200D01*
X170981762Y-116358200D02*
X170886524Y-116262961D01*
X170886524Y-116262961D02*
X170838905Y-116167723D01*
X170838905Y-116167723D02*
X170791286Y-115977247D01*
X170791286Y-115977247D02*
X170791286Y-115834390D01*
X170791286Y-115834390D02*
X170838905Y-115643914D01*
X170838905Y-115643914D02*
X170886524Y-115548676D01*
X170886524Y-115548676D02*
X170981762Y-115453438D01*
X170981762Y-115453438D02*
X171124619Y-115405819D01*
X171124619Y-115405819D02*
X171219857Y-115405819D01*
X171219857Y-115405819D02*
X171362714Y-115453438D01*
X171362714Y-115453438D02*
X171410333Y-115501057D01*
X171743667Y-115405819D02*
X172362714Y-115405819D01*
X172362714Y-115405819D02*
X172029381Y-115786771D01*
X172029381Y-115786771D02*
X172172238Y-115786771D01*
X172172238Y-115786771D02*
X172267476Y-115834390D01*
X172267476Y-115834390D02*
X172315095Y-115882009D01*
X172315095Y-115882009D02*
X172362714Y-115977247D01*
X172362714Y-115977247D02*
X172362714Y-116215342D01*
X172362714Y-116215342D02*
X172315095Y-116310580D01*
X172315095Y-116310580D02*
X172267476Y-116358200D01*
X172267476Y-116358200D02*
X172172238Y-116405819D01*
X172172238Y-116405819D02*
X171886524Y-116405819D01*
X171886524Y-116405819D02*
X171791286Y-116358200D01*
X171791286Y-116358200D02*
X171743667Y-116310580D01*
X41253580Y-62999857D02*
X41301200Y-63047476D01*
X41301200Y-63047476D02*
X41348819Y-63190333D01*
X41348819Y-63190333D02*
X41348819Y-63285571D01*
X41348819Y-63285571D02*
X41301200Y-63428428D01*
X41301200Y-63428428D02*
X41205961Y-63523666D01*
X41205961Y-63523666D02*
X41110723Y-63571285D01*
X41110723Y-63571285D02*
X40920247Y-63618904D01*
X40920247Y-63618904D02*
X40777390Y-63618904D01*
X40777390Y-63618904D02*
X40586914Y-63571285D01*
X40586914Y-63571285D02*
X40491676Y-63523666D01*
X40491676Y-63523666D02*
X40396438Y-63428428D01*
X40396438Y-63428428D02*
X40348819Y-63285571D01*
X40348819Y-63285571D02*
X40348819Y-63190333D01*
X40348819Y-63190333D02*
X40396438Y-63047476D01*
X40396438Y-63047476D02*
X40444057Y-62999857D01*
X41348819Y-62047476D02*
X41348819Y-62618904D01*
X41348819Y-62333190D02*
X40348819Y-62333190D01*
X40348819Y-62333190D02*
X40491676Y-62428428D01*
X40491676Y-62428428D02*
X40586914Y-62523666D01*
X40586914Y-62523666D02*
X40634533Y-62618904D01*
X40348819Y-61142714D02*
X40348819Y-61618904D01*
X40348819Y-61618904D02*
X40825009Y-61666523D01*
X40825009Y-61666523D02*
X40777390Y-61618904D01*
X40777390Y-61618904D02*
X40729771Y-61523666D01*
X40729771Y-61523666D02*
X40729771Y-61285571D01*
X40729771Y-61285571D02*
X40777390Y-61190333D01*
X40777390Y-61190333D02*
X40825009Y-61142714D01*
X40825009Y-61142714D02*
X40920247Y-61095095D01*
X40920247Y-61095095D02*
X41158342Y-61095095D01*
X41158342Y-61095095D02*
X41253580Y-61142714D01*
X41253580Y-61142714D02*
X41301200Y-61190333D01*
X41301200Y-61190333D02*
X41348819Y-61285571D01*
X41348819Y-61285571D02*
X41348819Y-61523666D01*
X41348819Y-61523666D02*
X41301200Y-61618904D01*
X41301200Y-61618904D02*
X41253580Y-61666523D01*
X149457580Y-67571857D02*
X149505200Y-67619476D01*
X149505200Y-67619476D02*
X149552819Y-67762333D01*
X149552819Y-67762333D02*
X149552819Y-67857571D01*
X149552819Y-67857571D02*
X149505200Y-68000428D01*
X149505200Y-68000428D02*
X149409961Y-68095666D01*
X149409961Y-68095666D02*
X149314723Y-68143285D01*
X149314723Y-68143285D02*
X149124247Y-68190904D01*
X149124247Y-68190904D02*
X148981390Y-68190904D01*
X148981390Y-68190904D02*
X148790914Y-68143285D01*
X148790914Y-68143285D02*
X148695676Y-68095666D01*
X148695676Y-68095666D02*
X148600438Y-68000428D01*
X148600438Y-68000428D02*
X148552819Y-67857571D01*
X148552819Y-67857571D02*
X148552819Y-67762333D01*
X148552819Y-67762333D02*
X148600438Y-67619476D01*
X148600438Y-67619476D02*
X148648057Y-67571857D01*
X148648057Y-67190904D02*
X148600438Y-67143285D01*
X148600438Y-67143285D02*
X148552819Y-67048047D01*
X148552819Y-67048047D02*
X148552819Y-66809952D01*
X148552819Y-66809952D02*
X148600438Y-66714714D01*
X148600438Y-66714714D02*
X148648057Y-66667095D01*
X148648057Y-66667095D02*
X148743295Y-66619476D01*
X148743295Y-66619476D02*
X148838533Y-66619476D01*
X148838533Y-66619476D02*
X148981390Y-66667095D01*
X148981390Y-66667095D02*
X149552819Y-67238523D01*
X149552819Y-67238523D02*
X149552819Y-66619476D01*
X148552819Y-65714714D02*
X148552819Y-66190904D01*
X148552819Y-66190904D02*
X149029009Y-66238523D01*
X149029009Y-66238523D02*
X148981390Y-66190904D01*
X148981390Y-66190904D02*
X148933771Y-66095666D01*
X148933771Y-66095666D02*
X148933771Y-65857571D01*
X148933771Y-65857571D02*
X148981390Y-65762333D01*
X148981390Y-65762333D02*
X149029009Y-65714714D01*
X149029009Y-65714714D02*
X149124247Y-65667095D01*
X149124247Y-65667095D02*
X149362342Y-65667095D01*
X149362342Y-65667095D02*
X149457580Y-65714714D01*
X149457580Y-65714714D02*
X149505200Y-65762333D01*
X149505200Y-65762333D02*
X149552819Y-65857571D01*
X149552819Y-65857571D02*
X149552819Y-66095666D01*
X149552819Y-66095666D02*
X149505200Y-66190904D01*
X149505200Y-66190904D02*
X149457580Y-66238523D01*
X99208905Y-74252819D02*
X99208905Y-75062342D01*
X99208905Y-75062342D02*
X99256524Y-75157580D01*
X99256524Y-75157580D02*
X99304143Y-75205200D01*
X99304143Y-75205200D02*
X99399381Y-75252819D01*
X99399381Y-75252819D02*
X99589857Y-75252819D01*
X99589857Y-75252819D02*
X99685095Y-75205200D01*
X99685095Y-75205200D02*
X99732714Y-75157580D01*
X99732714Y-75157580D02*
X99780333Y-75062342D01*
X99780333Y-75062342D02*
X99780333Y-74252819D01*
X100780333Y-75252819D02*
X100208905Y-75252819D01*
X100494619Y-75252819D02*
X100494619Y-74252819D01*
X100494619Y-74252819D02*
X100399381Y-74395676D01*
X100399381Y-74395676D02*
X100304143Y-74490914D01*
X100304143Y-74490914D02*
X100208905Y-74538533D01*
X101399381Y-74252819D02*
X101494619Y-74252819D01*
X101494619Y-74252819D02*
X101589857Y-74300438D01*
X101589857Y-74300438D02*
X101637476Y-74348057D01*
X101637476Y-74348057D02*
X101685095Y-74443295D01*
X101685095Y-74443295D02*
X101732714Y-74633771D01*
X101732714Y-74633771D02*
X101732714Y-74871866D01*
X101732714Y-74871866D02*
X101685095Y-75062342D01*
X101685095Y-75062342D02*
X101637476Y-75157580D01*
X101637476Y-75157580D02*
X101589857Y-75205200D01*
X101589857Y-75205200D02*
X101494619Y-75252819D01*
X101494619Y-75252819D02*
X101399381Y-75252819D01*
X101399381Y-75252819D02*
X101304143Y-75205200D01*
X101304143Y-75205200D02*
X101256524Y-75157580D01*
X101256524Y-75157580D02*
X101208905Y-75062342D01*
X101208905Y-75062342D02*
X101161286Y-74871866D01*
X101161286Y-74871866D02*
X101161286Y-74633771D01*
X101161286Y-74633771D02*
X101208905Y-74443295D01*
X101208905Y-74443295D02*
X101256524Y-74348057D01*
X101256524Y-74348057D02*
X101304143Y-74300438D01*
X101304143Y-74300438D02*
X101399381Y-74252819D01*
X147280333Y-121485819D02*
X146947000Y-121009628D01*
X146708905Y-121485819D02*
X146708905Y-120485819D01*
X146708905Y-120485819D02*
X147089857Y-120485819D01*
X147089857Y-120485819D02*
X147185095Y-120533438D01*
X147185095Y-120533438D02*
X147232714Y-120581057D01*
X147232714Y-120581057D02*
X147280333Y-120676295D01*
X147280333Y-120676295D02*
X147280333Y-120819152D01*
X147280333Y-120819152D02*
X147232714Y-120914390D01*
X147232714Y-120914390D02*
X147185095Y-120962009D01*
X147185095Y-120962009D02*
X147089857Y-121009628D01*
X147089857Y-121009628D02*
X146708905Y-121009628D01*
X148137476Y-120819152D02*
X148137476Y-121485819D01*
X147899381Y-120438200D02*
X147661286Y-121152485D01*
X147661286Y-121152485D02*
X148280333Y-121152485D01*
X177546095Y-102197819D02*
X177546095Y-103007342D01*
X177546095Y-103007342D02*
X177593714Y-103102580D01*
X177593714Y-103102580D02*
X177641333Y-103150200D01*
X177641333Y-103150200D02*
X177736571Y-103197819D01*
X177736571Y-103197819D02*
X177927047Y-103197819D01*
X177927047Y-103197819D02*
X178022285Y-103150200D01*
X178022285Y-103150200D02*
X178069904Y-103102580D01*
X178069904Y-103102580D02*
X178117523Y-103007342D01*
X178117523Y-103007342D02*
X178117523Y-102197819D01*
X178546095Y-102293057D02*
X178593714Y-102245438D01*
X178593714Y-102245438D02*
X178688952Y-102197819D01*
X178688952Y-102197819D02*
X178927047Y-102197819D01*
X178927047Y-102197819D02*
X179022285Y-102245438D01*
X179022285Y-102245438D02*
X179069904Y-102293057D01*
X179069904Y-102293057D02*
X179117523Y-102388295D01*
X179117523Y-102388295D02*
X179117523Y-102483533D01*
X179117523Y-102483533D02*
X179069904Y-102626390D01*
X179069904Y-102626390D02*
X178498476Y-103197819D01*
X178498476Y-103197819D02*
X179117523Y-103197819D01*
X138938095Y-74257819D02*
X138938095Y-75067342D01*
X138938095Y-75067342D02*
X138985714Y-75162580D01*
X138985714Y-75162580D02*
X139033333Y-75210200D01*
X139033333Y-75210200D02*
X139128571Y-75257819D01*
X139128571Y-75257819D02*
X139319047Y-75257819D01*
X139319047Y-75257819D02*
X139414285Y-75210200D01*
X139414285Y-75210200D02*
X139461904Y-75162580D01*
X139461904Y-75162580D02*
X139509523Y-75067342D01*
X139509523Y-75067342D02*
X139509523Y-74257819D01*
X139890476Y-74257819D02*
X140557142Y-74257819D01*
X140557142Y-74257819D02*
X140128571Y-75257819D01*
X134201819Y-130016094D02*
X135011342Y-130016094D01*
X135011342Y-130016094D02*
X135106580Y-129968475D01*
X135106580Y-129968475D02*
X135154200Y-129920856D01*
X135154200Y-129920856D02*
X135201819Y-129825618D01*
X135201819Y-129825618D02*
X135201819Y-129635142D01*
X135201819Y-129635142D02*
X135154200Y-129539904D01*
X135154200Y-129539904D02*
X135106580Y-129492285D01*
X135106580Y-129492285D02*
X135011342Y-129444666D01*
X135011342Y-129444666D02*
X134201819Y-129444666D01*
X135201819Y-128444666D02*
X135201819Y-129016094D01*
X135201819Y-128730380D02*
X134201819Y-128730380D01*
X134201819Y-128730380D02*
X134344676Y-128825618D01*
X134344676Y-128825618D02*
X134439914Y-128920856D01*
X134439914Y-128920856D02*
X134487533Y-129016094D01*
X134535152Y-127587523D02*
X135201819Y-127587523D01*
X134154200Y-127825618D02*
X134868485Y-128063713D01*
X134868485Y-128063713D02*
X134868485Y-127444666D01*
X170203905Y-136725819D02*
X170203905Y-135725819D01*
X170203905Y-135725819D02*
X170442000Y-135725819D01*
X170442000Y-135725819D02*
X170584857Y-135773438D01*
X170584857Y-135773438D02*
X170680095Y-135868676D01*
X170680095Y-135868676D02*
X170727714Y-135963914D01*
X170727714Y-135963914D02*
X170775333Y-136154390D01*
X170775333Y-136154390D02*
X170775333Y-136297247D01*
X170775333Y-136297247D02*
X170727714Y-136487723D01*
X170727714Y-136487723D02*
X170680095Y-136582961D01*
X170680095Y-136582961D02*
X170584857Y-136678200D01*
X170584857Y-136678200D02*
X170442000Y-136725819D01*
X170442000Y-136725819D02*
X170203905Y-136725819D01*
X171346762Y-136154390D02*
X171251524Y-136106771D01*
X171251524Y-136106771D02*
X171203905Y-136059152D01*
X171203905Y-136059152D02*
X171156286Y-135963914D01*
X171156286Y-135963914D02*
X171156286Y-135916295D01*
X171156286Y-135916295D02*
X171203905Y-135821057D01*
X171203905Y-135821057D02*
X171251524Y-135773438D01*
X171251524Y-135773438D02*
X171346762Y-135725819D01*
X171346762Y-135725819D02*
X171537238Y-135725819D01*
X171537238Y-135725819D02*
X171632476Y-135773438D01*
X171632476Y-135773438D02*
X171680095Y-135821057D01*
X171680095Y-135821057D02*
X171727714Y-135916295D01*
X171727714Y-135916295D02*
X171727714Y-135963914D01*
X171727714Y-135963914D02*
X171680095Y-136059152D01*
X171680095Y-136059152D02*
X171632476Y-136106771D01*
X171632476Y-136106771D02*
X171537238Y-136154390D01*
X171537238Y-136154390D02*
X171346762Y-136154390D01*
X171346762Y-136154390D02*
X171251524Y-136202009D01*
X171251524Y-136202009D02*
X171203905Y-136249628D01*
X171203905Y-136249628D02*
X171156286Y-136344866D01*
X171156286Y-136344866D02*
X171156286Y-136535342D01*
X171156286Y-136535342D02*
X171203905Y-136630580D01*
X171203905Y-136630580D02*
X171251524Y-136678200D01*
X171251524Y-136678200D02*
X171346762Y-136725819D01*
X171346762Y-136725819D02*
X171537238Y-136725819D01*
X171537238Y-136725819D02*
X171632476Y-136678200D01*
X171632476Y-136678200D02*
X171680095Y-136630580D01*
X171680095Y-136630580D02*
X171727714Y-136535342D01*
X171727714Y-136535342D02*
X171727714Y-136344866D01*
X171727714Y-136344866D02*
X171680095Y-136249628D01*
X171680095Y-136249628D02*
X171632476Y-136202009D01*
X171632476Y-136202009D02*
X171537238Y-136154390D01*
X144467809Y-131169628D02*
X144467809Y-131645819D01*
X144134476Y-130645819D02*
X144467809Y-131169628D01*
X144467809Y-131169628D02*
X144801142Y-130645819D01*
X145658285Y-131645819D02*
X145086857Y-131645819D01*
X145372571Y-131645819D02*
X145372571Y-130645819D01*
X145372571Y-130645819D02*
X145277333Y-130788676D01*
X145277333Y-130788676D02*
X145182095Y-130883914D01*
X145182095Y-130883914D02*
X145086857Y-130931533D01*
X156773714Y-134185819D02*
X156773714Y-133185819D01*
X156773714Y-133185819D02*
X157011809Y-133185819D01*
X157011809Y-133185819D02*
X157154666Y-133233438D01*
X157154666Y-133233438D02*
X157249904Y-133328676D01*
X157249904Y-133328676D02*
X157297523Y-133423914D01*
X157297523Y-133423914D02*
X157345142Y-133614390D01*
X157345142Y-133614390D02*
X157345142Y-133757247D01*
X157345142Y-133757247D02*
X157297523Y-133947723D01*
X157297523Y-133947723D02*
X157249904Y-134042961D01*
X157249904Y-134042961D02*
X157154666Y-134138200D01*
X157154666Y-134138200D02*
X157011809Y-134185819D01*
X157011809Y-134185819D02*
X156773714Y-134185819D01*
X158297523Y-134185819D02*
X157726095Y-134185819D01*
X158011809Y-134185819D02*
X158011809Y-133185819D01*
X158011809Y-133185819D02*
X157916571Y-133328676D01*
X157916571Y-133328676D02*
X157821333Y-133423914D01*
X157821333Y-133423914D02*
X157726095Y-133471533D01*
X158916571Y-133185819D02*
X159011809Y-133185819D01*
X159011809Y-133185819D02*
X159107047Y-133233438D01*
X159107047Y-133233438D02*
X159154666Y-133281057D01*
X159154666Y-133281057D02*
X159202285Y-133376295D01*
X159202285Y-133376295D02*
X159249904Y-133566771D01*
X159249904Y-133566771D02*
X159249904Y-133804866D01*
X159249904Y-133804866D02*
X159202285Y-133995342D01*
X159202285Y-133995342D02*
X159154666Y-134090580D01*
X159154666Y-134090580D02*
X159107047Y-134138200D01*
X159107047Y-134138200D02*
X159011809Y-134185819D01*
X159011809Y-134185819D02*
X158916571Y-134185819D01*
X158916571Y-134185819D02*
X158821333Y-134138200D01*
X158821333Y-134138200D02*
X158773714Y-134090580D01*
X158773714Y-134090580D02*
X158726095Y-133995342D01*
X158726095Y-133995342D02*
X158678476Y-133804866D01*
X158678476Y-133804866D02*
X158678476Y-133566771D01*
X158678476Y-133566771D02*
X158726095Y-133376295D01*
X158726095Y-133376295D02*
X158773714Y-133281057D01*
X158773714Y-133281057D02*
X158821333Y-133233438D01*
X158821333Y-133233438D02*
X158916571Y-133185819D01*
X46402666Y-114135819D02*
X46402666Y-114850104D01*
X46402666Y-114850104D02*
X46355047Y-114992961D01*
X46355047Y-114992961D02*
X46259809Y-115088200D01*
X46259809Y-115088200D02*
X46116952Y-115135819D01*
X46116952Y-115135819D02*
X46021714Y-115135819D01*
X46831238Y-114231057D02*
X46878857Y-114183438D01*
X46878857Y-114183438D02*
X46974095Y-114135819D01*
X46974095Y-114135819D02*
X47212190Y-114135819D01*
X47212190Y-114135819D02*
X47307428Y-114183438D01*
X47307428Y-114183438D02*
X47355047Y-114231057D01*
X47355047Y-114231057D02*
X47402666Y-114326295D01*
X47402666Y-114326295D02*
X47402666Y-114421533D01*
X47402666Y-114421533D02*
X47355047Y-114564390D01*
X47355047Y-114564390D02*
X46783619Y-115135819D01*
X46783619Y-115135819D02*
X47402666Y-115135819D01*
X157440333Y-136725819D02*
X157107000Y-136249628D01*
X156868905Y-136725819D02*
X156868905Y-135725819D01*
X156868905Y-135725819D02*
X157249857Y-135725819D01*
X157249857Y-135725819D02*
X157345095Y-135773438D01*
X157345095Y-135773438D02*
X157392714Y-135821057D01*
X157392714Y-135821057D02*
X157440333Y-135916295D01*
X157440333Y-135916295D02*
X157440333Y-136059152D01*
X157440333Y-136059152D02*
X157392714Y-136154390D01*
X157392714Y-136154390D02*
X157345095Y-136202009D01*
X157345095Y-136202009D02*
X157249857Y-136249628D01*
X157249857Y-136249628D02*
X156868905Y-136249628D01*
X157773667Y-135725819D02*
X158392714Y-135725819D01*
X158392714Y-135725819D02*
X158059381Y-136106771D01*
X158059381Y-136106771D02*
X158202238Y-136106771D01*
X158202238Y-136106771D02*
X158297476Y-136154390D01*
X158297476Y-136154390D02*
X158345095Y-136202009D01*
X158345095Y-136202009D02*
X158392714Y-136297247D01*
X158392714Y-136297247D02*
X158392714Y-136535342D01*
X158392714Y-136535342D02*
X158345095Y-136630580D01*
X158345095Y-136630580D02*
X158297476Y-136678200D01*
X158297476Y-136678200D02*
X158202238Y-136725819D01*
X158202238Y-136725819D02*
X157916524Y-136725819D01*
X157916524Y-136725819D02*
X157821286Y-136678200D01*
X157821286Y-136678200D02*
X157773667Y-136630580D01*
X55477580Y-62999857D02*
X55525200Y-63047476D01*
X55525200Y-63047476D02*
X55572819Y-63190333D01*
X55572819Y-63190333D02*
X55572819Y-63285571D01*
X55572819Y-63285571D02*
X55525200Y-63428428D01*
X55525200Y-63428428D02*
X55429961Y-63523666D01*
X55429961Y-63523666D02*
X55334723Y-63571285D01*
X55334723Y-63571285D02*
X55144247Y-63618904D01*
X55144247Y-63618904D02*
X55001390Y-63618904D01*
X55001390Y-63618904D02*
X54810914Y-63571285D01*
X54810914Y-63571285D02*
X54715676Y-63523666D01*
X54715676Y-63523666D02*
X54620438Y-63428428D01*
X54620438Y-63428428D02*
X54572819Y-63285571D01*
X54572819Y-63285571D02*
X54572819Y-63190333D01*
X54572819Y-63190333D02*
X54620438Y-63047476D01*
X54620438Y-63047476D02*
X54668057Y-62999857D01*
X55572819Y-62047476D02*
X55572819Y-62618904D01*
X55572819Y-62333190D02*
X54572819Y-62333190D01*
X54572819Y-62333190D02*
X54715676Y-62428428D01*
X54715676Y-62428428D02*
X54810914Y-62523666D01*
X54810914Y-62523666D02*
X54858533Y-62618904D01*
X54572819Y-61714142D02*
X54572819Y-61095095D01*
X54572819Y-61095095D02*
X54953771Y-61428428D01*
X54953771Y-61428428D02*
X54953771Y-61285571D01*
X54953771Y-61285571D02*
X55001390Y-61190333D01*
X55001390Y-61190333D02*
X55049009Y-61142714D01*
X55049009Y-61142714D02*
X55144247Y-61095095D01*
X55144247Y-61095095D02*
X55382342Y-61095095D01*
X55382342Y-61095095D02*
X55477580Y-61142714D01*
X55477580Y-61142714D02*
X55525200Y-61190333D01*
X55525200Y-61190333D02*
X55572819Y-61285571D01*
X55572819Y-61285571D02*
X55572819Y-61571285D01*
X55572819Y-61571285D02*
X55525200Y-61666523D01*
X55525200Y-61666523D02*
X55477580Y-61714142D01*
X98504142Y-83184580D02*
X98456523Y-83232200D01*
X98456523Y-83232200D02*
X98313666Y-83279819D01*
X98313666Y-83279819D02*
X98218428Y-83279819D01*
X98218428Y-83279819D02*
X98075571Y-83232200D01*
X98075571Y-83232200D02*
X97980333Y-83136961D01*
X97980333Y-83136961D02*
X97932714Y-83041723D01*
X97932714Y-83041723D02*
X97885095Y-82851247D01*
X97885095Y-82851247D02*
X97885095Y-82708390D01*
X97885095Y-82708390D02*
X97932714Y-82517914D01*
X97932714Y-82517914D02*
X97980333Y-82422676D01*
X97980333Y-82422676D02*
X98075571Y-82327438D01*
X98075571Y-82327438D02*
X98218428Y-82279819D01*
X98218428Y-82279819D02*
X98313666Y-82279819D01*
X98313666Y-82279819D02*
X98456523Y-82327438D01*
X98456523Y-82327438D02*
X98504142Y-82375057D01*
X98885095Y-82375057D02*
X98932714Y-82327438D01*
X98932714Y-82327438D02*
X99027952Y-82279819D01*
X99027952Y-82279819D02*
X99266047Y-82279819D01*
X99266047Y-82279819D02*
X99361285Y-82327438D01*
X99361285Y-82327438D02*
X99408904Y-82375057D01*
X99408904Y-82375057D02*
X99456523Y-82470295D01*
X99456523Y-82470295D02*
X99456523Y-82565533D01*
X99456523Y-82565533D02*
X99408904Y-82708390D01*
X99408904Y-82708390D02*
X98837476Y-83279819D01*
X98837476Y-83279819D02*
X99456523Y-83279819D01*
X100075571Y-82279819D02*
X100170809Y-82279819D01*
X100170809Y-82279819D02*
X100266047Y-82327438D01*
X100266047Y-82327438D02*
X100313666Y-82375057D01*
X100313666Y-82375057D02*
X100361285Y-82470295D01*
X100361285Y-82470295D02*
X100408904Y-82660771D01*
X100408904Y-82660771D02*
X100408904Y-82898866D01*
X100408904Y-82898866D02*
X100361285Y-83089342D01*
X100361285Y-83089342D02*
X100313666Y-83184580D01*
X100313666Y-83184580D02*
X100266047Y-83232200D01*
X100266047Y-83232200D02*
X100170809Y-83279819D01*
X100170809Y-83279819D02*
X100075571Y-83279819D01*
X100075571Y-83279819D02*
X99980333Y-83232200D01*
X99980333Y-83232200D02*
X99932714Y-83184580D01*
X99932714Y-83184580D02*
X99885095Y-83089342D01*
X99885095Y-83089342D02*
X99837476Y-82898866D01*
X99837476Y-82898866D02*
X99837476Y-82660771D01*
X99837476Y-82660771D02*
X99885095Y-82470295D01*
X99885095Y-82470295D02*
X99932714Y-82375057D01*
X99932714Y-82375057D02*
X99980333Y-82327438D01*
X99980333Y-82327438D02*
X100075571Y-82279819D01*
X85814819Y-129635094D02*
X86624342Y-129635094D01*
X86624342Y-129635094D02*
X86719580Y-129587475D01*
X86719580Y-129587475D02*
X86767200Y-129539856D01*
X86767200Y-129539856D02*
X86814819Y-129444618D01*
X86814819Y-129444618D02*
X86814819Y-129254142D01*
X86814819Y-129254142D02*
X86767200Y-129158904D01*
X86767200Y-129158904D02*
X86719580Y-129111285D01*
X86719580Y-129111285D02*
X86624342Y-129063666D01*
X86624342Y-129063666D02*
X85814819Y-129063666D01*
X86814819Y-128063666D02*
X86814819Y-128635094D01*
X86814819Y-128349380D02*
X85814819Y-128349380D01*
X85814819Y-128349380D02*
X85957676Y-128444618D01*
X85957676Y-128444618D02*
X86052914Y-128539856D01*
X86052914Y-128539856D02*
X86100533Y-128635094D01*
X85814819Y-127730332D02*
X85814819Y-127111285D01*
X85814819Y-127111285D02*
X86195771Y-127444618D01*
X86195771Y-127444618D02*
X86195771Y-127301761D01*
X86195771Y-127301761D02*
X86243390Y-127206523D01*
X86243390Y-127206523D02*
X86291009Y-127158904D01*
X86291009Y-127158904D02*
X86386247Y-127111285D01*
X86386247Y-127111285D02*
X86624342Y-127111285D01*
X86624342Y-127111285D02*
X86719580Y-127158904D01*
X86719580Y-127158904D02*
X86767200Y-127206523D01*
X86767200Y-127206523D02*
X86814819Y-127301761D01*
X86814819Y-127301761D02*
X86814819Y-127587475D01*
X86814819Y-127587475D02*
X86767200Y-127682713D01*
X86767200Y-127682713D02*
X86719580Y-127730332D01*
X137707142Y-83290580D02*
X137659523Y-83338200D01*
X137659523Y-83338200D02*
X137516666Y-83385819D01*
X137516666Y-83385819D02*
X137421428Y-83385819D01*
X137421428Y-83385819D02*
X137278571Y-83338200D01*
X137278571Y-83338200D02*
X137183333Y-83242961D01*
X137183333Y-83242961D02*
X137135714Y-83147723D01*
X137135714Y-83147723D02*
X137088095Y-82957247D01*
X137088095Y-82957247D02*
X137088095Y-82814390D01*
X137088095Y-82814390D02*
X137135714Y-82623914D01*
X137135714Y-82623914D02*
X137183333Y-82528676D01*
X137183333Y-82528676D02*
X137278571Y-82433438D01*
X137278571Y-82433438D02*
X137421428Y-82385819D01*
X137421428Y-82385819D02*
X137516666Y-82385819D01*
X137516666Y-82385819D02*
X137659523Y-82433438D01*
X137659523Y-82433438D02*
X137707142Y-82481057D01*
X138659523Y-83385819D02*
X138088095Y-83385819D01*
X138373809Y-83385819D02*
X138373809Y-82385819D01*
X138373809Y-82385819D02*
X138278571Y-82528676D01*
X138278571Y-82528676D02*
X138183333Y-82623914D01*
X138183333Y-82623914D02*
X138088095Y-82671533D01*
X138992857Y-82385819D02*
X139659523Y-82385819D01*
X139659523Y-82385819D02*
X139230952Y-83385819D01*
X101211142Y-113770580D02*
X101163523Y-113818200D01*
X101163523Y-113818200D02*
X101020666Y-113865819D01*
X101020666Y-113865819D02*
X100925428Y-113865819D01*
X100925428Y-113865819D02*
X100782571Y-113818200D01*
X100782571Y-113818200D02*
X100687333Y-113722961D01*
X100687333Y-113722961D02*
X100639714Y-113627723D01*
X100639714Y-113627723D02*
X100592095Y-113437247D01*
X100592095Y-113437247D02*
X100592095Y-113294390D01*
X100592095Y-113294390D02*
X100639714Y-113103914D01*
X100639714Y-113103914D02*
X100687333Y-113008676D01*
X100687333Y-113008676D02*
X100782571Y-112913438D01*
X100782571Y-112913438D02*
X100925428Y-112865819D01*
X100925428Y-112865819D02*
X101020666Y-112865819D01*
X101020666Y-112865819D02*
X101163523Y-112913438D01*
X101163523Y-112913438D02*
X101211142Y-112961057D01*
X102163523Y-113865819D02*
X101592095Y-113865819D01*
X101877809Y-113865819D02*
X101877809Y-112865819D01*
X101877809Y-112865819D02*
X101782571Y-113008676D01*
X101782571Y-113008676D02*
X101687333Y-113103914D01*
X101687333Y-113103914D02*
X101592095Y-113151533D01*
X102544476Y-112961057D02*
X102592095Y-112913438D01*
X102592095Y-112913438D02*
X102687333Y-112865819D01*
X102687333Y-112865819D02*
X102925428Y-112865819D01*
X102925428Y-112865819D02*
X103020666Y-112913438D01*
X103020666Y-112913438D02*
X103068285Y-112961057D01*
X103068285Y-112961057D02*
X103115904Y-113056295D01*
X103115904Y-113056295D02*
X103115904Y-113151533D01*
X103115904Y-113151533D02*
X103068285Y-113294390D01*
X103068285Y-113294390D02*
X102496857Y-113865819D01*
X102496857Y-113865819D02*
X103115904Y-113865819D01*
X182903905Y-70431819D02*
X182903905Y-69431819D01*
X182903905Y-69431819D02*
X183142000Y-69431819D01*
X183142000Y-69431819D02*
X183284857Y-69479438D01*
X183284857Y-69479438D02*
X183380095Y-69574676D01*
X183380095Y-69574676D02*
X183427714Y-69669914D01*
X183427714Y-69669914D02*
X183475333Y-69860390D01*
X183475333Y-69860390D02*
X183475333Y-70003247D01*
X183475333Y-70003247D02*
X183427714Y-70193723D01*
X183427714Y-70193723D02*
X183380095Y-70288961D01*
X183380095Y-70288961D02*
X183284857Y-70384200D01*
X183284857Y-70384200D02*
X183142000Y-70431819D01*
X183142000Y-70431819D02*
X182903905Y-70431819D01*
X183856286Y-69527057D02*
X183903905Y-69479438D01*
X183903905Y-69479438D02*
X183999143Y-69431819D01*
X183999143Y-69431819D02*
X184237238Y-69431819D01*
X184237238Y-69431819D02*
X184332476Y-69479438D01*
X184332476Y-69479438D02*
X184380095Y-69527057D01*
X184380095Y-69527057D02*
X184427714Y-69622295D01*
X184427714Y-69622295D02*
X184427714Y-69717533D01*
X184427714Y-69717533D02*
X184380095Y-69860390D01*
X184380095Y-69860390D02*
X183808667Y-70431819D01*
X183808667Y-70431819D02*
X184427714Y-70431819D01*
X147280333Y-126565819D02*
X146947000Y-126089628D01*
X146708905Y-126565819D02*
X146708905Y-125565819D01*
X146708905Y-125565819D02*
X147089857Y-125565819D01*
X147089857Y-125565819D02*
X147185095Y-125613438D01*
X147185095Y-125613438D02*
X147232714Y-125661057D01*
X147232714Y-125661057D02*
X147280333Y-125756295D01*
X147280333Y-125756295D02*
X147280333Y-125899152D01*
X147280333Y-125899152D02*
X147232714Y-125994390D01*
X147232714Y-125994390D02*
X147185095Y-126042009D01*
X147185095Y-126042009D02*
X147089857Y-126089628D01*
X147089857Y-126089628D02*
X146708905Y-126089628D01*
X148137476Y-125565819D02*
X147947000Y-125565819D01*
X147947000Y-125565819D02*
X147851762Y-125613438D01*
X147851762Y-125613438D02*
X147804143Y-125661057D01*
X147804143Y-125661057D02*
X147708905Y-125803914D01*
X147708905Y-125803914D02*
X147661286Y-125994390D01*
X147661286Y-125994390D02*
X147661286Y-126375342D01*
X147661286Y-126375342D02*
X147708905Y-126470580D01*
X147708905Y-126470580D02*
X147756524Y-126518200D01*
X147756524Y-126518200D02*
X147851762Y-126565819D01*
X147851762Y-126565819D02*
X148042238Y-126565819D01*
X148042238Y-126565819D02*
X148137476Y-126518200D01*
X148137476Y-126518200D02*
X148185095Y-126470580D01*
X148185095Y-126470580D02*
X148232714Y-126375342D01*
X148232714Y-126375342D02*
X148232714Y-126137247D01*
X148232714Y-126137247D02*
X148185095Y-126042009D01*
X148185095Y-126042009D02*
X148137476Y-125994390D01*
X148137476Y-125994390D02*
X148042238Y-125946771D01*
X148042238Y-125946771D02*
X147851762Y-125946771D01*
X147851762Y-125946771D02*
X147756524Y-125994390D01*
X147756524Y-125994390D02*
X147708905Y-126042009D01*
X147708905Y-126042009D02*
X147661286Y-126137247D01*
X65129580Y-64523857D02*
X65177200Y-64571476D01*
X65177200Y-64571476D02*
X65224819Y-64714333D01*
X65224819Y-64714333D02*
X65224819Y-64809571D01*
X65224819Y-64809571D02*
X65177200Y-64952428D01*
X65177200Y-64952428D02*
X65081961Y-65047666D01*
X65081961Y-65047666D02*
X64986723Y-65095285D01*
X64986723Y-65095285D02*
X64796247Y-65142904D01*
X64796247Y-65142904D02*
X64653390Y-65142904D01*
X64653390Y-65142904D02*
X64462914Y-65095285D01*
X64462914Y-65095285D02*
X64367676Y-65047666D01*
X64367676Y-65047666D02*
X64272438Y-64952428D01*
X64272438Y-64952428D02*
X64224819Y-64809571D01*
X64224819Y-64809571D02*
X64224819Y-64714333D01*
X64224819Y-64714333D02*
X64272438Y-64571476D01*
X64272438Y-64571476D02*
X64320057Y-64523857D01*
X65224819Y-63571476D02*
X65224819Y-64142904D01*
X65224819Y-63857190D02*
X64224819Y-63857190D01*
X64224819Y-63857190D02*
X64367676Y-63952428D01*
X64367676Y-63952428D02*
X64462914Y-64047666D01*
X64462914Y-64047666D02*
X64510533Y-64142904D01*
X64224819Y-62714333D02*
X64224819Y-62904809D01*
X64224819Y-62904809D02*
X64272438Y-63000047D01*
X64272438Y-63000047D02*
X64320057Y-63047666D01*
X64320057Y-63047666D02*
X64462914Y-63142904D01*
X64462914Y-63142904D02*
X64653390Y-63190523D01*
X64653390Y-63190523D02*
X65034342Y-63190523D01*
X65034342Y-63190523D02*
X65129580Y-63142904D01*
X65129580Y-63142904D02*
X65177200Y-63095285D01*
X65177200Y-63095285D02*
X65224819Y-63000047D01*
X65224819Y-63000047D02*
X65224819Y-62809571D01*
X65224819Y-62809571D02*
X65177200Y-62714333D01*
X65177200Y-62714333D02*
X65129580Y-62666714D01*
X65129580Y-62666714D02*
X65034342Y-62619095D01*
X65034342Y-62619095D02*
X64796247Y-62619095D01*
X64796247Y-62619095D02*
X64701009Y-62666714D01*
X64701009Y-62666714D02*
X64653390Y-62714333D01*
X64653390Y-62714333D02*
X64605771Y-62809571D01*
X64605771Y-62809571D02*
X64605771Y-63000047D01*
X64605771Y-63000047D02*
X64653390Y-63095285D01*
X64653390Y-63095285D02*
X64701009Y-63142904D01*
X64701009Y-63142904D02*
X64796247Y-63190523D01*
X181102095Y-135725819D02*
X181102095Y-136535342D01*
X181102095Y-136535342D02*
X181149714Y-136630580D01*
X181149714Y-136630580D02*
X181197333Y-136678200D01*
X181197333Y-136678200D02*
X181292571Y-136725819D01*
X181292571Y-136725819D02*
X181483047Y-136725819D01*
X181483047Y-136725819D02*
X181578285Y-136678200D01*
X181578285Y-136678200D02*
X181625904Y-136630580D01*
X181625904Y-136630580D02*
X181673523Y-136535342D01*
X181673523Y-136535342D02*
X181673523Y-135725819D01*
X182673523Y-136725819D02*
X182102095Y-136725819D01*
X182387809Y-136725819D02*
X182387809Y-135725819D01*
X182387809Y-135725819D02*
X182292571Y-135868676D01*
X182292571Y-135868676D02*
X182197333Y-135963914D01*
X182197333Y-135963914D02*
X182102095Y-136011533D01*
X128270095Y-74252819D02*
X128270095Y-75062342D01*
X128270095Y-75062342D02*
X128317714Y-75157580D01*
X128317714Y-75157580D02*
X128365333Y-75205200D01*
X128365333Y-75205200D02*
X128460571Y-75252819D01*
X128460571Y-75252819D02*
X128651047Y-75252819D01*
X128651047Y-75252819D02*
X128746285Y-75205200D01*
X128746285Y-75205200D02*
X128793904Y-75157580D01*
X128793904Y-75157580D02*
X128841523Y-75062342D01*
X128841523Y-75062342D02*
X128841523Y-74252819D01*
X129460571Y-74681390D02*
X129365333Y-74633771D01*
X129365333Y-74633771D02*
X129317714Y-74586152D01*
X129317714Y-74586152D02*
X129270095Y-74490914D01*
X129270095Y-74490914D02*
X129270095Y-74443295D01*
X129270095Y-74443295D02*
X129317714Y-74348057D01*
X129317714Y-74348057D02*
X129365333Y-74300438D01*
X129365333Y-74300438D02*
X129460571Y-74252819D01*
X129460571Y-74252819D02*
X129651047Y-74252819D01*
X129651047Y-74252819D02*
X129746285Y-74300438D01*
X129746285Y-74300438D02*
X129793904Y-74348057D01*
X129793904Y-74348057D02*
X129841523Y-74443295D01*
X129841523Y-74443295D02*
X129841523Y-74490914D01*
X129841523Y-74490914D02*
X129793904Y-74586152D01*
X129793904Y-74586152D02*
X129746285Y-74633771D01*
X129746285Y-74633771D02*
X129651047Y-74681390D01*
X129651047Y-74681390D02*
X129460571Y-74681390D01*
X129460571Y-74681390D02*
X129365333Y-74729009D01*
X129365333Y-74729009D02*
X129317714Y-74776628D01*
X129317714Y-74776628D02*
X129270095Y-74871866D01*
X129270095Y-74871866D02*
X129270095Y-75062342D01*
X129270095Y-75062342D02*
X129317714Y-75157580D01*
X129317714Y-75157580D02*
X129365333Y-75205200D01*
X129365333Y-75205200D02*
X129460571Y-75252819D01*
X129460571Y-75252819D02*
X129651047Y-75252819D01*
X129651047Y-75252819D02*
X129746285Y-75205200D01*
X129746285Y-75205200D02*
X129793904Y-75157580D01*
X129793904Y-75157580D02*
X129841523Y-75062342D01*
X129841523Y-75062342D02*
X129841523Y-74871866D01*
X129841523Y-74871866D02*
X129793904Y-74776628D01*
X129793904Y-74776628D02*
X129746285Y-74729009D01*
X129746285Y-74729009D02*
X129651047Y-74681390D01*
X166393905Y-62557819D02*
X166393905Y-61557819D01*
X166393905Y-61557819D02*
X166632000Y-61557819D01*
X166632000Y-61557819D02*
X166774857Y-61605438D01*
X166774857Y-61605438D02*
X166870095Y-61700676D01*
X166870095Y-61700676D02*
X166917714Y-61795914D01*
X166917714Y-61795914D02*
X166965333Y-61986390D01*
X166965333Y-61986390D02*
X166965333Y-62129247D01*
X166965333Y-62129247D02*
X166917714Y-62319723D01*
X166917714Y-62319723D02*
X166870095Y-62414961D01*
X166870095Y-62414961D02*
X166774857Y-62510200D01*
X166774857Y-62510200D02*
X166632000Y-62557819D01*
X166632000Y-62557819D02*
X166393905Y-62557819D01*
X167917714Y-62557819D02*
X167346286Y-62557819D01*
X167632000Y-62557819D02*
X167632000Y-61557819D01*
X167632000Y-61557819D02*
X167536762Y-61700676D01*
X167536762Y-61700676D02*
X167441524Y-61795914D01*
X167441524Y-61795914D02*
X167346286Y-61843533D01*
X81653142Y-83290580D02*
X81605523Y-83338200D01*
X81605523Y-83338200D02*
X81462666Y-83385819D01*
X81462666Y-83385819D02*
X81367428Y-83385819D01*
X81367428Y-83385819D02*
X81224571Y-83338200D01*
X81224571Y-83338200D02*
X81129333Y-83242961D01*
X81129333Y-83242961D02*
X81081714Y-83147723D01*
X81081714Y-83147723D02*
X81034095Y-82957247D01*
X81034095Y-82957247D02*
X81034095Y-82814390D01*
X81034095Y-82814390D02*
X81081714Y-82623914D01*
X81081714Y-82623914D02*
X81129333Y-82528676D01*
X81129333Y-82528676D02*
X81224571Y-82433438D01*
X81224571Y-82433438D02*
X81367428Y-82385819D01*
X81367428Y-82385819D02*
X81462666Y-82385819D01*
X81462666Y-82385819D02*
X81605523Y-82433438D01*
X81605523Y-82433438D02*
X81653142Y-82481057D01*
X82034095Y-82481057D02*
X82081714Y-82433438D01*
X82081714Y-82433438D02*
X82176952Y-82385819D01*
X82176952Y-82385819D02*
X82415047Y-82385819D01*
X82415047Y-82385819D02*
X82510285Y-82433438D01*
X82510285Y-82433438D02*
X82557904Y-82481057D01*
X82557904Y-82481057D02*
X82605523Y-82576295D01*
X82605523Y-82576295D02*
X82605523Y-82671533D01*
X82605523Y-82671533D02*
X82557904Y-82814390D01*
X82557904Y-82814390D02*
X81986476Y-83385819D01*
X81986476Y-83385819D02*
X82605523Y-83385819D01*
X83557904Y-83385819D02*
X82986476Y-83385819D01*
X83272190Y-83385819D02*
X83272190Y-82385819D01*
X83272190Y-82385819D02*
X83176952Y-82528676D01*
X83176952Y-82528676D02*
X83081714Y-82623914D01*
X83081714Y-82623914D02*
X82986476Y-82671533D01*
X170203905Y-134185819D02*
X170203905Y-133185819D01*
X170203905Y-133185819D02*
X170442000Y-133185819D01*
X170442000Y-133185819D02*
X170584857Y-133233438D01*
X170584857Y-133233438D02*
X170680095Y-133328676D01*
X170680095Y-133328676D02*
X170727714Y-133423914D01*
X170727714Y-133423914D02*
X170775333Y-133614390D01*
X170775333Y-133614390D02*
X170775333Y-133757247D01*
X170775333Y-133757247D02*
X170727714Y-133947723D01*
X170727714Y-133947723D02*
X170680095Y-134042961D01*
X170680095Y-134042961D02*
X170584857Y-134138200D01*
X170584857Y-134138200D02*
X170442000Y-134185819D01*
X170442000Y-134185819D02*
X170203905Y-134185819D01*
X171108667Y-133185819D02*
X171775333Y-133185819D01*
X171775333Y-133185819D02*
X171346762Y-134185819D01*
X92561580Y-67571857D02*
X92609200Y-67619476D01*
X92609200Y-67619476D02*
X92656819Y-67762333D01*
X92656819Y-67762333D02*
X92656819Y-67857571D01*
X92656819Y-67857571D02*
X92609200Y-68000428D01*
X92609200Y-68000428D02*
X92513961Y-68095666D01*
X92513961Y-68095666D02*
X92418723Y-68143285D01*
X92418723Y-68143285D02*
X92228247Y-68190904D01*
X92228247Y-68190904D02*
X92085390Y-68190904D01*
X92085390Y-68190904D02*
X91894914Y-68143285D01*
X91894914Y-68143285D02*
X91799676Y-68095666D01*
X91799676Y-68095666D02*
X91704438Y-68000428D01*
X91704438Y-68000428D02*
X91656819Y-67857571D01*
X91656819Y-67857571D02*
X91656819Y-67762333D01*
X91656819Y-67762333D02*
X91704438Y-67619476D01*
X91704438Y-67619476D02*
X91752057Y-67571857D01*
X91752057Y-67190904D02*
X91704438Y-67143285D01*
X91704438Y-67143285D02*
X91656819Y-67048047D01*
X91656819Y-67048047D02*
X91656819Y-66809952D01*
X91656819Y-66809952D02*
X91704438Y-66714714D01*
X91704438Y-66714714D02*
X91752057Y-66667095D01*
X91752057Y-66667095D02*
X91847295Y-66619476D01*
X91847295Y-66619476D02*
X91942533Y-66619476D01*
X91942533Y-66619476D02*
X92085390Y-66667095D01*
X92085390Y-66667095D02*
X92656819Y-67238523D01*
X92656819Y-67238523D02*
X92656819Y-66619476D01*
X91656819Y-66286142D02*
X91656819Y-65667095D01*
X91656819Y-65667095D02*
X92037771Y-66000428D01*
X92037771Y-66000428D02*
X92037771Y-65857571D01*
X92037771Y-65857571D02*
X92085390Y-65762333D01*
X92085390Y-65762333D02*
X92133009Y-65714714D01*
X92133009Y-65714714D02*
X92228247Y-65667095D01*
X92228247Y-65667095D02*
X92466342Y-65667095D01*
X92466342Y-65667095D02*
X92561580Y-65714714D01*
X92561580Y-65714714D02*
X92609200Y-65762333D01*
X92609200Y-65762333D02*
X92656819Y-65857571D01*
X92656819Y-65857571D02*
X92656819Y-66143285D01*
X92656819Y-66143285D02*
X92609200Y-66238523D01*
X92609200Y-66238523D02*
X92561580Y-66286142D01*
X71913905Y-107531819D02*
X71913905Y-108341342D01*
X71913905Y-108341342D02*
X71961524Y-108436580D01*
X71961524Y-108436580D02*
X72009143Y-108484200D01*
X72009143Y-108484200D02*
X72104381Y-108531819D01*
X72104381Y-108531819D02*
X72294857Y-108531819D01*
X72294857Y-108531819D02*
X72390095Y-108484200D01*
X72390095Y-108484200D02*
X72437714Y-108436580D01*
X72437714Y-108436580D02*
X72485333Y-108341342D01*
X72485333Y-108341342D02*
X72485333Y-107531819D01*
X73485333Y-108531819D02*
X72913905Y-108531819D01*
X73199619Y-108531819D02*
X73199619Y-107531819D01*
X73199619Y-107531819D02*
X73104381Y-107674676D01*
X73104381Y-107674676D02*
X73009143Y-107769914D01*
X73009143Y-107769914D02*
X72913905Y-107817533D01*
X74342476Y-107531819D02*
X74152000Y-107531819D01*
X74152000Y-107531819D02*
X74056762Y-107579438D01*
X74056762Y-107579438D02*
X74009143Y-107627057D01*
X74009143Y-107627057D02*
X73913905Y-107769914D01*
X73913905Y-107769914D02*
X73866286Y-107960390D01*
X73866286Y-107960390D02*
X73866286Y-108341342D01*
X73866286Y-108341342D02*
X73913905Y-108436580D01*
X73913905Y-108436580D02*
X73961524Y-108484200D01*
X73961524Y-108484200D02*
X74056762Y-108531819D01*
X74056762Y-108531819D02*
X74247238Y-108531819D01*
X74247238Y-108531819D02*
X74342476Y-108484200D01*
X74342476Y-108484200D02*
X74390095Y-108436580D01*
X74390095Y-108436580D02*
X74437714Y-108341342D01*
X74437714Y-108341342D02*
X74437714Y-108103247D01*
X74437714Y-108103247D02*
X74390095Y-108008009D01*
X74390095Y-108008009D02*
X74342476Y-107960390D01*
X74342476Y-107960390D02*
X74247238Y-107912771D01*
X74247238Y-107912771D02*
X74056762Y-107912771D01*
X74056762Y-107912771D02*
X73961524Y-107960390D01*
X73961524Y-107960390D02*
X73913905Y-108008009D01*
X73913905Y-108008009D02*
X73866286Y-108103247D01*
X170203905Y-121485819D02*
X170203905Y-120485819D01*
X170203905Y-120485819D02*
X170442000Y-120485819D01*
X170442000Y-120485819D02*
X170584857Y-120533438D01*
X170584857Y-120533438D02*
X170680095Y-120628676D01*
X170680095Y-120628676D02*
X170727714Y-120723914D01*
X170727714Y-120723914D02*
X170775333Y-120914390D01*
X170775333Y-120914390D02*
X170775333Y-121057247D01*
X170775333Y-121057247D02*
X170727714Y-121247723D01*
X170727714Y-121247723D02*
X170680095Y-121342961D01*
X170680095Y-121342961D02*
X170584857Y-121438200D01*
X170584857Y-121438200D02*
X170442000Y-121485819D01*
X170442000Y-121485819D02*
X170203905Y-121485819D01*
X171680095Y-120485819D02*
X171203905Y-120485819D01*
X171203905Y-120485819D02*
X171156286Y-120962009D01*
X171156286Y-120962009D02*
X171203905Y-120914390D01*
X171203905Y-120914390D02*
X171299143Y-120866771D01*
X171299143Y-120866771D02*
X171537238Y-120866771D01*
X171537238Y-120866771D02*
X171632476Y-120914390D01*
X171632476Y-120914390D02*
X171680095Y-120962009D01*
X171680095Y-120962009D02*
X171727714Y-121057247D01*
X171727714Y-121057247D02*
X171727714Y-121295342D01*
X171727714Y-121295342D02*
X171680095Y-121390580D01*
X171680095Y-121390580D02*
X171632476Y-121438200D01*
X171632476Y-121438200D02*
X171537238Y-121485819D01*
X171537238Y-121485819D02*
X171299143Y-121485819D01*
X171299143Y-121485819D02*
X171203905Y-121438200D01*
X171203905Y-121438200D02*
X171156286Y-121390580D01*
X163830095Y-104737819D02*
X163830095Y-105547342D01*
X163830095Y-105547342D02*
X163877714Y-105642580D01*
X163877714Y-105642580D02*
X163925333Y-105690200D01*
X163925333Y-105690200D02*
X164020571Y-105737819D01*
X164020571Y-105737819D02*
X164211047Y-105737819D01*
X164211047Y-105737819D02*
X164306285Y-105690200D01*
X164306285Y-105690200D02*
X164353904Y-105642580D01*
X164353904Y-105642580D02*
X164401523Y-105547342D01*
X164401523Y-105547342D02*
X164401523Y-104737819D01*
X165353904Y-104737819D02*
X164877714Y-104737819D01*
X164877714Y-104737819D02*
X164830095Y-105214009D01*
X164830095Y-105214009D02*
X164877714Y-105166390D01*
X164877714Y-105166390D02*
X164972952Y-105118771D01*
X164972952Y-105118771D02*
X165211047Y-105118771D01*
X165211047Y-105118771D02*
X165306285Y-105166390D01*
X165306285Y-105166390D02*
X165353904Y-105214009D01*
X165353904Y-105214009D02*
X165401523Y-105309247D01*
X165401523Y-105309247D02*
X165401523Y-105547342D01*
X165401523Y-105547342D02*
X165353904Y-105642580D01*
X165353904Y-105642580D02*
X165306285Y-105690200D01*
X165306285Y-105690200D02*
X165211047Y-105737819D01*
X165211047Y-105737819D02*
X164972952Y-105737819D01*
X164972952Y-105737819D02*
X164877714Y-105690200D01*
X164877714Y-105690200D02*
X164830095Y-105642580D01*
X46767905Y-136741819D02*
X46767905Y-137551342D01*
X46767905Y-137551342D02*
X46815524Y-137646580D01*
X46815524Y-137646580D02*
X46863143Y-137694200D01*
X46863143Y-137694200D02*
X46958381Y-137741819D01*
X46958381Y-137741819D02*
X47148857Y-137741819D01*
X47148857Y-137741819D02*
X47244095Y-137694200D01*
X47244095Y-137694200D02*
X47291714Y-137646580D01*
X47291714Y-137646580D02*
X47339333Y-137551342D01*
X47339333Y-137551342D02*
X47339333Y-136741819D01*
X48339333Y-137741819D02*
X47767905Y-137741819D01*
X48053619Y-137741819D02*
X48053619Y-136741819D01*
X48053619Y-136741819D02*
X47958381Y-136884676D01*
X47958381Y-136884676D02*
X47863143Y-136979914D01*
X47863143Y-136979914D02*
X47767905Y-137027533D01*
X48672667Y-136741819D02*
X49339333Y-136741819D01*
X49339333Y-136741819D02*
X48910762Y-137741819D01*
X170140333Y-118945819D02*
X169807000Y-118469628D01*
X169568905Y-118945819D02*
X169568905Y-117945819D01*
X169568905Y-117945819D02*
X169949857Y-117945819D01*
X169949857Y-117945819D02*
X170045095Y-117993438D01*
X170045095Y-117993438D02*
X170092714Y-118041057D01*
X170092714Y-118041057D02*
X170140333Y-118136295D01*
X170140333Y-118136295D02*
X170140333Y-118279152D01*
X170140333Y-118279152D02*
X170092714Y-118374390D01*
X170092714Y-118374390D02*
X170045095Y-118422009D01*
X170045095Y-118422009D02*
X169949857Y-118469628D01*
X169949857Y-118469628D02*
X169568905Y-118469628D01*
X171092714Y-118945819D02*
X170521286Y-118945819D01*
X170807000Y-118945819D02*
X170807000Y-117945819D01*
X170807000Y-117945819D02*
X170711762Y-118088676D01*
X170711762Y-118088676D02*
X170616524Y-118183914D01*
X170616524Y-118183914D02*
X170521286Y-118231533D01*
X171410333Y-111357580D02*
X171362714Y-111405200D01*
X171362714Y-111405200D02*
X171219857Y-111452819D01*
X171219857Y-111452819D02*
X171124619Y-111452819D01*
X171124619Y-111452819D02*
X170981762Y-111405200D01*
X170981762Y-111405200D02*
X170886524Y-111309961D01*
X170886524Y-111309961D02*
X170838905Y-111214723D01*
X170838905Y-111214723D02*
X170791286Y-111024247D01*
X170791286Y-111024247D02*
X170791286Y-110881390D01*
X170791286Y-110881390D02*
X170838905Y-110690914D01*
X170838905Y-110690914D02*
X170886524Y-110595676D01*
X170886524Y-110595676D02*
X170981762Y-110500438D01*
X170981762Y-110500438D02*
X171124619Y-110452819D01*
X171124619Y-110452819D02*
X171219857Y-110452819D01*
X171219857Y-110452819D02*
X171362714Y-110500438D01*
X171362714Y-110500438D02*
X171410333Y-110548057D01*
X171791286Y-110548057D02*
X171838905Y-110500438D01*
X171838905Y-110500438D02*
X171934143Y-110452819D01*
X171934143Y-110452819D02*
X172172238Y-110452819D01*
X172172238Y-110452819D02*
X172267476Y-110500438D01*
X172267476Y-110500438D02*
X172315095Y-110548057D01*
X172315095Y-110548057D02*
X172362714Y-110643295D01*
X172362714Y-110643295D02*
X172362714Y-110738533D01*
X172362714Y-110738533D02*
X172315095Y-110881390D01*
X172315095Y-110881390D02*
X171743667Y-111452819D01*
X171743667Y-111452819D02*
X172362714Y-111452819D01*
X60398819Y-105957666D02*
X59922628Y-106290999D01*
X60398819Y-106529094D02*
X59398819Y-106529094D01*
X59398819Y-106529094D02*
X59398819Y-106148142D01*
X59398819Y-106148142D02*
X59446438Y-106052904D01*
X59446438Y-106052904D02*
X59494057Y-106005285D01*
X59494057Y-106005285D02*
X59589295Y-105957666D01*
X59589295Y-105957666D02*
X59732152Y-105957666D01*
X59732152Y-105957666D02*
X59827390Y-106005285D01*
X59827390Y-106005285D02*
X59875009Y-106052904D01*
X59875009Y-106052904D02*
X59922628Y-106148142D01*
X59922628Y-106148142D02*
X59922628Y-106529094D01*
X59398819Y-105624332D02*
X59398819Y-104957666D01*
X59398819Y-104957666D02*
X60398819Y-105386237D01*
X170203905Y-113865819D02*
X170203905Y-112865819D01*
X170203905Y-112865819D02*
X170442000Y-112865819D01*
X170442000Y-112865819D02*
X170584857Y-112913438D01*
X170584857Y-112913438D02*
X170680095Y-113008676D01*
X170680095Y-113008676D02*
X170727714Y-113103914D01*
X170727714Y-113103914D02*
X170775333Y-113294390D01*
X170775333Y-113294390D02*
X170775333Y-113437247D01*
X170775333Y-113437247D02*
X170727714Y-113627723D01*
X170727714Y-113627723D02*
X170680095Y-113722961D01*
X170680095Y-113722961D02*
X170584857Y-113818200D01*
X170584857Y-113818200D02*
X170442000Y-113865819D01*
X170442000Y-113865819D02*
X170203905Y-113865819D01*
X171632476Y-113199152D02*
X171632476Y-113865819D01*
X171394381Y-112818200D02*
X171156286Y-113532485D01*
X171156286Y-113532485D02*
X171775333Y-113532485D01*
X120501580Y-67571857D02*
X120549200Y-67619476D01*
X120549200Y-67619476D02*
X120596819Y-67762333D01*
X120596819Y-67762333D02*
X120596819Y-67857571D01*
X120596819Y-67857571D02*
X120549200Y-68000428D01*
X120549200Y-68000428D02*
X120453961Y-68095666D01*
X120453961Y-68095666D02*
X120358723Y-68143285D01*
X120358723Y-68143285D02*
X120168247Y-68190904D01*
X120168247Y-68190904D02*
X120025390Y-68190904D01*
X120025390Y-68190904D02*
X119834914Y-68143285D01*
X119834914Y-68143285D02*
X119739676Y-68095666D01*
X119739676Y-68095666D02*
X119644438Y-68000428D01*
X119644438Y-68000428D02*
X119596819Y-67857571D01*
X119596819Y-67857571D02*
X119596819Y-67762333D01*
X119596819Y-67762333D02*
X119644438Y-67619476D01*
X119644438Y-67619476D02*
X119692057Y-67571857D01*
X119692057Y-67190904D02*
X119644438Y-67143285D01*
X119644438Y-67143285D02*
X119596819Y-67048047D01*
X119596819Y-67048047D02*
X119596819Y-66809952D01*
X119596819Y-66809952D02*
X119644438Y-66714714D01*
X119644438Y-66714714D02*
X119692057Y-66667095D01*
X119692057Y-66667095D02*
X119787295Y-66619476D01*
X119787295Y-66619476D02*
X119882533Y-66619476D01*
X119882533Y-66619476D02*
X120025390Y-66667095D01*
X120025390Y-66667095D02*
X120596819Y-67238523D01*
X120596819Y-67238523D02*
X120596819Y-66619476D01*
X119930152Y-65762333D02*
X120596819Y-65762333D01*
X119549200Y-66000428D02*
X120263485Y-66238523D01*
X120263485Y-66238523D02*
X120263485Y-65619476D01*
X127079142Y-83184580D02*
X127031523Y-83232200D01*
X127031523Y-83232200D02*
X126888666Y-83279819D01*
X126888666Y-83279819D02*
X126793428Y-83279819D01*
X126793428Y-83279819D02*
X126650571Y-83232200D01*
X126650571Y-83232200D02*
X126555333Y-83136961D01*
X126555333Y-83136961D02*
X126507714Y-83041723D01*
X126507714Y-83041723D02*
X126460095Y-82851247D01*
X126460095Y-82851247D02*
X126460095Y-82708390D01*
X126460095Y-82708390D02*
X126507714Y-82517914D01*
X126507714Y-82517914D02*
X126555333Y-82422676D01*
X126555333Y-82422676D02*
X126650571Y-82327438D01*
X126650571Y-82327438D02*
X126793428Y-82279819D01*
X126793428Y-82279819D02*
X126888666Y-82279819D01*
X126888666Y-82279819D02*
X127031523Y-82327438D01*
X127031523Y-82327438D02*
X127079142Y-82375057D01*
X128031523Y-83279819D02*
X127460095Y-83279819D01*
X127745809Y-83279819D02*
X127745809Y-82279819D01*
X127745809Y-82279819D02*
X127650571Y-82422676D01*
X127650571Y-82422676D02*
X127555333Y-82517914D01*
X127555333Y-82517914D02*
X127460095Y-82565533D01*
X128602952Y-82708390D02*
X128507714Y-82660771D01*
X128507714Y-82660771D02*
X128460095Y-82613152D01*
X128460095Y-82613152D02*
X128412476Y-82517914D01*
X128412476Y-82517914D02*
X128412476Y-82470295D01*
X128412476Y-82470295D02*
X128460095Y-82375057D01*
X128460095Y-82375057D02*
X128507714Y-82327438D01*
X128507714Y-82327438D02*
X128602952Y-82279819D01*
X128602952Y-82279819D02*
X128793428Y-82279819D01*
X128793428Y-82279819D02*
X128888666Y-82327438D01*
X128888666Y-82327438D02*
X128936285Y-82375057D01*
X128936285Y-82375057D02*
X128983904Y-82470295D01*
X128983904Y-82470295D02*
X128983904Y-82517914D01*
X128983904Y-82517914D02*
X128936285Y-82613152D01*
X128936285Y-82613152D02*
X128888666Y-82660771D01*
X128888666Y-82660771D02*
X128793428Y-82708390D01*
X128793428Y-82708390D02*
X128602952Y-82708390D01*
X128602952Y-82708390D02*
X128507714Y-82756009D01*
X128507714Y-82756009D02*
X128460095Y-82803628D01*
X128460095Y-82803628D02*
X128412476Y-82898866D01*
X128412476Y-82898866D02*
X128412476Y-83089342D01*
X128412476Y-83089342D02*
X128460095Y-83184580D01*
X128460095Y-83184580D02*
X128507714Y-83232200D01*
X128507714Y-83232200D02*
X128602952Y-83279819D01*
X128602952Y-83279819D02*
X128793428Y-83279819D01*
X128793428Y-83279819D02*
X128888666Y-83232200D01*
X128888666Y-83232200D02*
X128936285Y-83184580D01*
X128936285Y-83184580D02*
X128983904Y-83089342D01*
X128983904Y-83089342D02*
X128983904Y-82898866D01*
X128983904Y-82898866D02*
X128936285Y-82803628D01*
X128936285Y-82803628D02*
X128888666Y-82756009D01*
X128888666Y-82756009D02*
X128793428Y-82708390D01*
X182903905Y-72717819D02*
X182903905Y-71717819D01*
X182903905Y-71717819D02*
X183142000Y-71717819D01*
X183142000Y-71717819D02*
X183284857Y-71765438D01*
X183284857Y-71765438D02*
X183380095Y-71860676D01*
X183380095Y-71860676D02*
X183427714Y-71955914D01*
X183427714Y-71955914D02*
X183475333Y-72146390D01*
X183475333Y-72146390D02*
X183475333Y-72289247D01*
X183475333Y-72289247D02*
X183427714Y-72479723D01*
X183427714Y-72479723D02*
X183380095Y-72574961D01*
X183380095Y-72574961D02*
X183284857Y-72670200D01*
X183284857Y-72670200D02*
X183142000Y-72717819D01*
X183142000Y-72717819D02*
X182903905Y-72717819D01*
X183808667Y-71717819D02*
X184427714Y-71717819D01*
X184427714Y-71717819D02*
X184094381Y-72098771D01*
X184094381Y-72098771D02*
X184237238Y-72098771D01*
X184237238Y-72098771D02*
X184332476Y-72146390D01*
X184332476Y-72146390D02*
X184380095Y-72194009D01*
X184380095Y-72194009D02*
X184427714Y-72289247D01*
X184427714Y-72289247D02*
X184427714Y-72527342D01*
X184427714Y-72527342D02*
X184380095Y-72622580D01*
X184380095Y-72622580D02*
X184332476Y-72670200D01*
X184332476Y-72670200D02*
X184237238Y-72717819D01*
X184237238Y-72717819D02*
X183951524Y-72717819D01*
X183951524Y-72717819D02*
X183856286Y-72670200D01*
X183856286Y-72670200D02*
X183808667Y-72622580D01*
X109339142Y-83290580D02*
X109291523Y-83338200D01*
X109291523Y-83338200D02*
X109148666Y-83385819D01*
X109148666Y-83385819D02*
X109053428Y-83385819D01*
X109053428Y-83385819D02*
X108910571Y-83338200D01*
X108910571Y-83338200D02*
X108815333Y-83242961D01*
X108815333Y-83242961D02*
X108767714Y-83147723D01*
X108767714Y-83147723D02*
X108720095Y-82957247D01*
X108720095Y-82957247D02*
X108720095Y-82814390D01*
X108720095Y-82814390D02*
X108767714Y-82623914D01*
X108767714Y-82623914D02*
X108815333Y-82528676D01*
X108815333Y-82528676D02*
X108910571Y-82433438D01*
X108910571Y-82433438D02*
X109053428Y-82385819D01*
X109053428Y-82385819D02*
X109148666Y-82385819D01*
X109148666Y-82385819D02*
X109291523Y-82433438D01*
X109291523Y-82433438D02*
X109339142Y-82481057D01*
X110291523Y-83385819D02*
X109720095Y-83385819D01*
X110005809Y-83385819D02*
X110005809Y-82385819D01*
X110005809Y-82385819D02*
X109910571Y-82528676D01*
X109910571Y-82528676D02*
X109815333Y-82623914D01*
X109815333Y-82623914D02*
X109720095Y-82671533D01*
X110767714Y-83385819D02*
X110958190Y-83385819D01*
X110958190Y-83385819D02*
X111053428Y-83338200D01*
X111053428Y-83338200D02*
X111101047Y-83290580D01*
X111101047Y-83290580D02*
X111196285Y-83147723D01*
X111196285Y-83147723D02*
X111243904Y-82957247D01*
X111243904Y-82957247D02*
X111243904Y-82576295D01*
X111243904Y-82576295D02*
X111196285Y-82481057D01*
X111196285Y-82481057D02*
X111148666Y-82433438D01*
X111148666Y-82433438D02*
X111053428Y-82385819D01*
X111053428Y-82385819D02*
X110862952Y-82385819D01*
X110862952Y-82385819D02*
X110767714Y-82433438D01*
X110767714Y-82433438D02*
X110720095Y-82481057D01*
X110720095Y-82481057D02*
X110672476Y-82576295D01*
X110672476Y-82576295D02*
X110672476Y-82814390D01*
X110672476Y-82814390D02*
X110720095Y-82909628D01*
X110720095Y-82909628D02*
X110767714Y-82957247D01*
X110767714Y-82957247D02*
X110862952Y-83004866D01*
X110862952Y-83004866D02*
X111053428Y-83004866D01*
X111053428Y-83004866D02*
X111148666Y-82957247D01*
X111148666Y-82957247D02*
X111196285Y-82909628D01*
X111196285Y-82909628D02*
X111243904Y-82814390D01*
X95281905Y-132677819D02*
X95281905Y-133487342D01*
X95281905Y-133487342D02*
X95329524Y-133582580D01*
X95329524Y-133582580D02*
X95377143Y-133630200D01*
X95377143Y-133630200D02*
X95472381Y-133677819D01*
X95472381Y-133677819D02*
X95662857Y-133677819D01*
X95662857Y-133677819D02*
X95758095Y-133630200D01*
X95758095Y-133630200D02*
X95805714Y-133582580D01*
X95805714Y-133582580D02*
X95853333Y-133487342D01*
X95853333Y-133487342D02*
X95853333Y-132677819D01*
X96853333Y-133677819D02*
X96281905Y-133677819D01*
X96567619Y-133677819D02*
X96567619Y-132677819D01*
X96567619Y-132677819D02*
X96472381Y-132820676D01*
X96472381Y-132820676D02*
X96377143Y-132915914D01*
X96377143Y-132915914D02*
X96281905Y-132963533D01*
X97758095Y-132677819D02*
X97281905Y-132677819D01*
X97281905Y-132677819D02*
X97234286Y-133154009D01*
X97234286Y-133154009D02*
X97281905Y-133106390D01*
X97281905Y-133106390D02*
X97377143Y-133058771D01*
X97377143Y-133058771D02*
X97615238Y-133058771D01*
X97615238Y-133058771D02*
X97710476Y-133106390D01*
X97710476Y-133106390D02*
X97758095Y-133154009D01*
X97758095Y-133154009D02*
X97805714Y-133249247D01*
X97805714Y-133249247D02*
X97805714Y-133487342D01*
X97805714Y-133487342D02*
X97758095Y-133582580D01*
X97758095Y-133582580D02*
X97710476Y-133630200D01*
X97710476Y-133630200D02*
X97615238Y-133677819D01*
X97615238Y-133677819D02*
X97377143Y-133677819D01*
X97377143Y-133677819D02*
X97281905Y-133630200D01*
X97281905Y-133630200D02*
X97234286Y-133582580D01*
X71913905Y-74257819D02*
X71913905Y-75067342D01*
X71913905Y-75067342D02*
X71961524Y-75162580D01*
X71961524Y-75162580D02*
X72009143Y-75210200D01*
X72009143Y-75210200D02*
X72104381Y-75257819D01*
X72104381Y-75257819D02*
X72294857Y-75257819D01*
X72294857Y-75257819D02*
X72390095Y-75210200D01*
X72390095Y-75210200D02*
X72437714Y-75162580D01*
X72437714Y-75162580D02*
X72485333Y-75067342D01*
X72485333Y-75067342D02*
X72485333Y-74257819D01*
X73485333Y-75257819D02*
X72913905Y-75257819D01*
X73199619Y-75257819D02*
X73199619Y-74257819D01*
X73199619Y-74257819D02*
X73104381Y-74400676D01*
X73104381Y-74400676D02*
X73009143Y-74495914D01*
X73009143Y-74495914D02*
X72913905Y-74543533D01*
X73866286Y-74353057D02*
X73913905Y-74305438D01*
X73913905Y-74305438D02*
X74009143Y-74257819D01*
X74009143Y-74257819D02*
X74247238Y-74257819D01*
X74247238Y-74257819D02*
X74342476Y-74305438D01*
X74342476Y-74305438D02*
X74390095Y-74353057D01*
X74390095Y-74353057D02*
X74437714Y-74448295D01*
X74437714Y-74448295D02*
X74437714Y-74543533D01*
X74437714Y-74543533D02*
X74390095Y-74686390D01*
X74390095Y-74686390D02*
X73818667Y-75257819D01*
X73818667Y-75257819D02*
X74437714Y-75257819D01*
X147280333Y-124025819D02*
X146947000Y-123549628D01*
X146708905Y-124025819D02*
X146708905Y-123025819D01*
X146708905Y-123025819D02*
X147089857Y-123025819D01*
X147089857Y-123025819D02*
X147185095Y-123073438D01*
X147185095Y-123073438D02*
X147232714Y-123121057D01*
X147232714Y-123121057D02*
X147280333Y-123216295D01*
X147280333Y-123216295D02*
X147280333Y-123359152D01*
X147280333Y-123359152D02*
X147232714Y-123454390D01*
X147232714Y-123454390D02*
X147185095Y-123502009D01*
X147185095Y-123502009D02*
X147089857Y-123549628D01*
X147089857Y-123549628D02*
X146708905Y-123549628D01*
X148185095Y-123025819D02*
X147708905Y-123025819D01*
X147708905Y-123025819D02*
X147661286Y-123502009D01*
X147661286Y-123502009D02*
X147708905Y-123454390D01*
X147708905Y-123454390D02*
X147804143Y-123406771D01*
X147804143Y-123406771D02*
X148042238Y-123406771D01*
X148042238Y-123406771D02*
X148137476Y-123454390D01*
X148137476Y-123454390D02*
X148185095Y-123502009D01*
X148185095Y-123502009D02*
X148232714Y-123597247D01*
X148232714Y-123597247D02*
X148232714Y-123835342D01*
X148232714Y-123835342D02*
X148185095Y-123930580D01*
X148185095Y-123930580D02*
X148137476Y-123978200D01*
X148137476Y-123978200D02*
X148042238Y-124025819D01*
X148042238Y-124025819D02*
X147804143Y-124025819D01*
X147804143Y-124025819D02*
X147708905Y-123978200D01*
X147708905Y-123978200D02*
X147661286Y-123930580D01*
X70945142Y-83184580D02*
X70897523Y-83232200D01*
X70897523Y-83232200D02*
X70754666Y-83279819D01*
X70754666Y-83279819D02*
X70659428Y-83279819D01*
X70659428Y-83279819D02*
X70516571Y-83232200D01*
X70516571Y-83232200D02*
X70421333Y-83136961D01*
X70421333Y-83136961D02*
X70373714Y-83041723D01*
X70373714Y-83041723D02*
X70326095Y-82851247D01*
X70326095Y-82851247D02*
X70326095Y-82708390D01*
X70326095Y-82708390D02*
X70373714Y-82517914D01*
X70373714Y-82517914D02*
X70421333Y-82422676D01*
X70421333Y-82422676D02*
X70516571Y-82327438D01*
X70516571Y-82327438D02*
X70659428Y-82279819D01*
X70659428Y-82279819D02*
X70754666Y-82279819D01*
X70754666Y-82279819D02*
X70897523Y-82327438D01*
X70897523Y-82327438D02*
X70945142Y-82375057D01*
X71326095Y-82375057D02*
X71373714Y-82327438D01*
X71373714Y-82327438D02*
X71468952Y-82279819D01*
X71468952Y-82279819D02*
X71707047Y-82279819D01*
X71707047Y-82279819D02*
X71802285Y-82327438D01*
X71802285Y-82327438D02*
X71849904Y-82375057D01*
X71849904Y-82375057D02*
X71897523Y-82470295D01*
X71897523Y-82470295D02*
X71897523Y-82565533D01*
X71897523Y-82565533D02*
X71849904Y-82708390D01*
X71849904Y-82708390D02*
X71278476Y-83279819D01*
X71278476Y-83279819D02*
X71897523Y-83279819D01*
X72278476Y-82375057D02*
X72326095Y-82327438D01*
X72326095Y-82327438D02*
X72421333Y-82279819D01*
X72421333Y-82279819D02*
X72659428Y-82279819D01*
X72659428Y-82279819D02*
X72754666Y-82327438D01*
X72754666Y-82327438D02*
X72802285Y-82375057D01*
X72802285Y-82375057D02*
X72849904Y-82470295D01*
X72849904Y-82470295D02*
X72849904Y-82565533D01*
X72849904Y-82565533D02*
X72802285Y-82708390D01*
X72802285Y-82708390D02*
X72230857Y-83279819D01*
X72230857Y-83279819D02*
X72849904Y-83279819D01*
X170140333Y-126565819D02*
X169807000Y-126089628D01*
X169568905Y-126565819D02*
X169568905Y-125565819D01*
X169568905Y-125565819D02*
X169949857Y-125565819D01*
X169949857Y-125565819D02*
X170045095Y-125613438D01*
X170045095Y-125613438D02*
X170092714Y-125661057D01*
X170092714Y-125661057D02*
X170140333Y-125756295D01*
X170140333Y-125756295D02*
X170140333Y-125899152D01*
X170140333Y-125899152D02*
X170092714Y-125994390D01*
X170092714Y-125994390D02*
X170045095Y-126042009D01*
X170045095Y-126042009D02*
X169949857Y-126089628D01*
X169949857Y-126089628D02*
X169568905Y-126089628D01*
X170521286Y-125661057D02*
X170568905Y-125613438D01*
X170568905Y-125613438D02*
X170664143Y-125565819D01*
X170664143Y-125565819D02*
X170902238Y-125565819D01*
X170902238Y-125565819D02*
X170997476Y-125613438D01*
X170997476Y-125613438D02*
X171045095Y-125661057D01*
X171045095Y-125661057D02*
X171092714Y-125756295D01*
X171092714Y-125756295D02*
X171092714Y-125851533D01*
X171092714Y-125851533D02*
X171045095Y-125994390D01*
X171045095Y-125994390D02*
X170473667Y-126565819D01*
X170473667Y-126565819D02*
X171092714Y-126565819D01*
X170203905Y-131645819D02*
X170203905Y-130645819D01*
X170203905Y-130645819D02*
X170442000Y-130645819D01*
X170442000Y-130645819D02*
X170584857Y-130693438D01*
X170584857Y-130693438D02*
X170680095Y-130788676D01*
X170680095Y-130788676D02*
X170727714Y-130883914D01*
X170727714Y-130883914D02*
X170775333Y-131074390D01*
X170775333Y-131074390D02*
X170775333Y-131217247D01*
X170775333Y-131217247D02*
X170727714Y-131407723D01*
X170727714Y-131407723D02*
X170680095Y-131502961D01*
X170680095Y-131502961D02*
X170584857Y-131598200D01*
X170584857Y-131598200D02*
X170442000Y-131645819D01*
X170442000Y-131645819D02*
X170203905Y-131645819D01*
X171632476Y-130645819D02*
X171442000Y-130645819D01*
X171442000Y-130645819D02*
X171346762Y-130693438D01*
X171346762Y-130693438D02*
X171299143Y-130741057D01*
X171299143Y-130741057D02*
X171203905Y-130883914D01*
X171203905Y-130883914D02*
X171156286Y-131074390D01*
X171156286Y-131074390D02*
X171156286Y-131455342D01*
X171156286Y-131455342D02*
X171203905Y-131550580D01*
X171203905Y-131550580D02*
X171251524Y-131598200D01*
X171251524Y-131598200D02*
X171346762Y-131645819D01*
X171346762Y-131645819D02*
X171537238Y-131645819D01*
X171537238Y-131645819D02*
X171632476Y-131598200D01*
X171632476Y-131598200D02*
X171680095Y-131550580D01*
X171680095Y-131550580D02*
X171727714Y-131455342D01*
X171727714Y-131455342D02*
X171727714Y-131217247D01*
X171727714Y-131217247D02*
X171680095Y-131122009D01*
X171680095Y-131122009D02*
X171632476Y-131074390D01*
X171632476Y-131074390D02*
X171537238Y-131026771D01*
X171537238Y-131026771D02*
X171346762Y-131026771D01*
X171346762Y-131026771D02*
X171251524Y-131074390D01*
X171251524Y-131074390D02*
X171203905Y-131122009D01*
X171203905Y-131122009D02*
X171156286Y-131217247D01*
X60398819Y-82589666D02*
X59922628Y-82922999D01*
X60398819Y-83161094D02*
X59398819Y-83161094D01*
X59398819Y-83161094D02*
X59398819Y-82780142D01*
X59398819Y-82780142D02*
X59446438Y-82684904D01*
X59446438Y-82684904D02*
X59494057Y-82637285D01*
X59494057Y-82637285D02*
X59589295Y-82589666D01*
X59589295Y-82589666D02*
X59732152Y-82589666D01*
X59732152Y-82589666D02*
X59827390Y-82637285D01*
X59827390Y-82637285D02*
X59875009Y-82684904D01*
X59875009Y-82684904D02*
X59922628Y-82780142D01*
X59922628Y-82780142D02*
X59922628Y-83161094D01*
X60398819Y-82113475D02*
X60398819Y-81922999D01*
X60398819Y-81922999D02*
X60351200Y-81827761D01*
X60351200Y-81827761D02*
X60303580Y-81780142D01*
X60303580Y-81780142D02*
X60160723Y-81684904D01*
X60160723Y-81684904D02*
X59970247Y-81637285D01*
X59970247Y-81637285D02*
X59589295Y-81637285D01*
X59589295Y-81637285D02*
X59494057Y-81684904D01*
X59494057Y-81684904D02*
X59446438Y-81732523D01*
X59446438Y-81732523D02*
X59398819Y-81827761D01*
X59398819Y-81827761D02*
X59398819Y-82018237D01*
X59398819Y-82018237D02*
X59446438Y-82113475D01*
X59446438Y-82113475D02*
X59494057Y-82161094D01*
X59494057Y-82161094D02*
X59589295Y-82208713D01*
X59589295Y-82208713D02*
X59827390Y-82208713D01*
X59827390Y-82208713D02*
X59922628Y-82161094D01*
X59922628Y-82161094D02*
X59970247Y-82113475D01*
X59970247Y-82113475D02*
X60017866Y-82018237D01*
X60017866Y-82018237D02*
X60017866Y-81827761D01*
X60017866Y-81827761D02*
X59970247Y-81732523D01*
X59970247Y-81732523D02*
X59922628Y-81684904D01*
X59922628Y-81684904D02*
X59827390Y-81637285D01*
X181356095Y-64097819D02*
X181356095Y-64907342D01*
X181356095Y-64907342D02*
X181403714Y-65002580D01*
X181403714Y-65002580D02*
X181451333Y-65050200D01*
X181451333Y-65050200D02*
X181546571Y-65097819D01*
X181546571Y-65097819D02*
X181737047Y-65097819D01*
X181737047Y-65097819D02*
X181832285Y-65050200D01*
X181832285Y-65050200D02*
X181879904Y-65002580D01*
X181879904Y-65002580D02*
X181927523Y-64907342D01*
X181927523Y-64907342D02*
X181927523Y-64097819D01*
X182832285Y-64431152D02*
X182832285Y-65097819D01*
X182594190Y-64050200D02*
X182356095Y-64764485D01*
X182356095Y-64764485D02*
X182975142Y-64764485D01*
X158115095Y-123152819D02*
X158115095Y-123962342D01*
X158115095Y-123962342D02*
X158162714Y-124057580D01*
X158162714Y-124057580D02*
X158210333Y-124105200D01*
X158210333Y-124105200D02*
X158305571Y-124152819D01*
X158305571Y-124152819D02*
X158496047Y-124152819D01*
X158496047Y-124152819D02*
X158591285Y-124105200D01*
X158591285Y-124105200D02*
X158638904Y-124057580D01*
X158638904Y-124057580D02*
X158686523Y-123962342D01*
X158686523Y-123962342D02*
X158686523Y-123152819D01*
X159067476Y-123152819D02*
X159686523Y-123152819D01*
X159686523Y-123152819D02*
X159353190Y-123533771D01*
X159353190Y-123533771D02*
X159496047Y-123533771D01*
X159496047Y-123533771D02*
X159591285Y-123581390D01*
X159591285Y-123581390D02*
X159638904Y-123629009D01*
X159638904Y-123629009D02*
X159686523Y-123724247D01*
X159686523Y-123724247D02*
X159686523Y-123962342D01*
X159686523Y-123962342D02*
X159638904Y-124057580D01*
X159638904Y-124057580D02*
X159591285Y-124105200D01*
X159591285Y-124105200D02*
X159496047Y-124152819D01*
X159496047Y-124152819D02*
X159210333Y-124152819D01*
X159210333Y-124152819D02*
X159115095Y-124105200D01*
X159115095Y-124105200D02*
X159067476Y-124057580D01*
X157440333Y-131677580D02*
X157392714Y-131725200D01*
X157392714Y-131725200D02*
X157249857Y-131772819D01*
X157249857Y-131772819D02*
X157154619Y-131772819D01*
X157154619Y-131772819D02*
X157011762Y-131725200D01*
X157011762Y-131725200D02*
X156916524Y-131629961D01*
X156916524Y-131629961D02*
X156868905Y-131534723D01*
X156868905Y-131534723D02*
X156821286Y-131344247D01*
X156821286Y-131344247D02*
X156821286Y-131201390D01*
X156821286Y-131201390D02*
X156868905Y-131010914D01*
X156868905Y-131010914D02*
X156916524Y-130915676D01*
X156916524Y-130915676D02*
X157011762Y-130820438D01*
X157011762Y-130820438D02*
X157154619Y-130772819D01*
X157154619Y-130772819D02*
X157249857Y-130772819D01*
X157249857Y-130772819D02*
X157392714Y-130820438D01*
X157392714Y-130820438D02*
X157440333Y-130868057D01*
X158345095Y-130772819D02*
X157868905Y-130772819D01*
X157868905Y-130772819D02*
X157821286Y-131249009D01*
X157821286Y-131249009D02*
X157868905Y-131201390D01*
X157868905Y-131201390D02*
X157964143Y-131153771D01*
X157964143Y-131153771D02*
X158202238Y-131153771D01*
X158202238Y-131153771D02*
X158297476Y-131201390D01*
X158297476Y-131201390D02*
X158345095Y-131249009D01*
X158345095Y-131249009D02*
X158392714Y-131344247D01*
X158392714Y-131344247D02*
X158392714Y-131582342D01*
X158392714Y-131582342D02*
X158345095Y-131677580D01*
X158345095Y-131677580D02*
X158297476Y-131725200D01*
X158297476Y-131725200D02*
X158202238Y-131772819D01*
X158202238Y-131772819D02*
X157964143Y-131772819D01*
X157964143Y-131772819D02*
X157868905Y-131725200D01*
X157868905Y-131725200D02*
X157821286Y-131677580D01*
X172045333Y-123930580D02*
X171997714Y-123978200D01*
X171997714Y-123978200D02*
X171854857Y-124025819D01*
X171854857Y-124025819D02*
X171759619Y-124025819D01*
X171759619Y-124025819D02*
X171616762Y-123978200D01*
X171616762Y-123978200D02*
X171521524Y-123882961D01*
X171521524Y-123882961D02*
X171473905Y-123787723D01*
X171473905Y-123787723D02*
X171426286Y-123597247D01*
X171426286Y-123597247D02*
X171426286Y-123454390D01*
X171426286Y-123454390D02*
X171473905Y-123263914D01*
X171473905Y-123263914D02*
X171521524Y-123168676D01*
X171521524Y-123168676D02*
X171616762Y-123073438D01*
X171616762Y-123073438D02*
X171759619Y-123025819D01*
X171759619Y-123025819D02*
X171854857Y-123025819D01*
X171854857Y-123025819D02*
X171997714Y-123073438D01*
X171997714Y-123073438D02*
X172045333Y-123121057D01*
X172902476Y-123359152D02*
X172902476Y-124025819D01*
X172664381Y-122978200D02*
X172426286Y-123692485D01*
X172426286Y-123692485D02*
X173045333Y-123692485D01*
X188065580Y-97869666D02*
X188113200Y-97917285D01*
X188113200Y-97917285D02*
X188160819Y-98060142D01*
X188160819Y-98060142D02*
X188160819Y-98155380D01*
X188160819Y-98155380D02*
X188113200Y-98298237D01*
X188113200Y-98298237D02*
X188017961Y-98393475D01*
X188017961Y-98393475D02*
X187922723Y-98441094D01*
X187922723Y-98441094D02*
X187732247Y-98488713D01*
X187732247Y-98488713D02*
X187589390Y-98488713D01*
X187589390Y-98488713D02*
X187398914Y-98441094D01*
X187398914Y-98441094D02*
X187303676Y-98393475D01*
X187303676Y-98393475D02*
X187208438Y-98298237D01*
X187208438Y-98298237D02*
X187160819Y-98155380D01*
X187160819Y-98155380D02*
X187160819Y-98060142D01*
X187160819Y-98060142D02*
X187208438Y-97917285D01*
X187208438Y-97917285D02*
X187256057Y-97869666D01*
X188160819Y-96917285D02*
X188160819Y-97488713D01*
X188160819Y-97202999D02*
X187160819Y-97202999D01*
X187160819Y-97202999D02*
X187303676Y-97298237D01*
X187303676Y-97298237D02*
X187398914Y-97393475D01*
X187398914Y-97393475D02*
X187446533Y-97488713D01*
X110490095Y-74257819D02*
X110490095Y-75067342D01*
X110490095Y-75067342D02*
X110537714Y-75162580D01*
X110537714Y-75162580D02*
X110585333Y-75210200D01*
X110585333Y-75210200D02*
X110680571Y-75257819D01*
X110680571Y-75257819D02*
X110871047Y-75257819D01*
X110871047Y-75257819D02*
X110966285Y-75210200D01*
X110966285Y-75210200D02*
X111013904Y-75162580D01*
X111013904Y-75162580D02*
X111061523Y-75067342D01*
X111061523Y-75067342D02*
X111061523Y-74257819D01*
X111585333Y-75257819D02*
X111775809Y-75257819D01*
X111775809Y-75257819D02*
X111871047Y-75210200D01*
X111871047Y-75210200D02*
X111918666Y-75162580D01*
X111918666Y-75162580D02*
X112013904Y-75019723D01*
X112013904Y-75019723D02*
X112061523Y-74829247D01*
X112061523Y-74829247D02*
X112061523Y-74448295D01*
X112061523Y-74448295D02*
X112013904Y-74353057D01*
X112013904Y-74353057D02*
X111966285Y-74305438D01*
X111966285Y-74305438D02*
X111871047Y-74257819D01*
X111871047Y-74257819D02*
X111680571Y-74257819D01*
X111680571Y-74257819D02*
X111585333Y-74305438D01*
X111585333Y-74305438D02*
X111537714Y-74353057D01*
X111537714Y-74353057D02*
X111490095Y-74448295D01*
X111490095Y-74448295D02*
X111490095Y-74686390D01*
X111490095Y-74686390D02*
X111537714Y-74781628D01*
X111537714Y-74781628D02*
X111585333Y-74829247D01*
X111585333Y-74829247D02*
X111680571Y-74876866D01*
X111680571Y-74876866D02*
X111871047Y-74876866D01*
X111871047Y-74876866D02*
X111966285Y-74829247D01*
X111966285Y-74829247D02*
X112013904Y-74781628D01*
X112013904Y-74781628D02*
X112061523Y-74686390D01*
X57223819Y-105957666D02*
X56747628Y-106290999D01*
X57223819Y-106529094D02*
X56223819Y-106529094D01*
X56223819Y-106529094D02*
X56223819Y-106148142D01*
X56223819Y-106148142D02*
X56271438Y-106052904D01*
X56271438Y-106052904D02*
X56319057Y-106005285D01*
X56319057Y-106005285D02*
X56414295Y-105957666D01*
X56414295Y-105957666D02*
X56557152Y-105957666D01*
X56557152Y-105957666D02*
X56652390Y-106005285D01*
X56652390Y-106005285D02*
X56700009Y-106052904D01*
X56700009Y-106052904D02*
X56747628Y-106148142D01*
X56747628Y-106148142D02*
X56747628Y-106529094D01*
X56652390Y-105386237D02*
X56604771Y-105481475D01*
X56604771Y-105481475D02*
X56557152Y-105529094D01*
X56557152Y-105529094D02*
X56461914Y-105576713D01*
X56461914Y-105576713D02*
X56414295Y-105576713D01*
X56414295Y-105576713D02*
X56319057Y-105529094D01*
X56319057Y-105529094D02*
X56271438Y-105481475D01*
X56271438Y-105481475D02*
X56223819Y-105386237D01*
X56223819Y-105386237D02*
X56223819Y-105195761D01*
X56223819Y-105195761D02*
X56271438Y-105100523D01*
X56271438Y-105100523D02*
X56319057Y-105052904D01*
X56319057Y-105052904D02*
X56414295Y-105005285D01*
X56414295Y-105005285D02*
X56461914Y-105005285D01*
X56461914Y-105005285D02*
X56557152Y-105052904D01*
X56557152Y-105052904D02*
X56604771Y-105100523D01*
X56604771Y-105100523D02*
X56652390Y-105195761D01*
X56652390Y-105195761D02*
X56652390Y-105386237D01*
X56652390Y-105386237D02*
X56700009Y-105481475D01*
X56700009Y-105481475D02*
X56747628Y-105529094D01*
X56747628Y-105529094D02*
X56842866Y-105576713D01*
X56842866Y-105576713D02*
X57033342Y-105576713D01*
X57033342Y-105576713D02*
X57128580Y-105529094D01*
X57128580Y-105529094D02*
X57176200Y-105481475D01*
X57176200Y-105481475D02*
X57223819Y-105386237D01*
X57223819Y-105386237D02*
X57223819Y-105195761D01*
X57223819Y-105195761D02*
X57176200Y-105100523D01*
X57176200Y-105100523D02*
X57128580Y-105052904D01*
X57128580Y-105052904D02*
X57033342Y-105005285D01*
X57033342Y-105005285D02*
X56842866Y-105005285D01*
X56842866Y-105005285D02*
X56747628Y-105052904D01*
X56747628Y-105052904D02*
X56700009Y-105100523D01*
X56700009Y-105100523D02*
X56652390Y-105195761D01*
X59541580Y-65031857D02*
X59589200Y-65079476D01*
X59589200Y-65079476D02*
X59636819Y-65222333D01*
X59636819Y-65222333D02*
X59636819Y-65317571D01*
X59636819Y-65317571D02*
X59589200Y-65460428D01*
X59589200Y-65460428D02*
X59493961Y-65555666D01*
X59493961Y-65555666D02*
X59398723Y-65603285D01*
X59398723Y-65603285D02*
X59208247Y-65650904D01*
X59208247Y-65650904D02*
X59065390Y-65650904D01*
X59065390Y-65650904D02*
X58874914Y-65603285D01*
X58874914Y-65603285D02*
X58779676Y-65555666D01*
X58779676Y-65555666D02*
X58684438Y-65460428D01*
X58684438Y-65460428D02*
X58636819Y-65317571D01*
X58636819Y-65317571D02*
X58636819Y-65222333D01*
X58636819Y-65222333D02*
X58684438Y-65079476D01*
X58684438Y-65079476D02*
X58732057Y-65031857D01*
X59636819Y-64079476D02*
X59636819Y-64650904D01*
X59636819Y-64365190D02*
X58636819Y-64365190D01*
X58636819Y-64365190D02*
X58779676Y-64460428D01*
X58779676Y-64460428D02*
X58874914Y-64555666D01*
X58874914Y-64555666D02*
X58922533Y-64650904D01*
X58970152Y-63222333D02*
X59636819Y-63222333D01*
X58589200Y-63460428D02*
X59303485Y-63698523D01*
X59303485Y-63698523D02*
X59303485Y-63079476D01*
X157463905Y-129105819D02*
X157463905Y-128105819D01*
X157463905Y-128105819D02*
X157702000Y-128105819D01*
X157702000Y-128105819D02*
X157844857Y-128153438D01*
X157844857Y-128153438D02*
X157940095Y-128248676D01*
X157940095Y-128248676D02*
X157987714Y-128343914D01*
X157987714Y-128343914D02*
X158035333Y-128534390D01*
X158035333Y-128534390D02*
X158035333Y-128677247D01*
X158035333Y-128677247D02*
X157987714Y-128867723D01*
X157987714Y-128867723D02*
X157940095Y-128962961D01*
X157940095Y-128962961D02*
X157844857Y-129058200D01*
X157844857Y-129058200D02*
X157702000Y-129105819D01*
X157702000Y-129105819D02*
X157463905Y-129105819D01*
X158511524Y-129105819D02*
X158702000Y-129105819D01*
X158702000Y-129105819D02*
X158797238Y-129058200D01*
X158797238Y-129058200D02*
X158844857Y-129010580D01*
X158844857Y-129010580D02*
X158940095Y-128867723D01*
X158940095Y-128867723D02*
X158987714Y-128677247D01*
X158987714Y-128677247D02*
X158987714Y-128296295D01*
X158987714Y-128296295D02*
X158940095Y-128201057D01*
X158940095Y-128201057D02*
X158892476Y-128153438D01*
X158892476Y-128153438D02*
X158797238Y-128105819D01*
X158797238Y-128105819D02*
X158606762Y-128105819D01*
X158606762Y-128105819D02*
X158511524Y-128153438D01*
X158511524Y-128153438D02*
X158463905Y-128201057D01*
X158463905Y-128201057D02*
X158416286Y-128296295D01*
X158416286Y-128296295D02*
X158416286Y-128534390D01*
X158416286Y-128534390D02*
X158463905Y-128629628D01*
X158463905Y-128629628D02*
X158511524Y-128677247D01*
X158511524Y-128677247D02*
X158606762Y-128724866D01*
X158606762Y-128724866D02*
X158797238Y-128724866D01*
X158797238Y-128724866D02*
X158892476Y-128677247D01*
X158892476Y-128677247D02*
X158940095Y-128629628D01*
X158940095Y-128629628D02*
X158987714Y-128534390D01*
X144137142Y-136757580D02*
X144089523Y-136805200D01*
X144089523Y-136805200D02*
X143946666Y-136852819D01*
X143946666Y-136852819D02*
X143851428Y-136852819D01*
X143851428Y-136852819D02*
X143708571Y-136805200D01*
X143708571Y-136805200D02*
X143613333Y-136709961D01*
X143613333Y-136709961D02*
X143565714Y-136614723D01*
X143565714Y-136614723D02*
X143518095Y-136424247D01*
X143518095Y-136424247D02*
X143518095Y-136281390D01*
X143518095Y-136281390D02*
X143565714Y-136090914D01*
X143565714Y-136090914D02*
X143613333Y-135995676D01*
X143613333Y-135995676D02*
X143708571Y-135900438D01*
X143708571Y-135900438D02*
X143851428Y-135852819D01*
X143851428Y-135852819D02*
X143946666Y-135852819D01*
X143946666Y-135852819D02*
X144089523Y-135900438D01*
X144089523Y-135900438D02*
X144137142Y-135948057D01*
X145089523Y-136852819D02*
X144518095Y-136852819D01*
X144803809Y-136852819D02*
X144803809Y-135852819D01*
X144803809Y-135852819D02*
X144708571Y-135995676D01*
X144708571Y-135995676D02*
X144613333Y-136090914D01*
X144613333Y-136090914D02*
X144518095Y-136138533D01*
X145708571Y-135852819D02*
X145803809Y-135852819D01*
X145803809Y-135852819D02*
X145899047Y-135900438D01*
X145899047Y-135900438D02*
X145946666Y-135948057D01*
X145946666Y-135948057D02*
X145994285Y-136043295D01*
X145994285Y-136043295D02*
X146041904Y-136233771D01*
X146041904Y-136233771D02*
X146041904Y-136471866D01*
X146041904Y-136471866D02*
X145994285Y-136662342D01*
X145994285Y-136662342D02*
X145946666Y-136757580D01*
X145946666Y-136757580D02*
X145899047Y-136805200D01*
X145899047Y-136805200D02*
X145803809Y-136852819D01*
X145803809Y-136852819D02*
X145708571Y-136852819D01*
X145708571Y-136852819D02*
X145613333Y-136805200D01*
X145613333Y-136805200D02*
X145565714Y-136757580D01*
X145565714Y-136757580D02*
X145518095Y-136662342D01*
X145518095Y-136662342D02*
X145470476Y-136471866D01*
X145470476Y-136471866D02*
X145470476Y-136233771D01*
X145470476Y-136233771D02*
X145518095Y-136043295D01*
X145518095Y-136043295D02*
X145565714Y-135948057D01*
X145565714Y-135948057D02*
X145613333Y-135900438D01*
X145613333Y-135900438D02*
X145708571Y-135852819D01*
X82708905Y-74257819D02*
X82708905Y-75067342D01*
X82708905Y-75067342D02*
X82756524Y-75162580D01*
X82756524Y-75162580D02*
X82804143Y-75210200D01*
X82804143Y-75210200D02*
X82899381Y-75257819D01*
X82899381Y-75257819D02*
X83089857Y-75257819D01*
X83089857Y-75257819D02*
X83185095Y-75210200D01*
X83185095Y-75210200D02*
X83232714Y-75162580D01*
X83232714Y-75162580D02*
X83280333Y-75067342D01*
X83280333Y-75067342D02*
X83280333Y-74257819D01*
X84280333Y-75257819D02*
X83708905Y-75257819D01*
X83994619Y-75257819D02*
X83994619Y-74257819D01*
X83994619Y-74257819D02*
X83899381Y-74400676D01*
X83899381Y-74400676D02*
X83804143Y-74495914D01*
X83804143Y-74495914D02*
X83708905Y-74543533D01*
X85232714Y-75257819D02*
X84661286Y-75257819D01*
X84947000Y-75257819D02*
X84947000Y-74257819D01*
X84947000Y-74257819D02*
X84851762Y-74400676D01*
X84851762Y-74400676D02*
X84756524Y-74495914D01*
X84756524Y-74495914D02*
X84661286Y-74543533D01*
X57223819Y-83573857D02*
X56747628Y-83907190D01*
X57223819Y-84145285D02*
X56223819Y-84145285D01*
X56223819Y-84145285D02*
X56223819Y-83764333D01*
X56223819Y-83764333D02*
X56271438Y-83669095D01*
X56271438Y-83669095D02*
X56319057Y-83621476D01*
X56319057Y-83621476D02*
X56414295Y-83573857D01*
X56414295Y-83573857D02*
X56557152Y-83573857D01*
X56557152Y-83573857D02*
X56652390Y-83621476D01*
X56652390Y-83621476D02*
X56700009Y-83669095D01*
X56700009Y-83669095D02*
X56747628Y-83764333D01*
X56747628Y-83764333D02*
X56747628Y-84145285D01*
X57223819Y-82621476D02*
X57223819Y-83192904D01*
X57223819Y-82907190D02*
X56223819Y-82907190D01*
X56223819Y-82907190D02*
X56366676Y-83002428D01*
X56366676Y-83002428D02*
X56461914Y-83097666D01*
X56461914Y-83097666D02*
X56509533Y-83192904D01*
X56223819Y-82002428D02*
X56223819Y-81907190D01*
X56223819Y-81907190D02*
X56271438Y-81811952D01*
X56271438Y-81811952D02*
X56319057Y-81764333D01*
X56319057Y-81764333D02*
X56414295Y-81716714D01*
X56414295Y-81716714D02*
X56604771Y-81669095D01*
X56604771Y-81669095D02*
X56842866Y-81669095D01*
X56842866Y-81669095D02*
X57033342Y-81716714D01*
X57033342Y-81716714D02*
X57128580Y-81764333D01*
X57128580Y-81764333D02*
X57176200Y-81811952D01*
X57176200Y-81811952D02*
X57223819Y-81907190D01*
X57223819Y-81907190D02*
X57223819Y-82002428D01*
X57223819Y-82002428D02*
X57176200Y-82097666D01*
X57176200Y-82097666D02*
X57128580Y-82145285D01*
X57128580Y-82145285D02*
X57033342Y-82192904D01*
X57033342Y-82192904D02*
X56842866Y-82240523D01*
X56842866Y-82240523D02*
X56604771Y-82240523D01*
X56604771Y-82240523D02*
X56414295Y-82192904D01*
X56414295Y-82192904D02*
X56319057Y-82145285D01*
X56319057Y-82145285D02*
X56271438Y-82097666D01*
X56271438Y-82097666D02*
X56223819Y-82002428D01*
D11*
%TO.C,U18*%
X42886000Y-45213000D02*
X42886000Y-61103000D01*
X42886000Y-45213000D02*
X53126000Y-45213000D01*
X42886000Y-61103000D02*
X53126000Y-61103000D01*
X45466000Y-61103000D02*
X45466000Y-63643000D01*
X48006000Y-61103000D02*
X48006000Y-63643000D01*
X50546000Y-61103000D02*
X50546000Y-63643000D01*
X53126000Y-45213000D02*
X53126000Y-61103000D01*
%TO.C,U6*%
X161942000Y-68393000D02*
X161942000Y-88833000D01*
X161942000Y-88833000D02*
X163592000Y-88833000D01*
X165592000Y-88833000D02*
X167242000Y-88833000D01*
X167242000Y-68393000D02*
X161942000Y-68393000D01*
X167242000Y-88833000D02*
X167242000Y-68393000D01*
X163592000Y-88833000D02*
G75*
G02*
X165592000Y-88833000I1000000J0D01*
G01*
%TO.C,C3*%
X167790000Y-117321000D02*
X167790000Y-114581000D01*
X175030000Y-114581000D02*
X167790000Y-114581000D01*
X175030000Y-117321000D02*
X167790000Y-117321000D01*
X175030000Y-117321000D02*
X175030000Y-114581000D01*
%TO.C,C15*%
X39173000Y-59623000D02*
X39173000Y-64963000D01*
X39839000Y-59623000D02*
X39173000Y-59623000D01*
X39839000Y-64963000D02*
X39173000Y-64963000D01*
X42615000Y-59623000D02*
X41949000Y-59623000D01*
X42615000Y-59623000D02*
X42615000Y-64963000D01*
X42615000Y-64963000D02*
X41949000Y-64963000D01*
%TO.C,C25*%
X146362500Y-57863000D02*
X146362500Y-59663000D01*
X146362500Y-59663000D02*
X147262500Y-60563000D01*
X146362500Y-61463000D02*
X146362500Y-69103000D01*
X147262500Y-60563000D02*
X146362500Y-61463000D01*
X148982500Y-55923000D02*
X148982500Y-57863000D01*
X148982500Y-71043000D02*
X148982500Y-69103000D01*
X150702500Y-60563000D02*
X151602500Y-61463000D01*
X151582500Y-55763000D02*
X151582500Y-57563000D01*
X151602500Y-57863000D02*
X146362500Y-57863000D01*
X151602500Y-57863000D02*
X151602500Y-59663000D01*
X151602500Y-59663000D02*
X150702500Y-60563000D01*
X151602500Y-61463000D02*
X151602500Y-69103000D01*
X151602500Y-69103000D02*
X146362500Y-69103000D01*
X152482500Y-56663000D02*
X150682500Y-56663000D01*
%TO.C,U10*%
X97797000Y-53148000D02*
X97797000Y-78668000D01*
X97797000Y-78668000D02*
X99447000Y-78668000D01*
X101447000Y-78668000D02*
X103097000Y-78668000D01*
X103097000Y-53148000D02*
X97797000Y-53148000D01*
X103097000Y-78668000D02*
X103097000Y-53148000D01*
X99447000Y-78668000D02*
G75*
G02*
X101447000Y-78668000I1000000J0D01*
G01*
%TO.C,R4*%
X143534000Y-121031000D02*
X144304000Y-121031000D01*
X144304000Y-119661000D02*
X144304000Y-122401000D01*
X144304000Y-122401000D02*
X150844000Y-122401000D01*
X150844000Y-119661000D02*
X144304000Y-119661000D01*
X150844000Y-122401000D02*
X150844000Y-119661000D01*
X151614000Y-121031000D02*
X150844000Y-121031000D01*
%TO.C,U2*%
X175658000Y-81093000D02*
X175658000Y-106613000D01*
X175658000Y-106613000D02*
X177308000Y-106613000D01*
X179308000Y-106613000D02*
X180958000Y-106613000D01*
X180958000Y-81093000D02*
X175658000Y-81093000D01*
X180958000Y-106613000D02*
X180958000Y-81093000D01*
X177308000Y-106613000D02*
G75*
G02*
X179308000Y-106613000I1000000J0D01*
G01*
%TO.C,U7*%
X137050000Y-53153000D02*
X137050000Y-78673000D01*
X137050000Y-78673000D02*
X138700000Y-78673000D01*
X140700000Y-78673000D02*
X142350000Y-78673000D01*
X142350000Y-53153000D02*
X137050000Y-53153000D01*
X142350000Y-78673000D02*
X142350000Y-53153000D01*
X138700000Y-78673000D02*
G75*
G02*
X140700000Y-78673000I1000000J0D01*
G01*
%TO.C,U14*%
X102937000Y-121683000D02*
X102937000Y-134603000D01*
X102937000Y-134603000D02*
X138617000Y-134603000D01*
X138617000Y-121683000D02*
X102937000Y-121683000D01*
X138617000Y-127143000D02*
X138617000Y-121683000D01*
X138617000Y-134603000D02*
X138617000Y-129143000D01*
X138617000Y-129143000D02*
G75*
G02*
X138617000Y-127143000I0J1000000D01*
G01*
%TO.C,D8*%
X166394000Y-136271000D02*
X168314000Y-136271000D01*
X168314000Y-135151000D02*
X168314000Y-137391000D01*
X168314000Y-137391000D02*
X172554000Y-137391000D01*
X168914000Y-135151000D02*
X168914000Y-137391000D01*
X169034000Y-135151000D02*
X169034000Y-137391000D01*
X169154000Y-135151000D02*
X169154000Y-137391000D01*
X172554000Y-135151000D02*
X168314000Y-135151000D01*
X172554000Y-137391000D02*
X172554000Y-135151000D01*
X174474000Y-136271000D02*
X172554000Y-136271000D01*
%TO.C,J1*%
X196042000Y-52788000D02*
X196342000Y-53388000D01*
X196082000Y-46593000D02*
X196082000Y-52113000D01*
X196082000Y-52113000D02*
X197082000Y-52113000D01*
X196082000Y-135593000D02*
X197082000Y-135593000D01*
X196082000Y-141113000D02*
X196082000Y-135593000D01*
X196342000Y-53388000D02*
X196642000Y-52788000D01*
X196642000Y-52788000D02*
X196042000Y-52788000D01*
X197082000Y-52112000D02*
X197082000Y-53388000D01*
X197082000Y-55578000D02*
X197082000Y-56154000D01*
X197082000Y-57893000D02*
X197082000Y-58694000D01*
X197082000Y-60433000D02*
X197082000Y-61234000D01*
X197082000Y-62973000D02*
X197082000Y-63774000D01*
X197082000Y-65513000D02*
X197082000Y-66314000D01*
X197082000Y-68053000D02*
X197082000Y-68854000D01*
X197082000Y-70593000D02*
X197082000Y-71394000D01*
X197082000Y-73133000D02*
X197082000Y-73934000D01*
X197082000Y-75673000D02*
X197082000Y-76474000D01*
X197082000Y-78213000D02*
X197082000Y-79014000D01*
X197082000Y-80753000D02*
X197082000Y-81554000D01*
X197082000Y-83293000D02*
X197082000Y-84094000D01*
X197082000Y-85833000D02*
X197082000Y-86634000D01*
X197082000Y-88373000D02*
X197082000Y-89174000D01*
X197082000Y-90913000D02*
X197082000Y-91714000D01*
X197082000Y-93453000D02*
X197082000Y-94254000D01*
X197082000Y-95993000D02*
X197082000Y-96794000D01*
X197082000Y-98533000D02*
X197082000Y-99334000D01*
X197082000Y-101073000D02*
X197082000Y-101874000D01*
X197082000Y-103613000D02*
X197082000Y-104414000D01*
X197082000Y-106153000D02*
X197082000Y-106954000D01*
X197082000Y-108693000D02*
X197082000Y-109494000D01*
X197082000Y-111233000D02*
X197082000Y-112034000D01*
X197082000Y-113773000D02*
X197082000Y-114574000D01*
X197082000Y-116313000D02*
X197082000Y-117114000D01*
X197082000Y-118853000D02*
X197082000Y-119654000D01*
X197082000Y-121393000D02*
X197082000Y-122194000D01*
X197082000Y-123933000D02*
X197082000Y-124734000D01*
X197082000Y-126473000D02*
X197082000Y-127274000D01*
X197082000Y-129013000D02*
X197082000Y-129814000D01*
X197082000Y-131553000D02*
X197082000Y-132354000D01*
X197082000Y-134093000D02*
X197082000Y-135593000D01*
X201642000Y-46593000D02*
X196082000Y-46593000D01*
X201642000Y-141113000D02*
X196082000Y-141113000D01*
%TO.C,Y1*%
X141819000Y-128666000D02*
X148069000Y-128666000D01*
X141819000Y-133716000D02*
X148069000Y-133716000D01*
X141819000Y-133716000D02*
G75*
G02*
X141819000Y-128666000I0J2525000D01*
G01*
X148069000Y-128666000D02*
G75*
G02*
X148069000Y-133716000I0J-2525000D01*
G01*
%TO.C,D10*%
X153694000Y-133731000D02*
X155614000Y-133731000D01*
X155614000Y-132611000D02*
X155614000Y-134851000D01*
X155614000Y-134851000D02*
X159854000Y-134851000D01*
X156214000Y-132611000D02*
X156214000Y-134851000D01*
X156334000Y-132611000D02*
X156334000Y-134851000D01*
X156454000Y-132611000D02*
X156454000Y-134851000D01*
X159854000Y-132611000D02*
X155614000Y-132611000D01*
X159854000Y-134851000D02*
X159854000Y-132611000D01*
X161774000Y-133731000D02*
X159854000Y-133731000D01*
%TO.C,J2*%
X39430000Y-73407000D02*
X45430000Y-73407000D01*
X39430000Y-74167000D02*
X39430000Y-73407000D01*
X39430000Y-75947000D02*
X45430000Y-75947000D01*
X39430000Y-76707000D02*
X39430000Y-75947000D01*
X39430000Y-78487000D02*
X45430000Y-78487000D01*
X39430000Y-79247000D02*
X39430000Y-78487000D01*
X39430000Y-81027000D02*
X45430000Y-81027000D01*
X39430000Y-81787000D02*
X39430000Y-81027000D01*
X39430000Y-83567000D02*
X45430000Y-83567000D01*
X39430000Y-84327000D02*
X39430000Y-83567000D01*
X39430000Y-86107000D02*
X45430000Y-86107000D01*
X39430000Y-86867000D02*
X39430000Y-86107000D01*
X39430000Y-88647000D02*
X45430000Y-88647000D01*
X39430000Y-89407000D02*
X39430000Y-88647000D01*
X39430000Y-91187000D02*
X45430000Y-91187000D01*
X39430000Y-91947000D02*
X39430000Y-91187000D01*
X39430000Y-93727000D02*
X45430000Y-93727000D01*
X39430000Y-94487000D02*
X39430000Y-93727000D01*
X39430000Y-96267000D02*
X45430000Y-96267000D01*
X39430000Y-97027000D02*
X39430000Y-96267000D01*
X39430000Y-98807000D02*
X45430000Y-98807000D01*
X39430000Y-99567000D02*
X39430000Y-98807000D01*
X39430000Y-101347000D02*
X45430000Y-101347000D01*
X39430000Y-102107000D02*
X39430000Y-101347000D01*
X39430000Y-103887000D02*
X45430000Y-103887000D01*
X39430000Y-104647000D02*
X39430000Y-103887000D01*
X39430000Y-106427000D02*
X45430000Y-106427000D01*
X39430000Y-107187000D02*
X39430000Y-106427000D01*
X39430000Y-108967000D02*
X45430000Y-108967000D01*
X39430000Y-109727000D02*
X39430000Y-108967000D01*
X39430000Y-111507000D02*
X45430000Y-111507000D01*
X39430000Y-112267000D02*
X39430000Y-111507000D01*
X39430000Y-114047000D02*
X45430000Y-114047000D01*
X39430000Y-114807000D02*
X39430000Y-114047000D01*
X45430000Y-72457000D02*
X45430000Y-115757000D01*
X45430000Y-74167000D02*
X39430000Y-74167000D01*
X45430000Y-76707000D02*
X39430000Y-76707000D01*
X45430000Y-79247000D02*
X39430000Y-79247000D01*
X45430000Y-81787000D02*
X39430000Y-81787000D01*
X45430000Y-84327000D02*
X39430000Y-84327000D01*
X45430000Y-86867000D02*
X39430000Y-86867000D01*
X45430000Y-89407000D02*
X39430000Y-89407000D01*
X45430000Y-91947000D02*
X39430000Y-91947000D01*
X45430000Y-94487000D02*
X39430000Y-94487000D01*
X45430000Y-97027000D02*
X39430000Y-97027000D01*
X45430000Y-99567000D02*
X39430000Y-99567000D01*
X45430000Y-102107000D02*
X39430000Y-102107000D01*
X45430000Y-104647000D02*
X39430000Y-104647000D01*
X45430000Y-107187000D02*
X39430000Y-107187000D01*
X45430000Y-109727000D02*
X39430000Y-109727000D01*
X45430000Y-112267000D02*
X39430000Y-112267000D01*
X45430000Y-114147000D02*
X39430000Y-114147000D01*
X45430000Y-114267000D02*
X39430000Y-114267000D01*
X45430000Y-114387000D02*
X39430000Y-114387000D01*
X45430000Y-114507000D02*
X39430000Y-114507000D01*
X45430000Y-114627000D02*
X39430000Y-114627000D01*
X45430000Y-114747000D02*
X39430000Y-114747000D01*
X45430000Y-114807000D02*
X39430000Y-114807000D01*
X45430000Y-115757000D02*
X48090000Y-115757000D01*
X48090000Y-72457000D02*
X45430000Y-72457000D01*
X48090000Y-75057000D02*
X45430000Y-75057000D01*
X48090000Y-77597000D02*
X45430000Y-77597000D01*
X48090000Y-80137000D02*
X45430000Y-80137000D01*
X48090000Y-82677000D02*
X45430000Y-82677000D01*
X48090000Y-85217000D02*
X45430000Y-85217000D01*
X48090000Y-87757000D02*
X45430000Y-87757000D01*
X48090000Y-90297000D02*
X45430000Y-90297000D01*
X48090000Y-92837000D02*
X45430000Y-92837000D01*
X48090000Y-95377000D02*
X45430000Y-95377000D01*
X48090000Y-97917000D02*
X45430000Y-97917000D01*
X48090000Y-100457000D02*
X45430000Y-100457000D01*
X48090000Y-102997000D02*
X45430000Y-102997000D01*
X48090000Y-105537000D02*
X45430000Y-105537000D01*
X48090000Y-108077000D02*
X45430000Y-108077000D01*
X48090000Y-110617000D02*
X45430000Y-110617000D01*
X48090000Y-113157000D02*
X45430000Y-113157000D01*
X48090000Y-115757000D02*
X48090000Y-72457000D01*
X48487071Y-73407000D02*
X48090000Y-73407000D01*
X48487071Y-74167000D02*
X48090000Y-74167000D01*
X48487071Y-75947000D02*
X48090000Y-75947000D01*
X48487071Y-76707000D02*
X48090000Y-76707000D01*
X48487071Y-78487000D02*
X48090000Y-78487000D01*
X48487071Y-79247000D02*
X48090000Y-79247000D01*
X48487071Y-81027000D02*
X48090000Y-81027000D01*
X48487071Y-81787000D02*
X48090000Y-81787000D01*
X48487071Y-83567000D02*
X48090000Y-83567000D01*
X48487071Y-84327000D02*
X48090000Y-84327000D01*
X48487071Y-86107000D02*
X48090000Y-86107000D01*
X48487071Y-86867000D02*
X48090000Y-86867000D01*
X48487071Y-88647000D02*
X48090000Y-88647000D01*
X48487071Y-89407000D02*
X48090000Y-89407000D01*
X48487071Y-91187000D02*
X48090000Y-91187000D01*
X48487071Y-91947000D02*
X48090000Y-91947000D01*
X48487071Y-93727000D02*
X48090000Y-93727000D01*
X48487071Y-94487000D02*
X48090000Y-94487000D01*
X48487071Y-96267000D02*
X48090000Y-96267000D01*
X48487071Y-97027000D02*
X48090000Y-97027000D01*
X48487071Y-98807000D02*
X48090000Y-98807000D01*
X48487071Y-99567000D02*
X48090000Y-99567000D01*
X48487071Y-101347000D02*
X48090000Y-101347000D01*
X48487071Y-102107000D02*
X48090000Y-102107000D01*
X48487071Y-103887000D02*
X48090000Y-103887000D01*
X48487071Y-104647000D02*
X48090000Y-104647000D01*
X48487071Y-106427000D02*
X48090000Y-106427000D01*
X48487071Y-107187000D02*
X48090000Y-107187000D01*
X48487071Y-108967000D02*
X48090000Y-108967000D01*
X48487071Y-109727000D02*
X48090000Y-109727000D01*
X48487071Y-111507000D02*
X48090000Y-111507000D01*
X48487071Y-112267000D02*
X48090000Y-112267000D01*
X48487071Y-114047000D02*
X48090000Y-114047000D01*
X48487071Y-114807000D02*
X48090000Y-114807000D01*
X50960000Y-114047000D02*
X50572929Y-114047000D01*
X50960000Y-114807000D02*
X50572929Y-114807000D01*
X51027071Y-73407000D02*
X50572929Y-73407000D01*
X51027071Y-74167000D02*
X50572929Y-74167000D01*
X51027071Y-75947000D02*
X50572929Y-75947000D01*
X51027071Y-76707000D02*
X50572929Y-76707000D01*
X51027071Y-78487000D02*
X50572929Y-78487000D01*
X51027071Y-79247000D02*
X50572929Y-79247000D01*
X51027071Y-81027000D02*
X50572929Y-81027000D01*
X51027071Y-81787000D02*
X50572929Y-81787000D01*
X51027071Y-83567000D02*
X50572929Y-83567000D01*
X51027071Y-84327000D02*
X50572929Y-84327000D01*
X51027071Y-86107000D02*
X50572929Y-86107000D01*
X51027071Y-86867000D02*
X50572929Y-86867000D01*
X51027071Y-88647000D02*
X50572929Y-88647000D01*
X51027071Y-89407000D02*
X50572929Y-89407000D01*
X51027071Y-91187000D02*
X50572929Y-91187000D01*
X51027071Y-91947000D02*
X50572929Y-91947000D01*
X51027071Y-93727000D02*
X50572929Y-93727000D01*
X51027071Y-94487000D02*
X50572929Y-94487000D01*
X51027071Y-96267000D02*
X50572929Y-96267000D01*
X51027071Y-97027000D02*
X50572929Y-97027000D01*
X51027071Y-98807000D02*
X50572929Y-98807000D01*
X51027071Y-99567000D02*
X50572929Y-99567000D01*
X51027071Y-101347000D02*
X50572929Y-101347000D01*
X51027071Y-102107000D02*
X50572929Y-102107000D01*
X51027071Y-103887000D02*
X50572929Y-103887000D01*
X51027071Y-104647000D02*
X50572929Y-104647000D01*
X51027071Y-106427000D02*
X50572929Y-106427000D01*
X51027071Y-107187000D02*
X50572929Y-107187000D01*
X51027071Y-108967000D02*
X50572929Y-108967000D01*
X51027071Y-109727000D02*
X50572929Y-109727000D01*
X51027071Y-111507000D02*
X50572929Y-111507000D01*
X51027071Y-112267000D02*
X50572929Y-112267000D01*
X53340000Y-114427000D02*
X53340000Y-115697000D01*
X53340000Y-115697000D02*
X52070000Y-115697000D01*
%TO.C,R3*%
X153694000Y-136271000D02*
X154464000Y-136271000D01*
X154464000Y-134901000D02*
X154464000Y-137641000D01*
X154464000Y-137641000D02*
X161004000Y-137641000D01*
X161004000Y-134901000D02*
X154464000Y-134901000D01*
X161004000Y-137641000D02*
X161004000Y-134901000D01*
X161774000Y-136271000D02*
X161004000Y-136271000D01*
%TO.C,C13*%
X53397000Y-59473000D02*
X53397000Y-64813000D01*
X54063000Y-59473000D02*
X53397000Y-59473000D01*
X54063000Y-64813000D02*
X53397000Y-64813000D01*
X56839000Y-59473000D02*
X56173000Y-59473000D01*
X56839000Y-59473000D02*
X56839000Y-64813000D01*
X56839000Y-64813000D02*
X56173000Y-64813000D01*
%TO.C,C20*%
X95277000Y-85252000D02*
X95277000Y-80610000D01*
X103017000Y-80610000D02*
X95277000Y-80610000D01*
X103017000Y-85252000D02*
X95277000Y-85252000D01*
X103017000Y-85252000D02*
X103017000Y-80610000D01*
%TO.C,U13*%
X54677000Y-121683000D02*
X54677000Y-134603000D01*
X54677000Y-134603000D02*
X90357000Y-134603000D01*
X90357000Y-121683000D02*
X54677000Y-121683000D01*
X90357000Y-127143000D02*
X90357000Y-121683000D01*
X90357000Y-134603000D02*
X90357000Y-129143000D01*
X90357000Y-129143000D02*
G75*
G02*
X90357000Y-127143000I0J1000000D01*
G01*
%TO.C,C17*%
X134520000Y-85252000D02*
X134520000Y-80610000D01*
X142260000Y-80610000D02*
X134520000Y-80610000D01*
X142260000Y-85252000D02*
X134520000Y-85252000D01*
X142260000Y-85252000D02*
X142260000Y-80610000D01*
%TO.C,C12*%
X97857000Y-111090000D02*
X97857000Y-115732000D01*
X97857000Y-111090000D02*
X105597000Y-111090000D01*
X97857000Y-115732000D02*
X105597000Y-115732000D01*
X105597000Y-111090000D02*
X105597000Y-115732000D01*
%TO.C,D2*%
X179094000Y-69723000D02*
X181014000Y-69723000D01*
X181014000Y-68603000D02*
X181014000Y-70843000D01*
X181014000Y-70843000D02*
X185254000Y-70843000D01*
X181614000Y-68603000D02*
X181614000Y-70843000D01*
X181734000Y-68603000D02*
X181734000Y-70843000D01*
X181854000Y-68603000D02*
X181854000Y-70843000D01*
X185254000Y-68603000D02*
X181014000Y-68603000D01*
X185254000Y-70843000D02*
X185254000Y-68603000D01*
X187174000Y-69723000D02*
X185254000Y-69723000D01*
%TO.C,R6*%
X143534000Y-126111000D02*
X144304000Y-126111000D01*
X144304000Y-124741000D02*
X144304000Y-127481000D01*
X144304000Y-127481000D02*
X150844000Y-127481000D01*
X150844000Y-124741000D02*
X144304000Y-124741000D01*
X150844000Y-127481000D02*
X150844000Y-124741000D01*
X151614000Y-126111000D02*
X150844000Y-126111000D01*
%TO.C,C16*%
X62265500Y-55103000D02*
X62265500Y-56903000D01*
X62265500Y-56903000D02*
X63165500Y-57803000D01*
X62265500Y-58703000D02*
X62265500Y-66343000D01*
X63165500Y-57803000D02*
X62265500Y-58703000D01*
X64885500Y-53163000D02*
X64885500Y-55103000D01*
X64885500Y-68283000D02*
X64885500Y-66343000D01*
X66605500Y-57803000D02*
X67505500Y-58703000D01*
X67485500Y-53003000D02*
X67485500Y-54803000D01*
X67505500Y-55103000D02*
X62265500Y-55103000D01*
X67505500Y-55103000D02*
X67505500Y-56903000D01*
X67505500Y-56903000D02*
X66605500Y-57803000D01*
X67505500Y-58703000D02*
X67505500Y-66343000D01*
X67505500Y-66343000D02*
X62265500Y-66343000D01*
X68385500Y-53903000D02*
X66585500Y-53903000D01*
%TO.C,U1*%
X179214000Y-109541000D02*
X179214000Y-135061000D01*
X179214000Y-135061000D02*
X180864000Y-135061000D01*
X182864000Y-135061000D02*
X184514000Y-135061000D01*
X184514000Y-109541000D02*
X179214000Y-109541000D01*
X184514000Y-135061000D02*
X184514000Y-109541000D01*
X180864000Y-135061000D02*
G75*
G02*
X182864000Y-135061000I1000000J0D01*
G01*
%TO.C,U8*%
X126382000Y-53148000D02*
X126382000Y-78668000D01*
X126382000Y-78668000D02*
X128032000Y-78668000D01*
X130032000Y-78668000D02*
X131682000Y-78668000D01*
X131682000Y-53148000D02*
X126382000Y-53148000D01*
X131682000Y-78668000D02*
X131682000Y-53148000D01*
X128032000Y-78668000D02*
G75*
G02*
X130032000Y-78668000I1000000J0D01*
G01*
%TO.C,D1*%
X162838000Y-62103000D02*
X164758000Y-62103000D01*
X164758000Y-60983000D02*
X164758000Y-63223000D01*
X164758000Y-63223000D02*
X168998000Y-63223000D01*
X165358000Y-60983000D02*
X165358000Y-63223000D01*
X165478000Y-60983000D02*
X165478000Y-63223000D01*
X165598000Y-60983000D02*
X165598000Y-63223000D01*
X168998000Y-60983000D02*
X164758000Y-60983000D01*
X168998000Y-63223000D02*
X168998000Y-60983000D01*
X170918000Y-62103000D02*
X168998000Y-62103000D01*
%TO.C,C21*%
X78640000Y-80610000D02*
X78640000Y-85252000D01*
X78640000Y-80610000D02*
X86380000Y-80610000D01*
X78640000Y-85252000D02*
X86380000Y-85252000D01*
X86380000Y-80610000D02*
X86380000Y-85252000D01*
%TO.C,D7*%
X166394000Y-133731000D02*
X168314000Y-133731000D01*
X168314000Y-132611000D02*
X168314000Y-134851000D01*
X168314000Y-134851000D02*
X172554000Y-134851000D01*
X168914000Y-132611000D02*
X168914000Y-134851000D01*
X169034000Y-132611000D02*
X169034000Y-134851000D01*
X169154000Y-132611000D02*
X169154000Y-134851000D01*
X172554000Y-132611000D02*
X168314000Y-132611000D01*
X172554000Y-134851000D02*
X172554000Y-132611000D01*
X174474000Y-133731000D02*
X172554000Y-133731000D01*
%TO.C,C23*%
X89466500Y-57863000D02*
X89466500Y-59663000D01*
X89466500Y-59663000D02*
X90366500Y-60563000D01*
X89466500Y-61463000D02*
X89466500Y-69103000D01*
X90366500Y-60563000D02*
X89466500Y-61463000D01*
X92086500Y-55923000D02*
X92086500Y-57863000D01*
X92086500Y-71043000D02*
X92086500Y-69103000D01*
X93806500Y-60563000D02*
X94706500Y-61463000D01*
X94686500Y-55763000D02*
X94686500Y-57563000D01*
X94706500Y-57863000D02*
X89466500Y-57863000D01*
X94706500Y-57863000D02*
X94706500Y-59663000D01*
X94706500Y-59663000D02*
X93806500Y-60563000D01*
X94706500Y-61463000D02*
X94706500Y-69103000D01*
X94706500Y-69103000D02*
X89466500Y-69103000D01*
X95586500Y-56663000D02*
X93786500Y-56663000D01*
%TO.C,U16*%
X70502000Y-91253000D02*
X70502000Y-111693000D01*
X70502000Y-111693000D02*
X72152000Y-111693000D01*
X74152000Y-111693000D02*
X75802000Y-111693000D01*
X75802000Y-91253000D02*
X70502000Y-91253000D01*
X75802000Y-111693000D02*
X75802000Y-91253000D01*
X72152000Y-111693000D02*
G75*
G02*
X74152000Y-111693000I1000000J0D01*
G01*
%TO.C,D5*%
X166394000Y-121031000D02*
X168314000Y-121031000D01*
X168314000Y-119911000D02*
X168314000Y-122151000D01*
X168314000Y-122151000D02*
X172554000Y-122151000D01*
X168914000Y-119911000D02*
X168914000Y-122151000D01*
X169034000Y-119911000D02*
X169034000Y-122151000D01*
X169154000Y-119911000D02*
X169154000Y-122151000D01*
X172554000Y-119911000D02*
X168314000Y-119911000D01*
X172554000Y-122151000D02*
X172554000Y-119911000D01*
X174474000Y-121031000D02*
X172554000Y-121031000D01*
%TO.C,U5*%
X161942000Y-88713000D02*
X161942000Y-109153000D01*
X161942000Y-109153000D02*
X163592000Y-109153000D01*
X165592000Y-109153000D02*
X167242000Y-109153000D01*
X167242000Y-88713000D02*
X161942000Y-88713000D01*
X167242000Y-109153000D02*
X167242000Y-88713000D01*
X163592000Y-109153000D02*
G75*
G02*
X165592000Y-109153000I1000000J0D01*
G01*
%TO.C,U17*%
X45102000Y-120463000D02*
X45102000Y-140903000D01*
X45102000Y-140903000D02*
X46752000Y-140903000D01*
X48752000Y-140903000D02*
X50402000Y-140903000D01*
X50402000Y-120463000D02*
X45102000Y-120463000D01*
X50402000Y-140903000D02*
X50402000Y-120463000D01*
X46752000Y-140903000D02*
G75*
G02*
X48752000Y-140903000I1000000J0D01*
G01*
%TO.C,R1*%
X166394000Y-118491000D02*
X167164000Y-118491000D01*
X167164000Y-117121000D02*
X167164000Y-119861000D01*
X167164000Y-119861000D02*
X173704000Y-119861000D01*
X173704000Y-117121000D02*
X167164000Y-117121000D01*
X173704000Y-119861000D02*
X173704000Y-117121000D01*
X174474000Y-118491000D02*
X173704000Y-118491000D01*
%TO.C,C2*%
X167870000Y-109501000D02*
X167870000Y-112241000D01*
X167870000Y-109501000D02*
X175110000Y-109501000D01*
X167870000Y-112241000D02*
X175110000Y-112241000D01*
X175110000Y-109501000D02*
X175110000Y-112241000D01*
%TO.C,R7*%
X58447000Y-102521000D02*
X58447000Y-109061000D01*
X58447000Y-109061000D02*
X61187000Y-109061000D01*
X59817000Y-101751000D02*
X59817000Y-102521000D01*
X59817000Y-109831000D02*
X59817000Y-109061000D01*
X61187000Y-102521000D02*
X58447000Y-102521000D01*
X61187000Y-109061000D02*
X61187000Y-102521000D01*
%TO.C,D4*%
X166394000Y-113411000D02*
X168314000Y-113411000D01*
X168314000Y-112291000D02*
X168314000Y-114531000D01*
X168314000Y-114531000D02*
X172554000Y-114531000D01*
X168914000Y-112291000D02*
X168914000Y-114531000D01*
X169034000Y-112291000D02*
X169034000Y-114531000D01*
X169154000Y-112291000D02*
X169154000Y-114531000D01*
X172554000Y-112291000D02*
X168314000Y-112291000D01*
X172554000Y-114531000D02*
X172554000Y-112291000D01*
X174474000Y-113411000D02*
X172554000Y-113411000D01*
%TO.C,C24*%
X117637500Y-58007000D02*
X117637500Y-59807000D01*
X117637500Y-59807000D02*
X118537500Y-60707000D01*
X117637500Y-61607000D02*
X117637500Y-69247000D01*
X118537500Y-60707000D02*
X117637500Y-61607000D01*
X120257500Y-56067000D02*
X120257500Y-58007000D01*
X120257500Y-71187000D02*
X120257500Y-69247000D01*
X121977500Y-60707000D02*
X122877500Y-61607000D01*
X122857500Y-55907000D02*
X122857500Y-57707000D01*
X122877500Y-58007000D02*
X117637500Y-58007000D01*
X122877500Y-58007000D02*
X122877500Y-59807000D01*
X122877500Y-59807000D02*
X121977500Y-60707000D01*
X122877500Y-61607000D02*
X122877500Y-69247000D01*
X122877500Y-69247000D02*
X117637500Y-69247000D01*
X123757500Y-56807000D02*
X121957500Y-56807000D01*
%TO.C,C18*%
X123852000Y-85252000D02*
X123852000Y-80610000D01*
X131592000Y-80610000D02*
X123852000Y-80610000D01*
X131592000Y-85252000D02*
X123852000Y-85252000D01*
X131592000Y-85252000D02*
X131592000Y-80610000D01*
%TO.C,D3*%
X179094000Y-72263000D02*
X181014000Y-72263000D01*
X181014000Y-71143000D02*
X181014000Y-73383000D01*
X181014000Y-73383000D02*
X185254000Y-73383000D01*
X181614000Y-71143000D02*
X181614000Y-73383000D01*
X181734000Y-71143000D02*
X181734000Y-73383000D01*
X181854000Y-71143000D02*
X181854000Y-73383000D01*
X185254000Y-71143000D02*
X181014000Y-71143000D01*
X185254000Y-73383000D02*
X185254000Y-71143000D01*
X187174000Y-72263000D02*
X185254000Y-72263000D01*
%TO.C,C19*%
X106072000Y-80610000D02*
X106072000Y-85252000D01*
X106072000Y-80610000D02*
X113812000Y-80610000D01*
X106072000Y-85252000D02*
X113812000Y-85252000D01*
X113812000Y-80610000D02*
X113812000Y-85252000D01*
%TO.C,U15*%
X93997000Y-119193000D02*
X93997000Y-137093000D01*
X93997000Y-137093000D02*
X95647000Y-137093000D01*
X97647000Y-137093000D02*
X99297000Y-137093000D01*
X99297000Y-119193000D02*
X93997000Y-119193000D01*
X99297000Y-137093000D02*
X99297000Y-119193000D01*
X95647000Y-137093000D02*
G75*
G02*
X97647000Y-137093000I1000000J0D01*
G01*
%TO.C,U12*%
X70502000Y-53153000D02*
X70502000Y-78673000D01*
X70502000Y-78673000D02*
X72152000Y-78673000D01*
X74152000Y-78673000D02*
X75802000Y-78673000D01*
X75802000Y-53153000D02*
X70502000Y-53153000D01*
X75802000Y-78673000D02*
X75802000Y-53153000D01*
X72152000Y-78673000D02*
G75*
G02*
X74152000Y-78673000I1000000J0D01*
G01*
%TO.C,R5*%
X143534000Y-123571000D02*
X144304000Y-123571000D01*
X144304000Y-122201000D02*
X144304000Y-124941000D01*
X144304000Y-124941000D02*
X150844000Y-124941000D01*
X150844000Y-122201000D02*
X144304000Y-122201000D01*
X150844000Y-124941000D02*
X150844000Y-122201000D01*
X151614000Y-123571000D02*
X150844000Y-123571000D01*
%TO.C,C22*%
X67972000Y-85252000D02*
X67972000Y-80610000D01*
X75712000Y-80610000D02*
X67972000Y-80610000D01*
X75712000Y-85252000D02*
X67972000Y-85252000D01*
X75712000Y-85252000D02*
X75712000Y-80610000D01*
%TO.C,R2*%
X166394000Y-126111000D02*
X167164000Y-126111000D01*
X167164000Y-124741000D02*
X167164000Y-127481000D01*
X167164000Y-127481000D02*
X173704000Y-127481000D01*
X173704000Y-124741000D02*
X167164000Y-124741000D01*
X173704000Y-127481000D02*
X173704000Y-124741000D01*
X174474000Y-126111000D02*
X173704000Y-126111000D01*
%TO.C,D6*%
X166394000Y-131191000D02*
X168314000Y-131191000D01*
X168314000Y-130071000D02*
X168314000Y-132311000D01*
X168314000Y-132311000D02*
X172554000Y-132311000D01*
X168914000Y-130071000D02*
X168914000Y-132311000D01*
X169034000Y-130071000D02*
X169034000Y-132311000D01*
X169154000Y-130071000D02*
X169154000Y-132311000D01*
X172554000Y-130071000D02*
X168314000Y-130071000D01*
X172554000Y-132311000D02*
X172554000Y-130071000D01*
X174474000Y-131191000D02*
X172554000Y-131191000D01*
%TO.C,R9*%
X58447000Y-79661000D02*
X58447000Y-86201000D01*
X58447000Y-86201000D02*
X61187000Y-86201000D01*
X59817000Y-78891000D02*
X59817000Y-79661000D01*
X59817000Y-86971000D02*
X59817000Y-86201000D01*
X61187000Y-79661000D02*
X58447000Y-79661000D01*
X61187000Y-86201000D02*
X61187000Y-79661000D01*
%TO.C,U4*%
X179214000Y-48073000D02*
X179214000Y-68513000D01*
X179214000Y-68513000D02*
X180864000Y-68513000D01*
X182864000Y-68513000D02*
X184514000Y-68513000D01*
X184514000Y-48073000D02*
X179214000Y-48073000D01*
X184514000Y-68513000D02*
X184514000Y-48073000D01*
X180864000Y-68513000D02*
G75*
G02*
X182864000Y-68513000I1000000J0D01*
G01*
%TO.C,U3*%
X156354000Y-109541000D02*
X156354000Y-127441000D01*
X156354000Y-127441000D02*
X158004000Y-127441000D01*
X160004000Y-127441000D02*
X161654000Y-127441000D01*
X161654000Y-109541000D02*
X156354000Y-109541000D01*
X161654000Y-127441000D02*
X161654000Y-109541000D01*
X158004000Y-127441000D02*
G75*
G02*
X160004000Y-127441000I1000000J0D01*
G01*
%TO.C,C5*%
X154074000Y-129821000D02*
X154074000Y-132561000D01*
X154074000Y-129821000D02*
X161314000Y-129821000D01*
X154074000Y-132561000D02*
X161314000Y-132561000D01*
X161314000Y-129821000D02*
X161314000Y-132561000D01*
%TO.C,C4*%
X168298000Y-122201000D02*
X168298000Y-124941000D01*
X168298000Y-122201000D02*
X175538000Y-122201000D01*
X168298000Y-124941000D02*
X175538000Y-124941000D01*
X175538000Y-122201000D02*
X175538000Y-124941000D01*
%TO.C,C1*%
X185385000Y-93833000D02*
X185385000Y-101573000D01*
X190027000Y-93833000D02*
X185385000Y-93833000D01*
X190027000Y-93833000D02*
X190027000Y-101573000D01*
X190027000Y-101573000D02*
X185385000Y-101573000D01*
%TO.C,U9*%
X108602000Y-53153000D02*
X108602000Y-78673000D01*
X108602000Y-78673000D02*
X110252000Y-78673000D01*
X112252000Y-78673000D02*
X113902000Y-78673000D01*
X113902000Y-53153000D02*
X108602000Y-53153000D01*
X113902000Y-78673000D02*
X113902000Y-53153000D01*
X110252000Y-78673000D02*
G75*
G02*
X112252000Y-78673000I1000000J0D01*
G01*
%TO.C,R8*%
X55272000Y-102521000D02*
X55272000Y-109061000D01*
X55272000Y-109061000D02*
X58012000Y-109061000D01*
X56642000Y-101751000D02*
X56642000Y-102521000D01*
X56642000Y-109831000D02*
X56642000Y-109061000D01*
X58012000Y-102521000D02*
X55272000Y-102521000D01*
X58012000Y-109061000D02*
X58012000Y-102521000D01*
%TO.C,C14*%
X56677500Y-55103000D02*
X56677500Y-56903000D01*
X56677500Y-56903000D02*
X57577500Y-57803000D01*
X56677500Y-58703000D02*
X56677500Y-66343000D01*
X57577500Y-57803000D02*
X56677500Y-58703000D01*
X59297500Y-53163000D02*
X59297500Y-55103000D01*
X59297500Y-68283000D02*
X59297500Y-66343000D01*
X61017500Y-57803000D02*
X61917500Y-58703000D01*
X61897500Y-53003000D02*
X61897500Y-54803000D01*
X61917500Y-55103000D02*
X56677500Y-55103000D01*
X61917500Y-55103000D02*
X61917500Y-56903000D01*
X61917500Y-56903000D02*
X61017500Y-57803000D01*
X61917500Y-58703000D02*
X61917500Y-66343000D01*
X61917500Y-66343000D02*
X56677500Y-66343000D01*
X62797500Y-53903000D02*
X60997500Y-53903000D01*
%TO.C,D9*%
X153654000Y-128651000D02*
X155574000Y-128651000D01*
X155574000Y-127531000D02*
X155574000Y-129771000D01*
X155574000Y-129771000D02*
X159814000Y-129771000D01*
X156174000Y-127531000D02*
X156174000Y-129771000D01*
X156294000Y-127531000D02*
X156294000Y-129771000D01*
X156414000Y-127531000D02*
X156414000Y-129771000D01*
X159814000Y-127531000D02*
X155574000Y-127531000D01*
X159814000Y-129771000D02*
X159814000Y-127531000D01*
X161734000Y-128651000D02*
X159814000Y-128651000D01*
%TO.C,C10*%
X141164000Y-133950000D02*
X141164000Y-138592000D01*
X141164000Y-133950000D02*
X148904000Y-133950000D01*
X141164000Y-138592000D02*
X148904000Y-138592000D01*
X148904000Y-133950000D02*
X148904000Y-138592000D01*
%TO.C,U11*%
X81297000Y-53153000D02*
X81297000Y-78673000D01*
X81297000Y-78673000D02*
X82947000Y-78673000D01*
X84947000Y-78673000D02*
X86597000Y-78673000D01*
X86597000Y-53153000D02*
X81297000Y-53153000D01*
X86597000Y-78673000D02*
X86597000Y-53153000D01*
X82947000Y-78673000D02*
G75*
G02*
X84947000Y-78673000I1000000J0D01*
G01*
%TO.C,R10*%
X55272000Y-79661000D02*
X55272000Y-86201000D01*
X55272000Y-86201000D02*
X58012000Y-86201000D01*
X56642000Y-78891000D02*
X56642000Y-79661000D01*
X56642000Y-86971000D02*
X56642000Y-86201000D01*
X58012000Y-79661000D02*
X55272000Y-79661000D01*
X58012000Y-86201000D02*
X58012000Y-79661000D01*
%TD*%
D12*
X48006000Y-48133000D03*
X45466000Y-64793000D03*
X48006000Y-64793000D03*
X50546000Y-64793000D03*
X168402000Y-87503000D03*
X168402000Y-84963000D03*
X168402000Y-82423000D03*
X168402000Y-79883000D03*
X168402000Y-77343000D03*
X168402000Y-74803000D03*
X168402000Y-72263000D03*
X168402000Y-69723000D03*
X160782000Y-69723000D03*
X160782000Y-72263000D03*
X160782000Y-74803000D03*
X160782000Y-77343000D03*
X160782000Y-79883000D03*
X160782000Y-82423000D03*
X160782000Y-84963000D03*
X160782000Y-87503000D03*
X173910000Y-115951000D03*
X168910000Y-115951000D03*
X40894000Y-59793000D03*
X40894000Y-64793000D03*
X148982500Y-54483000D03*
X148982500Y-72483000D03*
X104257000Y-77338000D03*
X104257000Y-74798000D03*
X104257000Y-72258000D03*
X104257000Y-69718000D03*
X104257000Y-67178000D03*
X104257000Y-64638000D03*
X104257000Y-62098000D03*
X104257000Y-59558000D03*
X104257000Y-57018000D03*
X104257000Y-54478000D03*
X96637000Y-54478000D03*
X96637000Y-57018000D03*
X96637000Y-59558000D03*
X96637000Y-62098000D03*
X96637000Y-64638000D03*
X96637000Y-67178000D03*
X96637000Y-69718000D03*
X96637000Y-72258000D03*
X96637000Y-74798000D03*
X96637000Y-77338000D03*
X142494000Y-121031000D03*
X152654000Y-121031000D03*
X182118000Y-105283000D03*
X182118000Y-102743000D03*
X182118000Y-100203000D03*
X182118000Y-97663000D03*
X182118000Y-95123000D03*
X182118000Y-92583000D03*
X182118000Y-90043000D03*
X182118000Y-87503000D03*
X182118000Y-84963000D03*
X182118000Y-82423000D03*
X174498000Y-82423000D03*
X174498000Y-84963000D03*
X174498000Y-87503000D03*
X174498000Y-90043000D03*
X174498000Y-92583000D03*
X174498000Y-95123000D03*
X174498000Y-97663000D03*
X174498000Y-100203000D03*
X174498000Y-102743000D03*
X174498000Y-105283000D03*
X143510000Y-77343000D03*
X143510000Y-74803000D03*
X143510000Y-72263000D03*
X143510000Y-69723000D03*
X143510000Y-67183000D03*
X143510000Y-64643000D03*
X143510000Y-62103000D03*
X143510000Y-59563000D03*
X143510000Y-57023000D03*
X143510000Y-54483000D03*
X135890000Y-54483000D03*
X135890000Y-57023000D03*
X135890000Y-59563000D03*
X135890000Y-62103000D03*
X135890000Y-64643000D03*
X135890000Y-67183000D03*
X135890000Y-69723000D03*
X135890000Y-72263000D03*
X135890000Y-74803000D03*
X135890000Y-77343000D03*
X137287000Y-120523000D03*
X134747000Y-120523000D03*
X132207000Y-120523000D03*
X129667000Y-120523000D03*
X127127000Y-120523000D03*
X124587000Y-120523000D03*
X122047000Y-120523000D03*
X119507000Y-120523000D03*
X116967000Y-120523000D03*
X114427000Y-120523000D03*
X111887000Y-120523000D03*
X109347000Y-120523000D03*
X106807000Y-120523000D03*
X104267000Y-120523000D03*
X104267000Y-135763000D03*
X106807000Y-135763000D03*
X109347000Y-135763000D03*
X111887000Y-135763000D03*
X114427000Y-135763000D03*
X116967000Y-135763000D03*
X119507000Y-135763000D03*
X122047000Y-135763000D03*
X124587000Y-135763000D03*
X127127000Y-135763000D03*
X129667000Y-135763000D03*
X132207000Y-135763000D03*
X134747000Y-135763000D03*
X137287000Y-135763000D03*
X165354000Y-136271000D03*
X175514000Y-136271000D03*
X198882000Y-49403000D03*
X198882000Y-138303000D03*
X196342000Y-54483000D03*
X196342000Y-57023000D03*
X196342000Y-59563000D03*
X196342000Y-62103000D03*
X196342000Y-64643000D03*
X196342000Y-67183000D03*
X196342000Y-69723000D03*
X196342000Y-72263000D03*
X196342000Y-74803000D03*
X196342000Y-77343000D03*
X196342000Y-79883000D03*
X196342000Y-82423000D03*
X196342000Y-84963000D03*
X196342000Y-87503000D03*
X196342000Y-90043000D03*
X196342000Y-92583000D03*
X196342000Y-95123000D03*
X196342000Y-97663000D03*
X196342000Y-100203000D03*
X196342000Y-102743000D03*
X196342000Y-105283000D03*
X196342000Y-107823000D03*
X196342000Y-110363000D03*
X196342000Y-112903000D03*
X196342000Y-115443000D03*
X196342000Y-117983000D03*
X196342000Y-120523000D03*
X196342000Y-123063000D03*
X196342000Y-125603000D03*
X196342000Y-128143000D03*
X196342000Y-130683000D03*
X196342000Y-133223000D03*
X193802000Y-54483000D03*
X193802000Y-57023000D03*
X193802000Y-59563000D03*
X193802000Y-62103000D03*
X193802000Y-64643000D03*
X193802000Y-67183000D03*
X193802000Y-69723000D03*
X193802000Y-72263000D03*
X193802000Y-74803000D03*
X193802000Y-77343000D03*
X193802000Y-79883000D03*
X193802000Y-82423000D03*
X193802000Y-84963000D03*
X193802000Y-87503000D03*
X193802000Y-90043000D03*
X193802000Y-92583000D03*
X193802000Y-95123000D03*
X193802000Y-97663000D03*
X193802000Y-100203000D03*
X193802000Y-102743000D03*
X193802000Y-105283000D03*
X193802000Y-107823000D03*
X193802000Y-110363000D03*
X193802000Y-112903000D03*
X193802000Y-115443000D03*
X193802000Y-117983000D03*
X193802000Y-120523000D03*
X193802000Y-123063000D03*
X193802000Y-125603000D03*
X193802000Y-128143000D03*
X193802000Y-130683000D03*
X193802000Y-133223000D03*
X142494000Y-131191000D03*
X147394000Y-131191000D03*
X152654000Y-133731000D03*
X162814000Y-133731000D03*
X52070000Y-114427000D03*
X49530000Y-114427000D03*
X52070000Y-111887000D03*
X49530000Y-111887000D03*
X52070000Y-109347000D03*
X49530000Y-109347000D03*
X52070000Y-106807000D03*
X49530000Y-106807000D03*
X52070000Y-104267000D03*
X49530000Y-104267000D03*
X52070000Y-101727000D03*
X49530000Y-101727000D03*
X52070000Y-99187000D03*
X49530000Y-99187000D03*
X52070000Y-96647000D03*
X49530000Y-96647000D03*
X52070000Y-94107000D03*
X49530000Y-94107000D03*
X52070000Y-91567000D03*
X49530000Y-91567000D03*
X52070000Y-89027000D03*
X49530000Y-89027000D03*
X52070000Y-86487000D03*
X49530000Y-86487000D03*
X52070000Y-83947000D03*
X49530000Y-83947000D03*
X52070000Y-81407000D03*
X49530000Y-81407000D03*
X52070000Y-78867000D03*
X49530000Y-78867000D03*
X52070000Y-76327000D03*
X49530000Y-76327000D03*
X52070000Y-73787000D03*
X49530000Y-73787000D03*
X168402000Y-53467000D03*
X162814000Y-136271000D03*
X152654000Y-136271000D03*
X55118000Y-59643000D03*
X55118000Y-64643000D03*
X101647000Y-82931000D03*
X96647000Y-82931000D03*
X89027000Y-120523000D03*
X86487000Y-120523000D03*
X83947000Y-120523000D03*
X81407000Y-120523000D03*
X78867000Y-120523000D03*
X76327000Y-120523000D03*
X73787000Y-120523000D03*
X71247000Y-120523000D03*
X68707000Y-120523000D03*
X66167000Y-120523000D03*
X63627000Y-120523000D03*
X61087000Y-120523000D03*
X58547000Y-120523000D03*
X56007000Y-120523000D03*
X56007000Y-135763000D03*
X58547000Y-135763000D03*
X61087000Y-135763000D03*
X63627000Y-135763000D03*
X66167000Y-135763000D03*
X68707000Y-135763000D03*
X71247000Y-135763000D03*
X73787000Y-135763000D03*
X76327000Y-135763000D03*
X78867000Y-135763000D03*
X81407000Y-135763000D03*
X83947000Y-135763000D03*
X86487000Y-135763000D03*
X89027000Y-135763000D03*
X140890000Y-82931000D03*
X135890000Y-82931000D03*
X99227000Y-113411000D03*
X104227000Y-113411000D03*
X161798000Y-53467000D03*
X178054000Y-69723000D03*
X188214000Y-69723000D03*
X142494000Y-126111000D03*
X152654000Y-126111000D03*
X64885500Y-51723000D03*
X64885500Y-69723000D03*
X171958000Y-53467000D03*
X185674000Y-133731000D03*
X185674000Y-131191000D03*
X185674000Y-128651000D03*
X185674000Y-126111000D03*
X185674000Y-123571000D03*
X185674000Y-121031000D03*
X185674000Y-118491000D03*
X185674000Y-115951000D03*
X185674000Y-113411000D03*
X185674000Y-110871000D03*
X178054000Y-110871000D03*
X178054000Y-113411000D03*
X178054000Y-115951000D03*
X178054000Y-118491000D03*
X178054000Y-121031000D03*
X178054000Y-123571000D03*
X178054000Y-126111000D03*
X178054000Y-128651000D03*
X178054000Y-131191000D03*
X178054000Y-133731000D03*
X132842000Y-77338000D03*
X132842000Y-74798000D03*
X132842000Y-72258000D03*
X132842000Y-69718000D03*
X132842000Y-67178000D03*
X132842000Y-64638000D03*
X132842000Y-62098000D03*
X132842000Y-59558000D03*
X132842000Y-57018000D03*
X132842000Y-54478000D03*
X125222000Y-54478000D03*
X125222000Y-57018000D03*
X125222000Y-59558000D03*
X125222000Y-62098000D03*
X125222000Y-64638000D03*
X125222000Y-67178000D03*
X125222000Y-69718000D03*
X125222000Y-72258000D03*
X125222000Y-74798000D03*
X125222000Y-77338000D03*
X161798000Y-62103000D03*
X171958000Y-62103000D03*
X80010000Y-82931000D03*
X85010000Y-82931000D03*
X165354000Y-133731000D03*
X175514000Y-133731000D03*
X92086500Y-54483000D03*
X92086500Y-72483000D03*
X76962000Y-110363000D03*
X76962000Y-107823000D03*
X76962000Y-105283000D03*
X76962000Y-102743000D03*
X76962000Y-100203000D03*
X76962000Y-97663000D03*
X76962000Y-95123000D03*
X76962000Y-92583000D03*
X69342000Y-92583000D03*
X69342000Y-95123000D03*
X69342000Y-97663000D03*
X69342000Y-100203000D03*
X69342000Y-102743000D03*
X69342000Y-105283000D03*
X69342000Y-107823000D03*
X69342000Y-110363000D03*
X165354000Y-121031000D03*
X175514000Y-121031000D03*
X168402000Y-107823000D03*
X168402000Y-105283000D03*
X168402000Y-102743000D03*
X168402000Y-100203000D03*
X168402000Y-97663000D03*
X168402000Y-95123000D03*
X168402000Y-92583000D03*
X168402000Y-90043000D03*
X160782000Y-90043000D03*
X160782000Y-92583000D03*
X160782000Y-95123000D03*
X160782000Y-97663000D03*
X160782000Y-100203000D03*
X160782000Y-102743000D03*
X160782000Y-105283000D03*
X160782000Y-107823000D03*
X51562000Y-139573000D03*
X51562000Y-137033000D03*
X51562000Y-134493000D03*
X51562000Y-131953000D03*
X51562000Y-129413000D03*
X51562000Y-126873000D03*
X51562000Y-124333000D03*
X51562000Y-121793000D03*
X43942000Y-121793000D03*
X43942000Y-124333000D03*
X43942000Y-126873000D03*
X43942000Y-129413000D03*
X43942000Y-131953000D03*
X43942000Y-134493000D03*
X43942000Y-137033000D03*
X43942000Y-139573000D03*
X165354000Y-118491000D03*
X175514000Y-118491000D03*
X168990000Y-110871000D03*
X173990000Y-110871000D03*
X59817000Y-100711000D03*
X59817000Y-110871000D03*
X165354000Y-113411000D03*
X175514000Y-113411000D03*
X120257500Y-54627000D03*
X120257500Y-72627000D03*
X130222000Y-82931000D03*
X125222000Y-82931000D03*
X178054000Y-72263000D03*
X188214000Y-72263000D03*
X107442000Y-82931000D03*
X112442000Y-82931000D03*
X100457000Y-135763000D03*
X100457000Y-133223000D03*
X100457000Y-130683000D03*
X100457000Y-128143000D03*
X100457000Y-125603000D03*
X100457000Y-123063000D03*
X100457000Y-120523000D03*
X92837000Y-120523000D03*
X92837000Y-123063000D03*
X92837000Y-125603000D03*
X92837000Y-128143000D03*
X92837000Y-130683000D03*
X92837000Y-133223000D03*
X92837000Y-135763000D03*
X76962000Y-77343000D03*
X76962000Y-74803000D03*
X76962000Y-72263000D03*
X76962000Y-69723000D03*
X76962000Y-67183000D03*
X76962000Y-64643000D03*
X76962000Y-62103000D03*
X76962000Y-59563000D03*
X76962000Y-57023000D03*
X76962000Y-54483000D03*
X69342000Y-54483000D03*
X69342000Y-57023000D03*
X69342000Y-59563000D03*
X69342000Y-62103000D03*
X69342000Y-64643000D03*
X69342000Y-67183000D03*
X69342000Y-69723000D03*
X69342000Y-72263000D03*
X69342000Y-74803000D03*
X69342000Y-77343000D03*
X142494000Y-123571000D03*
X152654000Y-123571000D03*
X74342000Y-82931000D03*
X69342000Y-82931000D03*
X165354000Y-126111000D03*
X175514000Y-126111000D03*
X165354000Y-131191000D03*
X175514000Y-131191000D03*
X59817000Y-77851000D03*
X59817000Y-88011000D03*
X185674000Y-67183000D03*
X185674000Y-64643000D03*
X185674000Y-62103000D03*
X185674000Y-59563000D03*
X185674000Y-57023000D03*
X185674000Y-54483000D03*
X185674000Y-51943000D03*
X185674000Y-49403000D03*
X178054000Y-49403000D03*
X178054000Y-51943000D03*
X178054000Y-54483000D03*
X178054000Y-57023000D03*
X178054000Y-59563000D03*
X178054000Y-62103000D03*
X178054000Y-64643000D03*
X178054000Y-67183000D03*
X162814000Y-126111000D03*
X162814000Y-123571000D03*
X162814000Y-121031000D03*
X162814000Y-118491000D03*
X162814000Y-115951000D03*
X162814000Y-113411000D03*
X162814000Y-110871000D03*
X155194000Y-110871000D03*
X155194000Y-113411000D03*
X155194000Y-115951000D03*
X155194000Y-118491000D03*
X155194000Y-121031000D03*
X155194000Y-123571000D03*
X155194000Y-126111000D03*
X155194000Y-131191000D03*
X160194000Y-131191000D03*
X169418000Y-123571000D03*
X174418000Y-123571000D03*
X187706000Y-95203000D03*
X187706000Y-100203000D03*
X115062000Y-77343000D03*
X115062000Y-74803000D03*
X115062000Y-72263000D03*
X115062000Y-69723000D03*
X115062000Y-67183000D03*
X115062000Y-64643000D03*
X115062000Y-62103000D03*
X115062000Y-59563000D03*
X115062000Y-57023000D03*
X115062000Y-54483000D03*
X107442000Y-54483000D03*
X107442000Y-57023000D03*
X107442000Y-59563000D03*
X107442000Y-62103000D03*
X107442000Y-64643000D03*
X107442000Y-67183000D03*
X107442000Y-69723000D03*
X107442000Y-72263000D03*
X107442000Y-74803000D03*
X107442000Y-77343000D03*
X56642000Y-100711000D03*
X56642000Y-110871000D03*
X59297500Y-51723000D03*
X59297500Y-69723000D03*
X152614000Y-128651000D03*
X162774000Y-128651000D03*
X142534000Y-136271000D03*
X147534000Y-136271000D03*
X87757000Y-77343000D03*
X87757000Y-74803000D03*
X87757000Y-72263000D03*
X87757000Y-69723000D03*
X87757000Y-67183000D03*
X87757000Y-64643000D03*
X87757000Y-62103000D03*
X87757000Y-59563000D03*
X87757000Y-57023000D03*
X87757000Y-54483000D03*
X80137000Y-54483000D03*
X80137000Y-57023000D03*
X80137000Y-59563000D03*
X80137000Y-62103000D03*
X80137000Y-64643000D03*
X80137000Y-67183000D03*
X80137000Y-69723000D03*
X80137000Y-72263000D03*
X80137000Y-74803000D03*
X80137000Y-77343000D03*
X56642000Y-77851000D03*
X56642000Y-88011000D03*
M02*
