%TF.GenerationSoftware,KiCad,Pcbnew,6.0.8-f2edbf62ab~116~ubuntu22.04.1*%
%TF.CreationDate,2022-10-02T00:14:38+02:00*%
%TF.ProjectId,ql_trump_v2_disk_interface,716c5f74-7275-46d7-905f-76325f646973,01*%
%TF.SameCoordinates,Original*%
%TF.FileFunction,Legend,Bot*%
%TF.FilePolarity,Positive*%
%FSLAX46Y46*%
G04 Gerber Fmt 4.6, Leading zero omitted, Abs format (unit mm)*
G04 Created by KiCad (PCBNEW 6.0.8-f2edbf62ab~116~ubuntu22.04.1) date 2022-10-02 00:14:38*
%MOMM*%
%LPD*%
G01*
G04 APERTURE LIST*
%TA.AperFunction,Profile*%
%ADD10C,0.050000*%
%TD*%
%ADD11C,0.150000*%
G04 APERTURE END LIST*
D10*
X201422000Y-44323000D02*
X38862000Y-44323000D01*
X201422000Y-143383000D02*
X201422000Y-44323000D01*
X38862000Y-44323000D02*
X38862000Y-143344900D01*
X114427000Y-47498000D02*
G75*
G03*
X114427000Y-47498000I-1905000J0D01*
G01*
X38862000Y-143344900D02*
X201422000Y-143383000D01*
D11*
X146906000Y-46764380D02*
X147382190Y-46764380D01*
X147382190Y-45764380D01*
X146572666Y-46764380D02*
X146572666Y-46097714D01*
X146572666Y-45764380D02*
X146620285Y-45812000D01*
X146572666Y-45859619D01*
X146525047Y-45812000D01*
X146572666Y-45764380D01*
X146572666Y-45859619D01*
X145667904Y-46716761D02*
X145763142Y-46764380D01*
X145953619Y-46764380D01*
X146048857Y-46716761D01*
X146096476Y-46669142D01*
X146144095Y-46573904D01*
X146144095Y-46288190D01*
X146096476Y-46192952D01*
X146048857Y-46145333D01*
X145953619Y-46097714D01*
X145763142Y-46097714D01*
X145667904Y-46145333D01*
X144858380Y-46716761D02*
X144953619Y-46764380D01*
X145144095Y-46764380D01*
X145239333Y-46716761D01*
X145286952Y-46621523D01*
X145286952Y-46240571D01*
X145239333Y-46145333D01*
X145144095Y-46097714D01*
X144953619Y-46097714D01*
X144858380Y-46145333D01*
X144810761Y-46240571D01*
X144810761Y-46335809D01*
X145286952Y-46431047D01*
X144382190Y-46097714D02*
X144382190Y-46764380D01*
X144382190Y-46192952D02*
X144334571Y-46145333D01*
X144239333Y-46097714D01*
X144096476Y-46097714D01*
X144001238Y-46145333D01*
X143953619Y-46240571D01*
X143953619Y-46764380D01*
X143525047Y-46716761D02*
X143429809Y-46764380D01*
X143239333Y-46764380D01*
X143144095Y-46716761D01*
X143096476Y-46621523D01*
X143096476Y-46573904D01*
X143144095Y-46478666D01*
X143239333Y-46431047D01*
X143382190Y-46431047D01*
X143477428Y-46383428D01*
X143525047Y-46288190D01*
X143525047Y-46240571D01*
X143477428Y-46145333D01*
X143382190Y-46097714D01*
X143239333Y-46097714D01*
X143144095Y-46145333D01*
X142286952Y-46716761D02*
X142382190Y-46764380D01*
X142572666Y-46764380D01*
X142667904Y-46716761D01*
X142715523Y-46621523D01*
X142715523Y-46240571D01*
X142667904Y-46145333D01*
X142572666Y-46097714D01*
X142382190Y-46097714D01*
X142286952Y-46145333D01*
X142239333Y-46240571D01*
X142239333Y-46335809D01*
X142715523Y-46431047D01*
X141382190Y-46764380D02*
X141382190Y-45764380D01*
X141382190Y-46716761D02*
X141477428Y-46764380D01*
X141667904Y-46764380D01*
X141763142Y-46716761D01*
X141810761Y-46669142D01*
X141858380Y-46573904D01*
X141858380Y-46288190D01*
X141810761Y-46192952D01*
X141763142Y-46145333D01*
X141667904Y-46097714D01*
X141477428Y-46097714D01*
X141382190Y-46145333D01*
X139715523Y-46097714D02*
X139715523Y-46764380D01*
X140144095Y-46097714D02*
X140144095Y-46621523D01*
X140096476Y-46716761D01*
X140001238Y-46764380D01*
X139858380Y-46764380D01*
X139763142Y-46716761D01*
X139715523Y-46669142D01*
X139239333Y-46097714D02*
X139239333Y-46764380D01*
X139239333Y-46192952D02*
X139191714Y-46145333D01*
X139096476Y-46097714D01*
X138953619Y-46097714D01*
X138858380Y-46145333D01*
X138810761Y-46240571D01*
X138810761Y-46764380D01*
X137906000Y-46764380D02*
X137906000Y-45764380D01*
X137906000Y-46716761D02*
X138001238Y-46764380D01*
X138191714Y-46764380D01*
X138286952Y-46716761D01*
X138334571Y-46669142D01*
X138382190Y-46573904D01*
X138382190Y-46288190D01*
X138334571Y-46192952D01*
X138286952Y-46145333D01*
X138191714Y-46097714D01*
X138001238Y-46097714D01*
X137906000Y-46145333D01*
X137048857Y-46716761D02*
X137144095Y-46764380D01*
X137334571Y-46764380D01*
X137429809Y-46716761D01*
X137477428Y-46621523D01*
X137477428Y-46240571D01*
X137429809Y-46145333D01*
X137334571Y-46097714D01*
X137144095Y-46097714D01*
X137048857Y-46145333D01*
X137001238Y-46240571D01*
X137001238Y-46335809D01*
X137477428Y-46431047D01*
X136572666Y-46764380D02*
X136572666Y-46097714D01*
X136572666Y-46288190D02*
X136525047Y-46192952D01*
X136477428Y-46145333D01*
X136382190Y-46097714D01*
X136286952Y-46097714D01*
X134620285Y-46669142D02*
X134667904Y-46716761D01*
X134810761Y-46764380D01*
X134906000Y-46764380D01*
X135048857Y-46716761D01*
X135144095Y-46621523D01*
X135191714Y-46526285D01*
X135239333Y-46335809D01*
X135239333Y-46192952D01*
X135191714Y-46002476D01*
X135144095Y-45907238D01*
X135048857Y-45812000D01*
X134906000Y-45764380D01*
X134810761Y-45764380D01*
X134667904Y-45812000D01*
X134620285Y-45859619D01*
X133810761Y-46716761D02*
X133906000Y-46764380D01*
X134096476Y-46764380D01*
X134191714Y-46716761D01*
X134239333Y-46621523D01*
X134239333Y-46240571D01*
X134191714Y-46145333D01*
X134096476Y-46097714D01*
X133906000Y-46097714D01*
X133810761Y-46145333D01*
X133763142Y-46240571D01*
X133763142Y-46335809D01*
X134239333Y-46431047D01*
X133334571Y-46764380D02*
X133334571Y-46097714D01*
X133334571Y-46288190D02*
X133286952Y-46192952D01*
X133239333Y-46145333D01*
X133144095Y-46097714D01*
X133048857Y-46097714D01*
X132715523Y-46097714D02*
X132715523Y-46764380D01*
X132715523Y-46192952D02*
X132667904Y-46145333D01*
X132572666Y-46097714D01*
X132429809Y-46097714D01*
X132334571Y-46145333D01*
X132286952Y-46240571D01*
X132286952Y-46764380D01*
X130858380Y-45764380D02*
X130667904Y-45764380D01*
X130572666Y-45812000D01*
X130477428Y-45907238D01*
X130429809Y-46097714D01*
X130429809Y-46431047D01*
X130477428Y-46621523D01*
X130572666Y-46716761D01*
X130667904Y-46764380D01*
X130858380Y-46764380D01*
X130953619Y-46716761D01*
X131048857Y-46621523D01*
X131096476Y-46431047D01*
X131096476Y-46097714D01*
X131048857Y-45907238D01*
X130953619Y-45812000D01*
X130858380Y-45764380D01*
X130001238Y-46764380D02*
X130001238Y-45764380D01*
X130001238Y-46240571D02*
X129429809Y-46240571D01*
X129429809Y-46764380D02*
X129429809Y-45764380D01*
X128477428Y-46764380D02*
X128953619Y-46764380D01*
X128953619Y-45764380D01*
X128144095Y-46383428D02*
X127382190Y-46383428D01*
X126953619Y-46716761D02*
X126810761Y-46764380D01*
X126572666Y-46764380D01*
X126477428Y-46716761D01*
X126429809Y-46669142D01*
X126382190Y-46573904D01*
X126382190Y-46478666D01*
X126429809Y-46383428D01*
X126477428Y-46335809D01*
X126572666Y-46288190D01*
X126763142Y-46240571D01*
X126858380Y-46192952D01*
X126906000Y-46145333D01*
X126953619Y-46050095D01*
X126953619Y-45954857D01*
X126906000Y-45859619D01*
X126858380Y-45812000D01*
X126763142Y-45764380D01*
X126525047Y-45764380D01*
X126382190Y-45812000D01*
X149953619Y-48374380D02*
X149953619Y-47374380D01*
X149525047Y-48374380D02*
X149525047Y-47850571D01*
X149572666Y-47755333D01*
X149667904Y-47707714D01*
X149810761Y-47707714D01*
X149906000Y-47755333D01*
X149953619Y-47802952D01*
X149191714Y-47707714D02*
X148810761Y-47707714D01*
X149048857Y-47374380D02*
X149048857Y-48231523D01*
X149001238Y-48326761D01*
X148906000Y-48374380D01*
X148810761Y-48374380D01*
X148620285Y-47707714D02*
X148239333Y-47707714D01*
X148477428Y-47374380D02*
X148477428Y-48231523D01*
X148429809Y-48326761D01*
X148334571Y-48374380D01*
X148239333Y-48374380D01*
X147906000Y-47707714D02*
X147906000Y-48707714D01*
X147906000Y-47755333D02*
X147810761Y-47707714D01*
X147620285Y-47707714D01*
X147525047Y-47755333D01*
X147477428Y-47802952D01*
X147429809Y-47898190D01*
X147429809Y-48183904D01*
X147477428Y-48279142D01*
X147525047Y-48326761D01*
X147620285Y-48374380D01*
X147810761Y-48374380D01*
X147906000Y-48326761D01*
X147048857Y-48326761D02*
X146953619Y-48374380D01*
X146763142Y-48374380D01*
X146667904Y-48326761D01*
X146620285Y-48231523D01*
X146620285Y-48183904D01*
X146667904Y-48088666D01*
X146763142Y-48041047D01*
X146906000Y-48041047D01*
X147001238Y-47993428D01*
X147048857Y-47898190D01*
X147048857Y-47850571D01*
X147001238Y-47755333D01*
X146906000Y-47707714D01*
X146763142Y-47707714D01*
X146667904Y-47755333D01*
X146191714Y-48279142D02*
X146144095Y-48326761D01*
X146191714Y-48374380D01*
X146239333Y-48326761D01*
X146191714Y-48279142D01*
X146191714Y-48374380D01*
X146191714Y-47755333D02*
X146144095Y-47802952D01*
X146191714Y-47850571D01*
X146239333Y-47802952D01*
X146191714Y-47755333D01*
X146191714Y-47850571D01*
X145001238Y-47326761D02*
X145858380Y-48612476D01*
X143953619Y-47326761D02*
X144810761Y-48612476D01*
X143477428Y-48374380D02*
X143572666Y-48326761D01*
X143620285Y-48279142D01*
X143667904Y-48183904D01*
X143667904Y-47898190D01*
X143620285Y-47802952D01*
X143572666Y-47755333D01*
X143477428Y-47707714D01*
X143334571Y-47707714D01*
X143239333Y-47755333D01*
X143191714Y-47802952D01*
X143144095Y-47898190D01*
X143144095Y-48183904D01*
X143191714Y-48279142D01*
X143239333Y-48326761D01*
X143334571Y-48374380D01*
X143477428Y-48374380D01*
X142715523Y-48374380D02*
X142715523Y-47374380D01*
X142286952Y-48374380D02*
X142286952Y-47850571D01*
X142334571Y-47755333D01*
X142429809Y-47707714D01*
X142572666Y-47707714D01*
X142667904Y-47755333D01*
X142715523Y-47802952D01*
X141906000Y-47707714D02*
X141715523Y-48374380D01*
X141525047Y-47898190D01*
X141334571Y-48374380D01*
X141144095Y-47707714D01*
X140763142Y-48374380D02*
X140763142Y-47707714D01*
X140763142Y-47898190D02*
X140715523Y-47802952D01*
X140667904Y-47755333D01*
X140572666Y-47707714D01*
X140477428Y-47707714D01*
X140144095Y-48279142D02*
X140096476Y-48326761D01*
X140144095Y-48374380D01*
X140191714Y-48326761D01*
X140144095Y-48279142D01*
X140144095Y-48374380D01*
X139525047Y-48374380D02*
X139620285Y-48326761D01*
X139667904Y-48279142D01*
X139715523Y-48183904D01*
X139715523Y-47898190D01*
X139667904Y-47802952D01*
X139620285Y-47755333D01*
X139525047Y-47707714D01*
X139382190Y-47707714D01*
X139286952Y-47755333D01*
X139239333Y-47802952D01*
X139191714Y-47898190D01*
X139191714Y-48183904D01*
X139239333Y-48279142D01*
X139286952Y-48326761D01*
X139382190Y-48374380D01*
X139525047Y-48374380D01*
X138763142Y-48374380D02*
X138763142Y-47707714D01*
X138763142Y-47898190D02*
X138715523Y-47802952D01*
X138667904Y-47755333D01*
X138572666Y-47707714D01*
X138477428Y-47707714D01*
X137715523Y-47707714D02*
X137715523Y-48517238D01*
X137763142Y-48612476D01*
X137810761Y-48660095D01*
X137906000Y-48707714D01*
X138048857Y-48707714D01*
X138144095Y-48660095D01*
X137715523Y-48326761D02*
X137810761Y-48374380D01*
X138001238Y-48374380D01*
X138096476Y-48326761D01*
X138144095Y-48279142D01*
X138191714Y-48183904D01*
X138191714Y-47898190D01*
X138144095Y-47802952D01*
X138096476Y-47755333D01*
X138001238Y-47707714D01*
X137810761Y-47707714D01*
X137715523Y-47755333D01*
X136525047Y-47326761D02*
X137382190Y-48612476D01*
X135763142Y-48326761D02*
X135858380Y-48374380D01*
X136048857Y-48374380D01*
X136144095Y-48326761D01*
X136191714Y-48279142D01*
X136239333Y-48183904D01*
X136239333Y-47898190D01*
X136191714Y-47802952D01*
X136144095Y-47755333D01*
X136048857Y-47707714D01*
X135858380Y-47707714D01*
X135763142Y-47755333D01*
X134953619Y-48326761D02*
X135048857Y-48374380D01*
X135239333Y-48374380D01*
X135334571Y-48326761D01*
X135382190Y-48231523D01*
X135382190Y-47850571D01*
X135334571Y-47755333D01*
X135239333Y-47707714D01*
X135048857Y-47707714D01*
X134953619Y-47755333D01*
X134906000Y-47850571D01*
X134906000Y-47945809D01*
X135382190Y-48041047D01*
X134477428Y-48374380D02*
X134477428Y-47707714D01*
X134477428Y-47898190D02*
X134429809Y-47802952D01*
X134382190Y-47755333D01*
X134286952Y-47707714D01*
X134191714Y-47707714D01*
X133858380Y-47707714D02*
X133858380Y-48374380D01*
X133858380Y-47802952D02*
X133810761Y-47755333D01*
X133715523Y-47707714D01*
X133572666Y-47707714D01*
X133477428Y-47755333D01*
X133429809Y-47850571D01*
X133429809Y-48374380D01*
X133191714Y-48469619D02*
X132429809Y-48469619D01*
X132048857Y-48374380D02*
X132144095Y-48326761D01*
X132191714Y-48279142D01*
X132239333Y-48183904D01*
X132239333Y-47898190D01*
X132191714Y-47802952D01*
X132144095Y-47755333D01*
X132048857Y-47707714D01*
X131906000Y-47707714D01*
X131810761Y-47755333D01*
X131763142Y-47802952D01*
X131715523Y-47898190D01*
X131715523Y-48183904D01*
X131763142Y-48279142D01*
X131810761Y-48326761D01*
X131906000Y-48374380D01*
X132048857Y-48374380D01*
X131286952Y-48374380D02*
X131286952Y-47374380D01*
X130858380Y-48374380D02*
X130858380Y-47850571D01*
X130906000Y-47755333D01*
X131001238Y-47707714D01*
X131144095Y-47707714D01*
X131239333Y-47755333D01*
X131286952Y-47802952D01*
X130239333Y-48374380D02*
X130334571Y-48326761D01*
X130382190Y-48231523D01*
X130382190Y-47374380D01*
X130096476Y-48469619D02*
X129334571Y-48469619D01*
X129144095Y-48326761D02*
X129048857Y-48374380D01*
X128858380Y-48374380D01*
X128763142Y-48326761D01*
X128715523Y-48231523D01*
X128715523Y-48183904D01*
X128763142Y-48088666D01*
X128858380Y-48041047D01*
X129001238Y-48041047D01*
X129096476Y-47993428D01*
X129144095Y-47898190D01*
X129144095Y-47850571D01*
X129096476Y-47755333D01*
X129001238Y-47707714D01*
X128858380Y-47707714D01*
X128763142Y-47755333D01*
X128525047Y-48469619D02*
X127763142Y-48469619D01*
X127620285Y-47707714D02*
X127382190Y-48374380D01*
X127144095Y-47707714D01*
X126810761Y-47469619D02*
X126763142Y-47422000D01*
X126667904Y-47374380D01*
X126429809Y-47374380D01*
X126334571Y-47422000D01*
X126286952Y-47469619D01*
X126239333Y-47564857D01*
X126239333Y-47660095D01*
X126286952Y-47802952D01*
X126858380Y-48374380D01*
X126239333Y-48374380D01*
X125810761Y-48279142D02*
X125763142Y-48326761D01*
X125810761Y-48374380D01*
X125858380Y-48326761D01*
X125810761Y-48279142D01*
X125810761Y-48374380D01*
X125477428Y-47707714D02*
X125096476Y-47707714D01*
X125334571Y-47374380D02*
X125334571Y-48231523D01*
X125286952Y-48326761D01*
X125191714Y-48374380D01*
X125096476Y-48374380D01*
X124858380Y-48374380D02*
X124334571Y-47707714D01*
X124858380Y-47707714D02*
X124334571Y-48374380D01*
X124096476Y-47707714D02*
X123715523Y-47707714D01*
X123953619Y-47374380D02*
X123953619Y-48231523D01*
X123906000Y-48326761D01*
X123810761Y-48374380D01*
X123715523Y-48374380D01*
M02*
