%TF.GenerationSoftware,KiCad,Pcbnew,6.0.8-f2edbf62ab~116~ubuntu22.04.1*%
%TF.CreationDate,2022-10-02T00:14:38+02:00*%
%TF.ProjectId,ql_trump_v2_disk_interface,716c5f74-7275-46d7-905f-76325f646973,01*%
%TF.SameCoordinates,Original*%
%TF.FileFunction,Copper,L1,Top*%
%TF.FilePolarity,Positive*%
%FSLAX46Y46*%
G04 Gerber Fmt 4.6, Leading zero omitted, Abs format (unit mm)*
G04 Created by KiCad (PCBNEW 6.0.8-f2edbf62ab~116~ubuntu22.04.1) date 2022-10-02 00:14:38*
%MOMM*%
%LPD*%
G01*
G04 APERTURE LIST*
G04 Aperture macros list*
%AMRoundRect*
0 Rectangle with rounded corners*
0 $1 Rounding radius*
0 $2 $3 $4 $5 $6 $7 $8 $9 X,Y pos of 4 corners*
0 Add a 4 corners polygon primitive as box body*
4,1,4,$2,$3,$4,$5,$6,$7,$8,$9,$2,$3,0*
0 Add four circle primitives for the rounded corners*
1,1,$1+$1,$2,$3*
1,1,$1+$1,$4,$5*
1,1,$1+$1,$6,$7*
1,1,$1+$1,$8,$9*
0 Add four rect primitives between the rounded corners*
20,1,$1+$1,$2,$3,$4,$5,0*
20,1,$1+$1,$4,$5,$6,$7,0*
20,1,$1+$1,$6,$7,$8,$9,0*
20,1,$1+$1,$8,$9,$2,$3,0*%
G04 Aperture macros list end*
%TA.AperFunction,Profile*%
%ADD10C,0.050000*%
%TD*%
%ADD11C,0.300000*%
%TA.AperFunction,NonConductor*%
%ADD12C,0.300000*%
%TD*%
%ADD13C,0.600000*%
%TA.AperFunction,NonConductor*%
%ADD14C,0.600000*%
%TD*%
%ADD15C,0.250000*%
%TA.AperFunction,NonConductor*%
%ADD16C,0.250000*%
%TD*%
%TA.AperFunction,ComponentPad*%
%ADD17R,1.905000X2.000000*%
%TD*%
%TA.AperFunction,ComponentPad*%
%ADD18O,1.905000X2.000000*%
%TD*%
%TA.AperFunction,ComponentPad*%
%ADD19R,1.600000X1.600000*%
%TD*%
%TA.AperFunction,ComponentPad*%
%ADD20O,1.600000X1.600000*%
%TD*%
%TA.AperFunction,ComponentPad*%
%ADD21C,1.600000*%
%TD*%
%TA.AperFunction,ComponentPad*%
%ADD22R,2.400000X2.400000*%
%TD*%
%TA.AperFunction,ComponentPad*%
%ADD23O,2.400000X2.400000*%
%TD*%
%TA.AperFunction,ComponentPad*%
%ADD24RoundRect,0.249999X-0.525001X0.525001X-0.525001X-0.525001X0.525001X-0.525001X0.525001X0.525001X0*%
%TD*%
%TA.AperFunction,ComponentPad*%
%ADD25C,1.550000*%
%TD*%
%TA.AperFunction,ComponentPad*%
%ADD26C,1.500000*%
%TD*%
%TA.AperFunction,ComponentPad*%
%ADD27R,1.700000X1.700000*%
%TD*%
%TA.AperFunction,ComponentPad*%
%ADD28O,1.700000X1.700000*%
%TD*%
%TA.AperFunction,ViaPad*%
%ADD29C,0.800000*%
%TD*%
%TA.AperFunction,ViaPad*%
%ADD30C,1.600000*%
%TD*%
%TA.AperFunction,Conductor*%
%ADD31C,0.750000*%
%TD*%
%TA.AperFunction,Conductor*%
%ADD32C,0.500000*%
%TD*%
%TA.AperFunction,Conductor*%
%ADD33C,0.350000*%
%TD*%
G04 APERTURE END LIST*
D10*
X201422000Y-44323000D02*
X38862000Y-44323000D01*
X201422000Y-143383000D02*
X201422000Y-44323000D01*
X38862000Y-44323000D02*
X38862000Y-143344900D01*
X114427000Y-47498000D02*
G75*
G03*
X114427000Y-47498000I-1905000J0D01*
G01*
X38862000Y-143344900D02*
X201422000Y-143383000D01*
D11*
D12*
X78808571Y-114089571D02*
X78808571Y-112589571D01*
X79308571Y-113661000D01*
X79808571Y-112589571D01*
X79808571Y-114089571D01*
X80522857Y-114089571D02*
X80522857Y-113089571D01*
X80522857Y-112589571D02*
X80451428Y-112661000D01*
X80522857Y-112732428D01*
X80594285Y-112661000D01*
X80522857Y-112589571D01*
X80522857Y-112732428D01*
X81237142Y-114089571D02*
X81237142Y-113089571D01*
X81237142Y-113375285D02*
X81308571Y-113232428D01*
X81380000Y-113161000D01*
X81522857Y-113089571D01*
X81665714Y-113089571D01*
X82808571Y-114089571D02*
X82808571Y-113303857D01*
X82737142Y-113161000D01*
X82594285Y-113089571D01*
X82308571Y-113089571D01*
X82165714Y-113161000D01*
X82808571Y-114018142D02*
X82665714Y-114089571D01*
X82308571Y-114089571D01*
X82165714Y-114018142D01*
X82094285Y-113875285D01*
X82094285Y-113732428D01*
X82165714Y-113589571D01*
X82308571Y-113518142D01*
X82665714Y-113518142D01*
X82808571Y-113446714D01*
X84165714Y-114018142D02*
X84022857Y-114089571D01*
X83737142Y-114089571D01*
X83594285Y-114018142D01*
X83522857Y-113946714D01*
X83451428Y-113803857D01*
X83451428Y-113375285D01*
X83522857Y-113232428D01*
X83594285Y-113161000D01*
X83737142Y-113089571D01*
X84022857Y-113089571D01*
X84165714Y-113161000D01*
X85022857Y-114089571D02*
X84880000Y-114018142D01*
X84808571Y-113875285D01*
X84808571Y-112589571D01*
X86165714Y-114018142D02*
X86022857Y-114089571D01*
X85737142Y-114089571D01*
X85594285Y-114018142D01*
X85522857Y-113875285D01*
X85522857Y-113303857D01*
X85594285Y-113161000D01*
X85737142Y-113089571D01*
X86022857Y-113089571D01*
X86165714Y-113161000D01*
X86237142Y-113303857D01*
X86237142Y-113446714D01*
X85522857Y-113589571D01*
X87951428Y-114018142D02*
X88165714Y-114089571D01*
X88522857Y-114089571D01*
X88665714Y-114018142D01*
X88737142Y-113946714D01*
X88808571Y-113803857D01*
X88808571Y-113661000D01*
X88737142Y-113518142D01*
X88665714Y-113446714D01*
X88522857Y-113375285D01*
X88237142Y-113303857D01*
X88094285Y-113232428D01*
X88022857Y-113161000D01*
X87951428Y-113018142D01*
X87951428Y-112875285D01*
X88022857Y-112732428D01*
X88094285Y-112661000D01*
X88237142Y-112589571D01*
X88594285Y-112589571D01*
X88808571Y-112661000D01*
X89308571Y-113089571D02*
X89665714Y-114089571D01*
X90022857Y-113089571D02*
X89665714Y-114089571D01*
X89522857Y-114446714D01*
X89451428Y-114518142D01*
X89308571Y-114589571D01*
X90522857Y-114018142D02*
X90665714Y-114089571D01*
X90951428Y-114089571D01*
X91094285Y-114018142D01*
X91165714Y-113875285D01*
X91165714Y-113803857D01*
X91094285Y-113661000D01*
X90951428Y-113589571D01*
X90737142Y-113589571D01*
X90594285Y-113518142D01*
X90522857Y-113375285D01*
X90522857Y-113303857D01*
X90594285Y-113161000D01*
X90737142Y-113089571D01*
X90951428Y-113089571D01*
X91094285Y-113161000D01*
X91594285Y-113089571D02*
X92165714Y-113089571D01*
X91808571Y-112589571D02*
X91808571Y-113875285D01*
X91880000Y-114018142D01*
X92022857Y-114089571D01*
X92165714Y-114089571D01*
X93237142Y-114018142D02*
X93094285Y-114089571D01*
X92808571Y-114089571D01*
X92665714Y-114018142D01*
X92594285Y-113875285D01*
X92594285Y-113303857D01*
X92665714Y-113161000D01*
X92808571Y-113089571D01*
X93094285Y-113089571D01*
X93237142Y-113161000D01*
X93308571Y-113303857D01*
X93308571Y-113446714D01*
X92594285Y-113589571D01*
X93951428Y-114089571D02*
X93951428Y-113089571D01*
X93951428Y-113232428D02*
X94022857Y-113161000D01*
X94165714Y-113089571D01*
X94380000Y-113089571D01*
X94522857Y-113161000D01*
X94594285Y-113303857D01*
X94594285Y-114089571D01*
X94594285Y-113303857D02*
X94665714Y-113161000D01*
X94808571Y-113089571D01*
X95022857Y-113089571D01*
X95165714Y-113161000D01*
X95237142Y-113303857D01*
X95237142Y-114089571D01*
X95880000Y-114018142D02*
X96022857Y-114089571D01*
X96308571Y-114089571D01*
X96451428Y-114018142D01*
X96522857Y-113875285D01*
X96522857Y-113803857D01*
X96451428Y-113661000D01*
X96308571Y-113589571D01*
X96094285Y-113589571D01*
X95951428Y-113518142D01*
X95880000Y-113375285D01*
X95880000Y-113303857D01*
X95951428Y-113161000D01*
X96094285Y-113089571D01*
X96308571Y-113089571D01*
X96451428Y-113161000D01*
D13*
D14*
X131984857Y-109513857D02*
X132127714Y-109371000D01*
X132413428Y-109228142D01*
X133127714Y-109228142D01*
X133413428Y-109371000D01*
X133556285Y-109513857D01*
X133699142Y-109799571D01*
X133699142Y-110085285D01*
X133556285Y-110513857D01*
X131842000Y-112228142D01*
X133699142Y-112228142D01*
D13*
D14*
X124334190Y-95722833D02*
X126619904Y-95722833D01*
X125477047Y-99222833D02*
X125477047Y-95722833D01*
X130238952Y-99222833D02*
X128905619Y-97556166D01*
X127953238Y-99222833D02*
X127953238Y-95722833D01*
X129477047Y-95722833D01*
X129858000Y-95889500D01*
X130048476Y-96056166D01*
X130238952Y-96389500D01*
X130238952Y-96889500D01*
X130048476Y-97222833D01*
X129858000Y-97389500D01*
X129477047Y-97556166D01*
X127953238Y-97556166D01*
X131953238Y-95722833D02*
X131953238Y-98556166D01*
X132143714Y-98889500D01*
X132334190Y-99056166D01*
X132715142Y-99222833D01*
X133477047Y-99222833D01*
X133858000Y-99056166D01*
X134048476Y-98889500D01*
X134238952Y-98556166D01*
X134238952Y-95722833D01*
X136143714Y-99222833D02*
X136143714Y-95722833D01*
X137477047Y-98222833D01*
X138810380Y-95722833D01*
X138810380Y-99222833D01*
X140715142Y-99222833D02*
X140715142Y-95722833D01*
X142238952Y-95722833D01*
X142619904Y-95889500D01*
X142810380Y-96056166D01*
X143000857Y-96389500D01*
X143000857Y-96889500D01*
X142810380Y-97222833D01*
X142619904Y-97389500D01*
X142238952Y-97556166D01*
X140715142Y-97556166D01*
X129381809Y-104524500D02*
X129191333Y-104691166D01*
X128619904Y-104857833D01*
X128238952Y-104857833D01*
X127667523Y-104691166D01*
X127286571Y-104357833D01*
X127096095Y-104024500D01*
X126905619Y-103357833D01*
X126905619Y-102857833D01*
X127096095Y-102191166D01*
X127286571Y-101857833D01*
X127667523Y-101524500D01*
X128238952Y-101357833D01*
X128619904Y-101357833D01*
X129191333Y-101524500D01*
X129381809Y-101691166D01*
X130905619Y-103857833D02*
X132810380Y-103857833D01*
X130524666Y-104857833D02*
X131858000Y-101357833D01*
X133191333Y-104857833D01*
X136810380Y-104857833D02*
X135477047Y-103191166D01*
X134524666Y-104857833D02*
X134524666Y-101357833D01*
X136048476Y-101357833D01*
X136429428Y-101524500D01*
X136619904Y-101691166D01*
X136810380Y-102024500D01*
X136810380Y-102524500D01*
X136619904Y-102857833D01*
X136429428Y-103024500D01*
X136048476Y-103191166D01*
X134524666Y-103191166D01*
X138524666Y-104857833D02*
X138524666Y-101357833D01*
X139477047Y-101357833D01*
X140048476Y-101524500D01*
X140429428Y-101857833D01*
X140619904Y-102191166D01*
X140810380Y-102857833D01*
X140810380Y-103357833D01*
X140619904Y-104024500D01*
X140429428Y-104357833D01*
X140048476Y-104691166D01*
X139477047Y-104857833D01*
X138524666Y-104857833D01*
D15*
D16*
X161699428Y-51258476D02*
X161104190Y-51258476D01*
X161044666Y-51853714D01*
X161104190Y-51794190D01*
X161223238Y-51734666D01*
X161520857Y-51734666D01*
X161639904Y-51794190D01*
X161699428Y-51853714D01*
X161758952Y-51972761D01*
X161758952Y-52270380D01*
X161699428Y-52389428D01*
X161639904Y-52448952D01*
X161520857Y-52508476D01*
X161223238Y-52508476D01*
X161104190Y-52448952D01*
X161044666Y-52389428D01*
X162116095Y-51258476D02*
X162532761Y-52508476D01*
X162949428Y-51258476D01*
X171223238Y-51258476D02*
X171342285Y-51258476D01*
X171461333Y-51318000D01*
X171520857Y-51377523D01*
X171580380Y-51496571D01*
X171639904Y-51734666D01*
X171639904Y-52032285D01*
X171580380Y-52270380D01*
X171520857Y-52389428D01*
X171461333Y-52448952D01*
X171342285Y-52508476D01*
X171223238Y-52508476D01*
X171104190Y-52448952D01*
X171044666Y-52389428D01*
X170985142Y-52270380D01*
X170925619Y-52032285D01*
X170925619Y-51734666D01*
X170985142Y-51496571D01*
X171044666Y-51377523D01*
X171104190Y-51318000D01*
X171223238Y-51258476D01*
X171997047Y-51258476D02*
X172413714Y-52508476D01*
X172830380Y-51258476D01*
D17*
%TO.P,U18,1,VI*%
%TO.N,+9V*%
X45466000Y-64793000D03*
D18*
%TO.P,U18,2,GND*%
%TO.N,GND*%
X48006000Y-64793000D03*
%TO.P,U18,3,VO*%
%TO.N,+5V*%
X50546000Y-64793000D03*
%TD*%
D19*
%TO.P,U6,1,S*%
%TO.N,/MUX*%
X168402000Y-87503000D03*
D20*
%TO.P,U6,2,I0a*%
%TO.N,/A7*%
X168402000Y-84963000D03*
%TO.P,U6,3,I1a*%
%TO.N,/A5*%
X168402000Y-82423000D03*
%TO.P,U6,4,Za*%
%TO.N,/MA2*%
X168402000Y-79883000D03*
%TO.P,U6,5,I0b*%
%TO.N,/A6*%
X168402000Y-77343000D03*
%TO.P,U6,6,I1b*%
%TO.N,/A4*%
X168402000Y-74803000D03*
%TO.P,U6,7,Zb*%
%TO.N,/MA3*%
X168402000Y-72263000D03*
%TO.P,U6,8,GND*%
%TO.N,GND*%
X168402000Y-69723000D03*
%TO.P,U6,9,Zc*%
%TO.N,/MA4*%
X160782000Y-69723000D03*
%TO.P,U6,10,I1c*%
%TO.N,/A2*%
X160782000Y-72263000D03*
%TO.P,U6,11,I0c*%
%TO.N,/A3*%
X160782000Y-74803000D03*
%TO.P,U6,12,Zd*%
%TO.N,/MA5*%
X160782000Y-77343000D03*
%TO.P,U6,13,I1d*%
%TO.N,/A1*%
X160782000Y-79883000D03*
%TO.P,U6,14,I0d*%
%TO.N,/A0*%
X160782000Y-82423000D03*
%TO.P,U6,15,E*%
%TO.N,GND*%
X160782000Y-84963000D03*
%TO.P,U6,16,VCC*%
%TO.N,+5V*%
X160782000Y-87503000D03*
%TD*%
D21*
%TO.P,C3,1*%
%TO.N,Net-(C3-Pad1)*%
X173910000Y-115951000D03*
%TO.P,C3,2*%
%TO.N,GND*%
X168910000Y-115951000D03*
%TD*%
%TO.P,C15,1*%
%TO.N,+9V*%
X40894000Y-59793000D03*
%TO.P,C15,2*%
%TO.N,GND*%
X40894000Y-64793000D03*
%TD*%
D22*
%TO.P,C25,1*%
%TO.N,+5V*%
X148982500Y-54483000D03*
D23*
%TO.P,C25,2*%
%TO.N,GND*%
X148982500Y-72483000D03*
%TD*%
D19*
%TO.P,U10,1,D0*%
%TO.N,/D4*%
X104257000Y-77338000D03*
D20*
%TO.P,U10,2,D1*%
%TO.N,/D5*%
X104257000Y-74798000D03*
%TO.P,U10,3,~{WR}*%
%TO.N,/RW*%
X104257000Y-72258000D03*
%TO.P,U10,4,~{RAS}*%
%TO.N,/RAS1*%
X104257000Y-69718000D03*
%TO.P,U10,5,N.C.*%
%TO.N,unconnected-(U10-Pad5)*%
X104257000Y-67178000D03*
%TO.P,U10,6,A0*%
%TO.N,/MA0*%
X104257000Y-64638000D03*
%TO.P,U10,7,A1*%
%TO.N,/MA1*%
X104257000Y-62098000D03*
%TO.P,U10,8,A2*%
%TO.N,/MA2*%
X104257000Y-59558000D03*
%TO.P,U10,9,A3*%
%TO.N,/MA3*%
X104257000Y-57018000D03*
%TO.P,U10,10,VCC*%
%TO.N,+5V*%
X104257000Y-54478000D03*
%TO.P,U10,11,A4*%
%TO.N,/MA4*%
X96637000Y-54478000D03*
%TO.P,U10,12,A5*%
%TO.N,/MA5*%
X96637000Y-57018000D03*
%TO.P,U10,13,A6*%
%TO.N,/MA6*%
X96637000Y-59558000D03*
%TO.P,U10,14,A7*%
%TO.N,/MA7*%
X96637000Y-62098000D03*
%TO.P,U10,15,A8*%
%TO.N,/MA8*%
X96637000Y-64638000D03*
%TO.P,U10,16,~{OE}*%
%TO.N,GND*%
X96637000Y-67178000D03*
%TO.P,U10,17,~{CAS}*%
%TO.N,/CAS*%
X96637000Y-69718000D03*
%TO.P,U10,18,D2*%
%TO.N,/D6*%
X96637000Y-72258000D03*
%TO.P,U10,19,D3*%
%TO.N,/D7*%
X96637000Y-74798000D03*
%TO.P,U10,20,GND*%
%TO.N,GND*%
X96637000Y-77338000D03*
%TD*%
D21*
%TO.P,R4,1*%
%TO.N,Net-(C2-Pad2)*%
X142494000Y-121031000D03*
D20*
%TO.P,R4,2*%
%TO.N,GND*%
X152654000Y-121031000D03*
%TD*%
D19*
%TO.P,U2,1,I1/CLK*%
%TO.N,Net-(U1-Pad13)*%
X182118000Y-105283000D03*
D20*
%TO.P,U2,2,I2*%
%TO.N,/A19*%
X182118000Y-102743000D03*
%TO.P,U2,3,I3*%
%TO.N,/A18*%
X182118000Y-100203000D03*
%TO.P,U2,4,I4*%
%TO.N,/A17*%
X182118000Y-97663000D03*
%TO.P,U2,5,I5*%
%TO.N,/DS*%
X182118000Y-95123000D03*
%TO.P,U2,6,I6*%
%TO.N,Net-(U2-Pad6)*%
X182118000Y-92583000D03*
%TO.P,U2,7,I7*%
%TO.N,Net-(U2-Pad7)*%
X182118000Y-90043000D03*
%TO.P,U2,8,I8*%
%TO.N,Net-(U2-Pad8)*%
X182118000Y-87503000D03*
%TO.P,U2,9,I9*%
%TO.N,/GAL2_P9*%
X182118000Y-84963000D03*
%TO.P,U2,10,GND*%
%TO.N,GND*%
X182118000Y-82423000D03*
%TO.P,U2,11,I10/~{OE}*%
%TO.N,Net-(C2-Pad2)*%
X174498000Y-82423000D03*
%TO.P,U2,12,IO8*%
%TO.N,/CAS*%
X174498000Y-84963000D03*
%TO.P,U2,13,IO7*%
%TO.N,/MUX*%
X174498000Y-87503000D03*
%TO.P,U2,14,IO6*%
%TO.N,Net-(D3-Pad1)*%
X174498000Y-90043000D03*
%TO.P,U2,15,IO5*%
%TO.N,/GAL2_P15*%
X174498000Y-92583000D03*
%TO.P,U2,16,IO4*%
%TO.N,Net-(D2-Pad1)*%
X174498000Y-95123000D03*
%TO.P,U2,17,I03*%
%TO.N,/RAS2*%
X174498000Y-97663000D03*
%TO.P,U2,18,IO2*%
%TO.N,/RAS1*%
X174498000Y-100203000D03*
%TO.P,U2,19,IO1*%
%TO.N,/RAS0*%
X174498000Y-102743000D03*
%TO.P,U2,20,VCC*%
%TO.N,+5V*%
X174498000Y-105283000D03*
%TD*%
D19*
%TO.P,U7,1,D0*%
%TO.N,/D0*%
X143510000Y-77343000D03*
D20*
%TO.P,U7,2,D1*%
%TO.N,/D1*%
X143510000Y-74803000D03*
%TO.P,U7,3,~{WR}*%
%TO.N,/RW*%
X143510000Y-72263000D03*
%TO.P,U7,4,~{RAS}*%
%TO.N,/RAS2*%
X143510000Y-69723000D03*
%TO.P,U7,5,N.C.*%
%TO.N,unconnected-(U7-Pad5)*%
X143510000Y-67183000D03*
%TO.P,U7,6,A0*%
%TO.N,/MA0*%
X143510000Y-64643000D03*
%TO.P,U7,7,A1*%
%TO.N,/MA1*%
X143510000Y-62103000D03*
%TO.P,U7,8,A2*%
%TO.N,/MA2*%
X143510000Y-59563000D03*
%TO.P,U7,9,A3*%
%TO.N,/MA3*%
X143510000Y-57023000D03*
%TO.P,U7,10,VCC*%
%TO.N,+5V*%
X143510000Y-54483000D03*
%TO.P,U7,11,A4*%
%TO.N,/MA4*%
X135890000Y-54483000D03*
%TO.P,U7,12,A5*%
%TO.N,/MA5*%
X135890000Y-57023000D03*
%TO.P,U7,13,A6*%
%TO.N,/MA6*%
X135890000Y-59563000D03*
%TO.P,U7,14,A7*%
%TO.N,/MA7*%
X135890000Y-62103000D03*
%TO.P,U7,15,A8*%
%TO.N,/MA8*%
X135890000Y-64643000D03*
%TO.P,U7,16,~{OE}*%
%TO.N,GND*%
X135890000Y-67183000D03*
%TO.P,U7,17,~{CAS}*%
%TO.N,/CAS*%
X135890000Y-69723000D03*
%TO.P,U7,18,D2*%
%TO.N,/D2*%
X135890000Y-72263000D03*
%TO.P,U7,19,D3*%
%TO.N,/D3*%
X135890000Y-74803000D03*
%TO.P,U7,20,GND*%
%TO.N,GND*%
X135890000Y-77343000D03*
%TD*%
D19*
%TO.P,U14,1,VPP*%
%TO.N,+5V*%
X137287000Y-120523000D03*
D20*
%TO.P,U14,2,A12*%
%TO.N,/A12*%
X134747000Y-120523000D03*
%TO.P,U14,3,A7*%
%TO.N,/A7*%
X132207000Y-120523000D03*
%TO.P,U14,4,A6*%
%TO.N,/A6*%
X129667000Y-120523000D03*
%TO.P,U14,5,A5*%
%TO.N,/A5*%
X127127000Y-120523000D03*
%TO.P,U14,6,A4*%
%TO.N,/A4*%
X124587000Y-120523000D03*
%TO.P,U14,7,A3*%
%TO.N,/A3*%
X122047000Y-120523000D03*
%TO.P,U14,8,A2*%
%TO.N,/A2*%
X119507000Y-120523000D03*
%TO.P,U14,9,A1*%
%TO.N,/A1*%
X116967000Y-120523000D03*
%TO.P,U14,10,A0*%
%TO.N,/A0*%
X114427000Y-120523000D03*
%TO.P,U14,11,D0*%
%TO.N,/D0*%
X111887000Y-120523000D03*
%TO.P,U14,12,D1*%
%TO.N,/D1*%
X109347000Y-120523000D03*
%TO.P,U14,13,D2*%
%TO.N,/D2*%
X106807000Y-120523000D03*
%TO.P,U14,14,GND*%
%TO.N,GND*%
X104267000Y-120523000D03*
%TO.P,U14,15,D3*%
%TO.N,/D3*%
X104267000Y-135763000D03*
%TO.P,U14,16,D4*%
%TO.N,/D4*%
X106807000Y-135763000D03*
%TO.P,U14,17,D5*%
%TO.N,/D5*%
X109347000Y-135763000D03*
%TO.P,U14,18,D6*%
%TO.N,/D6*%
X111887000Y-135763000D03*
%TO.P,U14,19,D7*%
%TO.N,/D7*%
X114427000Y-135763000D03*
%TO.P,U14,20,~{CE}*%
%TO.N,/ROM_CE*%
X116967000Y-135763000D03*
%TO.P,U14,21,A10*%
%TO.N,/A10*%
X119507000Y-135763000D03*
%TO.P,U14,22,~{OE}*%
%TO.N,/ROM_OE*%
X122047000Y-135763000D03*
%TO.P,U14,23,A11*%
%TO.N,/A11*%
X124587000Y-135763000D03*
%TO.P,U14,24,A9*%
%TO.N,/A9*%
X127127000Y-135763000D03*
%TO.P,U14,25,A8*%
%TO.N,/A8*%
X129667000Y-135763000D03*
%TO.P,U14,26,A13*%
%TO.N,/A13*%
X132207000Y-135763000D03*
%TO.P,U14,27,A14*%
%TO.N,/A14*%
X134747000Y-135763000D03*
%TO.P,U14,28,VCC*%
%TO.N,+5V*%
X137287000Y-135763000D03*
%TD*%
D19*
%TO.P,D8,1,K*%
%TO.N,/ROM_CE*%
X165354000Y-136271000D03*
D20*
%TO.P,D8,2,A*%
%TO.N,/DTACKL*%
X175514000Y-136271000D03*
%TD*%
D24*
%TO.P,J1,a1,Vin*%
%TO.N,+9V*%
X196342000Y-54483000D03*
D25*
%TO.P,J1,a2,-12V*%
%TO.N,unconnected-(J1-Pada2)*%
X196342000Y-57023000D03*
%TO.P,J1,a3,+12V*%
%TO.N,unconnected-(J1-Pada3)*%
X196342000Y-59563000D03*
%TO.P,J1,a4,SP0*%
%TO.N,/SP0*%
X196342000Y-62103000D03*
%TO.P,J1,a5,SP1*%
%TO.N,/SP1*%
X196342000Y-64643000D03*
%TO.P,J1,a6,~{DSMC}*%
%TO.N,/DSMC*%
X196342000Y-67183000D03*
%TO.P,J1,a7,SP2*%
%TO.N,/SP2*%
X196342000Y-69723000D03*
%TO.P,J1,a8,~{DBG}*%
%TO.N,unconnected-(J1-Pada8)*%
X196342000Y-72263000D03*
%TO.P,J1,a9,A3*%
%TO.N,/A3*%
X196342000Y-74803000D03*
%TO.P,J1,a10,A4*%
%TO.N,/A4*%
X196342000Y-77343000D03*
%TO.P,J1,a11,A5*%
%TO.N,/A5*%
X196342000Y-79883000D03*
%TO.P,J1,a12,A6*%
%TO.N,/A6*%
X196342000Y-82423000D03*
%TO.P,J1,a13,A7*%
%TO.N,/A7*%
X196342000Y-84963000D03*
%TO.P,J1,a14,A8*%
%TO.N,/A8*%
X196342000Y-87503000D03*
%TO.P,J1,a15,A9*%
%TO.N,/A9*%
X196342000Y-90043000D03*
%TO.P,J1,a16,A10*%
%TO.N,/A10*%
X196342000Y-92583000D03*
%TO.P,J1,a17,A11*%
%TO.N,/A11*%
X196342000Y-95123000D03*
%TO.P,J1,a18,A12*%
%TO.N,/A12*%
X196342000Y-97663000D03*
%TO.P,J1,a19,A13*%
%TO.N,/A13*%
X196342000Y-100203000D03*
%TO.P,J1,a20,A14*%
%TO.N,/A14*%
X196342000Y-102743000D03*
%TO.P,J1,a21,RED*%
%TO.N,unconnected-(J1-Pada21)*%
X196342000Y-105283000D03*
%TO.P,J1,a22,CLKCPU*%
%TO.N,unconnected-(J1-Pada22)*%
X196342000Y-107823000D03*
%TO.P,J1,a23,A16*%
%TO.N,/A16*%
X196342000Y-110363000D03*
%TO.P,J1,a24,A17*%
%TO.N,/A17*%
X196342000Y-112903000D03*
%TO.P,J1,a25,A18*%
%TO.N,/A18*%
X196342000Y-115443000D03*
%TO.P,J1,a26,A19*%
%TO.N,/A19*%
X196342000Y-117983000D03*
%TO.P,J1,a27,D7*%
%TO.N,/D7*%
X196342000Y-120523000D03*
%TO.P,J1,a28,D6*%
%TO.N,/D6*%
X196342000Y-123063000D03*
%TO.P,J1,a29,D5*%
%TO.N,/D5*%
X196342000Y-125603000D03*
%TO.P,J1,a30,D4*%
%TO.N,/D4*%
X196342000Y-128143000D03*
%TO.P,J1,a31,D3*%
%TO.N,/D3*%
X196342000Y-130683000D03*
%TO.P,J1,a32,GND*%
%TO.N,GND*%
X196342000Y-133223000D03*
%TO.P,J1,b1,Vin*%
%TO.N,+9V*%
X193802000Y-54483000D03*
%TO.P,J1,b2,Vin*%
X193802000Y-57023000D03*
%TO.P,J1,b3,~{EXTINT}*%
%TO.N,/EXTINTL*%
X193802000Y-59563000D03*
%TO.P,J1,b4,~{IPL1}*%
%TO.N,unconnected-(J1-Padb4)*%
X193802000Y-62103000D03*
%TO.P,J1,b5,~{BERR}*%
%TO.N,unconnected-(J1-Padb5)*%
X193802000Y-64643000D03*
%TO.P,J1,b6,~{IPLO}*%
%TO.N,unconnected-(J1-Padb6)*%
X193802000Y-67183000D03*
%TO.P,J1,b7,SP3*%
%TO.N,/SP3*%
X193802000Y-69723000D03*
%TO.P,J1,b8,A2*%
%TO.N,/A2*%
X193802000Y-72263000D03*
%TO.P,J1,b9,G9*%
%TO.N,/A1*%
X193802000Y-74803000D03*
%TO.P,J1,b10,ROMOEH*%
%TO.N,unconnected-(J1-Padb10)*%
X193802000Y-77343000D03*
%TO.P,J1,b11,A0*%
%TO.N,/A0*%
X193802000Y-79883000D03*
%TO.P,J1,b12,FC0*%
%TO.N,unconnected-(J1-Padb12)*%
X193802000Y-82423000D03*
%TO.P,J1,b13,FC1*%
%TO.N,unconnected-(J1-Padb13)*%
X193802000Y-84963000D03*
%TO.P,J1,b14,FC2*%
%TO.N,unconnected-(J1-Padb14)*%
X193802000Y-87503000D03*
%TO.P,J1,b15,BLUE*%
%TO.N,unconnected-(J1-Padb15)*%
X193802000Y-90043000D03*
%TO.P,J1,b16,GREEN*%
%TO.N,unconnected-(J1-Padb16)*%
X193802000Y-92583000D03*
%TO.P,J1,b17,~{VPA}*%
%TO.N,/VPA*%
X193802000Y-95123000D03*
%TO.P,J1,b18,VSYNCH*%
%TO.N,unconnected-(J1-Padb18)*%
X193802000Y-97663000D03*
%TO.P,J1,b19,E*%
%TO.N,/E*%
X193802000Y-100203000D03*
%TO.P,J1,b20,~{CSYNC}*%
%TO.N,unconnected-(J1-Padb20)*%
X193802000Y-102743000D03*
%TO.P,J1,b21,~{RESETCPU}*%
%TO.N,/RESET*%
X193802000Y-105283000D03*
%TO.P,J1,b22,A15*%
%TO.N,/A15*%
X193802000Y-107823000D03*
%TO.P,J1,b23,~{BR}*%
%TO.N,unconnected-(J1-Padb23)*%
X193802000Y-110363000D03*
%TO.P,J1,b24,~{BG}*%
%TO.N,unconnected-(J1-Padb24)*%
X193802000Y-112903000D03*
%TO.P,J1,b25,~{DTACK}*%
%TO.N,/DTACKL*%
X193802000Y-115443000D03*
%TO.P,J1,b26,~{DRW}*%
%TO.N,/RW*%
X193802000Y-117983000D03*
%TO.P,J1,b27,~{DS}*%
%TO.N,/DS*%
X193802000Y-120523000D03*
%TO.P,J1,b28,~{AS}*%
%TO.N,unconnected-(J1-Padb28)*%
X193802000Y-123063000D03*
%TO.P,J1,b29,D0*%
%TO.N,/D0*%
X193802000Y-125603000D03*
%TO.P,J1,b30,D1*%
%TO.N,/D1*%
X193802000Y-128143000D03*
%TO.P,J1,b31,D2*%
%TO.N,/D2*%
X193802000Y-130683000D03*
%TO.P,J1,b32,GND*%
%TO.N,GND*%
X193802000Y-133223000D03*
%TD*%
D26*
%TO.P,Y1,1,1*%
%TO.N,/CLK*%
X142494000Y-131191000D03*
%TO.P,Y1,2,2*%
%TO.N,Net-(R6-Pad1)*%
X147394000Y-131191000D03*
%TD*%
D19*
%TO.P,D10,1,K*%
%TO.N,/CLKCT*%
X152654000Y-133731000D03*
D20*
%TO.P,D10,2,A*%
%TO.N,Net-(C5-Pad1)*%
X162814000Y-133731000D03*
%TD*%
D27*
%TO.P,J2,1,Pin_1*%
%TO.N,GND*%
X52070000Y-114427000D03*
D28*
%TO.P,J2,2,Pin_2*%
%TO.N,unconnected-(J2-Pad2)*%
X49530000Y-114427000D03*
%TO.P,J2,3,Pin_3*%
%TO.N,GND*%
X52070000Y-111887000D03*
%TO.P,J2,4,Pin_4*%
%TO.N,unconnected-(J2-Pad4)*%
X49530000Y-111887000D03*
%TO.P,J2,5,Pin_5*%
%TO.N,GND*%
X52070000Y-109347000D03*
%TO.P,J2,6,Pin_6*%
%TO.N,/DS3*%
X49530000Y-109347000D03*
%TO.P,J2,7,Pin_7*%
%TO.N,GND*%
X52070000Y-106807000D03*
%TO.P,J2,8,Pin_8*%
%TO.N,/FDC_IP*%
X49530000Y-106807000D03*
%TO.P,J2,9,Pin_9*%
%TO.N,GND*%
X52070000Y-104267000D03*
%TO.P,J2,10,Pin_10*%
%TO.N,/DS0*%
X49530000Y-104267000D03*
%TO.P,J2,11,Pin_11*%
%TO.N,GND*%
X52070000Y-101727000D03*
%TO.P,J2,12,Pin_12*%
%TO.N,/DS1*%
X49530000Y-101727000D03*
%TO.P,J2,13,Pin_13*%
%TO.N,GND*%
X52070000Y-99187000D03*
%TO.P,J2,14,Pin_14*%
%TO.N,/DS2*%
X49530000Y-99187000D03*
%TO.P,J2,15,Pin_15*%
%TO.N,GND*%
X52070000Y-96647000D03*
%TO.P,J2,16,Pin_16*%
%TO.N,/MOTOR_ON*%
X49530000Y-96647000D03*
%TO.P,J2,17,Pin_17*%
%TO.N,GND*%
X52070000Y-94107000D03*
%TO.P,J2,18,Pin_18*%
%TO.N,/DIR*%
X49530000Y-94107000D03*
%TO.P,J2,19,Pin_19*%
%TO.N,GND*%
X52070000Y-91567000D03*
%TO.P,J2,20,Pin_20*%
%TO.N,/STEP*%
X49530000Y-91567000D03*
%TO.P,J2,21,Pin_21*%
%TO.N,GND*%
X52070000Y-89027000D03*
%TO.P,J2,22,Pin_22*%
%TO.N,/DATA_WR*%
X49530000Y-89027000D03*
%TO.P,J2,23,Pin_23*%
%TO.N,GND*%
X52070000Y-86487000D03*
%TO.P,J2,24,Pin_24*%
%TO.N,/GATE_WR*%
X49530000Y-86487000D03*
%TO.P,J2,25,Pin_25*%
%TO.N,GND*%
X52070000Y-83947000D03*
%TO.P,J2,26,Pin_26*%
%TO.N,/FDC_T0*%
X49530000Y-83947000D03*
%TO.P,J2,27,Pin_27*%
%TO.N,GND*%
X52070000Y-81407000D03*
%TO.P,J2,28,Pin_28*%
%TO.N,/FDC_WPRT*%
X49530000Y-81407000D03*
%TO.P,J2,29,Pin_29*%
%TO.N,GND*%
X52070000Y-78867000D03*
%TO.P,J2,30,Pin_30*%
%TO.N,/FDC_RD*%
X49530000Y-78867000D03*
%TO.P,J2,31,Pin_31*%
%TO.N,GND*%
X52070000Y-76327000D03*
%TO.P,J2,32,Pin_32*%
%TO.N,/HEAD*%
X49530000Y-76327000D03*
%TO.P,J2,33,Pin_33*%
%TO.N,GND*%
X52070000Y-73787000D03*
%TO.P,J2,34,Pin_34*%
%TO.N,unconnected-(J2-Pad34)*%
X49530000Y-73787000D03*
%TD*%
D21*
%TO.P,J3,1,Pin_1*%
%TO.N,GND*%
X168402000Y-53467000D03*
%TD*%
%TO.P,R3,1*%
%TO.N,+5V*%
X162814000Y-136271000D03*
D20*
%TO.P,R3,2*%
%TO.N,Net-(C5-Pad1)*%
X152654000Y-136271000D03*
%TD*%
D21*
%TO.P,C13,1*%
%TO.N,+5V*%
X55118000Y-59643000D03*
%TO.P,C13,2*%
%TO.N,GND*%
X55118000Y-64643000D03*
%TD*%
%TO.P,C20,1*%
%TO.N,+5V*%
X101647000Y-82931000D03*
%TO.P,C20,2*%
%TO.N,GND*%
X96647000Y-82931000D03*
%TD*%
D19*
%TO.P,U13,1,~{CS}*%
%TO.N,/FDCON_CS*%
X89027000Y-120523000D03*
D20*
%TO.P,U13,2,R/~{W}*%
%TO.N,/RW*%
X86487000Y-120523000D03*
%TO.P,U13,3,A0*%
%TO.N,/A0*%
X83947000Y-120523000D03*
%TO.P,U13,4,A1*%
%TO.N,/A1*%
X81407000Y-120523000D03*
%TO.P,U13,5,DI0*%
%TO.N,/D0*%
X78867000Y-120523000D03*
%TO.P,U13,6,DI1*%
%TO.N,/D1*%
X76327000Y-120523000D03*
%TO.P,U13,7,DI2*%
%TO.N,/D2*%
X73787000Y-120523000D03*
%TO.P,U13,8,DI3*%
%TO.N,/D3*%
X71247000Y-120523000D03*
%TO.P,U13,9,DI4*%
%TO.N,/D4*%
X68707000Y-120523000D03*
%TO.P,U13,10,DI5*%
%TO.N,/D5*%
X66167000Y-120523000D03*
%TO.P,U13,11,DI6*%
%TO.N,/D6*%
X63627000Y-120523000D03*
%TO.P,U13,12,DI7*%
%TO.N,/D7*%
X61087000Y-120523000D03*
%TO.P,U13,13,~{MR}*%
%TO.N,/RESET*%
X58547000Y-120523000D03*
%TO.P,U13,14,GND*%
%TO.N,GND*%
X56007000Y-120523000D03*
%TO.P,U13,15,VCC*%
%TO.N,+5V*%
X56007000Y-135763000D03*
%TO.P,U13,16,STEP*%
%TO.N,/FDC_STEP*%
X58547000Y-135763000D03*
%TO.P,U13,17,DIRC*%
%TO.N,/FDC_DIR*%
X61087000Y-135763000D03*
%TO.P,U13,18,CLK*%
%TO.N,/CLK*%
X63627000Y-135763000D03*
%TO.P,U13,19,~{RD}*%
%TO.N,/FDC_RD*%
X66167000Y-135763000D03*
%TO.P,U13,20,MOTOR*%
%TO.N,unconnected-(U13-Pad20)*%
X68707000Y-135763000D03*
%TO.P,U13,21,WG*%
%TO.N,/FDC_WG*%
X71247000Y-135763000D03*
%TO.P,U13,22,WD*%
%TO.N,/FDC_WD*%
X73787000Y-135763000D03*
%TO.P,U13,23,~{TR00}*%
%TO.N,/FDC_T0*%
X76327000Y-135763000D03*
%TO.P,U13,24,~{IP}*%
%TO.N,/FDC_IP*%
X78867000Y-135763000D03*
%TO.P,U13,25,~{WPRT}*%
%TO.N,/FDC_WPRT*%
X81407000Y-135763000D03*
%TO.P,U13,26,~{DDEN}*%
%TO.N,GND*%
X83947000Y-135763000D03*
%TO.P,U13,27,DRQ*%
%TO.N,unconnected-(U13-Pad27)*%
X86487000Y-135763000D03*
%TO.P,U13,28,INTRQ*%
%TO.N,unconnected-(U13-Pad28)*%
X89027000Y-135763000D03*
%TD*%
D21*
%TO.P,C17,1*%
%TO.N,+5V*%
X140890000Y-82931000D03*
%TO.P,C17,2*%
%TO.N,GND*%
X135890000Y-82931000D03*
%TD*%
%TO.P,C12,1*%
%TO.N,+5V*%
X99227000Y-113411000D03*
%TO.P,C12,2*%
%TO.N,GND*%
X104227000Y-113411000D03*
%TD*%
%TO.P,J5,1,Pin_1*%
%TO.N,+5V*%
X161798000Y-53467000D03*
%TD*%
D19*
%TO.P,D2,1,K*%
%TO.N,Net-(D2-Pad1)*%
X178054000Y-69723000D03*
D20*
%TO.P,D2,2,A*%
%TO.N,/DTACKL*%
X188214000Y-69723000D03*
%TD*%
D21*
%TO.P,R6,1*%
%TO.N,Net-(R6-Pad1)*%
X142494000Y-126111000D03*
D20*
%TO.P,R6,2*%
%TO.N,Net-(R5-Pad1)*%
X152654000Y-126111000D03*
%TD*%
D22*
%TO.P,C16,1*%
%TO.N,+5V*%
X64885500Y-51723000D03*
D23*
%TO.P,C16,2*%
%TO.N,GND*%
X64885500Y-69723000D03*
%TD*%
D21*
%TO.P,J4,1,Pin_1*%
%TO.N,GND*%
X171958000Y-53467000D03*
%TD*%
D19*
%TO.P,U1,1,I1/CLK*%
%TO.N,/DS*%
X185674000Y-133731000D03*
D20*
%TO.P,U1,2,I2*%
%TO.N,/A19*%
X185674000Y-131191000D03*
%TO.P,U1,3,I3*%
%TO.N,/A18*%
X185674000Y-128651000D03*
%TO.P,U1,4,I4*%
%TO.N,/A17*%
X185674000Y-126111000D03*
%TO.P,U1,5,I5*%
%TO.N,/A16*%
X185674000Y-123571000D03*
%TO.P,U1,6,I6*%
%TO.N,/A15*%
X185674000Y-121031000D03*
%TO.P,U1,7,I7*%
%TO.N,/RESET*%
X185674000Y-118491000D03*
%TO.P,U1,8,I8*%
%TO.N,/A14*%
X185674000Y-115951000D03*
%TO.P,U1,9,I9*%
%TO.N,/A13*%
X185674000Y-113411000D03*
%TO.P,U1,10,GND*%
%TO.N,GND*%
X185674000Y-110871000D03*
%TO.P,U1,11,I10/~{OE}*%
%TO.N,/MUX*%
X178054000Y-110871000D03*
%TO.P,U1,12,IO8*%
%TO.N,Net-(D1-Pad2)*%
X178054000Y-113411000D03*
%TO.P,U1,13,IO7*%
%TO.N,Net-(U1-Pad13)*%
X178054000Y-115951000D03*
%TO.P,U1,14,IO6*%
%TO.N,/CLKCT*%
X178054000Y-118491000D03*
%TO.P,U1,15,IO5*%
%TO.N,/MA8*%
X178054000Y-121031000D03*
%TO.P,U1,16,IO4*%
%TO.N,unconnected-(U1-Pad16)*%
X178054000Y-123571000D03*
%TO.P,U1,17,I03*%
%TO.N,/FDCON_CS*%
X178054000Y-126111000D03*
%TO.P,U1,18,IO2*%
%TO.N,/CS175*%
X178054000Y-128651000D03*
%TO.P,U1,19,IO1*%
%TO.N,/ROM_CE*%
X178054000Y-131191000D03*
%TO.P,U1,20,VCC*%
%TO.N,+5V*%
X178054000Y-133731000D03*
%TD*%
D19*
%TO.P,U8,1,D0*%
%TO.N,/D4*%
X132842000Y-77338000D03*
D20*
%TO.P,U8,2,D1*%
%TO.N,/D5*%
X132842000Y-74798000D03*
%TO.P,U8,3,~{WR}*%
%TO.N,/RW*%
X132842000Y-72258000D03*
%TO.P,U8,4,~{RAS}*%
%TO.N,/RAS2*%
X132842000Y-69718000D03*
%TO.P,U8,5,N.C.*%
%TO.N,unconnected-(U8-Pad5)*%
X132842000Y-67178000D03*
%TO.P,U8,6,A0*%
%TO.N,/MA0*%
X132842000Y-64638000D03*
%TO.P,U8,7,A1*%
%TO.N,/MA1*%
X132842000Y-62098000D03*
%TO.P,U8,8,A2*%
%TO.N,/MA2*%
X132842000Y-59558000D03*
%TO.P,U8,9,A3*%
%TO.N,/MA3*%
X132842000Y-57018000D03*
%TO.P,U8,10,VCC*%
%TO.N,+5V*%
X132842000Y-54478000D03*
%TO.P,U8,11,A4*%
%TO.N,/MA4*%
X125222000Y-54478000D03*
%TO.P,U8,12,A5*%
%TO.N,/MA5*%
X125222000Y-57018000D03*
%TO.P,U8,13,A6*%
%TO.N,/MA6*%
X125222000Y-59558000D03*
%TO.P,U8,14,A7*%
%TO.N,/MA7*%
X125222000Y-62098000D03*
%TO.P,U8,15,A8*%
%TO.N,/MA8*%
X125222000Y-64638000D03*
%TO.P,U8,16,~{OE}*%
%TO.N,GND*%
X125222000Y-67178000D03*
%TO.P,U8,17,~{CAS}*%
%TO.N,/CAS*%
X125222000Y-69718000D03*
%TO.P,U8,18,D2*%
%TO.N,/D6*%
X125222000Y-72258000D03*
%TO.P,U8,19,D3*%
%TO.N,/D7*%
X125222000Y-74798000D03*
%TO.P,U8,20,GND*%
%TO.N,GND*%
X125222000Y-77338000D03*
%TD*%
D19*
%TO.P,D1,1,K*%
%TO.N,/DSMC*%
X161798000Y-62103000D03*
D20*
%TO.P,D1,2,A*%
%TO.N,Net-(D1-Pad2)*%
X171958000Y-62103000D03*
%TD*%
D21*
%TO.P,C21,1*%
%TO.N,GND*%
X80010000Y-82931000D03*
%TO.P,C21,2*%
%TO.N,+5V*%
X85010000Y-82931000D03*
%TD*%
D19*
%TO.P,D7,1,K*%
%TO.N,/CS175*%
X165354000Y-133731000D03*
D20*
%TO.P,D7,2,A*%
%TO.N,/DTACKL*%
X175514000Y-133731000D03*
%TD*%
D22*
%TO.P,C23,1*%
%TO.N,+5V*%
X92086500Y-54483000D03*
D23*
%TO.P,C23,2*%
%TO.N,GND*%
X92086500Y-72483000D03*
%TD*%
D19*
%TO.P,U16,1,~{Mr}*%
%TO.N,/RESET*%
X76962000Y-110363000D03*
D20*
%TO.P,U16,2,Q0*%
%TO.N,unconnected-(U16-Pad2)*%
X76962000Y-107823000D03*
%TO.P,U16,3,~{Q0}*%
%TO.N,/DS3*%
X76962000Y-105283000D03*
%TO.P,U16,4,D0*%
%TO.N,/D4*%
X76962000Y-102743000D03*
%TO.P,U16,5,D1*%
%TO.N,/D5*%
X76962000Y-100203000D03*
%TO.P,U16,6,~{Q1}*%
%TO.N,/DS2*%
X76962000Y-97663000D03*
%TO.P,U16,7,Q1*%
%TO.N,unconnected-(U16-Pad7)*%
X76962000Y-95123000D03*
%TO.P,U16,8,GND*%
%TO.N,GND*%
X76962000Y-92583000D03*
%TO.P,U16,9,Cp*%
%TO.N,/CS175*%
X69342000Y-92583000D03*
%TO.P,U16,10,Q2*%
%TO.N,unconnected-(U16-Pad10)*%
X69342000Y-95123000D03*
%TO.P,U16,11,~{Q2}*%
%TO.N,unconnected-(U16-Pad11)*%
X69342000Y-97663000D03*
%TO.P,U16,12,D2*%
%TO.N,/D7*%
X69342000Y-100203000D03*
%TO.P,U16,13,D3*%
%TO.N,/D6*%
X69342000Y-102743000D03*
%TO.P,U16,14,~{Q3}*%
%TO.N,unconnected-(U16-Pad14)*%
X69342000Y-105283000D03*
%TO.P,U16,15,Q3*%
%TO.N,unconnected-(U16-Pad15)*%
X69342000Y-107823000D03*
%TO.P,U16,16,VCC*%
%TO.N,+5V*%
X69342000Y-110363000D03*
%TD*%
D19*
%TO.P,D5,1,K*%
%TO.N,/GAL2_P15*%
X165354000Y-121031000D03*
D20*
%TO.P,D5,2,A*%
%TO.N,Net-(C3-Pad1)*%
X175514000Y-121031000D03*
%TD*%
D19*
%TO.P,U5,1,S*%
%TO.N,/MUX*%
X168402000Y-107823000D03*
D20*
%TO.P,U5,2,I0a*%
%TO.N,/A15*%
X168402000Y-105283000D03*
%TO.P,U5,3,I1a*%
%TO.N,/A13*%
X168402000Y-102743000D03*
%TO.P,U5,4,Za*%
%TO.N,/MA0*%
X168402000Y-100203000D03*
%TO.P,U5,5,I0b*%
%TO.N,/A11*%
X168402000Y-97663000D03*
%TO.P,U5,6,I1b*%
%TO.N,/A9*%
X168402000Y-95123000D03*
%TO.P,U5,7,Zb*%
%TO.N,/MA1*%
X168402000Y-92583000D03*
%TO.P,U5,8,GND*%
%TO.N,GND*%
X168402000Y-90043000D03*
%TO.P,U5,9,Zc*%
%TO.N,/MA6*%
X160782000Y-90043000D03*
%TO.P,U5,10,I1c*%
%TO.N,/A8*%
X160782000Y-92583000D03*
%TO.P,U5,11,I0c*%
%TO.N,/A10*%
X160782000Y-95123000D03*
%TO.P,U5,12,Zd*%
%TO.N,/MA7*%
X160782000Y-97663000D03*
%TO.P,U5,13,I1d*%
%TO.N,/A12*%
X160782000Y-100203000D03*
%TO.P,U5,14,I0d*%
%TO.N,/A14*%
X160782000Y-102743000D03*
%TO.P,U5,15,E*%
%TO.N,GND*%
X160782000Y-105283000D03*
%TO.P,U5,16,VCC*%
%TO.N,+5V*%
X160782000Y-107823000D03*
%TD*%
D19*
%TO.P,U17,1,~{Mr}*%
%TO.N,/RESET*%
X51562000Y-139573000D03*
D20*
%TO.P,U17,2,Q0*%
%TO.N,unconnected-(U17-Pad2)*%
X51562000Y-137033000D03*
%TO.P,U17,3,~{Q0}*%
%TO.N,/HEAD*%
X51562000Y-134493000D03*
%TO.P,U17,4,D0*%
%TO.N,/D3*%
X51562000Y-131953000D03*
%TO.P,U17,5,D1*%
%TO.N,/D0*%
X51562000Y-129413000D03*
%TO.P,U17,6,~{Q1}*%
%TO.N,/DS1*%
X51562000Y-126873000D03*
%TO.P,U17,7,Q1*%
%TO.N,unconnected-(U17-Pad7)*%
X51562000Y-124333000D03*
%TO.P,U17,8,GND*%
%TO.N,GND*%
X51562000Y-121793000D03*
%TO.P,U17,9,Cp*%
%TO.N,/CS175*%
X43942000Y-121793000D03*
%TO.P,U17,10,Q2*%
%TO.N,unconnected-(U17-Pad10)*%
X43942000Y-124333000D03*
%TO.P,U17,11,~{Q2}*%
%TO.N,/MOTOR_ON*%
X43942000Y-126873000D03*
%TO.P,U17,12,D2*%
%TO.N,/D2*%
X43942000Y-129413000D03*
%TO.P,U17,13,D3*%
%TO.N,/D1*%
X43942000Y-131953000D03*
%TO.P,U17,14,~{Q3}*%
%TO.N,/DS0*%
X43942000Y-134493000D03*
%TO.P,U17,15,Q3*%
%TO.N,unconnected-(U17-Pad15)*%
X43942000Y-137033000D03*
%TO.P,U17,16,VCC*%
%TO.N,+5V*%
X43942000Y-139573000D03*
%TD*%
D21*
%TO.P,R1,1*%
%TO.N,+5V*%
X165354000Y-118491000D03*
D20*
%TO.P,R1,2*%
%TO.N,Net-(C3-Pad1)*%
X175514000Y-118491000D03*
%TD*%
D21*
%TO.P,C2,1*%
%TO.N,GND*%
X168990000Y-110871000D03*
%TO.P,C2,2*%
%TO.N,Net-(C2-Pad2)*%
X173990000Y-110871000D03*
%TD*%
%TO.P,R7,1*%
%TO.N,+5V*%
X59817000Y-100711000D03*
D20*
%TO.P,R7,2*%
%TO.N,/FDC_IP*%
X59817000Y-110871000D03*
%TD*%
D19*
%TO.P,D4,1,K*%
%TO.N,Net-(C2-Pad2)*%
X165354000Y-113411000D03*
D20*
%TO.P,D4,2,A*%
%TO.N,/GAL2_P9*%
X175514000Y-113411000D03*
%TD*%
D22*
%TO.P,C24,1*%
%TO.N,+5V*%
X120257500Y-54627000D03*
D23*
%TO.P,C24,2*%
%TO.N,GND*%
X120257500Y-72627000D03*
%TD*%
D21*
%TO.P,C18,1*%
%TO.N,+5V*%
X130222000Y-82931000D03*
%TO.P,C18,2*%
%TO.N,GND*%
X125222000Y-82931000D03*
%TD*%
D19*
%TO.P,D3,1,K*%
%TO.N,Net-(D3-Pad1)*%
X178054000Y-72263000D03*
D20*
%TO.P,D3,2,A*%
%TO.N,/DTACKL*%
X188214000Y-72263000D03*
%TD*%
D21*
%TO.P,C19,1*%
%TO.N,GND*%
X107442000Y-82931000D03*
%TO.P,C19,2*%
%TO.N,+5V*%
X112442000Y-82931000D03*
%TD*%
D19*
%TO.P,U15,1*%
%TO.N,+5V*%
X100457000Y-135763000D03*
D20*
%TO.P,U15,2*%
%TO.N,unconnected-(U15-Pad2)*%
X100457000Y-133223000D03*
%TO.P,U15,3*%
%TO.N,/FDC_WG*%
X100457000Y-130683000D03*
%TO.P,U15,4*%
%TO.N,/GATE_WR*%
X100457000Y-128143000D03*
%TO.P,U15,5*%
%TO.N,/FDC_DIR*%
X100457000Y-125603000D03*
%TO.P,U15,6*%
%TO.N,/DIR*%
X100457000Y-123063000D03*
%TO.P,U15,7,GND*%
%TO.N,GND*%
X100457000Y-120523000D03*
%TO.P,U15,8*%
%TO.N,/STEP*%
X92837000Y-120523000D03*
%TO.P,U15,9*%
%TO.N,/FDC_STEP*%
X92837000Y-123063000D03*
%TO.P,U15,10*%
%TO.N,unconnected-(U15-Pad10)*%
X92837000Y-125603000D03*
%TO.P,U15,11*%
%TO.N,+5V*%
X92837000Y-128143000D03*
%TO.P,U15,12*%
%TO.N,/DATA_WR*%
X92837000Y-130683000D03*
%TO.P,U15,13*%
%TO.N,/FDC_WD*%
X92837000Y-133223000D03*
%TO.P,U15,14,VCC*%
%TO.N,+5V*%
X92837000Y-135763000D03*
%TD*%
D19*
%TO.P,U12,1,D0*%
%TO.N,/D4*%
X76962000Y-77343000D03*
D20*
%TO.P,U12,2,D1*%
%TO.N,/D5*%
X76962000Y-74803000D03*
%TO.P,U12,3,~{WR}*%
%TO.N,/RW*%
X76962000Y-72263000D03*
%TO.P,U12,4,~{RAS}*%
%TO.N,/RAS0*%
X76962000Y-69723000D03*
%TO.P,U12,5,N.C.*%
%TO.N,unconnected-(U12-Pad5)*%
X76962000Y-67183000D03*
%TO.P,U12,6,A0*%
%TO.N,/MA0*%
X76962000Y-64643000D03*
%TO.P,U12,7,A1*%
%TO.N,/MA1*%
X76962000Y-62103000D03*
%TO.P,U12,8,A2*%
%TO.N,/MA2*%
X76962000Y-59563000D03*
%TO.P,U12,9,A3*%
%TO.N,/MA3*%
X76962000Y-57023000D03*
%TO.P,U12,10,VCC*%
%TO.N,+5V*%
X76962000Y-54483000D03*
%TO.P,U12,11,A4*%
%TO.N,/MA4*%
X69342000Y-54483000D03*
%TO.P,U12,12,A5*%
%TO.N,/MA5*%
X69342000Y-57023000D03*
%TO.P,U12,13,A6*%
%TO.N,/MA6*%
X69342000Y-59563000D03*
%TO.P,U12,14,A7*%
%TO.N,/MA7*%
X69342000Y-62103000D03*
%TO.P,U12,15,A8*%
%TO.N,/MA8*%
X69342000Y-64643000D03*
%TO.P,U12,16,~{OE}*%
%TO.N,GND*%
X69342000Y-67183000D03*
%TO.P,U12,17,~{CAS}*%
%TO.N,/CAS*%
X69342000Y-69723000D03*
%TO.P,U12,18,D2*%
%TO.N,/D6*%
X69342000Y-72263000D03*
%TO.P,U12,19,D3*%
%TO.N,/D7*%
X69342000Y-74803000D03*
%TO.P,U12,20,GND*%
%TO.N,GND*%
X69342000Y-77343000D03*
%TD*%
D21*
%TO.P,R5,1*%
%TO.N,Net-(R5-Pad1)*%
X142494000Y-123571000D03*
D20*
%TO.P,R5,2*%
%TO.N,/CLK*%
X152654000Y-123571000D03*
%TD*%
D21*
%TO.P,C22,1*%
%TO.N,+5V*%
X74342000Y-82931000D03*
%TO.P,C22,2*%
%TO.N,GND*%
X69342000Y-82931000D03*
%TD*%
%TO.P,R2,1*%
%TO.N,Net-(C4-Pad2)*%
X165354000Y-126111000D03*
D20*
%TO.P,R2,2*%
%TO.N,GND*%
X175514000Y-126111000D03*
%TD*%
D19*
%TO.P,D6,1,K*%
%TO.N,/FDCON_CS*%
X165354000Y-131191000D03*
D20*
%TO.P,D6,2,A*%
%TO.N,/DTACKL*%
X175514000Y-131191000D03*
%TD*%
D21*
%TO.P,R9,1*%
%TO.N,+5V*%
X59817000Y-77851000D03*
D20*
%TO.P,R9,2*%
%TO.N,/FDC_WPRT*%
X59817000Y-88011000D03*
%TD*%
D19*
%TO.P,U4,1,Q11*%
%TO.N,unconnected-(U4-Pad1)*%
X185674000Y-67183000D03*
D20*
%TO.P,U4,2,Q5*%
%TO.N,unconnected-(U4-Pad2)*%
X185674000Y-64643000D03*
%TO.P,U4,3,Q4*%
%TO.N,unconnected-(U4-Pad3)*%
X185674000Y-62103000D03*
%TO.P,U4,4,Q6*%
%TO.N,unconnected-(U4-Pad4)*%
X185674000Y-59563000D03*
%TO.P,U4,5,Q3*%
%TO.N,unconnected-(U4-Pad5)*%
X185674000Y-57023000D03*
%TO.P,U4,6,Q2*%
%TO.N,Net-(U2-Pad6)*%
X185674000Y-54483000D03*
%TO.P,U4,7,Q1*%
%TO.N,Net-(U2-Pad7)*%
X185674000Y-51943000D03*
%TO.P,U4,8,VSS*%
%TO.N,GND*%
X185674000Y-49403000D03*
%TO.P,U4,9,Q0*%
%TO.N,Net-(U2-Pad8)*%
X178054000Y-49403000D03*
%TO.P,U4,10,CLK*%
%TO.N,/CLKCT*%
X178054000Y-51943000D03*
%TO.P,U4,11,Reset*%
%TO.N,GND*%
X178054000Y-54483000D03*
%TO.P,U4,12,Q8*%
%TO.N,unconnected-(U4-Pad12)*%
X178054000Y-57023000D03*
%TO.P,U4,13,Q7*%
%TO.N,unconnected-(U4-Pad13)*%
X178054000Y-59563000D03*
%TO.P,U4,14,Q9*%
%TO.N,unconnected-(U4-Pad14)*%
X178054000Y-62103000D03*
%TO.P,U4,15,Q10*%
%TO.N,unconnected-(U4-Pad15)*%
X178054000Y-64643000D03*
%TO.P,U4,16,VDD*%
%TO.N,+5V*%
X178054000Y-67183000D03*
%TD*%
D19*
%TO.P,U3,1*%
%TO.N,Net-(C5-Pad1)*%
X162814000Y-126111000D03*
D20*
%TO.P,U3,2*%
%TO.N,/MUX*%
X162814000Y-123571000D03*
%TO.P,U3,3*%
%TO.N,Net-(C4-Pad2)*%
X162814000Y-121031000D03*
%TO.P,U3,4*%
%TO.N,/GAL2_P15*%
X162814000Y-118491000D03*
%TO.P,U3,5*%
%TO.N,Net-(C3-Pad1)*%
X162814000Y-115951000D03*
%TO.P,U3,6*%
%TO.N,/GAL2_P9*%
X162814000Y-113411000D03*
%TO.P,U3,7,GND*%
%TO.N,GND*%
X162814000Y-110871000D03*
%TO.P,U3,8*%
%TO.N,/ROM_OE*%
X155194000Y-110871000D03*
%TO.P,U3,9*%
%TO.N,/RW*%
X155194000Y-113411000D03*
%TO.P,U3,10*%
%TO.N,/CLK*%
X155194000Y-115951000D03*
%TO.P,U3,11*%
%TO.N,Net-(R5-Pad1)*%
X155194000Y-118491000D03*
%TO.P,U3,12*%
X155194000Y-121031000D03*
%TO.P,U3,13*%
%TO.N,Net-(R6-Pad1)*%
X155194000Y-123571000D03*
%TO.P,U3,14,VCC*%
%TO.N,+5V*%
X155194000Y-126111000D03*
%TD*%
D21*
%TO.P,C5,1*%
%TO.N,Net-(C5-Pad1)*%
X155194000Y-131191000D03*
%TO.P,C5,2*%
%TO.N,GND*%
X160194000Y-131191000D03*
%TD*%
%TO.P,C4,1*%
%TO.N,GND*%
X169418000Y-123571000D03*
%TO.P,C4,2*%
%TO.N,Net-(C4-Pad2)*%
X174418000Y-123571000D03*
%TD*%
%TO.P,C1,1*%
%TO.N,+5V*%
X187706000Y-95203000D03*
%TO.P,C1,2*%
%TO.N,GND*%
X187706000Y-100203000D03*
%TD*%
D19*
%TO.P,U9,1,D0*%
%TO.N,/D0*%
X115062000Y-77343000D03*
D20*
%TO.P,U9,2,D1*%
%TO.N,/D1*%
X115062000Y-74803000D03*
%TO.P,U9,3,~{WR}*%
%TO.N,/RW*%
X115062000Y-72263000D03*
%TO.P,U9,4,~{RAS}*%
%TO.N,/RAS1*%
X115062000Y-69723000D03*
%TO.P,U9,5,N.C.*%
%TO.N,unconnected-(U9-Pad5)*%
X115062000Y-67183000D03*
%TO.P,U9,6,A0*%
%TO.N,/MA0*%
X115062000Y-64643000D03*
%TO.P,U9,7,A1*%
%TO.N,/MA1*%
X115062000Y-62103000D03*
%TO.P,U9,8,A2*%
%TO.N,/MA2*%
X115062000Y-59563000D03*
%TO.P,U9,9,A3*%
%TO.N,/MA3*%
X115062000Y-57023000D03*
%TO.P,U9,10,VCC*%
%TO.N,+5V*%
X115062000Y-54483000D03*
%TO.P,U9,11,A4*%
%TO.N,/MA4*%
X107442000Y-54483000D03*
%TO.P,U9,12,A5*%
%TO.N,/MA5*%
X107442000Y-57023000D03*
%TO.P,U9,13,A6*%
%TO.N,/MA6*%
X107442000Y-59563000D03*
%TO.P,U9,14,A7*%
%TO.N,/MA7*%
X107442000Y-62103000D03*
%TO.P,U9,15,A8*%
%TO.N,/MA8*%
X107442000Y-64643000D03*
%TO.P,U9,16,~{OE}*%
%TO.N,GND*%
X107442000Y-67183000D03*
%TO.P,U9,17,~{CAS}*%
%TO.N,/CAS*%
X107442000Y-69723000D03*
%TO.P,U9,18,D2*%
%TO.N,/D2*%
X107442000Y-72263000D03*
%TO.P,U9,19,D3*%
%TO.N,/D3*%
X107442000Y-74803000D03*
%TO.P,U9,20,GND*%
%TO.N,GND*%
X107442000Y-77343000D03*
%TD*%
D21*
%TO.P,R8,1*%
%TO.N,+5V*%
X56642000Y-100711000D03*
D20*
%TO.P,R8,2*%
%TO.N,/FDC_RD*%
X56642000Y-110871000D03*
%TD*%
D22*
%TO.P,C14,1*%
%TO.N,+9V*%
X59297500Y-51723000D03*
D23*
%TO.P,C14,2*%
%TO.N,GND*%
X59297500Y-69723000D03*
%TD*%
D19*
%TO.P,D9,1,K*%
%TO.N,Net-(C4-Pad2)*%
X152614000Y-128651000D03*
D20*
%TO.P,D9,2,A*%
%TO.N,/MUX*%
X162774000Y-128651000D03*
%TD*%
D21*
%TO.P,C10,1*%
%TO.N,GND*%
X142534000Y-136271000D03*
%TO.P,C10,2*%
%TO.N,+5V*%
X147534000Y-136271000D03*
%TD*%
D19*
%TO.P,U11,1,D0*%
%TO.N,/D0*%
X87757000Y-77343000D03*
D20*
%TO.P,U11,2,D1*%
%TO.N,/D1*%
X87757000Y-74803000D03*
%TO.P,U11,3,~{WR}*%
%TO.N,/RW*%
X87757000Y-72263000D03*
%TO.P,U11,4,~{RAS}*%
%TO.N,/RAS0*%
X87757000Y-69723000D03*
%TO.P,U11,5,N.C.*%
%TO.N,unconnected-(U11-Pad5)*%
X87757000Y-67183000D03*
%TO.P,U11,6,A0*%
%TO.N,/MA0*%
X87757000Y-64643000D03*
%TO.P,U11,7,A1*%
%TO.N,/MA1*%
X87757000Y-62103000D03*
%TO.P,U11,8,A2*%
%TO.N,/MA2*%
X87757000Y-59563000D03*
%TO.P,U11,9,A3*%
%TO.N,/MA3*%
X87757000Y-57023000D03*
%TO.P,U11,10,VCC*%
%TO.N,+5V*%
X87757000Y-54483000D03*
%TO.P,U11,11,A4*%
%TO.N,/MA4*%
X80137000Y-54483000D03*
%TO.P,U11,12,A5*%
%TO.N,/MA5*%
X80137000Y-57023000D03*
%TO.P,U11,13,A6*%
%TO.N,/MA6*%
X80137000Y-59563000D03*
%TO.P,U11,14,A7*%
%TO.N,/MA7*%
X80137000Y-62103000D03*
%TO.P,U11,15,A8*%
%TO.N,/MA8*%
X80137000Y-64643000D03*
%TO.P,U11,16,~{OE}*%
%TO.N,GND*%
X80137000Y-67183000D03*
%TO.P,U11,17,~{CAS}*%
%TO.N,/CAS*%
X80137000Y-69723000D03*
%TO.P,U11,18,D2*%
%TO.N,/D2*%
X80137000Y-72263000D03*
%TO.P,U11,19,D3*%
%TO.N,/D3*%
X80137000Y-74803000D03*
%TO.P,U11,20,GND*%
%TO.N,GND*%
X80137000Y-77343000D03*
%TD*%
D21*
%TO.P,R10,1*%
%TO.N,+5V*%
X56642000Y-77851000D03*
D20*
%TO.P,R10,2*%
%TO.N,/FDC_T0*%
X56642000Y-88011000D03*
%TD*%
D29*
%TO.N,GND*%
X140970000Y-94107000D03*
X150865200Y-130766200D03*
X155448000Y-53467000D03*
X164155500Y-105872000D03*
X155448000Y-60579000D03*
%TO.N,/A3*%
X144272000Y-101473000D03*
X143256000Y-93599000D03*
X165354000Y-76835000D03*
%TO.N,/A4*%
X157856400Y-69832000D03*
X149352000Y-98933000D03*
X157856400Y-74402000D03*
X147320000Y-75819000D03*
%TO.N,/A5*%
X122047000Y-117348000D03*
X186690000Y-79375000D03*
X188976000Y-79375000D03*
%TO.N,/A6*%
X149915400Y-84933800D03*
X154517700Y-73771400D03*
X188976000Y-81153000D03*
X154517700Y-68646100D03*
X186690000Y-81153000D03*
X150622000Y-102743000D03*
X174752000Y-77343000D03*
%TO.N,/A7*%
X163081200Y-96286200D03*
X177546000Y-81661000D03*
X170627600Y-83064800D03*
X180509700Y-67111300D03*
%TO.N,/A8*%
X123952000Y-116713000D03*
X172944600Y-90031700D03*
X180428100Y-88296000D03*
X170942000Y-90043000D03*
X129794000Y-126873000D03*
%TO.N,/A9*%
X181879000Y-132713200D03*
X155702000Y-93853000D03*
X127254000Y-126873000D03*
X120777000Y-119253000D03*
X161464400Y-122729300D03*
%TO.N,/A10*%
X119634000Y-126873000D03*
X179912800Y-93559100D03*
%TO.N,/A11*%
X189498100Y-92386800D03*
X136652000Y-117348000D03*
X124587000Y-128143000D03*
%TO.N,/A12*%
X180107000Y-98025100D03*
X183707500Y-96663100D03*
X189473500Y-99670100D03*
%TO.N,/A13*%
X175809700Y-103872200D03*
X173093200Y-103228100D03*
X180106200Y-99789600D03*
%TO.N,/A14*%
X181875100Y-115697000D03*
%TO.N,/D7*%
X116365000Y-93218000D03*
X98298000Y-93218000D03*
X80772000Y-93218000D03*
X112014000Y-137795000D03*
%TO.N,/D6*%
X99822000Y-95123000D03*
X82042000Y-95123000D03*
X116332000Y-95123000D03*
%TO.N,/D5*%
X83566000Y-97028000D03*
X102997000Y-97028000D03*
X116332000Y-97028000D03*
%TO.N,/D4*%
X116332000Y-98933000D03*
X102997000Y-98933000D03*
X85217000Y-98933000D03*
%TO.N,/D3*%
X105537000Y-101473000D03*
X116332000Y-101473000D03*
X86487000Y-101473000D03*
X58547000Y-124333000D03*
%TO.N,/A2*%
X144526000Y-93599000D03*
X161798000Y-78613000D03*
X122174000Y-125349000D03*
X172212000Y-58240600D03*
X162196800Y-66469800D03*
X145542000Y-105283000D03*
%TO.N,/A1*%
X174244000Y-55626000D03*
X113157000Y-117348000D03*
X95377000Y-117983000D03*
X189484000Y-63373000D03*
X156839500Y-64202200D03*
%TO.N,/A0*%
X188976000Y-77597000D03*
X166116000Y-81153000D03*
X95377000Y-119253000D03*
X186690000Y-77597000D03*
%TO.N,/RESET*%
X157988000Y-83693000D03*
X123317000Y-110363000D03*
X187452000Y-63373000D03*
X174244000Y-59817000D03*
X162560000Y-60325000D03*
%TO.N,/RW*%
X145288000Y-79121000D03*
X87757000Y-117983000D03*
X148844000Y-116459000D03*
%TO.N,/D0*%
X112014000Y-107823000D03*
X58674000Y-123063000D03*
X90297000Y-107823000D03*
%TO.N,/D1*%
X109347000Y-105918000D03*
X116332000Y-105918000D03*
X60452000Y-117348000D03*
X91567000Y-105918000D03*
%TO.N,/D2*%
X88392000Y-103378000D03*
X106807000Y-103378000D03*
X116332000Y-103378000D03*
X58547000Y-117348000D03*
%TO.N,/FDC_IP*%
X78867000Y-129413000D03*
D30*
%TO.N,/DS2*%
X64770000Y-86487000D03*
D29*
%TO.N,/DIR*%
X66802000Y-110871000D03*
X44873900Y-118052500D03*
%TO.N,/STEP*%
X73787000Y-117983000D03*
X60452000Y-106553000D03*
%TO.N,/DATA_WR*%
X60452000Y-104648000D03*
%TO.N,/GATE_WR*%
X60452000Y-103378000D03*
%TO.N,/FDC_T0*%
X76327000Y-129413000D03*
%TO.N,/CLK*%
X63627000Y-131953000D03*
%TO.N,/DTACKL*%
X190246000Y-110363000D03*
%TO.N,Net-(D1-Pad2)*%
X173482000Y-76327000D03*
%TO.N,/GAL2_P9*%
X177878200Y-92558700D03*
X175514000Y-110617000D03*
%TO.N,/CS175*%
X71247000Y-112178500D03*
X104267000Y-123063000D03*
X100457000Y-116078000D03*
%TO.N,/ROM_CE*%
X120777000Y-133383700D03*
%TO.N,+5V*%
X160571300Y-116547700D03*
X56007000Y-140335000D03*
%TO.N,/CLKCT*%
X179324000Y-78613000D03*
D30*
%TO.N,/DS3*%
X64770000Y-89027000D03*
D29*
%TO.N,/FDC_WPRT*%
X81407000Y-129413000D03*
%TO.N,/FDC_STEP*%
X73787000Y-129413000D03*
%TO.N,/FDC_RD*%
X66167000Y-129413000D03*
%TO.N,/CAS*%
X141848500Y-66772300D03*
%TO.N,/RAS2*%
X151892000Y-91313000D03*
X166562500Y-92971500D03*
%TO.N,/RAS1*%
X161496400Y-111905700D03*
X172974000Y-108585000D03*
X164478900Y-111542100D03*
X129295200Y-74048800D03*
X147086400Y-115570300D03*
%TO.N,/RAS0*%
X94996000Y-52959000D03*
%TO.N,/MA0*%
X165298800Y-92966800D03*
X152649701Y-90047299D03*
%TO.N,/MA1*%
X153924000Y-89027000D03*
%TO.N,/ROM_OE*%
X122047000Y-126873000D03*
%TO.N,/FDC_DIR*%
X101727000Y-141478000D03*
%TD*%
D31*
%TO.N,GND*%
X52070000Y-99187000D02*
X52070000Y-101727000D01*
D32*
X107442000Y-82931000D02*
X105156000Y-85217000D01*
D31*
X52070000Y-78867000D02*
X52070000Y-81407000D01*
X55118000Y-68199000D02*
X54356000Y-68961000D01*
X52070000Y-96647000D02*
X52070000Y-99187000D01*
X76962000Y-87503000D02*
X76962000Y-88519000D01*
X94742000Y-87249000D02*
X80264000Y-87249000D01*
X123190000Y-87249000D02*
X107442000Y-87249000D01*
X52070000Y-111887000D02*
X52070000Y-114427000D01*
X135890000Y-90551000D02*
X139446000Y-94107000D01*
X80264000Y-87249000D02*
X77216000Y-87249000D01*
X150865200Y-122819800D02*
X150865200Y-130766200D01*
X107442000Y-87249000D02*
X105156000Y-87249000D01*
X52070000Y-73787000D02*
X52070000Y-76327000D01*
X94742000Y-84963000D02*
X94742000Y-87249000D01*
X168910000Y-119253000D02*
X169418000Y-119761000D01*
X52070000Y-101727000D02*
X52070000Y-104267000D01*
X39624000Y-66063000D02*
X40894000Y-64793000D01*
X55118000Y-64643000D02*
X55118000Y-68199000D01*
X105156000Y-85217000D02*
X105156000Y-87249000D01*
X139446000Y-94107000D02*
X140970000Y-94107000D01*
X168402000Y-90043000D02*
X166911000Y-90043000D01*
X164155500Y-92798500D02*
X164155500Y-105872000D01*
X168402000Y-69723000D02*
X168402000Y-53467000D01*
X196850000Y-136017000D02*
X196342000Y-136017000D01*
X52070000Y-91567000D02*
X52070000Y-94107000D01*
X196342000Y-136017000D02*
X196342000Y-133223000D01*
X52070000Y-89027000D02*
X52070000Y-91567000D01*
X195834000Y-51689000D02*
X200152000Y-51689000D01*
X76962000Y-88519000D02*
X76962000Y-92583000D01*
X168990000Y-115951000D02*
X168990000Y-110871000D01*
X185674000Y-49403000D02*
X195834000Y-49403000D01*
X155448000Y-84963000D02*
X155448000Y-60579000D01*
X134112000Y-84709000D02*
X134112000Y-87249000D01*
X52070000Y-76327000D02*
X52070000Y-78867000D01*
X175514000Y-126111000D02*
X171958000Y-126111000D01*
X155448000Y-46863000D02*
X156464000Y-45847000D01*
X182118000Y-82423000D02*
X184871900Y-85176900D01*
X124968000Y-87249000D02*
X123190000Y-87249000D01*
D32*
X135890000Y-82931000D02*
X134112000Y-84709000D01*
D31*
X48006000Y-68453000D02*
X48006000Y-64793000D01*
X195834000Y-49403000D02*
X195834000Y-51689000D01*
X96774000Y-87249000D02*
X94742000Y-87249000D01*
X52070000Y-94107000D02*
X52070000Y-96647000D01*
X54356000Y-68961000D02*
X52070000Y-68961000D01*
D32*
X80010000Y-82931000D02*
X76962000Y-85979000D01*
D31*
X180594000Y-54483000D02*
X185674000Y-49403000D01*
X76962000Y-85979000D02*
X76962000Y-88519000D01*
X52070000Y-104267000D02*
X52070000Y-106807000D01*
D32*
X96774000Y-82931000D02*
X94742000Y-84963000D01*
D31*
X168402000Y-53467000D02*
X168402000Y-45847000D01*
X155448000Y-53467000D02*
X155448000Y-46863000D01*
X168402000Y-45847000D02*
X187960000Y-45847000D01*
X48514000Y-68961000D02*
X52070000Y-68961000D01*
X200152000Y-51689000D02*
X200152000Y-136017000D01*
X160782000Y-84963000D02*
X155448000Y-84963000D01*
X187960000Y-45847000D02*
X187960000Y-49403000D01*
X171958000Y-126111000D02*
X169418000Y-123571000D01*
X156464000Y-45847000D02*
X168402000Y-45847000D01*
X48514000Y-68961000D02*
X48006000Y-68453000D01*
X77216000Y-87249000D02*
X76962000Y-87503000D01*
X83947000Y-135763000D02*
X83947000Y-142748000D01*
X39624000Y-66167000D02*
X39624000Y-66063000D01*
X135890000Y-87249000D02*
X134112000Y-87249000D01*
X52070000Y-106807000D02*
X52070000Y-109347000D01*
X134112000Y-87249000D02*
X124968000Y-87249000D01*
X166911000Y-90043000D02*
X164155500Y-92798500D01*
X200152000Y-136017000D02*
X196850000Y-136017000D01*
X83947000Y-142748000D02*
X39497000Y-142748000D01*
X105156000Y-87249000D02*
X96774000Y-87249000D01*
X169418000Y-119761000D02*
X169418000Y-123571000D01*
X152654000Y-121031000D02*
X150865200Y-122819800D01*
X187960000Y-49403000D02*
X185674000Y-49403000D01*
X52070000Y-109347000D02*
X52070000Y-111887000D01*
X135890000Y-87249000D02*
X135890000Y-90551000D01*
X168910000Y-115951000D02*
X168910000Y-119253000D01*
X52070000Y-81407000D02*
X52070000Y-83947000D01*
X184871900Y-85176900D02*
X184871900Y-97368900D01*
X52070000Y-83947000D02*
X52070000Y-86487000D01*
X168402000Y-53467000D02*
X171958000Y-53467000D01*
X193802000Y-133223000D02*
X193802000Y-135763000D01*
X52070000Y-86487000D02*
X52070000Y-89027000D01*
D32*
X125222000Y-82931000D02*
X123190000Y-84963000D01*
D31*
X123190000Y-84963000D02*
X123190000Y-87249000D01*
X178054000Y-54483000D02*
X180594000Y-54483000D01*
X184871900Y-97368900D02*
X187706000Y-100203000D01*
X39497000Y-142748000D02*
X39624000Y-66167000D01*
X52070000Y-68961000D02*
X52070000Y-73787000D01*
D33*
%TO.N,/A3*%
X186944000Y-58293000D02*
X188593900Y-59942900D01*
X175042300Y-56769000D02*
X176566300Y-58293000D01*
X169530300Y-58942700D02*
X171704000Y-56769000D01*
X195072000Y-69383600D02*
X195072000Y-73533000D01*
X144272000Y-94615000D02*
X143256000Y-93599000D01*
X188593900Y-59942900D02*
X188593900Y-63892700D01*
X195072000Y-73533000D02*
X196342000Y-74803000D01*
X171704000Y-56769000D02*
X175042300Y-56769000D01*
X168910000Y-70993000D02*
X169530300Y-70372700D01*
X192984400Y-68283200D02*
X193971600Y-68283200D01*
X144272000Y-101473000D02*
X144272000Y-94615000D01*
X176566300Y-58293000D02*
X186944000Y-58293000D01*
X169530300Y-70372700D02*
X169530300Y-58942700D01*
X167386000Y-70993000D02*
X168910000Y-70993000D01*
X193971600Y-68283200D02*
X195072000Y-69383600D01*
X165354000Y-73025000D02*
X167386000Y-70993000D01*
X165354000Y-76835000D02*
X165354000Y-73025000D01*
X188593900Y-63892700D02*
X192984400Y-68283200D01*
%TO.N,/A4*%
X148590000Y-96139000D02*
X149352000Y-97102811D01*
X170096800Y-61678200D02*
X170096800Y-73108200D01*
X149352000Y-97102811D02*
X149352000Y-98933000D01*
X147320000Y-76835000D02*
X148590000Y-78105000D01*
X190424100Y-76073000D02*
X182080050Y-67728950D01*
X157856400Y-69832000D02*
X157856400Y-74402000D01*
X196342000Y-77343000D02*
X195072000Y-76073000D01*
X195072000Y-76073000D02*
X190424100Y-76073000D01*
X181102000Y-65913000D02*
X176276000Y-65913000D01*
X176276000Y-65913000D02*
X173482000Y-63119000D01*
X147320000Y-75819000D02*
X147320000Y-76835000D01*
X148590000Y-78105000D02*
X148590000Y-96139000D01*
X182080050Y-67728950D02*
X182080050Y-66891050D01*
X170942000Y-60833000D02*
X170096800Y-61678200D01*
X182080050Y-66891050D02*
X181102000Y-65913000D01*
X173482000Y-61595000D02*
X172720000Y-60833000D01*
X173482000Y-63119000D02*
X173482000Y-61595000D01*
X172720000Y-60833000D02*
X170942000Y-60833000D01*
X170096800Y-73108200D02*
X168402000Y-74803000D01*
%TO.N,/A5*%
X181102000Y-75311000D02*
X171958000Y-75311000D01*
X169418000Y-82423000D02*
X168402000Y-82423000D01*
X171958000Y-75311000D02*
X171450000Y-75819000D01*
X125603000Y-118618000D02*
X127127000Y-120523000D01*
X186690000Y-79375000D02*
X185166000Y-79375000D01*
X123317000Y-118618000D02*
X125603000Y-118618000D01*
X195242489Y-80982511D02*
X190583511Y-80982511D01*
X196342000Y-79883000D02*
X195242489Y-80982511D01*
X171450000Y-75819000D02*
X171450000Y-80391000D01*
X171450000Y-80391000D02*
X169418000Y-82423000D01*
X190583511Y-80982511D02*
X188976000Y-79375000D01*
X122047000Y-117348000D02*
X123317000Y-118618000D01*
X185166000Y-79375000D02*
X181102000Y-75311000D01*
%TO.N,/A6*%
X186690000Y-81153000D02*
X184658000Y-81153000D01*
X149352000Y-85497200D02*
X149915400Y-84933800D01*
X184658000Y-81153000D02*
X180848000Y-77343000D01*
X191345511Y-83522511D02*
X195242489Y-83522511D01*
X150622000Y-102743000D02*
X150622000Y-96393000D01*
X154517700Y-68646100D02*
X154517700Y-73771400D01*
X150622000Y-96393000D02*
X149352000Y-95123000D01*
X149352000Y-95123000D02*
X149352000Y-85497200D01*
X195242489Y-83522511D02*
X196342000Y-82423000D01*
X188976000Y-81153000D02*
X191345511Y-83522511D01*
X180848000Y-77343000D02*
X174752000Y-77343000D01*
%TO.N,/A7*%
X166116000Y-84963000D02*
X168402000Y-84963000D01*
X176784000Y-80899000D02*
X172793400Y-80899000D01*
X165310450Y-85768550D02*
X166116000Y-84963000D01*
X196868300Y-78782800D02*
X197496300Y-79410800D01*
X172793400Y-80899000D02*
X170627600Y-83064800D01*
X165310450Y-88475450D02*
X163081200Y-90704700D01*
X177546000Y-81661000D02*
X176784000Y-80899000D01*
X180509700Y-67111300D02*
X192181200Y-78782800D01*
X197496300Y-79410800D02*
X197496300Y-83808700D01*
X163081200Y-90704700D02*
X163081200Y-96286200D01*
X165310450Y-88475450D02*
X165310450Y-85768550D01*
X197496300Y-83808700D02*
X196342000Y-84963000D01*
X192181200Y-78782800D02*
X196868300Y-78782800D01*
%TO.N,/A8*%
X185819700Y-84504100D02*
X185819700Y-95658400D01*
X197970400Y-89131400D02*
X196342000Y-87503000D01*
X181645900Y-81245700D02*
X182561300Y-81245700D01*
X125857000Y-116713000D02*
X128397000Y-119253000D01*
X128397000Y-121539000D02*
X129794000Y-122809000D01*
X197970400Y-95076100D02*
X197970400Y-89131400D01*
X190998500Y-96342200D02*
X196704300Y-96342200D01*
X180428100Y-88296000D02*
X180428100Y-82463500D01*
X185819700Y-95658400D02*
X187003600Y-96842300D01*
X182561300Y-81245700D02*
X185819700Y-84504100D01*
X123952000Y-116713000D02*
X125857000Y-116713000D01*
X187003600Y-96842300D02*
X190498400Y-96842300D01*
X172944600Y-90031700D02*
X170942000Y-90043000D01*
X128397000Y-119253000D02*
X128397000Y-121539000D01*
X196704300Y-96342200D02*
X197970400Y-95076100D01*
X129794000Y-122809000D02*
X129794000Y-126873000D01*
X180428100Y-82463500D02*
X181645900Y-81245700D01*
X190498400Y-96842300D02*
X190998500Y-96342200D01*
%TO.N,/A9*%
X158804300Y-116785700D02*
X161464400Y-119445800D01*
X184671200Y-129921000D02*
X186001200Y-129921000D01*
X195201400Y-87076600D02*
X195201400Y-88902400D01*
X186001200Y-129921000D02*
X188192200Y-127730000D01*
X196819600Y-86402800D02*
X195875200Y-86402800D01*
X158804300Y-110290300D02*
X156972000Y-108458000D01*
X126238000Y-126873000D02*
X127254000Y-126873000D01*
X155702000Y-93853000D02*
X155702000Y-95631000D01*
X120777000Y-119253000D02*
X120777000Y-121793000D01*
X198473600Y-88056800D02*
X196819600Y-86402800D01*
X188192200Y-124502700D02*
X193441900Y-119253000D01*
X161464400Y-119445800D02*
X161464400Y-122729300D01*
X195875200Y-86402800D02*
X195201400Y-87076600D01*
X188192200Y-127730000D02*
X188192200Y-124502700D01*
X194902200Y-112733400D02*
X195832800Y-111802800D01*
X194902200Y-118522900D02*
X194902200Y-112733400D01*
X193441900Y-119253000D02*
X194172100Y-119253000D01*
X195201400Y-88902400D02*
X196342000Y-90043000D01*
X156972000Y-96901000D02*
X156972000Y-108458000D01*
X196537000Y-111802800D02*
X198473600Y-109866200D01*
X158804300Y-116785700D02*
X158804300Y-110290300D01*
X195832800Y-111802800D02*
X196537000Y-111802800D01*
X194172100Y-119253000D02*
X194902200Y-118522900D01*
X181879000Y-132713200D02*
X184671200Y-129921000D01*
X155702000Y-95631000D02*
X156972000Y-96901000D01*
X198473600Y-109866200D02*
X198473600Y-88056800D01*
X120777000Y-121793000D02*
X126238000Y-126873000D01*
%TO.N,/A10*%
X179866500Y-82287100D02*
X181408200Y-80745400D01*
X179912800Y-93559100D02*
X179678800Y-93325100D01*
X186428500Y-84405500D02*
X186428500Y-95559900D01*
X181408200Y-80745400D02*
X182768400Y-80745400D01*
X187210800Y-96342200D02*
X190041000Y-96342200D01*
X190041000Y-96342200D02*
X192700000Y-93683200D01*
X192700000Y-93683200D02*
X195241800Y-93683200D01*
X179678800Y-87537900D02*
X179866500Y-87350200D01*
X195241800Y-93683200D02*
X196342000Y-92583000D01*
X182768400Y-80745400D02*
X186428500Y-84405500D01*
X186428500Y-95559900D02*
X187210800Y-96342200D01*
X179866500Y-87350200D02*
X179866500Y-82287100D01*
X179678800Y-93325100D02*
X179678800Y-87537900D01*
%TO.N,/A11*%
X124587000Y-128143000D02*
X130302000Y-128143000D01*
X196819900Y-91482800D02*
X190402100Y-91482800D01*
X135382000Y-117348000D02*
X136652000Y-117348000D01*
X197470300Y-93994700D02*
X197470300Y-92133200D01*
X130302000Y-128143000D02*
X133477000Y-124968000D01*
X197470300Y-92133200D02*
X196819900Y-91482800D01*
X196342000Y-95123000D02*
X197470300Y-93994700D01*
X133477000Y-119253000D02*
X135382000Y-117348000D01*
X133477000Y-124968000D02*
X133477000Y-119253000D01*
X190402100Y-91482800D02*
X189498100Y-92386800D01*
%TO.N,/A12*%
X183707500Y-97701100D02*
X183707500Y-96663100D01*
X194902200Y-99102800D02*
X196342000Y-97663000D01*
X189473500Y-99670100D02*
X190040800Y-99102800D01*
X190040800Y-99102800D02*
X194902200Y-99102800D01*
X182620400Y-98788200D02*
X183707500Y-97701100D01*
X180870100Y-98788200D02*
X182620400Y-98788200D01*
X180107000Y-98025100D02*
X180870100Y-98788200D01*
%TO.N,/A13*%
X195072000Y-101473000D02*
X181789600Y-101473000D01*
X181789600Y-101473000D02*
X180106200Y-99789600D01*
X188468000Y-110617000D02*
X188468000Y-106454000D01*
X188545500Y-106376500D02*
X193449000Y-101473000D01*
X196342000Y-100203000D02*
X195072000Y-101473000D01*
X188468000Y-106454000D02*
X188545500Y-106376500D01*
X173737300Y-103872200D02*
X175809700Y-103872200D01*
X173093200Y-103228100D02*
X173737300Y-103872200D01*
X185674000Y-113411000D02*
X188468000Y-110617000D01*
%TO.N,/A14*%
X189395400Y-112229600D02*
X185674000Y-115951000D01*
X195072000Y-104013000D02*
X196342000Y-102743000D01*
X181875100Y-115697000D02*
X184042700Y-115806900D01*
X189395400Y-112229600D02*
X189395400Y-108125200D01*
X189395400Y-108125200D02*
X193507600Y-104013000D01*
X193507600Y-104013000D02*
X195072000Y-104013000D01*
X184042700Y-115806900D02*
X185674000Y-115806900D01*
%TO.N,/D7*%
X114554000Y-135763000D02*
X114554000Y-137795000D01*
X77724000Y-96393000D02*
X73152000Y-96393000D01*
X80772000Y-93218000D02*
X98298000Y-93218000D01*
X112268000Y-137795000D02*
X114554000Y-137795000D01*
X189230000Y-132969000D02*
X184150000Y-138049000D01*
X196342000Y-120523000D02*
X195072000Y-121793000D01*
X195072000Y-121793000D02*
X192532000Y-121793000D01*
X184150000Y-138049000D02*
X114808000Y-138049000D01*
X189230000Y-125095000D02*
X189230000Y-132969000D01*
X192532000Y-121793000D02*
X189230000Y-125095000D01*
X80772000Y-93218000D02*
X77724000Y-96393000D01*
X114808000Y-138049000D02*
X114554000Y-137795000D01*
X112014000Y-137795000D02*
X112268000Y-137795000D01*
X98298000Y-93218000D02*
X116365000Y-93218000D01*
X73152000Y-96393000D02*
X69342000Y-100203000D01*
%TO.N,/D6*%
X73152000Y-98933000D02*
X69342000Y-102743000D01*
X116332000Y-95123000D02*
X99822000Y-95123000D01*
X189992000Y-126873000D02*
X189992000Y-133223000D01*
X110744000Y-138303000D02*
X110744000Y-137033000D01*
X99822000Y-95123000D02*
X82042000Y-95123000D01*
X189992000Y-133223000D02*
X184404000Y-138811000D01*
X192532000Y-124333000D02*
X189992000Y-126873000D01*
X195072000Y-124333000D02*
X192532000Y-124333000D01*
X184404000Y-138811000D02*
X111252000Y-138811000D01*
X196342000Y-123063000D02*
X195072000Y-124333000D01*
X111252000Y-138811000D02*
X110744000Y-138303000D01*
X78486000Y-98933000D02*
X73152000Y-98933000D01*
X82042000Y-95123000D02*
X78486000Y-98933000D01*
X110744000Y-137033000D02*
X112014000Y-135763000D01*
%TO.N,/D5*%
X109474000Y-139573000D02*
X109474000Y-135763000D01*
X190754000Y-128651000D02*
X190754000Y-133477000D01*
X190754000Y-133477000D02*
X184658000Y-139573000D01*
X192532000Y-126873000D02*
X190754000Y-128651000D01*
X116332000Y-97028000D02*
X102997000Y-97028000D01*
X80264000Y-100203000D02*
X76962000Y-100203000D01*
X184658000Y-139573000D02*
X109474000Y-139573000D01*
X83566000Y-97028000D02*
X80264000Y-100203000D01*
X195072000Y-126873000D02*
X192532000Y-126873000D01*
X102997000Y-97028000D02*
X83566000Y-97028000D01*
X196342000Y-125603000D02*
X195072000Y-126873000D01*
%TO.N,/D4*%
X196342000Y-128143000D02*
X195072000Y-129413000D01*
X195072000Y-129413000D02*
X192278000Y-129413000D01*
X102997000Y-98933000D02*
X85217000Y-98933000D01*
X192278000Y-129413000D02*
X191516000Y-130175000D01*
X191516000Y-133731000D02*
X184912000Y-140335000D01*
X81534000Y-102743000D02*
X76962000Y-102743000D01*
X116332000Y-98933000D02*
X102997000Y-98933000D01*
X106934000Y-140335000D02*
X106934000Y-135763000D01*
X191516000Y-130175000D02*
X191516000Y-133731000D01*
X184912000Y-140335000D02*
X106934000Y-140335000D01*
X85217000Y-98933000D02*
X81534000Y-102743000D01*
%TO.N,/D3*%
X105156000Y-141097000D02*
X104394000Y-140335000D01*
X71247000Y-120523000D02*
X69977000Y-121793000D01*
X69977000Y-121793000D02*
X58547000Y-121793000D01*
X104394000Y-140335000D02*
X104394000Y-135763000D01*
X192278000Y-133985000D02*
X185166000Y-141097000D01*
X196342000Y-130683000D02*
X195072000Y-131953000D01*
X116332000Y-101473000D02*
X105537000Y-101473000D01*
X192786000Y-131953000D02*
X192278000Y-132461000D01*
X57912000Y-123698000D02*
X58547000Y-124333000D01*
X58547000Y-121793000D02*
X57912000Y-122428000D01*
X185166000Y-141097000D02*
X105156000Y-141097000D01*
X195072000Y-131953000D02*
X192786000Y-131953000D01*
X192278000Y-132461000D02*
X192278000Y-133985000D01*
X57912000Y-122428000D02*
X57912000Y-123698000D01*
X105537000Y-101473000D02*
X86487000Y-101473000D01*
%TO.N,/A2*%
X145542000Y-105283000D02*
X145542000Y-94615000D01*
X176530000Y-63373000D02*
X172212000Y-59055000D01*
X181610000Y-63373000D02*
X176530000Y-63373000D01*
X162288400Y-78122600D02*
X161798000Y-78613000D01*
X162196800Y-70848200D02*
X160782000Y-72263000D01*
X172212000Y-59055000D02*
X172212000Y-58240600D01*
X184150000Y-65913000D02*
X181610000Y-63373000D01*
X162288400Y-73769400D02*
X162288400Y-78122600D01*
X119507000Y-123063000D02*
X119507000Y-120523000D01*
X122174000Y-125349000D02*
X119507000Y-123063000D01*
X193802000Y-72263000D02*
X187452000Y-65913000D01*
X145542000Y-94615000D02*
X144526000Y-93599000D01*
X160782000Y-72263000D02*
X162288400Y-73769400D01*
X187452000Y-65913000D02*
X184150000Y-65913000D01*
X162196800Y-66469800D02*
X162196800Y-70848200D01*
%TO.N,/A1*%
X109982000Y-117348000D02*
X113157000Y-117348000D01*
X113919000Y-117348000D02*
X116967000Y-120523000D01*
X175819200Y-55608200D02*
X187307200Y-55608200D01*
X109347000Y-117983000D02*
X109982000Y-117348000D01*
X113157000Y-117348000D02*
X113919000Y-117348000D01*
X189484000Y-57785000D02*
X189484000Y-63373000D01*
X95377000Y-117983000D02*
X109347000Y-117983000D01*
X160782000Y-79883000D02*
X156839500Y-75940500D01*
X187307200Y-55608200D02*
X189484000Y-57785000D01*
X174244000Y-55626000D02*
X175819200Y-55608200D01*
X156839500Y-75940500D02*
X156839500Y-64202200D01*
%TO.N,/A0*%
X95377000Y-119253000D02*
X113284000Y-119253000D01*
X166116000Y-81153000D02*
X169164000Y-81153000D01*
X191262000Y-79883000D02*
X188976000Y-77597000D01*
X170180000Y-80137000D02*
X170180000Y-75819000D01*
X169164000Y-81153000D02*
X170180000Y-80137000D01*
X170180000Y-75819000D02*
X171450000Y-74549000D01*
X182118000Y-74549000D02*
X185166000Y-77597000D01*
X193802000Y-79883000D02*
X191262000Y-79883000D01*
X171450000Y-74549000D02*
X182118000Y-74549000D01*
X185166000Y-77597000D02*
X186690000Y-77597000D01*
X113284000Y-119253000D02*
X114427000Y-120523000D01*
%TO.N,/RESET*%
X176276000Y-60833000D02*
X181102000Y-60833000D01*
X159258000Y-81153000D02*
X161798000Y-81153000D01*
X157988000Y-83693000D02*
X157988000Y-82423000D01*
X163010860Y-79940140D02*
X163010860Y-60775860D01*
X161798000Y-81153000D02*
X163010860Y-79940140D01*
X183642000Y-63373000D02*
X181102000Y-60833000D01*
X157988000Y-82423000D02*
X159258000Y-81153000D01*
X76962000Y-110363000D02*
X123317000Y-110363000D01*
X174244000Y-59817000D02*
X175260000Y-59817000D01*
X175260000Y-59817000D02*
X176276000Y-60833000D01*
X187452000Y-63373000D02*
X183642000Y-63373000D01*
X163010860Y-60775860D02*
X162560000Y-60325000D01*
%TO.N,/A15*%
X176638511Y-119107511D02*
X176638511Y-117583511D01*
X183254000Y-119761000D02*
X177292000Y-119761000D01*
X184524000Y-121031000D02*
X183254000Y-119761000D01*
X167467300Y-108948100D02*
X167276900Y-108757700D01*
X175337700Y-115619300D02*
X168666500Y-108948100D01*
X176638511Y-117583511D02*
X175337700Y-116282700D01*
X185674000Y-121031000D02*
X184524000Y-121031000D01*
X175337700Y-116282700D02*
X175337700Y-115619300D01*
X177292000Y-119761000D02*
X176638511Y-119107511D01*
X167276900Y-108757700D02*
X167276900Y-106408100D01*
X168666500Y-108948100D02*
X167467300Y-108948100D01*
X167276900Y-106408100D02*
X168402000Y-105283000D01*
%TO.N,/RW*%
X112522000Y-72263000D02*
X114798000Y-72263000D01*
X137559000Y-73387500D02*
X138684000Y-72263000D01*
X94152800Y-74803000D02*
X95399900Y-73555900D01*
X133972000Y-73387500D02*
X137559000Y-73387500D01*
X164084000Y-127381000D02*
X164084000Y-125249100D01*
X90297000Y-74803000D02*
X94152800Y-74803000D01*
X155194000Y-113411000D02*
X157607000Y-115824000D01*
X163675900Y-124841000D02*
X164084000Y-125249100D01*
X106299000Y-115951000D02*
X104902000Y-117348000D01*
X89027000Y-116713000D02*
X87757000Y-117983000D01*
X165687250Y-128063750D02*
X175065700Y-137442200D01*
X138684000Y-72263000D02*
X143510000Y-72263000D01*
X185451600Y-127236200D02*
X186153700Y-127236200D01*
X176882800Y-137442200D02*
X180410400Y-133914600D01*
X78232000Y-73533000D02*
X86487000Y-73533000D01*
X86487000Y-73533000D02*
X87757000Y-72263000D01*
X76962000Y-72263000D02*
X78232000Y-73533000D01*
X163675900Y-124841000D02*
X161544000Y-124841000D01*
X132842000Y-72258000D02*
X130053000Y-72258000D01*
X97282000Y-117348000D02*
X96647000Y-116713000D01*
X100307000Y-73555900D02*
X101605000Y-72258000D01*
X95399900Y-73555900D02*
X100307000Y-73555900D01*
X157607000Y-120904000D02*
X161544000Y-124841000D01*
X157607000Y-115824000D02*
X157607000Y-120904000D01*
X187508300Y-125881600D02*
X187508300Y-124276700D01*
X104257000Y-72258000D02*
X105532000Y-73533000D01*
X122936000Y-73533000D02*
X121920000Y-74549000D01*
X127508000Y-115951000D02*
X106299000Y-115951000D01*
X186153700Y-127236200D02*
X187508300Y-125881600D01*
X187508300Y-124276700D02*
X193802000Y-117983000D01*
X128778000Y-73533000D02*
X122936000Y-73533000D01*
X121920000Y-74549000D02*
X117084000Y-74549000D01*
X132842000Y-72258000D02*
X133972000Y-73387500D01*
X128016000Y-116459000D02*
X127508000Y-115951000D01*
X87757000Y-72263000D02*
X90297000Y-74803000D01*
X148844000Y-116459000D02*
X148844000Y-113665000D01*
X148844000Y-116459000D02*
X128016000Y-116459000D01*
X105532000Y-73533000D02*
X111252000Y-73533000D01*
X147828000Y-112649000D02*
X147828000Y-79121000D01*
X130053000Y-72258000D02*
X128778000Y-73533000D01*
X180410400Y-132277400D02*
X185451600Y-127236200D01*
X147828000Y-79121000D02*
X145288000Y-79121000D01*
X148844000Y-113665000D02*
X147828000Y-112649000D01*
X164766750Y-128063750D02*
X164084000Y-127381000D01*
X165687250Y-128063750D02*
X164766750Y-128063750D01*
X180410400Y-133914600D02*
X180410400Y-132277400D01*
X175065700Y-137442200D02*
X176882800Y-137442200D01*
X117084000Y-74549000D02*
X114798000Y-72263000D01*
X104902000Y-117348000D02*
X97282000Y-117348000D01*
X111252000Y-73533000D02*
X112522000Y-72263000D01*
X101605000Y-72258000D02*
X104257000Y-72258000D01*
X96647000Y-116713000D02*
X89027000Y-116713000D01*
%TO.N,/D0*%
X112014000Y-107823000D02*
X90297000Y-107823000D01*
X58674000Y-123063000D02*
X78232000Y-123063000D01*
X78232000Y-123063000D02*
X78867000Y-122428000D01*
X78867000Y-122428000D02*
X78867000Y-120523000D01*
%TO.N,/D1*%
X73914000Y-119253000D02*
X72009000Y-117348000D01*
X116332000Y-105918000D02*
X109347000Y-105918000D01*
X72009000Y-117348000D02*
X60452000Y-117348000D01*
X109347000Y-105918000D02*
X91567000Y-105918000D01*
X76454000Y-120523000D02*
X75184000Y-119253000D01*
X75184000Y-119253000D02*
X73914000Y-119253000D01*
%TO.N,/D2*%
X58547000Y-117348000D02*
X59944000Y-118745000D01*
X116332000Y-103378000D02*
X106807000Y-103378000D01*
X59944000Y-118745000D02*
X72136000Y-118745000D01*
X106807000Y-103378000D02*
X88392000Y-103378000D01*
X72136000Y-118745000D02*
X73914000Y-120523000D01*
%TO.N,Net-(C2-Pad2)*%
X177146900Y-85071900D02*
X177146900Y-107714100D01*
X174498000Y-82423000D02*
X177146900Y-85071900D01*
X177146900Y-107714100D02*
X173990000Y-110871000D01*
%TO.N,/FDC_IP*%
X59690000Y-110871000D02*
X59690000Y-113665000D01*
X78232000Y-126873000D02*
X56642000Y-126873000D01*
X78867000Y-127508000D02*
X78232000Y-126873000D01*
X54610000Y-124841000D02*
X54610000Y-114935000D01*
X78867000Y-129413000D02*
X78867000Y-127508000D01*
X59182000Y-114173000D02*
X55372000Y-114173000D01*
X59690000Y-113665000D02*
X59182000Y-114173000D01*
X56642000Y-126873000D02*
X54610000Y-124841000D01*
X55372000Y-114173000D02*
X54610000Y-114935000D01*
%TO.N,/DS1*%
X47752000Y-103505000D02*
X49530000Y-101727000D01*
X51562000Y-126873000D02*
X47752000Y-123063000D01*
X48006000Y-123327000D02*
X51806000Y-127127000D01*
X47752000Y-123063000D02*
X47752000Y-103505000D01*
%TO.N,/MOTOR_ON*%
X43942000Y-126873000D02*
X45847000Y-124968000D01*
X48133000Y-96647000D02*
X49530000Y-96647000D01*
X45847000Y-124968000D02*
X45847000Y-98933000D01*
X45847000Y-98933000D02*
X48133000Y-96647000D01*
%TO.N,/DIR*%
X68834000Y-112903000D02*
X75692000Y-112903000D01*
X79502000Y-116713000D02*
X85217000Y-116713000D01*
X99424000Y-123068000D02*
X100574000Y-123068000D01*
X98233400Y-124258600D02*
X99424000Y-123068000D01*
X66802000Y-110871000D02*
X68834000Y-112903000D01*
X90822500Y-124258600D02*
X98233400Y-124258600D01*
X87757000Y-119253000D02*
X87757000Y-121793000D01*
X87757000Y-121793000D02*
X90822500Y-124258600D01*
X44873900Y-96985100D02*
X44873900Y-118052500D01*
X47752000Y-94107000D02*
X44873900Y-96985100D01*
X75692000Y-112903000D02*
X79502000Y-116713000D01*
X49530000Y-94107000D02*
X47752000Y-94107000D01*
X85217000Y-116713000D02*
X87757000Y-119253000D01*
%TO.N,/STEP*%
X60452000Y-106553000D02*
X62746511Y-108847511D01*
X62759700Y-113940700D02*
X64897000Y-116078000D01*
X71882000Y-116078000D02*
X73787000Y-117983000D01*
X64897000Y-116078000D02*
X71882000Y-116078000D01*
X62746511Y-108847511D02*
X62746511Y-110608489D01*
X62746511Y-110608489D02*
X62759700Y-113940700D01*
%TO.N,/DATA_WR*%
X80137000Y-122428000D02*
X88905000Y-130688000D01*
X60452000Y-104648000D02*
X64262000Y-108458000D01*
X64262000Y-113919000D02*
X65786000Y-115443000D01*
X65786000Y-115443000D02*
X75588782Y-115443000D01*
X80137000Y-119888000D02*
X80137000Y-122428000D01*
X75588782Y-115443000D02*
X76910391Y-116764609D01*
X64262000Y-108458000D02*
X64262000Y-113919000D01*
X88905000Y-130688000D02*
X92954000Y-130688000D01*
X76910391Y-116764609D02*
X80137000Y-119888000D01*
%TO.N,/GATE_WR*%
X60452000Y-103378000D02*
X65208800Y-108134800D01*
X66548000Y-114173000D02*
X75692000Y-114173000D01*
X98274000Y-126998000D02*
X99424000Y-128148000D01*
X79502000Y-117983000D02*
X84582000Y-117983000D01*
X85217000Y-122555000D02*
X89787000Y-126998000D01*
X99424000Y-128148000D02*
X100574000Y-128148000D01*
X85217000Y-118618000D02*
X85217000Y-122555000D01*
X65208800Y-108134800D02*
X65208800Y-112833800D01*
X89787000Y-126998000D02*
X98274000Y-126998000D01*
X65208800Y-112833800D02*
X66548000Y-114173000D01*
X75692000Y-114173000D02*
X79502000Y-117983000D01*
X84582000Y-117983000D02*
X85217000Y-118618000D01*
%TO.N,/FDC_T0*%
X54356000Y-112903000D02*
X57912000Y-112903000D01*
X55118000Y-106934000D02*
X55118000Y-89535000D01*
X57912000Y-112903000D02*
X57912000Y-109728000D01*
X54102000Y-126873000D02*
X54102000Y-113157000D01*
X55118000Y-89535000D02*
X56642000Y-88011000D01*
X76327000Y-129413000D02*
X75057000Y-128143000D01*
X55372000Y-128143000D02*
X54102000Y-126873000D01*
X75057000Y-128143000D02*
X55372000Y-128143000D01*
X54102000Y-113157000D02*
X54356000Y-112903000D01*
X57912000Y-109728000D02*
X55118000Y-106934000D01*
%TO.N,Net-(C4-Pad2)*%
X165354000Y-124505400D02*
X165354000Y-126111000D01*
X162814000Y-121965400D02*
X165354000Y-124505400D01*
X162814000Y-121031000D02*
X162814000Y-121965400D01*
%TO.N,/HEAD*%
X43307000Y-133223000D02*
X42672000Y-132588000D01*
X42672000Y-132588000D02*
X42672000Y-120015000D01*
X50536000Y-133477000D02*
X51806000Y-134747000D01*
X43434000Y-82423000D02*
X43434000Y-119253000D01*
X50292000Y-133223000D02*
X43307000Y-133223000D01*
X51562000Y-134493000D02*
X50292000Y-133223000D01*
X49530000Y-76327000D02*
X43434000Y-82423000D01*
X42672000Y-120015000D02*
X43434000Y-119253000D01*
%TO.N,/FDCON_CS*%
X90304000Y-120523000D02*
X89154000Y-120523000D01*
X164084000Y-134493000D02*
X163576000Y-135001000D01*
X156331000Y-130042000D02*
X156331000Y-117985700D01*
X161290000Y-135001000D02*
X156331000Y-130042000D01*
X132842000Y-128905000D02*
X112601600Y-128905000D01*
X136017000Y-126238000D02*
X132842000Y-128905000D01*
X165354000Y-131191000D02*
X164084000Y-132461000D01*
X91661200Y-121880200D02*
X90304000Y-120523000D01*
X136017000Y-119253000D02*
X136017000Y-126238000D01*
X163576000Y-135001000D02*
X161290000Y-135001000D01*
X164084000Y-132461000D02*
X164084000Y-134493000D01*
X105576800Y-121880200D02*
X91661200Y-121880200D01*
X112601600Y-128905000D02*
X105576800Y-121880200D01*
X155679800Y-117334500D02*
X138062500Y-117334500D01*
X156331000Y-117985700D02*
X155679800Y-117334500D01*
X138062500Y-117334500D02*
X136017000Y-119253000D01*
%TO.N,/CLK*%
X98552000Y-129413000D02*
X101092000Y-129413000D01*
X103632000Y-129413000D02*
X105537000Y-131318000D01*
X101092000Y-129413000D02*
X101727000Y-128778000D01*
X103632000Y-126238000D02*
X103632000Y-129413000D01*
X133477000Y-135956300D02*
X134929400Y-137408700D01*
X99822000Y-124333000D02*
X101727000Y-124333000D01*
X99822000Y-126873000D02*
X99187000Y-126238000D01*
X130302000Y-131318000D02*
X133477000Y-134493000D01*
X139070300Y-137408700D02*
X142494000Y-133985000D01*
X134929400Y-137408700D02*
X139070300Y-137408700D01*
X101727000Y-128778000D02*
X101727000Y-127508000D01*
X101092000Y-126873000D02*
X99822000Y-126873000D01*
X99187000Y-124968000D02*
X99822000Y-124333000D01*
X63627000Y-131953000D02*
X96012000Y-131953000D01*
X101727000Y-127508000D02*
X101092000Y-126873000D01*
X133477000Y-134493000D02*
X133477000Y-135956300D01*
X105537000Y-131318000D02*
X130302000Y-131318000D01*
X99187000Y-126238000D02*
X99187000Y-124968000D01*
X96012000Y-131953000D02*
X98552000Y-129413000D01*
X101727000Y-124333000D02*
X103632000Y-126238000D01*
X142494000Y-133985000D02*
X142494000Y-131191000D01*
%TO.N,/DTACKL*%
X190246000Y-110363000D02*
X190246000Y-111887000D01*
X180169700Y-129921000D02*
X185249700Y-124841000D01*
X175514000Y-131191000D02*
X175514000Y-133731000D01*
X186016800Y-124841000D02*
X190246000Y-120611800D01*
X176530000Y-129921000D02*
X180169700Y-129921000D01*
X185249700Y-124841000D02*
X186016800Y-124841000D01*
X188214000Y-72263000D02*
X188214000Y-69723000D01*
X190246000Y-120611800D02*
X190246000Y-111887000D01*
X190246000Y-111887000D02*
X193802000Y-115443000D01*
X175514000Y-130937000D02*
X176530000Y-129921000D01*
X175514000Y-133731000D02*
X175514000Y-136271000D01*
%TO.N,Net-(C3-Pad1)*%
X175514000Y-118491000D02*
X175514000Y-121031000D01*
X175514000Y-117555000D02*
X173910000Y-115951000D01*
X175514000Y-118491000D02*
X175514000Y-117555000D01*
%TO.N,Net-(C5-Pad1)*%
X155194000Y-133731000D02*
X152654000Y-136271000D01*
X161290000Y-127635000D02*
X161290000Y-130175000D01*
X162814000Y-126111000D02*
X161290000Y-127635000D01*
X162814000Y-131699000D02*
X162814000Y-133731000D01*
X161290000Y-130175000D02*
X162814000Y-131699000D01*
X155194000Y-131191000D02*
X155194000Y-133731000D01*
%TO.N,Net-(D1-Pad2)*%
X173482000Y-76327000D02*
X173482000Y-78359000D01*
X178617000Y-81462000D02*
X178617000Y-106896800D01*
X179324000Y-112141000D02*
X178054000Y-113411000D01*
X179324000Y-107603800D02*
X179324000Y-112141000D01*
X174625000Y-79502000D02*
X176657000Y-79502000D01*
X173482000Y-78359000D02*
X174625000Y-79502000D01*
X178617000Y-106896800D02*
X179324000Y-107603800D01*
X176657000Y-79502000D02*
X178617000Y-81462000D01*
%TO.N,/GAL2_P9*%
X177764900Y-92672000D02*
X177764900Y-108366100D01*
X177764900Y-108366100D02*
X175514000Y-110617000D01*
X177878200Y-92558700D02*
X177764900Y-92672000D01*
%TO.N,/GAL2_P15*%
X166775400Y-108963500D02*
X167432700Y-109620800D01*
X174498000Y-92583000D02*
X173083200Y-93997800D01*
X167432700Y-118952300D02*
X165354000Y-121031000D01*
X168910000Y-101473000D02*
X167386000Y-101473000D01*
X166775400Y-102083600D02*
X166775400Y-108963500D01*
X167386000Y-101473000D02*
X166775400Y-102083600D01*
X173083200Y-93997800D02*
X173083200Y-97299800D01*
X173083200Y-97299800D02*
X168910000Y-101473000D01*
X167432700Y-109620800D02*
X167432700Y-118952300D01*
%TO.N,/CS175*%
X166624000Y-133731000D02*
X165354000Y-133731000D01*
X136144000Y-134493000D02*
X136144000Y-136271000D01*
X138300500Y-136908500D02*
X140008200Y-135200800D01*
X86487000Y-116078000D02*
X85852000Y-115443000D01*
X85852000Y-115443000D02*
X79490250Y-115443000D01*
X146470900Y-137453900D02*
X166457100Y-137453900D01*
X167132000Y-134239000D02*
X166624000Y-133731000D01*
X110852900Y-129812100D02*
X131572000Y-130048000D01*
X131572000Y-130048000D02*
X136144000Y-134493000D01*
X141224000Y-129667000D02*
X143764000Y-129667000D01*
X71247000Y-112268000D02*
X71247000Y-112178500D01*
X167132000Y-136779000D02*
X167132000Y-134239000D01*
X145034100Y-136017100D02*
X146470900Y-137453900D01*
X104267000Y-123063000D02*
X110852900Y-129812100D01*
X76315249Y-112268000D02*
X71247000Y-112268000D01*
X79490250Y-115443000D02*
X76315249Y-112268000D01*
X166457100Y-137453900D02*
X167132000Y-136779000D01*
X136898420Y-136909180D02*
X136899100Y-136908500D01*
X136144000Y-136271000D02*
X136782180Y-136909180D01*
X100457000Y-116078000D02*
X86487000Y-116078000D01*
X140008200Y-130882800D02*
X141224000Y-129667000D01*
X140008200Y-135200800D02*
X140008200Y-130882800D01*
X136782180Y-136909180D02*
X136898420Y-136909180D01*
X145034100Y-130937100D02*
X145034100Y-136017100D01*
X136899100Y-136908500D02*
X138300500Y-136908500D01*
X143764000Y-129667000D02*
X145034100Y-130937100D01*
%TO.N,/ROM_CE*%
X120777000Y-133383700D02*
X119473300Y-133383700D01*
X119473300Y-133383700D02*
X117094000Y-135763000D01*
D31*
%TO.N,+5V*%
X155194000Y-128611000D02*
X147534000Y-136271000D01*
X45282000Y-139573000D02*
X46861100Y-141152100D01*
X187706000Y-76835000D02*
X187706000Y-95203000D01*
X137287000Y-135763000D02*
X137414000Y-120523000D01*
X166699900Y-112383500D02*
X163849600Y-109533200D01*
X160792000Y-109533200D02*
X160571300Y-109753900D01*
X160782000Y-107823000D02*
X160782000Y-109173000D01*
X162140400Y-109533200D02*
X160792000Y-109533200D01*
X56007000Y-140335000D02*
X55316900Y-141152100D01*
X62230000Y-100711000D02*
X59690000Y-100711000D01*
X166699900Y-117145100D02*
X166699900Y-112383500D01*
X162140400Y-88861400D02*
X160782000Y-87503000D01*
X55316900Y-141152100D02*
X46861100Y-141152100D01*
X155194000Y-126111000D02*
X155194000Y-128611000D01*
X178054000Y-67183000D02*
X187706000Y-76835000D01*
X43942000Y-139573000D02*
X45282000Y-139573000D01*
X160792000Y-109533200D02*
X160792000Y-109183000D01*
X163710380Y-55379380D02*
X163710380Y-84574620D01*
X163849600Y-109533200D02*
X162140400Y-109533200D01*
X160792000Y-109183000D02*
X160782000Y-109173000D01*
X160571300Y-109753900D02*
X160571300Y-116547700D01*
X163710380Y-84574620D02*
X160782000Y-87503000D01*
X59690000Y-77851000D02*
X59690000Y-84455000D01*
X59690000Y-100711000D02*
X69342000Y-110363000D01*
X62230000Y-86995000D02*
X62230000Y-100711000D01*
X161798000Y-53467000D02*
X163710380Y-55379380D01*
X165354000Y-118491000D02*
X166699900Y-117145100D01*
X59690000Y-84455000D02*
X62230000Y-86995000D01*
X162140400Y-109533200D02*
X162140400Y-88861400D01*
D33*
%TO.N,/MUX*%
X171323000Y-100584000D02*
X172974000Y-98933000D01*
X169164000Y-107823000D02*
X173482000Y-112141000D01*
X173482000Y-112141000D02*
X176784000Y-112141000D01*
X168402000Y-107823000D02*
X169330700Y-107823000D01*
X172974000Y-98933000D02*
X175514000Y-98933000D01*
X169164000Y-107823000D02*
X168402000Y-107823000D01*
X168402000Y-87503000D02*
X174498000Y-87503000D01*
X169164000Y-107823000D02*
X171323000Y-105664000D01*
X171323000Y-105664000D02*
X171323000Y-100584000D01*
X175514000Y-98933000D02*
X176146700Y-98300300D01*
X178054000Y-110871000D02*
X176784000Y-112141000D01*
X176146700Y-98300300D02*
X176146700Y-89151700D01*
X176146700Y-89151700D02*
X174498000Y-87503000D01*
%TO.N,/CLKCT*%
X179366300Y-86892900D02*
X179159200Y-87100000D01*
X180086000Y-112395000D02*
X179324000Y-113157000D01*
X179159200Y-87100000D02*
X179159200Y-101403200D01*
X179324000Y-113919000D02*
X178562000Y-114681000D01*
X176530000Y-116205000D02*
X178054000Y-117729000D01*
X179324000Y-78613000D02*
X179366300Y-86892900D01*
X179159200Y-101403200D02*
X180086000Y-102330000D01*
X178054000Y-117729000D02*
X178054000Y-118491000D01*
X177292000Y-114681000D02*
X176530000Y-115443000D01*
X179324000Y-113157000D02*
X179324000Y-113919000D01*
X178562000Y-114681000D02*
X177292000Y-114681000D01*
X176530000Y-115443000D02*
X176530000Y-116205000D01*
X180086000Y-102330000D02*
X180086000Y-112395000D01*
%TO.N,/FDC_WPRT*%
X57277000Y-124333000D02*
X57277000Y-115443000D01*
X57277000Y-115443000D02*
X59817000Y-115443000D01*
X81407000Y-129413000D02*
X81407000Y-126238000D01*
X57912000Y-106553000D02*
X57912000Y-89789000D01*
X59817000Y-115443000D02*
X61087000Y-114173000D01*
X61087000Y-109728000D02*
X57912000Y-106553000D01*
X61087000Y-114173000D02*
X61087000Y-109728000D01*
X57912000Y-89789000D02*
X59690000Y-88011000D01*
X80772000Y-125603000D02*
X58547000Y-125603000D01*
X58547000Y-125603000D02*
X57277000Y-124333000D01*
X81407000Y-126238000D02*
X80772000Y-125603000D01*
%TO.N,/FDC_STEP*%
X72834500Y-130365500D02*
X61404500Y-130365500D01*
X61404500Y-130365500D02*
X58547000Y-133223000D01*
X58547000Y-133223000D02*
X58547000Y-135763000D01*
X73787000Y-129413000D02*
X72834500Y-130365500D01*
%TO.N,/FDC_RD*%
X66167000Y-129413000D02*
X54102000Y-129413000D01*
X53467000Y-128778000D02*
X53467000Y-110871000D01*
X53467000Y-110871000D02*
X56642000Y-110871000D01*
X54102000Y-129413000D02*
X53467000Y-128778000D01*
%TO.N,Net-(R5-Pad1)*%
X155194000Y-121031000D02*
X153797000Y-122428000D01*
X155194000Y-118491000D02*
X155194000Y-121031000D01*
X153797000Y-122428000D02*
X153797000Y-124968000D01*
X153797000Y-124968000D02*
X152654000Y-126111000D01*
%TO.N,Net-(R6-Pad1)*%
X142494000Y-126111000D02*
X147394000Y-131011000D01*
%TO.N,/MA8*%
X170406200Y-128143000D02*
X176022000Y-128143000D01*
X77470000Y-63373000D02*
X70612000Y-63373000D01*
X105042500Y-63373000D02*
X102997000Y-63373000D01*
X140716000Y-64643000D02*
X141986000Y-63373000D01*
X143874400Y-63373000D02*
X151731800Y-71230400D01*
X151731800Y-77817800D02*
X152527000Y-78613000D01*
X107442000Y-64643000D02*
X113157000Y-64643000D01*
X107442000Y-64643000D02*
X106172000Y-64643000D01*
X118001000Y-63518500D02*
X119121000Y-64638000D01*
X78740000Y-64643000D02*
X77470000Y-63373000D01*
X133490000Y-63513500D02*
X130162000Y-63513500D01*
X101732000Y-64638000D02*
X102997000Y-63373000D01*
X158242000Y-96393000D02*
X158242000Y-108458000D01*
X135890000Y-64643000D02*
X140716000Y-64643000D01*
X176022000Y-128143000D02*
X176784000Y-127381000D01*
X80010000Y-64643000D02*
X84111000Y-64643000D01*
X159475550Y-109691550D02*
X158242000Y-108458000D01*
X164084000Y-121820800D02*
X170406200Y-128143000D01*
X176784000Y-127381000D02*
X176784000Y-122301000D01*
X84111000Y-64643000D02*
X85235500Y-63518500D01*
X129037000Y-64638000D02*
X125222000Y-64638000D01*
X106172000Y-64643000D02*
X105042500Y-63373000D01*
X152527000Y-78613000D02*
X152527000Y-88900000D01*
X89299500Y-63518500D02*
X90419000Y-64638000D01*
X90419000Y-64638000D02*
X96637000Y-64638000D01*
X113157000Y-64643000D02*
X114281500Y-63518500D01*
X159475550Y-116749450D02*
X159475550Y-109691550D01*
X70612000Y-63373000D02*
X69342000Y-64643000D01*
X159475550Y-116749450D02*
X162487100Y-119761000D01*
X151731800Y-71230400D02*
X151731800Y-77817800D01*
X80010000Y-64643000D02*
X78740000Y-64643000D01*
X164084000Y-120707500D02*
X164084000Y-121820800D01*
X135890000Y-64643000D02*
X134620000Y-64643000D01*
X163137500Y-119761000D02*
X164084000Y-120707500D01*
X130162000Y-63513500D02*
X129037000Y-64638000D01*
X134620000Y-64643000D02*
X133490000Y-63513500D01*
X96637000Y-64638000D02*
X101732000Y-64638000D01*
X141986000Y-63373000D02*
X143874400Y-63373000D01*
X157607000Y-95758000D02*
X158242000Y-96393000D01*
X85235500Y-63518500D02*
X89299500Y-63518500D01*
X157607000Y-93980000D02*
X157607000Y-95758000D01*
X176784000Y-122301000D02*
X178054000Y-121031000D01*
X152527000Y-88900000D02*
X157607000Y-93980000D01*
X114281500Y-63518500D02*
X118001000Y-63518500D01*
X119121000Y-64638000D02*
X125222000Y-64638000D01*
X162487100Y-119761000D02*
X163137500Y-119761000D01*
%TO.N,/CAS*%
X125222000Y-69718000D02*
X126487000Y-68453000D01*
X80137000Y-69723000D02*
X83947000Y-69723000D01*
X108448000Y-68453000D02*
X123957000Y-68453000D01*
X89027000Y-68453000D02*
X90292000Y-69718000D01*
X105908000Y-68453000D02*
X107178000Y-69723000D01*
X78885500Y-68598500D02*
X80010000Y-69723000D01*
X107178000Y-69723000D02*
X108448000Y-68453000D01*
X96637000Y-69718000D02*
X101859000Y-69718000D01*
X134620000Y-68453000D02*
X135890000Y-69723000D01*
X85217000Y-68453000D02*
X89027000Y-68453000D01*
X101859000Y-69718000D02*
X103124000Y-68453000D01*
X135890000Y-69723000D02*
X138897800Y-69723000D01*
X126487000Y-68453000D02*
X134620000Y-68453000D01*
X123957000Y-68453000D02*
X125222000Y-69718000D01*
X138897800Y-69723000D02*
X141848500Y-66772300D01*
X83947000Y-69723000D02*
X85217000Y-68453000D01*
X90292000Y-69718000D02*
X96637000Y-69718000D01*
X69342000Y-69723000D02*
X73660000Y-69723000D01*
X74784500Y-68598500D02*
X78885500Y-68598500D01*
X103124000Y-68453000D02*
X105908000Y-68453000D01*
X73660000Y-69723000D02*
X74784500Y-68598500D01*
%TO.N,/RAS2*%
X143510000Y-69723000D02*
X140462000Y-69723000D01*
X171781500Y-93708200D02*
X167299200Y-93708200D01*
X143510000Y-69723000D02*
X150678900Y-76891900D01*
X167299200Y-93708200D02*
X166562500Y-92971500D01*
X175646600Y-96514400D02*
X175646600Y-92107800D01*
X174966200Y-91427400D02*
X174062300Y-91427400D01*
X150678900Y-76891900D02*
X150678900Y-90099900D01*
X174062300Y-91427400D02*
X171781500Y-93708200D01*
X132842000Y-69718000D02*
X134117000Y-70993000D01*
X175646600Y-92107800D02*
X174966200Y-91427400D01*
X150678900Y-90099900D02*
X151892000Y-91313000D01*
X174498000Y-97663000D02*
X175646600Y-96514400D01*
X140462000Y-69723000D02*
X139192000Y-70993000D01*
X134117000Y-70993000D02*
X139192000Y-70993000D01*
%TO.N,/RAS1*%
X113528000Y-70993000D02*
X105532000Y-70993000D01*
X147086400Y-82443400D02*
X143383000Y-78740000D01*
X172212000Y-105537000D02*
X172212000Y-101379392D01*
X172974000Y-108585000D02*
X172974000Y-106299000D01*
X114798000Y-69723000D02*
X113528000Y-70993000D01*
X172546196Y-101045196D02*
X173348000Y-100203000D01*
X164478900Y-111542100D02*
X163880000Y-112141000D01*
X137668000Y-76073000D02*
X130302000Y-76073000D01*
X163880000Y-112141000D02*
X161731700Y-112141000D01*
X130302000Y-76073000D02*
X129295200Y-75066200D01*
X172212000Y-101379392D02*
X172546196Y-101045196D01*
X147086400Y-115570300D02*
X147086400Y-82443400D01*
X105532000Y-70993000D02*
X104257000Y-69718000D01*
X161731700Y-112141000D02*
X161496400Y-111905700D01*
X143383000Y-78740000D02*
X140335000Y-78740000D01*
X140335000Y-78740000D02*
X137668000Y-76073000D01*
X129295200Y-75066200D02*
X129295200Y-74048800D01*
X172974000Y-106299000D02*
X172212000Y-105537000D01*
X173348000Y-100203000D02*
X174498000Y-100203000D01*
%TO.N,/RAS0*%
X166878000Y-83693000D02*
X169672000Y-83693000D01*
X156464000Y-54483000D02*
X160684100Y-50262900D01*
X176646800Y-100594200D02*
X174498000Y-102743000D01*
X76962000Y-69723000D02*
X78232000Y-70993000D01*
X172212000Y-86233000D02*
X174843600Y-86233000D01*
X176646800Y-88036200D02*
X176646800Y-100594200D01*
X152908000Y-52197000D02*
X155194000Y-54483000D01*
X87757000Y-69723000D02*
X86487000Y-70993000D01*
X95758000Y-52197000D02*
X152908000Y-52197000D01*
X86487000Y-70993000D02*
X78232000Y-70993000D01*
X94996000Y-52959000D02*
X95758000Y-52197000D01*
X174843600Y-86233000D02*
X176646800Y-88036200D01*
X155194000Y-54483000D02*
X156464000Y-54483000D01*
X164409900Y-81224900D02*
X166878000Y-83693000D01*
X162970100Y-50262900D02*
X164409900Y-51702700D01*
X160684100Y-50262900D02*
X162970100Y-50262900D01*
X164409900Y-51702700D02*
X164409900Y-81224900D01*
X169672000Y-83693000D02*
X172212000Y-86233000D01*
%TO.N,/MA0*%
X130307000Y-64638000D02*
X129032000Y-65913000D01*
X90273500Y-65762500D02*
X103132000Y-65762500D01*
X165298800Y-97099800D02*
X165298800Y-92966800D01*
X132842000Y-64638000D02*
X130307000Y-64638000D01*
X151224100Y-72357100D02*
X151224100Y-88613100D01*
X104257000Y-64638000D02*
X105387000Y-65767500D01*
X151224100Y-88613100D02*
X152654000Y-90043000D01*
X168402000Y-100203000D02*
X165298800Y-97099800D01*
X113673000Y-65767500D02*
X114798000Y-64643000D01*
X105387000Y-65767500D02*
X113673000Y-65767500D01*
X87630000Y-64643000D02*
X89154000Y-64643000D01*
X152654000Y-90043000D02*
X152649701Y-90047299D01*
X116840000Y-64643000D02*
X114798000Y-64643000D01*
X140462000Y-65913000D02*
X134117000Y-65913000D01*
X118110000Y-65913000D02*
X116840000Y-64643000D01*
X103132000Y-65762500D02*
X104257000Y-64638000D01*
X78232000Y-65913000D02*
X84074000Y-65913000D01*
X85344000Y-64643000D02*
X87630000Y-64643000D01*
X89154000Y-64643000D02*
X90273500Y-65762500D01*
X129032000Y-65913000D02*
X118110000Y-65913000D01*
X143510000Y-64643000D02*
X151224100Y-72357100D01*
X143510000Y-64643000D02*
X141732000Y-64643000D01*
X141732000Y-64643000D02*
X140462000Y-65913000D01*
X134117000Y-65913000D02*
X132842000Y-64638000D01*
X84074000Y-65913000D02*
X85344000Y-64643000D01*
X76962000Y-64643000D02*
X78232000Y-65913000D01*
%TO.N,/MA1*%
X101092000Y-63373000D02*
X90932000Y-63373000D01*
X89662000Y-62103000D02*
X87757000Y-62103000D01*
X129032000Y-63373000D02*
X130307000Y-62098000D01*
X90932000Y-63373000D02*
X89662000Y-62103000D01*
X112776000Y-63373000D02*
X114046000Y-62103000D01*
X153416000Y-78105000D02*
X153416000Y-88519000D01*
X143510000Y-62103000D02*
X152390200Y-70983200D01*
X141732000Y-62103000D02*
X140462000Y-63373000D01*
X117856000Y-62103000D02*
X119126000Y-63373000D01*
X130307000Y-62098000D02*
X132842000Y-62098000D01*
X102367000Y-62098000D02*
X101092000Y-63373000D01*
X114046000Y-62103000D02*
X115062000Y-62103000D01*
X119126000Y-63373000D02*
X129032000Y-63373000D01*
X78232000Y-62103000D02*
X76962000Y-62103000D01*
X79502000Y-63373000D02*
X78232000Y-62103000D01*
X104257000Y-62098000D02*
X105339000Y-62098000D01*
X152409800Y-77098800D02*
X153416000Y-78105000D01*
X84074000Y-63373000D02*
X79502000Y-63373000D01*
X85344000Y-62103000D02*
X84074000Y-63373000D01*
X133853000Y-62098000D02*
X132842000Y-62098000D01*
X106614000Y-63373000D02*
X112776000Y-63373000D01*
X153416000Y-88519000D02*
X153924000Y-89027000D01*
X105339000Y-62098000D02*
X106614000Y-63373000D01*
X104257000Y-62098000D02*
X102367000Y-62098000D01*
X114798000Y-62103000D02*
X117856000Y-62103000D01*
X135128000Y-63373000D02*
X133853000Y-62098000D01*
X140462000Y-63373000D02*
X135128000Y-63373000D01*
X89408000Y-62103000D02*
X85344000Y-62103000D01*
X152390200Y-77098800D02*
X152390200Y-70983200D01*
X152390200Y-77098800D02*
X152409800Y-77098800D01*
X143234000Y-62103000D02*
X141732000Y-62103000D01*
%TO.N,/MA6*%
X134874000Y-59563000D02*
X133604000Y-58293000D01*
X112014000Y-59563000D02*
X113284000Y-58293000D01*
X100447000Y-58293000D02*
X99182000Y-59558000D01*
X117856000Y-58293000D02*
X119121000Y-59558000D01*
X80010000Y-59563000D02*
X83820000Y-59563000D01*
X80010000Y-59563000D02*
X78740000Y-58293000D01*
X119121000Y-59558000D02*
X125222000Y-59558000D01*
X105537000Y-58293000D02*
X100447000Y-58293000D01*
X138291000Y-58293000D02*
X153162000Y-58293000D01*
X107442000Y-59563000D02*
X106807000Y-59563000D01*
X99182000Y-59558000D02*
X96637000Y-59558000D01*
X85090000Y-58293000D02*
X90180000Y-58293000D01*
X91445000Y-59558000D02*
X96637000Y-59558000D01*
X130302000Y-58293000D02*
X129037000Y-59558000D01*
X135890000Y-59563000D02*
X137021000Y-59563000D01*
X154432000Y-87249000D02*
X157226000Y-90043000D01*
X157226000Y-90043000D02*
X160782000Y-90043000D01*
X135890000Y-59563000D02*
X134874000Y-59563000D01*
X154432000Y-76327000D02*
X154432000Y-87249000D01*
X106807000Y-59563000D02*
X105537000Y-58293000D01*
X129037000Y-59558000D02*
X125222000Y-59558000D01*
X153670000Y-75565000D02*
X154432000Y-76327000D01*
X90180000Y-58293000D02*
X91445000Y-59558000D01*
X113284000Y-58293000D02*
X117856000Y-58293000D01*
X107178000Y-59563000D02*
X112014000Y-59563000D01*
X133604000Y-58293000D02*
X130302000Y-58293000D01*
X137021000Y-59563000D02*
X138291000Y-58293000D01*
X72390000Y-59563000D02*
X69342000Y-59563000D01*
X73660000Y-58293000D02*
X72390000Y-59563000D01*
X83820000Y-59563000D02*
X85090000Y-58293000D01*
X78740000Y-58293000D02*
X73660000Y-58293000D01*
X153162000Y-58293000D02*
X153670000Y-58801000D01*
X153670000Y-58801000D02*
X153670000Y-75565000D01*
%TO.N,/MA7*%
X80010000Y-62103000D02*
X84074000Y-62103000D01*
X90673000Y-62098000D02*
X89408000Y-60833000D01*
X104902000Y-60833000D02*
X101727000Y-60833000D01*
X100462000Y-62098000D02*
X96637000Y-62098000D01*
X159004000Y-92837000D02*
X153924000Y-87757000D01*
X153115300Y-70016400D02*
X153115300Y-76280300D01*
X130048000Y-60833000D02*
X128783000Y-62098000D01*
X80010000Y-62103000D02*
X79248000Y-62103000D01*
X133858000Y-60833000D02*
X130048000Y-60833000D01*
X70612000Y-60833000D02*
X69342000Y-62103000D01*
X113792000Y-60833000D02*
X112522000Y-62103000D01*
X85344000Y-60833000D02*
X89408000Y-60833000D01*
X159004000Y-95885000D02*
X160782000Y-97663000D01*
X138938000Y-62103000D02*
X140208000Y-60833000D01*
X101727000Y-60833000D02*
X100462000Y-62098000D01*
X79248000Y-62103000D02*
X77978000Y-60833000D01*
X77978000Y-60833000D02*
X70612000Y-60833000D01*
X135890000Y-62103000D02*
X135128000Y-62103000D01*
X140208000Y-60833000D02*
X143931900Y-60833000D01*
X135128000Y-62103000D02*
X133858000Y-60833000D01*
X96637000Y-62098000D02*
X90673000Y-62098000D01*
X153115300Y-76280300D02*
X153924000Y-77089000D01*
X125222000Y-62098000D02*
X119131000Y-62098000D01*
X153924000Y-77089000D02*
X153924000Y-87757000D01*
X119131000Y-62098000D02*
X117866000Y-60833000D01*
X128783000Y-62098000D02*
X125222000Y-62098000D01*
X117866000Y-60833000D02*
X113792000Y-60833000D01*
X135890000Y-62103000D02*
X138938000Y-62103000D01*
X159004000Y-95885000D02*
X159004000Y-92837000D01*
X143931900Y-60833000D02*
X153115300Y-70016400D01*
X112522000Y-62103000D02*
X106172000Y-62103000D01*
X106172000Y-62103000D02*
X104902000Y-60833000D01*
X84074000Y-62103000D02*
X85344000Y-60833000D01*
%TO.N,/MA2*%
X113538000Y-59563000D02*
X118110000Y-59563000D01*
X106807000Y-60833000D02*
X112268000Y-60833000D01*
X91186000Y-60833000D02*
X89916000Y-59563000D01*
X119380000Y-60833000D02*
X129032000Y-60833000D01*
X101097000Y-59558000D02*
X99822000Y-60833000D01*
X118110000Y-59563000D02*
X119380000Y-60833000D01*
X130307000Y-59558000D02*
X132842000Y-59558000D01*
X104257000Y-59558000D02*
X105532000Y-59558000D01*
X112268000Y-60833000D02*
X113538000Y-59563000D01*
X137922000Y-60833000D02*
X139192000Y-59563000D01*
X79502000Y-60833000D02*
X78232000Y-59563000D01*
X104257000Y-59558000D02*
X101097000Y-59558000D01*
X83820000Y-60833000D02*
X79502000Y-60833000D01*
X129032000Y-60833000D02*
X130307000Y-59558000D01*
X99822000Y-60833000D02*
X91186000Y-60833000D01*
X85090000Y-59563000D02*
X83820000Y-60833000D01*
X135128000Y-60833000D02*
X137922000Y-60833000D01*
X132842000Y-59558000D02*
X133853000Y-59558000D01*
X133853000Y-59558000D02*
X135128000Y-60833000D01*
X78232000Y-59563000D02*
X76962000Y-59563000D01*
X89916000Y-59563000D02*
X85090000Y-59563000D01*
X139192000Y-59563000D02*
X143510000Y-59563000D01*
X105532000Y-59558000D02*
X106807000Y-60833000D01*
%TO.N,/MA3*%
X133863000Y-57018000D02*
X132842000Y-57018000D01*
X78232000Y-57023000D02*
X76962000Y-57023000D01*
X137922000Y-57023000D02*
X136652000Y-58293000D01*
X111252000Y-58293000D02*
X112522000Y-57023000D01*
X117856000Y-57023000D02*
X119126000Y-58293000D01*
X104257000Y-57018000D02*
X105532000Y-57018000D01*
X91694000Y-58293000D02*
X90424000Y-57023000D01*
X130297000Y-57018000D02*
X132842000Y-57018000D01*
X83820000Y-58293000D02*
X79502000Y-58293000D01*
X85090000Y-57023000D02*
X83820000Y-58293000D01*
X105532000Y-57018000D02*
X106807000Y-58293000D01*
X104257000Y-57018000D02*
X99827000Y-57018000D01*
X129022000Y-58293000D02*
X130297000Y-57018000D01*
X112522000Y-57023000D02*
X117856000Y-57023000D01*
X106807000Y-58293000D02*
X111252000Y-58293000D01*
X119126000Y-58293000D02*
X129022000Y-58293000D01*
X98552000Y-58293000D02*
X91694000Y-58293000D01*
X135138000Y-58293000D02*
X133863000Y-57018000D01*
X79502000Y-58293000D02*
X78232000Y-57023000D01*
X143510000Y-57023000D02*
X137922000Y-57023000D01*
X99827000Y-57018000D02*
X98552000Y-58293000D01*
X90424000Y-57023000D02*
X85090000Y-57023000D01*
X136652000Y-58293000D02*
X135138000Y-58293000D01*
%TO.N,/MA4*%
X80010000Y-54483000D02*
X83566000Y-54483000D01*
X159766000Y-55753000D02*
X159766000Y-68707000D01*
X96637000Y-54478000D02*
X98049000Y-54478000D01*
X150876500Y-52959500D02*
X153416000Y-55499000D01*
X159512000Y-55499000D02*
X159766000Y-55753000D01*
X90424500Y-52958500D02*
X93726500Y-52958500D01*
X143002000Y-52958500D02*
X141224000Y-54483000D01*
X134366000Y-52959000D02*
X135890000Y-54483000D01*
X69342000Y-54483000D02*
X73152000Y-54483000D01*
X74676000Y-52959000D02*
X78486000Y-52959000D01*
X95246000Y-54478000D02*
X93726500Y-52958500D01*
X85090000Y-52959000D02*
X90424000Y-52959000D01*
X98049000Y-54478000D02*
X99314000Y-53213000D01*
X125222000Y-54478000D02*
X126741000Y-52959000D01*
X159766000Y-68707000D02*
X160782000Y-69723000D01*
X153416000Y-55499000D02*
X159512000Y-55499000D01*
X143003000Y-52958500D02*
X150876500Y-52958500D01*
X73152000Y-54483000D02*
X74676000Y-52959000D01*
X78486000Y-52959000D02*
X80010000Y-54483000D01*
X141224000Y-54483000D02*
X135890000Y-54483000D01*
X106172000Y-53213000D02*
X99314000Y-53213000D01*
X95246000Y-54478000D02*
X96637000Y-54478000D01*
X123703000Y-52959000D02*
X125222000Y-54478000D01*
X83566000Y-54483000D02*
X85090000Y-52959000D01*
X107442000Y-54483000D02*
X106172000Y-53213000D01*
X107178000Y-54483000D02*
X108458000Y-54483000D01*
X109982000Y-52959000D02*
X123703000Y-52959000D01*
X126741000Y-52959000D02*
X134366000Y-52959000D01*
X90424000Y-52959000D02*
X90424500Y-52958500D01*
X108458000Y-54483000D02*
X109982000Y-52959000D01*
%TO.N,/MA5*%
X74930000Y-55753000D02*
X73660000Y-57023000D01*
X125222000Y-57018000D02*
X129037000Y-57018000D01*
X78740000Y-55753000D02*
X74930000Y-55753000D01*
X145687000Y-55898500D02*
X137015000Y-55898500D01*
X137015000Y-55898500D02*
X135890000Y-57023000D01*
X109982000Y-57023000D02*
X107178000Y-57023000D01*
X134620000Y-55753000D02*
X135890000Y-57023000D01*
X111107000Y-55898500D02*
X109982000Y-57023000D01*
X125222000Y-57018000D02*
X118867000Y-57018000D01*
X98049000Y-57018000D02*
X99314000Y-55753000D01*
X99314000Y-55753000D02*
X106172000Y-55753000D01*
X159004000Y-56515000D02*
X158750000Y-56261000D01*
X90307500Y-55753000D02*
X91572500Y-57018000D01*
X159004000Y-75565000D02*
X159004000Y-56515000D01*
X80010000Y-57023000D02*
X83820000Y-57023000D01*
X117747000Y-55898500D02*
X111107000Y-55898500D01*
X146050000Y-56261000D02*
X145687000Y-55898500D01*
X160782000Y-77343000D02*
X159004000Y-75565000D01*
X96637000Y-57018000D02*
X98049000Y-57018000D01*
X91572500Y-57018000D02*
X96637000Y-57018000D01*
X158750000Y-56261000D02*
X146050000Y-56261000D01*
X130302000Y-55753000D02*
X134620000Y-55753000D01*
X85090000Y-55753000D02*
X90307500Y-55753000D01*
X83820000Y-57023000D02*
X85090000Y-55753000D01*
X107442000Y-57023000D02*
X106172000Y-55753000D01*
X129037000Y-57018000D02*
X130302000Y-55753000D01*
X118867000Y-57018000D02*
X117747000Y-55898500D01*
X80010000Y-57023000D02*
X78740000Y-55753000D01*
X73660000Y-57023000D02*
X69342000Y-57023000D01*
%TO.N,/FDC_WG*%
X95619000Y-134493000D02*
X99424000Y-130688000D01*
X72517000Y-134493000D02*
X95619000Y-134493000D01*
X99424000Y-130688000D02*
X100574000Y-130688000D01*
X71247000Y-135763000D02*
X72517000Y-134493000D01*
%TO.N,/FDC_DIR*%
X101727000Y-141478000D02*
X101699100Y-138457900D01*
X102997000Y-137160000D02*
X102997000Y-126873000D01*
X101699100Y-138457900D02*
X102997000Y-137160000D01*
X102997000Y-126873000D02*
X101732000Y-125608000D01*
X101732000Y-125608000D02*
X100574000Y-125608000D01*
%TO.N,Net-(U1-Pad13)*%
X179832000Y-113665000D02*
X180721000Y-112776000D01*
X182118000Y-107315000D02*
X182118000Y-105283000D01*
X179832000Y-115189000D02*
X179832000Y-113665000D01*
X178054000Y-115951000D02*
X179070000Y-115951000D01*
X179070000Y-115951000D02*
X179832000Y-115189000D01*
X180721000Y-112776000D02*
X180721000Y-108712000D01*
X180721000Y-108712000D02*
X182118000Y-107315000D01*
%TD*%
%TA.AperFunction,Conductor*%
%TO.N,GND*%
G36*
X67757686Y-54001745D02*
G01*
X67804190Y-54055391D01*
X67815587Y-54107745D01*
X67817467Y-73590879D01*
X67818000Y-79121000D01*
X141674465Y-79121000D01*
X141742586Y-79141002D01*
X141769681Y-79164478D01*
X144868106Y-82739583D01*
X145003296Y-82895572D01*
X145032795Y-82960150D01*
X145034079Y-82977880D01*
X145034644Y-83313621D01*
X145049144Y-91924114D01*
X145029257Y-91992268D01*
X144975679Y-92038851D01*
X144924953Y-92050313D01*
X139715342Y-92125106D01*
X139715328Y-92138162D01*
X139715328Y-92138163D01*
X139713247Y-94095634D01*
X139693172Y-94163733D01*
X139639467Y-94210169D01*
X139587247Y-94221500D01*
X123502738Y-94221500D01*
X123502738Y-106692500D01*
X144213262Y-106692500D01*
X144213262Y-106678953D01*
X144216141Y-106665717D01*
X144217101Y-106665926D01*
X144233264Y-106610879D01*
X144286920Y-106564386D01*
X144339262Y-106553000D01*
X144908000Y-106553000D01*
X144976121Y-106573002D01*
X145022614Y-106626658D01*
X145034000Y-106679000D01*
X145034000Y-114809000D01*
X145013998Y-114877121D01*
X144960342Y-114923614D01*
X144908000Y-114935000D01*
X106806000Y-114935000D01*
X106737879Y-114914998D01*
X106691386Y-114861342D01*
X106680000Y-114809000D01*
X106680000Y-113886500D01*
X130962929Y-113886500D01*
X134721072Y-113886500D01*
X134721072Y-107855500D01*
X130962929Y-107855500D01*
X130962929Y-113886500D01*
X106680000Y-113886500D01*
X106680000Y-111757215D01*
X106700002Y-111689094D01*
X106753658Y-111642601D01*
X106804202Y-111631228D01*
X124441886Y-111379519D01*
X124441888Y-111379518D01*
X124460000Y-111379260D01*
X124460100Y-108839260D01*
X124446555Y-108839259D01*
X124446553Y-108839259D01*
X118485375Y-108839025D01*
X117982001Y-108839005D01*
X117913881Y-108819000D01*
X117867390Y-108765343D01*
X117856006Y-108712999D01*
X117856658Y-94225975D01*
X117856778Y-91569967D01*
X117843134Y-91570008D01*
X117843133Y-91570008D01*
X99356181Y-91625944D01*
X79625739Y-91685643D01*
X79557559Y-91665848D01*
X79510904Y-91612333D01*
X79499360Y-91560002D01*
X79496909Y-90697643D01*
X79496858Y-90679526D01*
X75809909Y-90691183D01*
X66674398Y-90720068D01*
X66606215Y-90700282D01*
X66559552Y-90646773D01*
X66548000Y-90594069D01*
X66548000Y-86233000D01*
X64332062Y-84017062D01*
X68620493Y-84017062D01*
X68629789Y-84029077D01*
X68680994Y-84064931D01*
X68690489Y-84070414D01*
X68887947Y-84162490D01*
X68898239Y-84166236D01*
X69108688Y-84222625D01*
X69119481Y-84224528D01*
X69336525Y-84243517D01*
X69347475Y-84243517D01*
X69564519Y-84224528D01*
X69575312Y-84222625D01*
X69785761Y-84166236D01*
X69796053Y-84162490D01*
X69993511Y-84070414D01*
X70003006Y-84064931D01*
X70055048Y-84028491D01*
X70063424Y-84018012D01*
X70062925Y-84017062D01*
X79288493Y-84017062D01*
X79297789Y-84029077D01*
X79348994Y-84064931D01*
X79358489Y-84070414D01*
X79555947Y-84162490D01*
X79566239Y-84166236D01*
X79776688Y-84222625D01*
X79787481Y-84224528D01*
X80004525Y-84243517D01*
X80015475Y-84243517D01*
X80232519Y-84224528D01*
X80243312Y-84222625D01*
X80453761Y-84166236D01*
X80464053Y-84162490D01*
X80661511Y-84070414D01*
X80671006Y-84064931D01*
X80723048Y-84028491D01*
X80731424Y-84018012D01*
X80730925Y-84017062D01*
X95925493Y-84017062D01*
X95934789Y-84029077D01*
X95985994Y-84064931D01*
X95995489Y-84070414D01*
X96192947Y-84162490D01*
X96203239Y-84166236D01*
X96413688Y-84222625D01*
X96424481Y-84224528D01*
X96641525Y-84243517D01*
X96652475Y-84243517D01*
X96869519Y-84224528D01*
X96880312Y-84222625D01*
X97090761Y-84166236D01*
X97101053Y-84162490D01*
X97298511Y-84070414D01*
X97308006Y-84064931D01*
X97360048Y-84028491D01*
X97368424Y-84018012D01*
X97367925Y-84017062D01*
X106720493Y-84017062D01*
X106729789Y-84029077D01*
X106780994Y-84064931D01*
X106790489Y-84070414D01*
X106987947Y-84162490D01*
X106998239Y-84166236D01*
X107208688Y-84222625D01*
X107219481Y-84224528D01*
X107436525Y-84243517D01*
X107447475Y-84243517D01*
X107664519Y-84224528D01*
X107675312Y-84222625D01*
X107885761Y-84166236D01*
X107896053Y-84162490D01*
X108093511Y-84070414D01*
X108103006Y-84064931D01*
X108155048Y-84028491D01*
X108163424Y-84018012D01*
X108162925Y-84017062D01*
X124500493Y-84017062D01*
X124509789Y-84029077D01*
X124560994Y-84064931D01*
X124570489Y-84070414D01*
X124767947Y-84162490D01*
X124778239Y-84166236D01*
X124988688Y-84222625D01*
X124999481Y-84224528D01*
X125216525Y-84243517D01*
X125227475Y-84243517D01*
X125444519Y-84224528D01*
X125455312Y-84222625D01*
X125665761Y-84166236D01*
X125676053Y-84162490D01*
X125873511Y-84070414D01*
X125883006Y-84064931D01*
X125935048Y-84028491D01*
X125943424Y-84018012D01*
X125942925Y-84017062D01*
X135168493Y-84017062D01*
X135177789Y-84029077D01*
X135228994Y-84064931D01*
X135238489Y-84070414D01*
X135435947Y-84162490D01*
X135446239Y-84166236D01*
X135656688Y-84222625D01*
X135667481Y-84224528D01*
X135884525Y-84243517D01*
X135895475Y-84243517D01*
X136112519Y-84224528D01*
X136123312Y-84222625D01*
X136333761Y-84166236D01*
X136344053Y-84162490D01*
X136541511Y-84070414D01*
X136551006Y-84064931D01*
X136603048Y-84028491D01*
X136611424Y-84018012D01*
X136604356Y-84004566D01*
X135902812Y-83303022D01*
X135888868Y-83295408D01*
X135887035Y-83295539D01*
X135880420Y-83299790D01*
X135174923Y-84005287D01*
X135168493Y-84017062D01*
X125942925Y-84017062D01*
X125936356Y-84004566D01*
X125234812Y-83303022D01*
X125220868Y-83295408D01*
X125219035Y-83295539D01*
X125212420Y-83299790D01*
X124506923Y-84005287D01*
X124500493Y-84017062D01*
X108162925Y-84017062D01*
X108156356Y-84004566D01*
X107454812Y-83303022D01*
X107440868Y-83295408D01*
X107439035Y-83295539D01*
X107432420Y-83299790D01*
X106726923Y-84005287D01*
X106720493Y-84017062D01*
X97367925Y-84017062D01*
X97361356Y-84004566D01*
X96659812Y-83303022D01*
X96645868Y-83295408D01*
X96644035Y-83295539D01*
X96637420Y-83299790D01*
X95931923Y-84005287D01*
X95925493Y-84017062D01*
X80730925Y-84017062D01*
X80724356Y-84004566D01*
X80022812Y-83303022D01*
X80008868Y-83295408D01*
X80007035Y-83295539D01*
X80000420Y-83299790D01*
X79294923Y-84005287D01*
X79288493Y-84017062D01*
X70062925Y-84017062D01*
X70056356Y-84004566D01*
X69354812Y-83303022D01*
X69340868Y-83295408D01*
X69339035Y-83295539D01*
X69332420Y-83299790D01*
X68626923Y-84005287D01*
X68620493Y-84017062D01*
X64332062Y-84017062D01*
X64262000Y-83947000D01*
X64251357Y-83947003D01*
X64251356Y-83947003D01*
X62538339Y-83947535D01*
X62108609Y-83947668D01*
X62040482Y-83927687D01*
X61993973Y-83874046D01*
X61982570Y-83821727D01*
X61982153Y-82936475D01*
X68029483Y-82936475D01*
X68048472Y-83153519D01*
X68050375Y-83164312D01*
X68106764Y-83374761D01*
X68110510Y-83385053D01*
X68202586Y-83582511D01*
X68208069Y-83592006D01*
X68244509Y-83644048D01*
X68254988Y-83652424D01*
X68268434Y-83645356D01*
X68969978Y-82943812D01*
X68976356Y-82932132D01*
X69706408Y-82932132D01*
X69706539Y-82933965D01*
X69710790Y-82940580D01*
X70416287Y-83646077D01*
X70428062Y-83652507D01*
X70440077Y-83643211D01*
X70475931Y-83592006D01*
X70481414Y-83582511D01*
X70573490Y-83385053D01*
X70577236Y-83374761D01*
X70633625Y-83164312D01*
X70635528Y-83153519D01*
X70654517Y-82936475D01*
X70654517Y-82925525D01*
X70653829Y-82917665D01*
X73386994Y-82917665D01*
X73402592Y-83103414D01*
X73453971Y-83282595D01*
X73539176Y-83448385D01*
X73654959Y-83594468D01*
X73796912Y-83715279D01*
X73959627Y-83806217D01*
X74136907Y-83863819D01*
X74321998Y-83885890D01*
X74328133Y-83885418D01*
X74328135Y-83885418D01*
X74501710Y-83872062D01*
X74501715Y-83872061D01*
X74507851Y-83871589D01*
X74513781Y-83869933D01*
X74513783Y-83869933D01*
X74681459Y-83823117D01*
X74681458Y-83823117D01*
X74687387Y-83821462D01*
X74853768Y-83737417D01*
X74878255Y-83718286D01*
X74995794Y-83626454D01*
X74995795Y-83626453D01*
X75000655Y-83622656D01*
X75122454Y-83481550D01*
X75214526Y-83319474D01*
X75273364Y-83142601D01*
X75288826Y-83020213D01*
X75296285Y-82961170D01*
X75296286Y-82961163D01*
X75296727Y-82957668D01*
X75297023Y-82936475D01*
X78697483Y-82936475D01*
X78716472Y-83153519D01*
X78718375Y-83164312D01*
X78774764Y-83374761D01*
X78778510Y-83385053D01*
X78870586Y-83582511D01*
X78876069Y-83592006D01*
X78912509Y-83644048D01*
X78922988Y-83652424D01*
X78936434Y-83645356D01*
X79637978Y-82943812D01*
X79644356Y-82932132D01*
X80374408Y-82932132D01*
X80374539Y-82933965D01*
X80378790Y-82940580D01*
X81084287Y-83646077D01*
X81096062Y-83652507D01*
X81108077Y-83643211D01*
X81143931Y-83592006D01*
X81149414Y-83582511D01*
X81241490Y-83385053D01*
X81245236Y-83374761D01*
X81301625Y-83164312D01*
X81303528Y-83153519D01*
X81322517Y-82936475D01*
X81322517Y-82925525D01*
X81321829Y-82917665D01*
X84054994Y-82917665D01*
X84070592Y-83103414D01*
X84121971Y-83282595D01*
X84207176Y-83448385D01*
X84322959Y-83594468D01*
X84464912Y-83715279D01*
X84627627Y-83806217D01*
X84804907Y-83863819D01*
X84989998Y-83885890D01*
X84996133Y-83885418D01*
X84996135Y-83885418D01*
X85169710Y-83872062D01*
X85169715Y-83872061D01*
X85175851Y-83871589D01*
X85181781Y-83869933D01*
X85181783Y-83869933D01*
X85349459Y-83823117D01*
X85349458Y-83823117D01*
X85355387Y-83821462D01*
X85521768Y-83737417D01*
X85546255Y-83718286D01*
X85663794Y-83626454D01*
X85663795Y-83626453D01*
X85668655Y-83622656D01*
X85790454Y-83481550D01*
X85882526Y-83319474D01*
X85941364Y-83142601D01*
X85956826Y-83020213D01*
X85964285Y-82961170D01*
X85964286Y-82961163D01*
X85964727Y-82957668D01*
X85965023Y-82936475D01*
X95334483Y-82936475D01*
X95353472Y-83153519D01*
X95355375Y-83164312D01*
X95411764Y-83374761D01*
X95415510Y-83385053D01*
X95507586Y-83582511D01*
X95513069Y-83592006D01*
X95549509Y-83644048D01*
X95559988Y-83652424D01*
X95573434Y-83645356D01*
X96274978Y-82943812D01*
X96281356Y-82932132D01*
X97011408Y-82932132D01*
X97011539Y-82933965D01*
X97015790Y-82940580D01*
X97721287Y-83646077D01*
X97733062Y-83652507D01*
X97745077Y-83643211D01*
X97780931Y-83592006D01*
X97786414Y-83582511D01*
X97878490Y-83385053D01*
X97882236Y-83374761D01*
X97938625Y-83164312D01*
X97940528Y-83153519D01*
X97959517Y-82936475D01*
X97959517Y-82925525D01*
X97958829Y-82917665D01*
X100691994Y-82917665D01*
X100707592Y-83103414D01*
X100758971Y-83282595D01*
X100844176Y-83448385D01*
X100959959Y-83594468D01*
X101101912Y-83715279D01*
X101264627Y-83806217D01*
X101441907Y-83863819D01*
X101626998Y-83885890D01*
X101633133Y-83885418D01*
X101633135Y-83885418D01*
X101806710Y-83872062D01*
X101806715Y-83872061D01*
X101812851Y-83871589D01*
X101818781Y-83869933D01*
X101818783Y-83869933D01*
X101986459Y-83823117D01*
X101986458Y-83823117D01*
X101992387Y-83821462D01*
X102158768Y-83737417D01*
X102183255Y-83718286D01*
X102300794Y-83626454D01*
X102300795Y-83626453D01*
X102305655Y-83622656D01*
X102427454Y-83481550D01*
X102519526Y-83319474D01*
X102578364Y-83142601D01*
X102593826Y-83020213D01*
X102601285Y-82961170D01*
X102601286Y-82961163D01*
X102601727Y-82957668D01*
X102602023Y-82936475D01*
X106129483Y-82936475D01*
X106148472Y-83153519D01*
X106150375Y-83164312D01*
X106206764Y-83374761D01*
X106210510Y-83385053D01*
X106302586Y-83582511D01*
X106308069Y-83592006D01*
X106344509Y-83644048D01*
X106354988Y-83652424D01*
X106368434Y-83645356D01*
X107069978Y-82943812D01*
X107076356Y-82932132D01*
X107806408Y-82932132D01*
X107806539Y-82933965D01*
X107810790Y-82940580D01*
X108516287Y-83646077D01*
X108528062Y-83652507D01*
X108540077Y-83643211D01*
X108575931Y-83592006D01*
X108581414Y-83582511D01*
X108673490Y-83385053D01*
X108677236Y-83374761D01*
X108733625Y-83164312D01*
X108735528Y-83153519D01*
X108754517Y-82936475D01*
X108754517Y-82925525D01*
X108753829Y-82917665D01*
X111486994Y-82917665D01*
X111502592Y-83103414D01*
X111553971Y-83282595D01*
X111639176Y-83448385D01*
X111754959Y-83594468D01*
X111896912Y-83715279D01*
X112059627Y-83806217D01*
X112236907Y-83863819D01*
X112421998Y-83885890D01*
X112428133Y-83885418D01*
X112428135Y-83885418D01*
X112601710Y-83872062D01*
X112601715Y-83872061D01*
X112607851Y-83871589D01*
X112613781Y-83869933D01*
X112613783Y-83869933D01*
X112781459Y-83823117D01*
X112781458Y-83823117D01*
X112787387Y-83821462D01*
X112953768Y-83737417D01*
X112978255Y-83718286D01*
X113095794Y-83626454D01*
X113095795Y-83626453D01*
X113100655Y-83622656D01*
X113222454Y-83481550D01*
X113314526Y-83319474D01*
X113373364Y-83142601D01*
X113388826Y-83020213D01*
X113396285Y-82961170D01*
X113396286Y-82961163D01*
X113396727Y-82957668D01*
X113397023Y-82936475D01*
X123909483Y-82936475D01*
X123928472Y-83153519D01*
X123930375Y-83164312D01*
X123986764Y-83374761D01*
X123990510Y-83385053D01*
X124082586Y-83582511D01*
X124088069Y-83592006D01*
X124124509Y-83644048D01*
X124134988Y-83652424D01*
X124148434Y-83645356D01*
X124849978Y-82943812D01*
X124856356Y-82932132D01*
X125586408Y-82932132D01*
X125586539Y-82933965D01*
X125590790Y-82940580D01*
X126296287Y-83646077D01*
X126308062Y-83652507D01*
X126320077Y-83643211D01*
X126355931Y-83592006D01*
X126361414Y-83582511D01*
X126453490Y-83385053D01*
X126457236Y-83374761D01*
X126513625Y-83164312D01*
X126515528Y-83153519D01*
X126534517Y-82936475D01*
X126534517Y-82925525D01*
X126533829Y-82917665D01*
X129266994Y-82917665D01*
X129282592Y-83103414D01*
X129333971Y-83282595D01*
X129419176Y-83448385D01*
X129534959Y-83594468D01*
X129676912Y-83715279D01*
X129839627Y-83806217D01*
X130016907Y-83863819D01*
X130201998Y-83885890D01*
X130208133Y-83885418D01*
X130208135Y-83885418D01*
X130381710Y-83872062D01*
X130381715Y-83872061D01*
X130387851Y-83871589D01*
X130393781Y-83869933D01*
X130393783Y-83869933D01*
X130561459Y-83823117D01*
X130561458Y-83823117D01*
X130567387Y-83821462D01*
X130733768Y-83737417D01*
X130758255Y-83718286D01*
X130875794Y-83626454D01*
X130875795Y-83626453D01*
X130880655Y-83622656D01*
X131002454Y-83481550D01*
X131094526Y-83319474D01*
X131153364Y-83142601D01*
X131168826Y-83020213D01*
X131176285Y-82961170D01*
X131176286Y-82961163D01*
X131176727Y-82957668D01*
X131177023Y-82936475D01*
X134577483Y-82936475D01*
X134596472Y-83153519D01*
X134598375Y-83164312D01*
X134654764Y-83374761D01*
X134658510Y-83385053D01*
X134750586Y-83582511D01*
X134756069Y-83592006D01*
X134792509Y-83644048D01*
X134802988Y-83652424D01*
X134816434Y-83645356D01*
X135517978Y-82943812D01*
X135524356Y-82932132D01*
X136254408Y-82932132D01*
X136254539Y-82933965D01*
X136258790Y-82940580D01*
X136964287Y-83646077D01*
X136976062Y-83652507D01*
X136988077Y-83643211D01*
X137023931Y-83592006D01*
X137029414Y-83582511D01*
X137121490Y-83385053D01*
X137125236Y-83374761D01*
X137181625Y-83164312D01*
X137183528Y-83153519D01*
X137202517Y-82936475D01*
X137202517Y-82925525D01*
X137201829Y-82917665D01*
X139934994Y-82917665D01*
X139950592Y-83103414D01*
X140001971Y-83282595D01*
X140087176Y-83448385D01*
X140202959Y-83594468D01*
X140344912Y-83715279D01*
X140507627Y-83806217D01*
X140684907Y-83863819D01*
X140869998Y-83885890D01*
X140876133Y-83885418D01*
X140876135Y-83885418D01*
X141049710Y-83872062D01*
X141049715Y-83872061D01*
X141055851Y-83871589D01*
X141061781Y-83869933D01*
X141061783Y-83869933D01*
X141229459Y-83823117D01*
X141229458Y-83823117D01*
X141235387Y-83821462D01*
X141401768Y-83737417D01*
X141426255Y-83718286D01*
X141543794Y-83626454D01*
X141543795Y-83626453D01*
X141548655Y-83622656D01*
X141670454Y-83481550D01*
X141762526Y-83319474D01*
X141821364Y-83142601D01*
X141836826Y-83020213D01*
X141844285Y-82961170D01*
X141844286Y-82961163D01*
X141844727Y-82957668D01*
X141845099Y-82931000D01*
X141826909Y-82745487D01*
X141825128Y-82739588D01*
X141825127Y-82739583D01*
X141774814Y-82572939D01*
X141773033Y-82567040D01*
X141685522Y-82402456D01*
X141681632Y-82397686D01*
X141681629Y-82397682D01*
X141571605Y-82262780D01*
X141571602Y-82262777D01*
X141567710Y-82258005D01*
X141562056Y-82253327D01*
X141428834Y-82143116D01*
X141424085Y-82139187D01*
X141260116Y-82050529D01*
X141171082Y-82022969D01*
X141087936Y-81997231D01*
X141087933Y-81997230D01*
X141082049Y-81995409D01*
X141075924Y-81994765D01*
X141075923Y-81994765D01*
X140902796Y-81976568D01*
X140902795Y-81976568D01*
X140896668Y-81975924D01*
X140818549Y-81983033D01*
X140717171Y-81992259D01*
X140717168Y-81992260D01*
X140711032Y-81992818D01*
X140705122Y-81994557D01*
X140705119Y-81994558D01*
X140538129Y-82043707D01*
X140532214Y-82045448D01*
X140367023Y-82131807D01*
X140221752Y-82248608D01*
X140101935Y-82391401D01*
X140098971Y-82396793D01*
X140098968Y-82396797D01*
X140049247Y-82487239D01*
X140012135Y-82554746D01*
X140010274Y-82560613D01*
X140010273Y-82560615D01*
X139968057Y-82693698D01*
X139955772Y-82732424D01*
X139934994Y-82917665D01*
X137201829Y-82917665D01*
X137183528Y-82708481D01*
X137181625Y-82697688D01*
X137125236Y-82487239D01*
X137121490Y-82476947D01*
X137029414Y-82279489D01*
X137023931Y-82269994D01*
X136987491Y-82217952D01*
X136977012Y-82209576D01*
X136963566Y-82216644D01*
X136262022Y-82918188D01*
X136254408Y-82932132D01*
X135524356Y-82932132D01*
X135525592Y-82929868D01*
X135525461Y-82928035D01*
X135521210Y-82921420D01*
X134815713Y-82215923D01*
X134803938Y-82209493D01*
X134791923Y-82218789D01*
X134756069Y-82269994D01*
X134750586Y-82279489D01*
X134658510Y-82476947D01*
X134654764Y-82487239D01*
X134598375Y-82697688D01*
X134596472Y-82708481D01*
X134577483Y-82925525D01*
X134577483Y-82936475D01*
X131177023Y-82936475D01*
X131177099Y-82931000D01*
X131158909Y-82745487D01*
X131157128Y-82739588D01*
X131157127Y-82739583D01*
X131106814Y-82572939D01*
X131105033Y-82567040D01*
X131017522Y-82402456D01*
X131013632Y-82397686D01*
X131013629Y-82397682D01*
X130903605Y-82262780D01*
X130903602Y-82262777D01*
X130899710Y-82258005D01*
X130894056Y-82253327D01*
X130760834Y-82143116D01*
X130756085Y-82139187D01*
X130592116Y-82050529D01*
X130503082Y-82022969D01*
X130419936Y-81997231D01*
X130419933Y-81997230D01*
X130414049Y-81995409D01*
X130407924Y-81994765D01*
X130407923Y-81994765D01*
X130234796Y-81976568D01*
X130234795Y-81976568D01*
X130228668Y-81975924D01*
X130150549Y-81983033D01*
X130049171Y-81992259D01*
X130049168Y-81992260D01*
X130043032Y-81992818D01*
X130037122Y-81994557D01*
X130037119Y-81994558D01*
X129870129Y-82043707D01*
X129864214Y-82045448D01*
X129699023Y-82131807D01*
X129553752Y-82248608D01*
X129433935Y-82391401D01*
X129430971Y-82396793D01*
X129430968Y-82396797D01*
X129381247Y-82487239D01*
X129344135Y-82554746D01*
X129342274Y-82560613D01*
X129342273Y-82560615D01*
X129300057Y-82693698D01*
X129287772Y-82732424D01*
X129266994Y-82917665D01*
X126533829Y-82917665D01*
X126515528Y-82708481D01*
X126513625Y-82697688D01*
X126457236Y-82487239D01*
X126453490Y-82476947D01*
X126361414Y-82279489D01*
X126355931Y-82269994D01*
X126319491Y-82217952D01*
X126309012Y-82209576D01*
X126295566Y-82216644D01*
X125594022Y-82918188D01*
X125586408Y-82932132D01*
X124856356Y-82932132D01*
X124857592Y-82929868D01*
X124857461Y-82928035D01*
X124853210Y-82921420D01*
X124147713Y-82215923D01*
X124135938Y-82209493D01*
X124123923Y-82218789D01*
X124088069Y-82269994D01*
X124082586Y-82279489D01*
X123990510Y-82476947D01*
X123986764Y-82487239D01*
X123930375Y-82697688D01*
X123928472Y-82708481D01*
X123909483Y-82925525D01*
X123909483Y-82936475D01*
X113397023Y-82936475D01*
X113397099Y-82931000D01*
X113378909Y-82745487D01*
X113377128Y-82739588D01*
X113377127Y-82739583D01*
X113326814Y-82572939D01*
X113325033Y-82567040D01*
X113237522Y-82402456D01*
X113233632Y-82397686D01*
X113233629Y-82397682D01*
X113123605Y-82262780D01*
X113123602Y-82262777D01*
X113119710Y-82258005D01*
X113114056Y-82253327D01*
X112980834Y-82143116D01*
X112976085Y-82139187D01*
X112812116Y-82050529D01*
X112723082Y-82022969D01*
X112639936Y-81997231D01*
X112639933Y-81997230D01*
X112634049Y-81995409D01*
X112627924Y-81994765D01*
X112627923Y-81994765D01*
X112454796Y-81976568D01*
X112454795Y-81976568D01*
X112448668Y-81975924D01*
X112370549Y-81983033D01*
X112269171Y-81992259D01*
X112269168Y-81992260D01*
X112263032Y-81992818D01*
X112257122Y-81994557D01*
X112257119Y-81994558D01*
X112090129Y-82043707D01*
X112084214Y-82045448D01*
X111919023Y-82131807D01*
X111773752Y-82248608D01*
X111653935Y-82391401D01*
X111650971Y-82396793D01*
X111650968Y-82396797D01*
X111601247Y-82487239D01*
X111564135Y-82554746D01*
X111562274Y-82560613D01*
X111562273Y-82560615D01*
X111520057Y-82693698D01*
X111507772Y-82732424D01*
X111486994Y-82917665D01*
X108753829Y-82917665D01*
X108735528Y-82708481D01*
X108733625Y-82697688D01*
X108677236Y-82487239D01*
X108673490Y-82476947D01*
X108581414Y-82279489D01*
X108575931Y-82269994D01*
X108539491Y-82217952D01*
X108529012Y-82209576D01*
X108515566Y-82216644D01*
X107814022Y-82918188D01*
X107806408Y-82932132D01*
X107076356Y-82932132D01*
X107077592Y-82929868D01*
X107077461Y-82928035D01*
X107073210Y-82921420D01*
X106367713Y-82215923D01*
X106355938Y-82209493D01*
X106343923Y-82218789D01*
X106308069Y-82269994D01*
X106302586Y-82279489D01*
X106210510Y-82476947D01*
X106206764Y-82487239D01*
X106150375Y-82697688D01*
X106148472Y-82708481D01*
X106129483Y-82925525D01*
X106129483Y-82936475D01*
X102602023Y-82936475D01*
X102602099Y-82931000D01*
X102583909Y-82745487D01*
X102582128Y-82739588D01*
X102582127Y-82739583D01*
X102531814Y-82572939D01*
X102530033Y-82567040D01*
X102442522Y-82402456D01*
X102438632Y-82397686D01*
X102438629Y-82397682D01*
X102328605Y-82262780D01*
X102328602Y-82262777D01*
X102324710Y-82258005D01*
X102319056Y-82253327D01*
X102185834Y-82143116D01*
X102181085Y-82139187D01*
X102017116Y-82050529D01*
X101928082Y-82022969D01*
X101844936Y-81997231D01*
X101844933Y-81997230D01*
X101839049Y-81995409D01*
X101832924Y-81994765D01*
X101832923Y-81994765D01*
X101659796Y-81976568D01*
X101659795Y-81976568D01*
X101653668Y-81975924D01*
X101575549Y-81983033D01*
X101474171Y-81992259D01*
X101474168Y-81992260D01*
X101468032Y-81992818D01*
X101462122Y-81994557D01*
X101462119Y-81994558D01*
X101295129Y-82043707D01*
X101289214Y-82045448D01*
X101124023Y-82131807D01*
X100978752Y-82248608D01*
X100858935Y-82391401D01*
X100855971Y-82396793D01*
X100855968Y-82396797D01*
X100806247Y-82487239D01*
X100769135Y-82554746D01*
X100767274Y-82560613D01*
X100767273Y-82560615D01*
X100725057Y-82693698D01*
X100712772Y-82732424D01*
X100691994Y-82917665D01*
X97958829Y-82917665D01*
X97940528Y-82708481D01*
X97938625Y-82697688D01*
X97882236Y-82487239D01*
X97878490Y-82476947D01*
X97786414Y-82279489D01*
X97780931Y-82269994D01*
X97744491Y-82217952D01*
X97734012Y-82209576D01*
X97720566Y-82216644D01*
X97019022Y-82918188D01*
X97011408Y-82932132D01*
X96281356Y-82932132D01*
X96282592Y-82929868D01*
X96282461Y-82928035D01*
X96278210Y-82921420D01*
X95572713Y-82215923D01*
X95560938Y-82209493D01*
X95548923Y-82218789D01*
X95513069Y-82269994D01*
X95507586Y-82279489D01*
X95415510Y-82476947D01*
X95411764Y-82487239D01*
X95355375Y-82697688D01*
X95353472Y-82708481D01*
X95334483Y-82925525D01*
X95334483Y-82936475D01*
X85965023Y-82936475D01*
X85965099Y-82931000D01*
X85946909Y-82745487D01*
X85945128Y-82739588D01*
X85945127Y-82739583D01*
X85894814Y-82572939D01*
X85893033Y-82567040D01*
X85805522Y-82402456D01*
X85801632Y-82397686D01*
X85801629Y-82397682D01*
X85691605Y-82262780D01*
X85691602Y-82262777D01*
X85687710Y-82258005D01*
X85682056Y-82253327D01*
X85548834Y-82143116D01*
X85544085Y-82139187D01*
X85380116Y-82050529D01*
X85291082Y-82022969D01*
X85207936Y-81997231D01*
X85207933Y-81997230D01*
X85202049Y-81995409D01*
X85195924Y-81994765D01*
X85195923Y-81994765D01*
X85022796Y-81976568D01*
X85022795Y-81976568D01*
X85016668Y-81975924D01*
X84938549Y-81983033D01*
X84837171Y-81992259D01*
X84837168Y-81992260D01*
X84831032Y-81992818D01*
X84825122Y-81994557D01*
X84825119Y-81994558D01*
X84658129Y-82043707D01*
X84652214Y-82045448D01*
X84487023Y-82131807D01*
X84341752Y-82248608D01*
X84221935Y-82391401D01*
X84218971Y-82396793D01*
X84218968Y-82396797D01*
X84169247Y-82487239D01*
X84132135Y-82554746D01*
X84130274Y-82560613D01*
X84130273Y-82560615D01*
X84088057Y-82693698D01*
X84075772Y-82732424D01*
X84054994Y-82917665D01*
X81321829Y-82917665D01*
X81303528Y-82708481D01*
X81301625Y-82697688D01*
X81245236Y-82487239D01*
X81241490Y-82476947D01*
X81149414Y-82279489D01*
X81143931Y-82269994D01*
X81107491Y-82217952D01*
X81097012Y-82209576D01*
X81083566Y-82216644D01*
X80382022Y-82918188D01*
X80374408Y-82932132D01*
X79644356Y-82932132D01*
X79645592Y-82929868D01*
X79645461Y-82928035D01*
X79641210Y-82921420D01*
X78935713Y-82215923D01*
X78923938Y-82209493D01*
X78911923Y-82218789D01*
X78876069Y-82269994D01*
X78870586Y-82279489D01*
X78778510Y-82476947D01*
X78774764Y-82487239D01*
X78718375Y-82697688D01*
X78716472Y-82708481D01*
X78697483Y-82925525D01*
X78697483Y-82936475D01*
X75297023Y-82936475D01*
X75297099Y-82931000D01*
X75278909Y-82745487D01*
X75277128Y-82739588D01*
X75277127Y-82739583D01*
X75226814Y-82572939D01*
X75225033Y-82567040D01*
X75137522Y-82402456D01*
X75133632Y-82397686D01*
X75133629Y-82397682D01*
X75023605Y-82262780D01*
X75023602Y-82262777D01*
X75019710Y-82258005D01*
X75014056Y-82253327D01*
X74880834Y-82143116D01*
X74876085Y-82139187D01*
X74712116Y-82050529D01*
X74623082Y-82022969D01*
X74539936Y-81997231D01*
X74539933Y-81997230D01*
X74534049Y-81995409D01*
X74527924Y-81994765D01*
X74527923Y-81994765D01*
X74354796Y-81976568D01*
X74354795Y-81976568D01*
X74348668Y-81975924D01*
X74270549Y-81983033D01*
X74169171Y-81992259D01*
X74169168Y-81992260D01*
X74163032Y-81992818D01*
X74157122Y-81994557D01*
X74157119Y-81994558D01*
X73990129Y-82043707D01*
X73984214Y-82045448D01*
X73819023Y-82131807D01*
X73673752Y-82248608D01*
X73553935Y-82391401D01*
X73550971Y-82396793D01*
X73550968Y-82396797D01*
X73501247Y-82487239D01*
X73464135Y-82554746D01*
X73462274Y-82560613D01*
X73462273Y-82560615D01*
X73420057Y-82693698D01*
X73407772Y-82732424D01*
X73386994Y-82917665D01*
X70653829Y-82917665D01*
X70635528Y-82708481D01*
X70633625Y-82697688D01*
X70577236Y-82487239D01*
X70573490Y-82476947D01*
X70481414Y-82279489D01*
X70475931Y-82269994D01*
X70439491Y-82217952D01*
X70429012Y-82209576D01*
X70415566Y-82216644D01*
X69714022Y-82918188D01*
X69706408Y-82932132D01*
X68976356Y-82932132D01*
X68977592Y-82929868D01*
X68977461Y-82928035D01*
X68973210Y-82921420D01*
X68267713Y-82215923D01*
X68255938Y-82209493D01*
X68243923Y-82218789D01*
X68208069Y-82269994D01*
X68202586Y-82279489D01*
X68110510Y-82476947D01*
X68106764Y-82487239D01*
X68050375Y-82697688D01*
X68048472Y-82708481D01*
X68029483Y-82925525D01*
X68029483Y-82936475D01*
X61982153Y-82936475D01*
X61981639Y-81843988D01*
X68620576Y-81843988D01*
X68627644Y-81857434D01*
X69329188Y-82558978D01*
X69343132Y-82566592D01*
X69344965Y-82566461D01*
X69351580Y-82562210D01*
X70057077Y-81856713D01*
X70063507Y-81844938D01*
X70062772Y-81843988D01*
X79288576Y-81843988D01*
X79295644Y-81857434D01*
X79997188Y-82558978D01*
X80011132Y-82566592D01*
X80012965Y-82566461D01*
X80019580Y-82562210D01*
X80725077Y-81856713D01*
X80731507Y-81844938D01*
X80730772Y-81843988D01*
X95925576Y-81843988D01*
X95932644Y-81857434D01*
X96634188Y-82558978D01*
X96648132Y-82566592D01*
X96649965Y-82566461D01*
X96656580Y-82562210D01*
X97362077Y-81856713D01*
X97368507Y-81844938D01*
X97367772Y-81843988D01*
X106720576Y-81843988D01*
X106727644Y-81857434D01*
X107429188Y-82558978D01*
X107443132Y-82566592D01*
X107444965Y-82566461D01*
X107451580Y-82562210D01*
X108157077Y-81856713D01*
X108163507Y-81844938D01*
X108162772Y-81843988D01*
X124500576Y-81843988D01*
X124507644Y-81857434D01*
X125209188Y-82558978D01*
X125223132Y-82566592D01*
X125224965Y-82566461D01*
X125231580Y-82562210D01*
X125937077Y-81856713D01*
X125943507Y-81844938D01*
X125942772Y-81843988D01*
X135168576Y-81843988D01*
X135175644Y-81857434D01*
X135877188Y-82558978D01*
X135891132Y-82566592D01*
X135892965Y-82566461D01*
X135899580Y-82562210D01*
X136605077Y-81856713D01*
X136611507Y-81844938D01*
X136602211Y-81832923D01*
X136551006Y-81797069D01*
X136541511Y-81791586D01*
X136344053Y-81699510D01*
X136333761Y-81695764D01*
X136123312Y-81639375D01*
X136112519Y-81637472D01*
X135895475Y-81618483D01*
X135884525Y-81618483D01*
X135667481Y-81637472D01*
X135656688Y-81639375D01*
X135446239Y-81695764D01*
X135435947Y-81699510D01*
X135238489Y-81791586D01*
X135228994Y-81797069D01*
X135176952Y-81833509D01*
X135168576Y-81843988D01*
X125942772Y-81843988D01*
X125934211Y-81832923D01*
X125883006Y-81797069D01*
X125873511Y-81791586D01*
X125676053Y-81699510D01*
X125665761Y-81695764D01*
X125455312Y-81639375D01*
X125444519Y-81637472D01*
X125227475Y-81618483D01*
X125216525Y-81618483D01*
X124999481Y-81637472D01*
X124988688Y-81639375D01*
X124778239Y-81695764D01*
X124767947Y-81699510D01*
X124570489Y-81791586D01*
X124560994Y-81797069D01*
X124508952Y-81833509D01*
X124500576Y-81843988D01*
X108162772Y-81843988D01*
X108154211Y-81832923D01*
X108103006Y-81797069D01*
X108093511Y-81791586D01*
X107896053Y-81699510D01*
X107885761Y-81695764D01*
X107675312Y-81639375D01*
X107664519Y-81637472D01*
X107447475Y-81618483D01*
X107436525Y-81618483D01*
X107219481Y-81637472D01*
X107208688Y-81639375D01*
X106998239Y-81695764D01*
X106987947Y-81699510D01*
X106790489Y-81791586D01*
X106780994Y-81797069D01*
X106728952Y-81833509D01*
X106720576Y-81843988D01*
X97367772Y-81843988D01*
X97359211Y-81832923D01*
X97308006Y-81797069D01*
X97298511Y-81791586D01*
X97101053Y-81699510D01*
X97090761Y-81695764D01*
X96880312Y-81639375D01*
X96869519Y-81637472D01*
X96652475Y-81618483D01*
X96641525Y-81618483D01*
X96424481Y-81637472D01*
X96413688Y-81639375D01*
X96203239Y-81695764D01*
X96192947Y-81699510D01*
X95995489Y-81791586D01*
X95985994Y-81797069D01*
X95933952Y-81833509D01*
X95925576Y-81843988D01*
X80730772Y-81843988D01*
X80722211Y-81832923D01*
X80671006Y-81797069D01*
X80661511Y-81791586D01*
X80464053Y-81699510D01*
X80453761Y-81695764D01*
X80243312Y-81639375D01*
X80232519Y-81637472D01*
X80015475Y-81618483D01*
X80004525Y-81618483D01*
X79787481Y-81637472D01*
X79776688Y-81639375D01*
X79566239Y-81695764D01*
X79555947Y-81699510D01*
X79358489Y-81791586D01*
X79348994Y-81797069D01*
X79296952Y-81833509D01*
X79288576Y-81843988D01*
X70062772Y-81843988D01*
X70054211Y-81832923D01*
X70003006Y-81797069D01*
X69993511Y-81791586D01*
X69796053Y-81699510D01*
X69785761Y-81695764D01*
X69575312Y-81639375D01*
X69564519Y-81637472D01*
X69347475Y-81618483D01*
X69336525Y-81618483D01*
X69119481Y-81637472D01*
X69108688Y-81639375D01*
X68898239Y-81695764D01*
X68887947Y-81699510D01*
X68690489Y-81791586D01*
X68680994Y-81797069D01*
X68628952Y-81833509D01*
X68620576Y-81843988D01*
X61981639Y-81843988D01*
X61978933Y-76091834D01*
X61978933Y-76091832D01*
X61978924Y-76073716D01*
X61965396Y-76073715D01*
X61965394Y-76073715D01*
X57251193Y-76073502D01*
X53719335Y-76073342D01*
X53651216Y-76053337D01*
X53604726Y-75999679D01*
X53593342Y-75947328D01*
X53593737Y-72281118D01*
X53593739Y-72263000D01*
X53580190Y-72263000D01*
X42545325Y-72263058D01*
X42477204Y-72243056D01*
X42430711Y-72189401D01*
X42419324Y-72137053D01*
X42419406Y-69996460D01*
X57610352Y-69996460D01*
X57646093Y-70176143D01*
X57648582Y-70185118D01*
X57731208Y-70415250D01*
X57735005Y-70423778D01*
X57850734Y-70639160D01*
X57855745Y-70647027D01*
X58002050Y-70842953D01*
X58008156Y-70849977D01*
X58181816Y-71022127D01*
X58188898Y-71028176D01*
X58386086Y-71172760D01*
X58394005Y-71177708D01*
X58610377Y-71291547D01*
X58618951Y-71295275D01*
X58849782Y-71375885D01*
X58858791Y-71378299D01*
X59025701Y-71409988D01*
X59038761Y-71408704D01*
X59043006Y-71395360D01*
X59551500Y-71395360D01*
X59555671Y-71409565D01*
X59568433Y-71411620D01*
X59604987Y-71407617D01*
X59614149Y-71405919D01*
X59850607Y-71343665D01*
X59859426Y-71340628D01*
X60084084Y-71244107D01*
X60092356Y-71239800D01*
X60300277Y-71111135D01*
X60307817Y-71105657D01*
X60494443Y-70947668D01*
X60501093Y-70941132D01*
X60662313Y-70757295D01*
X60667920Y-70749854D01*
X60800200Y-70544202D01*
X60804647Y-70536011D01*
X60905072Y-70313076D01*
X60908267Y-70304298D01*
X60974635Y-70068973D01*
X60976493Y-70059844D01*
X60984556Y-69996460D01*
X63198352Y-69996460D01*
X63234093Y-70176143D01*
X63236582Y-70185118D01*
X63319208Y-70415250D01*
X63323005Y-70423778D01*
X63438734Y-70639160D01*
X63443745Y-70647027D01*
X63590050Y-70842953D01*
X63596156Y-70849977D01*
X63769816Y-71022127D01*
X63776898Y-71028176D01*
X63974086Y-71172760D01*
X63982005Y-71177708D01*
X64198377Y-71291547D01*
X64206951Y-71295275D01*
X64437782Y-71375885D01*
X64446791Y-71378299D01*
X64613701Y-71409988D01*
X64626761Y-71408704D01*
X64631006Y-71395360D01*
X65139500Y-71395360D01*
X65143671Y-71409565D01*
X65156433Y-71411620D01*
X65192987Y-71407617D01*
X65202149Y-71405919D01*
X65438607Y-71343665D01*
X65447426Y-71340628D01*
X65672084Y-71244107D01*
X65680356Y-71239800D01*
X65888277Y-71111135D01*
X65895817Y-71105657D01*
X66082443Y-70947668D01*
X66089093Y-70941132D01*
X66250313Y-70757295D01*
X66255920Y-70749854D01*
X66388200Y-70544202D01*
X66392647Y-70536011D01*
X66493072Y-70313076D01*
X66496267Y-70304298D01*
X66562635Y-70068973D01*
X66564493Y-70059844D01*
X66572746Y-69994969D01*
X66570458Y-69980708D01*
X66557438Y-69977000D01*
X65157615Y-69977000D01*
X65142376Y-69981475D01*
X65141171Y-69982865D01*
X65139500Y-69990548D01*
X65139500Y-71395360D01*
X64631006Y-71395360D01*
X64631500Y-71393808D01*
X64631500Y-69995115D01*
X64627025Y-69979876D01*
X64625635Y-69978671D01*
X64617952Y-69977000D01*
X63212596Y-69977000D01*
X63200195Y-69980641D01*
X63198352Y-69996460D01*
X60984556Y-69996460D01*
X60984746Y-69994969D01*
X60982458Y-69980708D01*
X60969438Y-69977000D01*
X59569615Y-69977000D01*
X59554376Y-69981475D01*
X59553171Y-69982865D01*
X59551500Y-69990548D01*
X59551500Y-71395360D01*
X59043006Y-71395360D01*
X59043500Y-71393808D01*
X59043500Y-69995115D01*
X59039025Y-69979876D01*
X59037635Y-69978671D01*
X59029952Y-69977000D01*
X57624596Y-69977000D01*
X57612195Y-69980641D01*
X57610352Y-69996460D01*
X42419406Y-69996460D01*
X42419427Y-69450976D01*
X57608175Y-69450976D01*
X57610935Y-69465703D01*
X57623114Y-69469000D01*
X59025385Y-69469000D01*
X59040624Y-69464525D01*
X59041829Y-69463135D01*
X59043500Y-69455452D01*
X59043500Y-69450885D01*
X59551500Y-69450885D01*
X59555975Y-69466124D01*
X59557365Y-69467329D01*
X59565048Y-69469000D01*
X60973171Y-69469000D01*
X60986702Y-69465027D01*
X60988134Y-69455068D01*
X60987208Y-69450976D01*
X63196175Y-69450976D01*
X63198935Y-69465703D01*
X63211114Y-69469000D01*
X64613385Y-69469000D01*
X64628624Y-69464525D01*
X64629829Y-69463135D01*
X64631500Y-69455452D01*
X64631500Y-69450885D01*
X65139500Y-69450885D01*
X65143975Y-69466124D01*
X65145365Y-69467329D01*
X65153048Y-69469000D01*
X66561171Y-69469000D01*
X66574702Y-69465027D01*
X66576134Y-69455068D01*
X66524479Y-69226786D01*
X66521755Y-69217875D01*
X66433133Y-68989983D01*
X66429119Y-68981567D01*
X66307786Y-68769281D01*
X66302570Y-68761548D01*
X66151192Y-68569525D01*
X66144899Y-68562657D01*
X65966794Y-68395112D01*
X65959560Y-68389254D01*
X65758641Y-68249872D01*
X65750615Y-68245144D01*
X65531310Y-68136995D01*
X65522677Y-68133507D01*
X65289788Y-68058958D01*
X65280738Y-68056785D01*
X65157380Y-68036696D01*
X65143786Y-68038393D01*
X65139500Y-68052500D01*
X65139500Y-69450885D01*
X64631500Y-69450885D01*
X64631500Y-68051859D01*
X64627482Y-68038175D01*
X64613790Y-68036154D01*
X64534021Y-68047010D01*
X64524903Y-68048948D01*
X64290168Y-68117367D01*
X64281415Y-68120639D01*
X64059369Y-68223004D01*
X64051214Y-68227524D01*
X63846733Y-68361587D01*
X63839328Y-68367270D01*
X63656913Y-68530082D01*
X63650435Y-68536790D01*
X63494084Y-68724781D01*
X63488663Y-68732381D01*
X63361822Y-68941409D01*
X63357584Y-68949726D01*
X63263029Y-69175214D01*
X63260072Y-69184052D01*
X63199882Y-69421048D01*
X63198264Y-69430228D01*
X63196175Y-69450976D01*
X60987208Y-69450976D01*
X60936479Y-69226786D01*
X60933755Y-69217875D01*
X60845133Y-68989983D01*
X60841119Y-68981567D01*
X60719786Y-68769281D01*
X60714570Y-68761548D01*
X60563192Y-68569525D01*
X60556899Y-68562657D01*
X60378794Y-68395112D01*
X60371560Y-68389254D01*
X60170641Y-68249872D01*
X60162615Y-68245144D01*
X59943310Y-68136995D01*
X59934677Y-68133507D01*
X59701788Y-68058958D01*
X59692738Y-68056785D01*
X59569380Y-68036696D01*
X59555786Y-68038393D01*
X59551500Y-68052500D01*
X59551500Y-69450885D01*
X59043500Y-69450885D01*
X59043500Y-68051859D01*
X59039482Y-68038175D01*
X59025790Y-68036154D01*
X58946021Y-68047010D01*
X58936903Y-68048948D01*
X58702168Y-68117367D01*
X58693415Y-68120639D01*
X58471369Y-68223004D01*
X58463214Y-68227524D01*
X58258733Y-68361587D01*
X58251328Y-68367270D01*
X58068913Y-68530082D01*
X58062435Y-68536790D01*
X57906084Y-68724781D01*
X57900663Y-68732381D01*
X57773822Y-68941409D01*
X57769584Y-68949726D01*
X57675029Y-69175214D01*
X57672072Y-69184052D01*
X57611882Y-69421048D01*
X57610264Y-69430228D01*
X57608175Y-69450976D01*
X42419427Y-69450976D01*
X42419453Y-68769281D01*
X42419519Y-67054129D01*
X42439524Y-66986010D01*
X42493181Y-66939519D01*
X42545527Y-66928135D01*
X56622880Y-66928999D01*
X56640996Y-66929000D01*
X56639575Y-53984053D01*
X67689562Y-53981757D01*
X67757686Y-54001745D01*
G37*
%TD.AperFunction*%
%TD*%
%TA.AperFunction,Conductor*%
%TO.N,GND*%
G36*
X201338621Y-44368502D02*
G01*
X201385114Y-44422158D01*
X201396500Y-44474500D01*
X201396500Y-143231464D01*
X201376498Y-143299585D01*
X201322842Y-143346078D01*
X201270470Y-143357464D01*
X121358802Y-143338735D01*
X39013468Y-143319436D01*
X38945354Y-143299418D01*
X38898874Y-143245751D01*
X38887500Y-143193436D01*
X38887500Y-66929000D01*
X39370000Y-66929000D01*
X42292000Y-66929000D01*
X42360121Y-66949002D01*
X42406614Y-67002658D01*
X42418000Y-67055000D01*
X42418000Y-112334441D01*
X42397998Y-112402562D01*
X42370712Y-112432830D01*
X39892145Y-114415684D01*
X39878000Y-114427000D01*
X39878000Y-142367000D01*
X39891595Y-142366977D01*
X39891597Y-142366977D01*
X149312710Y-142178968D01*
X187706000Y-142113000D01*
X191603947Y-138215053D01*
X197203872Y-138215053D01*
X197203985Y-138219831D01*
X197209237Y-138442684D01*
X197209878Y-138469900D01*
X197210712Y-138474605D01*
X197244366Y-138664496D01*
X197254363Y-138720906D01*
X197255900Y-138725434D01*
X197295333Y-138841600D01*
X197336303Y-138962295D01*
X197338506Y-138966536D01*
X197428751Y-139140264D01*
X197453814Y-139188513D01*
X197456640Y-139192381D01*
X197456641Y-139192383D01*
X197496907Y-139247500D01*
X197604190Y-139394353D01*
X197607561Y-139397742D01*
X197607563Y-139397744D01*
X197780596Y-139571685D01*
X197780601Y-139571689D01*
X197783972Y-139575078D01*
X197787818Y-139577919D01*
X197787823Y-139577923D01*
X197933216Y-139685312D01*
X197989021Y-139726530D01*
X197993251Y-139728756D01*
X197993255Y-139728758D01*
X198205930Y-139840651D01*
X198214620Y-139845223D01*
X198219148Y-139846786D01*
X198219149Y-139846787D01*
X198255213Y-139859240D01*
X198455577Y-139928427D01*
X198531972Y-139942379D01*
X198702375Y-139973500D01*
X198702381Y-139973501D01*
X198706347Y-139974225D01*
X198750647Y-139976547D01*
X198786247Y-139978413D01*
X198786263Y-139978413D01*
X198787915Y-139978500D01*
X198946824Y-139978500D01*
X198949203Y-139978319D01*
X198949204Y-139978319D01*
X199131416Y-139964459D01*
X199131421Y-139964458D01*
X199136183Y-139964096D01*
X199140836Y-139963017D01*
X199140839Y-139963017D01*
X199379853Y-139907616D01*
X199379852Y-139907616D01*
X199384517Y-139906535D01*
X199621287Y-139812073D01*
X199766802Y-139726530D01*
X199836917Y-139685312D01*
X199836920Y-139685310D01*
X199841045Y-139682885D01*
X200038732Y-139521942D01*
X200209801Y-139332948D01*
X200350314Y-139120253D01*
X200354786Y-139110554D01*
X200455032Y-138893103D01*
X200455033Y-138893100D01*
X200457038Y-138888751D01*
X200494602Y-138758180D01*
X200526195Y-138648363D01*
X200526196Y-138648359D01*
X200527516Y-138643770D01*
X200529134Y-138631233D01*
X200559517Y-138395684D01*
X200560128Y-138390947D01*
X200554122Y-138136100D01*
X200509637Y-137885094D01*
X200427697Y-137643705D01*
X200310186Y-137417487D01*
X200159810Y-137211647D01*
X200153610Y-137205414D01*
X199983404Y-137034315D01*
X199983399Y-137034311D01*
X199980028Y-137030922D01*
X199976182Y-137028081D01*
X199976177Y-137028077D01*
X199778831Y-136882315D01*
X199778830Y-136882314D01*
X199774979Y-136879470D01*
X199770749Y-136877244D01*
X199770745Y-136877242D01*
X199553617Y-136763006D01*
X199553615Y-136763005D01*
X199549380Y-136760777D01*
X199308423Y-136677573D01*
X199209321Y-136659474D01*
X199061625Y-136632500D01*
X199061619Y-136632499D01*
X199057653Y-136631775D01*
X199013353Y-136629453D01*
X198977753Y-136627587D01*
X198977737Y-136627587D01*
X198976085Y-136627500D01*
X198817176Y-136627500D01*
X198814797Y-136627681D01*
X198814796Y-136627681D01*
X198632584Y-136641541D01*
X198632579Y-136641542D01*
X198627817Y-136641904D01*
X198623164Y-136642983D01*
X198623161Y-136642983D01*
X198439197Y-136685624D01*
X198379483Y-136699465D01*
X198142713Y-136793927D01*
X198138583Y-136796355D01*
X197927083Y-136920688D01*
X197927080Y-136920690D01*
X197922955Y-136923115D01*
X197725268Y-137084058D01*
X197554199Y-137273052D01*
X197551558Y-137277050D01*
X197551557Y-137277051D01*
X197488530Y-137372455D01*
X197413686Y-137485747D01*
X197411685Y-137490087D01*
X197411683Y-137490091D01*
X197308968Y-137712897D01*
X197306962Y-137717249D01*
X197305638Y-137721850D01*
X197305638Y-137721851D01*
X197243251Y-137938709D01*
X197236484Y-137962230D01*
X197235873Y-137966965D01*
X197235872Y-137966971D01*
X197214663Y-138131395D01*
X197203872Y-138215053D01*
X191603947Y-138215053D01*
X193294000Y-136525000D01*
X193294000Y-135381000D01*
X193314002Y-135312879D01*
X193367658Y-135266386D01*
X193420000Y-135255000D01*
X199390000Y-135255000D01*
X199390000Y-52451000D01*
X187324000Y-52451000D01*
X187255879Y-52430998D01*
X187209386Y-52377342D01*
X187198000Y-52325000D01*
X187198000Y-49315053D01*
X197203872Y-49315053D01*
X197209878Y-49569900D01*
X197210712Y-49574605D01*
X197225506Y-49658078D01*
X197254363Y-49820906D01*
X197336303Y-50062295D01*
X197338506Y-50066536D01*
X197448466Y-50278217D01*
X197453814Y-50288513D01*
X197456640Y-50292381D01*
X197456641Y-50292383D01*
X197521550Y-50381233D01*
X197604190Y-50494353D01*
X197607561Y-50497742D01*
X197607563Y-50497744D01*
X197780596Y-50671685D01*
X197780601Y-50671689D01*
X197783972Y-50675078D01*
X197787818Y-50677919D01*
X197787823Y-50677923D01*
X197933216Y-50785312D01*
X197989021Y-50826530D01*
X197993251Y-50828756D01*
X197993255Y-50828758D01*
X198210383Y-50942994D01*
X198214620Y-50945223D01*
X198455577Y-51028427D01*
X198536262Y-51043162D01*
X198702375Y-51073500D01*
X198702381Y-51073501D01*
X198706347Y-51074225D01*
X198750647Y-51076547D01*
X198786247Y-51078413D01*
X198786263Y-51078413D01*
X198787915Y-51078500D01*
X198946824Y-51078500D01*
X198949203Y-51078319D01*
X198949204Y-51078319D01*
X199131416Y-51064459D01*
X199131421Y-51064458D01*
X199136183Y-51064096D01*
X199140836Y-51063017D01*
X199140839Y-51063017D01*
X199379853Y-51007616D01*
X199379852Y-51007616D01*
X199384517Y-51006535D01*
X199621287Y-50912073D01*
X199766802Y-50826530D01*
X199836917Y-50785312D01*
X199836920Y-50785310D01*
X199841045Y-50782885D01*
X200038732Y-50621942D01*
X200209801Y-50432948D01*
X200350314Y-50220253D01*
X200355310Y-50209417D01*
X200455032Y-49993103D01*
X200455033Y-49993100D01*
X200457038Y-49988751D01*
X200472282Y-49935763D01*
X200526195Y-49748363D01*
X200526196Y-49748359D01*
X200527516Y-49743770D01*
X200538228Y-49660731D01*
X200559517Y-49495684D01*
X200560128Y-49490947D01*
X200556313Y-49329083D01*
X200554235Y-49240880D01*
X200554235Y-49240875D01*
X200554122Y-49236100D01*
X200517555Y-49029769D01*
X200510471Y-48989798D01*
X200510470Y-48989794D01*
X200509637Y-48985094D01*
X200427697Y-48743705D01*
X200415699Y-48720608D01*
X200312395Y-48521739D01*
X200312393Y-48521736D01*
X200310186Y-48517487D01*
X200264349Y-48454743D01*
X200162632Y-48315510D01*
X200159810Y-48311647D01*
X200065910Y-48217254D01*
X199983404Y-48134315D01*
X199983399Y-48134311D01*
X199980028Y-48130922D01*
X199976182Y-48128081D01*
X199976177Y-48128077D01*
X199778831Y-47982315D01*
X199778830Y-47982314D01*
X199774979Y-47979470D01*
X199770749Y-47977244D01*
X199770745Y-47977242D01*
X199553617Y-47863006D01*
X199553615Y-47863005D01*
X199549380Y-47860777D01*
X199308423Y-47777573D01*
X199227738Y-47762838D01*
X199061625Y-47732500D01*
X199061619Y-47732499D01*
X199057653Y-47731775D01*
X199013353Y-47729453D01*
X198977753Y-47727587D01*
X198977737Y-47727587D01*
X198976085Y-47727500D01*
X198817176Y-47727500D01*
X198814797Y-47727681D01*
X198814796Y-47727681D01*
X198632584Y-47741541D01*
X198632579Y-47741542D01*
X198627817Y-47741904D01*
X198623164Y-47742983D01*
X198623161Y-47742983D01*
X198439197Y-47785624D01*
X198379483Y-47799465D01*
X198142713Y-47893927D01*
X198138583Y-47896355D01*
X197927083Y-48020688D01*
X197927080Y-48020690D01*
X197922955Y-48023115D01*
X197725268Y-48184058D01*
X197554199Y-48373052D01*
X197413686Y-48585747D01*
X197411685Y-48590087D01*
X197411683Y-48590091D01*
X197308968Y-48812897D01*
X197306962Y-48817249D01*
X197305638Y-48821850D01*
X197305638Y-48821851D01*
X197245823Y-49029769D01*
X197236484Y-49062230D01*
X197235873Y-49066965D01*
X197235872Y-49066971D01*
X197221399Y-49179176D01*
X197203872Y-49315053D01*
X187198000Y-49315053D01*
X187198000Y-47371000D01*
X176530000Y-47371000D01*
X176530000Y-49785000D01*
X176509998Y-49853121D01*
X176456342Y-49899614D01*
X176404000Y-49911000D01*
X56642000Y-49911000D01*
X56642000Y-58039000D01*
X39370000Y-58039000D01*
X39370000Y-66929000D01*
X38887500Y-66929000D01*
X38887500Y-48101497D01*
X46000637Y-48101497D01*
X46000881Y-48105932D01*
X46000881Y-48105936D01*
X46015387Y-48369499D01*
X46016205Y-48384370D01*
X46036594Y-48486874D01*
X46065430Y-48631839D01*
X46071474Y-48662226D01*
X46072950Y-48666429D01*
X46146004Y-48874456D01*
X46165342Y-48929524D01*
X46167395Y-48933477D01*
X46167398Y-48933483D01*
X46214583Y-49024317D01*
X46295936Y-49180928D01*
X46298519Y-49184543D01*
X46298523Y-49184549D01*
X46363995Y-49276167D01*
X46460651Y-49411424D01*
X46463729Y-49414651D01*
X46463731Y-49414653D01*
X46541031Y-49495684D01*
X46656199Y-49616412D01*
X46878680Y-49791801D01*
X46984250Y-49853121D01*
X47119807Y-49931859D01*
X47119813Y-49931862D01*
X47123654Y-49934093D01*
X47127777Y-49935763D01*
X47310334Y-50009706D01*
X47386232Y-50040448D01*
X47390545Y-50041519D01*
X47390550Y-50041521D01*
X47656856Y-50107672D01*
X47656861Y-50107673D01*
X47661177Y-50108745D01*
X47665605Y-50109199D01*
X47665607Y-50109199D01*
X47741307Y-50116955D01*
X47902790Y-50133500D01*
X48078170Y-50133500D01*
X48288593Y-50118601D01*
X48292948Y-50117663D01*
X48292951Y-50117663D01*
X48561200Y-50059911D01*
X48561202Y-50059911D01*
X48565547Y-50058975D01*
X48831337Y-49960920D01*
X48844996Y-49953550D01*
X49076744Y-49828506D01*
X49080660Y-49826393D01*
X49308540Y-49658078D01*
X49510430Y-49459334D01*
X49513131Y-49455794D01*
X49513137Y-49455788D01*
X49679602Y-49237667D01*
X49679605Y-49237663D01*
X49682304Y-49234126D01*
X49791557Y-49039040D01*
X49818552Y-48990837D01*
X49818555Y-48990832D01*
X49820730Y-48986947D01*
X49842946Y-48929524D01*
X49921341Y-48726885D01*
X49921343Y-48726879D01*
X49922948Y-48722730D01*
X49986918Y-48446747D01*
X50011363Y-48164503D01*
X50010527Y-48149306D01*
X49996040Y-47886073D01*
X49996039Y-47886066D01*
X49995795Y-47881630D01*
X49960511Y-47704246D01*
X49941396Y-47608146D01*
X49941395Y-47608141D01*
X49940526Y-47603774D01*
X49919279Y-47543270D01*
X49882032Y-47437207D01*
X110587524Y-47437207D01*
X110587593Y-47438963D01*
X110587699Y-47441659D01*
X110591862Y-47547605D01*
X110598257Y-47710383D01*
X110647374Y-47979322D01*
X110733895Y-48238657D01*
X110735887Y-48242644D01*
X110735888Y-48242646D01*
X110846901Y-48464818D01*
X110856093Y-48483215D01*
X111011531Y-48708114D01*
X111014553Y-48711383D01*
X111159418Y-48868097D01*
X111197106Y-48908868D01*
X111222478Y-48929524D01*
X111405655Y-49078654D01*
X111405660Y-49078657D01*
X111409117Y-49081472D01*
X111643333Y-49222482D01*
X111647428Y-49224216D01*
X111647430Y-49224217D01*
X111873231Y-49319831D01*
X111895080Y-49329083D01*
X111899373Y-49330221D01*
X111899378Y-49330223D01*
X112037420Y-49366824D01*
X112159336Y-49399149D01*
X112163753Y-49399672D01*
X112163754Y-49399672D01*
X112191873Y-49403000D01*
X112430829Y-49431282D01*
X112704140Y-49424841D01*
X112708534Y-49424110D01*
X112708541Y-49424109D01*
X112969415Y-49380688D01*
X112969419Y-49380687D01*
X112973817Y-49379955D01*
X113194013Y-49310316D01*
X113230234Y-49298861D01*
X113230236Y-49298860D01*
X113234480Y-49297518D01*
X113366493Y-49234126D01*
X113476907Y-49181106D01*
X113476908Y-49181105D01*
X113480926Y-49179176D01*
X113484632Y-49176700D01*
X113704531Y-49029769D01*
X113704535Y-49029766D01*
X113708239Y-49027291D01*
X113911884Y-48844891D01*
X114087797Y-48635618D01*
X114103034Y-48611187D01*
X114230106Y-48407432D01*
X114230107Y-48407430D01*
X114232467Y-48403646D01*
X114343010Y-48153604D01*
X114417218Y-47890481D01*
X114437175Y-47741904D01*
X114453185Y-47622709D01*
X114453186Y-47622701D01*
X114453612Y-47619527D01*
X114455872Y-47547605D01*
X114457330Y-47501222D01*
X114457330Y-47501217D01*
X114457431Y-47498000D01*
X114438122Y-47225295D01*
X114427264Y-47174859D01*
X114381518Y-46962379D01*
X114381518Y-46962377D01*
X114380582Y-46958032D01*
X114285958Y-46701542D01*
X114156138Y-46460944D01*
X113993713Y-46241038D01*
X113985873Y-46233073D01*
X113843223Y-46088166D01*
X113801923Y-46046212D01*
X113798384Y-46043511D01*
X113798377Y-46043505D01*
X113588137Y-45883055D01*
X113588133Y-45883052D01*
X113584596Y-45880353D01*
X113393046Y-45773080D01*
X113349956Y-45748948D01*
X113349950Y-45748945D01*
X113346066Y-45746770D01*
X113341908Y-45745162D01*
X113341903Y-45745159D01*
X113095250Y-45649736D01*
X113095244Y-45649734D01*
X113091095Y-45648129D01*
X113086762Y-45647125D01*
X113086760Y-45647124D01*
X112964269Y-45618732D01*
X112824768Y-45586397D01*
X112552400Y-45562808D01*
X112547965Y-45563052D01*
X112547961Y-45563052D01*
X112427649Y-45569673D01*
X112279426Y-45577830D01*
X112011292Y-45631166D01*
X111857670Y-45685114D01*
X111757556Y-45720271D01*
X111757553Y-45720272D01*
X111753348Y-45721749D01*
X111749395Y-45723802D01*
X111749389Y-45723805D01*
X111612262Y-45795038D01*
X111510740Y-45847774D01*
X111507125Y-45850357D01*
X111507119Y-45850361D01*
X111399734Y-45927100D01*
X111288310Y-46006725D01*
X111243135Y-46049820D01*
X111140846Y-46147399D01*
X111090495Y-46195431D01*
X111087739Y-46198926D01*
X111087738Y-46198928D01*
X111025906Y-46277362D01*
X110921243Y-46410126D01*
X110882426Y-46476955D01*
X110786164Y-46642681D01*
X110786161Y-46642687D01*
X110783930Y-46646528D01*
X110782260Y-46650651D01*
X110720336Y-46803535D01*
X110681296Y-46899919D01*
X110680225Y-46904232D01*
X110680223Y-46904237D01*
X110649398Y-47028333D01*
X110615389Y-47165243D01*
X110587524Y-47437207D01*
X49882032Y-47437207D01*
X49848136Y-47340684D01*
X49848135Y-47340681D01*
X49846658Y-47336476D01*
X49844605Y-47332523D01*
X49844602Y-47332517D01*
X49760011Y-47169674D01*
X49716064Y-47085072D01*
X49713481Y-47081457D01*
X49713477Y-47081451D01*
X49586837Y-46904237D01*
X49551349Y-46854576D01*
X49509028Y-46810212D01*
X49358876Y-46652811D01*
X49358873Y-46652808D01*
X49355801Y-46649588D01*
X49133320Y-46474199D01*
X49016991Y-46406630D01*
X48892193Y-46334141D01*
X48892187Y-46334138D01*
X48888346Y-46331907D01*
X48753681Y-46277362D01*
X48629894Y-46227223D01*
X48629891Y-46227222D01*
X48625768Y-46225552D01*
X48621455Y-46224481D01*
X48621450Y-46224479D01*
X48355144Y-46158328D01*
X48355139Y-46158327D01*
X48350823Y-46157255D01*
X48346395Y-46156801D01*
X48346393Y-46156801D01*
X48251552Y-46147084D01*
X48109210Y-46132500D01*
X47933830Y-46132500D01*
X47723407Y-46147399D01*
X47719052Y-46148337D01*
X47719049Y-46148337D01*
X47450800Y-46206089D01*
X47450798Y-46206089D01*
X47446453Y-46207025D01*
X47180663Y-46305080D01*
X46931340Y-46439607D01*
X46703460Y-46607922D01*
X46700281Y-46611051D01*
X46700278Y-46611054D01*
X46657860Y-46652811D01*
X46501570Y-46806666D01*
X46498869Y-46810206D01*
X46498863Y-46810212D01*
X46382733Y-46962379D01*
X46329696Y-47031874D01*
X46327521Y-47035758D01*
X46218883Y-47229747D01*
X46191270Y-47279053D01*
X46189662Y-47283211D01*
X46189659Y-47283216D01*
X46105319Y-47501222D01*
X46089052Y-47543270D01*
X46025082Y-47819253D01*
X46000637Y-48101497D01*
X38887500Y-48101497D01*
X38887500Y-44474500D01*
X38907502Y-44406379D01*
X38961158Y-44359886D01*
X39013500Y-44348500D01*
X201270500Y-44348500D01*
X201338621Y-44368502D01*
G37*
%TD.AperFunction*%
%TD*%
M02*
