%TF.GenerationSoftware,KiCad,Pcbnew,7.0.11+1*%
%TF.CreationDate,2024-05-08T20:05:28+02:00*%
%TF.ProjectId,ql_trump_v2_disk_interface,716c5f74-7275-46d7-905f-76325f646973,01*%
%TF.SameCoordinates,Original*%
%TF.FileFunction,Soldermask,Bot*%
%TF.FilePolarity,Negative*%
%FSLAX46Y46*%
G04 Gerber Fmt 4.6, Leading zero omitted, Abs format (unit mm)*
G04 Created by KiCad (PCBNEW 7.0.11+1) date 2024-05-08 20:05:28*
%MOMM*%
%LPD*%
G01*
G04 APERTURE LIST*
G04 Aperture macros list*
%AMRoundRect*
0 Rectangle with rounded corners*
0 $1 Rounding radius*
0 $2 $3 $4 $5 $6 $7 $8 $9 X,Y pos of 4 corners*
0 Add a 4 corners polygon primitive as box body*
4,1,4,$2,$3,$4,$5,$6,$7,$8,$9,$2,$3,0*
0 Add four circle primitives for the rounded corners*
1,1,$1+$1,$2,$3*
1,1,$1+$1,$4,$5*
1,1,$1+$1,$6,$7*
1,1,$1+$1,$8,$9*
0 Add four rect primitives between the rounded corners*
20,1,$1+$1,$2,$3,$4,$5,0*
20,1,$1+$1,$4,$5,$6,$7,0*
20,1,$1+$1,$6,$7,$8,$9,0*
20,1,$1+$1,$8,$9,$2,$3,0*%
G04 Aperture macros list end*
%ADD10C,0.812000*%
%ADD11C,0.010000*%
%ADD12O,3.500000X3.500000*%
%ADD13R,1.905000X2.000000*%
%ADD14O,1.905000X2.000000*%
%ADD15R,1.600000X1.600000*%
%ADD16O,1.600000X1.600000*%
%ADD17C,1.600000*%
%ADD18R,2.400000X2.400000*%
%ADD19O,2.400000X2.400000*%
%ADD20C,2.850000*%
%ADD21RoundRect,0.249999X-0.525001X0.525001X-0.525001X-0.525001X0.525001X-0.525001X0.525001X0.525001X0*%
%ADD22C,1.550000*%
%ADD23C,1.500000*%
%ADD24R,1.700000X1.700000*%
%ADD25O,1.700000X1.700000*%
%TA.AperFunction,Profile*%
%ADD26C,0.050000*%
%TD*%
G04 APERTURE END LIST*
D10*
X65176000Y-86487000D02*
G75*
G03*
X64364000Y-86487000I-406000J0D01*
G01*
X64364000Y-86487000D02*
G75*
G03*
X65176000Y-86487000I406000J0D01*
G01*
D11*
X194235623Y-45148017D02*
X194459342Y-45332207D01*
X194689555Y-45526904D01*
X194808114Y-45629819D01*
X194929516Y-45737313D01*
X195053870Y-45849809D01*
X195180025Y-45966220D01*
X195306538Y-46085208D01*
X195431966Y-46205437D01*
X195554868Y-46325569D01*
X195673798Y-46444266D01*
X195787316Y-46560191D01*
X195893978Y-46672005D01*
X195992646Y-46778706D01*
X196083418Y-46880320D01*
X196166700Y-46977200D01*
X196242898Y-47069695D01*
X196312417Y-47158156D01*
X196375663Y-47242934D01*
X196433043Y-47324378D01*
X196484961Y-47402840D01*
X196508991Y-47441055D01*
X196531792Y-47478626D01*
X196553399Y-47515578D01*
X196573845Y-47551934D01*
X196593165Y-47587718D01*
X196611394Y-47622953D01*
X196628565Y-47657663D01*
X196644713Y-47691872D01*
X196659872Y-47725603D01*
X196674077Y-47758880D01*
X196699759Y-47824166D01*
X196722033Y-47887918D01*
X196741174Y-47950326D01*
X196757405Y-48011658D01*
X196764441Y-48042027D01*
X196770753Y-48072276D01*
X196776339Y-48102463D01*
X196781196Y-48132645D01*
X196785322Y-48162882D01*
X196788713Y-48193230D01*
X196791368Y-48223749D01*
X196793283Y-48254497D01*
X196794456Y-48285530D01*
X196794884Y-48316909D01*
X196794564Y-48348690D01*
X196793495Y-48380931D01*
X196791672Y-48413692D01*
X196789094Y-48447030D01*
X196781618Y-48515511D01*
X196770879Y-48586047D01*
X196764212Y-48621934D01*
X196756643Y-48658154D01*
X196748141Y-48694645D01*
X196738679Y-48731347D01*
X196728226Y-48768199D01*
X196716754Y-48805140D01*
X196704234Y-48842111D01*
X196690637Y-48879050D01*
X196675934Y-48915897D01*
X196660095Y-48952590D01*
X196643092Y-48989071D01*
X196624896Y-49025277D01*
X196605491Y-49061104D01*
X196584912Y-49096543D01*
X196563205Y-49131534D01*
X196540417Y-49166022D01*
X196516591Y-49199948D01*
X196491775Y-49233255D01*
X196466014Y-49265886D01*
X196439353Y-49297784D01*
X196411838Y-49328890D01*
X196383515Y-49359148D01*
X196354429Y-49388499D01*
X196324627Y-49416888D01*
X196294153Y-49444256D01*
X196263054Y-49470546D01*
X196231375Y-49495700D01*
X196199162Y-49519662D01*
X196166450Y-49542363D01*
X196133267Y-49563837D01*
X196099628Y-49584104D01*
X196065546Y-49603188D01*
X196031037Y-49621111D01*
X195996114Y-49637893D01*
X195960793Y-49653559D01*
X195925087Y-49668130D01*
X195889011Y-49681627D01*
X195852579Y-49694074D01*
X195815806Y-49705493D01*
X195778706Y-49715905D01*
X195741293Y-49725333D01*
X195703583Y-49733799D01*
X195665588Y-49741325D01*
X195627325Y-49747933D01*
X195588801Y-49753661D01*
X195550043Y-49758467D01*
X195511070Y-49762325D01*
X195471901Y-49765208D01*
X195432554Y-49767091D01*
X195393049Y-49767947D01*
X195353406Y-49767749D01*
X195313642Y-49766473D01*
X195273778Y-49764090D01*
X195233831Y-49760575D01*
X195193822Y-49755902D01*
X195153770Y-49750045D01*
X195113692Y-49742976D01*
X195073610Y-49734670D01*
X195033541Y-49725101D01*
X194993504Y-49714242D01*
X194953527Y-49702056D01*
X194913670Y-49688591D01*
X194874002Y-49673879D01*
X194834589Y-49657950D01*
X194795499Y-49640836D01*
X194756801Y-49622568D01*
X194718561Y-49603178D01*
X194680849Y-49582696D01*
X194643730Y-49561154D01*
X194607274Y-49538583D01*
X194571548Y-49515015D01*
X194536619Y-49490481D01*
X194502556Y-49465012D01*
X194469426Y-49438640D01*
X194437297Y-49411395D01*
X194406237Y-49383309D01*
X194383996Y-49362048D01*
X194362367Y-49340390D01*
X194341318Y-49318348D01*
X194320817Y-49295937D01*
X194300829Y-49273172D01*
X194281324Y-49250066D01*
X194262268Y-49226633D01*
X194243628Y-49202889D01*
X194247837Y-49288048D01*
X194252351Y-49368905D01*
X194257536Y-49446099D01*
X194263758Y-49520272D01*
X194268399Y-49566335D01*
X194273705Y-49612036D01*
X194279774Y-49657208D01*
X194286705Y-49701684D01*
X194294596Y-49745295D01*
X194303546Y-49787875D01*
X194313654Y-49829256D01*
X194325017Y-49869271D01*
X194331200Y-49888700D01*
X194337734Y-49907774D01*
X194344630Y-49926519D01*
X194351901Y-49944960D01*
X194359560Y-49963123D01*
X194367618Y-49981033D01*
X194376088Y-49998716D01*
X194384983Y-50016198D01*
X194394315Y-50033503D01*
X194404095Y-50050659D01*
X194414337Y-50067689D01*
X194425053Y-50084620D01*
X194436256Y-50101478D01*
X194447956Y-50118287D01*
X194460168Y-50135074D01*
X194472903Y-50151864D01*
X194486170Y-50168692D01*
X194499927Y-50185505D01*
X194514132Y-50202258D01*
X194528742Y-50218911D01*
X194543715Y-50235421D01*
X194559008Y-50251745D01*
X194574578Y-50267842D01*
X194590384Y-50283669D01*
X194606381Y-50299185D01*
X194622528Y-50314346D01*
X194638783Y-50329111D01*
X194655101Y-50343438D01*
X194671442Y-50357284D01*
X194687761Y-50370607D01*
X194704018Y-50383365D01*
X194720168Y-50395516D01*
X194736168Y-50407028D01*
X194751969Y-50417908D01*
X194767522Y-50428170D01*
X194782780Y-50437829D01*
X194797692Y-50446898D01*
X194812211Y-50455392D01*
X194826288Y-50463325D01*
X194839873Y-50470711D01*
X194865376Y-50483903D01*
X194888331Y-50495080D01*
X194908348Y-50504357D01*
X194925037Y-50511849D01*
X194937600Y-50517689D01*
X194941602Y-50520046D01*
X194943615Y-50522059D01*
X194943764Y-50522945D01*
X194943283Y-50523753D01*
X194940253Y-50525151D01*
X194934173Y-50526276D01*
X194924689Y-50527154D01*
X194894093Y-50528258D01*
X194845637Y-50528655D01*
X194683838Y-50528084D01*
X194015142Y-50525277D01*
X193346439Y-50528084D01*
X193253788Y-50528533D01*
X193216457Y-50528647D01*
X193184650Y-50528655D01*
X193158014Y-50528533D01*
X193136196Y-50528258D01*
X193118843Y-50527806D01*
X193111730Y-50527507D01*
X193105601Y-50527154D01*
X193100411Y-50526745D01*
X193096116Y-50526276D01*
X193092672Y-50525746D01*
X193090035Y-50525151D01*
X193088161Y-50524487D01*
X193087496Y-50524129D01*
X193087005Y-50523753D01*
X193086683Y-50523358D01*
X193086524Y-50522945D01*
X193086522Y-50522512D01*
X193086673Y-50522059D01*
X193086969Y-50521587D01*
X193087407Y-50521094D01*
X193088684Y-50520046D01*
X193090458Y-50518912D01*
X193092686Y-50517689D01*
X193098325Y-50514964D01*
X193105247Y-50511849D01*
X193141948Y-50495080D01*
X193164901Y-50483903D01*
X193190402Y-50470711D01*
X193218063Y-50455392D01*
X193247495Y-50437829D01*
X193262753Y-50428170D01*
X193278307Y-50417908D01*
X193294110Y-50407028D01*
X193310111Y-50395516D01*
X193326262Y-50383365D01*
X193342520Y-50370607D01*
X193358840Y-50357284D01*
X193375182Y-50343438D01*
X193391501Y-50329111D01*
X193407756Y-50314346D01*
X193439901Y-50283669D01*
X193471276Y-50251745D01*
X193486568Y-50235421D01*
X193501540Y-50218911D01*
X193516148Y-50202258D01*
X193530351Y-50185505D01*
X193544105Y-50168692D01*
X193557368Y-50151864D01*
X193570105Y-50135074D01*
X193582319Y-50118287D01*
X193594022Y-50101478D01*
X193605226Y-50084620D01*
X193615943Y-50067689D01*
X193626187Y-50050659D01*
X193635969Y-50033503D01*
X193645301Y-50016198D01*
X193654196Y-49998716D01*
X193662667Y-49981033D01*
X193670726Y-49963123D01*
X193678385Y-49944960D01*
X193685656Y-49926519D01*
X193692552Y-49907774D01*
X193699085Y-49888700D01*
X193705268Y-49869271D01*
X193716632Y-49829256D01*
X193726739Y-49787875D01*
X193735690Y-49745295D01*
X193743581Y-49701684D01*
X193750512Y-49657208D01*
X193756581Y-49612036D01*
X193761886Y-49566335D01*
X193766525Y-49520272D01*
X193772743Y-49446099D01*
X193777922Y-49368905D01*
X193782434Y-49288048D01*
X193786654Y-49202889D01*
X193768009Y-49226598D01*
X193748946Y-49250014D01*
X193729435Y-49273118D01*
X193709442Y-49295891D01*
X193688935Y-49318316D01*
X193667881Y-49340373D01*
X193646248Y-49362043D01*
X193624004Y-49383309D01*
X193592941Y-49411395D01*
X193560810Y-49438640D01*
X193527677Y-49465012D01*
X193493611Y-49490481D01*
X193458679Y-49515015D01*
X193422949Y-49538583D01*
X193386489Y-49561154D01*
X193349367Y-49582696D01*
X193311651Y-49603178D01*
X193273408Y-49622568D01*
X193234707Y-49640836D01*
X193195615Y-49657950D01*
X193156200Y-49673879D01*
X193116530Y-49688591D01*
X193076672Y-49702056D01*
X193036696Y-49714242D01*
X192986643Y-49727600D01*
X192936547Y-49738959D01*
X192886445Y-49748370D01*
X192836374Y-49755883D01*
X192786372Y-49761548D01*
X192736476Y-49765414D01*
X192686723Y-49767532D01*
X192637151Y-49767953D01*
X192607511Y-49767428D01*
X192577959Y-49766318D01*
X192548504Y-49764633D01*
X192519151Y-49762383D01*
X192489910Y-49759578D01*
X192460786Y-49756228D01*
X192431788Y-49752343D01*
X192402923Y-49747933D01*
X192364657Y-49741325D01*
X192326659Y-49733799D01*
X192288945Y-49725333D01*
X192251527Y-49715905D01*
X192214423Y-49705493D01*
X192177645Y-49694074D01*
X192141208Y-49681627D01*
X192105127Y-49668130D01*
X192069417Y-49653559D01*
X192034092Y-49637893D01*
X191999166Y-49621111D01*
X191964655Y-49603188D01*
X191930572Y-49584104D01*
X191896933Y-49563837D01*
X191863752Y-49542363D01*
X191831043Y-49519662D01*
X191798827Y-49495700D01*
X191767146Y-49470546D01*
X191736045Y-49444256D01*
X191705569Y-49416888D01*
X191675765Y-49388499D01*
X191646678Y-49359148D01*
X191618354Y-49328890D01*
X191590838Y-49297784D01*
X191564177Y-49265886D01*
X191538415Y-49233255D01*
X191513599Y-49199948D01*
X191489775Y-49166022D01*
X191466987Y-49131534D01*
X191445282Y-49096543D01*
X191424705Y-49061104D01*
X191405302Y-49025277D01*
X191387107Y-48989071D01*
X191370105Y-48952590D01*
X191354267Y-48915897D01*
X191339563Y-48879050D01*
X191325965Y-48842111D01*
X191313443Y-48805140D01*
X191301970Y-48768199D01*
X191291517Y-48731347D01*
X191282053Y-48694645D01*
X191273551Y-48658154D01*
X191265982Y-48621934D01*
X191259316Y-48586047D01*
X191248580Y-48515511D01*
X191241113Y-48447030D01*
X191238537Y-48413692D01*
X191236718Y-48380931D01*
X191235653Y-48348690D01*
X191235338Y-48316909D01*
X191235772Y-48285530D01*
X191236950Y-48254497D01*
X191238871Y-48223749D01*
X191241531Y-48193230D01*
X191244927Y-48162882D01*
X191249057Y-48132645D01*
X191253917Y-48102463D01*
X191259504Y-48072276D01*
X191265817Y-48042027D01*
X191272851Y-48011658D01*
X191289072Y-47950326D01*
X191308208Y-47887918D01*
X191330474Y-47824166D01*
X191356147Y-47758880D01*
X191385501Y-47691872D01*
X191418812Y-47622953D01*
X191456355Y-47551934D01*
X191498406Y-47478626D01*
X191545240Y-47402840D01*
X191597153Y-47324378D01*
X191654529Y-47242934D01*
X191717773Y-47158156D01*
X191787291Y-47069695D01*
X191863488Y-46977200D01*
X191946770Y-46880320D01*
X192037542Y-46778706D01*
X192136211Y-46672005D01*
X192242875Y-46560191D01*
X192356399Y-46444266D01*
X192475339Y-46325569D01*
X192598251Y-46205437D01*
X192723689Y-46085208D01*
X192850209Y-45966220D01*
X192976367Y-45849809D01*
X193100718Y-45737313D01*
X193222126Y-45629819D01*
X193340692Y-45526904D01*
X193456822Y-45427917D01*
X193570921Y-45332207D01*
X193794653Y-45148017D01*
X194015134Y-44969125D01*
X194015149Y-44969125D01*
X194235623Y-45148017D01*
G36*
X194235623Y-45148017D02*
G01*
X194459342Y-45332207D01*
X194689555Y-45526904D01*
X194808114Y-45629819D01*
X194929516Y-45737313D01*
X195053870Y-45849809D01*
X195180025Y-45966220D01*
X195306538Y-46085208D01*
X195431966Y-46205437D01*
X195554868Y-46325569D01*
X195673798Y-46444266D01*
X195787316Y-46560191D01*
X195893978Y-46672005D01*
X195992646Y-46778706D01*
X196083418Y-46880320D01*
X196166700Y-46977200D01*
X196242898Y-47069695D01*
X196312417Y-47158156D01*
X196375663Y-47242934D01*
X196433043Y-47324378D01*
X196484961Y-47402840D01*
X196508991Y-47441055D01*
X196531792Y-47478626D01*
X196553399Y-47515578D01*
X196573845Y-47551934D01*
X196593165Y-47587718D01*
X196611394Y-47622953D01*
X196628565Y-47657663D01*
X196644713Y-47691872D01*
X196659872Y-47725603D01*
X196674077Y-47758880D01*
X196699759Y-47824166D01*
X196722033Y-47887918D01*
X196741174Y-47950326D01*
X196757405Y-48011658D01*
X196764441Y-48042027D01*
X196770753Y-48072276D01*
X196776339Y-48102463D01*
X196781196Y-48132645D01*
X196785322Y-48162882D01*
X196788713Y-48193230D01*
X196791368Y-48223749D01*
X196793283Y-48254497D01*
X196794456Y-48285530D01*
X196794884Y-48316909D01*
X196794564Y-48348690D01*
X196793495Y-48380931D01*
X196791672Y-48413692D01*
X196789094Y-48447030D01*
X196781618Y-48515511D01*
X196770879Y-48586047D01*
X196764212Y-48621934D01*
X196756643Y-48658154D01*
X196748141Y-48694645D01*
X196738679Y-48731347D01*
X196728226Y-48768199D01*
X196716754Y-48805140D01*
X196704234Y-48842111D01*
X196690637Y-48879050D01*
X196675934Y-48915897D01*
X196660095Y-48952590D01*
X196643092Y-48989071D01*
X196624896Y-49025277D01*
X196605491Y-49061104D01*
X196584912Y-49096543D01*
X196563205Y-49131534D01*
X196540417Y-49166022D01*
X196516591Y-49199948D01*
X196491775Y-49233255D01*
X196466014Y-49265886D01*
X196439353Y-49297784D01*
X196411838Y-49328890D01*
X196383515Y-49359148D01*
X196354429Y-49388499D01*
X196324627Y-49416888D01*
X196294153Y-49444256D01*
X196263054Y-49470546D01*
X196231375Y-49495700D01*
X196199162Y-49519662D01*
X196166450Y-49542363D01*
X196133267Y-49563837D01*
X196099628Y-49584104D01*
X196065546Y-49603188D01*
X196031037Y-49621111D01*
X195996114Y-49637893D01*
X195960793Y-49653559D01*
X195925087Y-49668130D01*
X195889011Y-49681627D01*
X195852579Y-49694074D01*
X195815806Y-49705493D01*
X195778706Y-49715905D01*
X195741293Y-49725333D01*
X195703583Y-49733799D01*
X195665588Y-49741325D01*
X195627325Y-49747933D01*
X195588801Y-49753661D01*
X195550043Y-49758467D01*
X195511070Y-49762325D01*
X195471901Y-49765208D01*
X195432554Y-49767091D01*
X195393049Y-49767947D01*
X195353406Y-49767749D01*
X195313642Y-49766473D01*
X195273778Y-49764090D01*
X195233831Y-49760575D01*
X195193822Y-49755902D01*
X195153770Y-49750045D01*
X195113692Y-49742976D01*
X195073610Y-49734670D01*
X195033541Y-49725101D01*
X194993504Y-49714242D01*
X194953527Y-49702056D01*
X194913670Y-49688591D01*
X194874002Y-49673879D01*
X194834589Y-49657950D01*
X194795499Y-49640836D01*
X194756801Y-49622568D01*
X194718561Y-49603178D01*
X194680849Y-49582696D01*
X194643730Y-49561154D01*
X194607274Y-49538583D01*
X194571548Y-49515015D01*
X194536619Y-49490481D01*
X194502556Y-49465012D01*
X194469426Y-49438640D01*
X194437297Y-49411395D01*
X194406237Y-49383309D01*
X194383996Y-49362048D01*
X194362367Y-49340390D01*
X194341318Y-49318348D01*
X194320817Y-49295937D01*
X194300829Y-49273172D01*
X194281324Y-49250066D01*
X194262268Y-49226633D01*
X194243628Y-49202889D01*
X194247837Y-49288048D01*
X194252351Y-49368905D01*
X194257536Y-49446099D01*
X194263758Y-49520272D01*
X194268399Y-49566335D01*
X194273705Y-49612036D01*
X194279774Y-49657208D01*
X194286705Y-49701684D01*
X194294596Y-49745295D01*
X194303546Y-49787875D01*
X194313654Y-49829256D01*
X194325017Y-49869271D01*
X194331200Y-49888700D01*
X194337734Y-49907774D01*
X194344630Y-49926519D01*
X194351901Y-49944960D01*
X194359560Y-49963123D01*
X194367618Y-49981033D01*
X194376088Y-49998716D01*
X194384983Y-50016198D01*
X194394315Y-50033503D01*
X194404095Y-50050659D01*
X194414337Y-50067689D01*
X194425053Y-50084620D01*
X194436256Y-50101478D01*
X194447956Y-50118287D01*
X194460168Y-50135074D01*
X194472903Y-50151864D01*
X194486170Y-50168692D01*
X194499927Y-50185505D01*
X194514132Y-50202258D01*
X194528742Y-50218911D01*
X194543715Y-50235421D01*
X194559008Y-50251745D01*
X194574578Y-50267842D01*
X194590384Y-50283669D01*
X194606381Y-50299185D01*
X194622528Y-50314346D01*
X194638783Y-50329111D01*
X194655101Y-50343438D01*
X194671442Y-50357284D01*
X194687761Y-50370607D01*
X194704018Y-50383365D01*
X194720168Y-50395516D01*
X194736168Y-50407028D01*
X194751969Y-50417908D01*
X194767522Y-50428170D01*
X194782780Y-50437829D01*
X194797692Y-50446898D01*
X194812211Y-50455392D01*
X194826288Y-50463325D01*
X194839873Y-50470711D01*
X194865376Y-50483903D01*
X194888331Y-50495080D01*
X194908348Y-50504357D01*
X194925037Y-50511849D01*
X194937600Y-50517689D01*
X194941602Y-50520046D01*
X194943615Y-50522059D01*
X194943764Y-50522945D01*
X194943283Y-50523753D01*
X194940253Y-50525151D01*
X194934173Y-50526276D01*
X194924689Y-50527154D01*
X194894093Y-50528258D01*
X194845637Y-50528655D01*
X194683838Y-50528084D01*
X194015142Y-50525277D01*
X193346439Y-50528084D01*
X193253788Y-50528533D01*
X193216457Y-50528647D01*
X193184650Y-50528655D01*
X193158014Y-50528533D01*
X193136196Y-50528258D01*
X193118843Y-50527806D01*
X193111730Y-50527507D01*
X193105601Y-50527154D01*
X193100411Y-50526745D01*
X193096116Y-50526276D01*
X193092672Y-50525746D01*
X193090035Y-50525151D01*
X193088161Y-50524487D01*
X193087496Y-50524129D01*
X193087005Y-50523753D01*
X193086683Y-50523358D01*
X193086524Y-50522945D01*
X193086522Y-50522512D01*
X193086673Y-50522059D01*
X193086969Y-50521587D01*
X193087407Y-50521094D01*
X193088684Y-50520046D01*
X193090458Y-50518912D01*
X193092686Y-50517689D01*
X193098325Y-50514964D01*
X193105247Y-50511849D01*
X193141948Y-50495080D01*
X193164901Y-50483903D01*
X193190402Y-50470711D01*
X193218063Y-50455392D01*
X193247495Y-50437829D01*
X193262753Y-50428170D01*
X193278307Y-50417908D01*
X193294110Y-50407028D01*
X193310111Y-50395516D01*
X193326262Y-50383365D01*
X193342520Y-50370607D01*
X193358840Y-50357284D01*
X193375182Y-50343438D01*
X193391501Y-50329111D01*
X193407756Y-50314346D01*
X193439901Y-50283669D01*
X193471276Y-50251745D01*
X193486568Y-50235421D01*
X193501540Y-50218911D01*
X193516148Y-50202258D01*
X193530351Y-50185505D01*
X193544105Y-50168692D01*
X193557368Y-50151864D01*
X193570105Y-50135074D01*
X193582319Y-50118287D01*
X193594022Y-50101478D01*
X193605226Y-50084620D01*
X193615943Y-50067689D01*
X193626187Y-50050659D01*
X193635969Y-50033503D01*
X193645301Y-50016198D01*
X193654196Y-49998716D01*
X193662667Y-49981033D01*
X193670726Y-49963123D01*
X193678385Y-49944960D01*
X193685656Y-49926519D01*
X193692552Y-49907774D01*
X193699085Y-49888700D01*
X193705268Y-49869271D01*
X193716632Y-49829256D01*
X193726739Y-49787875D01*
X193735690Y-49745295D01*
X193743581Y-49701684D01*
X193750512Y-49657208D01*
X193756581Y-49612036D01*
X193761886Y-49566335D01*
X193766525Y-49520272D01*
X193772743Y-49446099D01*
X193777922Y-49368905D01*
X193782434Y-49288048D01*
X193786654Y-49202889D01*
X193768009Y-49226598D01*
X193748946Y-49250014D01*
X193729435Y-49273118D01*
X193709442Y-49295891D01*
X193688935Y-49318316D01*
X193667881Y-49340373D01*
X193646248Y-49362043D01*
X193624004Y-49383309D01*
X193592941Y-49411395D01*
X193560810Y-49438640D01*
X193527677Y-49465012D01*
X193493611Y-49490481D01*
X193458679Y-49515015D01*
X193422949Y-49538583D01*
X193386489Y-49561154D01*
X193349367Y-49582696D01*
X193311651Y-49603178D01*
X193273408Y-49622568D01*
X193234707Y-49640836D01*
X193195615Y-49657950D01*
X193156200Y-49673879D01*
X193116530Y-49688591D01*
X193076672Y-49702056D01*
X193036696Y-49714242D01*
X192986643Y-49727600D01*
X192936547Y-49738959D01*
X192886445Y-49748370D01*
X192836374Y-49755883D01*
X192786372Y-49761548D01*
X192736476Y-49765414D01*
X192686723Y-49767532D01*
X192637151Y-49767953D01*
X192607511Y-49767428D01*
X192577959Y-49766318D01*
X192548504Y-49764633D01*
X192519151Y-49762383D01*
X192489910Y-49759578D01*
X192460786Y-49756228D01*
X192431788Y-49752343D01*
X192402923Y-49747933D01*
X192364657Y-49741325D01*
X192326659Y-49733799D01*
X192288945Y-49725333D01*
X192251527Y-49715905D01*
X192214423Y-49705493D01*
X192177645Y-49694074D01*
X192141208Y-49681627D01*
X192105127Y-49668130D01*
X192069417Y-49653559D01*
X192034092Y-49637893D01*
X191999166Y-49621111D01*
X191964655Y-49603188D01*
X191930572Y-49584104D01*
X191896933Y-49563837D01*
X191863752Y-49542363D01*
X191831043Y-49519662D01*
X191798827Y-49495700D01*
X191767146Y-49470546D01*
X191736045Y-49444256D01*
X191705569Y-49416888D01*
X191675765Y-49388499D01*
X191646678Y-49359148D01*
X191618354Y-49328890D01*
X191590838Y-49297784D01*
X191564177Y-49265886D01*
X191538415Y-49233255D01*
X191513599Y-49199948D01*
X191489775Y-49166022D01*
X191466987Y-49131534D01*
X191445282Y-49096543D01*
X191424705Y-49061104D01*
X191405302Y-49025277D01*
X191387107Y-48989071D01*
X191370105Y-48952590D01*
X191354267Y-48915897D01*
X191339563Y-48879050D01*
X191325965Y-48842111D01*
X191313443Y-48805140D01*
X191301970Y-48768199D01*
X191291517Y-48731347D01*
X191282053Y-48694645D01*
X191273551Y-48658154D01*
X191265982Y-48621934D01*
X191259316Y-48586047D01*
X191248580Y-48515511D01*
X191241113Y-48447030D01*
X191238537Y-48413692D01*
X191236718Y-48380931D01*
X191235653Y-48348690D01*
X191235338Y-48316909D01*
X191235772Y-48285530D01*
X191236950Y-48254497D01*
X191238871Y-48223749D01*
X191241531Y-48193230D01*
X191244927Y-48162882D01*
X191249057Y-48132645D01*
X191253917Y-48102463D01*
X191259504Y-48072276D01*
X191265817Y-48042027D01*
X191272851Y-48011658D01*
X191289072Y-47950326D01*
X191308208Y-47887918D01*
X191330474Y-47824166D01*
X191356147Y-47758880D01*
X191385501Y-47691872D01*
X191418812Y-47622953D01*
X191456355Y-47551934D01*
X191498406Y-47478626D01*
X191545240Y-47402840D01*
X191597153Y-47324378D01*
X191654529Y-47242934D01*
X191717773Y-47158156D01*
X191787291Y-47069695D01*
X191863488Y-46977200D01*
X191946770Y-46880320D01*
X192037542Y-46778706D01*
X192136211Y-46672005D01*
X192242875Y-46560191D01*
X192356399Y-46444266D01*
X192475339Y-46325569D01*
X192598251Y-46205437D01*
X192723689Y-46085208D01*
X192850209Y-45966220D01*
X192976367Y-45849809D01*
X193100718Y-45737313D01*
X193222126Y-45629819D01*
X193340692Y-45526904D01*
X193456822Y-45427917D01*
X193570921Y-45332207D01*
X193794653Y-45148017D01*
X194015134Y-44969125D01*
X194015149Y-44969125D01*
X194235623Y-45148017D01*
G37*
X193419488Y-136886341D02*
X193419691Y-136886585D01*
X193419894Y-136886838D01*
X193420096Y-136887098D01*
X193420502Y-136887634D01*
X193420908Y-136888182D01*
X193423235Y-136895511D01*
X193426414Y-136903902D01*
X193430498Y-136913557D01*
X193435540Y-136924681D01*
X193448711Y-136952143D01*
X193466355Y-136987913D01*
X193518098Y-137091297D01*
X193589783Y-137229689D01*
X193632854Y-137309863D01*
X193680609Y-137396210D01*
X193732949Y-137487869D01*
X193789774Y-137583982D01*
X193851011Y-137683727D01*
X193916683Y-137786667D01*
X193986831Y-137892378D01*
X194061495Y-138000441D01*
X194140718Y-138110431D01*
X194224539Y-138221928D01*
X194312999Y-138334509D01*
X194406141Y-138447752D01*
X194503744Y-138561094D01*
X194604575Y-138673429D01*
X194707152Y-138783522D01*
X194809995Y-138890135D01*
X194911623Y-138992033D01*
X195010554Y-139087980D01*
X195105308Y-139176741D01*
X195194403Y-139257078D01*
X195236386Y-139293717D01*
X195276576Y-139328016D01*
X195314973Y-139360056D01*
X195351577Y-139389915D01*
X195386391Y-139417672D01*
X195419414Y-139443406D01*
X195480093Y-139489119D01*
X195533619Y-139527684D01*
X195580000Y-139559734D01*
X195619242Y-139585899D01*
X195651351Y-139606810D01*
X195672099Y-139620109D01*
X195681132Y-139625759D01*
X195689463Y-139630812D01*
X195697237Y-139635321D01*
X195704598Y-139639339D01*
X195711690Y-139642920D01*
X195715180Y-139644563D01*
X195718657Y-139646116D01*
X195711691Y-139649277D01*
X195704599Y-139652841D01*
X195697239Y-139656858D01*
X195689465Y-139661375D01*
X195681133Y-139666441D01*
X195672100Y-139672106D01*
X195651351Y-139685423D01*
X195580001Y-139732483D01*
X195533620Y-139764522D01*
X195480093Y-139803083D01*
X195419415Y-139848803D01*
X195351578Y-139902317D01*
X195276576Y-139964263D01*
X195194403Y-140035276D01*
X195105308Y-140115609D01*
X195010554Y-140204355D01*
X194911623Y-140300283D01*
X194809995Y-140402159D01*
X194707152Y-140508749D01*
X194604575Y-140618822D01*
X194503744Y-140731143D01*
X194406141Y-140844480D01*
X194312999Y-140957759D01*
X194224538Y-141070356D01*
X194140717Y-141181855D01*
X194061495Y-141291838D01*
X193986830Y-141399886D01*
X193916683Y-141505583D01*
X193851011Y-141608510D01*
X193789774Y-141708250D01*
X193732949Y-141804363D01*
X193680609Y-141896023D01*
X193632854Y-141982370D01*
X193589783Y-142062544D01*
X193551498Y-142135686D01*
X193518098Y-142200935D01*
X193466355Y-142304319D01*
X193448713Y-142340038D01*
X193441594Y-142354704D01*
X193435540Y-142367506D01*
X193430497Y-142378643D01*
X193426412Y-142388313D01*
X193424713Y-142392661D01*
X193423234Y-142396716D01*
X193421967Y-142400505D01*
X193420908Y-142404051D01*
X193419285Y-142406126D01*
X193417662Y-142404051D01*
X193415326Y-142396716D01*
X193412143Y-142388313D01*
X193408060Y-142378643D01*
X193403019Y-142367506D01*
X193389846Y-142340038D01*
X193372180Y-142304319D01*
X193320436Y-142200935D01*
X193248751Y-142062544D01*
X193205681Y-141982370D01*
X193157926Y-141896023D01*
X193105586Y-141804363D01*
X193048762Y-141708250D01*
X192987526Y-141608510D01*
X192921858Y-141505583D01*
X192851715Y-141399886D01*
X192777057Y-141291838D01*
X192697840Y-141181855D01*
X192614024Y-141070356D01*
X192525567Y-140957759D01*
X192432427Y-140844480D01*
X192334813Y-140731143D01*
X192233975Y-140618822D01*
X192131393Y-140508749D01*
X192028549Y-140402159D01*
X191926923Y-140300283D01*
X191827996Y-140204355D01*
X191733250Y-140115609D01*
X191644165Y-140035276D01*
X191602176Y-139998596D01*
X191561982Y-139964263D01*
X191523583Y-139932196D01*
X191486976Y-139902317D01*
X191452161Y-139874546D01*
X191419138Y-139848803D01*
X191358459Y-139803083D01*
X191304933Y-139764522D01*
X191258550Y-139732483D01*
X191219303Y-139706329D01*
X191187184Y-139685423D01*
X191166439Y-139672106D01*
X191157409Y-139666441D01*
X191149080Y-139661375D01*
X191141308Y-139656858D01*
X191133948Y-139652841D01*
X191130376Y-139651006D01*
X191126853Y-139649277D01*
X191123359Y-139647649D01*
X191119878Y-139646116D01*
X191126854Y-139642920D01*
X191133950Y-139639339D01*
X191141311Y-139635321D01*
X191149083Y-139630812D01*
X191157411Y-139625759D01*
X191166440Y-139620109D01*
X191187184Y-139606810D01*
X191258550Y-139559734D01*
X191304933Y-139527684D01*
X191358460Y-139489119D01*
X191419138Y-139443406D01*
X191486977Y-139389915D01*
X191561983Y-139328016D01*
X191644165Y-139257078D01*
X191733250Y-139176741D01*
X191827996Y-139087980D01*
X191926923Y-138992033D01*
X192028549Y-138890135D01*
X192131393Y-138783522D01*
X192233975Y-138673429D01*
X192334813Y-138561094D01*
X192432427Y-138447752D01*
X192525567Y-138334509D01*
X192614024Y-138221928D01*
X192697840Y-138110431D01*
X192777056Y-138000441D01*
X192851715Y-137892378D01*
X192921858Y-137786667D01*
X192987526Y-137683727D01*
X193048762Y-137583982D01*
X193105586Y-137487869D01*
X193157926Y-137396210D01*
X193205681Y-137309863D01*
X193248751Y-137229689D01*
X193287036Y-137156547D01*
X193320436Y-137091297D01*
X193372180Y-136987913D01*
X193389850Y-136952143D01*
X193396972Y-136937475D01*
X193403026Y-136924681D01*
X193408066Y-136913557D01*
X193412149Y-136903902D01*
X193413849Y-136899561D01*
X193415329Y-136895511D01*
X193416598Y-136891726D01*
X193417662Y-136888182D01*
X193418068Y-136887634D01*
X193418473Y-136887098D01*
X193418676Y-136886838D01*
X193418879Y-136886585D01*
X193419082Y-136886341D01*
X193419285Y-136886106D01*
X193419488Y-136886341D01*
G36*
X193419488Y-136886341D02*
G01*
X193419691Y-136886585D01*
X193419894Y-136886838D01*
X193420096Y-136887098D01*
X193420502Y-136887634D01*
X193420908Y-136888182D01*
X193423235Y-136895511D01*
X193426414Y-136903902D01*
X193430498Y-136913557D01*
X193435540Y-136924681D01*
X193448711Y-136952143D01*
X193466355Y-136987913D01*
X193518098Y-137091297D01*
X193589783Y-137229689D01*
X193632854Y-137309863D01*
X193680609Y-137396210D01*
X193732949Y-137487869D01*
X193789774Y-137583982D01*
X193851011Y-137683727D01*
X193916683Y-137786667D01*
X193986831Y-137892378D01*
X194061495Y-138000441D01*
X194140718Y-138110431D01*
X194224539Y-138221928D01*
X194312999Y-138334509D01*
X194406141Y-138447752D01*
X194503744Y-138561094D01*
X194604575Y-138673429D01*
X194707152Y-138783522D01*
X194809995Y-138890135D01*
X194911623Y-138992033D01*
X195010554Y-139087980D01*
X195105308Y-139176741D01*
X195194403Y-139257078D01*
X195236386Y-139293717D01*
X195276576Y-139328016D01*
X195314973Y-139360056D01*
X195351577Y-139389915D01*
X195386391Y-139417672D01*
X195419414Y-139443406D01*
X195480093Y-139489119D01*
X195533619Y-139527684D01*
X195580000Y-139559734D01*
X195619242Y-139585899D01*
X195651351Y-139606810D01*
X195672099Y-139620109D01*
X195681132Y-139625759D01*
X195689463Y-139630812D01*
X195697237Y-139635321D01*
X195704598Y-139639339D01*
X195711690Y-139642920D01*
X195715180Y-139644563D01*
X195718657Y-139646116D01*
X195711691Y-139649277D01*
X195704599Y-139652841D01*
X195697239Y-139656858D01*
X195689465Y-139661375D01*
X195681133Y-139666441D01*
X195672100Y-139672106D01*
X195651351Y-139685423D01*
X195580001Y-139732483D01*
X195533620Y-139764522D01*
X195480093Y-139803083D01*
X195419415Y-139848803D01*
X195351578Y-139902317D01*
X195276576Y-139964263D01*
X195194403Y-140035276D01*
X195105308Y-140115609D01*
X195010554Y-140204355D01*
X194911623Y-140300283D01*
X194809995Y-140402159D01*
X194707152Y-140508749D01*
X194604575Y-140618822D01*
X194503744Y-140731143D01*
X194406141Y-140844480D01*
X194312999Y-140957759D01*
X194224538Y-141070356D01*
X194140717Y-141181855D01*
X194061495Y-141291838D01*
X193986830Y-141399886D01*
X193916683Y-141505583D01*
X193851011Y-141608510D01*
X193789774Y-141708250D01*
X193732949Y-141804363D01*
X193680609Y-141896023D01*
X193632854Y-141982370D01*
X193589783Y-142062544D01*
X193551498Y-142135686D01*
X193518098Y-142200935D01*
X193466355Y-142304319D01*
X193448713Y-142340038D01*
X193441594Y-142354704D01*
X193435540Y-142367506D01*
X193430497Y-142378643D01*
X193426412Y-142388313D01*
X193424713Y-142392661D01*
X193423234Y-142396716D01*
X193421967Y-142400505D01*
X193420908Y-142404051D01*
X193419285Y-142406126D01*
X193417662Y-142404051D01*
X193415326Y-142396716D01*
X193412143Y-142388313D01*
X193408060Y-142378643D01*
X193403019Y-142367506D01*
X193389846Y-142340038D01*
X193372180Y-142304319D01*
X193320436Y-142200935D01*
X193248751Y-142062544D01*
X193205681Y-141982370D01*
X193157926Y-141896023D01*
X193105586Y-141804363D01*
X193048762Y-141708250D01*
X192987526Y-141608510D01*
X192921858Y-141505583D01*
X192851715Y-141399886D01*
X192777057Y-141291838D01*
X192697840Y-141181855D01*
X192614024Y-141070356D01*
X192525567Y-140957759D01*
X192432427Y-140844480D01*
X192334813Y-140731143D01*
X192233975Y-140618822D01*
X192131393Y-140508749D01*
X192028549Y-140402159D01*
X191926923Y-140300283D01*
X191827996Y-140204355D01*
X191733250Y-140115609D01*
X191644165Y-140035276D01*
X191602176Y-139998596D01*
X191561982Y-139964263D01*
X191523583Y-139932196D01*
X191486976Y-139902317D01*
X191452161Y-139874546D01*
X191419138Y-139848803D01*
X191358459Y-139803083D01*
X191304933Y-139764522D01*
X191258550Y-139732483D01*
X191219303Y-139706329D01*
X191187184Y-139685423D01*
X191166439Y-139672106D01*
X191157409Y-139666441D01*
X191149080Y-139661375D01*
X191141308Y-139656858D01*
X191133948Y-139652841D01*
X191130376Y-139651006D01*
X191126853Y-139649277D01*
X191123359Y-139647649D01*
X191119878Y-139646116D01*
X191126854Y-139642920D01*
X191133950Y-139639339D01*
X191141311Y-139635321D01*
X191149083Y-139630812D01*
X191157411Y-139625759D01*
X191166440Y-139620109D01*
X191187184Y-139606810D01*
X191258550Y-139559734D01*
X191304933Y-139527684D01*
X191358460Y-139489119D01*
X191419138Y-139443406D01*
X191486977Y-139389915D01*
X191561983Y-139328016D01*
X191644165Y-139257078D01*
X191733250Y-139176741D01*
X191827996Y-139087980D01*
X191926923Y-138992033D01*
X192028549Y-138890135D01*
X192131393Y-138783522D01*
X192233975Y-138673429D01*
X192334813Y-138561094D01*
X192432427Y-138447752D01*
X192525567Y-138334509D01*
X192614024Y-138221928D01*
X192697840Y-138110431D01*
X192777056Y-138000441D01*
X192851715Y-137892378D01*
X192921858Y-137786667D01*
X192987526Y-137683727D01*
X193048762Y-137583982D01*
X193105586Y-137487869D01*
X193157926Y-137396210D01*
X193205681Y-137309863D01*
X193248751Y-137229689D01*
X193287036Y-137156547D01*
X193320436Y-137091297D01*
X193372180Y-136987913D01*
X193389850Y-136952143D01*
X193396972Y-136937475D01*
X193403026Y-136924681D01*
X193408066Y-136913557D01*
X193412149Y-136903902D01*
X193413849Y-136899561D01*
X193415329Y-136895511D01*
X193416598Y-136891726D01*
X193417662Y-136888182D01*
X193418068Y-136887634D01*
X193418473Y-136887098D01*
X193418676Y-136886838D01*
X193418879Y-136886585D01*
X193419082Y-136886341D01*
X193419285Y-136886106D01*
X193419488Y-136886341D01*
G37*
D10*
X65176000Y-89027000D02*
G75*
G03*
X64364000Y-89027000I-406000J0D01*
G01*
X64364000Y-89027000D02*
G75*
G03*
X65176000Y-89027000I406000J0D01*
G01*
D12*
%TO.C,U18*%
X48006000Y-48133000D03*
D13*
X45466000Y-64793000D03*
D14*
X48006000Y-64793000D03*
X50546000Y-64793000D03*
%TD*%
D15*
%TO.C,U6*%
X168402000Y-87503000D03*
D16*
X168402000Y-84963000D03*
X168402000Y-82423000D03*
X168402000Y-79883000D03*
X168402000Y-77343000D03*
X168402000Y-74803000D03*
X168402000Y-72263000D03*
X168402000Y-69723000D03*
X160782000Y-69723000D03*
X160782000Y-72263000D03*
X160782000Y-74803000D03*
X160782000Y-77343000D03*
X160782000Y-79883000D03*
X160782000Y-82423000D03*
X160782000Y-84963000D03*
X160782000Y-87503000D03*
%TD*%
D17*
%TO.C,C3*%
X173910000Y-115951000D03*
X168910000Y-115951000D03*
%TD*%
%TO.C,C15*%
X40894000Y-59793000D03*
X40894000Y-64793000D03*
%TD*%
D18*
%TO.C,C25*%
X148982500Y-54483000D03*
D19*
X148982500Y-72483000D03*
%TD*%
D15*
%TO.C,U10*%
X104257000Y-77338000D03*
D16*
X104257000Y-74798000D03*
X104257000Y-72258000D03*
X104257000Y-69718000D03*
X104257000Y-67178000D03*
X104257000Y-64638000D03*
X104257000Y-62098000D03*
X104257000Y-59558000D03*
X104257000Y-57018000D03*
X104257000Y-54478000D03*
X96637000Y-54478000D03*
X96637000Y-57018000D03*
X96637000Y-59558000D03*
X96637000Y-62098000D03*
X96637000Y-64638000D03*
X96637000Y-67178000D03*
X96637000Y-69718000D03*
X96637000Y-72258000D03*
X96637000Y-74798000D03*
X96637000Y-77338000D03*
%TD*%
D17*
%TO.C,R4*%
X142494000Y-121031000D03*
D16*
X152654000Y-121031000D03*
%TD*%
D15*
%TO.C,U2*%
X182118000Y-105283000D03*
D16*
X182118000Y-102743000D03*
X182118000Y-100203000D03*
X182118000Y-97663000D03*
X182118000Y-95123000D03*
X182118000Y-92583000D03*
X182118000Y-90043000D03*
X182118000Y-87503000D03*
X182118000Y-84963000D03*
X182118000Y-82423000D03*
X174498000Y-82423000D03*
X174498000Y-84963000D03*
X174498000Y-87503000D03*
X174498000Y-90043000D03*
X174498000Y-92583000D03*
X174498000Y-95123000D03*
X174498000Y-97663000D03*
X174498000Y-100203000D03*
X174498000Y-102743000D03*
X174498000Y-105283000D03*
%TD*%
D15*
%TO.C,U7*%
X143510000Y-77343000D03*
D16*
X143510000Y-74803000D03*
X143510000Y-72263000D03*
X143510000Y-69723000D03*
X143510000Y-67183000D03*
X143510000Y-64643000D03*
X143510000Y-62103000D03*
X143510000Y-59563000D03*
X143510000Y-57023000D03*
X143510000Y-54483000D03*
X135890000Y-54483000D03*
X135890000Y-57023000D03*
X135890000Y-59563000D03*
X135890000Y-62103000D03*
X135890000Y-64643000D03*
X135890000Y-67183000D03*
X135890000Y-69723000D03*
X135890000Y-72263000D03*
X135890000Y-74803000D03*
X135890000Y-77343000D03*
%TD*%
D15*
%TO.C,U14*%
X137287000Y-120523000D03*
D16*
X134747000Y-120523000D03*
X132207000Y-120523000D03*
X129667000Y-120523000D03*
X127127000Y-120523000D03*
X124587000Y-120523000D03*
X122047000Y-120523000D03*
X119507000Y-120523000D03*
X116967000Y-120523000D03*
X114427000Y-120523000D03*
X111887000Y-120523000D03*
X109347000Y-120523000D03*
X106807000Y-120523000D03*
X104267000Y-120523000D03*
X104267000Y-135763000D03*
X106807000Y-135763000D03*
X109347000Y-135763000D03*
X111887000Y-135763000D03*
X114427000Y-135763000D03*
X116967000Y-135763000D03*
X119507000Y-135763000D03*
X122047000Y-135763000D03*
X124587000Y-135763000D03*
X127127000Y-135763000D03*
X129667000Y-135763000D03*
X132207000Y-135763000D03*
X134747000Y-135763000D03*
X137287000Y-135763000D03*
%TD*%
D15*
%TO.C,D8*%
X165354000Y-136271000D03*
D16*
X175514000Y-136271000D03*
%TD*%
D20*
%TO.C,J1*%
X198882000Y-138303000D03*
X198882000Y-49403000D03*
D21*
X196342000Y-54483000D03*
D22*
X196342000Y-57023000D03*
X196342000Y-59563000D03*
X196342000Y-62103000D03*
X196342000Y-64643000D03*
X196342000Y-67183000D03*
X196342000Y-69723000D03*
X196342000Y-72263000D03*
X196342000Y-74803000D03*
X196342000Y-77343000D03*
X196342000Y-79883000D03*
X196342000Y-82423000D03*
X196342000Y-84963000D03*
X196342000Y-87503000D03*
X196342000Y-90043000D03*
X196342000Y-92583000D03*
X196342000Y-95123000D03*
X196342000Y-97663000D03*
X196342000Y-100203000D03*
X196342000Y-102743000D03*
X196342000Y-105283000D03*
X196342000Y-107823000D03*
X196342000Y-110363000D03*
X196342000Y-112903000D03*
X196342000Y-115443000D03*
X196342000Y-117983000D03*
X196342000Y-120523000D03*
X196342000Y-123063000D03*
X196342000Y-125603000D03*
X196342000Y-128143000D03*
X196342000Y-130683000D03*
X196342000Y-133223000D03*
X193802000Y-54483000D03*
X193802000Y-57023000D03*
X193802000Y-59563000D03*
X193802000Y-62103000D03*
X193802000Y-64643000D03*
X193802000Y-67183000D03*
X193802000Y-69723000D03*
X193802000Y-72263000D03*
X193802000Y-74803000D03*
X193802000Y-77343000D03*
X193802000Y-79883000D03*
X193802000Y-82423000D03*
X193802000Y-84963000D03*
X193802000Y-87503000D03*
X193802000Y-90043000D03*
X193802000Y-92583000D03*
X193802000Y-95123000D03*
X193802000Y-97663000D03*
X193802000Y-100203000D03*
X193802000Y-102743000D03*
X193802000Y-105283000D03*
X193802000Y-107823000D03*
X193802000Y-110363000D03*
X193802000Y-112903000D03*
X193802000Y-115443000D03*
X193802000Y-117983000D03*
X193802000Y-120523000D03*
X193802000Y-123063000D03*
X193802000Y-125603000D03*
X193802000Y-128143000D03*
X193802000Y-130683000D03*
X193802000Y-133223000D03*
%TD*%
D23*
%TO.C,Y1*%
X142494000Y-131191000D03*
X147394000Y-131191000D03*
%TD*%
D15*
%TO.C,D10*%
X152654000Y-133731000D03*
D16*
X162814000Y-133731000D03*
%TD*%
D24*
%TO.C,J2*%
X52070000Y-114427000D03*
D25*
X49530000Y-114427000D03*
X52070000Y-111887000D03*
X49530000Y-111887000D03*
X52070000Y-109347000D03*
X49530000Y-109347000D03*
X52070000Y-106807000D03*
X49530000Y-106807000D03*
X52070000Y-104267000D03*
X49530000Y-104267000D03*
X52070000Y-101727000D03*
X49530000Y-101727000D03*
X52070000Y-99187000D03*
X49530000Y-99187000D03*
X52070000Y-96647000D03*
X49530000Y-96647000D03*
X52070000Y-94107000D03*
X49530000Y-94107000D03*
X52070000Y-91567000D03*
X49530000Y-91567000D03*
X52070000Y-89027000D03*
X49530000Y-89027000D03*
X52070000Y-86487000D03*
X49530000Y-86487000D03*
X52070000Y-83947000D03*
X49530000Y-83947000D03*
X52070000Y-81407000D03*
X49530000Y-81407000D03*
X52070000Y-78867000D03*
X49530000Y-78867000D03*
X52070000Y-76327000D03*
X49530000Y-76327000D03*
X52070000Y-73787000D03*
X49530000Y-73787000D03*
%TD*%
D17*
%TO.C,J3*%
X168402000Y-53467000D03*
%TD*%
%TO.C,R3*%
X162814000Y-136271000D03*
D16*
X152654000Y-136271000D03*
%TD*%
D17*
%TO.C,C13*%
X55118000Y-59643000D03*
X55118000Y-64643000D03*
%TD*%
%TO.C,C20*%
X101647000Y-82931000D03*
X96647000Y-82931000D03*
%TD*%
D15*
%TO.C,U13*%
X89027000Y-120523000D03*
D16*
X86487000Y-120523000D03*
X83947000Y-120523000D03*
X81407000Y-120523000D03*
X78867000Y-120523000D03*
X76327000Y-120523000D03*
X73787000Y-120523000D03*
X71247000Y-120523000D03*
X68707000Y-120523000D03*
X66167000Y-120523000D03*
X63627000Y-120523000D03*
X61087000Y-120523000D03*
X58547000Y-120523000D03*
X56007000Y-120523000D03*
X56007000Y-135763000D03*
X58547000Y-135763000D03*
X61087000Y-135763000D03*
X63627000Y-135763000D03*
X66167000Y-135763000D03*
X68707000Y-135763000D03*
X71247000Y-135763000D03*
X73787000Y-135763000D03*
X76327000Y-135763000D03*
X78867000Y-135763000D03*
X81407000Y-135763000D03*
X83947000Y-135763000D03*
X86487000Y-135763000D03*
X89027000Y-135763000D03*
%TD*%
D17*
%TO.C,C17*%
X140890000Y-82931000D03*
X135890000Y-82931000D03*
%TD*%
%TO.C,C12*%
X99227000Y-113411000D03*
X104227000Y-113411000D03*
%TD*%
%TO.C,J5*%
X161798000Y-53467000D03*
%TD*%
D15*
%TO.C,D2*%
X178054000Y-69723000D03*
D16*
X188214000Y-69723000D03*
%TD*%
D17*
%TO.C,R6*%
X142494000Y-126111000D03*
D16*
X152654000Y-126111000D03*
%TD*%
D18*
%TO.C,C16*%
X64885500Y-51723000D03*
D19*
X64885500Y-69723000D03*
%TD*%
D17*
%TO.C,J4*%
X171958000Y-53467000D03*
%TD*%
D15*
%TO.C,U1*%
X185674000Y-133731000D03*
D16*
X185674000Y-131191000D03*
X185674000Y-128651000D03*
X185674000Y-126111000D03*
X185674000Y-123571000D03*
X185674000Y-121031000D03*
X185674000Y-118491000D03*
X185674000Y-115951000D03*
X185674000Y-113411000D03*
X185674000Y-110871000D03*
X178054000Y-110871000D03*
X178054000Y-113411000D03*
X178054000Y-115951000D03*
X178054000Y-118491000D03*
X178054000Y-121031000D03*
X178054000Y-123571000D03*
X178054000Y-126111000D03*
X178054000Y-128651000D03*
X178054000Y-131191000D03*
X178054000Y-133731000D03*
%TD*%
D15*
%TO.C,U8*%
X132842000Y-77338000D03*
D16*
X132842000Y-74798000D03*
X132842000Y-72258000D03*
X132842000Y-69718000D03*
X132842000Y-67178000D03*
X132842000Y-64638000D03*
X132842000Y-62098000D03*
X132842000Y-59558000D03*
X132842000Y-57018000D03*
X132842000Y-54478000D03*
X125222000Y-54478000D03*
X125222000Y-57018000D03*
X125222000Y-59558000D03*
X125222000Y-62098000D03*
X125222000Y-64638000D03*
X125222000Y-67178000D03*
X125222000Y-69718000D03*
X125222000Y-72258000D03*
X125222000Y-74798000D03*
X125222000Y-77338000D03*
%TD*%
D15*
%TO.C,D1*%
X161798000Y-62103000D03*
D16*
X171958000Y-62103000D03*
%TD*%
D17*
%TO.C,C21*%
X80010000Y-82931000D03*
X85010000Y-82931000D03*
%TD*%
D15*
%TO.C,D7*%
X165354000Y-133731000D03*
D16*
X175514000Y-133731000D03*
%TD*%
D18*
%TO.C,C23*%
X92086500Y-54483000D03*
D19*
X92086500Y-72483000D03*
%TD*%
D15*
%TO.C,U16*%
X76962000Y-110363000D03*
D16*
X76962000Y-107823000D03*
X76962000Y-105283000D03*
X76962000Y-102743000D03*
X76962000Y-100203000D03*
X76962000Y-97663000D03*
X76962000Y-95123000D03*
X76962000Y-92583000D03*
X69342000Y-92583000D03*
X69342000Y-95123000D03*
X69342000Y-97663000D03*
X69342000Y-100203000D03*
X69342000Y-102743000D03*
X69342000Y-105283000D03*
X69342000Y-107823000D03*
X69342000Y-110363000D03*
%TD*%
D15*
%TO.C,D5*%
X165354000Y-121031000D03*
D16*
X175514000Y-121031000D03*
%TD*%
D15*
%TO.C,U5*%
X168402000Y-107823000D03*
D16*
X168402000Y-105283000D03*
X168402000Y-102743000D03*
X168402000Y-100203000D03*
X168402000Y-97663000D03*
X168402000Y-95123000D03*
X168402000Y-92583000D03*
X168402000Y-90043000D03*
X160782000Y-90043000D03*
X160782000Y-92583000D03*
X160782000Y-95123000D03*
X160782000Y-97663000D03*
X160782000Y-100203000D03*
X160782000Y-102743000D03*
X160782000Y-105283000D03*
X160782000Y-107823000D03*
%TD*%
D15*
%TO.C,U17*%
X51562000Y-139573000D03*
D16*
X51562000Y-137033000D03*
X51562000Y-134493000D03*
X51562000Y-131953000D03*
X51562000Y-129413000D03*
X51562000Y-126873000D03*
X51562000Y-124333000D03*
X51562000Y-121793000D03*
X43942000Y-121793000D03*
X43942000Y-124333000D03*
X43942000Y-126873000D03*
X43942000Y-129413000D03*
X43942000Y-131953000D03*
X43942000Y-134493000D03*
X43942000Y-137033000D03*
X43942000Y-139573000D03*
%TD*%
D17*
%TO.C,R1*%
X165354000Y-118491000D03*
D16*
X175514000Y-118491000D03*
%TD*%
D17*
%TO.C,C2*%
X168990000Y-110871000D03*
X173990000Y-110871000D03*
%TD*%
%TO.C,R7*%
X59817000Y-100711000D03*
D16*
X59817000Y-110871000D03*
%TD*%
D15*
%TO.C,D4*%
X165354000Y-113411000D03*
D16*
X175514000Y-113411000D03*
%TD*%
D18*
%TO.C,C24*%
X120257500Y-54627000D03*
D19*
X120257500Y-72627000D03*
%TD*%
D17*
%TO.C,C18*%
X130222000Y-82931000D03*
X125222000Y-82931000D03*
%TD*%
D15*
%TO.C,D3*%
X178054000Y-72263000D03*
D16*
X188214000Y-72263000D03*
%TD*%
D17*
%TO.C,C19*%
X107442000Y-82931000D03*
X112442000Y-82931000D03*
%TD*%
D15*
%TO.C,U15*%
X100457000Y-135763000D03*
D16*
X100457000Y-133223000D03*
X100457000Y-130683000D03*
X100457000Y-128143000D03*
X100457000Y-125603000D03*
X100457000Y-123063000D03*
X100457000Y-120523000D03*
X92837000Y-120523000D03*
X92837000Y-123063000D03*
X92837000Y-125603000D03*
X92837000Y-128143000D03*
X92837000Y-130683000D03*
X92837000Y-133223000D03*
X92837000Y-135763000D03*
%TD*%
D15*
%TO.C,U12*%
X76962000Y-77343000D03*
D16*
X76962000Y-74803000D03*
X76962000Y-72263000D03*
X76962000Y-69723000D03*
X76962000Y-67183000D03*
X76962000Y-64643000D03*
X76962000Y-62103000D03*
X76962000Y-59563000D03*
X76962000Y-57023000D03*
X76962000Y-54483000D03*
X69342000Y-54483000D03*
X69342000Y-57023000D03*
X69342000Y-59563000D03*
X69342000Y-62103000D03*
X69342000Y-64643000D03*
X69342000Y-67183000D03*
X69342000Y-69723000D03*
X69342000Y-72263000D03*
X69342000Y-74803000D03*
X69342000Y-77343000D03*
%TD*%
D17*
%TO.C,R5*%
X142494000Y-123571000D03*
D16*
X152654000Y-123571000D03*
%TD*%
D17*
%TO.C,C22*%
X74342000Y-82931000D03*
X69342000Y-82931000D03*
%TD*%
%TO.C,R2*%
X165354000Y-126111000D03*
D16*
X175514000Y-126111000D03*
%TD*%
D15*
%TO.C,D6*%
X165354000Y-131191000D03*
D16*
X175514000Y-131191000D03*
%TD*%
D17*
%TO.C,R9*%
X59817000Y-77851000D03*
D16*
X59817000Y-88011000D03*
%TD*%
D15*
%TO.C,U4*%
X185674000Y-67183000D03*
D16*
X185674000Y-64643000D03*
X185674000Y-62103000D03*
X185674000Y-59563000D03*
X185674000Y-57023000D03*
X185674000Y-54483000D03*
X185674000Y-51943000D03*
X185674000Y-49403000D03*
X178054000Y-49403000D03*
X178054000Y-51943000D03*
X178054000Y-54483000D03*
X178054000Y-57023000D03*
X178054000Y-59563000D03*
X178054000Y-62103000D03*
X178054000Y-64643000D03*
X178054000Y-67183000D03*
%TD*%
D15*
%TO.C,U3*%
X162814000Y-126111000D03*
D16*
X162814000Y-123571000D03*
X162814000Y-121031000D03*
X162814000Y-118491000D03*
X162814000Y-115951000D03*
X162814000Y-113411000D03*
X162814000Y-110871000D03*
X155194000Y-110871000D03*
X155194000Y-113411000D03*
X155194000Y-115951000D03*
X155194000Y-118491000D03*
X155194000Y-121031000D03*
X155194000Y-123571000D03*
X155194000Y-126111000D03*
%TD*%
D17*
%TO.C,C5*%
X155194000Y-131191000D03*
X160194000Y-131191000D03*
%TD*%
%TO.C,C4*%
X169418000Y-123571000D03*
X174418000Y-123571000D03*
%TD*%
%TO.C,C1*%
X187706000Y-95203000D03*
X187706000Y-100203000D03*
%TD*%
D15*
%TO.C,U9*%
X115062000Y-77343000D03*
D16*
X115062000Y-74803000D03*
X115062000Y-72263000D03*
X115062000Y-69723000D03*
X115062000Y-67183000D03*
X115062000Y-64643000D03*
X115062000Y-62103000D03*
X115062000Y-59563000D03*
X115062000Y-57023000D03*
X115062000Y-54483000D03*
X107442000Y-54483000D03*
X107442000Y-57023000D03*
X107442000Y-59563000D03*
X107442000Y-62103000D03*
X107442000Y-64643000D03*
X107442000Y-67183000D03*
X107442000Y-69723000D03*
X107442000Y-72263000D03*
X107442000Y-74803000D03*
X107442000Y-77343000D03*
%TD*%
D17*
%TO.C,R8*%
X56642000Y-100711000D03*
D16*
X56642000Y-110871000D03*
%TD*%
D18*
%TO.C,C14*%
X59297500Y-51723000D03*
D19*
X59297500Y-69723000D03*
%TD*%
D15*
%TO.C,D9*%
X152614000Y-128651000D03*
D16*
X162774000Y-128651000D03*
%TD*%
D17*
%TO.C,C10*%
X142534000Y-136271000D03*
X147534000Y-136271000D03*
%TD*%
D15*
%TO.C,U11*%
X87757000Y-77343000D03*
D16*
X87757000Y-74803000D03*
X87757000Y-72263000D03*
X87757000Y-69723000D03*
X87757000Y-67183000D03*
X87757000Y-64643000D03*
X87757000Y-62103000D03*
X87757000Y-59563000D03*
X87757000Y-57023000D03*
X87757000Y-54483000D03*
X80137000Y-54483000D03*
X80137000Y-57023000D03*
X80137000Y-59563000D03*
X80137000Y-62103000D03*
X80137000Y-64643000D03*
X80137000Y-67183000D03*
X80137000Y-69723000D03*
X80137000Y-72263000D03*
X80137000Y-74803000D03*
X80137000Y-77343000D03*
%TD*%
D17*
%TO.C,R10*%
X56642000Y-77851000D03*
D16*
X56642000Y-88011000D03*
%TD*%
G36*
X53409121Y-44343002D02*
G01*
X53455614Y-44396658D01*
X53467000Y-44449000D01*
X53467000Y-53341000D01*
X53446998Y-53409121D01*
X53393342Y-53455614D01*
X53341000Y-53467000D01*
X42798000Y-53467000D01*
X42729879Y-53446998D01*
X42683386Y-53393342D01*
X42672000Y-53341000D01*
X42672000Y-44449000D01*
X42692002Y-44380879D01*
X42745658Y-44334386D01*
X42798000Y-44323000D01*
X53341000Y-44323000D01*
X53409121Y-44343002D01*
G37*
D26*
X201422000Y-44323000D02*
X38862000Y-44323000D01*
X201422000Y-143383000D02*
X201422000Y-44323000D01*
X38862000Y-44323000D02*
X38862000Y-143344900D01*
X114427000Y-47498000D02*
G75*
G03*
X110617000Y-47498000I-1905000J0D01*
G01*
X110617000Y-47498000D02*
G75*
G03*
X114427000Y-47498000I1905000J0D01*
G01*
X38862000Y-143344900D02*
X201422000Y-143383000D01*
M02*
