%TF.GenerationSoftware,KiCad,Pcbnew,6.0.8-f2edbf62ab~116~ubuntu22.04.1*%
%TF.CreationDate,2022-10-02T00:14:38+02:00*%
%TF.ProjectId,ql_trump_v2_disk_interface,716c5f74-7275-46d7-905f-76325f646973,01*%
%TF.SameCoordinates,Original*%
%TF.FileFunction,Legend,Top*%
%TF.FilePolarity,Positive*%
%FSLAX46Y46*%
G04 Gerber Fmt 4.6, Leading zero omitted, Abs format (unit mm)*
G04 Created by KiCad (PCBNEW 6.0.8-f2edbf62ab~116~ubuntu22.04.1) date 2022-10-02 00:14:38*
%MOMM*%
%LPD*%
G01*
G04 APERTURE LIST*
%TA.AperFunction,Profile*%
%ADD10C,0.050000*%
%TD*%
%ADD11C,0.150000*%
%ADD12C,0.120000*%
G04 APERTURE END LIST*
D10*
X201422000Y-44323000D02*
X38862000Y-44323000D01*
X201422000Y-143383000D02*
X201422000Y-44323000D01*
X38862000Y-44323000D02*
X38862000Y-143344900D01*
X114427000Y-47498000D02*
G75*
G03*
X114427000Y-47498000I-1905000J0D01*
G01*
X38862000Y-143344900D02*
X201422000Y-143383000D01*
D11*
X198969380Y-95932047D02*
X199683666Y-95932047D01*
X199826523Y-95979666D01*
X199921761Y-96074904D01*
X199969380Y-96217761D01*
X199969380Y-96313000D01*
X199969380Y-94979666D02*
X199969380Y-95455857D01*
X198969380Y-95455857D01*
X199874142Y-94074904D02*
X199921761Y-94122523D01*
X199969380Y-94265380D01*
X199969380Y-94360619D01*
X199921761Y-94503476D01*
X199826523Y-94598714D01*
X199731285Y-94646333D01*
X199540809Y-94693952D01*
X199397952Y-94693952D01*
X199207476Y-94646333D01*
X199112238Y-94598714D01*
X199017000Y-94503476D01*
X198969380Y-94360619D01*
X198969380Y-94265380D01*
X199017000Y-94122523D01*
X199064619Y-94074904D01*
X198969380Y-93360619D02*
X199683666Y-93360619D01*
X199826523Y-93408238D01*
X199921761Y-93503476D01*
X199969380Y-93646333D01*
X199969380Y-93741571D01*
X199969380Y-92408238D02*
X199969380Y-92884428D01*
X198969380Y-92884428D01*
X199874142Y-91503476D02*
X199921761Y-91551095D01*
X199969380Y-91693952D01*
X199969380Y-91789190D01*
X199921761Y-91932047D01*
X199826523Y-92027285D01*
X199731285Y-92074904D01*
X199540809Y-92122523D01*
X199397952Y-92122523D01*
X199207476Y-92074904D01*
X199112238Y-92027285D01*
X199017000Y-91932047D01*
X198969380Y-91789190D01*
X198969380Y-91693952D01*
X199017000Y-91551095D01*
X199064619Y-91503476D01*
X198969380Y-90789190D02*
X199683666Y-90789190D01*
X199826523Y-90836809D01*
X199921761Y-90932047D01*
X199969380Y-91074904D01*
X199969380Y-91170142D01*
X199969380Y-89836809D02*
X199969380Y-90313000D01*
X198969380Y-90313000D01*
X199874142Y-88932047D02*
X199921761Y-88979666D01*
X199969380Y-89122523D01*
X199969380Y-89217761D01*
X199921761Y-89360619D01*
X199826523Y-89455857D01*
X199731285Y-89503476D01*
X199540809Y-89551095D01*
X199397952Y-89551095D01*
X199207476Y-89503476D01*
X199112238Y-89455857D01*
X199017000Y-89360619D01*
X198969380Y-89217761D01*
X198969380Y-89122523D01*
X199017000Y-88979666D01*
X199064619Y-88932047D01*
X198969380Y-88217761D02*
X199683666Y-88217761D01*
X199826523Y-88265380D01*
X199921761Y-88360619D01*
X199969380Y-88503476D01*
X199969380Y-88598714D01*
X199969380Y-87265380D02*
X199969380Y-87741571D01*
X198969380Y-87741571D01*
X199874142Y-86360619D02*
X199921761Y-86408238D01*
X199969380Y-86551095D01*
X199969380Y-86646333D01*
X199921761Y-86789190D01*
X199826523Y-86884428D01*
X199731285Y-86932047D01*
X199540809Y-86979666D01*
X199397952Y-86979666D01*
X199207476Y-86932047D01*
X199112238Y-86884428D01*
X199017000Y-86789190D01*
X198969380Y-86646333D01*
X198969380Y-86551095D01*
X199017000Y-86408238D01*
X199064619Y-86360619D01*
D12*
%TO.C,U18*%
X48006000Y-61103000D02*
X48006000Y-63643000D01*
X42886000Y-45213000D02*
X53126000Y-45213000D01*
X53126000Y-45213000D02*
X53126000Y-61103000D01*
X42886000Y-61103000D02*
X53126000Y-61103000D01*
X42886000Y-45213000D02*
X42886000Y-61103000D01*
X50546000Y-61103000D02*
X50546000Y-63643000D01*
X45466000Y-61103000D02*
X45466000Y-63643000D01*
%TO.C,U6*%
X165592000Y-88833000D02*
X167242000Y-88833000D01*
X161942000Y-88833000D02*
X163592000Y-88833000D01*
X167242000Y-88833000D02*
X167242000Y-68393000D01*
X167242000Y-68393000D02*
X161942000Y-68393000D01*
X161942000Y-68393000D02*
X161942000Y-88833000D01*
X165592000Y-88833000D02*
G75*
G03*
X163592000Y-88833000I-1000000J0D01*
G01*
%TO.C,C3*%
X167790000Y-117321000D02*
X167790000Y-114581000D01*
X175030000Y-117321000D02*
X175030000Y-114581000D01*
X175030000Y-117321000D02*
X167790000Y-117321000D01*
X175030000Y-114581000D02*
X167790000Y-114581000D01*
%TO.C,C15*%
X42615000Y-59623000D02*
X42615000Y-64963000D01*
X39173000Y-59623000D02*
X39173000Y-64963000D01*
X42615000Y-64963000D02*
X41949000Y-64963000D01*
X39839000Y-64963000D02*
X39173000Y-64963000D01*
X42615000Y-59623000D02*
X41949000Y-59623000D01*
X39839000Y-59623000D02*
X39173000Y-59623000D01*
%TO.C,C25*%
X146362500Y-61463000D02*
X146362500Y-69103000D01*
X151602500Y-61463000D02*
X151602500Y-69103000D01*
X151602500Y-59663000D02*
X150702500Y-60563000D01*
X146362500Y-57863000D02*
X146362500Y-59663000D01*
X151602500Y-57863000D02*
X151602500Y-59663000D01*
X151582500Y-55763000D02*
X151582500Y-57563000D01*
X146362500Y-59663000D02*
X147262500Y-60563000D01*
X151602500Y-57863000D02*
X146362500Y-57863000D01*
X147262500Y-60563000D02*
X146362500Y-61463000D01*
X148982500Y-71043000D02*
X148982500Y-69103000D01*
X150702500Y-60563000D02*
X151602500Y-61463000D01*
X152482500Y-56663000D02*
X150682500Y-56663000D01*
X148982500Y-55923000D02*
X148982500Y-57863000D01*
X151602500Y-69103000D02*
X146362500Y-69103000D01*
%TO.C,U10*%
X103097000Y-78668000D02*
X103097000Y-53148000D01*
X103097000Y-53148000D02*
X97797000Y-53148000D01*
X97797000Y-53148000D02*
X97797000Y-78668000D01*
X97797000Y-78668000D02*
X99447000Y-78668000D01*
X101447000Y-78668000D02*
X103097000Y-78668000D01*
X101447000Y-78668000D02*
G75*
G03*
X99447000Y-78668000I-1000000J0D01*
G01*
%TO.C,R4*%
X144304000Y-119661000D02*
X144304000Y-122401000D01*
X150844000Y-122401000D02*
X150844000Y-119661000D01*
X150844000Y-119661000D02*
X144304000Y-119661000D01*
X143534000Y-121031000D02*
X144304000Y-121031000D01*
X144304000Y-122401000D02*
X150844000Y-122401000D01*
X151614000Y-121031000D02*
X150844000Y-121031000D01*
%TO.C,U2*%
X175658000Y-81093000D02*
X175658000Y-106613000D01*
X180958000Y-81093000D02*
X175658000Y-81093000D01*
X180958000Y-106613000D02*
X180958000Y-81093000D01*
X179308000Y-106613000D02*
X180958000Y-106613000D01*
X175658000Y-106613000D02*
X177308000Y-106613000D01*
X179308000Y-106613000D02*
G75*
G03*
X177308000Y-106613000I-1000000J0D01*
G01*
%TO.C,U7*%
X142350000Y-78673000D02*
X142350000Y-53153000D01*
X137050000Y-78673000D02*
X138700000Y-78673000D01*
X140700000Y-78673000D02*
X142350000Y-78673000D01*
X142350000Y-53153000D02*
X137050000Y-53153000D01*
X137050000Y-53153000D02*
X137050000Y-78673000D01*
X140700000Y-78673000D02*
G75*
G03*
X138700000Y-78673000I-1000000J0D01*
G01*
%TO.C,U14*%
X102937000Y-121683000D02*
X102937000Y-134603000D01*
X138617000Y-134603000D02*
X138617000Y-129143000D01*
X102937000Y-134603000D02*
X138617000Y-134603000D01*
X138617000Y-127143000D02*
X138617000Y-121683000D01*
X138617000Y-121683000D02*
X102937000Y-121683000D01*
X138617000Y-127143000D02*
G75*
G03*
X138617000Y-129143000I0J-1000000D01*
G01*
%TO.C,D8*%
X168914000Y-135151000D02*
X168914000Y-137391000D01*
X172554000Y-135151000D02*
X168314000Y-135151000D01*
X166394000Y-136271000D02*
X168314000Y-136271000D01*
X169034000Y-135151000D02*
X169034000Y-137391000D01*
X168314000Y-137391000D02*
X172554000Y-137391000D01*
X172554000Y-137391000D02*
X172554000Y-135151000D01*
X174474000Y-136271000D02*
X172554000Y-136271000D01*
X169154000Y-135151000D02*
X169154000Y-137391000D01*
X168314000Y-135151000D02*
X168314000Y-137391000D01*
%TO.C,J1*%
X197082000Y-57893000D02*
X197082000Y-58694000D01*
X197082000Y-68053000D02*
X197082000Y-68854000D01*
X197082000Y-60433000D02*
X197082000Y-61234000D01*
X201642000Y-46593000D02*
X196082000Y-46593000D01*
X197082000Y-121393000D02*
X197082000Y-122194000D01*
X197082000Y-52112000D02*
X197082000Y-53388000D01*
X197082000Y-78213000D02*
X197082000Y-79014000D01*
X197082000Y-93453000D02*
X197082000Y-94254000D01*
X197082000Y-85833000D02*
X197082000Y-86634000D01*
X197082000Y-116313000D02*
X197082000Y-117114000D01*
X196082000Y-46593000D02*
X196082000Y-52113000D01*
X197082000Y-113773000D02*
X197082000Y-114574000D01*
X197082000Y-95993000D02*
X197082000Y-96794000D01*
X197082000Y-111233000D02*
X197082000Y-112034000D01*
X197082000Y-131553000D02*
X197082000Y-132354000D01*
X197082000Y-90913000D02*
X197082000Y-91714000D01*
X197082000Y-55578000D02*
X197082000Y-56154000D01*
X197082000Y-88373000D02*
X197082000Y-89174000D01*
X197082000Y-70593000D02*
X197082000Y-71394000D01*
X196082000Y-141113000D02*
X196082000Y-135593000D01*
X196082000Y-52113000D02*
X197082000Y-52113000D01*
X197082000Y-62973000D02*
X197082000Y-63774000D01*
X197082000Y-108693000D02*
X197082000Y-109494000D01*
X197082000Y-73133000D02*
X197082000Y-73934000D01*
X196042000Y-52788000D02*
X196342000Y-53388000D01*
X196082000Y-135593000D02*
X197082000Y-135593000D01*
X197082000Y-75673000D02*
X197082000Y-76474000D01*
X197082000Y-101073000D02*
X197082000Y-101874000D01*
X196642000Y-52788000D02*
X196042000Y-52788000D01*
X197082000Y-123933000D02*
X197082000Y-124734000D01*
X196342000Y-53388000D02*
X196642000Y-52788000D01*
X197082000Y-83293000D02*
X197082000Y-84094000D01*
X197082000Y-98533000D02*
X197082000Y-99334000D01*
X197082000Y-129013000D02*
X197082000Y-129814000D01*
X197082000Y-65513000D02*
X197082000Y-66314000D01*
X197082000Y-103613000D02*
X197082000Y-104414000D01*
X197082000Y-134093000D02*
X197082000Y-135593000D01*
X197082000Y-118853000D02*
X197082000Y-119654000D01*
X197082000Y-106153000D02*
X197082000Y-106954000D01*
X197082000Y-126473000D02*
X197082000Y-127274000D01*
X201642000Y-141113000D02*
X196082000Y-141113000D01*
X197082000Y-80753000D02*
X197082000Y-81554000D01*
%TO.C,Y1*%
X141819000Y-128666000D02*
X148069000Y-128666000D01*
X141819000Y-133716000D02*
X148069000Y-133716000D01*
X148069000Y-133716000D02*
G75*
G03*
X148069000Y-128666000I0J2525000D01*
G01*
X141819000Y-128666000D02*
G75*
G03*
X141819000Y-133716000I0J-2525000D01*
G01*
%TO.C,D10*%
X161774000Y-133731000D02*
X159854000Y-133731000D01*
X156334000Y-132611000D02*
X156334000Y-134851000D01*
X159854000Y-132611000D02*
X155614000Y-132611000D01*
X159854000Y-134851000D02*
X159854000Y-132611000D01*
X155614000Y-132611000D02*
X155614000Y-134851000D01*
X156454000Y-132611000D02*
X156454000Y-134851000D01*
X156214000Y-132611000D02*
X156214000Y-134851000D01*
X153694000Y-133731000D02*
X155614000Y-133731000D01*
X155614000Y-134851000D02*
X159854000Y-134851000D01*
%TO.C,J2*%
X45430000Y-114507000D02*
X39430000Y-114507000D01*
X48487071Y-97027000D02*
X48090000Y-97027000D01*
X48487071Y-98807000D02*
X48090000Y-98807000D01*
X48487071Y-114047000D02*
X48090000Y-114047000D01*
X48487071Y-114807000D02*
X48090000Y-114807000D01*
X51027071Y-79247000D02*
X50572929Y-79247000D01*
X51027071Y-75947000D02*
X50572929Y-75947000D01*
X39430000Y-96267000D02*
X45430000Y-96267000D01*
X51027071Y-81787000D02*
X50572929Y-81787000D01*
X48487071Y-99567000D02*
X48090000Y-99567000D01*
X39430000Y-102107000D02*
X39430000Y-101347000D01*
X48090000Y-90297000D02*
X45430000Y-90297000D01*
X45430000Y-114807000D02*
X39430000Y-114807000D01*
X39430000Y-86107000D02*
X45430000Y-86107000D01*
X51027071Y-83567000D02*
X50572929Y-83567000D01*
X48090000Y-100457000D02*
X45430000Y-100457000D01*
X39430000Y-109727000D02*
X39430000Y-108967000D01*
X51027071Y-93727000D02*
X50572929Y-93727000D01*
X45430000Y-99567000D02*
X39430000Y-99567000D01*
X51027071Y-73407000D02*
X50572929Y-73407000D01*
X45430000Y-94487000D02*
X39430000Y-94487000D01*
X39430000Y-104647000D02*
X39430000Y-103887000D01*
X51027071Y-106427000D02*
X50572929Y-106427000D01*
X51027071Y-101347000D02*
X50572929Y-101347000D01*
X39430000Y-107187000D02*
X39430000Y-106427000D01*
X45430000Y-76707000D02*
X39430000Y-76707000D01*
X48487071Y-111507000D02*
X48090000Y-111507000D01*
X45430000Y-114747000D02*
X39430000Y-114747000D01*
X51027071Y-91947000D02*
X50572929Y-91947000D01*
X48487071Y-76707000D02*
X48090000Y-76707000D01*
X48090000Y-105537000D02*
X45430000Y-105537000D01*
X48487071Y-81027000D02*
X48090000Y-81027000D01*
X50960000Y-114807000D02*
X50572929Y-114807000D01*
X45430000Y-91947000D02*
X39430000Y-91947000D01*
X39430000Y-97027000D02*
X39430000Y-96267000D01*
X39430000Y-94487000D02*
X39430000Y-93727000D01*
X48487071Y-86867000D02*
X48090000Y-86867000D01*
X51027071Y-104647000D02*
X50572929Y-104647000D01*
X39430000Y-76707000D02*
X39430000Y-75947000D01*
X48090000Y-87757000D02*
X45430000Y-87757000D01*
X48090000Y-77597000D02*
X45430000Y-77597000D01*
X51027071Y-76707000D02*
X50572929Y-76707000D01*
X48090000Y-80137000D02*
X45430000Y-80137000D01*
X48090000Y-102997000D02*
X45430000Y-102997000D01*
X50960000Y-114047000D02*
X50572929Y-114047000D01*
X48487071Y-108967000D02*
X48090000Y-108967000D01*
X48090000Y-72457000D02*
X45430000Y-72457000D01*
X39430000Y-91187000D02*
X45430000Y-91187000D01*
X51027071Y-84327000D02*
X50572929Y-84327000D01*
X53340000Y-114427000D02*
X53340000Y-115697000D01*
X51027071Y-99567000D02*
X50572929Y-99567000D01*
X45430000Y-84327000D02*
X39430000Y-84327000D01*
X39430000Y-114047000D02*
X45430000Y-114047000D01*
X48487071Y-107187000D02*
X48090000Y-107187000D01*
X48090000Y-85217000D02*
X45430000Y-85217000D01*
X48487071Y-89407000D02*
X48090000Y-89407000D01*
X48487071Y-104647000D02*
X48090000Y-104647000D01*
X39430000Y-88647000D02*
X45430000Y-88647000D01*
X51027071Y-107187000D02*
X50572929Y-107187000D01*
X51027071Y-98807000D02*
X50572929Y-98807000D01*
X48487071Y-91947000D02*
X48090000Y-91947000D01*
X51027071Y-89407000D02*
X50572929Y-89407000D01*
X39430000Y-74167000D02*
X39430000Y-73407000D01*
X48487071Y-112267000D02*
X48090000Y-112267000D01*
X48487071Y-103887000D02*
X48090000Y-103887000D01*
X39430000Y-83567000D02*
X45430000Y-83567000D01*
X51027071Y-103887000D02*
X50572929Y-103887000D01*
X48090000Y-113157000D02*
X45430000Y-113157000D01*
X48090000Y-82677000D02*
X45430000Y-82677000D01*
X48090000Y-92837000D02*
X45430000Y-92837000D01*
X45430000Y-114627000D02*
X39430000Y-114627000D01*
X39430000Y-79247000D02*
X39430000Y-78487000D01*
X45430000Y-79247000D02*
X39430000Y-79247000D01*
X45430000Y-104647000D02*
X39430000Y-104647000D01*
X39430000Y-91947000D02*
X39430000Y-91187000D01*
X45430000Y-81787000D02*
X39430000Y-81787000D01*
X48487071Y-86107000D02*
X48090000Y-86107000D01*
X48487071Y-106427000D02*
X48090000Y-106427000D01*
X39430000Y-86867000D02*
X39430000Y-86107000D01*
X39430000Y-84327000D02*
X39430000Y-83567000D01*
X39430000Y-103887000D02*
X45430000Y-103887000D01*
X39430000Y-101347000D02*
X45430000Y-101347000D01*
X45430000Y-109727000D02*
X39430000Y-109727000D01*
X45430000Y-72457000D02*
X45430000Y-115757000D01*
X39430000Y-89407000D02*
X39430000Y-88647000D01*
X39430000Y-99567000D02*
X39430000Y-98807000D01*
X39430000Y-93727000D02*
X45430000Y-93727000D01*
X39430000Y-73407000D02*
X45430000Y-73407000D01*
X48487071Y-83567000D02*
X48090000Y-83567000D01*
X48090000Y-97917000D02*
X45430000Y-97917000D01*
X48487071Y-75947000D02*
X48090000Y-75947000D01*
X39430000Y-81027000D02*
X45430000Y-81027000D01*
X53340000Y-115697000D02*
X52070000Y-115697000D01*
X39430000Y-111507000D02*
X45430000Y-111507000D01*
X48487071Y-91187000D02*
X48090000Y-91187000D01*
X51027071Y-86107000D02*
X50572929Y-86107000D01*
X39430000Y-112267000D02*
X39430000Y-111507000D01*
X48487071Y-96267000D02*
X48090000Y-96267000D01*
X45430000Y-89407000D02*
X39430000Y-89407000D01*
X45430000Y-107187000D02*
X39430000Y-107187000D01*
X45430000Y-97027000D02*
X39430000Y-97027000D01*
X48487071Y-88647000D02*
X48090000Y-88647000D01*
X48487071Y-78487000D02*
X48090000Y-78487000D01*
X48487071Y-81787000D02*
X48090000Y-81787000D01*
X39430000Y-108967000D02*
X45430000Y-108967000D01*
X39430000Y-114807000D02*
X39430000Y-114047000D01*
X45430000Y-86867000D02*
X39430000Y-86867000D01*
X48090000Y-110617000D02*
X45430000Y-110617000D01*
X48090000Y-95377000D02*
X45430000Y-95377000D01*
X51027071Y-111507000D02*
X50572929Y-111507000D01*
X51027071Y-109727000D02*
X50572929Y-109727000D01*
X39430000Y-81787000D02*
X39430000Y-81027000D01*
X45430000Y-114267000D02*
X39430000Y-114267000D01*
X51027071Y-88647000D02*
X50572929Y-88647000D01*
X45430000Y-114147000D02*
X39430000Y-114147000D01*
X45430000Y-112267000D02*
X39430000Y-112267000D01*
X51027071Y-86867000D02*
X50572929Y-86867000D01*
X48487071Y-79247000D02*
X48090000Y-79247000D01*
X51027071Y-112267000D02*
X50572929Y-112267000D01*
X51027071Y-94487000D02*
X50572929Y-94487000D01*
X51027071Y-91187000D02*
X50572929Y-91187000D01*
X51027071Y-78487000D02*
X50572929Y-78487000D01*
X48487071Y-101347000D02*
X48090000Y-101347000D01*
X48090000Y-75057000D02*
X45430000Y-75057000D01*
X48487071Y-93727000D02*
X48090000Y-93727000D01*
X48090000Y-108077000D02*
X45430000Y-108077000D01*
X39430000Y-78487000D02*
X45430000Y-78487000D01*
X45430000Y-114387000D02*
X39430000Y-114387000D01*
X45430000Y-102107000D02*
X39430000Y-102107000D01*
X51027071Y-102107000D02*
X50572929Y-102107000D01*
X51027071Y-97027000D02*
X50572929Y-97027000D01*
X48090000Y-115757000D02*
X48090000Y-72457000D01*
X39430000Y-106427000D02*
X45430000Y-106427000D01*
X48487071Y-74167000D02*
X48090000Y-74167000D01*
X48487071Y-84327000D02*
X48090000Y-84327000D01*
X45430000Y-74167000D02*
X39430000Y-74167000D01*
X48487071Y-73407000D02*
X48090000Y-73407000D01*
X39430000Y-98807000D02*
X45430000Y-98807000D01*
X39430000Y-75947000D02*
X45430000Y-75947000D01*
X51027071Y-96267000D02*
X50572929Y-96267000D01*
X45430000Y-115757000D02*
X48090000Y-115757000D01*
X48487071Y-109727000D02*
X48090000Y-109727000D01*
X51027071Y-81027000D02*
X50572929Y-81027000D01*
X48487071Y-102107000D02*
X48090000Y-102107000D01*
X48487071Y-94487000D02*
X48090000Y-94487000D01*
X51027071Y-74167000D02*
X50572929Y-74167000D01*
X51027071Y-108967000D02*
X50572929Y-108967000D01*
%TO.C,R3*%
X161004000Y-134901000D02*
X154464000Y-134901000D01*
X154464000Y-137641000D02*
X161004000Y-137641000D01*
X161004000Y-137641000D02*
X161004000Y-134901000D01*
X154464000Y-134901000D02*
X154464000Y-137641000D01*
X161774000Y-136271000D02*
X161004000Y-136271000D01*
X153694000Y-136271000D02*
X154464000Y-136271000D01*
%TO.C,C13*%
X56839000Y-59473000D02*
X56839000Y-64813000D01*
X53397000Y-59473000D02*
X53397000Y-64813000D01*
X56839000Y-59473000D02*
X56173000Y-59473000D01*
X56839000Y-64813000D02*
X56173000Y-64813000D01*
X54063000Y-59473000D02*
X53397000Y-59473000D01*
X54063000Y-64813000D02*
X53397000Y-64813000D01*
%TO.C,C20*%
X95277000Y-85252000D02*
X95277000Y-80610000D01*
X103017000Y-80610000D02*
X95277000Y-80610000D01*
X103017000Y-85252000D02*
X95277000Y-85252000D01*
X103017000Y-85252000D02*
X103017000Y-80610000D01*
%TO.C,U13*%
X54677000Y-134603000D02*
X90357000Y-134603000D01*
X90357000Y-127143000D02*
X90357000Y-121683000D01*
X54677000Y-121683000D02*
X54677000Y-134603000D01*
X90357000Y-121683000D02*
X54677000Y-121683000D01*
X90357000Y-134603000D02*
X90357000Y-129143000D01*
X90357000Y-127143000D02*
G75*
G03*
X90357000Y-129143000I0J-1000000D01*
G01*
%TO.C,C17*%
X142260000Y-80610000D02*
X134520000Y-80610000D01*
X142260000Y-85252000D02*
X134520000Y-85252000D01*
X134520000Y-85252000D02*
X134520000Y-80610000D01*
X142260000Y-85252000D02*
X142260000Y-80610000D01*
%TO.C,C12*%
X105597000Y-111090000D02*
X105597000Y-115732000D01*
X97857000Y-115732000D02*
X105597000Y-115732000D01*
X97857000Y-111090000D02*
X97857000Y-115732000D01*
X97857000Y-111090000D02*
X105597000Y-111090000D01*
%TO.C,D2*%
X181014000Y-70843000D02*
X185254000Y-70843000D01*
X181854000Y-68603000D02*
X181854000Y-70843000D01*
X179094000Y-69723000D02*
X181014000Y-69723000D01*
X181614000Y-68603000D02*
X181614000Y-70843000D01*
X185254000Y-68603000D02*
X181014000Y-68603000D01*
X181014000Y-68603000D02*
X181014000Y-70843000D01*
X185254000Y-70843000D02*
X185254000Y-68603000D01*
X181734000Y-68603000D02*
X181734000Y-70843000D01*
X187174000Y-69723000D02*
X185254000Y-69723000D01*
%TO.C,R6*%
X150844000Y-124741000D02*
X144304000Y-124741000D01*
X143534000Y-126111000D02*
X144304000Y-126111000D01*
X144304000Y-127481000D02*
X150844000Y-127481000D01*
X151614000Y-126111000D02*
X150844000Y-126111000D01*
X150844000Y-127481000D02*
X150844000Y-124741000D01*
X144304000Y-124741000D02*
X144304000Y-127481000D01*
%TO.C,C16*%
X64885500Y-68283000D02*
X64885500Y-66343000D01*
X63165500Y-57803000D02*
X62265500Y-58703000D01*
X62265500Y-56903000D02*
X63165500Y-57803000D01*
X62265500Y-55103000D02*
X62265500Y-56903000D01*
X67505500Y-66343000D02*
X62265500Y-66343000D01*
X66605500Y-57803000D02*
X67505500Y-58703000D01*
X64885500Y-53163000D02*
X64885500Y-55103000D01*
X67485500Y-53003000D02*
X67485500Y-54803000D01*
X67505500Y-55103000D02*
X67505500Y-56903000D01*
X67505500Y-55103000D02*
X62265500Y-55103000D01*
X67505500Y-58703000D02*
X67505500Y-66343000D01*
X67505500Y-56903000D02*
X66605500Y-57803000D01*
X62265500Y-58703000D02*
X62265500Y-66343000D01*
X68385500Y-53903000D02*
X66585500Y-53903000D01*
%TO.C,U1*%
X179214000Y-109541000D02*
X179214000Y-135061000D01*
X182864000Y-135061000D02*
X184514000Y-135061000D01*
X184514000Y-109541000D02*
X179214000Y-109541000D01*
X179214000Y-135061000D02*
X180864000Y-135061000D01*
X184514000Y-135061000D02*
X184514000Y-109541000D01*
X182864000Y-135061000D02*
G75*
G03*
X180864000Y-135061000I-1000000J0D01*
G01*
%TO.C,U8*%
X130032000Y-78668000D02*
X131682000Y-78668000D01*
X131682000Y-53148000D02*
X126382000Y-53148000D01*
X126382000Y-53148000D02*
X126382000Y-78668000D01*
X131682000Y-78668000D02*
X131682000Y-53148000D01*
X126382000Y-78668000D02*
X128032000Y-78668000D01*
X130032000Y-78668000D02*
G75*
G03*
X128032000Y-78668000I-1000000J0D01*
G01*
%TO.C,D1*%
X164758000Y-60983000D02*
X164758000Y-63223000D01*
X164758000Y-63223000D02*
X168998000Y-63223000D01*
X165598000Y-60983000D02*
X165598000Y-63223000D01*
X170918000Y-62103000D02*
X168998000Y-62103000D01*
X165478000Y-60983000D02*
X165478000Y-63223000D01*
X162838000Y-62103000D02*
X164758000Y-62103000D01*
X168998000Y-60983000D02*
X164758000Y-60983000D01*
X168998000Y-63223000D02*
X168998000Y-60983000D01*
X165358000Y-60983000D02*
X165358000Y-63223000D01*
%TO.C,C21*%
X78640000Y-80610000D02*
X86380000Y-80610000D01*
X86380000Y-80610000D02*
X86380000Y-85252000D01*
X78640000Y-80610000D02*
X78640000Y-85252000D01*
X78640000Y-85252000D02*
X86380000Y-85252000D01*
%TO.C,D7*%
X174474000Y-133731000D02*
X172554000Y-133731000D01*
X172554000Y-132611000D02*
X168314000Y-132611000D01*
X172554000Y-134851000D02*
X172554000Y-132611000D01*
X168314000Y-132611000D02*
X168314000Y-134851000D01*
X168314000Y-134851000D02*
X172554000Y-134851000D01*
X168914000Y-132611000D02*
X168914000Y-134851000D01*
X169154000Y-132611000D02*
X169154000Y-134851000D01*
X166394000Y-133731000D02*
X168314000Y-133731000D01*
X169034000Y-132611000D02*
X169034000Y-134851000D01*
%TO.C,C23*%
X95586500Y-56663000D02*
X93786500Y-56663000D01*
X93806500Y-60563000D02*
X94706500Y-61463000D01*
X94686500Y-55763000D02*
X94686500Y-57563000D01*
X92086500Y-55923000D02*
X92086500Y-57863000D01*
X90366500Y-60563000D02*
X89466500Y-61463000D01*
X89466500Y-61463000D02*
X89466500Y-69103000D01*
X94706500Y-61463000D02*
X94706500Y-69103000D01*
X92086500Y-71043000D02*
X92086500Y-69103000D01*
X89466500Y-59663000D02*
X90366500Y-60563000D01*
X94706500Y-57863000D02*
X94706500Y-59663000D01*
X94706500Y-59663000D02*
X93806500Y-60563000D01*
X94706500Y-69103000D02*
X89466500Y-69103000D01*
X94706500Y-57863000D02*
X89466500Y-57863000D01*
X89466500Y-57863000D02*
X89466500Y-59663000D01*
%TO.C,U16*%
X75802000Y-91253000D02*
X70502000Y-91253000D01*
X74152000Y-111693000D02*
X75802000Y-111693000D01*
X70502000Y-91253000D02*
X70502000Y-111693000D01*
X75802000Y-111693000D02*
X75802000Y-91253000D01*
X70502000Y-111693000D02*
X72152000Y-111693000D01*
X74152000Y-111693000D02*
G75*
G03*
X72152000Y-111693000I-1000000J0D01*
G01*
%TO.C,D5*%
X172554000Y-119911000D02*
X168314000Y-119911000D01*
X168914000Y-119911000D02*
X168914000Y-122151000D01*
X168314000Y-122151000D02*
X172554000Y-122151000D01*
X174474000Y-121031000D02*
X172554000Y-121031000D01*
X168314000Y-119911000D02*
X168314000Y-122151000D01*
X172554000Y-122151000D02*
X172554000Y-119911000D01*
X166394000Y-121031000D02*
X168314000Y-121031000D01*
X169154000Y-119911000D02*
X169154000Y-122151000D01*
X169034000Y-119911000D02*
X169034000Y-122151000D01*
%TO.C,U5*%
X167242000Y-109153000D02*
X167242000Y-88713000D01*
X167242000Y-88713000D02*
X161942000Y-88713000D01*
X161942000Y-109153000D02*
X163592000Y-109153000D01*
X165592000Y-109153000D02*
X167242000Y-109153000D01*
X161942000Y-88713000D02*
X161942000Y-109153000D01*
X165592000Y-109153000D02*
G75*
G03*
X163592000Y-109153000I-1000000J0D01*
G01*
%TO.C,U17*%
X45102000Y-120463000D02*
X45102000Y-140903000D01*
X50402000Y-120463000D02*
X45102000Y-120463000D01*
X45102000Y-140903000D02*
X46752000Y-140903000D01*
X50402000Y-140903000D02*
X50402000Y-120463000D01*
X48752000Y-140903000D02*
X50402000Y-140903000D01*
X48752000Y-140903000D02*
G75*
G03*
X46752000Y-140903000I-1000000J0D01*
G01*
%TO.C,R1*%
X173704000Y-119861000D02*
X173704000Y-117121000D01*
X167164000Y-117121000D02*
X167164000Y-119861000D01*
X174474000Y-118491000D02*
X173704000Y-118491000D01*
X173704000Y-117121000D02*
X167164000Y-117121000D01*
X166394000Y-118491000D02*
X167164000Y-118491000D01*
X167164000Y-119861000D02*
X173704000Y-119861000D01*
%TO.C,C2*%
X167870000Y-112241000D02*
X175110000Y-112241000D01*
X175110000Y-109501000D02*
X175110000Y-112241000D01*
X167870000Y-109501000D02*
X167870000Y-112241000D01*
X167870000Y-109501000D02*
X175110000Y-109501000D01*
%TO.C,R7*%
X58447000Y-102521000D02*
X58447000Y-109061000D01*
X61187000Y-102521000D02*
X58447000Y-102521000D01*
X58447000Y-109061000D02*
X61187000Y-109061000D01*
X59817000Y-109831000D02*
X59817000Y-109061000D01*
X59817000Y-101751000D02*
X59817000Y-102521000D01*
X61187000Y-109061000D02*
X61187000Y-102521000D01*
%TO.C,D4*%
X172554000Y-114531000D02*
X172554000Y-112291000D01*
X169154000Y-112291000D02*
X169154000Y-114531000D01*
X166394000Y-113411000D02*
X168314000Y-113411000D01*
X169034000Y-112291000D02*
X169034000Y-114531000D01*
X172554000Y-112291000D02*
X168314000Y-112291000D01*
X168314000Y-114531000D02*
X172554000Y-114531000D01*
X174474000Y-113411000D02*
X172554000Y-113411000D01*
X168914000Y-112291000D02*
X168914000Y-114531000D01*
X168314000Y-112291000D02*
X168314000Y-114531000D01*
%TO.C,C24*%
X122857500Y-55907000D02*
X122857500Y-57707000D01*
X117637500Y-59807000D02*
X118537500Y-60707000D01*
X122877500Y-58007000D02*
X117637500Y-58007000D01*
X121977500Y-60707000D02*
X122877500Y-61607000D01*
X123757500Y-56807000D02*
X121957500Y-56807000D01*
X118537500Y-60707000D02*
X117637500Y-61607000D01*
X122877500Y-69247000D02*
X117637500Y-69247000D01*
X117637500Y-61607000D02*
X117637500Y-69247000D01*
X122877500Y-58007000D02*
X122877500Y-59807000D01*
X122877500Y-61607000D02*
X122877500Y-69247000D01*
X117637500Y-58007000D02*
X117637500Y-59807000D01*
X122877500Y-59807000D02*
X121977500Y-60707000D01*
X120257500Y-71187000D02*
X120257500Y-69247000D01*
X120257500Y-56067000D02*
X120257500Y-58007000D01*
%TO.C,C18*%
X131592000Y-85252000D02*
X123852000Y-85252000D01*
X123852000Y-85252000D02*
X123852000Y-80610000D01*
X131592000Y-85252000D02*
X131592000Y-80610000D01*
X131592000Y-80610000D02*
X123852000Y-80610000D01*
%TO.C,D3*%
X179094000Y-72263000D02*
X181014000Y-72263000D01*
X181734000Y-71143000D02*
X181734000Y-73383000D01*
X185254000Y-71143000D02*
X181014000Y-71143000D01*
X181854000Y-71143000D02*
X181854000Y-73383000D01*
X185254000Y-73383000D02*
X185254000Y-71143000D01*
X181014000Y-71143000D02*
X181014000Y-73383000D01*
X187174000Y-72263000D02*
X185254000Y-72263000D01*
X181014000Y-73383000D02*
X185254000Y-73383000D01*
X181614000Y-71143000D02*
X181614000Y-73383000D01*
%TO.C,C19*%
X113812000Y-80610000D02*
X113812000Y-85252000D01*
X106072000Y-80610000D02*
X106072000Y-85252000D01*
X106072000Y-85252000D02*
X113812000Y-85252000D01*
X106072000Y-80610000D02*
X113812000Y-80610000D01*
%TO.C,U15*%
X93997000Y-119193000D02*
X93997000Y-137093000D01*
X93997000Y-137093000D02*
X95647000Y-137093000D01*
X99297000Y-137093000D02*
X99297000Y-119193000D01*
X97647000Y-137093000D02*
X99297000Y-137093000D01*
X99297000Y-119193000D02*
X93997000Y-119193000D01*
X97647000Y-137093000D02*
G75*
G03*
X95647000Y-137093000I-1000000J0D01*
G01*
%TO.C,U12*%
X70502000Y-78673000D02*
X72152000Y-78673000D01*
X70502000Y-53153000D02*
X70502000Y-78673000D01*
X75802000Y-78673000D02*
X75802000Y-53153000D01*
X74152000Y-78673000D02*
X75802000Y-78673000D01*
X75802000Y-53153000D02*
X70502000Y-53153000D01*
X74152000Y-78673000D02*
G75*
G03*
X72152000Y-78673000I-1000000J0D01*
G01*
%TO.C,R5*%
X151614000Y-123571000D02*
X150844000Y-123571000D01*
X150844000Y-124941000D02*
X150844000Y-122201000D01*
X150844000Y-122201000D02*
X144304000Y-122201000D01*
X143534000Y-123571000D02*
X144304000Y-123571000D01*
X144304000Y-124941000D02*
X150844000Y-124941000D01*
X144304000Y-122201000D02*
X144304000Y-124941000D01*
%TO.C,C22*%
X75712000Y-85252000D02*
X75712000Y-80610000D01*
X75712000Y-85252000D02*
X67972000Y-85252000D01*
X67972000Y-85252000D02*
X67972000Y-80610000D01*
X75712000Y-80610000D02*
X67972000Y-80610000D01*
%TO.C,R2*%
X173704000Y-127481000D02*
X173704000Y-124741000D01*
X174474000Y-126111000D02*
X173704000Y-126111000D01*
X167164000Y-127481000D02*
X173704000Y-127481000D01*
X167164000Y-124741000D02*
X167164000Y-127481000D01*
X173704000Y-124741000D02*
X167164000Y-124741000D01*
X166394000Y-126111000D02*
X167164000Y-126111000D01*
%TO.C,D6*%
X174474000Y-131191000D02*
X172554000Y-131191000D01*
X172554000Y-132311000D02*
X172554000Y-130071000D01*
X166394000Y-131191000D02*
X168314000Y-131191000D01*
X169034000Y-130071000D02*
X169034000Y-132311000D01*
X172554000Y-130071000D02*
X168314000Y-130071000D01*
X168314000Y-132311000D02*
X172554000Y-132311000D01*
X168314000Y-130071000D02*
X168314000Y-132311000D01*
X169154000Y-130071000D02*
X169154000Y-132311000D01*
X168914000Y-130071000D02*
X168914000Y-132311000D01*
%TO.C,R9*%
X58447000Y-79661000D02*
X58447000Y-86201000D01*
X61187000Y-79661000D02*
X58447000Y-79661000D01*
X59817000Y-86971000D02*
X59817000Y-86201000D01*
X58447000Y-86201000D02*
X61187000Y-86201000D01*
X61187000Y-86201000D02*
X61187000Y-79661000D01*
X59817000Y-78891000D02*
X59817000Y-79661000D01*
%TO.C,U4*%
X179214000Y-68513000D02*
X180864000Y-68513000D01*
X179214000Y-48073000D02*
X179214000Y-68513000D01*
X182864000Y-68513000D02*
X184514000Y-68513000D01*
X184514000Y-48073000D02*
X179214000Y-48073000D01*
X184514000Y-68513000D02*
X184514000Y-48073000D01*
X182864000Y-68513000D02*
G75*
G03*
X180864000Y-68513000I-1000000J0D01*
G01*
%TO.C,U3*%
X156354000Y-127441000D02*
X158004000Y-127441000D01*
X161654000Y-127441000D02*
X161654000Y-109541000D01*
X156354000Y-109541000D02*
X156354000Y-127441000D01*
X160004000Y-127441000D02*
X161654000Y-127441000D01*
X161654000Y-109541000D02*
X156354000Y-109541000D01*
X160004000Y-127441000D02*
G75*
G03*
X158004000Y-127441000I-1000000J0D01*
G01*
%TO.C,C5*%
X161314000Y-129821000D02*
X161314000Y-132561000D01*
X154074000Y-129821000D02*
X161314000Y-129821000D01*
X154074000Y-129821000D02*
X154074000Y-132561000D01*
X154074000Y-132561000D02*
X161314000Y-132561000D01*
%TO.C,C4*%
X175538000Y-122201000D02*
X175538000Y-124941000D01*
X168298000Y-122201000D02*
X168298000Y-124941000D01*
X168298000Y-124941000D02*
X175538000Y-124941000D01*
X168298000Y-122201000D02*
X175538000Y-122201000D01*
%TO.C,C1*%
X190027000Y-93833000D02*
X185385000Y-93833000D01*
X185385000Y-93833000D02*
X185385000Y-101573000D01*
X190027000Y-93833000D02*
X190027000Y-101573000D01*
X190027000Y-101573000D02*
X185385000Y-101573000D01*
%TO.C,U9*%
X113902000Y-53153000D02*
X108602000Y-53153000D01*
X112252000Y-78673000D02*
X113902000Y-78673000D01*
X108602000Y-53153000D02*
X108602000Y-78673000D01*
X113902000Y-78673000D02*
X113902000Y-53153000D01*
X108602000Y-78673000D02*
X110252000Y-78673000D01*
X112252000Y-78673000D02*
G75*
G03*
X110252000Y-78673000I-1000000J0D01*
G01*
%TO.C,R8*%
X58012000Y-102521000D02*
X55272000Y-102521000D01*
X56642000Y-109831000D02*
X56642000Y-109061000D01*
X55272000Y-109061000D02*
X58012000Y-109061000D01*
X56642000Y-101751000D02*
X56642000Y-102521000D01*
X58012000Y-109061000D02*
X58012000Y-102521000D01*
X55272000Y-102521000D02*
X55272000Y-109061000D01*
%TO.C,C14*%
X61917500Y-56903000D02*
X61017500Y-57803000D01*
X61917500Y-55103000D02*
X61917500Y-56903000D01*
X59297500Y-53163000D02*
X59297500Y-55103000D01*
X61917500Y-58703000D02*
X61917500Y-66343000D01*
X61917500Y-55103000D02*
X56677500Y-55103000D01*
X61897500Y-53003000D02*
X61897500Y-54803000D01*
X59297500Y-68283000D02*
X59297500Y-66343000D01*
X57577500Y-57803000D02*
X56677500Y-58703000D01*
X56677500Y-56903000D02*
X57577500Y-57803000D01*
X61917500Y-66343000D02*
X56677500Y-66343000D01*
X62797500Y-53903000D02*
X60997500Y-53903000D01*
X61017500Y-57803000D02*
X61917500Y-58703000D01*
X56677500Y-55103000D02*
X56677500Y-56903000D01*
X56677500Y-58703000D02*
X56677500Y-66343000D01*
%TO.C,D9*%
X159814000Y-127531000D02*
X155574000Y-127531000D01*
X153654000Y-128651000D02*
X155574000Y-128651000D01*
X161734000Y-128651000D02*
X159814000Y-128651000D01*
X155574000Y-129771000D02*
X159814000Y-129771000D01*
X159814000Y-129771000D02*
X159814000Y-127531000D01*
X156414000Y-127531000D02*
X156414000Y-129771000D01*
X156174000Y-127531000D02*
X156174000Y-129771000D01*
X155574000Y-127531000D02*
X155574000Y-129771000D01*
X156294000Y-127531000D02*
X156294000Y-129771000D01*
%TO.C,C10*%
X141164000Y-133950000D02*
X148904000Y-133950000D01*
X141164000Y-138592000D02*
X148904000Y-138592000D01*
X141164000Y-133950000D02*
X141164000Y-138592000D01*
X148904000Y-133950000D02*
X148904000Y-138592000D01*
%TO.C,U11*%
X84947000Y-78673000D02*
X86597000Y-78673000D01*
X81297000Y-53153000D02*
X81297000Y-78673000D01*
X86597000Y-53153000D02*
X81297000Y-53153000D01*
X81297000Y-78673000D02*
X82947000Y-78673000D01*
X86597000Y-78673000D02*
X86597000Y-53153000D01*
X84947000Y-78673000D02*
G75*
G03*
X82947000Y-78673000I-1000000J0D01*
G01*
%TO.C,R10*%
X55272000Y-86201000D02*
X58012000Y-86201000D01*
X58012000Y-86201000D02*
X58012000Y-79661000D01*
X58012000Y-79661000D02*
X55272000Y-79661000D01*
X55272000Y-79661000D02*
X55272000Y-86201000D01*
X56642000Y-86971000D02*
X56642000Y-86201000D01*
X56642000Y-78891000D02*
X56642000Y-79661000D01*
%TD*%
M02*
