%TF.GenerationSoftware,KiCad,Pcbnew,7.0.11+1*%
%TF.CreationDate,2024-05-08T20:05:28+02:00*%
%TF.ProjectId,ql_trump_v2_disk_interface,716c5f74-7275-46d7-905f-76325f646973,01*%
%TF.SameCoordinates,Original*%
%TF.FileFunction,Soldermask,Top*%
%TF.FilePolarity,Negative*%
%FSLAX46Y46*%
G04 Gerber Fmt 4.6, Leading zero omitted, Abs format (unit mm)*
G04 Created by KiCad (PCBNEW 7.0.11+1) date 2024-05-08 20:05:28*
%MOMM*%
%LPD*%
G01*
G04 APERTURE LIST*
G04 Aperture macros list*
%AMRoundRect*
0 Rectangle with rounded corners*
0 $1 Rounding radius*
0 $2 $3 $4 $5 $6 $7 $8 $9 X,Y pos of 4 corners*
0 Add a 4 corners polygon primitive as box body*
4,1,4,$2,$3,$4,$5,$6,$7,$8,$9,$2,$3,0*
0 Add four circle primitives for the rounded corners*
1,1,$1+$1,$2,$3*
1,1,$1+$1,$4,$5*
1,1,$1+$1,$6,$7*
1,1,$1+$1,$8,$9*
0 Add four rect primitives between the rounded corners*
20,1,$1+$1,$2,$3,$4,$5,0*
20,1,$1+$1,$4,$5,$6,$7,0*
20,1,$1+$1,$6,$7,$8,$9,0*
20,1,$1+$1,$8,$9,$2,$3,0*%
G04 Aperture macros list end*
%ADD10C,0.010000*%
%ADD11C,0.812000*%
%ADD12O,3.500000X3.500000*%
%ADD13R,1.905000X2.000000*%
%ADD14O,1.905000X2.000000*%
%ADD15R,1.600000X1.600000*%
%ADD16O,1.600000X1.600000*%
%ADD17C,1.600000*%
%ADD18R,2.400000X2.400000*%
%ADD19O,2.400000X2.400000*%
%ADD20C,2.850000*%
%ADD21RoundRect,0.249999X-0.525001X0.525001X-0.525001X-0.525001X0.525001X-0.525001X0.525001X0.525001X0*%
%ADD22C,1.550000*%
%ADD23C,1.500000*%
%ADD24R,1.700000X1.700000*%
%ADD25O,1.700000X1.700000*%
%TA.AperFunction,Profile*%
%ADD26C,0.050000*%
%TD*%
G04 APERTURE END LIST*
D10*
X193365160Y-136864966D02*
X193365363Y-136865210D01*
X193365566Y-136865463D01*
X193365768Y-136865723D01*
X193366174Y-136866259D01*
X193366580Y-136866807D01*
X193368907Y-136874136D01*
X193372086Y-136882527D01*
X193376170Y-136892182D01*
X193381212Y-136903306D01*
X193394383Y-136930768D01*
X193412027Y-136966538D01*
X193463770Y-137069922D01*
X193535455Y-137208314D01*
X193578526Y-137288488D01*
X193626281Y-137374835D01*
X193678621Y-137466494D01*
X193735446Y-137562607D01*
X193796683Y-137662352D01*
X193862355Y-137765292D01*
X193932503Y-137871003D01*
X194007167Y-137979066D01*
X194086390Y-138089056D01*
X194170211Y-138200553D01*
X194258671Y-138313134D01*
X194351813Y-138426377D01*
X194449416Y-138539719D01*
X194550247Y-138652054D01*
X194652824Y-138762147D01*
X194755667Y-138868760D01*
X194857295Y-138970658D01*
X194956226Y-139066605D01*
X195050980Y-139155366D01*
X195140075Y-139235703D01*
X195182058Y-139272342D01*
X195222248Y-139306641D01*
X195260645Y-139338681D01*
X195297249Y-139368540D01*
X195332063Y-139396297D01*
X195365086Y-139422031D01*
X195425765Y-139467744D01*
X195479291Y-139506309D01*
X195525672Y-139538359D01*
X195564914Y-139564524D01*
X195597023Y-139585435D01*
X195617771Y-139598734D01*
X195626804Y-139604384D01*
X195635135Y-139609437D01*
X195642909Y-139613946D01*
X195650270Y-139617964D01*
X195657362Y-139621545D01*
X195660852Y-139623188D01*
X195664329Y-139624741D01*
X195657363Y-139627902D01*
X195650271Y-139631466D01*
X195642911Y-139635483D01*
X195635137Y-139640000D01*
X195626805Y-139645066D01*
X195617772Y-139650731D01*
X195597023Y-139664048D01*
X195525673Y-139711108D01*
X195479292Y-139743147D01*
X195425765Y-139781708D01*
X195365087Y-139827428D01*
X195297250Y-139880942D01*
X195222248Y-139942888D01*
X195140075Y-140013901D01*
X195050980Y-140094234D01*
X194956226Y-140182980D01*
X194857295Y-140278908D01*
X194755667Y-140380784D01*
X194652824Y-140487374D01*
X194550247Y-140597447D01*
X194449416Y-140709768D01*
X194351813Y-140823105D01*
X194258671Y-140936384D01*
X194170210Y-141048981D01*
X194086389Y-141160480D01*
X194007167Y-141270463D01*
X193932502Y-141378511D01*
X193862355Y-141484208D01*
X193796683Y-141587135D01*
X193735446Y-141686875D01*
X193678621Y-141782988D01*
X193626281Y-141874648D01*
X193578526Y-141960995D01*
X193535455Y-142041169D01*
X193497170Y-142114311D01*
X193463770Y-142179560D01*
X193412027Y-142282944D01*
X193394385Y-142318663D01*
X193387266Y-142333329D01*
X193381212Y-142346131D01*
X193376169Y-142357268D01*
X193372084Y-142366938D01*
X193370385Y-142371286D01*
X193368906Y-142375341D01*
X193367639Y-142379130D01*
X193366580Y-142382676D01*
X193364957Y-142384751D01*
X193363334Y-142382676D01*
X193360998Y-142375341D01*
X193357815Y-142366938D01*
X193353732Y-142357268D01*
X193348691Y-142346131D01*
X193335518Y-142318663D01*
X193317852Y-142282944D01*
X193266108Y-142179560D01*
X193194423Y-142041169D01*
X193151353Y-141960995D01*
X193103598Y-141874648D01*
X193051258Y-141782988D01*
X192994434Y-141686875D01*
X192933198Y-141587135D01*
X192867530Y-141484208D01*
X192797387Y-141378511D01*
X192722729Y-141270463D01*
X192643512Y-141160480D01*
X192559696Y-141048981D01*
X192471239Y-140936384D01*
X192378099Y-140823105D01*
X192280485Y-140709768D01*
X192179647Y-140597447D01*
X192077065Y-140487374D01*
X191974221Y-140380784D01*
X191872595Y-140278908D01*
X191773668Y-140182980D01*
X191678922Y-140094234D01*
X191589837Y-140013901D01*
X191547848Y-139977221D01*
X191507654Y-139942888D01*
X191469255Y-139910821D01*
X191432648Y-139880942D01*
X191397833Y-139853171D01*
X191364810Y-139827428D01*
X191304131Y-139781708D01*
X191250605Y-139743147D01*
X191204222Y-139711108D01*
X191164975Y-139684954D01*
X191132856Y-139664048D01*
X191112111Y-139650731D01*
X191103081Y-139645066D01*
X191094752Y-139640000D01*
X191086980Y-139635483D01*
X191079620Y-139631466D01*
X191076048Y-139629631D01*
X191072525Y-139627902D01*
X191069031Y-139626274D01*
X191065550Y-139624741D01*
X191072526Y-139621545D01*
X191079622Y-139617964D01*
X191086983Y-139613946D01*
X191094755Y-139609437D01*
X191103083Y-139604384D01*
X191112112Y-139598734D01*
X191132856Y-139585435D01*
X191204222Y-139538359D01*
X191250605Y-139506309D01*
X191304132Y-139467744D01*
X191364810Y-139422031D01*
X191432649Y-139368540D01*
X191507655Y-139306641D01*
X191589837Y-139235703D01*
X191678922Y-139155366D01*
X191773668Y-139066605D01*
X191872595Y-138970658D01*
X191974221Y-138868760D01*
X192077065Y-138762147D01*
X192179647Y-138652054D01*
X192280485Y-138539719D01*
X192378099Y-138426377D01*
X192471239Y-138313134D01*
X192559696Y-138200553D01*
X192643512Y-138089056D01*
X192722728Y-137979066D01*
X192797387Y-137871003D01*
X192867530Y-137765292D01*
X192933198Y-137662352D01*
X192994434Y-137562607D01*
X193051258Y-137466494D01*
X193103598Y-137374835D01*
X193151353Y-137288488D01*
X193194423Y-137208314D01*
X193232708Y-137135172D01*
X193266108Y-137069922D01*
X193317852Y-136966538D01*
X193335522Y-136930768D01*
X193342644Y-136916100D01*
X193348698Y-136903306D01*
X193353738Y-136892182D01*
X193357821Y-136882527D01*
X193359521Y-136878186D01*
X193361001Y-136874136D01*
X193362270Y-136870351D01*
X193363334Y-136866807D01*
X193363740Y-136866259D01*
X193364145Y-136865723D01*
X193364348Y-136865463D01*
X193364551Y-136865210D01*
X193364754Y-136864966D01*
X193364957Y-136864731D01*
X193365160Y-136864966D01*
G36*
X193365160Y-136864966D02*
G01*
X193365363Y-136865210D01*
X193365566Y-136865463D01*
X193365768Y-136865723D01*
X193366174Y-136866259D01*
X193366580Y-136866807D01*
X193368907Y-136874136D01*
X193372086Y-136882527D01*
X193376170Y-136892182D01*
X193381212Y-136903306D01*
X193394383Y-136930768D01*
X193412027Y-136966538D01*
X193463770Y-137069922D01*
X193535455Y-137208314D01*
X193578526Y-137288488D01*
X193626281Y-137374835D01*
X193678621Y-137466494D01*
X193735446Y-137562607D01*
X193796683Y-137662352D01*
X193862355Y-137765292D01*
X193932503Y-137871003D01*
X194007167Y-137979066D01*
X194086390Y-138089056D01*
X194170211Y-138200553D01*
X194258671Y-138313134D01*
X194351813Y-138426377D01*
X194449416Y-138539719D01*
X194550247Y-138652054D01*
X194652824Y-138762147D01*
X194755667Y-138868760D01*
X194857295Y-138970658D01*
X194956226Y-139066605D01*
X195050980Y-139155366D01*
X195140075Y-139235703D01*
X195182058Y-139272342D01*
X195222248Y-139306641D01*
X195260645Y-139338681D01*
X195297249Y-139368540D01*
X195332063Y-139396297D01*
X195365086Y-139422031D01*
X195425765Y-139467744D01*
X195479291Y-139506309D01*
X195525672Y-139538359D01*
X195564914Y-139564524D01*
X195597023Y-139585435D01*
X195617771Y-139598734D01*
X195626804Y-139604384D01*
X195635135Y-139609437D01*
X195642909Y-139613946D01*
X195650270Y-139617964D01*
X195657362Y-139621545D01*
X195660852Y-139623188D01*
X195664329Y-139624741D01*
X195657363Y-139627902D01*
X195650271Y-139631466D01*
X195642911Y-139635483D01*
X195635137Y-139640000D01*
X195626805Y-139645066D01*
X195617772Y-139650731D01*
X195597023Y-139664048D01*
X195525673Y-139711108D01*
X195479292Y-139743147D01*
X195425765Y-139781708D01*
X195365087Y-139827428D01*
X195297250Y-139880942D01*
X195222248Y-139942888D01*
X195140075Y-140013901D01*
X195050980Y-140094234D01*
X194956226Y-140182980D01*
X194857295Y-140278908D01*
X194755667Y-140380784D01*
X194652824Y-140487374D01*
X194550247Y-140597447D01*
X194449416Y-140709768D01*
X194351813Y-140823105D01*
X194258671Y-140936384D01*
X194170210Y-141048981D01*
X194086389Y-141160480D01*
X194007167Y-141270463D01*
X193932502Y-141378511D01*
X193862355Y-141484208D01*
X193796683Y-141587135D01*
X193735446Y-141686875D01*
X193678621Y-141782988D01*
X193626281Y-141874648D01*
X193578526Y-141960995D01*
X193535455Y-142041169D01*
X193497170Y-142114311D01*
X193463770Y-142179560D01*
X193412027Y-142282944D01*
X193394385Y-142318663D01*
X193387266Y-142333329D01*
X193381212Y-142346131D01*
X193376169Y-142357268D01*
X193372084Y-142366938D01*
X193370385Y-142371286D01*
X193368906Y-142375341D01*
X193367639Y-142379130D01*
X193366580Y-142382676D01*
X193364957Y-142384751D01*
X193363334Y-142382676D01*
X193360998Y-142375341D01*
X193357815Y-142366938D01*
X193353732Y-142357268D01*
X193348691Y-142346131D01*
X193335518Y-142318663D01*
X193317852Y-142282944D01*
X193266108Y-142179560D01*
X193194423Y-142041169D01*
X193151353Y-141960995D01*
X193103598Y-141874648D01*
X193051258Y-141782988D01*
X192994434Y-141686875D01*
X192933198Y-141587135D01*
X192867530Y-141484208D01*
X192797387Y-141378511D01*
X192722729Y-141270463D01*
X192643512Y-141160480D01*
X192559696Y-141048981D01*
X192471239Y-140936384D01*
X192378099Y-140823105D01*
X192280485Y-140709768D01*
X192179647Y-140597447D01*
X192077065Y-140487374D01*
X191974221Y-140380784D01*
X191872595Y-140278908D01*
X191773668Y-140182980D01*
X191678922Y-140094234D01*
X191589837Y-140013901D01*
X191547848Y-139977221D01*
X191507654Y-139942888D01*
X191469255Y-139910821D01*
X191432648Y-139880942D01*
X191397833Y-139853171D01*
X191364810Y-139827428D01*
X191304131Y-139781708D01*
X191250605Y-139743147D01*
X191204222Y-139711108D01*
X191164975Y-139684954D01*
X191132856Y-139664048D01*
X191112111Y-139650731D01*
X191103081Y-139645066D01*
X191094752Y-139640000D01*
X191086980Y-139635483D01*
X191079620Y-139631466D01*
X191076048Y-139629631D01*
X191072525Y-139627902D01*
X191069031Y-139626274D01*
X191065550Y-139624741D01*
X191072526Y-139621545D01*
X191079622Y-139617964D01*
X191086983Y-139613946D01*
X191094755Y-139609437D01*
X191103083Y-139604384D01*
X191112112Y-139598734D01*
X191132856Y-139585435D01*
X191204222Y-139538359D01*
X191250605Y-139506309D01*
X191304132Y-139467744D01*
X191364810Y-139422031D01*
X191432649Y-139368540D01*
X191507655Y-139306641D01*
X191589837Y-139235703D01*
X191678922Y-139155366D01*
X191773668Y-139066605D01*
X191872595Y-138970658D01*
X191974221Y-138868760D01*
X192077065Y-138762147D01*
X192179647Y-138652054D01*
X192280485Y-138539719D01*
X192378099Y-138426377D01*
X192471239Y-138313134D01*
X192559696Y-138200553D01*
X192643512Y-138089056D01*
X192722728Y-137979066D01*
X192797387Y-137871003D01*
X192867530Y-137765292D01*
X192933198Y-137662352D01*
X192994434Y-137562607D01*
X193051258Y-137466494D01*
X193103598Y-137374835D01*
X193151353Y-137288488D01*
X193194423Y-137208314D01*
X193232708Y-137135172D01*
X193266108Y-137069922D01*
X193317852Y-136966538D01*
X193335522Y-136930768D01*
X193342644Y-136916100D01*
X193348698Y-136903306D01*
X193353738Y-136892182D01*
X193357821Y-136882527D01*
X193359521Y-136878186D01*
X193361001Y-136874136D01*
X193362270Y-136870351D01*
X193363334Y-136866807D01*
X193363740Y-136866259D01*
X193364145Y-136865723D01*
X193364348Y-136865463D01*
X193364551Y-136865210D01*
X193364754Y-136864966D01*
X193364957Y-136864731D01*
X193365160Y-136864966D01*
G37*
D11*
X65176000Y-89027000D02*
G75*
G03*
X64364000Y-89027000I-406000J0D01*
G01*
X64364000Y-89027000D02*
G75*
G03*
X65176000Y-89027000I406000J0D01*
G01*
D10*
X194041864Y-45110732D02*
X194265583Y-45294922D01*
X194495796Y-45489619D01*
X194614355Y-45592534D01*
X194735757Y-45700028D01*
X194860111Y-45812524D01*
X194986266Y-45928935D01*
X195112779Y-46047923D01*
X195238207Y-46168152D01*
X195361109Y-46288284D01*
X195480039Y-46406981D01*
X195593557Y-46522906D01*
X195700219Y-46634720D01*
X195798887Y-46741421D01*
X195889659Y-46843035D01*
X195972941Y-46939915D01*
X196049139Y-47032410D01*
X196118658Y-47120871D01*
X196181904Y-47205649D01*
X196239284Y-47287093D01*
X196291202Y-47365555D01*
X196315232Y-47403770D01*
X196338033Y-47441341D01*
X196359640Y-47478293D01*
X196380086Y-47514649D01*
X196399406Y-47550433D01*
X196417635Y-47585668D01*
X196434806Y-47620378D01*
X196450954Y-47654587D01*
X196466113Y-47688318D01*
X196480318Y-47721595D01*
X196506000Y-47786881D01*
X196528274Y-47850633D01*
X196547415Y-47913041D01*
X196563646Y-47974373D01*
X196570682Y-48004742D01*
X196576994Y-48034991D01*
X196582580Y-48065178D01*
X196587437Y-48095360D01*
X196591563Y-48125597D01*
X196594954Y-48155945D01*
X196597609Y-48186464D01*
X196599524Y-48217212D01*
X196600697Y-48248245D01*
X196601125Y-48279624D01*
X196600805Y-48311405D01*
X196599736Y-48343646D01*
X196597913Y-48376407D01*
X196595335Y-48409745D01*
X196587859Y-48478226D01*
X196577120Y-48548762D01*
X196570453Y-48584649D01*
X196562884Y-48620869D01*
X196554382Y-48657360D01*
X196544920Y-48694062D01*
X196534467Y-48730914D01*
X196522995Y-48767855D01*
X196510475Y-48804826D01*
X196496878Y-48841765D01*
X196482175Y-48878612D01*
X196466336Y-48915305D01*
X196449333Y-48951786D01*
X196431137Y-48987992D01*
X196411732Y-49023819D01*
X196391153Y-49059258D01*
X196369446Y-49094249D01*
X196346658Y-49128737D01*
X196322832Y-49162663D01*
X196298016Y-49195970D01*
X196272255Y-49228601D01*
X196245594Y-49260499D01*
X196218079Y-49291605D01*
X196189756Y-49321863D01*
X196160670Y-49351214D01*
X196130868Y-49379603D01*
X196100394Y-49406971D01*
X196069295Y-49433261D01*
X196037616Y-49458415D01*
X196005403Y-49482377D01*
X195972691Y-49505078D01*
X195939508Y-49526552D01*
X195905869Y-49546819D01*
X195871787Y-49565903D01*
X195837278Y-49583826D01*
X195802355Y-49600608D01*
X195767034Y-49616274D01*
X195731328Y-49630845D01*
X195695252Y-49644342D01*
X195658820Y-49656789D01*
X195622047Y-49668208D01*
X195584947Y-49678620D01*
X195547534Y-49688048D01*
X195509824Y-49696514D01*
X195471829Y-49704040D01*
X195433566Y-49710648D01*
X195395042Y-49716376D01*
X195356284Y-49721182D01*
X195317311Y-49725040D01*
X195278142Y-49727923D01*
X195238795Y-49729806D01*
X195199290Y-49730662D01*
X195159647Y-49730464D01*
X195119883Y-49729188D01*
X195080019Y-49726805D01*
X195040072Y-49723290D01*
X195000063Y-49718617D01*
X194960011Y-49712760D01*
X194919933Y-49705691D01*
X194879851Y-49697385D01*
X194839782Y-49687816D01*
X194799745Y-49676957D01*
X194759768Y-49664771D01*
X194719911Y-49651306D01*
X194680243Y-49636594D01*
X194640830Y-49620665D01*
X194601740Y-49603551D01*
X194563042Y-49585283D01*
X194524802Y-49565893D01*
X194487090Y-49545411D01*
X194449971Y-49523869D01*
X194413515Y-49501298D01*
X194377789Y-49477730D01*
X194342860Y-49453196D01*
X194308797Y-49427727D01*
X194275667Y-49401355D01*
X194243538Y-49374110D01*
X194212478Y-49346024D01*
X194190237Y-49324763D01*
X194168608Y-49303105D01*
X194147559Y-49281063D01*
X194127058Y-49258652D01*
X194107070Y-49235887D01*
X194087565Y-49212781D01*
X194068509Y-49189348D01*
X194049869Y-49165604D01*
X194054078Y-49250763D01*
X194058592Y-49331620D01*
X194063777Y-49408814D01*
X194069999Y-49482987D01*
X194074640Y-49529050D01*
X194079946Y-49574751D01*
X194086015Y-49619923D01*
X194092946Y-49664399D01*
X194100837Y-49708010D01*
X194109787Y-49750590D01*
X194119895Y-49791971D01*
X194131258Y-49831986D01*
X194137441Y-49851415D01*
X194143975Y-49870489D01*
X194150871Y-49889234D01*
X194158142Y-49907675D01*
X194165801Y-49925838D01*
X194173859Y-49943748D01*
X194182329Y-49961431D01*
X194191224Y-49978913D01*
X194200556Y-49996218D01*
X194210336Y-50013374D01*
X194220578Y-50030404D01*
X194231294Y-50047335D01*
X194242497Y-50064193D01*
X194254197Y-50081002D01*
X194266409Y-50097789D01*
X194279144Y-50114579D01*
X194292411Y-50131407D01*
X194306168Y-50148220D01*
X194320373Y-50164973D01*
X194334983Y-50181626D01*
X194349956Y-50198136D01*
X194365249Y-50214460D01*
X194380819Y-50230557D01*
X194396625Y-50246384D01*
X194412622Y-50261900D01*
X194428769Y-50277061D01*
X194445024Y-50291826D01*
X194461342Y-50306153D01*
X194477683Y-50319999D01*
X194494002Y-50333322D01*
X194510259Y-50346080D01*
X194526409Y-50358231D01*
X194542409Y-50369743D01*
X194558210Y-50380623D01*
X194573763Y-50390885D01*
X194589021Y-50400544D01*
X194603933Y-50409613D01*
X194618452Y-50418107D01*
X194632529Y-50426040D01*
X194646114Y-50433426D01*
X194671617Y-50446618D01*
X194694572Y-50457795D01*
X194714589Y-50467072D01*
X194731278Y-50474564D01*
X194743841Y-50480404D01*
X194747843Y-50482761D01*
X194749856Y-50484774D01*
X194750005Y-50485660D01*
X194749524Y-50486468D01*
X194746494Y-50487866D01*
X194740414Y-50488991D01*
X194730930Y-50489869D01*
X194700334Y-50490973D01*
X194651878Y-50491370D01*
X194490079Y-50490799D01*
X193821383Y-50487992D01*
X193152680Y-50490799D01*
X193060029Y-50491248D01*
X193022698Y-50491362D01*
X192990891Y-50491370D01*
X192964255Y-50491248D01*
X192942437Y-50490973D01*
X192925084Y-50490521D01*
X192917971Y-50490222D01*
X192911842Y-50489869D01*
X192906652Y-50489460D01*
X192902357Y-50488991D01*
X192898913Y-50488461D01*
X192896276Y-50487866D01*
X192894402Y-50487202D01*
X192893737Y-50486844D01*
X192893246Y-50486468D01*
X192892924Y-50486073D01*
X192892765Y-50485660D01*
X192892763Y-50485227D01*
X192892914Y-50484774D01*
X192893210Y-50484302D01*
X192893648Y-50483809D01*
X192894925Y-50482761D01*
X192896699Y-50481627D01*
X192898927Y-50480404D01*
X192904566Y-50477679D01*
X192911488Y-50474564D01*
X192948189Y-50457795D01*
X192971142Y-50446618D01*
X192996643Y-50433426D01*
X193024304Y-50418107D01*
X193053736Y-50400544D01*
X193068994Y-50390885D01*
X193084548Y-50380623D01*
X193100351Y-50369743D01*
X193116352Y-50358231D01*
X193132503Y-50346080D01*
X193148761Y-50333322D01*
X193165081Y-50319999D01*
X193181423Y-50306153D01*
X193197742Y-50291826D01*
X193213997Y-50277061D01*
X193246142Y-50246384D01*
X193277517Y-50214460D01*
X193292809Y-50198136D01*
X193307781Y-50181626D01*
X193322389Y-50164973D01*
X193336592Y-50148220D01*
X193350346Y-50131407D01*
X193363609Y-50114579D01*
X193376346Y-50097789D01*
X193388560Y-50081002D01*
X193400263Y-50064193D01*
X193411467Y-50047335D01*
X193422184Y-50030404D01*
X193432428Y-50013374D01*
X193442210Y-49996218D01*
X193451542Y-49978913D01*
X193460437Y-49961431D01*
X193468908Y-49943748D01*
X193476967Y-49925838D01*
X193484626Y-49907675D01*
X193491897Y-49889234D01*
X193498793Y-49870489D01*
X193505326Y-49851415D01*
X193511509Y-49831986D01*
X193522873Y-49791971D01*
X193532980Y-49750590D01*
X193541931Y-49708010D01*
X193549822Y-49664399D01*
X193556753Y-49619923D01*
X193562822Y-49574751D01*
X193568127Y-49529050D01*
X193572766Y-49482987D01*
X193578984Y-49408814D01*
X193584163Y-49331620D01*
X193588675Y-49250763D01*
X193592895Y-49165604D01*
X193574250Y-49189313D01*
X193555187Y-49212729D01*
X193535676Y-49235833D01*
X193515683Y-49258606D01*
X193495176Y-49281031D01*
X193474122Y-49303088D01*
X193452489Y-49324758D01*
X193430245Y-49346024D01*
X193399182Y-49374110D01*
X193367051Y-49401355D01*
X193333918Y-49427727D01*
X193299852Y-49453196D01*
X193264920Y-49477730D01*
X193229190Y-49501298D01*
X193192730Y-49523869D01*
X193155608Y-49545411D01*
X193117892Y-49565893D01*
X193079649Y-49585283D01*
X193040948Y-49603551D01*
X193001856Y-49620665D01*
X192962441Y-49636594D01*
X192922771Y-49651306D01*
X192882913Y-49664771D01*
X192842937Y-49676957D01*
X192792884Y-49690315D01*
X192742788Y-49701674D01*
X192692686Y-49711085D01*
X192642615Y-49718598D01*
X192592613Y-49724263D01*
X192542717Y-49728129D01*
X192492964Y-49730247D01*
X192443392Y-49730668D01*
X192413752Y-49730143D01*
X192384200Y-49729033D01*
X192354745Y-49727348D01*
X192325392Y-49725098D01*
X192296151Y-49722293D01*
X192267027Y-49718943D01*
X192238029Y-49715058D01*
X192209164Y-49710648D01*
X192170898Y-49704040D01*
X192132900Y-49696514D01*
X192095186Y-49688048D01*
X192057768Y-49678620D01*
X192020664Y-49668208D01*
X191983886Y-49656789D01*
X191947449Y-49644342D01*
X191911368Y-49630845D01*
X191875658Y-49616274D01*
X191840333Y-49600608D01*
X191805407Y-49583826D01*
X191770896Y-49565903D01*
X191736813Y-49546819D01*
X191703174Y-49526552D01*
X191669993Y-49505078D01*
X191637284Y-49482377D01*
X191605068Y-49458415D01*
X191573387Y-49433261D01*
X191542286Y-49406971D01*
X191511810Y-49379603D01*
X191482006Y-49351214D01*
X191452919Y-49321863D01*
X191424595Y-49291605D01*
X191397079Y-49260499D01*
X191370418Y-49228601D01*
X191344656Y-49195970D01*
X191319840Y-49162663D01*
X191296016Y-49128737D01*
X191273228Y-49094249D01*
X191251523Y-49059258D01*
X191230946Y-49023819D01*
X191211543Y-48987992D01*
X191193348Y-48951786D01*
X191176346Y-48915305D01*
X191160508Y-48878612D01*
X191145804Y-48841765D01*
X191132206Y-48804826D01*
X191119684Y-48767855D01*
X191108211Y-48730914D01*
X191097758Y-48694062D01*
X191088294Y-48657360D01*
X191079792Y-48620869D01*
X191072223Y-48584649D01*
X191065557Y-48548762D01*
X191054821Y-48478226D01*
X191047354Y-48409745D01*
X191044778Y-48376407D01*
X191042959Y-48343646D01*
X191041894Y-48311405D01*
X191041579Y-48279624D01*
X191042013Y-48248245D01*
X191043191Y-48217212D01*
X191045112Y-48186464D01*
X191047772Y-48155945D01*
X191051168Y-48125597D01*
X191055298Y-48095360D01*
X191060158Y-48065178D01*
X191065745Y-48034991D01*
X191072058Y-48004742D01*
X191079092Y-47974373D01*
X191095313Y-47913041D01*
X191114449Y-47850633D01*
X191136715Y-47786881D01*
X191162388Y-47721595D01*
X191191742Y-47654587D01*
X191225053Y-47585668D01*
X191262596Y-47514649D01*
X191304647Y-47441341D01*
X191351481Y-47365555D01*
X191403394Y-47287093D01*
X191460770Y-47205649D01*
X191524014Y-47120871D01*
X191593532Y-47032410D01*
X191669729Y-46939915D01*
X191753011Y-46843035D01*
X191843783Y-46741421D01*
X191942452Y-46634720D01*
X192049116Y-46522906D01*
X192162640Y-46406981D01*
X192281580Y-46288284D01*
X192404492Y-46168152D01*
X192529930Y-46047923D01*
X192656450Y-45928935D01*
X192782608Y-45812524D01*
X192906959Y-45700028D01*
X193028367Y-45592534D01*
X193146933Y-45489619D01*
X193263063Y-45390632D01*
X193377162Y-45294922D01*
X193600894Y-45110732D01*
X193821375Y-44931840D01*
X193821390Y-44931840D01*
X194041864Y-45110732D01*
G36*
X194041864Y-45110732D02*
G01*
X194265583Y-45294922D01*
X194495796Y-45489619D01*
X194614355Y-45592534D01*
X194735757Y-45700028D01*
X194860111Y-45812524D01*
X194986266Y-45928935D01*
X195112779Y-46047923D01*
X195238207Y-46168152D01*
X195361109Y-46288284D01*
X195480039Y-46406981D01*
X195593557Y-46522906D01*
X195700219Y-46634720D01*
X195798887Y-46741421D01*
X195889659Y-46843035D01*
X195972941Y-46939915D01*
X196049139Y-47032410D01*
X196118658Y-47120871D01*
X196181904Y-47205649D01*
X196239284Y-47287093D01*
X196291202Y-47365555D01*
X196315232Y-47403770D01*
X196338033Y-47441341D01*
X196359640Y-47478293D01*
X196380086Y-47514649D01*
X196399406Y-47550433D01*
X196417635Y-47585668D01*
X196434806Y-47620378D01*
X196450954Y-47654587D01*
X196466113Y-47688318D01*
X196480318Y-47721595D01*
X196506000Y-47786881D01*
X196528274Y-47850633D01*
X196547415Y-47913041D01*
X196563646Y-47974373D01*
X196570682Y-48004742D01*
X196576994Y-48034991D01*
X196582580Y-48065178D01*
X196587437Y-48095360D01*
X196591563Y-48125597D01*
X196594954Y-48155945D01*
X196597609Y-48186464D01*
X196599524Y-48217212D01*
X196600697Y-48248245D01*
X196601125Y-48279624D01*
X196600805Y-48311405D01*
X196599736Y-48343646D01*
X196597913Y-48376407D01*
X196595335Y-48409745D01*
X196587859Y-48478226D01*
X196577120Y-48548762D01*
X196570453Y-48584649D01*
X196562884Y-48620869D01*
X196554382Y-48657360D01*
X196544920Y-48694062D01*
X196534467Y-48730914D01*
X196522995Y-48767855D01*
X196510475Y-48804826D01*
X196496878Y-48841765D01*
X196482175Y-48878612D01*
X196466336Y-48915305D01*
X196449333Y-48951786D01*
X196431137Y-48987992D01*
X196411732Y-49023819D01*
X196391153Y-49059258D01*
X196369446Y-49094249D01*
X196346658Y-49128737D01*
X196322832Y-49162663D01*
X196298016Y-49195970D01*
X196272255Y-49228601D01*
X196245594Y-49260499D01*
X196218079Y-49291605D01*
X196189756Y-49321863D01*
X196160670Y-49351214D01*
X196130868Y-49379603D01*
X196100394Y-49406971D01*
X196069295Y-49433261D01*
X196037616Y-49458415D01*
X196005403Y-49482377D01*
X195972691Y-49505078D01*
X195939508Y-49526552D01*
X195905869Y-49546819D01*
X195871787Y-49565903D01*
X195837278Y-49583826D01*
X195802355Y-49600608D01*
X195767034Y-49616274D01*
X195731328Y-49630845D01*
X195695252Y-49644342D01*
X195658820Y-49656789D01*
X195622047Y-49668208D01*
X195584947Y-49678620D01*
X195547534Y-49688048D01*
X195509824Y-49696514D01*
X195471829Y-49704040D01*
X195433566Y-49710648D01*
X195395042Y-49716376D01*
X195356284Y-49721182D01*
X195317311Y-49725040D01*
X195278142Y-49727923D01*
X195238795Y-49729806D01*
X195199290Y-49730662D01*
X195159647Y-49730464D01*
X195119883Y-49729188D01*
X195080019Y-49726805D01*
X195040072Y-49723290D01*
X195000063Y-49718617D01*
X194960011Y-49712760D01*
X194919933Y-49705691D01*
X194879851Y-49697385D01*
X194839782Y-49687816D01*
X194799745Y-49676957D01*
X194759768Y-49664771D01*
X194719911Y-49651306D01*
X194680243Y-49636594D01*
X194640830Y-49620665D01*
X194601740Y-49603551D01*
X194563042Y-49585283D01*
X194524802Y-49565893D01*
X194487090Y-49545411D01*
X194449971Y-49523869D01*
X194413515Y-49501298D01*
X194377789Y-49477730D01*
X194342860Y-49453196D01*
X194308797Y-49427727D01*
X194275667Y-49401355D01*
X194243538Y-49374110D01*
X194212478Y-49346024D01*
X194190237Y-49324763D01*
X194168608Y-49303105D01*
X194147559Y-49281063D01*
X194127058Y-49258652D01*
X194107070Y-49235887D01*
X194087565Y-49212781D01*
X194068509Y-49189348D01*
X194049869Y-49165604D01*
X194054078Y-49250763D01*
X194058592Y-49331620D01*
X194063777Y-49408814D01*
X194069999Y-49482987D01*
X194074640Y-49529050D01*
X194079946Y-49574751D01*
X194086015Y-49619923D01*
X194092946Y-49664399D01*
X194100837Y-49708010D01*
X194109787Y-49750590D01*
X194119895Y-49791971D01*
X194131258Y-49831986D01*
X194137441Y-49851415D01*
X194143975Y-49870489D01*
X194150871Y-49889234D01*
X194158142Y-49907675D01*
X194165801Y-49925838D01*
X194173859Y-49943748D01*
X194182329Y-49961431D01*
X194191224Y-49978913D01*
X194200556Y-49996218D01*
X194210336Y-50013374D01*
X194220578Y-50030404D01*
X194231294Y-50047335D01*
X194242497Y-50064193D01*
X194254197Y-50081002D01*
X194266409Y-50097789D01*
X194279144Y-50114579D01*
X194292411Y-50131407D01*
X194306168Y-50148220D01*
X194320373Y-50164973D01*
X194334983Y-50181626D01*
X194349956Y-50198136D01*
X194365249Y-50214460D01*
X194380819Y-50230557D01*
X194396625Y-50246384D01*
X194412622Y-50261900D01*
X194428769Y-50277061D01*
X194445024Y-50291826D01*
X194461342Y-50306153D01*
X194477683Y-50319999D01*
X194494002Y-50333322D01*
X194510259Y-50346080D01*
X194526409Y-50358231D01*
X194542409Y-50369743D01*
X194558210Y-50380623D01*
X194573763Y-50390885D01*
X194589021Y-50400544D01*
X194603933Y-50409613D01*
X194618452Y-50418107D01*
X194632529Y-50426040D01*
X194646114Y-50433426D01*
X194671617Y-50446618D01*
X194694572Y-50457795D01*
X194714589Y-50467072D01*
X194731278Y-50474564D01*
X194743841Y-50480404D01*
X194747843Y-50482761D01*
X194749856Y-50484774D01*
X194750005Y-50485660D01*
X194749524Y-50486468D01*
X194746494Y-50487866D01*
X194740414Y-50488991D01*
X194730930Y-50489869D01*
X194700334Y-50490973D01*
X194651878Y-50491370D01*
X194490079Y-50490799D01*
X193821383Y-50487992D01*
X193152680Y-50490799D01*
X193060029Y-50491248D01*
X193022698Y-50491362D01*
X192990891Y-50491370D01*
X192964255Y-50491248D01*
X192942437Y-50490973D01*
X192925084Y-50490521D01*
X192917971Y-50490222D01*
X192911842Y-50489869D01*
X192906652Y-50489460D01*
X192902357Y-50488991D01*
X192898913Y-50488461D01*
X192896276Y-50487866D01*
X192894402Y-50487202D01*
X192893737Y-50486844D01*
X192893246Y-50486468D01*
X192892924Y-50486073D01*
X192892765Y-50485660D01*
X192892763Y-50485227D01*
X192892914Y-50484774D01*
X192893210Y-50484302D01*
X192893648Y-50483809D01*
X192894925Y-50482761D01*
X192896699Y-50481627D01*
X192898927Y-50480404D01*
X192904566Y-50477679D01*
X192911488Y-50474564D01*
X192948189Y-50457795D01*
X192971142Y-50446618D01*
X192996643Y-50433426D01*
X193024304Y-50418107D01*
X193053736Y-50400544D01*
X193068994Y-50390885D01*
X193084548Y-50380623D01*
X193100351Y-50369743D01*
X193116352Y-50358231D01*
X193132503Y-50346080D01*
X193148761Y-50333322D01*
X193165081Y-50319999D01*
X193181423Y-50306153D01*
X193197742Y-50291826D01*
X193213997Y-50277061D01*
X193246142Y-50246384D01*
X193277517Y-50214460D01*
X193292809Y-50198136D01*
X193307781Y-50181626D01*
X193322389Y-50164973D01*
X193336592Y-50148220D01*
X193350346Y-50131407D01*
X193363609Y-50114579D01*
X193376346Y-50097789D01*
X193388560Y-50081002D01*
X193400263Y-50064193D01*
X193411467Y-50047335D01*
X193422184Y-50030404D01*
X193432428Y-50013374D01*
X193442210Y-49996218D01*
X193451542Y-49978913D01*
X193460437Y-49961431D01*
X193468908Y-49943748D01*
X193476967Y-49925838D01*
X193484626Y-49907675D01*
X193491897Y-49889234D01*
X193498793Y-49870489D01*
X193505326Y-49851415D01*
X193511509Y-49831986D01*
X193522873Y-49791971D01*
X193532980Y-49750590D01*
X193541931Y-49708010D01*
X193549822Y-49664399D01*
X193556753Y-49619923D01*
X193562822Y-49574751D01*
X193568127Y-49529050D01*
X193572766Y-49482987D01*
X193578984Y-49408814D01*
X193584163Y-49331620D01*
X193588675Y-49250763D01*
X193592895Y-49165604D01*
X193574250Y-49189313D01*
X193555187Y-49212729D01*
X193535676Y-49235833D01*
X193515683Y-49258606D01*
X193495176Y-49281031D01*
X193474122Y-49303088D01*
X193452489Y-49324758D01*
X193430245Y-49346024D01*
X193399182Y-49374110D01*
X193367051Y-49401355D01*
X193333918Y-49427727D01*
X193299852Y-49453196D01*
X193264920Y-49477730D01*
X193229190Y-49501298D01*
X193192730Y-49523869D01*
X193155608Y-49545411D01*
X193117892Y-49565893D01*
X193079649Y-49585283D01*
X193040948Y-49603551D01*
X193001856Y-49620665D01*
X192962441Y-49636594D01*
X192922771Y-49651306D01*
X192882913Y-49664771D01*
X192842937Y-49676957D01*
X192792884Y-49690315D01*
X192742788Y-49701674D01*
X192692686Y-49711085D01*
X192642615Y-49718598D01*
X192592613Y-49724263D01*
X192542717Y-49728129D01*
X192492964Y-49730247D01*
X192443392Y-49730668D01*
X192413752Y-49730143D01*
X192384200Y-49729033D01*
X192354745Y-49727348D01*
X192325392Y-49725098D01*
X192296151Y-49722293D01*
X192267027Y-49718943D01*
X192238029Y-49715058D01*
X192209164Y-49710648D01*
X192170898Y-49704040D01*
X192132900Y-49696514D01*
X192095186Y-49688048D01*
X192057768Y-49678620D01*
X192020664Y-49668208D01*
X191983886Y-49656789D01*
X191947449Y-49644342D01*
X191911368Y-49630845D01*
X191875658Y-49616274D01*
X191840333Y-49600608D01*
X191805407Y-49583826D01*
X191770896Y-49565903D01*
X191736813Y-49546819D01*
X191703174Y-49526552D01*
X191669993Y-49505078D01*
X191637284Y-49482377D01*
X191605068Y-49458415D01*
X191573387Y-49433261D01*
X191542286Y-49406971D01*
X191511810Y-49379603D01*
X191482006Y-49351214D01*
X191452919Y-49321863D01*
X191424595Y-49291605D01*
X191397079Y-49260499D01*
X191370418Y-49228601D01*
X191344656Y-49195970D01*
X191319840Y-49162663D01*
X191296016Y-49128737D01*
X191273228Y-49094249D01*
X191251523Y-49059258D01*
X191230946Y-49023819D01*
X191211543Y-48987992D01*
X191193348Y-48951786D01*
X191176346Y-48915305D01*
X191160508Y-48878612D01*
X191145804Y-48841765D01*
X191132206Y-48804826D01*
X191119684Y-48767855D01*
X191108211Y-48730914D01*
X191097758Y-48694062D01*
X191088294Y-48657360D01*
X191079792Y-48620869D01*
X191072223Y-48584649D01*
X191065557Y-48548762D01*
X191054821Y-48478226D01*
X191047354Y-48409745D01*
X191044778Y-48376407D01*
X191042959Y-48343646D01*
X191041894Y-48311405D01*
X191041579Y-48279624D01*
X191042013Y-48248245D01*
X191043191Y-48217212D01*
X191045112Y-48186464D01*
X191047772Y-48155945D01*
X191051168Y-48125597D01*
X191055298Y-48095360D01*
X191060158Y-48065178D01*
X191065745Y-48034991D01*
X191072058Y-48004742D01*
X191079092Y-47974373D01*
X191095313Y-47913041D01*
X191114449Y-47850633D01*
X191136715Y-47786881D01*
X191162388Y-47721595D01*
X191191742Y-47654587D01*
X191225053Y-47585668D01*
X191262596Y-47514649D01*
X191304647Y-47441341D01*
X191351481Y-47365555D01*
X191403394Y-47287093D01*
X191460770Y-47205649D01*
X191524014Y-47120871D01*
X191593532Y-47032410D01*
X191669729Y-46939915D01*
X191753011Y-46843035D01*
X191843783Y-46741421D01*
X191942452Y-46634720D01*
X192049116Y-46522906D01*
X192162640Y-46406981D01*
X192281580Y-46288284D01*
X192404492Y-46168152D01*
X192529930Y-46047923D01*
X192656450Y-45928935D01*
X192782608Y-45812524D01*
X192906959Y-45700028D01*
X193028367Y-45592534D01*
X193146933Y-45489619D01*
X193263063Y-45390632D01*
X193377162Y-45294922D01*
X193600894Y-45110732D01*
X193821375Y-44931840D01*
X193821390Y-44931840D01*
X194041864Y-45110732D01*
G37*
D11*
X65176000Y-86487000D02*
G75*
G03*
X64364000Y-86487000I-406000J0D01*
G01*
X64364000Y-86487000D02*
G75*
G03*
X65176000Y-86487000I406000J0D01*
G01*
D12*
%TO.C,U18*%
X48006000Y-48133000D03*
D13*
X45466000Y-64793000D03*
D14*
X48006000Y-64793000D03*
X50546000Y-64793000D03*
%TD*%
D15*
%TO.C,U6*%
X168402000Y-87503000D03*
D16*
X168402000Y-84963000D03*
X168402000Y-82423000D03*
X168402000Y-79883000D03*
X168402000Y-77343000D03*
X168402000Y-74803000D03*
X168402000Y-72263000D03*
X168402000Y-69723000D03*
X160782000Y-69723000D03*
X160782000Y-72263000D03*
X160782000Y-74803000D03*
X160782000Y-77343000D03*
X160782000Y-79883000D03*
X160782000Y-82423000D03*
X160782000Y-84963000D03*
X160782000Y-87503000D03*
%TD*%
D17*
%TO.C,C3*%
X173910000Y-115951000D03*
X168910000Y-115951000D03*
%TD*%
%TO.C,C15*%
X40894000Y-59793000D03*
X40894000Y-64793000D03*
%TD*%
D18*
%TO.C,C25*%
X148982500Y-54483000D03*
D19*
X148982500Y-72483000D03*
%TD*%
D15*
%TO.C,U10*%
X104257000Y-77338000D03*
D16*
X104257000Y-74798000D03*
X104257000Y-72258000D03*
X104257000Y-69718000D03*
X104257000Y-67178000D03*
X104257000Y-64638000D03*
X104257000Y-62098000D03*
X104257000Y-59558000D03*
X104257000Y-57018000D03*
X104257000Y-54478000D03*
X96637000Y-54478000D03*
X96637000Y-57018000D03*
X96637000Y-59558000D03*
X96637000Y-62098000D03*
X96637000Y-64638000D03*
X96637000Y-67178000D03*
X96637000Y-69718000D03*
X96637000Y-72258000D03*
X96637000Y-74798000D03*
X96637000Y-77338000D03*
%TD*%
D17*
%TO.C,R4*%
X142494000Y-121031000D03*
D16*
X152654000Y-121031000D03*
%TD*%
D15*
%TO.C,U2*%
X182118000Y-105283000D03*
D16*
X182118000Y-102743000D03*
X182118000Y-100203000D03*
X182118000Y-97663000D03*
X182118000Y-95123000D03*
X182118000Y-92583000D03*
X182118000Y-90043000D03*
X182118000Y-87503000D03*
X182118000Y-84963000D03*
X182118000Y-82423000D03*
X174498000Y-82423000D03*
X174498000Y-84963000D03*
X174498000Y-87503000D03*
X174498000Y-90043000D03*
X174498000Y-92583000D03*
X174498000Y-95123000D03*
X174498000Y-97663000D03*
X174498000Y-100203000D03*
X174498000Y-102743000D03*
X174498000Y-105283000D03*
%TD*%
D15*
%TO.C,U7*%
X143510000Y-77343000D03*
D16*
X143510000Y-74803000D03*
X143510000Y-72263000D03*
X143510000Y-69723000D03*
X143510000Y-67183000D03*
X143510000Y-64643000D03*
X143510000Y-62103000D03*
X143510000Y-59563000D03*
X143510000Y-57023000D03*
X143510000Y-54483000D03*
X135890000Y-54483000D03*
X135890000Y-57023000D03*
X135890000Y-59563000D03*
X135890000Y-62103000D03*
X135890000Y-64643000D03*
X135890000Y-67183000D03*
X135890000Y-69723000D03*
X135890000Y-72263000D03*
X135890000Y-74803000D03*
X135890000Y-77343000D03*
%TD*%
D15*
%TO.C,U14*%
X137287000Y-120523000D03*
D16*
X134747000Y-120523000D03*
X132207000Y-120523000D03*
X129667000Y-120523000D03*
X127127000Y-120523000D03*
X124587000Y-120523000D03*
X122047000Y-120523000D03*
X119507000Y-120523000D03*
X116967000Y-120523000D03*
X114427000Y-120523000D03*
X111887000Y-120523000D03*
X109347000Y-120523000D03*
X106807000Y-120523000D03*
X104267000Y-120523000D03*
X104267000Y-135763000D03*
X106807000Y-135763000D03*
X109347000Y-135763000D03*
X111887000Y-135763000D03*
X114427000Y-135763000D03*
X116967000Y-135763000D03*
X119507000Y-135763000D03*
X122047000Y-135763000D03*
X124587000Y-135763000D03*
X127127000Y-135763000D03*
X129667000Y-135763000D03*
X132207000Y-135763000D03*
X134747000Y-135763000D03*
X137287000Y-135763000D03*
%TD*%
D15*
%TO.C,D8*%
X165354000Y-136271000D03*
D16*
X175514000Y-136271000D03*
%TD*%
D20*
%TO.C,J1*%
X198882000Y-138303000D03*
X198882000Y-49403000D03*
D21*
X196342000Y-54483000D03*
D22*
X196342000Y-57023000D03*
X196342000Y-59563000D03*
X196342000Y-62103000D03*
X196342000Y-64643000D03*
X196342000Y-67183000D03*
X196342000Y-69723000D03*
X196342000Y-72263000D03*
X196342000Y-74803000D03*
X196342000Y-77343000D03*
X196342000Y-79883000D03*
X196342000Y-82423000D03*
X196342000Y-84963000D03*
X196342000Y-87503000D03*
X196342000Y-90043000D03*
X196342000Y-92583000D03*
X196342000Y-95123000D03*
X196342000Y-97663000D03*
X196342000Y-100203000D03*
X196342000Y-102743000D03*
X196342000Y-105283000D03*
X196342000Y-107823000D03*
X196342000Y-110363000D03*
X196342000Y-112903000D03*
X196342000Y-115443000D03*
X196342000Y-117983000D03*
X196342000Y-120523000D03*
X196342000Y-123063000D03*
X196342000Y-125603000D03*
X196342000Y-128143000D03*
X196342000Y-130683000D03*
X196342000Y-133223000D03*
X193802000Y-54483000D03*
X193802000Y-57023000D03*
X193802000Y-59563000D03*
X193802000Y-62103000D03*
X193802000Y-64643000D03*
X193802000Y-67183000D03*
X193802000Y-69723000D03*
X193802000Y-72263000D03*
X193802000Y-74803000D03*
X193802000Y-77343000D03*
X193802000Y-79883000D03*
X193802000Y-82423000D03*
X193802000Y-84963000D03*
X193802000Y-87503000D03*
X193802000Y-90043000D03*
X193802000Y-92583000D03*
X193802000Y-95123000D03*
X193802000Y-97663000D03*
X193802000Y-100203000D03*
X193802000Y-102743000D03*
X193802000Y-105283000D03*
X193802000Y-107823000D03*
X193802000Y-110363000D03*
X193802000Y-112903000D03*
X193802000Y-115443000D03*
X193802000Y-117983000D03*
X193802000Y-120523000D03*
X193802000Y-123063000D03*
X193802000Y-125603000D03*
X193802000Y-128143000D03*
X193802000Y-130683000D03*
X193802000Y-133223000D03*
%TD*%
D23*
%TO.C,Y1*%
X142494000Y-131191000D03*
X147394000Y-131191000D03*
%TD*%
D15*
%TO.C,D10*%
X152654000Y-133731000D03*
D16*
X162814000Y-133731000D03*
%TD*%
D24*
%TO.C,J2*%
X52070000Y-114427000D03*
D25*
X49530000Y-114427000D03*
X52070000Y-111887000D03*
X49530000Y-111887000D03*
X52070000Y-109347000D03*
X49530000Y-109347000D03*
X52070000Y-106807000D03*
X49530000Y-106807000D03*
X52070000Y-104267000D03*
X49530000Y-104267000D03*
X52070000Y-101727000D03*
X49530000Y-101727000D03*
X52070000Y-99187000D03*
X49530000Y-99187000D03*
X52070000Y-96647000D03*
X49530000Y-96647000D03*
X52070000Y-94107000D03*
X49530000Y-94107000D03*
X52070000Y-91567000D03*
X49530000Y-91567000D03*
X52070000Y-89027000D03*
X49530000Y-89027000D03*
X52070000Y-86487000D03*
X49530000Y-86487000D03*
X52070000Y-83947000D03*
X49530000Y-83947000D03*
X52070000Y-81407000D03*
X49530000Y-81407000D03*
X52070000Y-78867000D03*
X49530000Y-78867000D03*
X52070000Y-76327000D03*
X49530000Y-76327000D03*
X52070000Y-73787000D03*
X49530000Y-73787000D03*
%TD*%
D17*
%TO.C,J3*%
X168402000Y-53467000D03*
%TD*%
%TO.C,R3*%
X162814000Y-136271000D03*
D16*
X152654000Y-136271000D03*
%TD*%
D17*
%TO.C,C13*%
X55118000Y-59643000D03*
X55118000Y-64643000D03*
%TD*%
%TO.C,C20*%
X101647000Y-82931000D03*
X96647000Y-82931000D03*
%TD*%
D15*
%TO.C,U13*%
X89027000Y-120523000D03*
D16*
X86487000Y-120523000D03*
X83947000Y-120523000D03*
X81407000Y-120523000D03*
X78867000Y-120523000D03*
X76327000Y-120523000D03*
X73787000Y-120523000D03*
X71247000Y-120523000D03*
X68707000Y-120523000D03*
X66167000Y-120523000D03*
X63627000Y-120523000D03*
X61087000Y-120523000D03*
X58547000Y-120523000D03*
X56007000Y-120523000D03*
X56007000Y-135763000D03*
X58547000Y-135763000D03*
X61087000Y-135763000D03*
X63627000Y-135763000D03*
X66167000Y-135763000D03*
X68707000Y-135763000D03*
X71247000Y-135763000D03*
X73787000Y-135763000D03*
X76327000Y-135763000D03*
X78867000Y-135763000D03*
X81407000Y-135763000D03*
X83947000Y-135763000D03*
X86487000Y-135763000D03*
X89027000Y-135763000D03*
%TD*%
D17*
%TO.C,C17*%
X140890000Y-82931000D03*
X135890000Y-82931000D03*
%TD*%
%TO.C,C12*%
X99227000Y-113411000D03*
X104227000Y-113411000D03*
%TD*%
%TO.C,J5*%
X161798000Y-53467000D03*
%TD*%
D15*
%TO.C,D2*%
X178054000Y-69723000D03*
D16*
X188214000Y-69723000D03*
%TD*%
D17*
%TO.C,R6*%
X142494000Y-126111000D03*
D16*
X152654000Y-126111000D03*
%TD*%
D18*
%TO.C,C16*%
X64885500Y-51723000D03*
D19*
X64885500Y-69723000D03*
%TD*%
D17*
%TO.C,J4*%
X171958000Y-53467000D03*
%TD*%
D15*
%TO.C,U1*%
X185674000Y-133731000D03*
D16*
X185674000Y-131191000D03*
X185674000Y-128651000D03*
X185674000Y-126111000D03*
X185674000Y-123571000D03*
X185674000Y-121031000D03*
X185674000Y-118491000D03*
X185674000Y-115951000D03*
X185674000Y-113411000D03*
X185674000Y-110871000D03*
X178054000Y-110871000D03*
X178054000Y-113411000D03*
X178054000Y-115951000D03*
X178054000Y-118491000D03*
X178054000Y-121031000D03*
X178054000Y-123571000D03*
X178054000Y-126111000D03*
X178054000Y-128651000D03*
X178054000Y-131191000D03*
X178054000Y-133731000D03*
%TD*%
D15*
%TO.C,U8*%
X132842000Y-77338000D03*
D16*
X132842000Y-74798000D03*
X132842000Y-72258000D03*
X132842000Y-69718000D03*
X132842000Y-67178000D03*
X132842000Y-64638000D03*
X132842000Y-62098000D03*
X132842000Y-59558000D03*
X132842000Y-57018000D03*
X132842000Y-54478000D03*
X125222000Y-54478000D03*
X125222000Y-57018000D03*
X125222000Y-59558000D03*
X125222000Y-62098000D03*
X125222000Y-64638000D03*
X125222000Y-67178000D03*
X125222000Y-69718000D03*
X125222000Y-72258000D03*
X125222000Y-74798000D03*
X125222000Y-77338000D03*
%TD*%
D15*
%TO.C,D1*%
X161798000Y-62103000D03*
D16*
X171958000Y-62103000D03*
%TD*%
D17*
%TO.C,C21*%
X80010000Y-82931000D03*
X85010000Y-82931000D03*
%TD*%
D15*
%TO.C,D7*%
X165354000Y-133731000D03*
D16*
X175514000Y-133731000D03*
%TD*%
D18*
%TO.C,C23*%
X92086500Y-54483000D03*
D19*
X92086500Y-72483000D03*
%TD*%
D15*
%TO.C,U16*%
X76962000Y-110363000D03*
D16*
X76962000Y-107823000D03*
X76962000Y-105283000D03*
X76962000Y-102743000D03*
X76962000Y-100203000D03*
X76962000Y-97663000D03*
X76962000Y-95123000D03*
X76962000Y-92583000D03*
X69342000Y-92583000D03*
X69342000Y-95123000D03*
X69342000Y-97663000D03*
X69342000Y-100203000D03*
X69342000Y-102743000D03*
X69342000Y-105283000D03*
X69342000Y-107823000D03*
X69342000Y-110363000D03*
%TD*%
D15*
%TO.C,D5*%
X165354000Y-121031000D03*
D16*
X175514000Y-121031000D03*
%TD*%
D15*
%TO.C,U5*%
X168402000Y-107823000D03*
D16*
X168402000Y-105283000D03*
X168402000Y-102743000D03*
X168402000Y-100203000D03*
X168402000Y-97663000D03*
X168402000Y-95123000D03*
X168402000Y-92583000D03*
X168402000Y-90043000D03*
X160782000Y-90043000D03*
X160782000Y-92583000D03*
X160782000Y-95123000D03*
X160782000Y-97663000D03*
X160782000Y-100203000D03*
X160782000Y-102743000D03*
X160782000Y-105283000D03*
X160782000Y-107823000D03*
%TD*%
D15*
%TO.C,U17*%
X51562000Y-139573000D03*
D16*
X51562000Y-137033000D03*
X51562000Y-134493000D03*
X51562000Y-131953000D03*
X51562000Y-129413000D03*
X51562000Y-126873000D03*
X51562000Y-124333000D03*
X51562000Y-121793000D03*
X43942000Y-121793000D03*
X43942000Y-124333000D03*
X43942000Y-126873000D03*
X43942000Y-129413000D03*
X43942000Y-131953000D03*
X43942000Y-134493000D03*
X43942000Y-137033000D03*
X43942000Y-139573000D03*
%TD*%
D17*
%TO.C,R1*%
X165354000Y-118491000D03*
D16*
X175514000Y-118491000D03*
%TD*%
D17*
%TO.C,C2*%
X168990000Y-110871000D03*
X173990000Y-110871000D03*
%TD*%
%TO.C,R7*%
X59817000Y-100711000D03*
D16*
X59817000Y-110871000D03*
%TD*%
D15*
%TO.C,D4*%
X165354000Y-113411000D03*
D16*
X175514000Y-113411000D03*
%TD*%
D18*
%TO.C,C24*%
X120257500Y-54627000D03*
D19*
X120257500Y-72627000D03*
%TD*%
D17*
%TO.C,C18*%
X130222000Y-82931000D03*
X125222000Y-82931000D03*
%TD*%
D15*
%TO.C,D3*%
X178054000Y-72263000D03*
D16*
X188214000Y-72263000D03*
%TD*%
D17*
%TO.C,C19*%
X107442000Y-82931000D03*
X112442000Y-82931000D03*
%TD*%
D15*
%TO.C,U15*%
X100457000Y-135763000D03*
D16*
X100457000Y-133223000D03*
X100457000Y-130683000D03*
X100457000Y-128143000D03*
X100457000Y-125603000D03*
X100457000Y-123063000D03*
X100457000Y-120523000D03*
X92837000Y-120523000D03*
X92837000Y-123063000D03*
X92837000Y-125603000D03*
X92837000Y-128143000D03*
X92837000Y-130683000D03*
X92837000Y-133223000D03*
X92837000Y-135763000D03*
%TD*%
D15*
%TO.C,U12*%
X76962000Y-77343000D03*
D16*
X76962000Y-74803000D03*
X76962000Y-72263000D03*
X76962000Y-69723000D03*
X76962000Y-67183000D03*
X76962000Y-64643000D03*
X76962000Y-62103000D03*
X76962000Y-59563000D03*
X76962000Y-57023000D03*
X76962000Y-54483000D03*
X69342000Y-54483000D03*
X69342000Y-57023000D03*
X69342000Y-59563000D03*
X69342000Y-62103000D03*
X69342000Y-64643000D03*
X69342000Y-67183000D03*
X69342000Y-69723000D03*
X69342000Y-72263000D03*
X69342000Y-74803000D03*
X69342000Y-77343000D03*
%TD*%
D17*
%TO.C,R5*%
X142494000Y-123571000D03*
D16*
X152654000Y-123571000D03*
%TD*%
D17*
%TO.C,C22*%
X74342000Y-82931000D03*
X69342000Y-82931000D03*
%TD*%
%TO.C,R2*%
X165354000Y-126111000D03*
D16*
X175514000Y-126111000D03*
%TD*%
D15*
%TO.C,D6*%
X165354000Y-131191000D03*
D16*
X175514000Y-131191000D03*
%TD*%
D17*
%TO.C,R9*%
X59817000Y-77851000D03*
D16*
X59817000Y-88011000D03*
%TD*%
D15*
%TO.C,U4*%
X185674000Y-67183000D03*
D16*
X185674000Y-64643000D03*
X185674000Y-62103000D03*
X185674000Y-59563000D03*
X185674000Y-57023000D03*
X185674000Y-54483000D03*
X185674000Y-51943000D03*
X185674000Y-49403000D03*
X178054000Y-49403000D03*
X178054000Y-51943000D03*
X178054000Y-54483000D03*
X178054000Y-57023000D03*
X178054000Y-59563000D03*
X178054000Y-62103000D03*
X178054000Y-64643000D03*
X178054000Y-67183000D03*
%TD*%
D15*
%TO.C,U3*%
X162814000Y-126111000D03*
D16*
X162814000Y-123571000D03*
X162814000Y-121031000D03*
X162814000Y-118491000D03*
X162814000Y-115951000D03*
X162814000Y-113411000D03*
X162814000Y-110871000D03*
X155194000Y-110871000D03*
X155194000Y-113411000D03*
X155194000Y-115951000D03*
X155194000Y-118491000D03*
X155194000Y-121031000D03*
X155194000Y-123571000D03*
X155194000Y-126111000D03*
%TD*%
D17*
%TO.C,C5*%
X155194000Y-131191000D03*
X160194000Y-131191000D03*
%TD*%
%TO.C,C4*%
X169418000Y-123571000D03*
X174418000Y-123571000D03*
%TD*%
%TO.C,C1*%
X187706000Y-95203000D03*
X187706000Y-100203000D03*
%TD*%
D15*
%TO.C,U9*%
X115062000Y-77343000D03*
D16*
X115062000Y-74803000D03*
X115062000Y-72263000D03*
X115062000Y-69723000D03*
X115062000Y-67183000D03*
X115062000Y-64643000D03*
X115062000Y-62103000D03*
X115062000Y-59563000D03*
X115062000Y-57023000D03*
X115062000Y-54483000D03*
X107442000Y-54483000D03*
X107442000Y-57023000D03*
X107442000Y-59563000D03*
X107442000Y-62103000D03*
X107442000Y-64643000D03*
X107442000Y-67183000D03*
X107442000Y-69723000D03*
X107442000Y-72263000D03*
X107442000Y-74803000D03*
X107442000Y-77343000D03*
%TD*%
D17*
%TO.C,R8*%
X56642000Y-100711000D03*
D16*
X56642000Y-110871000D03*
%TD*%
D18*
%TO.C,C14*%
X59297500Y-51723000D03*
D19*
X59297500Y-69723000D03*
%TD*%
D15*
%TO.C,D9*%
X152614000Y-128651000D03*
D16*
X162774000Y-128651000D03*
%TD*%
D17*
%TO.C,C10*%
X142534000Y-136271000D03*
X147534000Y-136271000D03*
%TD*%
D15*
%TO.C,U11*%
X87757000Y-77343000D03*
D16*
X87757000Y-74803000D03*
X87757000Y-72263000D03*
X87757000Y-69723000D03*
X87757000Y-67183000D03*
X87757000Y-64643000D03*
X87757000Y-62103000D03*
X87757000Y-59563000D03*
X87757000Y-57023000D03*
X87757000Y-54483000D03*
X80137000Y-54483000D03*
X80137000Y-57023000D03*
X80137000Y-59563000D03*
X80137000Y-62103000D03*
X80137000Y-64643000D03*
X80137000Y-67183000D03*
X80137000Y-69723000D03*
X80137000Y-72263000D03*
X80137000Y-74803000D03*
X80137000Y-77343000D03*
%TD*%
D17*
%TO.C,R10*%
X56642000Y-77851000D03*
D16*
X56642000Y-88011000D03*
%TD*%
G36*
X53409121Y-44343002D02*
G01*
X53455614Y-44396658D01*
X53467000Y-44449000D01*
X53467000Y-57913000D01*
X53446998Y-57981121D01*
X53393342Y-58027614D01*
X53341000Y-58039000D01*
X42798000Y-58039000D01*
X42729879Y-58018998D01*
X42683386Y-57965342D01*
X42672000Y-57913000D01*
X42672000Y-44449000D01*
X42692002Y-44380879D01*
X42745658Y-44334386D01*
X42798000Y-44323000D01*
X53341000Y-44323000D01*
X53409121Y-44343002D01*
G37*
D26*
X201422000Y-44323000D02*
X38862000Y-44323000D01*
X201422000Y-143383000D02*
X201422000Y-44323000D01*
X38862000Y-44323000D02*
X38862000Y-143344900D01*
X114427000Y-47498000D02*
G75*
G03*
X110617000Y-47498000I-1905000J0D01*
G01*
X110617000Y-47498000D02*
G75*
G03*
X114427000Y-47498000I1905000J0D01*
G01*
X38862000Y-143344900D02*
X201422000Y-143383000D01*
M02*
