%TF.GenerationSoftware,KiCad,Pcbnew,6.0.8-f2edbf62ab~116~ubuntu22.04.1*%
%TF.CreationDate,2022-10-02T00:14:38+02:00*%
%TF.ProjectId,ql_trump_v2_disk_interface,716c5f74-7275-46d7-905f-76325f646973,01*%
%TF.SameCoordinates,Original*%
%TF.FileFunction,Copper,L2,Bot*%
%TF.FilePolarity,Positive*%
%FSLAX46Y46*%
G04 Gerber Fmt 4.6, Leading zero omitted, Abs format (unit mm)*
G04 Created by KiCad (PCBNEW 6.0.8-f2edbf62ab~116~ubuntu22.04.1) date 2022-10-02 00:14:38*
%MOMM*%
%LPD*%
G01*
G04 APERTURE LIST*
G04 Aperture macros list*
%AMRoundRect*
0 Rectangle with rounded corners*
0 $1 Rounding radius*
0 $2 $3 $4 $5 $6 $7 $8 $9 X,Y pos of 4 corners*
0 Add a 4 corners polygon primitive as box body*
4,1,4,$2,$3,$4,$5,$6,$7,$8,$9,$2,$3,0*
0 Add four circle primitives for the rounded corners*
1,1,$1+$1,$2,$3*
1,1,$1+$1,$4,$5*
1,1,$1+$1,$6,$7*
1,1,$1+$1,$8,$9*
0 Add four rect primitives between the rounded corners*
20,1,$1+$1,$2,$3,$4,$5,0*
20,1,$1+$1,$4,$5,$6,$7,0*
20,1,$1+$1,$6,$7,$8,$9,0*
20,1,$1+$1,$8,$9,$2,$3,0*%
G04 Aperture macros list end*
%TA.AperFunction,Profile*%
%ADD10C,0.050000*%
%TD*%
%ADD11C,0.150000*%
%TA.AperFunction,NonConductor*%
%ADD12C,0.150000*%
%TD*%
%TA.AperFunction,ComponentPad*%
%ADD13R,1.905000X2.000000*%
%TD*%
%TA.AperFunction,ComponentPad*%
%ADD14O,1.905000X2.000000*%
%TD*%
%TA.AperFunction,ComponentPad*%
%ADD15R,1.600000X1.600000*%
%TD*%
%TA.AperFunction,ComponentPad*%
%ADD16O,1.600000X1.600000*%
%TD*%
%TA.AperFunction,ComponentPad*%
%ADD17C,1.600000*%
%TD*%
%TA.AperFunction,ComponentPad*%
%ADD18R,2.400000X2.400000*%
%TD*%
%TA.AperFunction,ComponentPad*%
%ADD19O,2.400000X2.400000*%
%TD*%
%TA.AperFunction,ComponentPad*%
%ADD20RoundRect,0.249999X-0.525001X0.525001X-0.525001X-0.525001X0.525001X-0.525001X0.525001X0.525001X0*%
%TD*%
%TA.AperFunction,ComponentPad*%
%ADD21C,1.550000*%
%TD*%
%TA.AperFunction,ComponentPad*%
%ADD22C,1.500000*%
%TD*%
%TA.AperFunction,ComponentPad*%
%ADD23R,1.700000X1.700000*%
%TD*%
%TA.AperFunction,ComponentPad*%
%ADD24O,1.700000X1.700000*%
%TD*%
%TA.AperFunction,ViaPad*%
%ADD25C,0.800000*%
%TD*%
%TA.AperFunction,ViaPad*%
%ADD26C,1.600000*%
%TD*%
%TA.AperFunction,Conductor*%
%ADD27C,0.750000*%
%TD*%
%TA.AperFunction,Conductor*%
%ADD28C,0.350000*%
%TD*%
G04 APERTURE END LIST*
D10*
X201422000Y-44323000D02*
X38862000Y-44323000D01*
X201422000Y-143383000D02*
X201422000Y-44323000D01*
X38862000Y-44323000D02*
X38862000Y-143344900D01*
X114427000Y-47498000D02*
G75*
G03*
X114427000Y-47498000I-1905000J0D01*
G01*
X38862000Y-143344900D02*
X201422000Y-143383000D01*
D11*
D12*
X42473619Y-104368952D02*
X42949809Y-104702285D01*
X42473619Y-104940380D02*
X43473619Y-104940380D01*
X43473619Y-104559428D01*
X43426000Y-104464190D01*
X43378380Y-104416571D01*
X43283142Y-104368952D01*
X43140285Y-104368952D01*
X43045047Y-104416571D01*
X42997428Y-104464190D01*
X42949809Y-104559428D01*
X42949809Y-104940380D01*
X42997428Y-103940380D02*
X42997428Y-103607047D01*
X42473619Y-103464190D02*
X42473619Y-103940380D01*
X43473619Y-103940380D01*
X43473619Y-103464190D01*
X42473619Y-103035619D02*
X43473619Y-103035619D01*
X43473619Y-102654666D01*
X43426000Y-102559428D01*
X43378380Y-102511809D01*
X43283142Y-102464190D01*
X43140285Y-102464190D01*
X43045047Y-102511809D01*
X42997428Y-102559428D01*
X42949809Y-102654666D01*
X42949809Y-103035619D01*
X42473619Y-101464190D02*
X42949809Y-101797523D01*
X42473619Y-102035619D02*
X43473619Y-102035619D01*
X43473619Y-101654666D01*
X43426000Y-101559428D01*
X43378380Y-101511809D01*
X43283142Y-101464190D01*
X43140285Y-101464190D01*
X43045047Y-101511809D01*
X42997428Y-101559428D01*
X42949809Y-101654666D01*
X42949809Y-102035619D01*
X43473619Y-100845142D02*
X43473619Y-100654666D01*
X43426000Y-100559428D01*
X43330761Y-100464190D01*
X43140285Y-100416571D01*
X42806952Y-100416571D01*
X42616476Y-100464190D01*
X42521238Y-100559428D01*
X42473619Y-100654666D01*
X42473619Y-100845142D01*
X42521238Y-100940380D01*
X42616476Y-101035619D01*
X42806952Y-101083238D01*
X43140285Y-101083238D01*
X43330761Y-101035619D01*
X43426000Y-100940380D01*
X43473619Y-100845142D01*
X42997428Y-98892761D02*
X42949809Y-98749904D01*
X42902190Y-98702285D01*
X42806952Y-98654666D01*
X42664095Y-98654666D01*
X42568857Y-98702285D01*
X42521238Y-98749904D01*
X42473619Y-98845142D01*
X42473619Y-99226095D01*
X43473619Y-99226095D01*
X43473619Y-98892761D01*
X43426000Y-98797523D01*
X43378380Y-98749904D01*
X43283142Y-98702285D01*
X43187904Y-98702285D01*
X43092666Y-98749904D01*
X43045047Y-98797523D01*
X42997428Y-98892761D01*
X42997428Y-99226095D01*
X42949809Y-98035619D02*
X42473619Y-98035619D01*
X43473619Y-98368952D02*
X42949809Y-98035619D01*
X43473619Y-97702285D01*
X42759333Y-96654666D02*
X42759333Y-96178476D01*
X42473619Y-96749904D02*
X43473619Y-96416571D01*
X42473619Y-96083238D01*
X42473619Y-95607047D02*
X42521238Y-95702285D01*
X42616476Y-95749904D01*
X43473619Y-95749904D01*
X43140285Y-95321333D02*
X42473619Y-95083238D01*
X43140285Y-94845142D01*
X42473619Y-94035619D02*
X42997428Y-94035619D01*
X43092666Y-94083238D01*
X43140285Y-94178476D01*
X43140285Y-94368952D01*
X43092666Y-94464190D01*
X42521238Y-94035619D02*
X42473619Y-94130857D01*
X42473619Y-94368952D01*
X42521238Y-94464190D01*
X42616476Y-94511809D01*
X42711714Y-94511809D01*
X42806952Y-94464190D01*
X42854571Y-94368952D01*
X42854571Y-94130857D01*
X42902190Y-94035619D01*
X42473619Y-93559428D02*
X43140285Y-93559428D01*
X42949809Y-93559428D02*
X43045047Y-93511809D01*
X43092666Y-93464190D01*
X43140285Y-93368952D01*
X43140285Y-93273714D01*
X42473619Y-92797523D02*
X42521238Y-92892761D01*
X42568857Y-92940380D01*
X42664095Y-92988000D01*
X42949809Y-92988000D01*
X43045047Y-92940380D01*
X43092666Y-92892761D01*
X43140285Y-92797523D01*
X43140285Y-92654666D01*
X43092666Y-92559428D01*
X43045047Y-92511809D01*
X42949809Y-92464190D01*
X42664095Y-92464190D01*
X42568857Y-92511809D01*
X42521238Y-92559428D01*
X42473619Y-92654666D01*
X42473619Y-92797523D01*
X42759333Y-91321333D02*
X42759333Y-90845142D01*
X42473619Y-91416571D02*
X43473619Y-91083238D01*
X42473619Y-90749904D01*
X42473619Y-90273714D02*
X42521238Y-90368952D01*
X42616476Y-90416571D01*
X43473619Y-90416571D01*
X42521238Y-89511809D02*
X42473619Y-89607047D01*
X42473619Y-89797523D01*
X42521238Y-89892761D01*
X42616476Y-89940380D01*
X42997428Y-89940380D01*
X43092666Y-89892761D01*
X43140285Y-89797523D01*
X43140285Y-89607047D01*
X43092666Y-89511809D01*
X42997428Y-89464190D01*
X42902190Y-89464190D01*
X42806952Y-89940380D01*
X42473619Y-88607047D02*
X42997428Y-88607047D01*
X43092666Y-88654666D01*
X43140285Y-88749904D01*
X43140285Y-88940380D01*
X43092666Y-89035619D01*
X42521238Y-88607047D02*
X42473619Y-88702285D01*
X42473619Y-88940380D01*
X42521238Y-89035619D01*
X42616476Y-89083238D01*
X42711714Y-89083238D01*
X42806952Y-89035619D01*
X42854571Y-88940380D01*
X42854571Y-88702285D01*
X42902190Y-88607047D01*
X43378380Y-87416571D02*
X43426000Y-87368952D01*
X43473619Y-87273714D01*
X43473619Y-87035619D01*
X43426000Y-86940380D01*
X43378380Y-86892761D01*
X43283142Y-86845142D01*
X43187904Y-86845142D01*
X43045047Y-86892761D01*
X42473619Y-87464190D01*
X42473619Y-86845142D01*
X43473619Y-86226095D02*
X43473619Y-86130857D01*
X43426000Y-86035619D01*
X43378380Y-85988000D01*
X43283142Y-85940380D01*
X43092666Y-85892761D01*
X42854571Y-85892761D01*
X42664095Y-85940380D01*
X42568857Y-85988000D01*
X42521238Y-86035619D01*
X42473619Y-86130857D01*
X42473619Y-86226095D01*
X42521238Y-86321333D01*
X42568857Y-86368952D01*
X42664095Y-86416571D01*
X42854571Y-86464190D01*
X43092666Y-86464190D01*
X43283142Y-86416571D01*
X43378380Y-86368952D01*
X43426000Y-86321333D01*
X43473619Y-86226095D01*
X43378380Y-85511809D02*
X43426000Y-85464190D01*
X43473619Y-85368952D01*
X43473619Y-85130857D01*
X43426000Y-85035619D01*
X43378380Y-84988000D01*
X43283142Y-84940380D01*
X43187904Y-84940380D01*
X43045047Y-84988000D01*
X42473619Y-85559428D01*
X42473619Y-84940380D01*
X43378380Y-84559428D02*
X43426000Y-84511809D01*
X43473619Y-84416571D01*
X43473619Y-84178476D01*
X43426000Y-84083238D01*
X43378380Y-84035619D01*
X43283142Y-83988000D01*
X43187904Y-83988000D01*
X43045047Y-84035619D01*
X42473619Y-84607047D01*
X42473619Y-83988000D01*
D13*
%TO.P,U18,1,VI*%
%TO.N,+9V*%
X45466000Y-64793000D03*
D14*
%TO.P,U18,2,GND*%
%TO.N,GND*%
X48006000Y-64793000D03*
%TO.P,U18,3,VO*%
%TO.N,+5V*%
X50546000Y-64793000D03*
%TD*%
D15*
%TO.P,U6,1,S*%
%TO.N,/MUX*%
X168402000Y-87503000D03*
D16*
%TO.P,U6,2,I0a*%
%TO.N,/A7*%
X168402000Y-84963000D03*
%TO.P,U6,3,I1a*%
%TO.N,/A5*%
X168402000Y-82423000D03*
%TO.P,U6,4,Za*%
%TO.N,/MA2*%
X168402000Y-79883000D03*
%TO.P,U6,5,I0b*%
%TO.N,/A6*%
X168402000Y-77343000D03*
%TO.P,U6,6,I1b*%
%TO.N,/A4*%
X168402000Y-74803000D03*
%TO.P,U6,7,Zb*%
%TO.N,/MA3*%
X168402000Y-72263000D03*
%TO.P,U6,8,GND*%
%TO.N,GND*%
X168402000Y-69723000D03*
%TO.P,U6,9,Zc*%
%TO.N,/MA4*%
X160782000Y-69723000D03*
%TO.P,U6,10,I1c*%
%TO.N,/A2*%
X160782000Y-72263000D03*
%TO.P,U6,11,I0c*%
%TO.N,/A3*%
X160782000Y-74803000D03*
%TO.P,U6,12,Zd*%
%TO.N,/MA5*%
X160782000Y-77343000D03*
%TO.P,U6,13,I1d*%
%TO.N,/A1*%
X160782000Y-79883000D03*
%TO.P,U6,14,I0d*%
%TO.N,/A0*%
X160782000Y-82423000D03*
%TO.P,U6,15,E*%
%TO.N,GND*%
X160782000Y-84963000D03*
%TO.P,U6,16,VCC*%
%TO.N,+5V*%
X160782000Y-87503000D03*
%TD*%
D17*
%TO.P,C3,1*%
%TO.N,Net-(C3-Pad1)*%
X173910000Y-115951000D03*
%TO.P,C3,2*%
%TO.N,GND*%
X168910000Y-115951000D03*
%TD*%
%TO.P,C15,1*%
%TO.N,+9V*%
X40894000Y-59793000D03*
%TO.P,C15,2*%
%TO.N,GND*%
X40894000Y-64793000D03*
%TD*%
D18*
%TO.P,C25,1*%
%TO.N,+5V*%
X148982500Y-54483000D03*
D19*
%TO.P,C25,2*%
%TO.N,GND*%
X148982500Y-72483000D03*
%TD*%
D15*
%TO.P,U10,1,D0*%
%TO.N,/D4*%
X104257000Y-77338000D03*
D16*
%TO.P,U10,2,D1*%
%TO.N,/D5*%
X104257000Y-74798000D03*
%TO.P,U10,3,~{WR}*%
%TO.N,/RW*%
X104257000Y-72258000D03*
%TO.P,U10,4,~{RAS}*%
%TO.N,/RAS1*%
X104257000Y-69718000D03*
%TO.P,U10,5,N.C.*%
%TO.N,unconnected-(U10-Pad5)*%
X104257000Y-67178000D03*
%TO.P,U10,6,A0*%
%TO.N,/MA0*%
X104257000Y-64638000D03*
%TO.P,U10,7,A1*%
%TO.N,/MA1*%
X104257000Y-62098000D03*
%TO.P,U10,8,A2*%
%TO.N,/MA2*%
X104257000Y-59558000D03*
%TO.P,U10,9,A3*%
%TO.N,/MA3*%
X104257000Y-57018000D03*
%TO.P,U10,10,VCC*%
%TO.N,+5V*%
X104257000Y-54478000D03*
%TO.P,U10,11,A4*%
%TO.N,/MA4*%
X96637000Y-54478000D03*
%TO.P,U10,12,A5*%
%TO.N,/MA5*%
X96637000Y-57018000D03*
%TO.P,U10,13,A6*%
%TO.N,/MA6*%
X96637000Y-59558000D03*
%TO.P,U10,14,A7*%
%TO.N,/MA7*%
X96637000Y-62098000D03*
%TO.P,U10,15,A8*%
%TO.N,/MA8*%
X96637000Y-64638000D03*
%TO.P,U10,16,~{OE}*%
%TO.N,GND*%
X96637000Y-67178000D03*
%TO.P,U10,17,~{CAS}*%
%TO.N,/CAS*%
X96637000Y-69718000D03*
%TO.P,U10,18,D2*%
%TO.N,/D6*%
X96637000Y-72258000D03*
%TO.P,U10,19,D3*%
%TO.N,/D7*%
X96637000Y-74798000D03*
%TO.P,U10,20,GND*%
%TO.N,GND*%
X96637000Y-77338000D03*
%TD*%
D17*
%TO.P,R4,1*%
%TO.N,Net-(C2-Pad2)*%
X142494000Y-121031000D03*
D16*
%TO.P,R4,2*%
%TO.N,GND*%
X152654000Y-121031000D03*
%TD*%
D15*
%TO.P,U2,1,I1/CLK*%
%TO.N,Net-(U1-Pad13)*%
X182118000Y-105283000D03*
D16*
%TO.P,U2,2,I2*%
%TO.N,/A19*%
X182118000Y-102743000D03*
%TO.P,U2,3,I3*%
%TO.N,/A18*%
X182118000Y-100203000D03*
%TO.P,U2,4,I4*%
%TO.N,/A17*%
X182118000Y-97663000D03*
%TO.P,U2,5,I5*%
%TO.N,/DS*%
X182118000Y-95123000D03*
%TO.P,U2,6,I6*%
%TO.N,Net-(U2-Pad6)*%
X182118000Y-92583000D03*
%TO.P,U2,7,I7*%
%TO.N,Net-(U2-Pad7)*%
X182118000Y-90043000D03*
%TO.P,U2,8,I8*%
%TO.N,Net-(U2-Pad8)*%
X182118000Y-87503000D03*
%TO.P,U2,9,I9*%
%TO.N,/GAL2_P9*%
X182118000Y-84963000D03*
%TO.P,U2,10,GND*%
%TO.N,GND*%
X182118000Y-82423000D03*
%TO.P,U2,11,I10/~{OE}*%
%TO.N,Net-(C2-Pad2)*%
X174498000Y-82423000D03*
%TO.P,U2,12,IO8*%
%TO.N,/CAS*%
X174498000Y-84963000D03*
%TO.P,U2,13,IO7*%
%TO.N,/MUX*%
X174498000Y-87503000D03*
%TO.P,U2,14,IO6*%
%TO.N,Net-(D3-Pad1)*%
X174498000Y-90043000D03*
%TO.P,U2,15,IO5*%
%TO.N,/GAL2_P15*%
X174498000Y-92583000D03*
%TO.P,U2,16,IO4*%
%TO.N,Net-(D2-Pad1)*%
X174498000Y-95123000D03*
%TO.P,U2,17,I03*%
%TO.N,/RAS2*%
X174498000Y-97663000D03*
%TO.P,U2,18,IO2*%
%TO.N,/RAS1*%
X174498000Y-100203000D03*
%TO.P,U2,19,IO1*%
%TO.N,/RAS0*%
X174498000Y-102743000D03*
%TO.P,U2,20,VCC*%
%TO.N,+5V*%
X174498000Y-105283000D03*
%TD*%
D15*
%TO.P,U7,1,D0*%
%TO.N,/D0*%
X143510000Y-77343000D03*
D16*
%TO.P,U7,2,D1*%
%TO.N,/D1*%
X143510000Y-74803000D03*
%TO.P,U7,3,~{WR}*%
%TO.N,/RW*%
X143510000Y-72263000D03*
%TO.P,U7,4,~{RAS}*%
%TO.N,/RAS2*%
X143510000Y-69723000D03*
%TO.P,U7,5,N.C.*%
%TO.N,unconnected-(U7-Pad5)*%
X143510000Y-67183000D03*
%TO.P,U7,6,A0*%
%TO.N,/MA0*%
X143510000Y-64643000D03*
%TO.P,U7,7,A1*%
%TO.N,/MA1*%
X143510000Y-62103000D03*
%TO.P,U7,8,A2*%
%TO.N,/MA2*%
X143510000Y-59563000D03*
%TO.P,U7,9,A3*%
%TO.N,/MA3*%
X143510000Y-57023000D03*
%TO.P,U7,10,VCC*%
%TO.N,+5V*%
X143510000Y-54483000D03*
%TO.P,U7,11,A4*%
%TO.N,/MA4*%
X135890000Y-54483000D03*
%TO.P,U7,12,A5*%
%TO.N,/MA5*%
X135890000Y-57023000D03*
%TO.P,U7,13,A6*%
%TO.N,/MA6*%
X135890000Y-59563000D03*
%TO.P,U7,14,A7*%
%TO.N,/MA7*%
X135890000Y-62103000D03*
%TO.P,U7,15,A8*%
%TO.N,/MA8*%
X135890000Y-64643000D03*
%TO.P,U7,16,~{OE}*%
%TO.N,GND*%
X135890000Y-67183000D03*
%TO.P,U7,17,~{CAS}*%
%TO.N,/CAS*%
X135890000Y-69723000D03*
%TO.P,U7,18,D2*%
%TO.N,/D2*%
X135890000Y-72263000D03*
%TO.P,U7,19,D3*%
%TO.N,/D3*%
X135890000Y-74803000D03*
%TO.P,U7,20,GND*%
%TO.N,GND*%
X135890000Y-77343000D03*
%TD*%
D15*
%TO.P,U14,1,VPP*%
%TO.N,+5V*%
X137287000Y-120523000D03*
D16*
%TO.P,U14,2,A12*%
%TO.N,/A12*%
X134747000Y-120523000D03*
%TO.P,U14,3,A7*%
%TO.N,/A7*%
X132207000Y-120523000D03*
%TO.P,U14,4,A6*%
%TO.N,/A6*%
X129667000Y-120523000D03*
%TO.P,U14,5,A5*%
%TO.N,/A5*%
X127127000Y-120523000D03*
%TO.P,U14,6,A4*%
%TO.N,/A4*%
X124587000Y-120523000D03*
%TO.P,U14,7,A3*%
%TO.N,/A3*%
X122047000Y-120523000D03*
%TO.P,U14,8,A2*%
%TO.N,/A2*%
X119507000Y-120523000D03*
%TO.P,U14,9,A1*%
%TO.N,/A1*%
X116967000Y-120523000D03*
%TO.P,U14,10,A0*%
%TO.N,/A0*%
X114427000Y-120523000D03*
%TO.P,U14,11,D0*%
%TO.N,/D0*%
X111887000Y-120523000D03*
%TO.P,U14,12,D1*%
%TO.N,/D1*%
X109347000Y-120523000D03*
%TO.P,U14,13,D2*%
%TO.N,/D2*%
X106807000Y-120523000D03*
%TO.P,U14,14,GND*%
%TO.N,GND*%
X104267000Y-120523000D03*
%TO.P,U14,15,D3*%
%TO.N,/D3*%
X104267000Y-135763000D03*
%TO.P,U14,16,D4*%
%TO.N,/D4*%
X106807000Y-135763000D03*
%TO.P,U14,17,D5*%
%TO.N,/D5*%
X109347000Y-135763000D03*
%TO.P,U14,18,D6*%
%TO.N,/D6*%
X111887000Y-135763000D03*
%TO.P,U14,19,D7*%
%TO.N,/D7*%
X114427000Y-135763000D03*
%TO.P,U14,20,~{CE}*%
%TO.N,/ROM_CE*%
X116967000Y-135763000D03*
%TO.P,U14,21,A10*%
%TO.N,/A10*%
X119507000Y-135763000D03*
%TO.P,U14,22,~{OE}*%
%TO.N,/ROM_OE*%
X122047000Y-135763000D03*
%TO.P,U14,23,A11*%
%TO.N,/A11*%
X124587000Y-135763000D03*
%TO.P,U14,24,A9*%
%TO.N,/A9*%
X127127000Y-135763000D03*
%TO.P,U14,25,A8*%
%TO.N,/A8*%
X129667000Y-135763000D03*
%TO.P,U14,26,A13*%
%TO.N,/A13*%
X132207000Y-135763000D03*
%TO.P,U14,27,A14*%
%TO.N,/A14*%
X134747000Y-135763000D03*
%TO.P,U14,28,VCC*%
%TO.N,+5V*%
X137287000Y-135763000D03*
%TD*%
D15*
%TO.P,D8,1,K*%
%TO.N,/ROM_CE*%
X165354000Y-136271000D03*
D16*
%TO.P,D8,2,A*%
%TO.N,/DTACKL*%
X175514000Y-136271000D03*
%TD*%
D20*
%TO.P,J1,a1,Vin*%
%TO.N,+9V*%
X196342000Y-54483000D03*
D21*
%TO.P,J1,a2,-12V*%
%TO.N,unconnected-(J1-Pada2)*%
X196342000Y-57023000D03*
%TO.P,J1,a3,+12V*%
%TO.N,unconnected-(J1-Pada3)*%
X196342000Y-59563000D03*
%TO.P,J1,a4,SP0*%
%TO.N,/SP0*%
X196342000Y-62103000D03*
%TO.P,J1,a5,SP1*%
%TO.N,/SP1*%
X196342000Y-64643000D03*
%TO.P,J1,a6,~{DSMC}*%
%TO.N,/DSMC*%
X196342000Y-67183000D03*
%TO.P,J1,a7,SP2*%
%TO.N,/SP2*%
X196342000Y-69723000D03*
%TO.P,J1,a8,~{DBG}*%
%TO.N,unconnected-(J1-Pada8)*%
X196342000Y-72263000D03*
%TO.P,J1,a9,A3*%
%TO.N,/A3*%
X196342000Y-74803000D03*
%TO.P,J1,a10,A4*%
%TO.N,/A4*%
X196342000Y-77343000D03*
%TO.P,J1,a11,A5*%
%TO.N,/A5*%
X196342000Y-79883000D03*
%TO.P,J1,a12,A6*%
%TO.N,/A6*%
X196342000Y-82423000D03*
%TO.P,J1,a13,A7*%
%TO.N,/A7*%
X196342000Y-84963000D03*
%TO.P,J1,a14,A8*%
%TO.N,/A8*%
X196342000Y-87503000D03*
%TO.P,J1,a15,A9*%
%TO.N,/A9*%
X196342000Y-90043000D03*
%TO.P,J1,a16,A10*%
%TO.N,/A10*%
X196342000Y-92583000D03*
%TO.P,J1,a17,A11*%
%TO.N,/A11*%
X196342000Y-95123000D03*
%TO.P,J1,a18,A12*%
%TO.N,/A12*%
X196342000Y-97663000D03*
%TO.P,J1,a19,A13*%
%TO.N,/A13*%
X196342000Y-100203000D03*
%TO.P,J1,a20,A14*%
%TO.N,/A14*%
X196342000Y-102743000D03*
%TO.P,J1,a21,RED*%
%TO.N,unconnected-(J1-Pada21)*%
X196342000Y-105283000D03*
%TO.P,J1,a22,CLKCPU*%
%TO.N,unconnected-(J1-Pada22)*%
X196342000Y-107823000D03*
%TO.P,J1,a23,A16*%
%TO.N,/A16*%
X196342000Y-110363000D03*
%TO.P,J1,a24,A17*%
%TO.N,/A17*%
X196342000Y-112903000D03*
%TO.P,J1,a25,A18*%
%TO.N,/A18*%
X196342000Y-115443000D03*
%TO.P,J1,a26,A19*%
%TO.N,/A19*%
X196342000Y-117983000D03*
%TO.P,J1,a27,D7*%
%TO.N,/D7*%
X196342000Y-120523000D03*
%TO.P,J1,a28,D6*%
%TO.N,/D6*%
X196342000Y-123063000D03*
%TO.P,J1,a29,D5*%
%TO.N,/D5*%
X196342000Y-125603000D03*
%TO.P,J1,a30,D4*%
%TO.N,/D4*%
X196342000Y-128143000D03*
%TO.P,J1,a31,D3*%
%TO.N,/D3*%
X196342000Y-130683000D03*
%TO.P,J1,a32,GND*%
%TO.N,GND*%
X196342000Y-133223000D03*
%TO.P,J1,b1,Vin*%
%TO.N,+9V*%
X193802000Y-54483000D03*
%TO.P,J1,b2,Vin*%
X193802000Y-57023000D03*
%TO.P,J1,b3,~{EXTINT}*%
%TO.N,/EXTINTL*%
X193802000Y-59563000D03*
%TO.P,J1,b4,~{IPL1}*%
%TO.N,unconnected-(J1-Padb4)*%
X193802000Y-62103000D03*
%TO.P,J1,b5,~{BERR}*%
%TO.N,unconnected-(J1-Padb5)*%
X193802000Y-64643000D03*
%TO.P,J1,b6,~{IPLO}*%
%TO.N,unconnected-(J1-Padb6)*%
X193802000Y-67183000D03*
%TO.P,J1,b7,SP3*%
%TO.N,/SP3*%
X193802000Y-69723000D03*
%TO.P,J1,b8,A2*%
%TO.N,/A2*%
X193802000Y-72263000D03*
%TO.P,J1,b9,G9*%
%TO.N,/A1*%
X193802000Y-74803000D03*
%TO.P,J1,b10,ROMOEH*%
%TO.N,unconnected-(J1-Padb10)*%
X193802000Y-77343000D03*
%TO.P,J1,b11,A0*%
%TO.N,/A0*%
X193802000Y-79883000D03*
%TO.P,J1,b12,FC0*%
%TO.N,unconnected-(J1-Padb12)*%
X193802000Y-82423000D03*
%TO.P,J1,b13,FC1*%
%TO.N,unconnected-(J1-Padb13)*%
X193802000Y-84963000D03*
%TO.P,J1,b14,FC2*%
%TO.N,unconnected-(J1-Padb14)*%
X193802000Y-87503000D03*
%TO.P,J1,b15,BLUE*%
%TO.N,unconnected-(J1-Padb15)*%
X193802000Y-90043000D03*
%TO.P,J1,b16,GREEN*%
%TO.N,unconnected-(J1-Padb16)*%
X193802000Y-92583000D03*
%TO.P,J1,b17,~{VPA}*%
%TO.N,/VPA*%
X193802000Y-95123000D03*
%TO.P,J1,b18,VSYNCH*%
%TO.N,unconnected-(J1-Padb18)*%
X193802000Y-97663000D03*
%TO.P,J1,b19,E*%
%TO.N,/E*%
X193802000Y-100203000D03*
%TO.P,J1,b20,~{CSYNC}*%
%TO.N,unconnected-(J1-Padb20)*%
X193802000Y-102743000D03*
%TO.P,J1,b21,~{RESETCPU}*%
%TO.N,/RESET*%
X193802000Y-105283000D03*
%TO.P,J1,b22,A15*%
%TO.N,/A15*%
X193802000Y-107823000D03*
%TO.P,J1,b23,~{BR}*%
%TO.N,unconnected-(J1-Padb23)*%
X193802000Y-110363000D03*
%TO.P,J1,b24,~{BG}*%
%TO.N,unconnected-(J1-Padb24)*%
X193802000Y-112903000D03*
%TO.P,J1,b25,~{DTACK}*%
%TO.N,/DTACKL*%
X193802000Y-115443000D03*
%TO.P,J1,b26,~{DRW}*%
%TO.N,/RW*%
X193802000Y-117983000D03*
%TO.P,J1,b27,~{DS}*%
%TO.N,/DS*%
X193802000Y-120523000D03*
%TO.P,J1,b28,~{AS}*%
%TO.N,unconnected-(J1-Padb28)*%
X193802000Y-123063000D03*
%TO.P,J1,b29,D0*%
%TO.N,/D0*%
X193802000Y-125603000D03*
%TO.P,J1,b30,D1*%
%TO.N,/D1*%
X193802000Y-128143000D03*
%TO.P,J1,b31,D2*%
%TO.N,/D2*%
X193802000Y-130683000D03*
%TO.P,J1,b32,GND*%
%TO.N,GND*%
X193802000Y-133223000D03*
%TD*%
D22*
%TO.P,Y1,1,1*%
%TO.N,/CLK*%
X142494000Y-131191000D03*
%TO.P,Y1,2,2*%
%TO.N,Net-(R6-Pad1)*%
X147394000Y-131191000D03*
%TD*%
D15*
%TO.P,D10,1,K*%
%TO.N,/CLKCT*%
X152654000Y-133731000D03*
D16*
%TO.P,D10,2,A*%
%TO.N,Net-(C5-Pad1)*%
X162814000Y-133731000D03*
%TD*%
D23*
%TO.P,J2,1,Pin_1*%
%TO.N,GND*%
X52070000Y-114427000D03*
D24*
%TO.P,J2,2,Pin_2*%
%TO.N,unconnected-(J2-Pad2)*%
X49530000Y-114427000D03*
%TO.P,J2,3,Pin_3*%
%TO.N,GND*%
X52070000Y-111887000D03*
%TO.P,J2,4,Pin_4*%
%TO.N,unconnected-(J2-Pad4)*%
X49530000Y-111887000D03*
%TO.P,J2,5,Pin_5*%
%TO.N,GND*%
X52070000Y-109347000D03*
%TO.P,J2,6,Pin_6*%
%TO.N,/DS3*%
X49530000Y-109347000D03*
%TO.P,J2,7,Pin_7*%
%TO.N,GND*%
X52070000Y-106807000D03*
%TO.P,J2,8,Pin_8*%
%TO.N,/FDC_IP*%
X49530000Y-106807000D03*
%TO.P,J2,9,Pin_9*%
%TO.N,GND*%
X52070000Y-104267000D03*
%TO.P,J2,10,Pin_10*%
%TO.N,/DS0*%
X49530000Y-104267000D03*
%TO.P,J2,11,Pin_11*%
%TO.N,GND*%
X52070000Y-101727000D03*
%TO.P,J2,12,Pin_12*%
%TO.N,/DS1*%
X49530000Y-101727000D03*
%TO.P,J2,13,Pin_13*%
%TO.N,GND*%
X52070000Y-99187000D03*
%TO.P,J2,14,Pin_14*%
%TO.N,/DS2*%
X49530000Y-99187000D03*
%TO.P,J2,15,Pin_15*%
%TO.N,GND*%
X52070000Y-96647000D03*
%TO.P,J2,16,Pin_16*%
%TO.N,/MOTOR_ON*%
X49530000Y-96647000D03*
%TO.P,J2,17,Pin_17*%
%TO.N,GND*%
X52070000Y-94107000D03*
%TO.P,J2,18,Pin_18*%
%TO.N,/DIR*%
X49530000Y-94107000D03*
%TO.P,J2,19,Pin_19*%
%TO.N,GND*%
X52070000Y-91567000D03*
%TO.P,J2,20,Pin_20*%
%TO.N,/STEP*%
X49530000Y-91567000D03*
%TO.P,J2,21,Pin_21*%
%TO.N,GND*%
X52070000Y-89027000D03*
%TO.P,J2,22,Pin_22*%
%TO.N,/DATA_WR*%
X49530000Y-89027000D03*
%TO.P,J2,23,Pin_23*%
%TO.N,GND*%
X52070000Y-86487000D03*
%TO.P,J2,24,Pin_24*%
%TO.N,/GATE_WR*%
X49530000Y-86487000D03*
%TO.P,J2,25,Pin_25*%
%TO.N,GND*%
X52070000Y-83947000D03*
%TO.P,J2,26,Pin_26*%
%TO.N,/FDC_T0*%
X49530000Y-83947000D03*
%TO.P,J2,27,Pin_27*%
%TO.N,GND*%
X52070000Y-81407000D03*
%TO.P,J2,28,Pin_28*%
%TO.N,/FDC_WPRT*%
X49530000Y-81407000D03*
%TO.P,J2,29,Pin_29*%
%TO.N,GND*%
X52070000Y-78867000D03*
%TO.P,J2,30,Pin_30*%
%TO.N,/FDC_RD*%
X49530000Y-78867000D03*
%TO.P,J2,31,Pin_31*%
%TO.N,GND*%
X52070000Y-76327000D03*
%TO.P,J2,32,Pin_32*%
%TO.N,/HEAD*%
X49530000Y-76327000D03*
%TO.P,J2,33,Pin_33*%
%TO.N,GND*%
X52070000Y-73787000D03*
%TO.P,J2,34,Pin_34*%
%TO.N,unconnected-(J2-Pad34)*%
X49530000Y-73787000D03*
%TD*%
D17*
%TO.P,J3,1,Pin_1*%
%TO.N,GND*%
X168402000Y-53467000D03*
%TD*%
%TO.P,R3,1*%
%TO.N,+5V*%
X162814000Y-136271000D03*
D16*
%TO.P,R3,2*%
%TO.N,Net-(C5-Pad1)*%
X152654000Y-136271000D03*
%TD*%
D17*
%TO.P,C13,1*%
%TO.N,+5V*%
X55118000Y-59643000D03*
%TO.P,C13,2*%
%TO.N,GND*%
X55118000Y-64643000D03*
%TD*%
%TO.P,C20,1*%
%TO.N,+5V*%
X101647000Y-82931000D03*
%TO.P,C20,2*%
%TO.N,GND*%
X96647000Y-82931000D03*
%TD*%
D15*
%TO.P,U13,1,~{CS}*%
%TO.N,/FDCON_CS*%
X89027000Y-120523000D03*
D16*
%TO.P,U13,2,R/~{W}*%
%TO.N,/RW*%
X86487000Y-120523000D03*
%TO.P,U13,3,A0*%
%TO.N,/A0*%
X83947000Y-120523000D03*
%TO.P,U13,4,A1*%
%TO.N,/A1*%
X81407000Y-120523000D03*
%TO.P,U13,5,DI0*%
%TO.N,/D0*%
X78867000Y-120523000D03*
%TO.P,U13,6,DI1*%
%TO.N,/D1*%
X76327000Y-120523000D03*
%TO.P,U13,7,DI2*%
%TO.N,/D2*%
X73787000Y-120523000D03*
%TO.P,U13,8,DI3*%
%TO.N,/D3*%
X71247000Y-120523000D03*
%TO.P,U13,9,DI4*%
%TO.N,/D4*%
X68707000Y-120523000D03*
%TO.P,U13,10,DI5*%
%TO.N,/D5*%
X66167000Y-120523000D03*
%TO.P,U13,11,DI6*%
%TO.N,/D6*%
X63627000Y-120523000D03*
%TO.P,U13,12,DI7*%
%TO.N,/D7*%
X61087000Y-120523000D03*
%TO.P,U13,13,~{MR}*%
%TO.N,/RESET*%
X58547000Y-120523000D03*
%TO.P,U13,14,GND*%
%TO.N,GND*%
X56007000Y-120523000D03*
%TO.P,U13,15,VCC*%
%TO.N,+5V*%
X56007000Y-135763000D03*
%TO.P,U13,16,STEP*%
%TO.N,/FDC_STEP*%
X58547000Y-135763000D03*
%TO.P,U13,17,DIRC*%
%TO.N,/FDC_DIR*%
X61087000Y-135763000D03*
%TO.P,U13,18,CLK*%
%TO.N,/CLK*%
X63627000Y-135763000D03*
%TO.P,U13,19,~{RD}*%
%TO.N,/FDC_RD*%
X66167000Y-135763000D03*
%TO.P,U13,20,MOTOR*%
%TO.N,unconnected-(U13-Pad20)*%
X68707000Y-135763000D03*
%TO.P,U13,21,WG*%
%TO.N,/FDC_WG*%
X71247000Y-135763000D03*
%TO.P,U13,22,WD*%
%TO.N,/FDC_WD*%
X73787000Y-135763000D03*
%TO.P,U13,23,~{TR00}*%
%TO.N,/FDC_T0*%
X76327000Y-135763000D03*
%TO.P,U13,24,~{IP}*%
%TO.N,/FDC_IP*%
X78867000Y-135763000D03*
%TO.P,U13,25,~{WPRT}*%
%TO.N,/FDC_WPRT*%
X81407000Y-135763000D03*
%TO.P,U13,26,~{DDEN}*%
%TO.N,GND*%
X83947000Y-135763000D03*
%TO.P,U13,27,DRQ*%
%TO.N,unconnected-(U13-Pad27)*%
X86487000Y-135763000D03*
%TO.P,U13,28,INTRQ*%
%TO.N,unconnected-(U13-Pad28)*%
X89027000Y-135763000D03*
%TD*%
D17*
%TO.P,C17,1*%
%TO.N,+5V*%
X140890000Y-82931000D03*
%TO.P,C17,2*%
%TO.N,GND*%
X135890000Y-82931000D03*
%TD*%
%TO.P,C12,1*%
%TO.N,+5V*%
X99227000Y-113411000D03*
%TO.P,C12,2*%
%TO.N,GND*%
X104227000Y-113411000D03*
%TD*%
%TO.P,J5,1,Pin_1*%
%TO.N,+5V*%
X161798000Y-53467000D03*
%TD*%
D15*
%TO.P,D2,1,K*%
%TO.N,Net-(D2-Pad1)*%
X178054000Y-69723000D03*
D16*
%TO.P,D2,2,A*%
%TO.N,/DTACKL*%
X188214000Y-69723000D03*
%TD*%
D17*
%TO.P,R6,1*%
%TO.N,Net-(R6-Pad1)*%
X142494000Y-126111000D03*
D16*
%TO.P,R6,2*%
%TO.N,Net-(R5-Pad1)*%
X152654000Y-126111000D03*
%TD*%
D18*
%TO.P,C16,1*%
%TO.N,+5V*%
X64885500Y-51723000D03*
D19*
%TO.P,C16,2*%
%TO.N,GND*%
X64885500Y-69723000D03*
%TD*%
D17*
%TO.P,J4,1,Pin_1*%
%TO.N,GND*%
X171958000Y-53467000D03*
%TD*%
D15*
%TO.P,U1,1,I1/CLK*%
%TO.N,/DS*%
X185674000Y-133731000D03*
D16*
%TO.P,U1,2,I2*%
%TO.N,/A19*%
X185674000Y-131191000D03*
%TO.P,U1,3,I3*%
%TO.N,/A18*%
X185674000Y-128651000D03*
%TO.P,U1,4,I4*%
%TO.N,/A17*%
X185674000Y-126111000D03*
%TO.P,U1,5,I5*%
%TO.N,/A16*%
X185674000Y-123571000D03*
%TO.P,U1,6,I6*%
%TO.N,/A15*%
X185674000Y-121031000D03*
%TO.P,U1,7,I7*%
%TO.N,/RESET*%
X185674000Y-118491000D03*
%TO.P,U1,8,I8*%
%TO.N,/A14*%
X185674000Y-115951000D03*
%TO.P,U1,9,I9*%
%TO.N,/A13*%
X185674000Y-113411000D03*
%TO.P,U1,10,GND*%
%TO.N,GND*%
X185674000Y-110871000D03*
%TO.P,U1,11,I10/~{OE}*%
%TO.N,/MUX*%
X178054000Y-110871000D03*
%TO.P,U1,12,IO8*%
%TO.N,Net-(D1-Pad2)*%
X178054000Y-113411000D03*
%TO.P,U1,13,IO7*%
%TO.N,Net-(U1-Pad13)*%
X178054000Y-115951000D03*
%TO.P,U1,14,IO6*%
%TO.N,/CLKCT*%
X178054000Y-118491000D03*
%TO.P,U1,15,IO5*%
%TO.N,/MA8*%
X178054000Y-121031000D03*
%TO.P,U1,16,IO4*%
%TO.N,unconnected-(U1-Pad16)*%
X178054000Y-123571000D03*
%TO.P,U1,17,I03*%
%TO.N,/FDCON_CS*%
X178054000Y-126111000D03*
%TO.P,U1,18,IO2*%
%TO.N,/CS175*%
X178054000Y-128651000D03*
%TO.P,U1,19,IO1*%
%TO.N,/ROM_CE*%
X178054000Y-131191000D03*
%TO.P,U1,20,VCC*%
%TO.N,+5V*%
X178054000Y-133731000D03*
%TD*%
D15*
%TO.P,U8,1,D0*%
%TO.N,/D4*%
X132842000Y-77338000D03*
D16*
%TO.P,U8,2,D1*%
%TO.N,/D5*%
X132842000Y-74798000D03*
%TO.P,U8,3,~{WR}*%
%TO.N,/RW*%
X132842000Y-72258000D03*
%TO.P,U8,4,~{RAS}*%
%TO.N,/RAS2*%
X132842000Y-69718000D03*
%TO.P,U8,5,N.C.*%
%TO.N,unconnected-(U8-Pad5)*%
X132842000Y-67178000D03*
%TO.P,U8,6,A0*%
%TO.N,/MA0*%
X132842000Y-64638000D03*
%TO.P,U8,7,A1*%
%TO.N,/MA1*%
X132842000Y-62098000D03*
%TO.P,U8,8,A2*%
%TO.N,/MA2*%
X132842000Y-59558000D03*
%TO.P,U8,9,A3*%
%TO.N,/MA3*%
X132842000Y-57018000D03*
%TO.P,U8,10,VCC*%
%TO.N,+5V*%
X132842000Y-54478000D03*
%TO.P,U8,11,A4*%
%TO.N,/MA4*%
X125222000Y-54478000D03*
%TO.P,U8,12,A5*%
%TO.N,/MA5*%
X125222000Y-57018000D03*
%TO.P,U8,13,A6*%
%TO.N,/MA6*%
X125222000Y-59558000D03*
%TO.P,U8,14,A7*%
%TO.N,/MA7*%
X125222000Y-62098000D03*
%TO.P,U8,15,A8*%
%TO.N,/MA8*%
X125222000Y-64638000D03*
%TO.P,U8,16,~{OE}*%
%TO.N,GND*%
X125222000Y-67178000D03*
%TO.P,U8,17,~{CAS}*%
%TO.N,/CAS*%
X125222000Y-69718000D03*
%TO.P,U8,18,D2*%
%TO.N,/D6*%
X125222000Y-72258000D03*
%TO.P,U8,19,D3*%
%TO.N,/D7*%
X125222000Y-74798000D03*
%TO.P,U8,20,GND*%
%TO.N,GND*%
X125222000Y-77338000D03*
%TD*%
D15*
%TO.P,D1,1,K*%
%TO.N,/DSMC*%
X161798000Y-62103000D03*
D16*
%TO.P,D1,2,A*%
%TO.N,Net-(D1-Pad2)*%
X171958000Y-62103000D03*
%TD*%
D17*
%TO.P,C21,1*%
%TO.N,GND*%
X80010000Y-82931000D03*
%TO.P,C21,2*%
%TO.N,+5V*%
X85010000Y-82931000D03*
%TD*%
D15*
%TO.P,D7,1,K*%
%TO.N,/CS175*%
X165354000Y-133731000D03*
D16*
%TO.P,D7,2,A*%
%TO.N,/DTACKL*%
X175514000Y-133731000D03*
%TD*%
D18*
%TO.P,C23,1*%
%TO.N,+5V*%
X92086500Y-54483000D03*
D19*
%TO.P,C23,2*%
%TO.N,GND*%
X92086500Y-72483000D03*
%TD*%
D15*
%TO.P,U16,1,~{Mr}*%
%TO.N,/RESET*%
X76962000Y-110363000D03*
D16*
%TO.P,U16,2,Q0*%
%TO.N,unconnected-(U16-Pad2)*%
X76962000Y-107823000D03*
%TO.P,U16,3,~{Q0}*%
%TO.N,/DS3*%
X76962000Y-105283000D03*
%TO.P,U16,4,D0*%
%TO.N,/D4*%
X76962000Y-102743000D03*
%TO.P,U16,5,D1*%
%TO.N,/D5*%
X76962000Y-100203000D03*
%TO.P,U16,6,~{Q1}*%
%TO.N,/DS2*%
X76962000Y-97663000D03*
%TO.P,U16,7,Q1*%
%TO.N,unconnected-(U16-Pad7)*%
X76962000Y-95123000D03*
%TO.P,U16,8,GND*%
%TO.N,GND*%
X76962000Y-92583000D03*
%TO.P,U16,9,Cp*%
%TO.N,/CS175*%
X69342000Y-92583000D03*
%TO.P,U16,10,Q2*%
%TO.N,unconnected-(U16-Pad10)*%
X69342000Y-95123000D03*
%TO.P,U16,11,~{Q2}*%
%TO.N,unconnected-(U16-Pad11)*%
X69342000Y-97663000D03*
%TO.P,U16,12,D2*%
%TO.N,/D7*%
X69342000Y-100203000D03*
%TO.P,U16,13,D3*%
%TO.N,/D6*%
X69342000Y-102743000D03*
%TO.P,U16,14,~{Q3}*%
%TO.N,unconnected-(U16-Pad14)*%
X69342000Y-105283000D03*
%TO.P,U16,15,Q3*%
%TO.N,unconnected-(U16-Pad15)*%
X69342000Y-107823000D03*
%TO.P,U16,16,VCC*%
%TO.N,+5V*%
X69342000Y-110363000D03*
%TD*%
D15*
%TO.P,D5,1,K*%
%TO.N,/GAL2_P15*%
X165354000Y-121031000D03*
D16*
%TO.P,D5,2,A*%
%TO.N,Net-(C3-Pad1)*%
X175514000Y-121031000D03*
%TD*%
D15*
%TO.P,U5,1,S*%
%TO.N,/MUX*%
X168402000Y-107823000D03*
D16*
%TO.P,U5,2,I0a*%
%TO.N,/A15*%
X168402000Y-105283000D03*
%TO.P,U5,3,I1a*%
%TO.N,/A13*%
X168402000Y-102743000D03*
%TO.P,U5,4,Za*%
%TO.N,/MA0*%
X168402000Y-100203000D03*
%TO.P,U5,5,I0b*%
%TO.N,/A11*%
X168402000Y-97663000D03*
%TO.P,U5,6,I1b*%
%TO.N,/A9*%
X168402000Y-95123000D03*
%TO.P,U5,7,Zb*%
%TO.N,/MA1*%
X168402000Y-92583000D03*
%TO.P,U5,8,GND*%
%TO.N,GND*%
X168402000Y-90043000D03*
%TO.P,U5,9,Zc*%
%TO.N,/MA6*%
X160782000Y-90043000D03*
%TO.P,U5,10,I1c*%
%TO.N,/A8*%
X160782000Y-92583000D03*
%TO.P,U5,11,I0c*%
%TO.N,/A10*%
X160782000Y-95123000D03*
%TO.P,U5,12,Zd*%
%TO.N,/MA7*%
X160782000Y-97663000D03*
%TO.P,U5,13,I1d*%
%TO.N,/A12*%
X160782000Y-100203000D03*
%TO.P,U5,14,I0d*%
%TO.N,/A14*%
X160782000Y-102743000D03*
%TO.P,U5,15,E*%
%TO.N,GND*%
X160782000Y-105283000D03*
%TO.P,U5,16,VCC*%
%TO.N,+5V*%
X160782000Y-107823000D03*
%TD*%
D15*
%TO.P,U17,1,~{Mr}*%
%TO.N,/RESET*%
X51562000Y-139573000D03*
D16*
%TO.P,U17,2,Q0*%
%TO.N,unconnected-(U17-Pad2)*%
X51562000Y-137033000D03*
%TO.P,U17,3,~{Q0}*%
%TO.N,/HEAD*%
X51562000Y-134493000D03*
%TO.P,U17,4,D0*%
%TO.N,/D3*%
X51562000Y-131953000D03*
%TO.P,U17,5,D1*%
%TO.N,/D0*%
X51562000Y-129413000D03*
%TO.P,U17,6,~{Q1}*%
%TO.N,/DS1*%
X51562000Y-126873000D03*
%TO.P,U17,7,Q1*%
%TO.N,unconnected-(U17-Pad7)*%
X51562000Y-124333000D03*
%TO.P,U17,8,GND*%
%TO.N,GND*%
X51562000Y-121793000D03*
%TO.P,U17,9,Cp*%
%TO.N,/CS175*%
X43942000Y-121793000D03*
%TO.P,U17,10,Q2*%
%TO.N,unconnected-(U17-Pad10)*%
X43942000Y-124333000D03*
%TO.P,U17,11,~{Q2}*%
%TO.N,/MOTOR_ON*%
X43942000Y-126873000D03*
%TO.P,U17,12,D2*%
%TO.N,/D2*%
X43942000Y-129413000D03*
%TO.P,U17,13,D3*%
%TO.N,/D1*%
X43942000Y-131953000D03*
%TO.P,U17,14,~{Q3}*%
%TO.N,/DS0*%
X43942000Y-134493000D03*
%TO.P,U17,15,Q3*%
%TO.N,unconnected-(U17-Pad15)*%
X43942000Y-137033000D03*
%TO.P,U17,16,VCC*%
%TO.N,+5V*%
X43942000Y-139573000D03*
%TD*%
D17*
%TO.P,R1,1*%
%TO.N,+5V*%
X165354000Y-118491000D03*
D16*
%TO.P,R1,2*%
%TO.N,Net-(C3-Pad1)*%
X175514000Y-118491000D03*
%TD*%
D17*
%TO.P,C2,1*%
%TO.N,GND*%
X168990000Y-110871000D03*
%TO.P,C2,2*%
%TO.N,Net-(C2-Pad2)*%
X173990000Y-110871000D03*
%TD*%
%TO.P,R7,1*%
%TO.N,+5V*%
X59817000Y-100711000D03*
D16*
%TO.P,R7,2*%
%TO.N,/FDC_IP*%
X59817000Y-110871000D03*
%TD*%
D15*
%TO.P,D4,1,K*%
%TO.N,Net-(C2-Pad2)*%
X165354000Y-113411000D03*
D16*
%TO.P,D4,2,A*%
%TO.N,/GAL2_P9*%
X175514000Y-113411000D03*
%TD*%
D18*
%TO.P,C24,1*%
%TO.N,+5V*%
X120257500Y-54627000D03*
D19*
%TO.P,C24,2*%
%TO.N,GND*%
X120257500Y-72627000D03*
%TD*%
D17*
%TO.P,C18,1*%
%TO.N,+5V*%
X130222000Y-82931000D03*
%TO.P,C18,2*%
%TO.N,GND*%
X125222000Y-82931000D03*
%TD*%
D15*
%TO.P,D3,1,K*%
%TO.N,Net-(D3-Pad1)*%
X178054000Y-72263000D03*
D16*
%TO.P,D3,2,A*%
%TO.N,/DTACKL*%
X188214000Y-72263000D03*
%TD*%
D17*
%TO.P,C19,1*%
%TO.N,GND*%
X107442000Y-82931000D03*
%TO.P,C19,2*%
%TO.N,+5V*%
X112442000Y-82931000D03*
%TD*%
D15*
%TO.P,U15,1*%
%TO.N,+5V*%
X100457000Y-135763000D03*
D16*
%TO.P,U15,2*%
%TO.N,unconnected-(U15-Pad2)*%
X100457000Y-133223000D03*
%TO.P,U15,3*%
%TO.N,/FDC_WG*%
X100457000Y-130683000D03*
%TO.P,U15,4*%
%TO.N,/GATE_WR*%
X100457000Y-128143000D03*
%TO.P,U15,5*%
%TO.N,/FDC_DIR*%
X100457000Y-125603000D03*
%TO.P,U15,6*%
%TO.N,/DIR*%
X100457000Y-123063000D03*
%TO.P,U15,7,GND*%
%TO.N,GND*%
X100457000Y-120523000D03*
%TO.P,U15,8*%
%TO.N,/STEP*%
X92837000Y-120523000D03*
%TO.P,U15,9*%
%TO.N,/FDC_STEP*%
X92837000Y-123063000D03*
%TO.P,U15,10*%
%TO.N,unconnected-(U15-Pad10)*%
X92837000Y-125603000D03*
%TO.P,U15,11*%
%TO.N,+5V*%
X92837000Y-128143000D03*
%TO.P,U15,12*%
%TO.N,/DATA_WR*%
X92837000Y-130683000D03*
%TO.P,U15,13*%
%TO.N,/FDC_WD*%
X92837000Y-133223000D03*
%TO.P,U15,14,VCC*%
%TO.N,+5V*%
X92837000Y-135763000D03*
%TD*%
D15*
%TO.P,U12,1,D0*%
%TO.N,/D4*%
X76962000Y-77343000D03*
D16*
%TO.P,U12,2,D1*%
%TO.N,/D5*%
X76962000Y-74803000D03*
%TO.P,U12,3,~{WR}*%
%TO.N,/RW*%
X76962000Y-72263000D03*
%TO.P,U12,4,~{RAS}*%
%TO.N,/RAS0*%
X76962000Y-69723000D03*
%TO.P,U12,5,N.C.*%
%TO.N,unconnected-(U12-Pad5)*%
X76962000Y-67183000D03*
%TO.P,U12,6,A0*%
%TO.N,/MA0*%
X76962000Y-64643000D03*
%TO.P,U12,7,A1*%
%TO.N,/MA1*%
X76962000Y-62103000D03*
%TO.P,U12,8,A2*%
%TO.N,/MA2*%
X76962000Y-59563000D03*
%TO.P,U12,9,A3*%
%TO.N,/MA3*%
X76962000Y-57023000D03*
%TO.P,U12,10,VCC*%
%TO.N,+5V*%
X76962000Y-54483000D03*
%TO.P,U12,11,A4*%
%TO.N,/MA4*%
X69342000Y-54483000D03*
%TO.P,U12,12,A5*%
%TO.N,/MA5*%
X69342000Y-57023000D03*
%TO.P,U12,13,A6*%
%TO.N,/MA6*%
X69342000Y-59563000D03*
%TO.P,U12,14,A7*%
%TO.N,/MA7*%
X69342000Y-62103000D03*
%TO.P,U12,15,A8*%
%TO.N,/MA8*%
X69342000Y-64643000D03*
%TO.P,U12,16,~{OE}*%
%TO.N,GND*%
X69342000Y-67183000D03*
%TO.P,U12,17,~{CAS}*%
%TO.N,/CAS*%
X69342000Y-69723000D03*
%TO.P,U12,18,D2*%
%TO.N,/D6*%
X69342000Y-72263000D03*
%TO.P,U12,19,D3*%
%TO.N,/D7*%
X69342000Y-74803000D03*
%TO.P,U12,20,GND*%
%TO.N,GND*%
X69342000Y-77343000D03*
%TD*%
D17*
%TO.P,R5,1*%
%TO.N,Net-(R5-Pad1)*%
X142494000Y-123571000D03*
D16*
%TO.P,R5,2*%
%TO.N,/CLK*%
X152654000Y-123571000D03*
%TD*%
D17*
%TO.P,C22,1*%
%TO.N,+5V*%
X74342000Y-82931000D03*
%TO.P,C22,2*%
%TO.N,GND*%
X69342000Y-82931000D03*
%TD*%
%TO.P,R2,1*%
%TO.N,Net-(C4-Pad2)*%
X165354000Y-126111000D03*
D16*
%TO.P,R2,2*%
%TO.N,GND*%
X175514000Y-126111000D03*
%TD*%
D15*
%TO.P,D6,1,K*%
%TO.N,/FDCON_CS*%
X165354000Y-131191000D03*
D16*
%TO.P,D6,2,A*%
%TO.N,/DTACKL*%
X175514000Y-131191000D03*
%TD*%
D17*
%TO.P,R9,1*%
%TO.N,+5V*%
X59817000Y-77851000D03*
D16*
%TO.P,R9,2*%
%TO.N,/FDC_WPRT*%
X59817000Y-88011000D03*
%TD*%
D15*
%TO.P,U4,1,Q11*%
%TO.N,unconnected-(U4-Pad1)*%
X185674000Y-67183000D03*
D16*
%TO.P,U4,2,Q5*%
%TO.N,unconnected-(U4-Pad2)*%
X185674000Y-64643000D03*
%TO.P,U4,3,Q4*%
%TO.N,unconnected-(U4-Pad3)*%
X185674000Y-62103000D03*
%TO.P,U4,4,Q6*%
%TO.N,unconnected-(U4-Pad4)*%
X185674000Y-59563000D03*
%TO.P,U4,5,Q3*%
%TO.N,unconnected-(U4-Pad5)*%
X185674000Y-57023000D03*
%TO.P,U4,6,Q2*%
%TO.N,Net-(U2-Pad6)*%
X185674000Y-54483000D03*
%TO.P,U4,7,Q1*%
%TO.N,Net-(U2-Pad7)*%
X185674000Y-51943000D03*
%TO.P,U4,8,VSS*%
%TO.N,GND*%
X185674000Y-49403000D03*
%TO.P,U4,9,Q0*%
%TO.N,Net-(U2-Pad8)*%
X178054000Y-49403000D03*
%TO.P,U4,10,CLK*%
%TO.N,/CLKCT*%
X178054000Y-51943000D03*
%TO.P,U4,11,Reset*%
%TO.N,GND*%
X178054000Y-54483000D03*
%TO.P,U4,12,Q8*%
%TO.N,unconnected-(U4-Pad12)*%
X178054000Y-57023000D03*
%TO.P,U4,13,Q7*%
%TO.N,unconnected-(U4-Pad13)*%
X178054000Y-59563000D03*
%TO.P,U4,14,Q9*%
%TO.N,unconnected-(U4-Pad14)*%
X178054000Y-62103000D03*
%TO.P,U4,15,Q10*%
%TO.N,unconnected-(U4-Pad15)*%
X178054000Y-64643000D03*
%TO.P,U4,16,VDD*%
%TO.N,+5V*%
X178054000Y-67183000D03*
%TD*%
D15*
%TO.P,U3,1*%
%TO.N,Net-(C5-Pad1)*%
X162814000Y-126111000D03*
D16*
%TO.P,U3,2*%
%TO.N,/MUX*%
X162814000Y-123571000D03*
%TO.P,U3,3*%
%TO.N,Net-(C4-Pad2)*%
X162814000Y-121031000D03*
%TO.P,U3,4*%
%TO.N,/GAL2_P15*%
X162814000Y-118491000D03*
%TO.P,U3,5*%
%TO.N,Net-(C3-Pad1)*%
X162814000Y-115951000D03*
%TO.P,U3,6*%
%TO.N,/GAL2_P9*%
X162814000Y-113411000D03*
%TO.P,U3,7,GND*%
%TO.N,GND*%
X162814000Y-110871000D03*
%TO.P,U3,8*%
%TO.N,/ROM_OE*%
X155194000Y-110871000D03*
%TO.P,U3,9*%
%TO.N,/RW*%
X155194000Y-113411000D03*
%TO.P,U3,10*%
%TO.N,/CLK*%
X155194000Y-115951000D03*
%TO.P,U3,11*%
%TO.N,Net-(R5-Pad1)*%
X155194000Y-118491000D03*
%TO.P,U3,12*%
X155194000Y-121031000D03*
%TO.P,U3,13*%
%TO.N,Net-(R6-Pad1)*%
X155194000Y-123571000D03*
%TO.P,U3,14,VCC*%
%TO.N,+5V*%
X155194000Y-126111000D03*
%TD*%
D17*
%TO.P,C5,1*%
%TO.N,Net-(C5-Pad1)*%
X155194000Y-131191000D03*
%TO.P,C5,2*%
%TO.N,GND*%
X160194000Y-131191000D03*
%TD*%
%TO.P,C4,1*%
%TO.N,GND*%
X169418000Y-123571000D03*
%TO.P,C4,2*%
%TO.N,Net-(C4-Pad2)*%
X174418000Y-123571000D03*
%TD*%
%TO.P,C1,1*%
%TO.N,+5V*%
X187706000Y-95203000D03*
%TO.P,C1,2*%
%TO.N,GND*%
X187706000Y-100203000D03*
%TD*%
D15*
%TO.P,U9,1,D0*%
%TO.N,/D0*%
X115062000Y-77343000D03*
D16*
%TO.P,U9,2,D1*%
%TO.N,/D1*%
X115062000Y-74803000D03*
%TO.P,U9,3,~{WR}*%
%TO.N,/RW*%
X115062000Y-72263000D03*
%TO.P,U9,4,~{RAS}*%
%TO.N,/RAS1*%
X115062000Y-69723000D03*
%TO.P,U9,5,N.C.*%
%TO.N,unconnected-(U9-Pad5)*%
X115062000Y-67183000D03*
%TO.P,U9,6,A0*%
%TO.N,/MA0*%
X115062000Y-64643000D03*
%TO.P,U9,7,A1*%
%TO.N,/MA1*%
X115062000Y-62103000D03*
%TO.P,U9,8,A2*%
%TO.N,/MA2*%
X115062000Y-59563000D03*
%TO.P,U9,9,A3*%
%TO.N,/MA3*%
X115062000Y-57023000D03*
%TO.P,U9,10,VCC*%
%TO.N,+5V*%
X115062000Y-54483000D03*
%TO.P,U9,11,A4*%
%TO.N,/MA4*%
X107442000Y-54483000D03*
%TO.P,U9,12,A5*%
%TO.N,/MA5*%
X107442000Y-57023000D03*
%TO.P,U9,13,A6*%
%TO.N,/MA6*%
X107442000Y-59563000D03*
%TO.P,U9,14,A7*%
%TO.N,/MA7*%
X107442000Y-62103000D03*
%TO.P,U9,15,A8*%
%TO.N,/MA8*%
X107442000Y-64643000D03*
%TO.P,U9,16,~{OE}*%
%TO.N,GND*%
X107442000Y-67183000D03*
%TO.P,U9,17,~{CAS}*%
%TO.N,/CAS*%
X107442000Y-69723000D03*
%TO.P,U9,18,D2*%
%TO.N,/D2*%
X107442000Y-72263000D03*
%TO.P,U9,19,D3*%
%TO.N,/D3*%
X107442000Y-74803000D03*
%TO.P,U9,20,GND*%
%TO.N,GND*%
X107442000Y-77343000D03*
%TD*%
D17*
%TO.P,R8,1*%
%TO.N,+5V*%
X56642000Y-100711000D03*
D16*
%TO.P,R8,2*%
%TO.N,/FDC_RD*%
X56642000Y-110871000D03*
%TD*%
D18*
%TO.P,C14,1*%
%TO.N,+9V*%
X59297500Y-51723000D03*
D19*
%TO.P,C14,2*%
%TO.N,GND*%
X59297500Y-69723000D03*
%TD*%
D15*
%TO.P,D9,1,K*%
%TO.N,Net-(C4-Pad2)*%
X152614000Y-128651000D03*
D16*
%TO.P,D9,2,A*%
%TO.N,/MUX*%
X162774000Y-128651000D03*
%TD*%
D17*
%TO.P,C10,1*%
%TO.N,GND*%
X142534000Y-136271000D03*
%TO.P,C10,2*%
%TO.N,+5V*%
X147534000Y-136271000D03*
%TD*%
D15*
%TO.P,U11,1,D0*%
%TO.N,/D0*%
X87757000Y-77343000D03*
D16*
%TO.P,U11,2,D1*%
%TO.N,/D1*%
X87757000Y-74803000D03*
%TO.P,U11,3,~{WR}*%
%TO.N,/RW*%
X87757000Y-72263000D03*
%TO.P,U11,4,~{RAS}*%
%TO.N,/RAS0*%
X87757000Y-69723000D03*
%TO.P,U11,5,N.C.*%
%TO.N,unconnected-(U11-Pad5)*%
X87757000Y-67183000D03*
%TO.P,U11,6,A0*%
%TO.N,/MA0*%
X87757000Y-64643000D03*
%TO.P,U11,7,A1*%
%TO.N,/MA1*%
X87757000Y-62103000D03*
%TO.P,U11,8,A2*%
%TO.N,/MA2*%
X87757000Y-59563000D03*
%TO.P,U11,9,A3*%
%TO.N,/MA3*%
X87757000Y-57023000D03*
%TO.P,U11,10,VCC*%
%TO.N,+5V*%
X87757000Y-54483000D03*
%TO.P,U11,11,A4*%
%TO.N,/MA4*%
X80137000Y-54483000D03*
%TO.P,U11,12,A5*%
%TO.N,/MA5*%
X80137000Y-57023000D03*
%TO.P,U11,13,A6*%
%TO.N,/MA6*%
X80137000Y-59563000D03*
%TO.P,U11,14,A7*%
%TO.N,/MA7*%
X80137000Y-62103000D03*
%TO.P,U11,15,A8*%
%TO.N,/MA8*%
X80137000Y-64643000D03*
%TO.P,U11,16,~{OE}*%
%TO.N,GND*%
X80137000Y-67183000D03*
%TO.P,U11,17,~{CAS}*%
%TO.N,/CAS*%
X80137000Y-69723000D03*
%TO.P,U11,18,D2*%
%TO.N,/D2*%
X80137000Y-72263000D03*
%TO.P,U11,19,D3*%
%TO.N,/D3*%
X80137000Y-74803000D03*
%TO.P,U11,20,GND*%
%TO.N,GND*%
X80137000Y-77343000D03*
%TD*%
D17*
%TO.P,R10,1*%
%TO.N,+5V*%
X56642000Y-77851000D03*
D16*
%TO.P,R10,2*%
%TO.N,/FDC_T0*%
X56642000Y-88011000D03*
%TD*%
D25*
%TO.N,GND*%
X140970000Y-94107000D03*
X150865200Y-130766200D03*
X155448000Y-53467000D03*
X164155500Y-105872000D03*
X155448000Y-60579000D03*
%TO.N,/A3*%
X144272000Y-101473000D03*
X143256000Y-93599000D03*
X165354000Y-76835000D03*
%TO.N,/A4*%
X157856400Y-69832000D03*
X149352000Y-98933000D03*
X157856400Y-74402000D03*
X147320000Y-75819000D03*
%TO.N,/A5*%
X122047000Y-117348000D03*
X186690000Y-79375000D03*
X188976000Y-79375000D03*
%TO.N,/A6*%
X149915400Y-84933800D03*
X154517700Y-73771400D03*
X188976000Y-81153000D03*
X154517700Y-68646100D03*
X186690000Y-81153000D03*
X150622000Y-102743000D03*
X174752000Y-77343000D03*
%TO.N,/A7*%
X163081200Y-96286200D03*
X177546000Y-81661000D03*
X170627600Y-83064800D03*
X180509700Y-67111300D03*
%TO.N,/A8*%
X123952000Y-116713000D03*
X172944600Y-90031700D03*
X180428100Y-88296000D03*
X170942000Y-90043000D03*
X129794000Y-126873000D03*
%TO.N,/A9*%
X181879000Y-132713200D03*
X155702000Y-93853000D03*
X127254000Y-126873000D03*
X120777000Y-119253000D03*
X161464400Y-122729300D03*
%TO.N,/A10*%
X119634000Y-126873000D03*
X179912800Y-93559100D03*
%TO.N,/A11*%
X189498100Y-92386800D03*
X136652000Y-117348000D03*
X124587000Y-128143000D03*
%TO.N,/A12*%
X180107000Y-98025100D03*
X183707500Y-96663100D03*
X189473500Y-99670100D03*
%TO.N,/A13*%
X175809700Y-103872200D03*
X173093200Y-103228100D03*
X180106200Y-99789600D03*
%TO.N,/A14*%
X181875100Y-115697000D03*
%TO.N,/D7*%
X116365000Y-93218000D03*
X98298000Y-93218000D03*
X80772000Y-93218000D03*
X112014000Y-137795000D03*
%TO.N,/D6*%
X99822000Y-95123000D03*
X82042000Y-95123000D03*
X116332000Y-95123000D03*
%TO.N,/D5*%
X83566000Y-97028000D03*
X102997000Y-97028000D03*
X116332000Y-97028000D03*
%TO.N,/D4*%
X116332000Y-98933000D03*
X102997000Y-98933000D03*
X85217000Y-98933000D03*
%TO.N,/D3*%
X105537000Y-101473000D03*
X116332000Y-101473000D03*
X86487000Y-101473000D03*
X58547000Y-124333000D03*
%TO.N,/A2*%
X144526000Y-93599000D03*
X161798000Y-78613000D03*
X122174000Y-125349000D03*
X172212000Y-58240600D03*
X162196800Y-66469800D03*
X145542000Y-105283000D03*
%TO.N,/A1*%
X174244000Y-55626000D03*
X113157000Y-117348000D03*
X95377000Y-117983000D03*
X189484000Y-63373000D03*
X156839500Y-64202200D03*
%TO.N,/A0*%
X188976000Y-77597000D03*
X166116000Y-81153000D03*
X95377000Y-119253000D03*
X186690000Y-77597000D03*
%TO.N,/RESET*%
X157988000Y-83693000D03*
X123317000Y-110363000D03*
X187452000Y-63373000D03*
X174244000Y-59817000D03*
X162560000Y-60325000D03*
%TO.N,/RW*%
X145288000Y-79121000D03*
X87757000Y-117983000D03*
X148844000Y-116459000D03*
%TO.N,/D0*%
X112014000Y-107823000D03*
X58674000Y-123063000D03*
X90297000Y-107823000D03*
%TO.N,/D1*%
X109347000Y-105918000D03*
X116332000Y-105918000D03*
X60452000Y-117348000D03*
X91567000Y-105918000D03*
%TO.N,/D2*%
X88392000Y-103378000D03*
X106807000Y-103378000D03*
X116332000Y-103378000D03*
X58547000Y-117348000D03*
%TO.N,/FDC_IP*%
X78867000Y-129413000D03*
D26*
%TO.N,/DS2*%
X64770000Y-86487000D03*
D25*
%TO.N,/DIR*%
X66802000Y-110871000D03*
X44873900Y-118052500D03*
%TO.N,/STEP*%
X73787000Y-117983000D03*
X60452000Y-106553000D03*
%TO.N,/DATA_WR*%
X60452000Y-104648000D03*
%TO.N,/GATE_WR*%
X60452000Y-103378000D03*
%TO.N,/FDC_T0*%
X76327000Y-129413000D03*
%TO.N,/CLK*%
X63627000Y-131953000D03*
%TO.N,/DTACKL*%
X190246000Y-110363000D03*
%TO.N,Net-(D1-Pad2)*%
X173482000Y-76327000D03*
%TO.N,/GAL2_P9*%
X177878200Y-92558700D03*
X175514000Y-110617000D03*
%TO.N,/CS175*%
X71247000Y-112178500D03*
X104267000Y-123063000D03*
X100457000Y-116078000D03*
%TO.N,/ROM_CE*%
X120777000Y-133383700D03*
%TO.N,+5V*%
X160571300Y-116547700D03*
X56007000Y-140335000D03*
%TO.N,/CLKCT*%
X179324000Y-78613000D03*
D26*
%TO.N,/DS3*%
X64770000Y-89027000D03*
D25*
%TO.N,/FDC_WPRT*%
X81407000Y-129413000D03*
%TO.N,/FDC_STEP*%
X73787000Y-129413000D03*
%TO.N,/FDC_RD*%
X66167000Y-129413000D03*
%TO.N,/CAS*%
X141848500Y-66772300D03*
%TO.N,/RAS2*%
X151892000Y-91313000D03*
X166562500Y-92971500D03*
%TO.N,/RAS1*%
X161496400Y-111905700D03*
X172974000Y-108585000D03*
X164478900Y-111542100D03*
X129295200Y-74048800D03*
X147086400Y-115570300D03*
%TO.N,/RAS0*%
X94996000Y-52959000D03*
%TO.N,/MA0*%
X165298800Y-92966800D03*
X152649701Y-90047299D03*
%TO.N,/MA1*%
X153924000Y-89027000D03*
%TO.N,/ROM_OE*%
X122047000Y-126873000D03*
%TO.N,/FDC_DIR*%
X101727000Y-141478000D03*
%TD*%
D27*
%TO.N,GND*%
X161464000Y-110871000D02*
X159414100Y-108821100D01*
X120511000Y-72627000D02*
X125222000Y-77338000D01*
X187706000Y-100203000D02*
X187706000Y-108839000D01*
X148982500Y-77286000D02*
X148982500Y-72483000D01*
X55118000Y-64643000D02*
X55118000Y-65543500D01*
X153899000Y-129856000D02*
X158859000Y-129856000D01*
X52832000Y-120523000D02*
X56134000Y-120523000D01*
X187706000Y-108839000D02*
X185674000Y-110871000D01*
X148982000Y-77286500D02*
X148982000Y-86094500D01*
X78685500Y-68507500D02*
X80010000Y-67183000D01*
X125222000Y-77338000D02*
X125222000Y-82931000D01*
X164155500Y-105872000D02*
X162721000Y-105872000D01*
X150865200Y-130766200D02*
X152988800Y-130766200D01*
X64885500Y-72655500D02*
X64770000Y-72771000D01*
X69342000Y-84963000D02*
X76962000Y-92583000D01*
X39728000Y-64793000D02*
X40894000Y-64793000D01*
X158859000Y-129856000D02*
X160194000Y-131191000D01*
X39370000Y-65151000D02*
X39728000Y-64793000D01*
X80010000Y-77343000D02*
X80010000Y-82931000D01*
X196342000Y-133223000D02*
X196342000Y-136271000D01*
X134565000Y-68507500D02*
X135890000Y-67183000D01*
X148982000Y-72483000D02*
X148982000Y-77286500D01*
X168402000Y-90043000D02*
X163322000Y-84963000D01*
X78685500Y-76018500D02*
X78685500Y-68507500D01*
X96637000Y-67178000D02*
X92086500Y-71728500D01*
X55118000Y-65543500D02*
X59297500Y-69723000D01*
X182118000Y-51181000D02*
X183896000Y-49403000D01*
X148982000Y-86094500D02*
X140970000Y-94107000D01*
X162962600Y-131191000D02*
X160194000Y-131191000D01*
X107442000Y-77343000D02*
X107442000Y-82931000D01*
X96647000Y-82931000D02*
X96647000Y-77348000D01*
X159414100Y-106650900D02*
X160782000Y-105283000D01*
X100574000Y-120528000D02*
X104389000Y-120528000D01*
X105853000Y-76018500D02*
X105853000Y-68507500D01*
X104314000Y-100377000D02*
X104314000Y-113411000D01*
X80010000Y-77343000D02*
X78685500Y-76018500D01*
X152988800Y-130766200D02*
X153899000Y-129856000D01*
X145360400Y-136271000D02*
X142534000Y-136271000D01*
X107178000Y-77343000D02*
X105853000Y-76018500D01*
X160782000Y-84963000D02*
X163322000Y-84963000D01*
X69342000Y-67183000D02*
X67425500Y-67183000D01*
X134565000Y-76018500D02*
X134565000Y-68507500D01*
X61722000Y-69723000D02*
X64770000Y-72771000D01*
X59297500Y-69723000D02*
X61722000Y-69723000D01*
X107442000Y-97249000D02*
X104314000Y-100377000D01*
X64770000Y-72771000D02*
X69342000Y-77343000D01*
X150865200Y-130766200D02*
X145360400Y-136271000D01*
X48006000Y-67691000D02*
X39370000Y-67691000D01*
X160782000Y-105283000D02*
X162132000Y-105283000D01*
X64885500Y-69723000D02*
X64885500Y-72655500D01*
X107442000Y-82931000D02*
X107442000Y-97249000D01*
X67425500Y-67183000D02*
X64885500Y-69723000D01*
X155448000Y-60579000D02*
X155448000Y-53467000D01*
X162814000Y-110871000D02*
X161464000Y-110871000D01*
X193802000Y-133223000D02*
X196342000Y-133223000D01*
X52832000Y-120523000D02*
X51562000Y-121793000D01*
X135890000Y-77343000D02*
X134565000Y-76018500D01*
X166264600Y-127889000D02*
X162962600Y-131191000D01*
X175514000Y-126111000D02*
X173228000Y-126111000D01*
X135890000Y-77343000D02*
X135890000Y-82931000D01*
X48006000Y-64793000D02*
X48006000Y-67691000D01*
X104267000Y-120523000D02*
X104267000Y-113451000D01*
X162721000Y-105872000D02*
X162132000Y-105283000D01*
X148982000Y-77286500D02*
X148982500Y-77286000D01*
X92086500Y-72787500D02*
X96637000Y-77338000D01*
X125222000Y-67178000D02*
X120258000Y-72142500D01*
X171450000Y-127889000D02*
X166264600Y-127889000D01*
X39370000Y-67691000D02*
X39370000Y-65151000D01*
X69342000Y-82931000D02*
X69342000Y-84963000D01*
X105853000Y-68507500D02*
X107178000Y-67183000D01*
X69342000Y-77343000D02*
X69342000Y-82931000D01*
X173228000Y-126111000D02*
X171450000Y-127889000D01*
X51562000Y-121793000D02*
X49022000Y-124333000D01*
X49022000Y-124333000D02*
X49022000Y-142748000D01*
X168736000Y-110617000D02*
X163068000Y-110617000D01*
X159414100Y-108821100D02*
X159414100Y-106650900D01*
X183896000Y-49403000D02*
X185674000Y-49403000D01*
X193802000Y-133223000D02*
X193802000Y-135763000D01*
X182118000Y-82423000D02*
X182118000Y-51181000D01*
%TO.N,+9V*%
X109474000Y-51943000D02*
X114554000Y-51943000D01*
X59182000Y-54991000D02*
X59297500Y-54875500D01*
X164846000Y-47371000D02*
X186690000Y-47371000D01*
X186690000Y-47371000D02*
X193802000Y-54483000D01*
X116078000Y-50419000D02*
X161798000Y-50419000D01*
X107529500Y-49998500D02*
X109474000Y-51943000D01*
X45696000Y-54991000D02*
X59182000Y-54991000D01*
X193802000Y-57023000D02*
X193802000Y-54483000D01*
X61022000Y-49998500D02*
X107529500Y-49998500D01*
X161798000Y-50419000D02*
X164846000Y-47371000D01*
X45466000Y-64365000D02*
X40894000Y-59793000D01*
X114554000Y-51943000D02*
X116078000Y-50419000D01*
X59297500Y-54875500D02*
X59297500Y-51723000D01*
X59297500Y-51723000D02*
X61022000Y-49998500D01*
X40894000Y-59793000D02*
X45696000Y-54991000D01*
X196342000Y-54483000D02*
X193802000Y-54483000D01*
D28*
%TO.N,/DSMC*%
X179214700Y-67637700D02*
X179214700Y-59123900D01*
X176678100Y-68347100D02*
X178505300Y-68347100D01*
X186169600Y-48262300D02*
X191957800Y-54050500D01*
X195072000Y-65913000D02*
X196342000Y-67183000D01*
X174244000Y-62103000D02*
X174244000Y-65913000D01*
X176925600Y-48936200D02*
X177599500Y-48262300D01*
X176925600Y-57562300D02*
X176925600Y-48936200D01*
X167640000Y-60833000D02*
X172974000Y-60833000D01*
X178383800Y-58293000D02*
X177656300Y-58293000D01*
X177599500Y-48262300D02*
X186169600Y-48262300D01*
X178505300Y-68347100D02*
X179214700Y-67637700D01*
X191957800Y-64830800D02*
X193040000Y-65913000D01*
X191957800Y-54050500D02*
X191957800Y-64830800D01*
X193040000Y-65913000D02*
X195072000Y-65913000D01*
X179214700Y-59123900D02*
X178383800Y-58293000D01*
X172974000Y-60833000D02*
X174244000Y-62103000D01*
X177656300Y-58293000D02*
X176925600Y-57562300D01*
X174244000Y-65913000D02*
X176678100Y-68347100D01*
X166370000Y-62103000D02*
X167640000Y-60833000D01*
X161798000Y-62103000D02*
X166370000Y-62103000D01*
%TO.N,/A3*%
X132270500Y-110426500D02*
X122174000Y-120523000D01*
X151134800Y-84967800D02*
X151134800Y-81656200D01*
X163322000Y-74803000D02*
X160782000Y-74803000D01*
X134048500Y-110426500D02*
X132270500Y-110426500D01*
X134793258Y-109774258D02*
X134048500Y-110426500D01*
X144272000Y-101473000D02*
X143094516Y-101473000D01*
X143256000Y-92846600D02*
X151134800Y-84967800D01*
X143094516Y-101473000D02*
X134793258Y-109774258D01*
X165354000Y-76835000D02*
X163322000Y-74803000D01*
X155702000Y-77089000D02*
X158496000Y-77089000D01*
X143256000Y-92846600D02*
X143256000Y-93599000D01*
X151134800Y-81656200D02*
X155702000Y-77089000D01*
X158496000Y-77089000D02*
X160782000Y-74803000D01*
%TO.N,/A4*%
X168402000Y-74803000D02*
X167640000Y-74803000D01*
X159103700Y-68584700D02*
X157856400Y-69832000D01*
X147828000Y-70739000D02*
X147322901Y-71244099D01*
X150225700Y-70739000D02*
X147828000Y-70739000D01*
X157711100Y-74547300D02*
X154034000Y-74547300D01*
X145542000Y-102743000D02*
X143637000Y-102743000D01*
X124714000Y-119761000D02*
X124714000Y-120523000D01*
X161421700Y-68584700D02*
X159103700Y-68584700D01*
X157856400Y-74402000D02*
X157711100Y-74547300D01*
X167640000Y-74803000D02*
X161421700Y-68584700D01*
X154034000Y-74547300D02*
X150225700Y-70739000D01*
X143637000Y-102743000D02*
X134747000Y-111633000D01*
X132842000Y-111633000D02*
X124714000Y-119761000D01*
X147322901Y-73276099D02*
X147320000Y-75819000D01*
X147322901Y-71244099D02*
X147322901Y-73276099D01*
X149352000Y-98933000D02*
X145542000Y-102743000D01*
X134747000Y-111633000D02*
X132842000Y-111633000D01*
%TO.N,/A5*%
X122047000Y-116078000D02*
X122047000Y-117348000D01*
X167252000Y-82423000D02*
X165874200Y-83800800D01*
X153543000Y-87630000D02*
X150749000Y-90424000D01*
X144907000Y-98298000D02*
X139827000Y-98298000D01*
X165874200Y-83800800D02*
X159912200Y-83800800D01*
X139827000Y-98298000D02*
X122047000Y-116078000D01*
X156083000Y-87630000D02*
X153543000Y-87630000D01*
X168402000Y-82423000D02*
X167252000Y-82423000D01*
X150749000Y-90424000D02*
X150749000Y-92456000D01*
X150749000Y-92456000D02*
X144907000Y-98298000D01*
X188976000Y-79375000D02*
X186690000Y-79375000D01*
X159912200Y-83800800D02*
X156083000Y-87630000D01*
%TO.N,/A6*%
X169799000Y-73914000D02*
X169799000Y-75946000D01*
X149915400Y-80843600D02*
X154940000Y-75819000D01*
X149915400Y-84933800D02*
X149915400Y-80843600D01*
X158595500Y-75156500D02*
X158595500Y-74098600D01*
X186690000Y-81153000D02*
X188976000Y-81153000D01*
X158595500Y-74098600D02*
X158154900Y-73658000D01*
X167640000Y-73533000D02*
X169418000Y-73533000D01*
X155115300Y-68048500D02*
X162155100Y-68048500D01*
X174752000Y-77343000D02*
X168402000Y-77343000D01*
X162155100Y-68048500D02*
X167583400Y-73476800D01*
X158154900Y-73658000D02*
X154631100Y-73658000D01*
X167583400Y-73476800D02*
X167640000Y-73533000D01*
X157933000Y-75819000D02*
X158595500Y-75156500D01*
X169799000Y-75946000D02*
X168402000Y-77343000D01*
X150622000Y-102743000D02*
X138493500Y-114871500D01*
X169418000Y-73533000D02*
X169799000Y-73914000D01*
X138493500Y-114871500D02*
X135445500Y-114871500D01*
X154517700Y-68646100D02*
X155115300Y-68048500D01*
X154940000Y-75819000D02*
X157933000Y-75819000D01*
X154631100Y-73658000D02*
X154517700Y-73771400D01*
X135445500Y-114871500D02*
X129794000Y-120523000D01*
%TO.N,/A7*%
X158983800Y-96286200D02*
X163081200Y-96286200D01*
X169672000Y-84963000D02*
X170627600Y-84007400D01*
X139192000Y-116078000D02*
X158983800Y-96286200D01*
X177546000Y-81661000D02*
X180509700Y-78697300D01*
X136652000Y-116078000D02*
X139192000Y-116078000D01*
X132207000Y-120523000D02*
X136652000Y-116078000D01*
X170627600Y-84007400D02*
X170627600Y-83064800D01*
X180509700Y-78697300D02*
X180509700Y-67111300D01*
X168402000Y-84963000D02*
X169672000Y-84963000D01*
%TO.N,/A8*%
X173998000Y-93708500D02*
X175015600Y-93708500D01*
X140462000Y-98933000D02*
X146050000Y-98933000D01*
X123952000Y-116713000D02*
X123952000Y-115443000D01*
X152400000Y-92583000D02*
X160782000Y-92583000D01*
X170942000Y-92583000D02*
X169672000Y-93853000D01*
X169672000Y-93853000D02*
X167386000Y-93853000D01*
X175015600Y-93708500D02*
X180428100Y-88296000D01*
X167015800Y-94223200D02*
X164616600Y-94223200D01*
X172944700Y-90031700D02*
X172944700Y-92655200D01*
X167386000Y-93853000D02*
X167015800Y-94223200D01*
X146050000Y-98933000D02*
X152400000Y-92583000D01*
X170942000Y-90043000D02*
X170942000Y-92583000D01*
X172944700Y-92655200D02*
X173998000Y-93708500D01*
X129667000Y-135763000D02*
X129794000Y-126873000D01*
X164616600Y-94223200D02*
X162976400Y-92583000D01*
X172944600Y-90031700D02*
X172944700Y-90031700D01*
X123952000Y-115443000D02*
X140462000Y-98933000D01*
X162976400Y-92583000D02*
X160782000Y-92583000D01*
%TO.N,/A9*%
X170373550Y-126933450D02*
X166176450Y-126933450D01*
X176784000Y-117983000D02*
X176784000Y-123063000D01*
X133440947Y-109129053D02*
X142367000Y-100203000D01*
X161464400Y-129015300D02*
X161464400Y-122729300D01*
X125222000Y-116713000D02*
X125222000Y-116150106D01*
X162235000Y-129785900D02*
X161464400Y-129015300D01*
X163539100Y-93853000D02*
X164809100Y-95123000D01*
X121666000Y-118491000D02*
X123444000Y-118491000D01*
X123444000Y-118491000D02*
X125222000Y-116713000D01*
X181878900Y-118505900D02*
X180594000Y-117221000D01*
X177546000Y-117221000D02*
X176784000Y-117983000D01*
X153162000Y-93853000D02*
X155702000Y-93853000D01*
X180594000Y-117221000D02*
X177546000Y-117221000D01*
X163324000Y-129785900D02*
X162235000Y-129785900D01*
X125222000Y-116150106D02*
X132243053Y-109129053D01*
X155702000Y-93853000D02*
X163539100Y-93853000D01*
X172466000Y-124841000D02*
X170373550Y-126933450D01*
X142367000Y-100203000D02*
X146812000Y-100203000D01*
X181879000Y-132713200D02*
X181878900Y-132713200D01*
X166176450Y-126933450D02*
X163324000Y-129785900D01*
X146812000Y-100203000D02*
X153162000Y-93853000D01*
X181878900Y-132713200D02*
X181878900Y-118505900D01*
X127127000Y-135763000D02*
X127254000Y-126873000D01*
X164809100Y-95123000D02*
X168402000Y-95123000D01*
X120777000Y-119253000D02*
X121666000Y-118491000D01*
X175006000Y-124841000D02*
X172466000Y-124841000D01*
X176784000Y-123063000D02*
X175006000Y-124841000D01*
X132243053Y-109129053D02*
X133440947Y-109129053D01*
%TO.N,/A10*%
X125905800Y-119839200D02*
X125905800Y-122125200D01*
X122174000Y-123063000D02*
X119634000Y-125603000D01*
X155067000Y-95123000D02*
X146177000Y-104013000D01*
X135382000Y-112903000D02*
X132842000Y-112903000D01*
X144272000Y-104013000D02*
X135382000Y-112903000D01*
X179912800Y-93559100D02*
X177078900Y-96393000D01*
X119507000Y-135763000D02*
X119634000Y-126873000D01*
X119634000Y-125603000D02*
X119634000Y-126873000D01*
X164576200Y-96393000D02*
X163306200Y-95123000D01*
X132842000Y-112903000D02*
X125905800Y-119839200D01*
X146177000Y-104013000D02*
X144272000Y-104013000D01*
X125905800Y-122125200D02*
X124968000Y-123063000D01*
X177078900Y-96393000D02*
X164576200Y-96393000D01*
X124968000Y-123063000D02*
X122174000Y-123063000D01*
X160782000Y-95123000D02*
X155067000Y-95123000D01*
X163306200Y-95123000D02*
X160782000Y-95123000D01*
%TO.N,/A11*%
X189498100Y-92386800D02*
X186632200Y-92386800D01*
X157607000Y-98933000D02*
X164592000Y-98933000D01*
X181636700Y-93853000D02*
X176556700Y-98933000D01*
X170942000Y-98933000D02*
X169672000Y-97663000D01*
X169672000Y-97663000D02*
X168402000Y-97663000D01*
X164592000Y-98933000D02*
X165862000Y-97663000D01*
X139192000Y-117348000D02*
X157607000Y-98933000D01*
X185166000Y-93853000D02*
X181636700Y-93853000D01*
X136652000Y-117348000D02*
X139192000Y-117348000D01*
X186632200Y-92386800D02*
X185166000Y-93853000D01*
X176556700Y-98933000D02*
X170942000Y-98933000D01*
X165862000Y-97663000D02*
X168402000Y-97663000D01*
X124587000Y-135763000D02*
X124587000Y-128143000D01*
%TO.N,/A12*%
X134747000Y-120523000D02*
X136588500Y-118681500D01*
X136588500Y-118681500D02*
X139128500Y-118681500D01*
X160782000Y-100203000D02*
X157607000Y-100203000D01*
X176770400Y-101361700D02*
X167527000Y-101361700D01*
X180107000Y-98025100D02*
X176770400Y-101361700D01*
X186466500Y-96663100D02*
X189473500Y-99670100D01*
X157607000Y-100203000D02*
X139128500Y-118681500D01*
X183707500Y-96663100D02*
X186466500Y-96663100D01*
X166368300Y-100203000D02*
X160782000Y-100203000D01*
X167527000Y-101361700D02*
X166368300Y-100203000D01*
%TO.N,/A13*%
X168402000Y-102743000D02*
X172608100Y-102743000D01*
X172608100Y-102743000D02*
X173093200Y-103228100D01*
X175809700Y-103872200D02*
X179892300Y-99789600D01*
X132334000Y-127882700D02*
X132334000Y-135763000D01*
X167252000Y-102743000D02*
X166102100Y-101593100D01*
X179892300Y-99789600D02*
X180106200Y-99789600D01*
X166102100Y-101593100D02*
X157486900Y-101593100D01*
X157486900Y-101593100D02*
X138934850Y-120145150D01*
X167827000Y-102743000D02*
X167252000Y-102743000D01*
X138934850Y-120145150D02*
X138934850Y-121281850D01*
X138934850Y-121281850D02*
X132334000Y-127882700D01*
%TO.N,/A14*%
X134874000Y-128651000D02*
X134874000Y-135763000D01*
X164143800Y-103953200D02*
X174791300Y-103953200D01*
X160782000Y-102743000D02*
X157480000Y-102743000D01*
X162933600Y-102743000D02*
X164143800Y-103953200D01*
X140208000Y-120015000D02*
X140208000Y-121793000D01*
X138684000Y-123317000D02*
X138684000Y-124841000D01*
X140208000Y-121793000D02*
X138684000Y-123317000D01*
X160782000Y-102743000D02*
X162933600Y-102743000D01*
X138684000Y-124841000D02*
X134874000Y-128651000D01*
X181875100Y-111037000D02*
X174791300Y-103953200D01*
X181875100Y-115697000D02*
X181875100Y-111037000D01*
X157480000Y-102743000D02*
X140208000Y-120015000D01*
%TO.N,/A16*%
X185674000Y-123571000D02*
X189230000Y-120015000D01*
X195072000Y-111633000D02*
X196342000Y-110363000D01*
X189230000Y-114935000D02*
X192532000Y-111633000D01*
X189230000Y-120015000D02*
X189230000Y-114935000D01*
X192532000Y-111633000D02*
X195072000Y-111633000D01*
%TO.N,/A17*%
X185674000Y-126111000D02*
X189992000Y-121793000D01*
X184150000Y-110109000D02*
X185674000Y-108585000D01*
X185674000Y-126111000D02*
X184404000Y-126111000D01*
X195072000Y-114173000D02*
X196342000Y-112903000D01*
X185674000Y-97663000D02*
X182118000Y-97663000D01*
X189992000Y-121793000D02*
X189992000Y-116713000D01*
X185674000Y-108585000D02*
X185674000Y-97663000D01*
X184150000Y-125857000D02*
X184150000Y-110109000D01*
X192532000Y-114173000D02*
X195072000Y-114173000D01*
X184404000Y-126111000D02*
X184150000Y-125857000D01*
X189992000Y-116713000D02*
X192532000Y-114173000D01*
%TO.N,/A18*%
X183642000Y-128397000D02*
X183896000Y-128651000D01*
X185166000Y-108331000D02*
X183642000Y-109855000D01*
X196342000Y-115443000D02*
X195072000Y-116713000D01*
X190754000Y-118491000D02*
X190754000Y-123571000D01*
X183896000Y-128651000D02*
X185674000Y-128651000D01*
X182118000Y-100203000D02*
X185166000Y-100203000D01*
X195072000Y-116713000D02*
X192532000Y-116713000D01*
X185166000Y-100203000D02*
X185166000Y-108331000D01*
X192532000Y-116713000D02*
X190754000Y-118491000D01*
X190754000Y-123571000D02*
X185674000Y-128651000D01*
X183642000Y-109855000D02*
X183642000Y-128397000D01*
%TO.N,/A19*%
X187706000Y-131191000D02*
X189230000Y-129667000D01*
X185674000Y-131191000D02*
X187706000Y-131191000D01*
X189230000Y-127127000D02*
X191516000Y-124841000D01*
X185674000Y-131191000D02*
X183642000Y-131191000D01*
X183134000Y-109601000D02*
X184658000Y-108077000D01*
X184658000Y-102997000D02*
X184404000Y-102743000D01*
X192532000Y-119253000D02*
X195072000Y-119253000D01*
X189230000Y-129667000D02*
X189230000Y-127127000D01*
X183134000Y-130683000D02*
X183134000Y-109601000D01*
X195072000Y-119253000D02*
X196342000Y-117983000D01*
X191516000Y-124841000D02*
X191516000Y-120269000D01*
X184658000Y-108077000D02*
X184658000Y-102997000D01*
X191516000Y-120269000D02*
X192532000Y-119253000D01*
X183642000Y-131191000D02*
X183134000Y-130683000D01*
X184404000Y-102743000D02*
X182118000Y-102743000D01*
%TO.N,/D7*%
X70612000Y-74803000D02*
X69342000Y-74803000D01*
X116365200Y-93378100D02*
X126746000Y-82997300D01*
X61214000Y-120523000D02*
X67564000Y-114173000D01*
X126746000Y-75057000D02*
X126497000Y-74808000D01*
X112014000Y-137795000D02*
X109474000Y-140335000D01*
X116365000Y-93218000D02*
X116365200Y-93378100D01*
X71120000Y-83693000D02*
X71120000Y-75311000D01*
X98298000Y-76459000D02*
X96637000Y-74798000D01*
X76200000Y-114173000D02*
X80772000Y-109601000D01*
X62992000Y-140335000D02*
X62357000Y-139573000D01*
X62357000Y-139573000D02*
X62357000Y-124333000D01*
X80772000Y-109601000D02*
X80772000Y-93218000D01*
X61087000Y-123063000D02*
X62357000Y-124333000D01*
X126746000Y-82997300D02*
X126746000Y-75057000D01*
X71120000Y-75311000D02*
X70612000Y-74803000D01*
X126497000Y-74808000D02*
X126497000Y-74798000D01*
X61087000Y-120523000D02*
X61087000Y-123063000D01*
X109474000Y-140335000D02*
X62992000Y-140335000D01*
X126497000Y-74798000D02*
X125222000Y-74798000D01*
X80772000Y-93218000D02*
X71120000Y-83693000D01*
X98298000Y-93218000D02*
X98298000Y-76459000D01*
X67564000Y-114173000D02*
X76200000Y-114173000D01*
%TO.N,/D6*%
X69596000Y-114681000D02*
X63754000Y-120523000D01*
X77724000Y-114681000D02*
X69596000Y-114681000D01*
X128016000Y-72517000D02*
X127767000Y-72268000D01*
X107442000Y-138049000D02*
X109728000Y-138049000D01*
X72390000Y-72263000D02*
X69342000Y-72263000D01*
X127767000Y-72258000D02*
X125222000Y-72258000D01*
X72644000Y-72517000D02*
X72390000Y-72263000D01*
X72644000Y-83947000D02*
X72644000Y-72517000D01*
X128016000Y-83439000D02*
X128016000Y-72517000D01*
X64897000Y-124333000D02*
X64897000Y-138938000D01*
X64897000Y-138938000D02*
X65532000Y-139573000D01*
X63627000Y-123063000D02*
X64897000Y-124333000D01*
X116332000Y-95123000D02*
X128016000Y-83439000D01*
X82042000Y-95123000D02*
X82042000Y-93345000D01*
X99822000Y-75443000D02*
X96637000Y-72258000D01*
X127767000Y-72268000D02*
X127767000Y-72258000D01*
X65532000Y-139573000D02*
X106172000Y-139573000D01*
X63627000Y-120523000D02*
X63627000Y-123063000D01*
X82296000Y-110109000D02*
X77724000Y-114681000D01*
X99822000Y-95123000D02*
X99822000Y-75443000D01*
X106172000Y-139573000D02*
X107442000Y-138049000D01*
X82042000Y-93345000D02*
X72644000Y-83947000D01*
X109728000Y-138049000D02*
X112014000Y-135763000D01*
X82042000Y-95123000D02*
X82296000Y-110109000D01*
%TO.N,/D5*%
X102870000Y-75057000D02*
X103129000Y-74798000D01*
X106934000Y-137287000D02*
X105410000Y-138938000D01*
X75692000Y-74803000D02*
X76962000Y-74803000D01*
X109474000Y-135763000D02*
X107950000Y-137287000D01*
X83566000Y-91059000D02*
X77470000Y-84963000D01*
X66167000Y-123063000D02*
X66167000Y-120523000D01*
X132080000Y-83439000D02*
X132080000Y-81915000D01*
X107950000Y-137287000D02*
X106934000Y-137287000D01*
X75438000Y-79629000D02*
X75438000Y-75057000D01*
X126746000Y-86487000D02*
X129032000Y-86487000D01*
X67437000Y-138303000D02*
X67437000Y-124333000D01*
X67437000Y-124333000D02*
X66167000Y-123063000D01*
X132080000Y-81915000D02*
X131318000Y-81153000D01*
X131318000Y-75057000D02*
X131577000Y-74798000D01*
X77470000Y-84963000D02*
X77470000Y-81661000D01*
X103124000Y-80899000D02*
X102870000Y-80645000D01*
X71374000Y-115443000D02*
X77978000Y-115443000D01*
X102997000Y-97028000D02*
X103124000Y-80899000D01*
X66294000Y-120523000D02*
X71374000Y-115443000D01*
X83566000Y-109855000D02*
X83566000Y-97028000D01*
X116332000Y-97028000D02*
X126746000Y-86487000D01*
X102870000Y-80645000D02*
X102870000Y-75057000D01*
X103129000Y-74798000D02*
X104257000Y-74798000D01*
X77470000Y-81661000D02*
X75438000Y-79629000D01*
X129032000Y-86487000D02*
X132080000Y-83439000D01*
X131318000Y-81153000D02*
X131318000Y-75057000D01*
X77978000Y-115443000D02*
X83566000Y-109855000D01*
X83566000Y-97028000D02*
X83566000Y-91059000D01*
X68072000Y-138938000D02*
X67437000Y-138303000D01*
X131577000Y-74798000D02*
X132842000Y-74798000D01*
X105410000Y-138938000D02*
X68072000Y-138938000D01*
X75438000Y-75057000D02*
X75692000Y-74803000D01*
%TO.N,/D4*%
X72517000Y-116713000D02*
X78867000Y-116713000D01*
X126746000Y-88519000D02*
X128524000Y-88519000D01*
X116332000Y-98933000D02*
X126746000Y-88519000D01*
X78486000Y-84201000D02*
X78486000Y-80645000D01*
X68707000Y-120523000D02*
X68707000Y-122936000D01*
X132842000Y-84201000D02*
X132842000Y-77338000D01*
X78867000Y-116713000D02*
X85217000Y-110363000D01*
X68707000Y-122936000D02*
X68834000Y-123063000D01*
X85217000Y-98933000D02*
X85217000Y-90932000D01*
X68707000Y-120523000D02*
X72517000Y-116713000D01*
X69977000Y-124333000D02*
X69977000Y-137668000D01*
X85217000Y-110363000D02*
X85217000Y-98933000D01*
X76962000Y-79121000D02*
X76962000Y-77343000D01*
X68834000Y-123063000D02*
X69977000Y-124333000D01*
X69977000Y-137668000D02*
X70612000Y-138303000D01*
X104257000Y-97800000D02*
X104257000Y-77338000D01*
X78486000Y-80645000D02*
X76962000Y-79121000D01*
X128524000Y-88519000D02*
X132842000Y-84201000D01*
X104902000Y-138303000D02*
X106934000Y-135763000D01*
X85217000Y-90932000D02*
X78486000Y-84201000D01*
X70612000Y-138303000D02*
X104902000Y-138303000D01*
X102997000Y-98933000D02*
X104257000Y-97800000D01*
%TO.N,/D3*%
X108966000Y-98171000D02*
X108966000Y-75057000D01*
X102362000Y-137668000D02*
X73152000Y-137668000D01*
X108966000Y-75057000D02*
X108712000Y-74803000D01*
X105537000Y-101473000D02*
X108966000Y-98171000D01*
X105537000Y-133223000D02*
X105537000Y-101473000D01*
X104267000Y-135763000D02*
X102362000Y-137668000D01*
X137414000Y-83693000D02*
X137414000Y-75057000D01*
X82042000Y-75057000D02*
X81788000Y-74803000D01*
X55372000Y-128143000D02*
X51562000Y-131953000D01*
X86487000Y-101473000D02*
X86487000Y-88900000D01*
X128270000Y-89535000D02*
X131572000Y-89535000D01*
X55372000Y-127508000D02*
X55372000Y-128143000D01*
X116332000Y-101473000D02*
X128270000Y-89535000D01*
X72517000Y-124333000D02*
X71247000Y-123063000D01*
X72517000Y-137033000D02*
X72517000Y-124333000D01*
X137160000Y-74803000D02*
X135890000Y-74803000D01*
X73152000Y-137668000D02*
X72517000Y-137033000D01*
X58547000Y-124333000D02*
X55372000Y-127508000D01*
X104267000Y-134493000D02*
X105537000Y-133223000D01*
X104267000Y-135763000D02*
X104267000Y-134493000D01*
X81788000Y-74803000D02*
X80010000Y-74803000D01*
X137414000Y-75057000D02*
X137160000Y-74803000D01*
X131572000Y-89535000D02*
X137414000Y-83693000D01*
X82042000Y-84455000D02*
X82042000Y-75057000D01*
X108712000Y-74803000D02*
X107178000Y-74803000D01*
X71247000Y-123063000D02*
X71247000Y-120523000D01*
X86487000Y-88900000D02*
X82042000Y-84455000D01*
%TO.N,/A2*%
X136906000Y-113919000D02*
X133858000Y-113919000D01*
X160634500Y-61163200D02*
X160634500Y-64907500D01*
X128397000Y-119253000D02*
X128397000Y-121539000D01*
X144526000Y-92370600D02*
X152039800Y-84856800D01*
X172212000Y-58240600D02*
X163557100Y-58240600D01*
X128397000Y-121539000D02*
X124714000Y-125349000D01*
X160634500Y-64907500D02*
X162196800Y-66469800D01*
X161548900Y-78613000D02*
X155702000Y-78613000D01*
X124714000Y-125349000D02*
X122174000Y-125349000D01*
X155702000Y-78613000D02*
X152039800Y-82275200D01*
X145542000Y-105283000D02*
X136906000Y-113919000D01*
X163557100Y-58240600D02*
X160634500Y-61163200D01*
X144526000Y-92370600D02*
X144526000Y-93599000D01*
X133858000Y-113919000D02*
X128397000Y-119253000D01*
X152039800Y-82275200D02*
X152039800Y-84856800D01*
%TO.N,/A1*%
X144272000Y-95123000D02*
X148082000Y-91313000D01*
X135382000Y-95123000D02*
X144272000Y-95123000D01*
X158242000Y-79883000D02*
X160782000Y-79883000D01*
X148082000Y-91313000D02*
X148082000Y-90043000D01*
X165415700Y-55626000D02*
X156839500Y-64202200D01*
X90297000Y-116078000D02*
X85852000Y-116078000D01*
X192362200Y-73363200D02*
X193802000Y-74803000D01*
X92202000Y-117983000D02*
X90297000Y-116078000D01*
X192362200Y-68622800D02*
X192362200Y-73363200D01*
X85852000Y-116078000D02*
X81407000Y-120523000D01*
X174244000Y-55626000D02*
X165415700Y-55626000D01*
X113157000Y-117348000D02*
X135382000Y-95123000D01*
X189484000Y-63373000D02*
X189484000Y-65744600D01*
X95377000Y-117983000D02*
X92202000Y-117983000D01*
X189484000Y-65744600D02*
X192362200Y-68622800D01*
X148082000Y-90043000D02*
X158242000Y-79883000D01*
%TO.N,/A0*%
X148844000Y-91821000D02*
X148844000Y-90297000D01*
X87122000Y-116713000D02*
X83947000Y-119888000D01*
X95377000Y-119253000D02*
X91567000Y-119253000D01*
X89027000Y-116713000D02*
X87122000Y-116713000D01*
X114427000Y-120523000D02*
X114427000Y-117983000D01*
X91567000Y-119253000D02*
X89027000Y-116713000D01*
X114427000Y-117983000D02*
X136017000Y-96393000D01*
X83947000Y-119888000D02*
X83947000Y-120523000D01*
X164846000Y-82423000D02*
X166116000Y-81153000D01*
X136017000Y-96393000D02*
X144272000Y-96393000D01*
X144272000Y-96393000D02*
X148844000Y-91821000D01*
X188976000Y-77597000D02*
X186690000Y-77597000D01*
X156718000Y-82423000D02*
X160782000Y-82423000D01*
X160782000Y-82423000D02*
X164846000Y-82423000D01*
X148844000Y-90297000D02*
X156718000Y-82423000D01*
%TO.N,/RESET*%
X58547000Y-120523000D02*
X59944000Y-121920000D01*
X66040000Y-113157000D02*
X71628000Y-113157000D01*
X54102000Y-133223000D02*
X59944000Y-127381000D01*
X162560000Y-60325000D02*
X170434000Y-60325000D01*
X191117400Y-110522100D02*
X191117400Y-105783100D01*
X187452000Y-63373000D02*
X187452000Y-65913000D01*
X191117400Y-105783100D02*
X191617500Y-105283000D01*
X193802000Y-105283000D02*
X191617500Y-105283000D01*
X187783700Y-116381300D02*
X187783700Y-113855800D01*
X170942000Y-59817000D02*
X170434000Y-60325000D01*
X149860000Y-90297000D02*
X149860000Y-92075000D01*
X185674000Y-118491000D02*
X187783700Y-116381300D01*
X74422000Y-110363000D02*
X76962000Y-110363000D01*
X51562000Y-139573000D02*
X53467000Y-139573000D01*
X187452000Y-65913000D02*
X191262000Y-69723000D01*
X54102000Y-138938000D02*
X54102000Y-133223000D01*
X191262000Y-105283000D02*
X191617500Y-105283000D01*
X59944000Y-127381000D02*
X59944000Y-121920000D01*
X125904014Y-107870014D02*
X123317000Y-110363000D01*
X149860000Y-92075000D02*
X144272000Y-97663000D01*
X58674000Y-120523000D02*
X66040000Y-113157000D01*
X136111028Y-97663000D02*
X125904014Y-107870014D01*
X53467000Y-139573000D02*
X54102000Y-138938000D01*
X156464000Y-83693000D02*
X149860000Y-90297000D01*
X187783700Y-113855800D02*
X191117400Y-110522100D01*
X157988000Y-83693000D02*
X156464000Y-83693000D01*
X71628000Y-113157000D02*
X74422000Y-110363000D01*
X191262000Y-69723000D02*
X191262000Y-105283000D01*
X144272000Y-97663000D02*
X136111028Y-97663000D01*
X174244000Y-59817000D02*
X170942000Y-59817000D01*
%TO.N,/A15*%
X191617500Y-110007500D02*
X193802000Y-107823000D01*
X188460700Y-114755600D02*
X191617500Y-111598800D01*
X185674000Y-121031000D02*
X188460700Y-118244300D01*
X188460700Y-118244300D02*
X188460700Y-114755600D01*
X191617500Y-111598800D02*
X191617500Y-110007500D01*
%TO.N,/RW*%
X143510000Y-72263000D02*
X145034000Y-72263000D01*
X151892000Y-113411000D02*
X155194000Y-113411000D01*
X86487000Y-119253000D02*
X86487000Y-120523000D01*
X87757000Y-117983000D02*
X86487000Y-119253000D01*
X148844000Y-116459000D02*
X151892000Y-113411000D01*
X145288000Y-72517000D02*
X145288000Y-79121000D01*
X145034000Y-72263000D02*
X145288000Y-72517000D01*
%TO.N,/DS*%
X182626000Y-133477000D02*
X182880000Y-133731000D01*
X192405000Y-121920000D02*
X193802000Y-120523000D01*
X185674000Y-133731000D02*
X187198000Y-133731000D01*
X182118000Y-95123000D02*
X180848000Y-96393000D01*
X189992000Y-130937000D02*
X189992000Y-127889000D01*
X180848000Y-107315000D02*
X182626000Y-109093000D01*
X192405000Y-125476000D02*
X192405000Y-121920000D01*
X182880000Y-133731000D02*
X185674000Y-133731000D01*
X189992000Y-127889000D02*
X192405000Y-125476000D01*
X180848000Y-96393000D02*
X180848000Y-107315000D01*
X187198000Y-133731000D02*
X189992000Y-130937000D01*
X182626000Y-109093000D02*
X182626000Y-133477000D01*
%TO.N,/D0*%
X118237000Y-138938000D02*
X118364000Y-126873000D01*
X53784500Y-127190500D02*
X51562000Y-129413000D01*
X112014000Y-107823000D02*
X111887000Y-107950000D01*
X190754000Y-133477000D02*
X183642000Y-140208000D01*
X90297000Y-107823000D02*
X90170000Y-108197000D01*
X119507000Y-140208000D02*
X118237000Y-138938000D01*
X58674000Y-123063000D02*
X56642000Y-123063000D01*
X112014000Y-91567000D02*
X114798000Y-88783000D01*
X78994000Y-119373000D02*
X78994000Y-120523000D01*
X120396000Y-107823000D02*
X143510000Y-84709000D01*
X183642000Y-140208000D02*
X119507000Y-140208000D01*
X111887000Y-107950000D02*
X111887000Y-120523000D01*
X193802000Y-125603000D02*
X190754000Y-128651000D01*
X114798000Y-88783000D02*
X114798000Y-77343000D01*
X112014000Y-107823000D02*
X112014000Y-91567000D01*
X90170000Y-108197000D02*
X78994000Y-119373000D01*
X90297000Y-107823000D02*
X90297000Y-80010000D01*
X190754000Y-128651000D02*
X190754000Y-133477000D01*
X143510000Y-84709000D02*
X143510000Y-77343000D01*
X118364000Y-126873000D02*
X111887000Y-120523000D01*
X56642000Y-123063000D02*
X53784500Y-125920500D01*
X53784500Y-125920500D02*
X53784500Y-127190500D01*
X112014000Y-107823000D02*
X120396000Y-107823000D01*
X90297000Y-80010000D02*
X87630000Y-77343000D01*
%TO.N,/D1*%
X79502000Y-121793000D02*
X77597000Y-121793000D01*
X46990000Y-123571000D02*
X51943000Y-118618000D01*
X91567000Y-105918000D02*
X91567000Y-108025778D01*
X43942000Y-131953000D02*
X46990000Y-128905000D01*
X117094000Y-140843000D02*
X115824000Y-139573000D01*
X142748000Y-83439000D02*
X142748000Y-81915000D01*
X91567000Y-105918000D02*
X91567000Y-78740000D01*
X113792000Y-87503000D02*
X113792000Y-80645000D01*
X80137000Y-121158000D02*
X79502000Y-121793000D01*
X184277000Y-140843000D02*
X117094000Y-140843000D01*
X59182000Y-118618000D02*
X51943000Y-118618000D01*
X113792000Y-80645000D02*
X113284000Y-80137000D01*
X91567000Y-78740000D02*
X87630000Y-74803000D01*
X60452000Y-117348000D02*
X59182000Y-118618000D01*
X110744000Y-104775000D02*
X110744000Y-90551000D01*
X142240000Y-74803000D02*
X143510000Y-74803000D01*
X113538000Y-74803000D02*
X114798000Y-74803000D01*
X134620000Y-91567000D02*
X142748000Y-83439000D01*
X109347000Y-105918000D02*
X110744000Y-104775000D01*
X91567000Y-108025778D02*
X80137000Y-119455778D01*
X141986000Y-75057000D02*
X142240000Y-74803000D01*
X191516000Y-133731000D02*
X184277000Y-140843000D01*
X191516000Y-130429000D02*
X191516000Y-133731000D01*
X130556000Y-91567000D02*
X134620000Y-91567000D01*
X116332000Y-105918000D02*
X130556000Y-91567000D01*
X46990000Y-128905000D02*
X46990000Y-123571000D01*
X80137000Y-119455778D02*
X80137000Y-121158000D01*
X115824000Y-139573000D02*
X115824000Y-126873000D01*
X109347000Y-105918000D02*
X109347000Y-120523000D01*
X193802000Y-128143000D02*
X191516000Y-130429000D01*
X77597000Y-121793000D02*
X76454000Y-120523000D01*
X113284000Y-80137000D02*
X113284000Y-75057000D01*
X110744000Y-90551000D02*
X113792000Y-87503000D01*
X142748000Y-81915000D02*
X141986000Y-81153000D01*
X113284000Y-75057000D02*
X113538000Y-74803000D01*
X76327000Y-120523000D02*
X77597000Y-121793000D01*
X115824000Y-126873000D02*
X109347000Y-120523000D01*
X141986000Y-81153000D02*
X141986000Y-75057000D01*
%TO.N,/D2*%
X129286000Y-90551000D02*
X133350000Y-90551000D01*
X88392000Y-89027000D02*
X83312000Y-83947000D01*
X114427000Y-141478000D02*
X113157000Y-140208000D01*
X83312000Y-83947000D02*
X83312000Y-72517000D01*
X78867000Y-117983000D02*
X88392000Y-108458000D01*
X193802000Y-130683000D02*
X192278000Y-132207000D01*
X184912000Y-141478000D02*
X114427000Y-141478000D01*
X73787000Y-120523000D02*
X76327000Y-117983000D01*
X138684000Y-72517000D02*
X138430000Y-72263000D01*
X109728000Y-72263000D02*
X107178000Y-72263000D01*
X192278000Y-133985000D02*
X184912000Y-141478000D01*
X45720000Y-123317000D02*
X45720000Y-127635000D01*
X106807000Y-103378000D02*
X109982000Y-100457000D01*
X76327000Y-117983000D02*
X78867000Y-117983000D01*
X45720000Y-127635000D02*
X43942000Y-129413000D01*
X58547000Y-117348000D02*
X51689000Y-117348000D01*
X116332000Y-103378000D02*
X129286000Y-90551000D01*
X138684000Y-85217000D02*
X138684000Y-72517000D01*
X83058000Y-72263000D02*
X80010000Y-72263000D01*
X192278000Y-132207000D02*
X192278000Y-133985000D01*
X109982000Y-100457000D02*
X109982000Y-72517000D01*
X133350000Y-90551000D02*
X138684000Y-85217000D01*
X83312000Y-72517000D02*
X83058000Y-72263000D01*
X51689000Y-117348000D02*
X45720000Y-123317000D01*
X113157000Y-140208000D02*
X113157000Y-126873000D01*
X138430000Y-72263000D02*
X135890000Y-72263000D01*
X106807000Y-103378000D02*
X106807000Y-120523000D01*
X88392000Y-103378000D02*
X88392000Y-89027000D01*
X109982000Y-72517000D02*
X109728000Y-72263000D01*
X113157000Y-126873000D02*
X106807000Y-120523000D01*
X88392000Y-108458000D02*
X88392000Y-103378000D01*
%TO.N,Net-(C2-Pad2)*%
X159746600Y-114681000D02*
X152265200Y-114681000D01*
X165354000Y-113411000D02*
X171450000Y-113411000D01*
X165354000Y-113411000D02*
X164210200Y-112267200D01*
X152265200Y-114681000D02*
X145915200Y-121031000D01*
X162160400Y-112267200D02*
X159746600Y-114681000D01*
X171450000Y-113411000D02*
X173990000Y-110871000D01*
X145915200Y-121031000D02*
X142494000Y-121031000D01*
X162160400Y-112267200D02*
X164210200Y-112267200D01*
%TO.N,/FDC_IP*%
X55880000Y-112141000D02*
X54356000Y-110617000D01*
X50800000Y-108077000D02*
X53340000Y-108077000D01*
X58420000Y-112141000D02*
X59690000Y-110871000D01*
X55880000Y-112141000D02*
X58420000Y-112141000D01*
X78867000Y-129413000D02*
X78867000Y-135763000D01*
X49530000Y-106807000D02*
X50800000Y-108077000D01*
X54356000Y-109093000D02*
X54356000Y-110617000D01*
X53340000Y-108077000D02*
X54356000Y-109093000D01*
%TO.N,/DS2*%
X64770000Y-86487000D02*
X63203900Y-86487000D01*
X54313900Y-77597000D02*
X48260000Y-77597000D01*
X46990000Y-78867000D02*
X46990000Y-96647000D01*
X74930000Y-92583000D02*
X68834000Y-86487000D01*
X68834000Y-86487000D02*
X64770000Y-86487000D01*
X76962000Y-97663000D02*
X75184000Y-97663000D01*
X74930000Y-97409000D02*
X74930000Y-92583000D01*
X63203900Y-86487000D02*
X54313900Y-77597000D01*
X48260000Y-77597000D02*
X46990000Y-78867000D01*
X75184000Y-97663000D02*
X74930000Y-97409000D01*
X46990000Y-96647000D02*
X49530000Y-99187000D01*
%TO.N,/DIR*%
X60346000Y-115603600D02*
X65078600Y-110871000D01*
X60346000Y-115603600D02*
X47322800Y-115603600D01*
X47322800Y-115603600D02*
X44873900Y-118052500D01*
X65078600Y-110871000D02*
X66802000Y-110871000D01*
%TO.N,/STEP*%
X57277000Y-106553000D02*
X60452000Y-106553000D01*
X50800000Y-92837000D02*
X49530000Y-91567000D01*
X57277000Y-106553000D02*
X54102000Y-103378000D01*
X53086000Y-92837000D02*
X50800000Y-92837000D01*
X73787000Y-117983000D02*
X72517000Y-119253000D01*
X54102000Y-103378000D02*
X54102000Y-93853000D01*
X90419000Y-123063000D02*
X92954000Y-120528000D01*
X72517000Y-119253000D02*
X72517000Y-121793000D01*
X73787000Y-123063000D02*
X90419000Y-123063000D01*
X54102000Y-93853000D02*
X53086000Y-92837000D01*
X72517000Y-121793000D02*
X73787000Y-123063000D01*
%TO.N,/DATA_WR*%
X50895489Y-90392489D02*
X49530000Y-89027000D01*
X53435489Y-90392489D02*
X50895489Y-90392489D01*
X57277000Y-104648000D02*
X54864000Y-102235000D01*
X54864000Y-91821000D02*
X53435489Y-90392489D01*
X60452000Y-104648000D02*
X57277000Y-104648000D01*
X54864000Y-102235000D02*
X54864000Y-91821000D01*
%TO.N,/GATE_WR*%
X53689489Y-87852489D02*
X50895489Y-87852489D01*
X55372000Y-101473000D02*
X55372000Y-89535000D01*
X55372000Y-89535000D02*
X53689489Y-87852489D01*
X57277000Y-103378000D02*
X55372000Y-101473000D01*
X60452000Y-103378000D02*
X57277000Y-103378000D01*
X50895489Y-87852489D02*
X49530000Y-86487000D01*
%TO.N,/FDC_T0*%
X53943500Y-85312500D02*
X56642000Y-88011000D01*
X50895500Y-85312500D02*
X53943500Y-85312500D01*
X76327000Y-129413000D02*
X76327000Y-135763000D01*
X49530000Y-83947000D02*
X50895500Y-85312500D01*
%TO.N,Net-(C4-Pad2)*%
X162814000Y-121031000D02*
X161902300Y-121031000D01*
X168910000Y-121539000D02*
X165354000Y-125095000D01*
X174418000Y-123571000D02*
X173228000Y-123571000D01*
X154282300Y-128651000D02*
X152614000Y-128651000D01*
X165354000Y-125095000D02*
X165354000Y-126111000D01*
X161902300Y-121031000D02*
X154282300Y-128651000D01*
X173228000Y-123571000D02*
X171196000Y-121539000D01*
X171196000Y-121539000D02*
X168910000Y-121539000D01*
%TO.N,/FDCON_CS*%
X178054000Y-126111000D02*
X176784000Y-127381000D01*
X175260000Y-127381000D02*
X171450100Y-131190900D01*
X171450100Y-131190900D02*
X166504000Y-131190900D01*
X166504000Y-131191000D02*
X165354000Y-131191000D01*
X166504000Y-131190900D02*
X166504000Y-131191000D01*
X176784000Y-127381000D02*
X175260000Y-127381000D01*
%TO.N,/DS0*%
X44186000Y-134747000D02*
X43017300Y-133578300D01*
X42672000Y-133223000D02*
X42672000Y-118237000D01*
X47498000Y-113411000D02*
X47498000Y-106299000D01*
X42672000Y-118237000D02*
X47498000Y-113411000D01*
X47498000Y-106299000D02*
X49530000Y-104267000D01*
X43942000Y-134493000D02*
X42672000Y-133223000D01*
%TO.N,/CLK*%
X63627000Y-131953000D02*
X63627000Y-135763000D01*
X153162000Y-115951000D02*
X146725600Y-122387400D01*
X146725600Y-122387400D02*
X147995600Y-122387400D01*
X149179200Y-123571000D02*
X147995600Y-122387400D01*
X155194000Y-115951000D02*
X153162000Y-115951000D01*
X142038800Y-122387400D02*
X146725600Y-122387400D01*
X142494000Y-131191000D02*
X140855300Y-129552300D01*
X152654000Y-123571000D02*
X149179200Y-123571000D01*
X140855300Y-129552300D02*
X140855300Y-123570900D01*
X140855300Y-123570900D02*
X142038800Y-122387400D01*
%TO.N,/DTACKL*%
X188214000Y-72263000D02*
X190246000Y-74295000D01*
X190246000Y-74295000D02*
X190246000Y-110363000D01*
%TO.N,Net-(C3-Pad1)*%
X163964000Y-115951000D02*
X165097600Y-117084600D01*
X162814000Y-115951000D02*
X163964000Y-115951000D01*
X172776400Y-117084600D02*
X173910000Y-115951000D01*
X165097600Y-117084600D02*
X172776400Y-117084600D01*
%TO.N,Net-(C5-Pad1)*%
X157734000Y-133731000D02*
X162814000Y-133731000D01*
X155194000Y-131191000D02*
X157734000Y-133731000D01*
%TO.N,Net-(D1-Pad2)*%
X173482000Y-76327000D02*
X173482000Y-67945000D01*
X173482000Y-67945000D02*
X171958000Y-66421000D01*
X171958000Y-66421000D02*
X171958000Y-62103000D01*
%TO.N,Net-(D2-Pad1)*%
X172720000Y-88773000D02*
X172212000Y-89281000D01*
X172212000Y-94361000D02*
X172974000Y-95123000D01*
X176022000Y-71755000D02*
X176022000Y-88519000D01*
X176022000Y-88519000D02*
X175768000Y-88773000D01*
X172212000Y-89281000D02*
X172212000Y-94361000D01*
X175768000Y-88773000D02*
X172720000Y-88773000D01*
X172974000Y-95123000D02*
X174498000Y-95123000D01*
X178054000Y-69723000D02*
X176022000Y-71755000D01*
%TO.N,Net-(D3-Pad1)*%
X176530000Y-89789000D02*
X176276000Y-90043000D01*
X176276000Y-90043000D02*
X174498000Y-90043000D01*
X178054000Y-72263000D02*
X176530000Y-73787000D01*
X176530000Y-73787000D02*
X176530000Y-89789000D01*
%TO.N,/GAL2_P9*%
X162814000Y-113411000D02*
X163939100Y-114536100D01*
X174364000Y-113411000D02*
X175189500Y-113411000D01*
X182118000Y-84963000D02*
X183267900Y-86112900D01*
X163939100Y-114536100D02*
X173238900Y-114536100D01*
X182880000Y-88773000D02*
X181663900Y-88773000D01*
X173238900Y-114536100D02*
X174364000Y-113411000D01*
X175514000Y-110617000D02*
X175514000Y-113411000D01*
X183267900Y-88385100D02*
X182880000Y-88773000D01*
X183267900Y-86112900D02*
X183267900Y-88385100D01*
X181663900Y-88773000D02*
X177878200Y-92558700D01*
%TO.N,/GAL2_P15*%
X165354000Y-121031000D02*
X162814000Y-118491000D01*
%TO.N,/CS175*%
X175006000Y-128651000D02*
X169926000Y-133731000D01*
X71247000Y-112178500D02*
X71247000Y-111252000D01*
X71247000Y-112178500D02*
X65494500Y-112178500D01*
X49276000Y-116459000D02*
X61214000Y-116459000D01*
X98552000Y-121158000D02*
X98552000Y-117983000D01*
X169926000Y-133731000D02*
X165354000Y-133731000D01*
X71882000Y-93091000D02*
X71374000Y-92583000D01*
X65494500Y-112178500D02*
X61214000Y-116459000D01*
X43942000Y-121793000D02*
X49276000Y-116459000D01*
X104267000Y-123063000D02*
X102833800Y-121793000D01*
X71374000Y-92583000D02*
X69342000Y-92583000D01*
X178054000Y-128651000D02*
X175006000Y-128651000D01*
X102833800Y-121793000D02*
X99187000Y-121793000D01*
X71247000Y-111252000D02*
X71882000Y-110617000D01*
X71882000Y-110617000D02*
X71882000Y-93091000D01*
X99187000Y-121793000D02*
X98552000Y-121158000D01*
X98552000Y-117983000D02*
X100457000Y-116078000D01*
%TO.N,/ROM_CE*%
X171234500Y-136271000D02*
X175044500Y-132461000D01*
X120777000Y-133383700D02*
X120777000Y-137668000D01*
X179235900Y-137916500D02*
X179235900Y-132655200D01*
X178079600Y-139072800D02*
X179235900Y-137916500D01*
X122047000Y-139072800D02*
X178079600Y-139072800D01*
X176784000Y-132461000D02*
X175044500Y-132461000D01*
X171234500Y-136271000D02*
X165354000Y-136271000D01*
X179235900Y-132655200D02*
X177771700Y-131191000D01*
X120777000Y-137668000D02*
X122047000Y-139072800D01*
X178054000Y-131191000D02*
X176784000Y-132461000D01*
D27*
%TO.N,+5V*%
X170632800Y-109148200D02*
X163457200Y-109148200D01*
X100965000Y-113411000D02*
X99187000Y-113411000D01*
X100965000Y-113665000D02*
X101647000Y-112983000D01*
X130222000Y-54403000D02*
X130222000Y-52023000D01*
X163068000Y-138303000D02*
X177800000Y-138303000D01*
X137287000Y-135763000D02*
X137287000Y-137541000D01*
X54610000Y-70739000D02*
X56642000Y-72771000D01*
X140890000Y-82931000D02*
X140890000Y-54055000D01*
X149098000Y-51943000D02*
X140970000Y-51943000D01*
X137287000Y-137541000D02*
X137922000Y-138303000D01*
X87630000Y-54483000D02*
X85090000Y-54483000D01*
X178054000Y-67183000D02*
X175514000Y-64643000D01*
X143510000Y-54483000D02*
X141318000Y-54483000D01*
X141318000Y-54483000D02*
X140890000Y-54055000D01*
X160571300Y-120733700D02*
X160571300Y-116547700D01*
X97282000Y-117348000D02*
X97282000Y-121539000D01*
X140970000Y-51943000D02*
X130302000Y-51943000D01*
X120258000Y-54627000D02*
X120258000Y-52335500D01*
X148982000Y-52058500D02*
X149098000Y-51943000D01*
X112442000Y-82931000D02*
X112442000Y-54563000D01*
X56642000Y-77851000D02*
X59690000Y-77851000D01*
X112442000Y-54563000D02*
X112522000Y-54483000D01*
X163457200Y-109148200D02*
X162132000Y-107823000D01*
X98298000Y-122555000D02*
X98298000Y-128148000D01*
X101647000Y-82931000D02*
X101647000Y-112983000D01*
X85090000Y-54483000D02*
X85010000Y-54403000D01*
X109474000Y-54483000D02*
X112522000Y-54483000D01*
X101647000Y-82931000D02*
X101647000Y-51804000D01*
X104257000Y-54478000D02*
X101849000Y-54478000D01*
X140890000Y-54055000D02*
X140890000Y-52023000D01*
X177800000Y-138303000D02*
X178054000Y-138049000D01*
X147534000Y-138089000D02*
X147320000Y-138303000D01*
X97282000Y-117348000D02*
X100965000Y-113665000D01*
X92954000Y-128148000D02*
X98298000Y-128148000D01*
X130297000Y-54478000D02*
X130222000Y-54403000D01*
X148982000Y-53270700D02*
X148982000Y-52058500D01*
X130222000Y-82931000D02*
X130222000Y-54403000D01*
X161798000Y-51943000D02*
X161798000Y-53467000D01*
X76962000Y-54483000D02*
X74422000Y-54483000D01*
X101566000Y-51723000D02*
X106714000Y-51723000D01*
X45466000Y-70739000D02*
X54610000Y-70739000D01*
X100965000Y-113665000D02*
X100965000Y-113411000D01*
X147320000Y-138303000D02*
X163068000Y-138303000D01*
X56642000Y-100711000D02*
X59690000Y-100711000D01*
X50546000Y-66675000D02*
X54610000Y-70739000D01*
X174498000Y-105283000D02*
X170632800Y-109148200D01*
X148982000Y-54483000D02*
X148982000Y-53270700D01*
X74422000Y-54483000D02*
X74342000Y-54403000D01*
X112522000Y-54483000D02*
X114798000Y-54483000D01*
X132842000Y-54478000D02*
X130297000Y-54478000D01*
X130222000Y-52023000D02*
X130302000Y-51943000D01*
X91914000Y-51723000D02*
X101566000Y-51723000D01*
X56642000Y-72771000D02*
X56642000Y-77851000D01*
X85010000Y-82931000D02*
X85010000Y-54403000D01*
X155194000Y-126111000D02*
X160571300Y-120733700D01*
X50546000Y-64793000D02*
X50546000Y-66675000D01*
X147534000Y-136271000D02*
X147534000Y-138089000D01*
X161798000Y-51943000D02*
X149098000Y-51943000D01*
X101849000Y-54478000D02*
X101774000Y-54403000D01*
X98298000Y-135763000D02*
X98303000Y-135768000D01*
X74342000Y-82931000D02*
X74342000Y-54403000D01*
X175514000Y-51943000D02*
X161798000Y-51943000D01*
X60118000Y-59643000D02*
X64885500Y-54875500D01*
X178054000Y-138049000D02*
X178054000Y-133731000D01*
X162814000Y-138049000D02*
X163068000Y-138303000D01*
X41402000Y-139573000D02*
X41402000Y-117475000D01*
X98303000Y-135768000D02*
X92954000Y-135768000D01*
X64885500Y-51723000D02*
X74710000Y-51723000D01*
X97282000Y-121539000D02*
X98298000Y-122555000D01*
X92086500Y-54483000D02*
X92086500Y-51895500D01*
X64885500Y-54875500D02*
X64885500Y-51723000D01*
X74710000Y-51723000D02*
X85310000Y-51723000D01*
X120650000Y-51943000D02*
X130302000Y-51943000D01*
X85310000Y-51723000D02*
X91914000Y-51723000D01*
X41402000Y-139573000D02*
X43942000Y-139573000D01*
X98298000Y-128148000D02*
X98298000Y-135763000D01*
X162132000Y-107823000D02*
X160782000Y-107823000D01*
X148982000Y-53270700D02*
X148982500Y-53271200D01*
X50546000Y-64215000D02*
X55118000Y-59643000D01*
X85010000Y-52023000D02*
X85310000Y-51723000D01*
X137922000Y-138303000D02*
X147320000Y-138303000D01*
X162814000Y-136271000D02*
X162814000Y-138049000D01*
X106714000Y-51723000D02*
X109474000Y-54483000D01*
X74342000Y-52091000D02*
X74710000Y-51723000D01*
X114798000Y-54483000D02*
X120114000Y-54483000D01*
X140890000Y-52023000D02*
X140970000Y-51943000D01*
X55118000Y-59643000D02*
X60118000Y-59643000D01*
X120258000Y-52335500D02*
X120650000Y-51943000D01*
X41402000Y-117475000D02*
X45466000Y-113411000D01*
X175514000Y-64643000D02*
X175514000Y-51943000D01*
X74342000Y-54403000D02*
X74342000Y-52091000D01*
X92086500Y-51895500D02*
X91914000Y-51723000D01*
X56007000Y-140335000D02*
X56007000Y-135763000D01*
X100574000Y-135768000D02*
X98303000Y-135768000D01*
X85010000Y-54403000D02*
X85010000Y-52023000D01*
X148982500Y-53271200D02*
X148982500Y-54483000D01*
X45466000Y-113411000D02*
X45466000Y-70739000D01*
D28*
%TO.N,/MUX*%
X163939100Y-127485900D02*
X163939100Y-125747900D01*
X165862000Y-123571000D02*
X162814000Y-123571000D01*
X173990000Y-118237000D02*
X171196000Y-118237000D01*
X163939100Y-124696100D02*
X162814000Y-123571000D01*
X171196000Y-118237000D02*
X165862000Y-123571000D01*
X163939100Y-127054600D02*
X163939100Y-125747900D01*
X162774000Y-128651000D02*
X163939100Y-127485900D01*
X163939100Y-125747900D02*
X163939100Y-124696100D01*
X176784000Y-112141000D02*
X176784000Y-115443000D01*
X176784000Y-115443000D02*
X173990000Y-118237000D01*
X178054000Y-110871000D02*
X176784000Y-112141000D01*
X163939100Y-127485900D02*
X163939100Y-127054600D01*
%TO.N,/CLKCT*%
X180086000Y-118491000D02*
X181102000Y-119507000D01*
X179324000Y-75057000D02*
X179716800Y-74664200D01*
X155074000Y-135001000D02*
X153804000Y-133731000D01*
X153804000Y-133731000D02*
X152654000Y-133731000D01*
X179716800Y-74664200D02*
X179716800Y-53605800D01*
X181102000Y-119507000D02*
X181102000Y-127889000D01*
X179324000Y-78613000D02*
X179324000Y-75057000D01*
X179716800Y-53605800D02*
X178054000Y-51943000D01*
X169926000Y-135001000D02*
X155074000Y-135001000D01*
X181102000Y-127889000D02*
X179070000Y-129921000D01*
X178054000Y-118491000D02*
X180086000Y-118491000D01*
X175006000Y-129921000D02*
X169926000Y-135001000D01*
X179070000Y-129921000D02*
X175006000Y-129921000D01*
%TO.N,/DS3*%
X73660000Y-93091000D02*
X69596000Y-89027000D01*
X64770000Y-89027000D02*
X64770000Y-109601000D01*
X64770000Y-109601000D02*
X61170200Y-113200800D01*
X76962000Y-105283000D02*
X73914000Y-105283000D01*
X69596000Y-89027000D02*
X64770000Y-89027000D01*
X52998400Y-110617000D02*
X50800000Y-110617000D01*
X50800000Y-110617000D02*
X49530000Y-109347000D01*
X61170200Y-113200800D02*
X55582200Y-113200800D01*
X55582200Y-113200800D02*
X52998400Y-110617000D01*
X73660000Y-105029000D02*
X73660000Y-93091000D01*
X73914000Y-105283000D02*
X73660000Y-105029000D01*
%TO.N,/FDC_WPRT*%
X50800000Y-82677000D02*
X54356000Y-82677000D01*
X49530000Y-81407000D02*
X50800000Y-82677000D01*
X81407000Y-129413000D02*
X81407000Y-135763000D01*
X54356000Y-82677000D02*
X59690000Y-88011000D01*
%TO.N,/FDC_STEP*%
X91689000Y-124333000D02*
X92954000Y-123068000D01*
X78867000Y-124333000D02*
X91689000Y-124333000D01*
X73787000Y-129413000D02*
X78867000Y-124333000D01*
%TO.N,/FDC_RD*%
X54864000Y-80137000D02*
X50800000Y-80137000D01*
X66167000Y-129413000D02*
X66167000Y-135763000D01*
X59817000Y-109093000D02*
X61722000Y-107188000D01*
X61722000Y-86995000D02*
X54864000Y-80137000D01*
X61722000Y-107188000D02*
X61722000Y-86995000D01*
X50800000Y-80137000D02*
X49530000Y-78867000D01*
X56642000Y-110871000D02*
X58420000Y-109093000D01*
X58420000Y-109093000D02*
X59817000Y-109093000D01*
%TO.N,Net-(R5-Pad1)*%
X141355400Y-124709600D02*
X141355400Y-126617300D01*
X150373200Y-127241800D02*
X151504000Y-126111000D01*
X141355400Y-126617300D02*
X141979900Y-127241800D01*
X142494000Y-123571000D02*
X141355400Y-124709600D01*
X152654000Y-126111000D02*
X151504000Y-126111000D01*
X141979900Y-127241800D02*
X150373200Y-127241800D01*
%TO.N,Net-(R6-Pad1)*%
X154044000Y-124721000D02*
X143884000Y-124721000D01*
X143884000Y-124721000D02*
X142494000Y-126111000D01*
X155194000Y-123571000D02*
X154044000Y-124721000D01*
%TO.N,Net-(U2-Pad6)*%
X184404000Y-92329000D02*
X184404000Y-54483000D01*
X184150000Y-92583000D02*
X184404000Y-92329000D01*
X182118000Y-92583000D02*
X184150000Y-92583000D01*
X184404000Y-54483000D02*
X185674000Y-54483000D01*
%TO.N,Net-(U2-Pad7)*%
X183642000Y-90043000D02*
X182118000Y-90043000D01*
X183904000Y-58047500D02*
X183904000Y-89780500D01*
X183896000Y-58039000D02*
X183904000Y-58047500D01*
X183896000Y-52197000D02*
X183896000Y-58039000D01*
X185674000Y-51943000D02*
X184150000Y-51943000D01*
X183904000Y-89780500D02*
X183642000Y-90043000D01*
X184150000Y-51943000D02*
X183896000Y-52197000D01*
%TO.N,Net-(U2-Pad8)*%
X181356000Y-79375000D02*
X181356000Y-50165000D01*
X180848000Y-79883000D02*
X181356000Y-79375000D01*
X180594000Y-49403000D02*
X178054000Y-49403000D01*
X180848000Y-86233000D02*
X180848000Y-79883000D01*
X182118000Y-87503000D02*
X180848000Y-86233000D01*
X181356000Y-50165000D02*
X180594000Y-49403000D01*
%TO.N,/CAS*%
X141848600Y-66772300D02*
X141848500Y-66772300D01*
X167640000Y-81153000D02*
X166303650Y-79816650D01*
X149784700Y-68453000D02*
X143123000Y-68453000D01*
X159038900Y-73533000D02*
X158538900Y-73033000D01*
X174498000Y-84963000D02*
X170688000Y-81153000D01*
X166303650Y-76260650D02*
X163576000Y-73533000D01*
X158538900Y-73033000D02*
X154364700Y-73033000D01*
X166303650Y-79816650D02*
X166303650Y-76260650D01*
X143123000Y-68453000D02*
X141848600Y-67178600D01*
X163576000Y-73533000D02*
X159038900Y-73533000D01*
X141848600Y-67178600D02*
X141848600Y-66772300D01*
X170688000Y-81153000D02*
X167640000Y-81153000D01*
X154364700Y-73033000D02*
X149784700Y-68453000D01*
%TO.N,/RAS2*%
X166562500Y-92971500D02*
X166474300Y-92971500D01*
X151892000Y-91313000D02*
X162413700Y-91313000D01*
X162413700Y-91313000D02*
X164823800Y-93723100D01*
X166474300Y-92971500D02*
X165722700Y-93723100D01*
X165722700Y-93723100D02*
X164823800Y-93723100D01*
%TO.N,/RAS1*%
X161385400Y-112016700D02*
X161496400Y-111905700D01*
X166599700Y-111542100D02*
X164478900Y-111542100D01*
X167074300Y-112016700D02*
X166599700Y-111542100D01*
X150640000Y-112016700D02*
X161385400Y-112016700D01*
X125758100Y-66051300D02*
X129295200Y-69588400D01*
X172974000Y-109347000D02*
X170304300Y-112016700D01*
X170304300Y-112016700D02*
X167074300Y-112016700D01*
X172974000Y-108585000D02*
X172974000Y-109347000D01*
X129295200Y-69588400D02*
X129295200Y-74048800D01*
X115948000Y-69723000D02*
X119619700Y-66051300D01*
X119619700Y-66051300D02*
X125758100Y-66051300D01*
X147086400Y-115570300D02*
X150640000Y-112016700D01*
X114798000Y-69723000D02*
X115948000Y-69723000D01*
%TO.N,/RAS0*%
X94996000Y-62357000D02*
X94996000Y-52959000D01*
X87630000Y-69723000D02*
X94996000Y-62357000D01*
%TO.N,/MA0*%
X161215500Y-88883500D02*
X158860500Y-88883500D01*
X152649701Y-90047299D02*
X157696701Y-90047299D01*
X157696701Y-90047299D02*
X158860500Y-88883500D01*
X165298800Y-92966800D02*
X161215500Y-88883500D01*
%TO.N,/MA1*%
X156680000Y-89027000D02*
X153924000Y-89027000D01*
X162052000Y-86233000D02*
X159474000Y-86233000D01*
X159474000Y-86233000D02*
X156680000Y-89027000D01*
X168402000Y-92583000D02*
X162052000Y-86233000D01*
%TO.N,/MA2*%
X144660000Y-60039600D02*
X144660000Y-59563000D01*
X168402000Y-79883000D02*
X167150800Y-78631800D01*
X155699800Y-71079400D02*
X144660000Y-60039600D01*
X162646400Y-71079400D02*
X155699800Y-71079400D01*
X167150800Y-75583800D02*
X162646400Y-71079400D01*
X167150800Y-78631800D02*
X167150800Y-75583800D01*
X144660000Y-59563000D02*
X143510000Y-59563000D01*
%TO.N,/MA3*%
X143510000Y-57023000D02*
X144660000Y-57023000D01*
X154965800Y-67328800D02*
X144660000Y-57023000D01*
X168402000Y-72263000D02*
X167252000Y-72263000D01*
X162317800Y-67328800D02*
X154965800Y-67328800D01*
X167252000Y-72263000D02*
X162317800Y-67328800D01*
%TO.N,/ROM_OE*%
X139769150Y-123755850D02*
X141039150Y-122485850D01*
X136017000Y-133858000D02*
X139769150Y-130105850D01*
X122047000Y-135763000D02*
X122047000Y-126873000D01*
X136017000Y-136525000D02*
X136017000Y-133858000D01*
X141039150Y-120592150D02*
X150760300Y-110871000D01*
X123317000Y-137033000D02*
X135382000Y-137033000D01*
X150760300Y-110871000D02*
X155194000Y-110871000D01*
X122047000Y-135763000D02*
X123317000Y-137033000D01*
X141039150Y-122485850D02*
X141039150Y-120592150D01*
X139769150Y-130105850D02*
X139769150Y-123755850D01*
X135382000Y-137033000D02*
X136017000Y-136525000D01*
%TO.N,/FDC_WD*%
X77209959Y-127260041D02*
X86099959Y-127260041D01*
X86099959Y-127260041D02*
X91567000Y-133228000D01*
X73787000Y-135763000D02*
X73787000Y-130683000D01*
X91567000Y-133228000D02*
X92954000Y-133228000D01*
X73787000Y-130683000D02*
X77209959Y-127260041D01*
%TO.N,/FDC_DIR*%
X61087000Y-140843000D02*
X61087000Y-135763000D01*
X61722000Y-141478000D02*
X61087000Y-140843000D01*
X101727000Y-141478000D02*
X61722000Y-141478000D01*
%TD*%
%TA.AperFunction,Conductor*%
%TO.N,GND*%
G36*
X201338621Y-44368502D02*
G01*
X201385114Y-44422158D01*
X201396500Y-44474500D01*
X201396500Y-143231464D01*
X201376498Y-143299585D01*
X201322842Y-143346078D01*
X201270470Y-143357464D01*
X121358802Y-143338735D01*
X39013468Y-143319436D01*
X38945354Y-143299418D01*
X38898874Y-143245751D01*
X38887500Y-143193436D01*
X38887500Y-67691000D01*
X39370000Y-67691000D01*
X40768000Y-67691000D01*
X40836121Y-67711002D01*
X40882614Y-67764658D01*
X40894000Y-67817000D01*
X40894000Y-113358810D01*
X40873998Y-113426931D01*
X40857095Y-113447905D01*
X39878000Y-114427000D01*
X39878000Y-142367000D01*
X187452000Y-142367000D01*
X191603947Y-138215053D01*
X197203872Y-138215053D01*
X197203985Y-138219831D01*
X197209753Y-138464579D01*
X197209878Y-138469900D01*
X197210712Y-138474605D01*
X197252734Y-138711712D01*
X197254363Y-138720906D01*
X197255900Y-138725434D01*
X197282289Y-138803174D01*
X197336303Y-138962295D01*
X197338506Y-138966536D01*
X197380564Y-139047500D01*
X197453814Y-139188513D01*
X197456640Y-139192381D01*
X197456641Y-139192383D01*
X197496907Y-139247500D01*
X197604190Y-139394353D01*
X197607561Y-139397742D01*
X197607563Y-139397744D01*
X197780596Y-139571685D01*
X197780601Y-139571689D01*
X197783972Y-139575078D01*
X197787818Y-139577919D01*
X197787823Y-139577923D01*
X197933216Y-139685312D01*
X197989021Y-139726530D01*
X197993251Y-139728756D01*
X197993255Y-139728758D01*
X198205405Y-139840375D01*
X198214620Y-139845223D01*
X198219148Y-139846786D01*
X198219149Y-139846787D01*
X198222045Y-139847787D01*
X198455577Y-139928427D01*
X198536262Y-139943162D01*
X198702375Y-139973500D01*
X198702381Y-139973501D01*
X198706347Y-139974225D01*
X198750647Y-139976547D01*
X198786247Y-139978413D01*
X198786263Y-139978413D01*
X198787915Y-139978500D01*
X198946824Y-139978500D01*
X198949203Y-139978319D01*
X198949204Y-139978319D01*
X199131416Y-139964459D01*
X199131421Y-139964458D01*
X199136183Y-139964096D01*
X199140836Y-139963017D01*
X199140839Y-139963017D01*
X199379853Y-139907616D01*
X199379852Y-139907616D01*
X199384517Y-139906535D01*
X199621287Y-139812073D01*
X199731226Y-139747444D01*
X199836917Y-139685312D01*
X199836920Y-139685310D01*
X199841045Y-139682885D01*
X200038732Y-139521942D01*
X200209801Y-139332948D01*
X200240398Y-139286634D01*
X200347676Y-139124246D01*
X200350314Y-139120253D01*
X200376415Y-139063637D01*
X200455032Y-138893103D01*
X200455033Y-138893100D01*
X200457038Y-138888751D01*
X200458362Y-138884149D01*
X200526195Y-138648363D01*
X200526196Y-138648359D01*
X200527516Y-138643770D01*
X200529134Y-138631233D01*
X200559517Y-138395684D01*
X200560128Y-138390947D01*
X200554122Y-138136100D01*
X200522494Y-137957637D01*
X200510471Y-137889798D01*
X200510470Y-137889794D01*
X200509637Y-137885094D01*
X200427697Y-137643705D01*
X200411487Y-137612500D01*
X200312395Y-137421739D01*
X200312393Y-137421736D01*
X200310186Y-137417487D01*
X200270696Y-137363431D01*
X200162632Y-137215510D01*
X200159810Y-137211647D01*
X200127835Y-137179504D01*
X199983404Y-137034315D01*
X199983399Y-137034311D01*
X199980028Y-137030922D01*
X199976182Y-137028081D01*
X199976177Y-137028077D01*
X199778831Y-136882315D01*
X199778830Y-136882314D01*
X199774979Y-136879470D01*
X199770749Y-136877244D01*
X199770745Y-136877242D01*
X199553617Y-136763006D01*
X199553615Y-136763005D01*
X199549380Y-136760777D01*
X199308423Y-136677573D01*
X199209321Y-136659474D01*
X199061625Y-136632500D01*
X199061619Y-136632499D01*
X199057653Y-136631775D01*
X199013353Y-136629453D01*
X198977753Y-136627587D01*
X198977737Y-136627587D01*
X198976085Y-136627500D01*
X198817176Y-136627500D01*
X198814797Y-136627681D01*
X198814796Y-136627681D01*
X198632584Y-136641541D01*
X198632579Y-136641542D01*
X198627817Y-136641904D01*
X198623164Y-136642983D01*
X198623161Y-136642983D01*
X198439197Y-136685624D01*
X198379483Y-136699465D01*
X198142713Y-136793927D01*
X198138583Y-136796355D01*
X197927083Y-136920688D01*
X197927080Y-136920690D01*
X197922955Y-136923115D01*
X197725268Y-137084058D01*
X197554199Y-137273052D01*
X197551558Y-137277050D01*
X197551557Y-137277051D01*
X197502647Y-137351087D01*
X197413686Y-137485747D01*
X197411685Y-137490087D01*
X197411683Y-137490091D01*
X197316542Y-137696468D01*
X197306962Y-137717249D01*
X197305638Y-137721850D01*
X197305638Y-137721851D01*
X197241353Y-137945307D01*
X197236484Y-137962230D01*
X197235873Y-137966965D01*
X197235872Y-137966971D01*
X197222244Y-138072625D01*
X197203872Y-138215053D01*
X191603947Y-138215053D01*
X193294000Y-136525000D01*
X193294000Y-135381000D01*
X193314002Y-135312879D01*
X193367658Y-135266386D01*
X193420000Y-135255000D01*
X199390000Y-135255000D01*
X199390000Y-52451000D01*
X193854190Y-52451000D01*
X193786069Y-52430998D01*
X193765095Y-52414095D01*
X190666053Y-49315053D01*
X197203872Y-49315053D01*
X197203985Y-49319831D01*
X197208559Y-49513918D01*
X197209878Y-49569900D01*
X197210712Y-49574605D01*
X197225506Y-49658078D01*
X197254363Y-49820906D01*
X197336303Y-50062295D01*
X197338506Y-50066536D01*
X197448466Y-50278217D01*
X197453814Y-50288513D01*
X197456640Y-50292381D01*
X197456641Y-50292383D01*
X197521550Y-50381233D01*
X197604190Y-50494353D01*
X197607561Y-50497742D01*
X197607563Y-50497744D01*
X197780596Y-50671685D01*
X197780601Y-50671689D01*
X197783972Y-50675078D01*
X197787818Y-50677919D01*
X197787823Y-50677923D01*
X197933216Y-50785312D01*
X197989021Y-50826530D01*
X197993251Y-50828756D01*
X197993255Y-50828758D01*
X198197673Y-50936307D01*
X198214620Y-50945223D01*
X198455577Y-51028427D01*
X198536262Y-51043162D01*
X198702375Y-51073500D01*
X198702381Y-51073501D01*
X198706347Y-51074225D01*
X198750647Y-51076547D01*
X198786247Y-51078413D01*
X198786263Y-51078413D01*
X198787915Y-51078500D01*
X198946824Y-51078500D01*
X198949203Y-51078319D01*
X198949204Y-51078319D01*
X199131416Y-51064459D01*
X199131421Y-51064458D01*
X199136183Y-51064096D01*
X199140836Y-51063017D01*
X199140839Y-51063017D01*
X199379853Y-51007616D01*
X199379852Y-51007616D01*
X199384517Y-51006535D01*
X199621287Y-50912073D01*
X199735643Y-50844847D01*
X199836917Y-50785312D01*
X199836920Y-50785310D01*
X199841045Y-50782885D01*
X200038732Y-50621942D01*
X200209801Y-50432948D01*
X200350314Y-50220253D01*
X200355310Y-50209417D01*
X200455032Y-49993103D01*
X200455033Y-49993100D01*
X200457038Y-49988751D01*
X200472282Y-49935763D01*
X200526195Y-49748363D01*
X200526196Y-49748359D01*
X200527516Y-49743770D01*
X200538228Y-49660731D01*
X200559517Y-49495684D01*
X200560128Y-49490947D01*
X200556313Y-49329083D01*
X200554235Y-49240880D01*
X200554235Y-49240875D01*
X200554122Y-49236100D01*
X200517555Y-49029769D01*
X200510471Y-48989798D01*
X200510470Y-48989794D01*
X200509637Y-48985094D01*
X200427697Y-48743705D01*
X200416801Y-48722730D01*
X200312395Y-48521739D01*
X200312393Y-48521736D01*
X200310186Y-48517487D01*
X200264349Y-48454743D01*
X200162632Y-48315510D01*
X200159810Y-48311647D01*
X200065910Y-48217254D01*
X199983404Y-48134315D01*
X199983399Y-48134311D01*
X199980028Y-48130922D01*
X199976182Y-48128081D01*
X199976177Y-48128077D01*
X199778831Y-47982315D01*
X199778830Y-47982314D01*
X199774979Y-47979470D01*
X199770749Y-47977244D01*
X199770745Y-47977242D01*
X199553617Y-47863006D01*
X199553615Y-47863005D01*
X199549380Y-47860777D01*
X199308423Y-47777573D01*
X199227738Y-47762838D01*
X199061625Y-47732500D01*
X199061619Y-47732499D01*
X199057653Y-47731775D01*
X199013353Y-47729453D01*
X198977753Y-47727587D01*
X198977737Y-47727587D01*
X198976085Y-47727500D01*
X198817176Y-47727500D01*
X198814797Y-47727681D01*
X198814796Y-47727681D01*
X198632584Y-47741541D01*
X198632579Y-47741542D01*
X198627817Y-47741904D01*
X198623164Y-47742983D01*
X198623161Y-47742983D01*
X198439197Y-47785624D01*
X198379483Y-47799465D01*
X198142713Y-47893927D01*
X198138583Y-47896355D01*
X197927083Y-48020688D01*
X197927080Y-48020690D01*
X197922955Y-48023115D01*
X197725268Y-48184058D01*
X197554199Y-48373052D01*
X197413686Y-48585747D01*
X197411685Y-48590087D01*
X197411683Y-48590091D01*
X197310044Y-48810563D01*
X197306962Y-48817249D01*
X197305638Y-48821850D01*
X197305638Y-48821851D01*
X197245823Y-49029769D01*
X197236484Y-49062230D01*
X197235873Y-49066965D01*
X197235872Y-49066971D01*
X197221399Y-49179176D01*
X197203872Y-49315053D01*
X190666053Y-49315053D01*
X187198000Y-45847000D01*
X164338000Y-45847000D01*
X160818905Y-49366095D01*
X160756593Y-49400121D01*
X160729810Y-49403000D01*
X115570000Y-49403000D01*
X114082905Y-50890095D01*
X114020593Y-50924121D01*
X113993810Y-50927000D01*
X110034190Y-50927000D01*
X109966069Y-50906998D01*
X109945095Y-50890095D01*
X107950000Y-48895000D01*
X56642000Y-48895000D01*
X56642000Y-53341000D01*
X56621998Y-53409121D01*
X56568342Y-53455614D01*
X56516000Y-53467000D01*
X39370000Y-53467000D01*
X39370000Y-67691000D01*
X38887500Y-67691000D01*
X38887500Y-48101497D01*
X46000637Y-48101497D01*
X46000881Y-48105932D01*
X46000881Y-48105936D01*
X46015387Y-48369499D01*
X46016205Y-48384370D01*
X46036594Y-48486874D01*
X46065430Y-48631839D01*
X46071474Y-48662226D01*
X46072950Y-48666429D01*
X46146004Y-48874456D01*
X46165342Y-48929524D01*
X46167395Y-48933477D01*
X46167398Y-48933483D01*
X46214583Y-49024317D01*
X46295936Y-49180928D01*
X46298519Y-49184543D01*
X46298523Y-49184549D01*
X46363995Y-49276167D01*
X46460651Y-49411424D01*
X46463729Y-49414651D01*
X46463731Y-49414653D01*
X46647426Y-49607215D01*
X46656199Y-49616412D01*
X46878680Y-49791801D01*
X46988927Y-49855837D01*
X47119807Y-49931859D01*
X47119813Y-49931862D01*
X47123654Y-49934093D01*
X47127777Y-49935763D01*
X47354796Y-50027715D01*
X47386232Y-50040448D01*
X47390545Y-50041519D01*
X47390550Y-50041521D01*
X47656856Y-50107672D01*
X47656861Y-50107673D01*
X47661177Y-50108745D01*
X47665605Y-50109199D01*
X47665607Y-50109199D01*
X47741307Y-50116955D01*
X47902790Y-50133500D01*
X48078170Y-50133500D01*
X48288593Y-50118601D01*
X48292948Y-50117663D01*
X48292951Y-50117663D01*
X48561200Y-50059911D01*
X48561202Y-50059911D01*
X48565547Y-50058975D01*
X48831337Y-49960920D01*
X49080660Y-49826393D01*
X49308540Y-49658078D01*
X49331590Y-49635388D01*
X49423631Y-49544780D01*
X49510430Y-49459334D01*
X49513131Y-49455794D01*
X49513137Y-49455788D01*
X49679602Y-49237667D01*
X49679605Y-49237663D01*
X49682304Y-49234126D01*
X49791557Y-49039040D01*
X49818552Y-48990837D01*
X49818555Y-48990832D01*
X49820730Y-48986947D01*
X49842946Y-48929524D01*
X49921341Y-48726885D01*
X49921343Y-48726879D01*
X49922948Y-48722730D01*
X49986918Y-48446747D01*
X50011363Y-48164503D01*
X50010527Y-48149306D01*
X49996040Y-47886073D01*
X49996039Y-47886066D01*
X49995795Y-47881630D01*
X49960511Y-47704246D01*
X49941396Y-47608146D01*
X49941395Y-47608141D01*
X49940526Y-47603774D01*
X49919279Y-47543270D01*
X49882032Y-47437207D01*
X110587524Y-47437207D01*
X110587593Y-47438963D01*
X110587699Y-47441659D01*
X110591862Y-47547605D01*
X110598257Y-47710383D01*
X110604014Y-47741904D01*
X110642332Y-47951712D01*
X110647374Y-47979322D01*
X110733895Y-48238657D01*
X110735887Y-48242644D01*
X110735888Y-48242646D01*
X110840039Y-48451085D01*
X110856093Y-48483215D01*
X111011531Y-48708114D01*
X111014553Y-48711383D01*
X111184287Y-48895000D01*
X111197106Y-48908868D01*
X111285173Y-48980566D01*
X111405655Y-49078654D01*
X111405660Y-49078657D01*
X111409117Y-49081472D01*
X111643333Y-49222482D01*
X111647428Y-49224216D01*
X111647430Y-49224217D01*
X111873231Y-49319831D01*
X111895080Y-49329083D01*
X111899373Y-49330221D01*
X111899378Y-49330223D01*
X112034672Y-49366095D01*
X112159336Y-49399149D01*
X112163753Y-49399672D01*
X112163754Y-49399672D01*
X112167548Y-49400121D01*
X112430829Y-49431282D01*
X112704140Y-49424841D01*
X112708534Y-49424110D01*
X112708541Y-49424109D01*
X112969415Y-49380688D01*
X112969419Y-49380687D01*
X112973817Y-49379955D01*
X113194013Y-49310316D01*
X113230234Y-49298861D01*
X113230236Y-49298860D01*
X113234480Y-49297518D01*
X113366493Y-49234126D01*
X113476907Y-49181106D01*
X113476908Y-49181105D01*
X113480926Y-49179176D01*
X113484632Y-49176700D01*
X113704531Y-49029769D01*
X113704535Y-49029766D01*
X113708239Y-49027291D01*
X113911884Y-48844891D01*
X114087797Y-48635618D01*
X114103034Y-48611187D01*
X114230106Y-48407432D01*
X114230107Y-48407430D01*
X114232467Y-48403646D01*
X114343010Y-48153604D01*
X114417218Y-47890481D01*
X114437175Y-47741904D01*
X114453185Y-47622709D01*
X114453186Y-47622701D01*
X114453612Y-47619527D01*
X114455872Y-47547605D01*
X114457330Y-47501222D01*
X114457330Y-47501217D01*
X114457431Y-47498000D01*
X114438122Y-47225295D01*
X114427264Y-47174859D01*
X114381518Y-46962379D01*
X114381518Y-46962377D01*
X114380582Y-46958032D01*
X114285958Y-46701542D01*
X114156138Y-46460944D01*
X113993713Y-46241038D01*
X113985873Y-46233073D01*
X113843223Y-46088166D01*
X113801923Y-46046212D01*
X113798384Y-46043511D01*
X113798377Y-46043505D01*
X113588137Y-45883055D01*
X113588133Y-45883052D01*
X113584596Y-45880353D01*
X113393046Y-45773080D01*
X113349956Y-45748948D01*
X113349950Y-45748945D01*
X113346066Y-45746770D01*
X113341908Y-45745162D01*
X113341903Y-45745159D01*
X113095250Y-45649736D01*
X113095244Y-45649734D01*
X113091095Y-45648129D01*
X113086762Y-45647125D01*
X113086760Y-45647124D01*
X112964269Y-45618732D01*
X112824768Y-45586397D01*
X112552400Y-45562808D01*
X112547965Y-45563052D01*
X112547961Y-45563052D01*
X112427649Y-45569673D01*
X112279426Y-45577830D01*
X112011292Y-45631166D01*
X111857670Y-45685114D01*
X111757556Y-45720271D01*
X111757553Y-45720272D01*
X111753348Y-45721749D01*
X111749395Y-45723802D01*
X111749389Y-45723805D01*
X111612262Y-45795038D01*
X111510740Y-45847774D01*
X111507125Y-45850357D01*
X111507119Y-45850361D01*
X111399734Y-45927100D01*
X111288310Y-46006725D01*
X111243135Y-46049820D01*
X111140846Y-46147399D01*
X111090495Y-46195431D01*
X111087739Y-46198926D01*
X111087738Y-46198928D01*
X111025906Y-46277362D01*
X110921243Y-46410126D01*
X110882426Y-46476955D01*
X110786164Y-46642681D01*
X110786161Y-46642687D01*
X110783930Y-46646528D01*
X110782260Y-46650651D01*
X110703035Y-46846249D01*
X110681296Y-46899919D01*
X110680225Y-46904232D01*
X110680223Y-46904237D01*
X110648518Y-47031874D01*
X110615389Y-47165243D01*
X110587524Y-47437207D01*
X49882032Y-47437207D01*
X49848136Y-47340684D01*
X49848135Y-47340681D01*
X49846658Y-47336476D01*
X49844605Y-47332523D01*
X49844602Y-47332517D01*
X49760011Y-47169674D01*
X49716064Y-47085072D01*
X49713481Y-47081457D01*
X49713477Y-47081451D01*
X49596103Y-46917203D01*
X49551349Y-46854576D01*
X49548269Y-46851347D01*
X49358876Y-46652811D01*
X49358873Y-46652808D01*
X49355801Y-46649588D01*
X49133320Y-46474199D01*
X49016991Y-46406630D01*
X48892193Y-46334141D01*
X48892187Y-46334138D01*
X48888346Y-46331907D01*
X48753681Y-46277362D01*
X48629894Y-46227223D01*
X48629891Y-46227222D01*
X48625768Y-46225552D01*
X48621455Y-46224481D01*
X48621450Y-46224479D01*
X48355144Y-46158328D01*
X48355139Y-46158327D01*
X48350823Y-46157255D01*
X48346395Y-46156801D01*
X48346393Y-46156801D01*
X48251552Y-46147084D01*
X48109210Y-46132500D01*
X47933830Y-46132500D01*
X47723407Y-46147399D01*
X47719052Y-46148337D01*
X47719049Y-46148337D01*
X47450800Y-46206089D01*
X47450798Y-46206089D01*
X47446453Y-46207025D01*
X47180663Y-46305080D01*
X46931340Y-46439607D01*
X46703460Y-46607922D01*
X46700281Y-46611051D01*
X46700278Y-46611054D01*
X46657860Y-46652811D01*
X46501570Y-46806666D01*
X46498869Y-46810206D01*
X46498863Y-46810212D01*
X46332398Y-47028333D01*
X46329696Y-47031874D01*
X46327521Y-47035758D01*
X46218883Y-47229747D01*
X46191270Y-47279053D01*
X46189662Y-47283211D01*
X46189659Y-47283216D01*
X46105319Y-47501222D01*
X46089052Y-47543270D01*
X46025082Y-47819253D01*
X46000637Y-48101497D01*
X38887500Y-48101497D01*
X38887500Y-44474500D01*
X38907502Y-44406379D01*
X38961158Y-44359886D01*
X39013500Y-44348500D01*
X201270500Y-44348500D01*
X201338621Y-44368502D01*
G37*
%TD.AperFunction*%
%TD*%
M02*
