%TF.GenerationSoftware,KiCad,Pcbnew,8.0.3+1*%
%TF.CreationDate,2024-07-26T20:17:49+02:00*%
%TF.ProjectId,ql_trump_v2_disk_interface,716c5f74-7275-46d7-905f-76325f646973,01*%
%TF.SameCoordinates,Original*%
%TF.FileFunction,Legend,Bot*%
%TF.FilePolarity,Positive*%
%FSLAX46Y46*%
G04 Gerber Fmt 4.6, Leading zero omitted, Abs format (unit mm)*
G04 Created by KiCad (PCBNEW 8.0.3+1) date 2024-07-26 20:17:49*
%MOMM*%
%LPD*%
G01*
G04 APERTURE LIST*
%ADD10C,0.150000*%
%ADD11C,0.350000*%
G04 APERTURE END LIST*
D10*
X146906001Y-46766847D02*
X147382191Y-46766847D01*
X147382191Y-46766847D02*
X147382191Y-45766847D01*
X146572667Y-46766847D02*
X146572667Y-46100180D01*
X146572667Y-45766847D02*
X146620286Y-45814466D01*
X146620286Y-45814466D02*
X146572667Y-45862085D01*
X146572667Y-45862085D02*
X146525048Y-45814466D01*
X146525048Y-45814466D02*
X146572667Y-45766847D01*
X146572667Y-45766847D02*
X146572667Y-45862085D01*
X145667906Y-46719228D02*
X145763144Y-46766847D01*
X145763144Y-46766847D02*
X145953620Y-46766847D01*
X145953620Y-46766847D02*
X146048858Y-46719228D01*
X146048858Y-46719228D02*
X146096477Y-46671608D01*
X146096477Y-46671608D02*
X146144096Y-46576370D01*
X146144096Y-46576370D02*
X146144096Y-46290656D01*
X146144096Y-46290656D02*
X146096477Y-46195418D01*
X146096477Y-46195418D02*
X146048858Y-46147799D01*
X146048858Y-46147799D02*
X145953620Y-46100180D01*
X145953620Y-46100180D02*
X145763144Y-46100180D01*
X145763144Y-46100180D02*
X145667906Y-46147799D01*
X144858382Y-46719228D02*
X144953620Y-46766847D01*
X144953620Y-46766847D02*
X145144096Y-46766847D01*
X145144096Y-46766847D02*
X145239334Y-46719228D01*
X145239334Y-46719228D02*
X145286953Y-46623989D01*
X145286953Y-46623989D02*
X145286953Y-46243037D01*
X145286953Y-46243037D02*
X145239334Y-46147799D01*
X145239334Y-46147799D02*
X145144096Y-46100180D01*
X145144096Y-46100180D02*
X144953620Y-46100180D01*
X144953620Y-46100180D02*
X144858382Y-46147799D01*
X144858382Y-46147799D02*
X144810763Y-46243037D01*
X144810763Y-46243037D02*
X144810763Y-46338275D01*
X144810763Y-46338275D02*
X145286953Y-46433513D01*
X144382191Y-46100180D02*
X144382191Y-46766847D01*
X144382191Y-46195418D02*
X144334572Y-46147799D01*
X144334572Y-46147799D02*
X144239334Y-46100180D01*
X144239334Y-46100180D02*
X144096477Y-46100180D01*
X144096477Y-46100180D02*
X144001239Y-46147799D01*
X144001239Y-46147799D02*
X143953620Y-46243037D01*
X143953620Y-46243037D02*
X143953620Y-46766847D01*
X143525048Y-46719228D02*
X143429810Y-46766847D01*
X143429810Y-46766847D02*
X143239334Y-46766847D01*
X143239334Y-46766847D02*
X143144096Y-46719228D01*
X143144096Y-46719228D02*
X143096477Y-46623989D01*
X143096477Y-46623989D02*
X143096477Y-46576370D01*
X143096477Y-46576370D02*
X143144096Y-46481132D01*
X143144096Y-46481132D02*
X143239334Y-46433513D01*
X143239334Y-46433513D02*
X143382191Y-46433513D01*
X143382191Y-46433513D02*
X143477429Y-46385894D01*
X143477429Y-46385894D02*
X143525048Y-46290656D01*
X143525048Y-46290656D02*
X143525048Y-46243037D01*
X143525048Y-46243037D02*
X143477429Y-46147799D01*
X143477429Y-46147799D02*
X143382191Y-46100180D01*
X143382191Y-46100180D02*
X143239334Y-46100180D01*
X143239334Y-46100180D02*
X143144096Y-46147799D01*
X142286953Y-46719228D02*
X142382191Y-46766847D01*
X142382191Y-46766847D02*
X142572667Y-46766847D01*
X142572667Y-46766847D02*
X142667905Y-46719228D01*
X142667905Y-46719228D02*
X142715524Y-46623989D01*
X142715524Y-46623989D02*
X142715524Y-46243037D01*
X142715524Y-46243037D02*
X142667905Y-46147799D01*
X142667905Y-46147799D02*
X142572667Y-46100180D01*
X142572667Y-46100180D02*
X142382191Y-46100180D01*
X142382191Y-46100180D02*
X142286953Y-46147799D01*
X142286953Y-46147799D02*
X142239334Y-46243037D01*
X142239334Y-46243037D02*
X142239334Y-46338275D01*
X142239334Y-46338275D02*
X142715524Y-46433513D01*
X141382191Y-46766847D02*
X141382191Y-45766847D01*
X141382191Y-46719228D02*
X141477429Y-46766847D01*
X141477429Y-46766847D02*
X141667905Y-46766847D01*
X141667905Y-46766847D02*
X141763143Y-46719228D01*
X141763143Y-46719228D02*
X141810762Y-46671608D01*
X141810762Y-46671608D02*
X141858381Y-46576370D01*
X141858381Y-46576370D02*
X141858381Y-46290656D01*
X141858381Y-46290656D02*
X141810762Y-46195418D01*
X141810762Y-46195418D02*
X141763143Y-46147799D01*
X141763143Y-46147799D02*
X141667905Y-46100180D01*
X141667905Y-46100180D02*
X141477429Y-46100180D01*
X141477429Y-46100180D02*
X141382191Y-46147799D01*
X139715524Y-46100180D02*
X139715524Y-46766847D01*
X140144095Y-46100180D02*
X140144095Y-46623989D01*
X140144095Y-46623989D02*
X140096476Y-46719228D01*
X140096476Y-46719228D02*
X140001238Y-46766847D01*
X140001238Y-46766847D02*
X139858381Y-46766847D01*
X139858381Y-46766847D02*
X139763143Y-46719228D01*
X139763143Y-46719228D02*
X139715524Y-46671608D01*
X139239333Y-46100180D02*
X139239333Y-46766847D01*
X139239333Y-46195418D02*
X139191714Y-46147799D01*
X139191714Y-46147799D02*
X139096476Y-46100180D01*
X139096476Y-46100180D02*
X138953619Y-46100180D01*
X138953619Y-46100180D02*
X138858381Y-46147799D01*
X138858381Y-46147799D02*
X138810762Y-46243037D01*
X138810762Y-46243037D02*
X138810762Y-46766847D01*
X137906000Y-46766847D02*
X137906000Y-45766847D01*
X137906000Y-46719228D02*
X138001238Y-46766847D01*
X138001238Y-46766847D02*
X138191714Y-46766847D01*
X138191714Y-46766847D02*
X138286952Y-46719228D01*
X138286952Y-46719228D02*
X138334571Y-46671608D01*
X138334571Y-46671608D02*
X138382190Y-46576370D01*
X138382190Y-46576370D02*
X138382190Y-46290656D01*
X138382190Y-46290656D02*
X138334571Y-46195418D01*
X138334571Y-46195418D02*
X138286952Y-46147799D01*
X138286952Y-46147799D02*
X138191714Y-46100180D01*
X138191714Y-46100180D02*
X138001238Y-46100180D01*
X138001238Y-46100180D02*
X137906000Y-46147799D01*
X137048857Y-46719228D02*
X137144095Y-46766847D01*
X137144095Y-46766847D02*
X137334571Y-46766847D01*
X137334571Y-46766847D02*
X137429809Y-46719228D01*
X137429809Y-46719228D02*
X137477428Y-46623989D01*
X137477428Y-46623989D02*
X137477428Y-46243037D01*
X137477428Y-46243037D02*
X137429809Y-46147799D01*
X137429809Y-46147799D02*
X137334571Y-46100180D01*
X137334571Y-46100180D02*
X137144095Y-46100180D01*
X137144095Y-46100180D02*
X137048857Y-46147799D01*
X137048857Y-46147799D02*
X137001238Y-46243037D01*
X137001238Y-46243037D02*
X137001238Y-46338275D01*
X137001238Y-46338275D02*
X137477428Y-46433513D01*
X136572666Y-46766847D02*
X136572666Y-46100180D01*
X136572666Y-46290656D02*
X136525047Y-46195418D01*
X136525047Y-46195418D02*
X136477428Y-46147799D01*
X136477428Y-46147799D02*
X136382190Y-46100180D01*
X136382190Y-46100180D02*
X136286952Y-46100180D01*
X134620285Y-46671608D02*
X134667904Y-46719228D01*
X134667904Y-46719228D02*
X134810761Y-46766847D01*
X134810761Y-46766847D02*
X134905999Y-46766847D01*
X134905999Y-46766847D02*
X135048856Y-46719228D01*
X135048856Y-46719228D02*
X135144094Y-46623989D01*
X135144094Y-46623989D02*
X135191713Y-46528751D01*
X135191713Y-46528751D02*
X135239332Y-46338275D01*
X135239332Y-46338275D02*
X135239332Y-46195418D01*
X135239332Y-46195418D02*
X135191713Y-46004942D01*
X135191713Y-46004942D02*
X135144094Y-45909704D01*
X135144094Y-45909704D02*
X135048856Y-45814466D01*
X135048856Y-45814466D02*
X134905999Y-45766847D01*
X134905999Y-45766847D02*
X134810761Y-45766847D01*
X134810761Y-45766847D02*
X134667904Y-45814466D01*
X134667904Y-45814466D02*
X134620285Y-45862085D01*
X133810761Y-46719228D02*
X133905999Y-46766847D01*
X133905999Y-46766847D02*
X134096475Y-46766847D01*
X134096475Y-46766847D02*
X134191713Y-46719228D01*
X134191713Y-46719228D02*
X134239332Y-46623989D01*
X134239332Y-46623989D02*
X134239332Y-46243037D01*
X134239332Y-46243037D02*
X134191713Y-46147799D01*
X134191713Y-46147799D02*
X134096475Y-46100180D01*
X134096475Y-46100180D02*
X133905999Y-46100180D01*
X133905999Y-46100180D02*
X133810761Y-46147799D01*
X133810761Y-46147799D02*
X133763142Y-46243037D01*
X133763142Y-46243037D02*
X133763142Y-46338275D01*
X133763142Y-46338275D02*
X134239332Y-46433513D01*
X133334570Y-46766847D02*
X133334570Y-46100180D01*
X133334570Y-46290656D02*
X133286951Y-46195418D01*
X133286951Y-46195418D02*
X133239332Y-46147799D01*
X133239332Y-46147799D02*
X133144094Y-46100180D01*
X133144094Y-46100180D02*
X133048856Y-46100180D01*
X132715522Y-46100180D02*
X132715522Y-46766847D01*
X132715522Y-46195418D02*
X132667903Y-46147799D01*
X132667903Y-46147799D02*
X132572665Y-46100180D01*
X132572665Y-46100180D02*
X132429808Y-46100180D01*
X132429808Y-46100180D02*
X132334570Y-46147799D01*
X132334570Y-46147799D02*
X132286951Y-46243037D01*
X132286951Y-46243037D02*
X132286951Y-46766847D01*
X130858379Y-45766847D02*
X130667903Y-45766847D01*
X130667903Y-45766847D02*
X130572665Y-45814466D01*
X130572665Y-45814466D02*
X130477427Y-45909704D01*
X130477427Y-45909704D02*
X130429808Y-46100180D01*
X130429808Y-46100180D02*
X130429808Y-46433513D01*
X130429808Y-46433513D02*
X130477427Y-46623989D01*
X130477427Y-46623989D02*
X130572665Y-46719228D01*
X130572665Y-46719228D02*
X130667903Y-46766847D01*
X130667903Y-46766847D02*
X130858379Y-46766847D01*
X130858379Y-46766847D02*
X130953617Y-46719228D01*
X130953617Y-46719228D02*
X131048855Y-46623989D01*
X131048855Y-46623989D02*
X131096474Y-46433513D01*
X131096474Y-46433513D02*
X131096474Y-46100180D01*
X131096474Y-46100180D02*
X131048855Y-45909704D01*
X131048855Y-45909704D02*
X130953617Y-45814466D01*
X130953617Y-45814466D02*
X130858379Y-45766847D01*
X130001236Y-46766847D02*
X130001236Y-45766847D01*
X130001236Y-46243037D02*
X129429808Y-46243037D01*
X129429808Y-46766847D02*
X129429808Y-45766847D01*
X128477427Y-46766847D02*
X128953617Y-46766847D01*
X128953617Y-46766847D02*
X128953617Y-45766847D01*
X128144093Y-46385894D02*
X127382189Y-46385894D01*
X126953617Y-46719228D02*
X126810760Y-46766847D01*
X126810760Y-46766847D02*
X126572665Y-46766847D01*
X126572665Y-46766847D02*
X126477427Y-46719228D01*
X126477427Y-46719228D02*
X126429808Y-46671608D01*
X126429808Y-46671608D02*
X126382189Y-46576370D01*
X126382189Y-46576370D02*
X126382189Y-46481132D01*
X126382189Y-46481132D02*
X126429808Y-46385894D01*
X126429808Y-46385894D02*
X126477427Y-46338275D01*
X126477427Y-46338275D02*
X126572665Y-46290656D01*
X126572665Y-46290656D02*
X126763141Y-46243037D01*
X126763141Y-46243037D02*
X126858379Y-46195418D01*
X126858379Y-46195418D02*
X126905998Y-46147799D01*
X126905998Y-46147799D02*
X126953617Y-46052561D01*
X126953617Y-46052561D02*
X126953617Y-45957323D01*
X126953617Y-45957323D02*
X126905998Y-45862085D01*
X126905998Y-45862085D02*
X126858379Y-45814466D01*
X126858379Y-45814466D02*
X126763141Y-45766847D01*
X126763141Y-45766847D02*
X126525046Y-45766847D01*
X126525046Y-45766847D02*
X126382189Y-45814466D01*
X149953620Y-48376791D02*
X149953620Y-47376791D01*
X149525049Y-48376791D02*
X149525049Y-47852981D01*
X149525049Y-47852981D02*
X149572668Y-47757743D01*
X149572668Y-47757743D02*
X149667906Y-47710124D01*
X149667906Y-47710124D02*
X149810763Y-47710124D01*
X149810763Y-47710124D02*
X149906001Y-47757743D01*
X149906001Y-47757743D02*
X149953620Y-47805362D01*
X149191715Y-47710124D02*
X148810763Y-47710124D01*
X149048858Y-47376791D02*
X149048858Y-48233933D01*
X149048858Y-48233933D02*
X149001239Y-48329172D01*
X149001239Y-48329172D02*
X148906001Y-48376791D01*
X148906001Y-48376791D02*
X148810763Y-48376791D01*
X148620286Y-47710124D02*
X148239334Y-47710124D01*
X148477429Y-47376791D02*
X148477429Y-48233933D01*
X148477429Y-48233933D02*
X148429810Y-48329172D01*
X148429810Y-48329172D02*
X148334572Y-48376791D01*
X148334572Y-48376791D02*
X148239334Y-48376791D01*
X147906000Y-47710124D02*
X147906000Y-48710124D01*
X147906000Y-47757743D02*
X147810762Y-47710124D01*
X147810762Y-47710124D02*
X147620286Y-47710124D01*
X147620286Y-47710124D02*
X147525048Y-47757743D01*
X147525048Y-47757743D02*
X147477429Y-47805362D01*
X147477429Y-47805362D02*
X147429810Y-47900600D01*
X147429810Y-47900600D02*
X147429810Y-48186314D01*
X147429810Y-48186314D02*
X147477429Y-48281552D01*
X147477429Y-48281552D02*
X147525048Y-48329172D01*
X147525048Y-48329172D02*
X147620286Y-48376791D01*
X147620286Y-48376791D02*
X147810762Y-48376791D01*
X147810762Y-48376791D02*
X147906000Y-48329172D01*
X147048857Y-48329172D02*
X146953619Y-48376791D01*
X146953619Y-48376791D02*
X146763143Y-48376791D01*
X146763143Y-48376791D02*
X146667905Y-48329172D01*
X146667905Y-48329172D02*
X146620286Y-48233933D01*
X146620286Y-48233933D02*
X146620286Y-48186314D01*
X146620286Y-48186314D02*
X146667905Y-48091076D01*
X146667905Y-48091076D02*
X146763143Y-48043457D01*
X146763143Y-48043457D02*
X146906000Y-48043457D01*
X146906000Y-48043457D02*
X147001238Y-47995838D01*
X147001238Y-47995838D02*
X147048857Y-47900600D01*
X147048857Y-47900600D02*
X147048857Y-47852981D01*
X147048857Y-47852981D02*
X147001238Y-47757743D01*
X147001238Y-47757743D02*
X146906000Y-47710124D01*
X146906000Y-47710124D02*
X146763143Y-47710124D01*
X146763143Y-47710124D02*
X146667905Y-47757743D01*
X146191714Y-48281552D02*
X146144095Y-48329172D01*
X146144095Y-48329172D02*
X146191714Y-48376791D01*
X146191714Y-48376791D02*
X146239333Y-48329172D01*
X146239333Y-48329172D02*
X146191714Y-48281552D01*
X146191714Y-48281552D02*
X146191714Y-48376791D01*
X146191714Y-47757743D02*
X146144095Y-47805362D01*
X146144095Y-47805362D02*
X146191714Y-47852981D01*
X146191714Y-47852981D02*
X146239333Y-47805362D01*
X146239333Y-47805362D02*
X146191714Y-47757743D01*
X146191714Y-47757743D02*
X146191714Y-47852981D01*
X145001239Y-47329172D02*
X145858381Y-48614886D01*
X143953620Y-47329172D02*
X144810762Y-48614886D01*
X143477429Y-48376791D02*
X143572667Y-48329172D01*
X143572667Y-48329172D02*
X143620286Y-48281552D01*
X143620286Y-48281552D02*
X143667905Y-48186314D01*
X143667905Y-48186314D02*
X143667905Y-47900600D01*
X143667905Y-47900600D02*
X143620286Y-47805362D01*
X143620286Y-47805362D02*
X143572667Y-47757743D01*
X143572667Y-47757743D02*
X143477429Y-47710124D01*
X143477429Y-47710124D02*
X143334572Y-47710124D01*
X143334572Y-47710124D02*
X143239334Y-47757743D01*
X143239334Y-47757743D02*
X143191715Y-47805362D01*
X143191715Y-47805362D02*
X143144096Y-47900600D01*
X143144096Y-47900600D02*
X143144096Y-48186314D01*
X143144096Y-48186314D02*
X143191715Y-48281552D01*
X143191715Y-48281552D02*
X143239334Y-48329172D01*
X143239334Y-48329172D02*
X143334572Y-48376791D01*
X143334572Y-48376791D02*
X143477429Y-48376791D01*
X142715524Y-48376791D02*
X142715524Y-47376791D01*
X142286953Y-48376791D02*
X142286953Y-47852981D01*
X142286953Y-47852981D02*
X142334572Y-47757743D01*
X142334572Y-47757743D02*
X142429810Y-47710124D01*
X142429810Y-47710124D02*
X142572667Y-47710124D01*
X142572667Y-47710124D02*
X142667905Y-47757743D01*
X142667905Y-47757743D02*
X142715524Y-47805362D01*
X141906000Y-47710124D02*
X141715524Y-48376791D01*
X141715524Y-48376791D02*
X141525048Y-47900600D01*
X141525048Y-47900600D02*
X141334572Y-48376791D01*
X141334572Y-48376791D02*
X141144096Y-47710124D01*
X140763143Y-48376791D02*
X140763143Y-47710124D01*
X140763143Y-47900600D02*
X140715524Y-47805362D01*
X140715524Y-47805362D02*
X140667905Y-47757743D01*
X140667905Y-47757743D02*
X140572667Y-47710124D01*
X140572667Y-47710124D02*
X140477429Y-47710124D01*
X140144095Y-48281552D02*
X140096476Y-48329172D01*
X140096476Y-48329172D02*
X140144095Y-48376791D01*
X140144095Y-48376791D02*
X140191714Y-48329172D01*
X140191714Y-48329172D02*
X140144095Y-48281552D01*
X140144095Y-48281552D02*
X140144095Y-48376791D01*
X139525048Y-48376791D02*
X139620286Y-48329172D01*
X139620286Y-48329172D02*
X139667905Y-48281552D01*
X139667905Y-48281552D02*
X139715524Y-48186314D01*
X139715524Y-48186314D02*
X139715524Y-47900600D01*
X139715524Y-47900600D02*
X139667905Y-47805362D01*
X139667905Y-47805362D02*
X139620286Y-47757743D01*
X139620286Y-47757743D02*
X139525048Y-47710124D01*
X139525048Y-47710124D02*
X139382191Y-47710124D01*
X139382191Y-47710124D02*
X139286953Y-47757743D01*
X139286953Y-47757743D02*
X139239334Y-47805362D01*
X139239334Y-47805362D02*
X139191715Y-47900600D01*
X139191715Y-47900600D02*
X139191715Y-48186314D01*
X139191715Y-48186314D02*
X139239334Y-48281552D01*
X139239334Y-48281552D02*
X139286953Y-48329172D01*
X139286953Y-48329172D02*
X139382191Y-48376791D01*
X139382191Y-48376791D02*
X139525048Y-48376791D01*
X138763143Y-48376791D02*
X138763143Y-47710124D01*
X138763143Y-47900600D02*
X138715524Y-47805362D01*
X138715524Y-47805362D02*
X138667905Y-47757743D01*
X138667905Y-47757743D02*
X138572667Y-47710124D01*
X138572667Y-47710124D02*
X138477429Y-47710124D01*
X137715524Y-47710124D02*
X137715524Y-48519648D01*
X137715524Y-48519648D02*
X137763143Y-48614886D01*
X137763143Y-48614886D02*
X137810762Y-48662505D01*
X137810762Y-48662505D02*
X137906000Y-48710124D01*
X137906000Y-48710124D02*
X138048857Y-48710124D01*
X138048857Y-48710124D02*
X138144095Y-48662505D01*
X137715524Y-48329172D02*
X137810762Y-48376791D01*
X137810762Y-48376791D02*
X138001238Y-48376791D01*
X138001238Y-48376791D02*
X138096476Y-48329172D01*
X138096476Y-48329172D02*
X138144095Y-48281552D01*
X138144095Y-48281552D02*
X138191714Y-48186314D01*
X138191714Y-48186314D02*
X138191714Y-47900600D01*
X138191714Y-47900600D02*
X138144095Y-47805362D01*
X138144095Y-47805362D02*
X138096476Y-47757743D01*
X138096476Y-47757743D02*
X138001238Y-47710124D01*
X138001238Y-47710124D02*
X137810762Y-47710124D01*
X137810762Y-47710124D02*
X137715524Y-47757743D01*
X136525048Y-47329172D02*
X137382190Y-48614886D01*
X135763143Y-48329172D02*
X135858381Y-48376791D01*
X135858381Y-48376791D02*
X136048857Y-48376791D01*
X136048857Y-48376791D02*
X136144095Y-48329172D01*
X136144095Y-48329172D02*
X136191714Y-48281552D01*
X136191714Y-48281552D02*
X136239333Y-48186314D01*
X136239333Y-48186314D02*
X136239333Y-47900600D01*
X136239333Y-47900600D02*
X136191714Y-47805362D01*
X136191714Y-47805362D02*
X136144095Y-47757743D01*
X136144095Y-47757743D02*
X136048857Y-47710124D01*
X136048857Y-47710124D02*
X135858381Y-47710124D01*
X135858381Y-47710124D02*
X135763143Y-47757743D01*
X134953619Y-48329172D02*
X135048857Y-48376791D01*
X135048857Y-48376791D02*
X135239333Y-48376791D01*
X135239333Y-48376791D02*
X135334571Y-48329172D01*
X135334571Y-48329172D02*
X135382190Y-48233933D01*
X135382190Y-48233933D02*
X135382190Y-47852981D01*
X135382190Y-47852981D02*
X135334571Y-47757743D01*
X135334571Y-47757743D02*
X135239333Y-47710124D01*
X135239333Y-47710124D02*
X135048857Y-47710124D01*
X135048857Y-47710124D02*
X134953619Y-47757743D01*
X134953619Y-47757743D02*
X134906000Y-47852981D01*
X134906000Y-47852981D02*
X134906000Y-47948219D01*
X134906000Y-47948219D02*
X135382190Y-48043457D01*
X134477428Y-48376791D02*
X134477428Y-47710124D01*
X134477428Y-47900600D02*
X134429809Y-47805362D01*
X134429809Y-47805362D02*
X134382190Y-47757743D01*
X134382190Y-47757743D02*
X134286952Y-47710124D01*
X134286952Y-47710124D02*
X134191714Y-47710124D01*
X133858380Y-47710124D02*
X133858380Y-48376791D01*
X133858380Y-47805362D02*
X133810761Y-47757743D01*
X133810761Y-47757743D02*
X133715523Y-47710124D01*
X133715523Y-47710124D02*
X133572666Y-47710124D01*
X133572666Y-47710124D02*
X133477428Y-47757743D01*
X133477428Y-47757743D02*
X133429809Y-47852981D01*
X133429809Y-47852981D02*
X133429809Y-48376791D01*
X133191714Y-48472029D02*
X132429809Y-48472029D01*
X132048856Y-48376791D02*
X132144094Y-48329172D01*
X132144094Y-48329172D02*
X132191713Y-48281552D01*
X132191713Y-48281552D02*
X132239332Y-48186314D01*
X132239332Y-48186314D02*
X132239332Y-47900600D01*
X132239332Y-47900600D02*
X132191713Y-47805362D01*
X132191713Y-47805362D02*
X132144094Y-47757743D01*
X132144094Y-47757743D02*
X132048856Y-47710124D01*
X132048856Y-47710124D02*
X131905999Y-47710124D01*
X131905999Y-47710124D02*
X131810761Y-47757743D01*
X131810761Y-47757743D02*
X131763142Y-47805362D01*
X131763142Y-47805362D02*
X131715523Y-47900600D01*
X131715523Y-47900600D02*
X131715523Y-48186314D01*
X131715523Y-48186314D02*
X131763142Y-48281552D01*
X131763142Y-48281552D02*
X131810761Y-48329172D01*
X131810761Y-48329172D02*
X131905999Y-48376791D01*
X131905999Y-48376791D02*
X132048856Y-48376791D01*
X131286951Y-48376791D02*
X131286951Y-47376791D01*
X130858380Y-48376791D02*
X130858380Y-47852981D01*
X130858380Y-47852981D02*
X130905999Y-47757743D01*
X130905999Y-47757743D02*
X131001237Y-47710124D01*
X131001237Y-47710124D02*
X131144094Y-47710124D01*
X131144094Y-47710124D02*
X131239332Y-47757743D01*
X131239332Y-47757743D02*
X131286951Y-47805362D01*
X130239332Y-48376791D02*
X130334570Y-48329172D01*
X130334570Y-48329172D02*
X130382189Y-48233933D01*
X130382189Y-48233933D02*
X130382189Y-47376791D01*
X130096475Y-48472029D02*
X129334570Y-48472029D01*
X129144093Y-48329172D02*
X129048855Y-48376791D01*
X129048855Y-48376791D02*
X128858379Y-48376791D01*
X128858379Y-48376791D02*
X128763141Y-48329172D01*
X128763141Y-48329172D02*
X128715522Y-48233933D01*
X128715522Y-48233933D02*
X128715522Y-48186314D01*
X128715522Y-48186314D02*
X128763141Y-48091076D01*
X128763141Y-48091076D02*
X128858379Y-48043457D01*
X128858379Y-48043457D02*
X129001236Y-48043457D01*
X129001236Y-48043457D02*
X129096474Y-47995838D01*
X129096474Y-47995838D02*
X129144093Y-47900600D01*
X129144093Y-47900600D02*
X129144093Y-47852981D01*
X129144093Y-47852981D02*
X129096474Y-47757743D01*
X129096474Y-47757743D02*
X129001236Y-47710124D01*
X129001236Y-47710124D02*
X128858379Y-47710124D01*
X128858379Y-47710124D02*
X128763141Y-47757743D01*
X128525046Y-48472029D02*
X127763141Y-48472029D01*
X127620283Y-47710124D02*
X127382188Y-48376791D01*
X127382188Y-48376791D02*
X127144093Y-47710124D01*
X126810759Y-47472029D02*
X126763140Y-47424410D01*
X126763140Y-47424410D02*
X126667902Y-47376791D01*
X126667902Y-47376791D02*
X126429807Y-47376791D01*
X126429807Y-47376791D02*
X126334569Y-47424410D01*
X126334569Y-47424410D02*
X126286950Y-47472029D01*
X126286950Y-47472029D02*
X126239331Y-47567267D01*
X126239331Y-47567267D02*
X126239331Y-47662505D01*
X126239331Y-47662505D02*
X126286950Y-47805362D01*
X126286950Y-47805362D02*
X126858378Y-48376791D01*
X126858378Y-48376791D02*
X126239331Y-48376791D01*
X125810759Y-48281552D02*
X125763140Y-48329172D01*
X125763140Y-48329172D02*
X125810759Y-48376791D01*
X125810759Y-48376791D02*
X125858378Y-48329172D01*
X125858378Y-48329172D02*
X125810759Y-48281552D01*
X125810759Y-48281552D02*
X125810759Y-48376791D01*
X125477426Y-47710124D02*
X125096474Y-47710124D01*
X125334569Y-47376791D02*
X125334569Y-48233933D01*
X125334569Y-48233933D02*
X125286950Y-48329172D01*
X125286950Y-48329172D02*
X125191712Y-48376791D01*
X125191712Y-48376791D02*
X125096474Y-48376791D01*
X124858378Y-48376791D02*
X124334569Y-47710124D01*
X124858378Y-47710124D02*
X124334569Y-48376791D01*
X124096473Y-47710124D02*
X123715521Y-47710124D01*
X123953616Y-47376791D02*
X123953616Y-48233933D01*
X123953616Y-48233933D02*
X123905997Y-48329172D01*
X123905997Y-48329172D02*
X123810759Y-48376791D01*
X123810759Y-48376791D02*
X123715521Y-48376791D01*
D11*
X48006000Y-48133000D03*
X45466000Y-64793000D03*
X48006000Y-64793000D03*
X50546000Y-64793000D03*
X168402000Y-87503000D03*
X168402000Y-84963000D03*
X168402000Y-82423000D03*
X168402000Y-79883000D03*
X168402000Y-77343000D03*
X168402000Y-74803000D03*
X168402000Y-72263000D03*
X168402000Y-69723000D03*
X160782000Y-69723000D03*
X160782000Y-72263000D03*
X160782000Y-74803000D03*
X160782000Y-77343000D03*
X160782000Y-79883000D03*
X160782000Y-82423000D03*
X160782000Y-84963000D03*
X160782000Y-87503000D03*
X173910000Y-115951000D03*
X168910000Y-115951000D03*
X40894000Y-59793000D03*
X40894000Y-64793000D03*
X148982500Y-54483000D03*
X148982500Y-72483000D03*
X104257000Y-77338000D03*
X104257000Y-74798000D03*
X104257000Y-72258000D03*
X104257000Y-69718000D03*
X104257000Y-67178000D03*
X104257000Y-64638000D03*
X104257000Y-62098000D03*
X104257000Y-59558000D03*
X104257000Y-57018000D03*
X104257000Y-54478000D03*
X96637000Y-54478000D03*
X96637000Y-57018000D03*
X96637000Y-59558000D03*
X96637000Y-62098000D03*
X96637000Y-64638000D03*
X96637000Y-67178000D03*
X96637000Y-69718000D03*
X96637000Y-72258000D03*
X96637000Y-74798000D03*
X96637000Y-77338000D03*
X142494000Y-121031000D03*
X152654000Y-121031000D03*
X182118000Y-105283000D03*
X182118000Y-102743000D03*
X182118000Y-100203000D03*
X182118000Y-97663000D03*
X182118000Y-95123000D03*
X182118000Y-92583000D03*
X182118000Y-90043000D03*
X182118000Y-87503000D03*
X182118000Y-84963000D03*
X182118000Y-82423000D03*
X174498000Y-82423000D03*
X174498000Y-84963000D03*
X174498000Y-87503000D03*
X174498000Y-90043000D03*
X174498000Y-92583000D03*
X174498000Y-95123000D03*
X174498000Y-97663000D03*
X174498000Y-100203000D03*
X174498000Y-102743000D03*
X174498000Y-105283000D03*
X143510000Y-77343000D03*
X143510000Y-74803000D03*
X143510000Y-72263000D03*
X143510000Y-69723000D03*
X143510000Y-67183000D03*
X143510000Y-64643000D03*
X143510000Y-62103000D03*
X143510000Y-59563000D03*
X143510000Y-57023000D03*
X143510000Y-54483000D03*
X135890000Y-54483000D03*
X135890000Y-57023000D03*
X135890000Y-59563000D03*
X135890000Y-62103000D03*
X135890000Y-64643000D03*
X135890000Y-67183000D03*
X135890000Y-69723000D03*
X135890000Y-72263000D03*
X135890000Y-74803000D03*
X135890000Y-77343000D03*
X137287000Y-120523000D03*
X134747000Y-120523000D03*
X132207000Y-120523000D03*
X129667000Y-120523000D03*
X127127000Y-120523000D03*
X124587000Y-120523000D03*
X122047000Y-120523000D03*
X119507000Y-120523000D03*
X116967000Y-120523000D03*
X114427000Y-120523000D03*
X111887000Y-120523000D03*
X109347000Y-120523000D03*
X106807000Y-120523000D03*
X104267000Y-120523000D03*
X104267000Y-135763000D03*
X106807000Y-135763000D03*
X109347000Y-135763000D03*
X111887000Y-135763000D03*
X114427000Y-135763000D03*
X116967000Y-135763000D03*
X119507000Y-135763000D03*
X122047000Y-135763000D03*
X124587000Y-135763000D03*
X127127000Y-135763000D03*
X129667000Y-135763000D03*
X132207000Y-135763000D03*
X134747000Y-135763000D03*
X137287000Y-135763000D03*
X165354000Y-136271000D03*
X175514000Y-136271000D03*
X198882000Y-49403000D03*
X198882000Y-138303000D03*
X196342000Y-54483000D03*
X196342000Y-57023000D03*
X196342000Y-59563000D03*
X196342000Y-62103000D03*
X196342000Y-64643000D03*
X196342000Y-67183000D03*
X196342000Y-69723000D03*
X196342000Y-72263000D03*
X196342000Y-74803000D03*
X196342000Y-77343000D03*
X196342000Y-79883000D03*
X196342000Y-82423000D03*
X196342000Y-84963000D03*
X196342000Y-87503000D03*
X196342000Y-90043000D03*
X196342000Y-92583000D03*
X196342000Y-95123000D03*
X196342000Y-97663000D03*
X196342000Y-100203000D03*
X196342000Y-102743000D03*
X196342000Y-105283000D03*
X196342000Y-107823000D03*
X196342000Y-110363000D03*
X196342000Y-112903000D03*
X196342000Y-115443000D03*
X196342000Y-117983000D03*
X196342000Y-120523000D03*
X196342000Y-123063000D03*
X196342000Y-125603000D03*
X196342000Y-128143000D03*
X196342000Y-130683000D03*
X196342000Y-133223000D03*
X193802000Y-54483000D03*
X193802000Y-57023000D03*
X193802000Y-59563000D03*
X193802000Y-62103000D03*
X193802000Y-64643000D03*
X193802000Y-67183000D03*
X193802000Y-69723000D03*
X193802000Y-72263000D03*
X193802000Y-74803000D03*
X193802000Y-77343000D03*
X193802000Y-79883000D03*
X193802000Y-82423000D03*
X193802000Y-84963000D03*
X193802000Y-87503000D03*
X193802000Y-90043000D03*
X193802000Y-92583000D03*
X193802000Y-95123000D03*
X193802000Y-97663000D03*
X193802000Y-100203000D03*
X193802000Y-102743000D03*
X193802000Y-105283000D03*
X193802000Y-107823000D03*
X193802000Y-110363000D03*
X193802000Y-112903000D03*
X193802000Y-115443000D03*
X193802000Y-117983000D03*
X193802000Y-120523000D03*
X193802000Y-123063000D03*
X193802000Y-125603000D03*
X193802000Y-128143000D03*
X193802000Y-130683000D03*
X193802000Y-133223000D03*
X142494000Y-131191000D03*
X147394000Y-131191000D03*
X152654000Y-133731000D03*
X162814000Y-133731000D03*
X52070000Y-114427000D03*
X49530000Y-114427000D03*
X52070000Y-111887000D03*
X49530000Y-111887000D03*
X52070000Y-109347000D03*
X49530000Y-109347000D03*
X52070000Y-106807000D03*
X49530000Y-106807000D03*
X52070000Y-104267000D03*
X49530000Y-104267000D03*
X52070000Y-101727000D03*
X49530000Y-101727000D03*
X52070000Y-99187000D03*
X49530000Y-99187000D03*
X52070000Y-96647000D03*
X49530000Y-96647000D03*
X52070000Y-94107000D03*
X49530000Y-94107000D03*
X52070000Y-91567000D03*
X49530000Y-91567000D03*
X52070000Y-89027000D03*
X49530000Y-89027000D03*
X52070000Y-86487000D03*
X49530000Y-86487000D03*
X52070000Y-83947000D03*
X49530000Y-83947000D03*
X52070000Y-81407000D03*
X49530000Y-81407000D03*
X52070000Y-78867000D03*
X49530000Y-78867000D03*
X52070000Y-76327000D03*
X49530000Y-76327000D03*
X52070000Y-73787000D03*
X49530000Y-73787000D03*
X168402000Y-53467000D03*
X162814000Y-136271000D03*
X152654000Y-136271000D03*
X55118000Y-59643000D03*
X55118000Y-64643000D03*
X101647000Y-82931000D03*
X96647000Y-82931000D03*
X89027000Y-120523000D03*
X86487000Y-120523000D03*
X83947000Y-120523000D03*
X81407000Y-120523000D03*
X78867000Y-120523000D03*
X76327000Y-120523000D03*
X73787000Y-120523000D03*
X71247000Y-120523000D03*
X68707000Y-120523000D03*
X66167000Y-120523000D03*
X63627000Y-120523000D03*
X61087000Y-120523000D03*
X58547000Y-120523000D03*
X56007000Y-120523000D03*
X56007000Y-135763000D03*
X58547000Y-135763000D03*
X61087000Y-135763000D03*
X63627000Y-135763000D03*
X66167000Y-135763000D03*
X68707000Y-135763000D03*
X71247000Y-135763000D03*
X73787000Y-135763000D03*
X76327000Y-135763000D03*
X78867000Y-135763000D03*
X81407000Y-135763000D03*
X83947000Y-135763000D03*
X86487000Y-135763000D03*
X89027000Y-135763000D03*
X140890000Y-82931000D03*
X135890000Y-82931000D03*
X99227000Y-113411000D03*
X104227000Y-113411000D03*
X161798000Y-53467000D03*
X178054000Y-69723000D03*
X188214000Y-69723000D03*
X142494000Y-126111000D03*
X152654000Y-126111000D03*
X64885500Y-51723000D03*
X64885500Y-69723000D03*
X171958000Y-53467000D03*
X185674000Y-133731000D03*
X185674000Y-131191000D03*
X185674000Y-128651000D03*
X185674000Y-126111000D03*
X185674000Y-123571000D03*
X185674000Y-121031000D03*
X185674000Y-118491000D03*
X185674000Y-115951000D03*
X185674000Y-113411000D03*
X185674000Y-110871000D03*
X178054000Y-110871000D03*
X178054000Y-113411000D03*
X178054000Y-115951000D03*
X178054000Y-118491000D03*
X178054000Y-121031000D03*
X178054000Y-123571000D03*
X178054000Y-126111000D03*
X178054000Y-128651000D03*
X178054000Y-131191000D03*
X178054000Y-133731000D03*
X132842000Y-77338000D03*
X132842000Y-74798000D03*
X132842000Y-72258000D03*
X132842000Y-69718000D03*
X132842000Y-67178000D03*
X132842000Y-64638000D03*
X132842000Y-62098000D03*
X132842000Y-59558000D03*
X132842000Y-57018000D03*
X132842000Y-54478000D03*
X125222000Y-54478000D03*
X125222000Y-57018000D03*
X125222000Y-59558000D03*
X125222000Y-62098000D03*
X125222000Y-64638000D03*
X125222000Y-67178000D03*
X125222000Y-69718000D03*
X125222000Y-72258000D03*
X125222000Y-74798000D03*
X125222000Y-77338000D03*
X161798000Y-62103000D03*
X171958000Y-62103000D03*
X80010000Y-82931000D03*
X85010000Y-82931000D03*
X165354000Y-133731000D03*
X175514000Y-133731000D03*
X92086500Y-54483000D03*
X92086500Y-72483000D03*
X76962000Y-110363000D03*
X76962000Y-107823000D03*
X76962000Y-105283000D03*
X76962000Y-102743000D03*
X76962000Y-100203000D03*
X76962000Y-97663000D03*
X76962000Y-95123000D03*
X76962000Y-92583000D03*
X69342000Y-92583000D03*
X69342000Y-95123000D03*
X69342000Y-97663000D03*
X69342000Y-100203000D03*
X69342000Y-102743000D03*
X69342000Y-105283000D03*
X69342000Y-107823000D03*
X69342000Y-110363000D03*
X165354000Y-121031000D03*
X175514000Y-121031000D03*
X168402000Y-107823000D03*
X168402000Y-105283000D03*
X168402000Y-102743000D03*
X168402000Y-100203000D03*
X168402000Y-97663000D03*
X168402000Y-95123000D03*
X168402000Y-92583000D03*
X168402000Y-90043000D03*
X160782000Y-90043000D03*
X160782000Y-92583000D03*
X160782000Y-95123000D03*
X160782000Y-97663000D03*
X160782000Y-100203000D03*
X160782000Y-102743000D03*
X160782000Y-105283000D03*
X160782000Y-107823000D03*
X51562000Y-139573000D03*
X51562000Y-137033000D03*
X51562000Y-134493000D03*
X51562000Y-131953000D03*
X51562000Y-129413000D03*
X51562000Y-126873000D03*
X51562000Y-124333000D03*
X51562000Y-121793000D03*
X43942000Y-121793000D03*
X43942000Y-124333000D03*
X43942000Y-126873000D03*
X43942000Y-129413000D03*
X43942000Y-131953000D03*
X43942000Y-134493000D03*
X43942000Y-137033000D03*
X43942000Y-139573000D03*
X165354000Y-118491000D03*
X175514000Y-118491000D03*
X168990000Y-110871000D03*
X173990000Y-110871000D03*
X59817000Y-100711000D03*
X59817000Y-110871000D03*
X165354000Y-113411000D03*
X175514000Y-113411000D03*
X120257500Y-54627000D03*
X120257500Y-72627000D03*
X130222000Y-82931000D03*
X125222000Y-82931000D03*
X178054000Y-72263000D03*
X188214000Y-72263000D03*
X107442000Y-82931000D03*
X112442000Y-82931000D03*
X100457000Y-135763000D03*
X100457000Y-133223000D03*
X100457000Y-130683000D03*
X100457000Y-128143000D03*
X100457000Y-125603000D03*
X100457000Y-123063000D03*
X100457000Y-120523000D03*
X92837000Y-120523000D03*
X92837000Y-123063000D03*
X92837000Y-125603000D03*
X92837000Y-128143000D03*
X92837000Y-130683000D03*
X92837000Y-133223000D03*
X92837000Y-135763000D03*
X76962000Y-77343000D03*
X76962000Y-74803000D03*
X76962000Y-72263000D03*
X76962000Y-69723000D03*
X76962000Y-67183000D03*
X76962000Y-64643000D03*
X76962000Y-62103000D03*
X76962000Y-59563000D03*
X76962000Y-57023000D03*
X76962000Y-54483000D03*
X69342000Y-54483000D03*
X69342000Y-57023000D03*
X69342000Y-59563000D03*
X69342000Y-62103000D03*
X69342000Y-64643000D03*
X69342000Y-67183000D03*
X69342000Y-69723000D03*
X69342000Y-72263000D03*
X69342000Y-74803000D03*
X69342000Y-77343000D03*
X142494000Y-123571000D03*
X152654000Y-123571000D03*
X74342000Y-82931000D03*
X69342000Y-82931000D03*
X165354000Y-126111000D03*
X175514000Y-126111000D03*
X165354000Y-131191000D03*
X175514000Y-131191000D03*
X59817000Y-77851000D03*
X59817000Y-88011000D03*
X185674000Y-67183000D03*
X185674000Y-64643000D03*
X185674000Y-62103000D03*
X185674000Y-59563000D03*
X185674000Y-57023000D03*
X185674000Y-54483000D03*
X185674000Y-51943000D03*
X185674000Y-49403000D03*
X178054000Y-49403000D03*
X178054000Y-51943000D03*
X178054000Y-54483000D03*
X178054000Y-57023000D03*
X178054000Y-59563000D03*
X178054000Y-62103000D03*
X178054000Y-64643000D03*
X178054000Y-67183000D03*
X162814000Y-126111000D03*
X162814000Y-123571000D03*
X162814000Y-121031000D03*
X162814000Y-118491000D03*
X162814000Y-115951000D03*
X162814000Y-113411000D03*
X162814000Y-110871000D03*
X155194000Y-110871000D03*
X155194000Y-113411000D03*
X155194000Y-115951000D03*
X155194000Y-118491000D03*
X155194000Y-121031000D03*
X155194000Y-123571000D03*
X155194000Y-126111000D03*
X155194000Y-131191000D03*
X160194000Y-131191000D03*
X169418000Y-123571000D03*
X174418000Y-123571000D03*
X187706000Y-95203000D03*
X187706000Y-100203000D03*
X115062000Y-77343000D03*
X115062000Y-74803000D03*
X115062000Y-72263000D03*
X115062000Y-69723000D03*
X115062000Y-67183000D03*
X115062000Y-64643000D03*
X115062000Y-62103000D03*
X115062000Y-59563000D03*
X115062000Y-57023000D03*
X115062000Y-54483000D03*
X107442000Y-54483000D03*
X107442000Y-57023000D03*
X107442000Y-59563000D03*
X107442000Y-62103000D03*
X107442000Y-64643000D03*
X107442000Y-67183000D03*
X107442000Y-69723000D03*
X107442000Y-72263000D03*
X107442000Y-74803000D03*
X107442000Y-77343000D03*
X56642000Y-100711000D03*
X56642000Y-110871000D03*
X59297500Y-51723000D03*
X59297500Y-69723000D03*
X152614000Y-128651000D03*
X162774000Y-128651000D03*
X142534000Y-136271000D03*
X147534000Y-136271000D03*
X87757000Y-77343000D03*
X87757000Y-74803000D03*
X87757000Y-72263000D03*
X87757000Y-69723000D03*
X87757000Y-67183000D03*
X87757000Y-64643000D03*
X87757000Y-62103000D03*
X87757000Y-59563000D03*
X87757000Y-57023000D03*
X87757000Y-54483000D03*
X80137000Y-54483000D03*
X80137000Y-57023000D03*
X80137000Y-59563000D03*
X80137000Y-62103000D03*
X80137000Y-64643000D03*
X80137000Y-67183000D03*
X80137000Y-69723000D03*
X80137000Y-72263000D03*
X80137000Y-74803000D03*
X80137000Y-77343000D03*
X56642000Y-77851000D03*
X56642000Y-88011000D03*
M02*
