M48
; DRILL file {KiCad 8.0.3+1} date 2024-07-26T18:12:46+0200
; FORMAT={-:-/ absolute / metric / decimal}
; #@! TF.CreationDate,2024-07-26T18:12:46+02:00
; #@! TF.GenerationSoftware,Kicad,Pcbnew,8.0.3+1
; #@! TF.FileFunction,MixedPlating,1,2
FMAT,2
METRIC
; #@! TA.AperFunction,Plated,PTH,ViaDrill
T1C0.400
; #@! TA.AperFunction,Plated,PTH,ViaDrill
T2C0.800
; #@! TA.AperFunction,Plated,PTH,ComponentDrill
T3C0.800
; #@! TA.AperFunction,Plated,PTH,ComponentDrill
T4C1.000
; #@! TA.AperFunction,Plated,PTH,ComponentDrill
T5C1.100
; #@! TA.AperFunction,Plated,PTH,ComponentDrill
T6C1.200
; #@! TA.AperFunction,NonPlated,NPTH,ComponentDrill
T7C2.850
; #@! TA.AperFunction,NonPlated,NPTH,ComponentDrill
T8C3.500
%
G90
G05
T1
X44.874Y-118.052
X56.007Y-140.335
X58.547Y-117.348
X58.547Y-124.333
X58.674Y-123.063
X60.452Y-103.378
X60.452Y-104.648
X60.452Y-106.553
X60.452Y-117.348
X63.627Y-131.953
X66.167Y-129.413
X66.802Y-110.871
X71.247Y-112.178
X73.787Y-117.983
X73.787Y-129.413
X76.327Y-129.413
X78.867Y-129.413
X80.772Y-93.218
X81.407Y-129.413
X82.042Y-95.123
X83.566Y-97.028
X85.217Y-98.933
X86.487Y-101.473
X87.757Y-117.983
X88.392Y-103.378
X90.297Y-107.823
X91.567Y-105.918
X94.996Y-52.959
X95.377Y-117.983
X95.377Y-119.253
X98.298Y-93.218
X99.822Y-95.123
X100.457Y-116.078
X101.727Y-141.478
X102.997Y-97.028
X102.997Y-98.933
X104.267Y-123.063
X105.537Y-101.473
X106.807Y-103.378
X109.347Y-105.918
X112.014Y-107.823
X112.014Y-137.795
X113.157Y-117.348
X116.332Y-95.123
X116.332Y-97.028
X116.332Y-98.933
X116.332Y-101.473
X116.332Y-103.378
X116.332Y-105.918
X116.365Y-93.218
X119.634Y-126.873
X120.777Y-119.253
X120.777Y-133.384
X122.047Y-117.348
X122.047Y-126.873
X122.174Y-125.349
X123.317Y-110.363
X123.952Y-116.713
X124.587Y-128.143
X127.254Y-126.873
X129.295Y-74.049
X129.794Y-126.873
X136.652Y-117.348
X140.97Y-94.107
X141.849Y-66.772
X143.256Y-93.599
X144.272Y-101.473
X144.526Y-93.599
X145.288Y-79.121
X145.542Y-105.283
X147.086Y-115.57
X147.32Y-75.819
X148.844Y-116.459
X149.352Y-98.933
X149.915Y-84.934
X150.622Y-102.743
X150.865Y-130.766
X151.892Y-91.313
X152.65Y-90.047
X153.924Y-89.027
X154.518Y-68.646
X154.518Y-73.771
X155.448Y-53.467
X155.448Y-60.579
X155.702Y-93.853
X156.839Y-64.202
X157.856Y-69.832
X157.856Y-74.402
X157.988Y-83.693
X160.571Y-116.548
X161.464Y-122.729
X161.496Y-111.906
X161.798Y-78.613
X162.197Y-66.47
X162.56Y-60.325
X163.081Y-96.286
X164.155Y-105.872
X164.479Y-111.542
X165.299Y-92.967
X165.354Y-76.835
X166.116Y-81.153
X166.562Y-92.971
X170.628Y-83.065
X170.942Y-90.043
X172.212Y-58.241
X172.945Y-90.032
X172.974Y-108.585
X173.093Y-103.228
X173.482Y-76.327
X174.244Y-55.626
X174.244Y-59.817
X174.752Y-77.343
X175.514Y-110.617
X175.81Y-103.872
X177.546Y-81.661
X177.878Y-92.559
X179.324Y-78.613
X179.913Y-93.559
X180.106Y-99.79
X180.107Y-98.025
X180.428Y-88.296
X180.51Y-67.111
X181.875Y-115.697
X181.879Y-132.713
X183.707Y-96.663
X186.69Y-77.597
X186.69Y-79.375
X186.69Y-81.153
X187.452Y-63.373
X188.976Y-77.597
X188.976Y-79.375
X188.976Y-81.153
X189.474Y-99.67
X189.484Y-63.373
X189.498Y-92.387
X190.246Y-110.363
T2
X64.77Y-86.487
X64.77Y-89.027
T3
X40.894Y-59.793
X40.894Y-64.793
X43.942Y-121.793
X43.942Y-124.333
X43.942Y-126.873
X43.942Y-129.413
X43.942Y-131.953
X43.942Y-134.493
X43.942Y-137.033
X43.942Y-139.573
X51.562Y-121.793
X51.562Y-124.333
X51.562Y-126.873
X51.562Y-129.413
X51.562Y-131.953
X51.562Y-134.493
X51.562Y-137.033
X51.562Y-139.573
X55.118Y-59.643
X55.118Y-64.643
X56.007Y-120.523
X56.007Y-135.763
X56.642Y-77.851
X56.642Y-88.011
X56.642Y-100.711
X56.642Y-110.871
X58.547Y-120.523
X58.547Y-135.763
X59.817Y-77.851
X59.817Y-88.011
X59.817Y-100.711
X59.817Y-110.871
X61.087Y-120.523
X61.087Y-135.763
X63.627Y-120.523
X63.627Y-135.763
X66.167Y-120.523
X66.167Y-135.763
X68.707Y-120.523
X68.707Y-135.763
X69.342Y-54.483
X69.342Y-57.023
X69.342Y-59.563
X69.342Y-62.103
X69.342Y-64.643
X69.342Y-67.183
X69.342Y-69.723
X69.342Y-72.263
X69.342Y-74.803
X69.342Y-77.343
X69.342Y-82.931
X69.342Y-92.583
X69.342Y-95.123
X69.342Y-97.663
X69.342Y-100.203
X69.342Y-102.743
X69.342Y-105.283
X69.342Y-107.823
X69.342Y-110.363
X71.247Y-120.523
X71.247Y-135.763
X73.787Y-120.523
X73.787Y-135.763
X74.342Y-82.931
X76.327Y-120.523
X76.327Y-135.763
X76.962Y-54.483
X76.962Y-57.023
X76.962Y-59.563
X76.962Y-62.103
X76.962Y-64.643
X76.962Y-67.183
X76.962Y-69.723
X76.962Y-72.263
X76.962Y-74.803
X76.962Y-77.343
X76.962Y-92.583
X76.962Y-95.123
X76.962Y-97.663
X76.962Y-100.203
X76.962Y-102.743
X76.962Y-105.283
X76.962Y-107.823
X76.962Y-110.363
X78.867Y-120.523
X78.867Y-135.763
X80.01Y-82.931
X80.137Y-54.483
X80.137Y-57.023
X80.137Y-59.563
X80.137Y-62.103
X80.137Y-64.643
X80.137Y-67.183
X80.137Y-69.723
X80.137Y-72.263
X80.137Y-74.803
X80.137Y-77.343
X81.407Y-120.523
X81.407Y-135.763
X83.947Y-120.523
X83.947Y-135.763
X85.01Y-82.931
X86.487Y-120.523
X86.487Y-135.763
X87.757Y-54.483
X87.757Y-57.023
X87.757Y-59.563
X87.757Y-62.103
X87.757Y-64.643
X87.757Y-67.183
X87.757Y-69.723
X87.757Y-72.263
X87.757Y-74.803
X87.757Y-77.343
X89.027Y-120.523
X89.027Y-135.763
X92.837Y-120.523
X92.837Y-123.063
X92.837Y-125.603
X92.837Y-128.143
X92.837Y-130.683
X92.837Y-133.223
X92.837Y-135.763
X96.637Y-54.478
X96.637Y-57.018
X96.637Y-59.558
X96.637Y-62.098
X96.637Y-64.638
X96.637Y-67.178
X96.637Y-69.718
X96.637Y-72.258
X96.637Y-74.798
X96.637Y-77.338
X96.647Y-82.931
X99.227Y-113.411
X100.457Y-120.523
X100.457Y-123.063
X100.457Y-125.603
X100.457Y-128.143
X100.457Y-130.683
X100.457Y-133.223
X100.457Y-135.763
X101.647Y-82.931
X104.227Y-113.411
X104.257Y-54.478
X104.257Y-57.018
X104.257Y-59.558
X104.257Y-62.098
X104.257Y-64.638
X104.257Y-67.178
X104.257Y-69.718
X104.257Y-72.258
X104.257Y-74.798
X104.257Y-77.338
X104.267Y-120.523
X104.267Y-135.763
X106.807Y-120.523
X106.807Y-135.763
X107.442Y-54.483
X107.442Y-57.023
X107.442Y-59.563
X107.442Y-62.103
X107.442Y-64.643
X107.442Y-67.183
X107.442Y-69.723
X107.442Y-72.263
X107.442Y-74.803
X107.442Y-77.343
X107.442Y-82.931
X109.347Y-120.523
X109.347Y-135.763
X111.887Y-120.523
X111.887Y-135.763
X112.442Y-82.931
X114.427Y-120.523
X114.427Y-135.763
X115.062Y-54.483
X115.062Y-57.023
X115.062Y-59.563
X115.062Y-62.103
X115.062Y-64.643
X115.062Y-67.183
X115.062Y-69.723
X115.062Y-72.263
X115.062Y-74.803
X115.062Y-77.343
X116.967Y-120.523
X116.967Y-135.763
X119.507Y-120.523
X119.507Y-135.763
X122.047Y-120.523
X122.047Y-135.763
X124.587Y-120.523
X124.587Y-135.763
X125.222Y-54.478
X125.222Y-57.018
X125.222Y-59.558
X125.222Y-62.098
X125.222Y-64.638
X125.222Y-67.178
X125.222Y-69.718
X125.222Y-72.258
X125.222Y-74.798
X125.222Y-77.338
X125.222Y-82.931
X127.127Y-120.523
X127.127Y-135.763
X129.667Y-120.523
X129.667Y-135.763
X130.222Y-82.931
X132.207Y-120.523
X132.207Y-135.763
X132.842Y-54.478
X132.842Y-57.018
X132.842Y-59.558
X132.842Y-62.098
X132.842Y-64.638
X132.842Y-67.178
X132.842Y-69.718
X132.842Y-72.258
X132.842Y-74.798
X132.842Y-77.338
X134.747Y-120.523
X134.747Y-135.763
X135.89Y-54.483
X135.89Y-57.023
X135.89Y-59.563
X135.89Y-62.103
X135.89Y-64.643
X135.89Y-67.183
X135.89Y-69.723
X135.89Y-72.263
X135.89Y-74.803
X135.89Y-77.343
X135.89Y-82.931
X137.287Y-120.523
X137.287Y-135.763
X140.89Y-82.931
X142.494Y-121.031
X142.494Y-123.571
X142.494Y-126.111
X142.494Y-131.191
X142.534Y-136.271
X143.51Y-54.483
X143.51Y-57.023
X143.51Y-59.563
X143.51Y-62.103
X143.51Y-64.643
X143.51Y-67.183
X143.51Y-69.723
X143.51Y-72.263
X143.51Y-74.803
X143.51Y-77.343
X147.394Y-131.191
X147.534Y-136.271
X152.614Y-128.651
X152.654Y-121.031
X152.654Y-123.571
X152.654Y-126.111
X152.654Y-133.731
X152.654Y-136.271
X155.194Y-110.871
X155.194Y-113.411
X155.194Y-115.951
X155.194Y-118.491
X155.194Y-121.031
X155.194Y-123.571
X155.194Y-126.111
X155.194Y-131.191
X160.194Y-131.191
X160.782Y-69.723
X160.782Y-72.263
X160.782Y-74.803
X160.782Y-77.343
X160.782Y-79.883
X160.782Y-82.423
X160.782Y-84.963
X160.782Y-87.503
X160.782Y-90.043
X160.782Y-92.583
X160.782Y-95.123
X160.782Y-97.663
X160.782Y-100.203
X160.782Y-102.743
X160.782Y-105.283
X160.782Y-107.823
X161.798Y-53.467
X161.798Y-62.103
X162.774Y-128.651
X162.814Y-110.871
X162.814Y-113.411
X162.814Y-115.951
X162.814Y-118.491
X162.814Y-121.031
X162.814Y-123.571
X162.814Y-126.111
X162.814Y-133.731
X162.814Y-136.271
X165.354Y-113.411
X165.354Y-118.491
X165.354Y-121.031
X165.354Y-126.111
X165.354Y-131.191
X165.354Y-133.731
X165.354Y-136.271
X168.402Y-53.467
X168.402Y-69.723
X168.402Y-72.263
X168.402Y-74.803
X168.402Y-77.343
X168.402Y-79.883
X168.402Y-82.423
X168.402Y-84.963
X168.402Y-87.503
X168.402Y-90.043
X168.402Y-92.583
X168.402Y-95.123
X168.402Y-97.663
X168.402Y-100.203
X168.402Y-102.743
X168.402Y-105.283
X168.402Y-107.823
X168.91Y-115.951
X168.99Y-110.871
X169.418Y-123.571
X171.958Y-53.467
X171.958Y-62.103
X173.91Y-115.951
X173.99Y-110.871
X174.418Y-123.571
X174.498Y-82.423
X174.498Y-84.963
X174.498Y-87.503
X174.498Y-90.043
X174.498Y-92.583
X174.498Y-95.123
X174.498Y-97.663
X174.498Y-100.203
X174.498Y-102.743
X174.498Y-105.283
X175.514Y-113.411
X175.514Y-118.491
X175.514Y-121.031
X175.514Y-126.111
X175.514Y-131.191
X175.514Y-133.731
X175.514Y-136.271
X178.054Y-49.403
X178.054Y-51.943
X178.054Y-54.483
X178.054Y-57.023
X178.054Y-59.563
X178.054Y-62.103
X178.054Y-64.643
X178.054Y-67.183
X178.054Y-69.723
X178.054Y-72.263
X178.054Y-110.871
X178.054Y-113.411
X178.054Y-115.951
X178.054Y-118.491
X178.054Y-121.031
X178.054Y-123.571
X178.054Y-126.111
X178.054Y-128.651
X178.054Y-131.191
X178.054Y-133.731
X182.118Y-82.423
X182.118Y-84.963
X182.118Y-87.503
X182.118Y-90.043
X182.118Y-92.583
X182.118Y-95.123
X182.118Y-97.663
X182.118Y-100.203
X182.118Y-102.743
X182.118Y-105.283
X185.674Y-49.403
X185.674Y-51.943
X185.674Y-54.483
X185.674Y-57.023
X185.674Y-59.563
X185.674Y-62.103
X185.674Y-64.643
X185.674Y-67.183
X185.674Y-110.871
X185.674Y-113.411
X185.674Y-115.951
X185.674Y-118.491
X185.674Y-121.031
X185.674Y-123.571
X185.674Y-126.111
X185.674Y-128.651
X185.674Y-131.191
X185.674Y-133.731
X187.706Y-95.203
X187.706Y-100.203
X188.214Y-69.723
X188.214Y-72.263
T4
X49.53Y-73.787
X49.53Y-76.327
X49.53Y-78.867
X49.53Y-81.407
X49.53Y-83.947
X49.53Y-86.487
X49.53Y-89.027
X49.53Y-91.567
X49.53Y-94.107
X49.53Y-96.647
X49.53Y-99.187
X49.53Y-101.727
X49.53Y-104.267
X49.53Y-106.807
X49.53Y-109.347
X49.53Y-111.887
X49.53Y-114.427
X52.07Y-73.787
X52.07Y-76.327
X52.07Y-78.867
X52.07Y-81.407
X52.07Y-83.947
X52.07Y-86.487
X52.07Y-89.027
X52.07Y-91.567
X52.07Y-94.107
X52.07Y-96.647
X52.07Y-99.187
X52.07Y-101.727
X52.07Y-104.267
X52.07Y-106.807
X52.07Y-109.347
X52.07Y-111.887
X52.07Y-114.427
X193.802Y-54.483
X193.802Y-57.023
X193.802Y-59.563
X193.802Y-62.103
X193.802Y-64.643
X193.802Y-67.183
X193.802Y-69.723
X193.802Y-72.263
X193.802Y-74.803
X193.802Y-77.343
X193.802Y-79.883
X193.802Y-82.423
X193.802Y-84.963
X193.802Y-87.503
X193.802Y-90.043
X193.802Y-92.583
X193.802Y-95.123
X193.802Y-97.663
X193.802Y-100.203
X193.802Y-102.743
X193.802Y-105.283
X193.802Y-107.823
X193.802Y-110.363
X193.802Y-112.903
X193.802Y-115.443
X193.802Y-117.983
X193.802Y-120.523
X193.802Y-123.063
X193.802Y-125.603
X193.802Y-128.143
X193.802Y-130.683
X193.802Y-133.223
X196.342Y-54.483
X196.342Y-57.023
X196.342Y-59.563
X196.342Y-62.103
X196.342Y-64.643
X196.342Y-67.183
X196.342Y-69.723
X196.342Y-72.263
X196.342Y-74.803
X196.342Y-77.343
X196.342Y-79.883
X196.342Y-82.423
X196.342Y-84.963
X196.342Y-87.503
X196.342Y-90.043
X196.342Y-92.583
X196.342Y-95.123
X196.342Y-97.663
X196.342Y-100.203
X196.342Y-102.743
X196.342Y-105.283
X196.342Y-107.823
X196.342Y-110.363
X196.342Y-112.903
X196.342Y-115.443
X196.342Y-117.983
X196.342Y-120.523
X196.342Y-123.063
X196.342Y-125.603
X196.342Y-128.143
X196.342Y-130.683
X196.342Y-133.223
T5
X45.466Y-64.793
X48.006Y-64.793
X50.546Y-64.793
T6
X59.297Y-51.723
X59.297Y-69.723
X64.885Y-51.723
X64.885Y-69.723
X92.087Y-54.483
X92.087Y-72.483
X120.257Y-54.627
X120.257Y-72.627
X148.982Y-54.483
X148.982Y-72.483
T7
X198.882Y-49.403
X198.882Y-138.303
T8
X48.006Y-48.133
M30
