M48
METRIC,TZ
T1C0.400
T2C0.800
T3C0.800
T4C1.000
T5C1.100
T6C1.200
%
G90
G05
T1
X44874Y-118052
X56007Y-140335
X58547Y-117348
X58547Y-124333
X58674Y-123063
X60452Y-103378
X60452Y-104648
X60452Y-106553
X60452Y-117348
X63627Y-131953
X66167Y-129413
X66802Y-110871
X71247Y-112179
X73787Y-117983
X73787Y-129413
X76327Y-129413
X78867Y-129413
X80772Y-93218
X81407Y-129413
X82042Y-95123
X83566Y-97028
X85217Y-98933
X86487Y-101473
X87757Y-117983
X88392Y-103378
X90297Y-107823
X91567Y-105918
X94996Y-52959
X95377Y-117983
X95377Y-119253
X98298Y-93218
X99822Y-95123
X100457Y-116078
X101727Y-141478
X102997Y-97028
X102997Y-98933
X104267Y-123063
X105537Y-101473
X106807Y-103378
X109347Y-105918
X112014Y-107823
X112014Y-137795
X113157Y-117348
X116332Y-95123
X116332Y-97028
X116332Y-98933
X116332Y-101473
X116332Y-103378
X116332Y-105918
X116365Y-93218
X119634Y-126873
X120777Y-119253
X120777Y-133384
X122047Y-117348
X122047Y-126873
X122174Y-125349
X123317Y-110363
X123952Y-116713
X124587Y-128143
X127254Y-126873
X129295Y-74049
X129794Y-126873
X136652Y-117348
X140970Y-94107
X141849Y-66772
X143256Y-93599
X144272Y-101473
X144526Y-93599
X145288Y-79121
X145542Y-105283
X147086Y-115570
X147320Y-75819
X148844Y-116459
X149352Y-98933
X149915Y-84934
X150622Y-102743
X150865Y-130766
X151892Y-91313
X152650Y-90047
X153924Y-89027
X154518Y-68646
X154518Y-73771
X155448Y-53467
X155448Y-60579
X155702Y-93853
X156840Y-64202
X157856Y-69832
X157856Y-74402
X157988Y-83693
X160571Y-116548
X161464Y-122729
X161496Y-111906
X161798Y-78613
X162197Y-66470
X162560Y-60325
X163081Y-96286
X164156Y-105872
X164479Y-111542
X165299Y-92967
X165354Y-76835
X166116Y-81153
X166563Y-92972
X170628Y-83065
X170942Y-90043
X172212Y-58241
X172945Y-90032
X172974Y-108585
X173093Y-103228
X173482Y-76327
X174244Y-55626
X174244Y-59817
X174752Y-77343
X175514Y-110617
X175810Y-103872
X177546Y-81661
X177878Y-92559
X179324Y-78613
X179913Y-93559
X180106Y-99790
X180107Y-98025
X180428Y-88296
X180510Y-67111
X181875Y-115697
X181879Y-132713
X183708Y-96663
X186690Y-77597
X186690Y-79375
X186690Y-81153
X187452Y-63373
X188976Y-77597
X188976Y-79375
X188976Y-81153
X189474Y-99670
X189484Y-63373
X189498Y-92387
X190246Y-110363
T2
X64770Y-86487
X64770Y-89027
T3
X40894Y-59793
X40894Y-64793
X43942Y-121793
X43942Y-124333
X43942Y-126873
X43942Y-129413
X43942Y-131953
X43942Y-134493
X43942Y-137033
X43942Y-139573
X51562Y-121793
X51562Y-124333
X51562Y-126873
X51562Y-129413
X51562Y-131953
X51562Y-134493
X51562Y-137033
X51562Y-139573
X55118Y-59643
X55118Y-64643
X56007Y-120523
X56007Y-135763
X56642Y-77851
X56642Y-88011
X56642Y-100711
X56642Y-110871
X58547Y-120523
X58547Y-135763
X59817Y-77851
X59817Y-88011
X59817Y-100711
X59817Y-110871
X61087Y-120523
X61087Y-135763
X63627Y-120523
X63627Y-135763
X66167Y-120523
X66167Y-135763
X68707Y-120523
X68707Y-135763
X69342Y-54483
X69342Y-57023
X69342Y-59563
X69342Y-62103
X69342Y-64643
X69342Y-67183
X69342Y-69723
X69342Y-72263
X69342Y-74803
X69342Y-77343
X69342Y-82931
X69342Y-92583
X69342Y-95123
X69342Y-97663
X69342Y-100203
X69342Y-102743
X69342Y-105283
X69342Y-107823
X69342Y-110363
X71247Y-120523
X71247Y-135763
X73787Y-120523
X73787Y-135763
X74342Y-82931
X76327Y-120523
X76327Y-135763
X76962Y-54483
X76962Y-57023
X76962Y-59563
X76962Y-62103
X76962Y-64643
X76962Y-67183
X76962Y-69723
X76962Y-72263
X76962Y-74803
X76962Y-77343
X76962Y-92583
X76962Y-95123
X76962Y-97663
X76962Y-100203
X76962Y-102743
X76962Y-105283
X76962Y-107823
X76962Y-110363
X78867Y-120523
X78867Y-135763
X80010Y-82931
X80137Y-54483
X80137Y-57023
X80137Y-59563
X80137Y-62103
X80137Y-64643
X80137Y-67183
X80137Y-69723
X80137Y-72263
X80137Y-74803
X80137Y-77343
X81407Y-120523
X81407Y-135763
X83947Y-120523
X83947Y-135763
X85010Y-82931
X86487Y-120523
X86487Y-135763
X87757Y-54483
X87757Y-57023
X87757Y-59563
X87757Y-62103
X87757Y-64643
X87757Y-67183
X87757Y-69723
X87757Y-72263
X87757Y-74803
X87757Y-77343
X89027Y-120523
X89027Y-135763
X92837Y-120523
X92837Y-123063
X92837Y-125603
X92837Y-128143
X92837Y-130683
X92837Y-133223
X92837Y-135763
X96637Y-54478
X96637Y-57018
X96637Y-59558
X96637Y-62098
X96637Y-64638
X96637Y-67178
X96637Y-69718
X96637Y-72258
X96637Y-74798
X96637Y-77338
X96647Y-82931
X99227Y-113411
X100457Y-120523
X100457Y-123063
X100457Y-125603
X100457Y-128143
X100457Y-130683
X100457Y-133223
X100457Y-135763
X101647Y-82931
X104227Y-113411
X104257Y-54478
X104257Y-57018
X104257Y-59558
X104257Y-62098
X104257Y-64638
X104257Y-67178
X104257Y-69718
X104257Y-72258
X104257Y-74798
X104257Y-77338
X104267Y-120523
X104267Y-135763
X106807Y-120523
X106807Y-135763
X107442Y-54483
X107442Y-57023
X107442Y-59563
X107442Y-62103
X107442Y-64643
X107442Y-67183
X107442Y-69723
X107442Y-72263
X107442Y-74803
X107442Y-77343
X107442Y-82931
X109347Y-120523
X109347Y-135763
X111887Y-120523
X111887Y-135763
X112442Y-82931
X114427Y-120523
X114427Y-135763
X115062Y-54483
X115062Y-57023
X115062Y-59563
X115062Y-62103
X115062Y-64643
X115062Y-67183
X115062Y-69723
X115062Y-72263
X115062Y-74803
X115062Y-77343
X116967Y-120523
X116967Y-135763
X119507Y-120523
X119507Y-135763
X122047Y-120523
X122047Y-135763
X124587Y-120523
X124587Y-135763
X125222Y-54478
X125222Y-57018
X125222Y-59558
X125222Y-62098
X125222Y-64638
X125222Y-67178
X125222Y-69718
X125222Y-72258
X125222Y-74798
X125222Y-77338
X125222Y-82931
X127127Y-120523
X127127Y-135763
X129667Y-120523
X129667Y-135763
X130222Y-82931
X132207Y-120523
X132207Y-135763
X132842Y-54478
X132842Y-57018
X132842Y-59558
X132842Y-62098
X132842Y-64638
X132842Y-67178
X132842Y-69718
X132842Y-72258
X132842Y-74798
X132842Y-77338
X134747Y-120523
X134747Y-135763
X135890Y-54483
X135890Y-57023
X135890Y-59563
X135890Y-62103
X135890Y-64643
X135890Y-67183
X135890Y-69723
X135890Y-72263
X135890Y-74803
X135890Y-77343
X135890Y-82931
X137287Y-120523
X137287Y-135763
X140890Y-82931
X142494Y-121031
X142494Y-123571
X142494Y-126111
X142494Y-131191
X142534Y-136271
X143510Y-54483
X143510Y-57023
X143510Y-59563
X143510Y-62103
X143510Y-64643
X143510Y-67183
X143510Y-69723
X143510Y-72263
X143510Y-74803
X143510Y-77343
X147394Y-131191
X147534Y-136271
X152614Y-128651
X152654Y-121031
X152654Y-123571
X152654Y-126111
X152654Y-133731
X152654Y-136271
X155194Y-110871
X155194Y-113411
X155194Y-115951
X155194Y-118491
X155194Y-121031
X155194Y-123571
X155194Y-126111
X155194Y-131191
X160194Y-131191
X160782Y-69723
X160782Y-72263
X160782Y-74803
X160782Y-77343
X160782Y-79883
X160782Y-82423
X160782Y-84963
X160782Y-87503
X160782Y-90043
X160782Y-92583
X160782Y-95123
X160782Y-97663
X160782Y-100203
X160782Y-102743
X160782Y-105283
X160782Y-107823
X161798Y-53467
X161798Y-62103
X162774Y-128651
X162814Y-110871
X162814Y-113411
X162814Y-115951
X162814Y-118491
X162814Y-121031
X162814Y-123571
X162814Y-126111
X162814Y-133731
X162814Y-136271
X165354Y-113411
X165354Y-118491
X165354Y-121031
X165354Y-126111
X165354Y-131191
X165354Y-133731
X165354Y-136271
X168402Y-53467
X168402Y-69723
X168402Y-72263
X168402Y-74803
X168402Y-77343
X168402Y-79883
X168402Y-82423
X168402Y-84963
X168402Y-87503
X168402Y-90043
X168402Y-92583
X168402Y-95123
X168402Y-97663
X168402Y-100203
X168402Y-102743
X168402Y-105283
X168402Y-107823
X168910Y-115951
X168990Y-110871
X169418Y-123571
X171958Y-53467
X171958Y-62103
X173910Y-115951
X173990Y-110871
X174418Y-123571
X174498Y-82423
X174498Y-84963
X174498Y-87503
X174498Y-90043
X174498Y-92583
X174498Y-95123
X174498Y-97663
X174498Y-100203
X174498Y-102743
X174498Y-105283
X175514Y-113411
X175514Y-118491
X175514Y-121031
X175514Y-126111
X175514Y-131191
X175514Y-133731
X175514Y-136271
X178054Y-49403
X178054Y-51943
X178054Y-54483
X178054Y-57023
X178054Y-59563
X178054Y-62103
X178054Y-64643
X178054Y-67183
X178054Y-69723
X178054Y-72263
X178054Y-110871
X178054Y-113411
X178054Y-115951
X178054Y-118491
X178054Y-121031
X178054Y-123571
X178054Y-126111
X178054Y-128651
X178054Y-131191
X178054Y-133731
X182118Y-82423
X182118Y-84963
X182118Y-87503
X182118Y-90043
X182118Y-92583
X182118Y-95123
X182118Y-97663
X182118Y-100203
X182118Y-102743
X182118Y-105283
X185674Y-49403
X185674Y-51943
X185674Y-54483
X185674Y-57023
X185674Y-59563
X185674Y-62103
X185674Y-64643
X185674Y-67183
X185674Y-110871
X185674Y-113411
X185674Y-115951
X185674Y-118491
X185674Y-121031
X185674Y-123571
X185674Y-126111
X185674Y-128651
X185674Y-131191
X185674Y-133731
X187706Y-95203
X187706Y-100203
X188214Y-69723
X188214Y-72263
T4
X49530Y-73787
X49530Y-76327
X49530Y-78867
X49530Y-81407
X49530Y-83947
X49530Y-86487
X49530Y-89027
X49530Y-91567
X49530Y-94107
X49530Y-96647
X49530Y-99187
X49530Y-101727
X49530Y-104267
X49530Y-106807
X49530Y-109347
X49530Y-111887
X49530Y-114427
X52070Y-73787
X52070Y-76327
X52070Y-78867
X52070Y-81407
X52070Y-83947
X52070Y-86487
X52070Y-89027
X52070Y-91567
X52070Y-94107
X52070Y-96647
X52070Y-99187
X52070Y-101727
X52070Y-104267
X52070Y-106807
X52070Y-109347
X52070Y-111887
X52070Y-114427
X193802Y-54483
X193802Y-57023
X193802Y-59563
X193802Y-62103
X193802Y-64643
X193802Y-67183
X193802Y-69723
X193802Y-72263
X193802Y-74803
X193802Y-77343
X193802Y-79883
X193802Y-82423
X193802Y-84963
X193802Y-87503
X193802Y-90043
X193802Y-92583
X193802Y-95123
X193802Y-97663
X193802Y-100203
X193802Y-102743
X193802Y-105283
X193802Y-107823
X193802Y-110363
X193802Y-112903
X193802Y-115443
X193802Y-117983
X193802Y-120523
X193802Y-123063
X193802Y-125603
X193802Y-128143
X193802Y-130683
X193802Y-133223
X196342Y-54483
X196342Y-57023
X196342Y-59563
X196342Y-62103
X196342Y-64643
X196342Y-67183
X196342Y-69723
X196342Y-72263
X196342Y-74803
X196342Y-77343
X196342Y-79883
X196342Y-82423
X196342Y-84963
X196342Y-87503
X196342Y-90043
X196342Y-92583
X196342Y-95123
X196342Y-97663
X196342Y-100203
X196342Y-102743
X196342Y-105283
X196342Y-107823
X196342Y-110363
X196342Y-112903
X196342Y-115443
X196342Y-117983
X196342Y-120523
X196342Y-123063
X196342Y-125603
X196342Y-128143
X196342Y-130683
X196342Y-133223
T5
X45466Y-64793
X48006Y-64793
X50546Y-64793
T6
X59298Y-51723
X59298Y-69723
X64885Y-51723
X64885Y-69723
X92087Y-54483
X92087Y-72483
X120257Y-54627
X120257Y-72627
X148982Y-54483
X148982Y-72483
M30
